<?xml version="1.0" encoding="utf-8"?>
<!-- Generator: Adobe Illustrator 19.1.0, SVG Export Plug-In . SVG Version: 6.00 Build 0)  -->
<svg version="1.1" id="Layer_1" xmlns="http://www.w3.org/2000/svg" xmlns:xlink="http://www.w3.org/1999/xlink" x="0px" y="0px"
	 viewBox="329 -711 1450 2035" style="enable-background:new 329 -711 1450 2035;" xml:space="preserve">
<style type="text/css">
	.st0{fill:#E9E6DA;enable-background:new    ;}
</style>
<path class="st0" d="M1342.5-285c-37.6-16.7-75.8-29.3-114.3-38.9c-7.5-1.6-13.1-10.2-9.1-19.5L1373.7-711h-122.4L604,827.5
	c-50.6-56.3-91.4-121.9-119.6-195.3c-60.2-156.7-57.7-328.1,7.4-482.8C549.4,12.5,650.6-95.3,774.2-160.8l63.7-151.3
	c-194.2,62.7-362,208.3-449.2,415.7c-122.9,292.2-49.5,620.2,159.5,830.1c4.6,5.2,5.2,14.2,2.1,21.4L395.6,1323h122.5l649-1542.7
	c44.6,8.6,88.4,21.9,130.8,40.8c150.3,67,266.2,190.1,326.5,346.7c60.3,156.7,57.7,328.1-7.4,482.8
	c-97.2,231.1-318.2,380.5-563,380.5c-54,0-107.1-8-158.9-22.5L850,1115.8c67.5,20.5,136.2,31,204,31
	c280.6,0,547.6-168.4,666.1-450.2C1879.3,318.2,1710.2-121.3,1342.5-285"/>
</svg>
