<?xml version="1.0" encoding="utf-8"?>
<!-- Generator: Adobe Illustrator 19.1.0, SVG Export Plug-In . SVG Version: 6.00 Build 0)  -->
<svg version="1.1" id="Layer_1" xmlns="http://www.w3.org/2000/svg" xmlns:xlink="http://www.w3.org/1999/xlink" x="0px" y="0px"
	 viewBox="0 0 1450 2035" style="enable-background:new 0 0 1450 2035;" xml:space="preserve">
<style type="text/css">
	.st0{opacity:0.3;fill:#E2DECF;}
</style>
<path class="st0" d="M1013.5,426c-37.6-16.7-75.8-29.3-114.3-38.9c-7.5-1.6-13.1-10.2-9.1-19.5L1044.7,0H922.3L275,1538.5
	c-50.6-56.3-91.4-121.9-119.6-195.3c-60.2-156.7-57.7-328.1,7.4-482.8c57.6-136.9,158.8-244.7,282.4-310.2l63.7-151.3
	c-194.2,62.7-362,208.3-449.2,415.7c-122.9,292.2-49.5,620.2,159.5,830.1c4.6,5.2,5.2,14.2,2.1,21.4L66.6,2034h122.5l649-1542.7
	c44.6,8.6,88.4,21.9,130.8,40.8c150.3,67,266.2,190.1,326.5,346.7c60.3,156.7,57.7,328.1-7.4,482.8
	c-97.2,231.1-318.2,380.5-563,380.5c-54,0-107.1-8-158.9-22.5l-45.1,107.2c67.5,20.5,136.2,31,204,31
	c280.6,0,547.6-168.4,666.1-450.2C1550.3,1029.2,1381.2,589.7,1013.5,426"/>
</svg>
