<?xml version="1.0" standalone="no"?>
<!DOCTYPE svg PUBLIC "-//W3C//DTD SVG 1.1//EN" "http://www.w3.org/Graphics/SVG/1.1/DTD/svg11.dtd" >
<svg xmlns="http://www.w3.org/2000/svg">
<metadata>
This is a custom SVG webfont generated by Typotheque.
</metadata>
<defs>
<font id="typotheque_webfonts_service" horiz-adv-x="556" >
<font-face units-per-em="1000" ascent="744" descent="-256" />
<missing-glyph horiz-adv-x="268" />
<glyph unicode=" "  horiz-adv-x="268" />
<glyph unicode="&#x09;" horiz-adv-x="268" />
<glyph unicode="&#xa0;" horiz-adv-x="268" />
<glyph unicode="C" horiz-adv-x="673" d="M479 659q-52 0 -96 -20.5t-79.5 -55t-62 -79.5t-44.5 -94t-27 -98.5t-9 -93.5q0 -88 37 -135.5t119 -47.5q45 0 80 14t63.5 38t51 55.5t41.5 66.5h35l-38 -153q-50 -34 -113.5 -52.5t-126.5 -18.5t-110.5 18.5t-79 52.5t-47 81t-15.5 103q0 85 33.5 169t92.5 150.5 t141 108t178 41.5q54 0 105.5 -14t91.5 -40l-45 -179h-35q-2 40 -8 74t-22 58t-42.5 37.5t-68.5 13.5z" />
<glyph unicode="D" horiz-adv-x="726" d="M697 454q0 -84 -31.5 -165t-88.5 -145.5t-136.5 -104t-175.5 -39.5h-284l11 41q18 1 33 2t26 4q29 7 40 50l124 499q10 42 -15 50q-8 3 -22.5 3.5t-34.5 2.5l10 41h296q125 0 186.5 -62t61.5 -177zM271 50q78 0 137.5 39t100 99t61 132.5t20.5 138.5q0 87 -38.5 135.5 t-128.5 48.5h-102l-148 -593h98z" />
<glyph unicode="E" horiz-adv-x="610" d="M-8 41q5 0 13.5 0.5t17.5 1.5t16.5 1.5t12.5 2.5q17 5 25.5 16.5t14.5 33.5l124 499q5 23 2 34t-17 16q-6 2 -23 3t-34 3l10 41h463l-21 -167h-36q-1 36 -7 59t-19.5 35.5t-35.5 17.5t-55 5h-122l-65 -260h101q23 0 36 6.5t21 20.5q4 7 9.5 24.5l10.5 34.5h41l-55 -222 h-41q1 5 2.5 13.5l3 17t2.5 16.5t1 12q-1 15 -11.5 21t-32.5 6h-100l-71 -283h135q37 0 63 7t48 24t42 45.5t45 71.5l31 -4l-64 -194h-492z" />
<glyph unicode="F" horiz-adv-x="574" d="M216 596q5 23 2 34t-17 16q-6 2 -23 3t-34 3l10 41h483l-41 -167h-36q-1 36 -7 59t-19.5 35.5t-35.5 17.5t-55 5h-122l-69 -280h100q23 0 36 6.5t21 20.5q4 7 9.5 24.5l10.5 34.5h41l-55 -222h-41q1 5 2.5 13.5l3 17t2.5 16.5t1 12q-1 15 -11.5 21t-32.5 6h-100l-53 -216 q-5 -23 -2 -34t16 -16q6 -2 23.5 -3t34.5 -3l-11 -41h-266l11 41q5 0 13.5 0.5t17.5 1.5t16.5 1.5t12.5 2.5q17 5 25.5 16.5t14.5 33.5z" />
<glyph unicode="G" horiz-adv-x="720" d="M559 42q-21 -12 -49 -22.5t-60 -18.5t-67 -12.5t-70 -3.5q-127 3 -191 72t-64 185q0 87 34 170.5t95 149.5t143.5 106.5t180.5 40.5q57 0 109.5 -14t91.5 -40l-45 -179h-35q-2 39 -8 72t-21.5 58t-43 39t-71.5 14q-52 0 -96.5 -20t-80.5 -53.5t-63 -78t-45.5 -93 t-28 -98.5t-9.5 -95q0 -89 40 -137.5t130 -48.5q33 0 67 7t68 22l41 165q13 44 -14 50q-10 2 -31.5 3t-36.5 3l11 41h252l-11 -41l-18 -2t-18 -4q-17 -5 -25.5 -16t-14.5 -34z" />
<glyph unicode="H" horiz-adv-x="780" d="M596 97q-6 -23 -2.5 -34t16.5 -16q6 -2 23.5 -3t34.5 -3l-11 -41h-266l11 41q5 0 13.5 0.5t17.5 1.5t16.5 1.5t12.5 2.5q17 5 25.5 16.5t14.5 33.5l59 237h-316l-59 -237q-6 -23 -2.5 -34t16.5 -16q6 -2 23.5 -3t34.5 -3l-11 -41h-266l11 41q5 0 13.5 0.5t17.5 1.5 t16.5 1.5t12.5 2.5q17 5 25.5 16.5t14.5 33.5l124 499q5 23 2 34t-17 16q-6 2 -23 3t-34 3l10 41h266l-10 -41q-5 0 -13.5 -0.5t-17.5 -1.5l-17.5 -2t-12.5 -2q-29 -8 -39 -50l-52 -209h316l52 209q5 23 2 34t-17 16q-6 2 -23 3t-34 3l10 41h266l-10 -41q-5 0 -13.5 -0.5 t-17.5 -1.5l-17.5 -2t-12.5 -2q-29 -8 -39 -50z" />
<glyph unicode="I" horiz-adv-x="370" d="M186 97q-6 -23 -2.5 -34t16.5 -16q6 -2 23.5 -3t34.5 -3l-11 -41h-266l11 41q5 0 13.5 0.5t17.5 1.5t16.5 1.5t12.5 2.5q17 5 25.5 16.5t14.5 33.5l124 499q5 23 2 34t-17 16q-6 2 -23 3t-34 3l10 41h266l-10 -41q-5 0 -13.5 -0.5t-17.5 -1.5l-17.5 -2t-12.5 -2 q-29 -8 -39 -50z" />
<glyph unicode="J" horiz-adv-x="354" d="M209 596q6 23 2.5 34t-16.5 16q-7 2 -24 3t-34 3l10 41h266l-10 -41q-5 0 -13.5 -0.5t-17.5 -1.5t-17 -2t-12 -2q-17 -5 -26 -16.5t-14 -33.5l-144 -577q-11 -45 -32.5 -89t-54 -78.5t-75.5 -56t-97 -21.5q-40 0 -59 15.5t-19 41.5q0 23 16 37.5t37 14.5q18 0 26 -9 t13.5 -20.5t11.5 -20.5t21 -9q45 0 74 66.5t59 188.5z" />
<glyph unicode="K" horiz-adv-x="678" d="M186 97q-6 -23 -2.5 -34t16.5 -16q6 -2 23.5 -3t34.5 -3l-11 -41h-266l11 41q5 0 13.5 0.5t17.5 1.5t16.5 1.5t12.5 2.5q17 5 25.5 16.5t14.5 33.5l124 499q5 23 2 34t-17 16q-6 2 -23 3t-34 3l10 41h266l-10 -41q-5 0 -13.5 -0.5t-17.5 -1.5l-17.5 -2t-12.5 -2 q-29 -8 -39 -50zM279 345q36 27 70.5 58.5l65 61.5l56 56l43.5 43q12 11 26.5 29t18.5 32q2 7 1.5 11t-6 7t-17.5 5t-33 4l10 41h254l-10 -41q-75 -6 -151 -75q-16 -14 -40 -37.5l-54 -52.5l-65.5 -62.5l-72.5 -67.5l114 -240q16 -33 39 -52t63 -25l-13 -40h-145l-155 338z " />
<glyph unicode="L" horiz-adv-x="568" d="M51 47q17 5 25.5 16.5t14.5 33.5l124 499q5 23 2 34t-17 16q-6 2 -23 3t-34 3l10 41h266l-10 -41q-5 0 -13.5 -0.5t-17.5 -1.5l-17.5 -2t-12.5 -2q-29 -8 -39 -50l-137 -546h105q37 0 64.5 8.5t51.5 27.5t45.5 49t46.5 73l31 -4l-64 -204h-471l11 41q11 1 30.5 2t28.5 4z " />
<glyph unicode="M" horiz-adv-x="922" d="M972 693l-10 -41q-5 0 -13.5 -0.5t-17.5 -1.5l-17.5 -2t-12.5 -2q-29 -8 -39 -50l-124 -499q-6 -23 -2.5 -34t16.5 -16q6 -2 23.5 -3t34.5 -3l-11 -41h-266l11 41q5 0 13.5 0.5t17.5 1.5t16.5 1.5t12.5 2.5q17 5 25.5 16.5t14.5 33.5l119 480l-333 -430h-34l-118 429 l-111 -444q-7 -29 -3 -46.5t17 -27.5q21 -16 59 -21l-10 -37h-256l10 37q16 2 31.5 6t29.5 11q20 9 35 27.5t23 50.5l116 464q5 23 2 34t-17 16q-6 2 -23 3t-34 3l10 41h184l117 -423l334 423h180z" />
<glyph unicode="N" horiz-adv-x="807" d="M581 173l97 388q8 29 4 46.5t-17 27.5q-21 16 -59 21l9 37h256l-9 -37q-17 -2 -32 -6t-29 -11q-20 -9 -35.5 -27.5t-23.5 -50.5l-140 -565h-49l-279 562l-105 -426q-8 -29 -4 -46.5t17 -27.5q21 -16 59 -21l-9 -37h-256l9 37q17 2 32 6t29 11q20 9 35.5 27.5t23.5 50.5 l101 408q13 52 -1 81t-61 36l9 36h160z" />
<glyph unicode="O" horiz-adv-x="780" d="M753 449q0 -84 -34 -167t-93.5 -149t-141 -107t-176.5 -41q-123 0 -186.5 69t-63.5 187q0 84 33.5 167.5t92.5 150.5t140 108.5t176 41.5q63 0 110.5 -19t79 -53t47.5 -82t16 -106zM318 37q55 0 101 19.5t83 52.5t64.5 77t46 92t28 97.5t9.5 94.5q0 43 -9 78t-28.5 59.5 t-50.5 38t-74 13.5q-55 0 -101 -20t-82 -54.5t-63 -79t-45 -93.5t-27 -99t-9 -94q0 -88 36.5 -135t120.5 -47z" />
<glyph unicode="P" horiz-adv-x="594" d="M216 596q11 43 -15 50q-10 3 -23 3.5t-34 2.5l10 41h303q78 0 120.5 -35.5t42.5 -102.5q0 -53 -22.5 -100.5t-61 -83.5t-88.5 -57t-105 -21h-109l-48 -196q-11 -43 14 -50q11 -3 29 -3.5t39 -2.5l-11 -41h-276l11 41q14 1 31.5 2t28.5 4q29 7 40 50zM321 643l-74 -300h75 q40 0 74 16.5t59 44.5t39 65t14 77q0 45 -24.5 71t-70.5 26h-92z" />
<glyph unicode="Q" horiz-adv-x="780" d="M753 449q0 -84 -34 -167t-93.5 -149t-141.5 -107q-44 -23 -93 -32q1 -39 8 -67q9 -36 26.5 -56.5t40.5 -28.5t49 -8q14 0 27 1t27 3l-2 -43q-41 -12 -71 -16t-59 -4q-44 0 -72.5 15t-45.5 45t-25 76q-6 33 -9 75q-106 6 -164 68q-63 69 -63 187q0 84 33.5 167.5 t92.5 150.5t140 108.5t176 41.5q63 0 110.5 -19t79 -53t47.5 -82t16 -106zM318 37q55 0 101 19.5t83 52.5t64.5 77t46 92t28 97.5t9.5 94.5q0 43 -9 78t-28.5 59.5t-50.5 38t-74 13.5q-55 0 -101 -20t-82 -54.5t-63 -79t-45 -93.5t-27 -99t-9 -94q0 -88 36.5 -135t120.5 -47 z" />
<glyph unicode="R" horiz-adv-x="666" d="M216 596q5 23 2 34t-17 16q-9 3 -23 3.5t-34 2.5l10 41h303q78 0 122.5 -31.5t44.5 -100.5q0 -43 -17.5 -81.5t-48 -69t-71 -52t-85.5 -29.5l106 -212q19 -40 43.5 -56t64.5 -21l-13 -40h-150l-149 325h-62l-56 -228q-11 -43 14 -50q11 -3 29 -3.5t39 -2.5l-11 -41h-276 l11 41q13 1 31 2t29 4q29 7 40 50zM321 643l-66 -268h75q39 0 72 13.5t57.5 37t38 55t13.5 68.5q0 49 -24.5 71.5t-73.5 22.5h-92z" />
<glyph unicode="S" horiz-adv-x="591" d="M204 -15q-51 0 -103 13t-96 42l44 177h26q7 -94 47 -135.5t106 -41.5q34 0 66 10t56.5 28.5t39.5 44.5t15 58q0 44 -22.5 68.5t-70.5 45.5l-76 33q-52 23 -78.5 59t-26.5 92q0 53 23 95.5t62 72t90.5 45.5t107.5 16q50 0 97.5 -13t89.5 -42l-44 -179h-35q-1 96 -31 140 t-96 44q-31 0 -61.5 -9.5t-55 -26.5t-39.5 -42.5t-15 -56.5q0 -41 18 -65.5t65 -44.5l71 -31q27 -12 50.5 -26t41 -33.5t28 -45t10.5 -59.5q0 -55 -26 -98t-68.5 -73t-97.5 -46t-112 -16z" />
<glyph unicode="T" horiz-adv-x="632" d="M452 643l-136 -546q-11 -43 14 -50q10 -3 23 -3.5t35 -2.5l-11 -41h-266l11 41q14 1 31.5 2t28.5 4q29 7 40 50l136 546h-55q-33 0 -57.5 -5t-44.5 -17.5t-37.5 -35.5t-35.5 -59h-36l41 167h568l-41 -167h-36q-1 36 -7 59t-19.5 35.5t-35.5 17.5t-55 5h-55z" />
<glyph unicode="U" horiz-adv-x="758" d="M304 -14q-58 0 -101 14t-69 43.5t-32.5 75.5t9.5 109l92 368q11 43 -15 50q-10 3 -27.5 4t-29.5 2l10 41h266l-10 -41q-23 -2 -36.5 -2.5t-24.5 -3.5q-26 -7 -37 -42l-92 -368q-24 -97 4 -147.5t119 -50.5q50 0 87.5 15t65.5 42t46 64t29 81l82 329q5 26 0.5 41.5 t-15.5 24.5q-21 16 -59 21l9 37h256l-9 -37q-16 -2 -31.5 -6t-29.5 -11q-19 -9 -34 -26t-23 -46l-82 -328q-14 -57 -40 -103.5t-65 -80t-92 -51.5t-121 -18z" />
<glyph unicode="V" horiz-adv-x="683" d="M273 598q0 -3 0.5 -7.5t0.5 -7.5l39 -439l273 424q19 29 19 48t-19 27t-54 9l10 41h233l-9 -36q-34 -5 -64 -27t-48 -51l-381 -592h-34l-65 609q-2 20 -8.5 30t-20.5 15q-8 3 -20.5 6.5t-22.5 4.5l10 41h271l-10 -41q-55 -4 -77.5 -13.5t-22.5 -40.5z" />
<glyph unicode="W" horiz-adv-x="1028" d="M673 693l24 -533l232 407q18 31 18 49t-18 26t-56 10l10 41h233l-9 -37q-34 -5 -61.5 -23t-47.5 -51l-344 -595h-34l-39 567l-336 -567h-34l-35 609q-2 20 -8.5 30t-20.5 15q-8 3 -20.5 6.5t-22.5 4.5l10 41h271l-10 -41q-31 -2 -50 -5t-30 -9.5t-15 -17.5t-4 -29v-18 l13 -414l314 534h70z" />
<glyph unicode="X" horiz-adv-x="663" d="M125 693h272l-10 -41q-41 -2 -59 -8.5t-18 -26.5q0 -14 11 -42l60 -155l156 163q24 25 24 40q0 23 -63 29l10 41h238l-10 -41q-30 -4 -66 -20.5t-67 -48.5l-203 -212l108 -274q11 -28 26 -39.5t46 -16.5l-11 -41h-275l11 41q57 5 79 15t22 30q0 5 -2 11l-4 12l-72 187 l-172 -180q-28 -29 -28 -46q0 -14 17 -20.5t45 -8.5l-11 -41h-237l11 41q17 2 36 9.5t37 18t35 23t29 24.5l219 229l-96 251q-6 14 -17.5 24t-25.5 17t-28.5 10.5t-26.5 4.5z" />
<glyph unicode="Y" horiz-adv-x="644" d="M281 604q0 -7 1 -14.5t4 -17.5l65 -227l191 237q18 22 18 37q0 10 -7 16t-18 9.5t-24.5 5t-26.5 2.5l10 41h241l-9 -35q-30 -3 -57 -19.5t-52 -42.5l-254 -305l-47 -194q-6 -23 -2.5 -34t16.5 -16q6 -2 23.5 -3t34.5 -3l-11 -41h-266l11 41q5 0 13.5 0.5t17.5 1.5 t16.5 1.5t12.5 2.5q17 5 25.5 16.5t14.5 33.5l49 202l-96 297q-10 26 -25.5 38.5t-46.5 17.5l10 41h276l-10 -41q-47 -4 -72.5 -11t-25.5 -37z" />
<glyph unicode="Z" horiz-adv-x="612" d="M537 212l-67 -212h-491v17l530 626h-154q-34 0 -62 -5.5t-52 -20t-46 -40t-44 -65.5l-32 2l56 179h472l3 -17l-532 -626h124q53 0 88 7.5t63 26t53 50.5t59 82z" />
<glyph unicode="a" horiz-adv-x="544" d="M389 97q-7 -27 6 -27q6 0 14.5 4.5t19 12l21.5 16t21 17.5l16 -30q-49 -57 -89.5 -81t-63.5 -24q-26 0 -36 25t1 59l38 124h-3q-27 -44 -54.5 -81.5t-55 -64.5t-55 -42.5t-54.5 -15.5q-41 0 -69.5 32.5t-28.5 101.5q0 40 10.5 83t30.5 84t48.5 78.5t64 65.5t77.5 44.5 t89 16.5q22 0 40 -5t35 -13l62 18h15zM150 63q19 0 44 20.5t52.5 53t55 72.5l52.5 79l30 122q-17 13 -38 22t-44 9q-33 0 -60 -15.5t-48 -41t-36 -58t-25 -66t-15 -66.5t-5 -58q0 -73 37 -73z" />
<glyph unicode="b" horiz-adv-x="520" d="M174 663q5 19 1 26.5t-15 7.5q-12 0 -31 -8.5t-40 -19.5v35q49 34 79 44.5t54 10.5q32 0 40 -18t0 -48l-93 -372h1q31 48 57.5 81.5t51 54t47.5 29.5t46 9q52 0 77 -39t25 -108q0 -66 -20.5 -131t-60.5 -116t-98.5 -83t-134.5 -32q-29 0 -69 9t-76 29zM328 411 q-29 0 -74.5 -45.5t-108.5 -148.5l-39 -151q19 -9 43 -15.5t50 -6.5q49 0 84 26t57.5 66t33 87.5t10.5 91.5q0 54 -13 75t-43 21z" />
<glyph unicode="c" horiz-adv-x="436" d="M379 370q-22 0 -31 12t-16 26q-8 14 -19 26t-38 12q-41 0 -71 -29t-49.5 -72.5t-28.5 -93t-9 -91.5q0 -23 3 -44t11.5 -36.5t25 -24.5t43.5 -9q36 0 67.5 17.5t73.5 59.5l14 -33q-39 -47 -85.5 -76.5t-108.5 -29.5q-40 0 -66.5 12.5t-42.5 34.5t-22.5 50.5t-6.5 61.5 q0 58 20 120t57 113.5t89 84.5t116 33q25 0 47 -5t38.5 -14t26 -22.5t9.5 -30.5q0 -18 -9.5 -35t-37.5 -17z" />
<glyph unicode="d" horiz-adv-x="531" d="M378 97q-5 -17 -1 -22.5t12 -3.5q13 3 32.5 18l38.5 31l11 -31q-49 -57 -85.5 -80.5t-59.5 -23.5q-26 0 -35.5 25t0.5 59l35 118h-4q-27 -43 -54 -79t-54 -62.5t-53.5 -41.5t-53.5 -15q-36 0 -62 31t-26 100q0 60 22 126t62.5 121.5t97.5 91.5t128 36q18 0 34.5 -2.5 t31.5 -7.5l44 178q5 19 1 26.5t-15 7.5q-13 0 -32 -9l-39 -19v35q40 29 73.5 42t59.5 13q31 0 39.5 -18t0.5 -48zM142 63q19 0 44 20t52 52.5t54.5 72l52.5 78.5l32 130q-17 10 -38 17.5t-45 7.5q-33 0 -60 -15.5t-48 -41t-36 -58t-25 -66t-15 -66.5t-5 -58q0 -73 37 -73z " />
<glyph unicode="e" horiz-adv-x="460" d="M368 91q-39 -47 -90 -76.5t-113 -29.5q-40 0 -67 12.5t-44 34t-24.5 50.5t-7.5 61q0 56 20.5 118t58.5 114t91.5 86t120.5 34q23 0 45.5 -4.5t40 -15t28.5 -28t11 -44.5t-14.5 -57t-50.5 -56t-97.5 -44t-155.5 -22q-2 -17 -3 -33t-1 -30q0 -23 3.5 -44t13.5 -36.5 t27 -24.5t44 -9q36 0 72 17.5t78 59.5zM284 447q-32 0 -57.5 -16t-45 -41.5t-33 -59t-21.5 -67.5q77 8 120 25t64 36t26 37t5 28q0 31 -15 44.5t-43 13.5z" />
<glyph unicode="f" horiz-adv-x="323" d="M67 481h84l2 5q15 58 38.5 108t56.5 87t75 57.5t94 20.5q39 0 64 -13.5t25 -33.5t-11 -31.5t-31 -11.5q-12 0 -22.5 5t-21.5 11t-23.5 11t-27.5 5q-28 0 -47 -11t-32.5 -32.5t-23 -52t-19.5 -69.5l-14 -55h116l-12 -50h-117l-95 -383q-15 -59 -38 -108.5t-53.5 -86.5 t-66.5 -57.5t-76 -20.5q-32 0 -55.5 14t-23.5 34q0 17 12 30t32 13q10 0 18.5 -5t17.5 -11.5t20.5 -11.5t26.5 -5q29 0 50.5 43.5t41.5 121.5l108 433h-84z" />
<glyph unicode="g" horiz-adv-x="478" d="M201 185q-32 0 -61 8q-33 -31 -33 -56q0 -29 50 -37l80 -12q70 -11 109.5 -33.5t39.5 -71.5q0 -41 -26 -78.5t-68.5 -66.5t-97.5 -46.5t-112 -17.5q-77 0 -116 33t-39 83q0 28 12.5 51.5t32.5 42t46.5 33t53.5 26.5q-23 11 -32.5 25.5t-9.5 32.5q0 16 7.5 31t19.5 28 t27.5 24t30.5 20q-52 28 -52 96q0 41 19 76.5t50.5 62t73 41.5t85.5 15q69 0 106 -39q10 11 15 23t9 24q6 20 18 32.5t32 12.5q15 0 24.5 -7.5t9.5 -21.5q0 -15 -8.5 -27.5t-22 -22.5t-30.5 -17t-34 -13q17 -28 17 -67q0 -41 -18.5 -75.5t-49.5 -59t-72 -38.5t-86 -14z M127 28q-8 1 -14.5 2t-13.5 3q-37 -22 -63 -51t-26 -71q0 -41 27.5 -61.5t78.5 -20.5q36 0 69.5 8.5t59 24.5t40.5 39t15 52q0 26 -21 41t-69 22zM218 228q27 0 49 12.5t38 32.5t24.5 45t8.5 50q0 41 -18.5 62.5t-48.5 21.5q-26 0 -48.5 -13t-39 -34t-25.5 -46.5t-9 -50.5 q0 -36 16 -58t53 -22z" />
<glyph unicode="h" horiz-adv-x="533" d="M386 110q-5 -20 -4.5 -30t8.5 -10t26 12t49 38l11 -31q-49 -57 -85.5 -81t-59.5 -23q-26 1 -35 25t0 59l60 239q14 53 12.5 74.5t-29.5 21.5q-29 0 -82 -57.5t-119 -170.5l-46 -176h-81l163 662q5 18 2 25.5t-13 7.5q-12 0 -32 -8t-41 -20v35q48 32 81 44t55 12 q32 0 38 -20.5t-2 -51.5l-101 -405h2q33 58 62.5 99t56 66.5t51 37t48.5 11.5q22 0 38.5 -8.5t25.5 -28t8.5 -50.5t-11.5 -76z" />
<glyph unicode="i" horiz-adv-x="291" d="M138 90q-3 -20 8 -20q8 0 26 12t49 38l11 -31q-49 -57 -85.5 -81t-59.5 -23q-26 1 -35 25t0 59l81 330q5 18 2 25.5t-13 7.5q-12 0 -32 -8t-41 -20v35q48 32 81 44t55 12q32 0 38 -20.5t-2 -51.5zM184 696q0 23 16.5 40t39.5 17t40 -17t17 -40t-17 -39.5t-40 -16.5 t-39.5 16.5t-16.5 39.5z" />
<glyph unicode="j" horiz-adv-x="262" d="M123 48q-15 -59 -38 -108.5t-53.5 -86.5t-66.5 -57.5t-76 -20.5q-32 0 -55.5 16t-23.5 39q0 17 13 30t33 13q10 0 18 -6.5l17 -14t20 -13.5t26 -6q29 0 50.5 43.5t41.5 121.5l100 401q5 18 2 25.5t-13 7.5q-12 0 -32 -8t-41 -20v35q48 32 81 44t55 12q32 0 38 -20.5 t-2 -51.5zM183 696q0 23 16.5 40t39.5 17t40 -17t17 -40t-17 -39.5t-40 -16.5t-39.5 16.5t-16.5 39.5z" />
<glyph unicode="k" horiz-adv-x="507" d="M10 0l166 663q5 19 1 26.5t-15 7.5q-13 0 -32 -9l-39 -19v35q40 29 73.5 42t59.5 13q31 0 39.5 -18t0.5 -48l-102 -404h3q32 56 60.5 95.5t54.5 64t50 35.5t48 11q33 0 57.5 -18.5t24.5 -64.5q0 -48 -35.5 -93t-112.5 -101l117 -203l-10 -30h-70l-115 209v10 q69 57 100.5 104.5t31.5 77.5q0 29 -30 29q-29 0 -80.5 -60t-117.5 -173l-48 -182h-80z" />
<glyph unicode="l" horiz-adv-x="267" d="M117 97q-4 -17 -1 -22.5t11 -3.5q13 2 33 17.5l39 31.5l11 -31q-49 -57 -85.5 -80.5t-59.5 -23.5q-26 0 -34.5 25t-0.5 59l148 594q5 19 1 26.5t-15 7.5q-13 0 -32 -9l-39 -19v35q40 29 73.5 42t59.5 13q31 0 39.5 -18t0.5 -48l-149 -596v0z" />
<glyph unicode="m" horiz-adv-x="815" d="M134 399q5 18 2 25.5t-13 7.5q-12 0 -32 -8t-41 -20v35q48 32 81 44t55 12q32 0 38 -20.5t-2 -51.5l-40 -144h2q33 59 62.5 100t56.5 67t51.5 37.5t48.5 11.5q22 0 38 -8.5t24.5 -28t8 -50.5t-11.5 -76l-10 -40q64 111 114.5 157t97.5 46q22 0 38.5 -8.5t25.5 -28 t8.5 -50.5t-11.5 -76l-56 -222q-5 -20 -4.5 -30t8.5 -10t26 12t49 38l11 -31q-49 -57 -85.5 -81t-59.5 -23q-26 1 -35 25t0 59l60 239q14 53 12.5 74.5t-29.5 21.5t-78.5 -53.5t-113.5 -159.5l-48 -191h-80l76 308q14 53 12.5 74.5t-29.5 21.5q-29 0 -82 -57t-119 -171 l-43 -176h-81l98 399v0z" />
<glyph unicode="n" horiz-adv-x="557" d="M134 399q5 18 2 25.5t-13 7.5q-12 0 -32 -8t-41 -20v35q48 32 81 44t55 12q32 0 38 -20.5t-2 -51.5l-46 -158h3q35 63 65.5 107t58 71t53 39.5t50.5 12.5q22 0 38.5 -8.5t25.5 -28t8.5 -50.5t-11.5 -76l-56 -222q-5 -20 -4.5 -30t8.5 -10t26 12t49 38l11 -31 q-49 -57 -85.5 -81t-59.5 -23q-26 1 -35 25t0 59l60 239q14 53 12.5 74.5t-29.5 21.5q-29 0 -84 -60.5t-124 -179.5l-39 -164h-81l98 399v0z" />
<glyph unicode="o" horiz-adv-x="510" d="M463 325q0 -57 -20.5 -117t-58 -109.5t-89.5 -81.5t-116 -32q-78 0 -115.5 47.5t-37.5 126.5q0 60 20.5 120t57 108t88.5 78t115 30q75 0 115.5 -45.5t40.5 -124.5zM196 34q38 0 69.5 29t54 73.5t35 97.5t12.5 100q0 23 -3.5 43t-12 35t-23.5 24t-38 9q-41 0 -72 -27 t-52 -69.5t-32 -94t-11 -99.5q0 -24 3 -46t11.5 -38.5t22.5 -26.5t36 -10z" />
<glyph unicode="p" horiz-adv-x="546" d="M-73 -167h66l142 566q5 19 1 26.5t-15 7.5q-12 0 -31 -8.5t-40 -19.5v35q49 34 79 44.5t54 10.5q29 0 38.5 -18t1.5 -48l-31 -113h2q31 50 58.5 84t52 55t48 30.5t46.5 9.5q52 0 76.5 -39t24.5 -108q0 -66 -20.5 -131t-60.5 -116t-98.5 -83t-134.5 -32q-15 0 -33.5 2.5 t-38.5 7.5l-41 -163h136l-12 -50h-282zM355 411q-30 0 -75.5 -46.5t-110.5 -151.5l-37 -147q19 -9 43 -15.5t50 -6.5q49 0 84 26t57.5 66t33 87.5t10.5 91.5q0 54 -12.5 75t-42.5 21z" />
<glyph unicode="q" horiz-adv-x="506" d="M103 -167h129l87 346h-2q-26 -41 -52.5 -76t-52.5 -60.5t-52.5 -39.5t-52.5 -14q-36 0 -62 31t-26 100q0 60 22 126t62.5 121.5t97.5 91.5t128 36q22 0 40 -5t35 -13l59 18h15l-166 -662h73l-12 -50h-282zM142 63q19 0 43 19.5t50.5 50.5t53.5 69.5l52 76.5l34 132 q-17 12 -37.5 21t-43.5 9q-33 0 -60 -15.5t-48 -41t-36 -58t-25 -66t-15 -66.5t-5 -58q0 -73 37 -73z" />
<glyph unicode="r" horiz-adv-x="407" d="M134 400q5 18 2 25.5t-13 7.5q-12 0 -32 -8t-41 -20v35q48 32 81 44t55 12q32 0 38.5 -20.5t-2.5 -51.5l-31 -114h3q36 58 62.5 94t48 56.5t39.5 27.5t37 7q23 0 35.5 -9t12.5 -33q0 -20 -13.5 -36t-43.5 -18q-31 -2 -53.5 -10.5t-43.5 -28.5t-44.5 -53l-56.5 -83 l-57 -224h-81l98 400v0z" />
<glyph unicode="s" horiz-adv-x="371" d="M99 -12q-48 0 -81 13.5t-33 44.5q0 20 11.5 31.5t32.5 11.5q15 0 26.5 -7l25 -15.5t30.5 -15.5t42 -7q19 0 34 9t15 37q0 24 -10.5 42.5t-23.5 36.5l-70 100q-15 23 -21 43.5t-6 36.5q0 27 15 53t40.5 47t59 33.5t71.5 12.5q45 0 75 -16.5t30 -45.5q0 -19 -12.5 -30 t-32.5 -11q-13 0 -25 7t-25.5 16t-30 16t-38.5 7q-29 0 -42 -16t-13 -39q0 -10 3.5 -22.5t16.5 -31.5l73 -102q4 -5 11 -15t14 -22.5t12.5 -28t5.5 -31.5q0 -22 -11.5 -47t-34.5 -46t-56.5 -35t-77.5 -14z" />
<glyph unicode="t" horiz-adv-x="373" d="M65 481h96l25 96l79 52h15l-37 -148h138l-13 -50h-138l-67 -271q-9 -38 -9 -60q0 -38 31 -38q17 0 44 10.5t66 30.5l18 -29q-46 -39 -87 -62t-81 -23q-82 0 -82 80q0 22 8 54l78 308h-97z" />
<glyph unicode="u" d="M403 96q-5 -17 -0.5 -21.5t7.5 -4.5q12 0 32.5 16l42.5 34l11 -31q-49 -57 -85.5 -80.5t-58.5 -23.5q-16 0 -25.5 7.5t-13 19.5t-2.5 27t5 30l37 137h-3q-34 -61 -64 -103t-57 -68.5t-51.5 -38t-47.5 -11.5q-22 0 -38.5 9t-25.5 28.5t-8.5 50.5t11.5 76l63 250 q5 20 -0.5 27t-13.5 7t-26 -6t-45 -22v35q38 29 74 42.5t59 12.5q26 -1 37.5 -16t2.5 -50l-65 -256q-14 -53 -13 -75.5t29 -22.5q29 0 83 59t122 177l43 170h81l-97 -385v0z" />
<glyph unicode="v" horiz-adv-x="488" d="M421 495q29 0 39 -18t10 -49q0 -43 -18.5 -95.5t-54.5 -109.5t-87.5 -116.5t-117.5 -114.5h-22l-66 420q-3 21 -18 21q-11 0 -31 -8.5t-38 -17.5v33q19 15 40 27q18 11 39.5 19.5t43.5 8.5q29 0 37 -18.5t13 -58.5l44 -317q48 41 75 83t40.5 84t17 83t3.5 80 q0 29 14 46.5t37 17.5z" />
<glyph unicode="w" horiz-adv-x="738" d="M669 495q29 0 39 -18t10 -49q0 -43 -17 -95.5t-51 -109.5t-84 -116.5t-116 -114.5h-22l-44 277q-26 -66 -72 -135.5t-120 -141.5h-22l-66 420q-3 21 -18 21q-11 0 -31 -8.5t-38 -17.5v33q19 15 40 27q18 11 39.5 19.5t43.5 8.5q29 0 37 -18.5t13 -58.5l43 -307 q70 76 98 155t30 152l-10 63h87l55 -382q48 41 73.5 83.5t37 85t13 83.5t1.5 80q0 29 14 46.5t37 17.5z" />
<glyph unicode="x" horiz-adv-x="516" d="M271 317l90 110q31 38 50.5 52t39.5 14q17 0 28.5 -15t19.5 -37q6 -18 9 -37l-27 -17q-20 15 -41 15q-19 0 -36 -11.5t-36 -34.5l-80 -95l46 -150q6 -20 16 -29t21 -9q15 0 31.5 11t31.5 25l20 -20q-13 -20 -27 -38.5t-29 -33t-31 -23.5t-34 -9q-29 0 -44.5 21t-23.5 46 l-42 131l-108 -128q-28 -34 -48.5 -52t-41.5 -18q-23 0 -35 11.5t-18 26.5q-3 6 -5 12l-4 12l22 28q7 -4 15.5 -5t17.5 0q23 2 49 15.5t46 38.5l92 113l-55 174q-4 9 -9.5 15t-13.5 6q-11 0 -31 -8.5t-38 -17.5l-6 33q23 19 51.5 37t62.5 18q29 0 46 -18.5t29 -58.5z" />
<glyph unicode="y" horiz-adv-x="536" d="M308 27q38 66 61 142t36 160q-48 -75 -110.5 -158.5t-140.5 -161.5h-37l4 403q-3 21 -18 21q-11 0 -31 -8.5t-38 -17.5v33q20 15 42 27q19 11 41.5 19.5t45.5 8.5q29 0 40 -18.5t9 -58.5l-11 -290q30 33 61.5 73.5l60.5 79.5l53 73.5t38 57.5q2 17 3 34l2 35h88l6 -10 q-6 -26 -16.5 -76.5t-28 -113.5t-45 -133t-68.5 -136q-24 -39 -58 -80.5t-74.5 -75.5t-87 -56t-96.5 -22q-69 0 -69 47q0 26 17.5 39.5t45.5 13.5q22 0 52 -4.5t65.5 5t75.5 42t82 106.5z" />
<glyph unicode="z" horiz-adv-x="478" d="M435 481l10 -28l-321 -356l45 -7l52.5 -8t50 -6.5t37.5 -2.5q22 0 36.5 2.5t24 10t17.5 20.5t19 35l27 -6q-14 -41 -26.5 -69t-27 -46t-33 -26t-44.5 -8q-27 0 -62 6t-68.5 13.5t-62 15.5t-42.5 13l-31 -34h-38l-9 26l320 356q-33 0 -58.5 4.5t-47.5 9l-40.5 8.5t-37.5 4 q-15 0 -27.5 -9t-26.5 -44l-25 8q14 39 25 64.5t22 40.5t24.5 21t31.5 6q26 0 47.5 -6.5t45.5 -15t53 -17t70 -11.5l33 36h37z" />
<glyph unicode="0" horiz-adv-x="634" d="M581 378q0 -65 -26 -134.5t-73.5 -127t-113 -94.5t-144.5 -37q-81 0 -128.5 44t-47.5 138q0 65 24.5 135t69.5 128.5t109.5 96.5t144.5 38q87 0 136 -47.5t49 -139.5zM248 43q39 0 70.5 16t57 42.5t44.5 61t31.5 72t19 74t6.5 68.5q0 132 -105 132q-39 0 -70.5 -17 t-56 -45.5t-42.5 -64.5t-30 -74.5t-17.5 -76t-5.5 -67.5q0 -65 25 -93t73 -28z" />
<glyph unicode="1" horiz-adv-x="432" d="M235 105q-7 -23 -3 -34t17 -16q3 -1 15.5 -2.5t27.5 -2.5l30 -2t24 -2l-12 -46h-333l12 46q5 0 20 1t31.5 2.5t30.5 2.5t19 3q17 5 25.5 16.5t14.5 33.5l88 353h-136l9 36q57 8 110 28.5t96 39.5h28z" />
<glyph unicode="2" horiz-adv-x="548" d="M407 0h-412l2 35l165 125.5t118.5 95t71 79t23.5 76.5q0 69 -85 69q-48 0 -92 -20.5t-83 -56.5l-14 23q64 80 126 109.5t117 29.5q69 0 103.5 -34t34.5 -91q0 -51 -28 -95.5t-75 -87t-110.5 -85l-133.5 -89.5h320l1 -10z" />
<glyph unicode="3" horiz-adv-x="547" d="M175 204l55.5 31t70.5 46t61 58.5t26 68.5q0 21 -9 35t-23.5 22.5t-32.5 11.5t-37 3q-48 0 -93.5 -18.5t-80.5 -50.5l-16 26q63 69 122.5 98.5t118.5 29.5q66 0 105.5 -32t39.5 -91q0 -37 -16 -67.5t-40.5 -56t-55.5 -47l-61 -40.5q61 -11 94 -47t33 -95 q0 -56 -26.5 -101.5t-70 -78t-98.5 -50.5t-112 -18q-28 0 -57 4.5t-52 14.5t-38 25.5t-15 36.5q0 24 18.5 41.5t45.5 17.5q17 0 25.5 -7t13.5 -17.5t9.5 -23t13 -23t23 -17.5t41.5 -7q35 0 67.5 13t57.5 35.5t40 53t15 65.5q0 21 -7 40.5t-25 35t-49.5 27t-79.5 17.5z" />
<glyph unicode="4" horiz-adv-x="596" d="M286 56h-312l15 62l472 438h32l-107 -429h141v-10l-36 -61h-122l-49 -197h-83zM303 127l71 284l-304 -284h233z" />
<glyph unicode="5" horiz-adv-x="566" d="M113 -159q-28 0 -58 5.5t-53.5 17t-37 29t-7.5 41.5q5 21 22 34t40 13q17 0 26 -7t14 -17.5t9.5 -23t13 -23t23 -17.5t41.5 -7q38 0 71.5 16.5t59 44.5t40.5 63.5t15 74.5q0 46 -28.5 71.5t-69.5 36.5t-86 12.5t-78 -0.5l135 344h365l1 -10l-51 -76h-296l-75 -184 q137 -2 210.5 -43.5t73.5 -119.5q0 -58 -28.5 -108.5t-74 -87.5t-102.5 -58t-115 -21z" />
<glyph unicode="6" horiz-adv-x="586" d="M613 666q-71 -6 -134 -29.5t-116.5 -61t-96 -87t-71.5 -106.5q35 19 77 34t89 15q81 0 119.5 -42t38.5 -107q0 -58 -25.5 -112t-68.5 -95t-99 -66t-117 -25q-44 0 -75.5 13t-51.5 37t-29.5 57.5t-9.5 74.5q0 103 43 195.5t116 164t168 118.5t199 61q11 2 23 2.5t23 1.5z M312 367q-36 0 -72 -11t-68 -26q-33 -86 -33 -179q0 -60 24.5 -90t69.5 -30q42 0 76 23t57.5 58t36.5 77t13 81q0 50 -27 73.5t-77 23.5z" />
<glyph unicode="7" horiz-adv-x="520" d="M25 -144l-2 10l440 607h-376l-1 10l49 66h415l-2 -35l-446 -658h-77z" />
<glyph unicode="8" horiz-adv-x="574" d="M570 585q0 -39 -16 -71t-42.5 -57.5t-60.5 -46t-69 -36.5q33 -18 54.5 -35.5t33.5 -35.5t16.5 -36.5t4.5 -37.5q0 -54 -25.5 -98.5t-66.5 -77t-93 -50.5t-106 -18q-38 0 -69.5 7.5t-55 23.5t-36.5 40.5t-13 59.5q0 44 15 80t41 64.5t60.5 50.5t73.5 38q-49 30 -65.5 63 t-16.5 68q0 51 23.5 93t61.5 72t87 46.5t99 16.5q34 0 64 -8t52.5 -23.5t35.5 -38.5t13 -53zM398 186q0 27 -13.5 48.5t-34 38t-45.5 29.5l-48 25q-28 -16 -53.5 -35.5t-44.5 -44t-30 -54.5t-11 -66q0 -43 26.5 -66t79.5 -23q30 0 60.5 10t56 29.5t41.5 46.5t16 62zM229 515 q0 -23 9.5 -40.5t25 -32t35.5 -26t41 -21.5q27 16 52 35t43.5 41t29.5 48t11 56q0 38 -25 59.5t-71 21.5q-28 0 -55 -10.5t-48.5 -29t-34.5 -44.5t-13 -57z" />
<glyph unicode="9" horiz-adv-x="586" d="M-32 -117q71 6 134 29.5t116.5 61t95.5 87t71 106.5q-35 -20 -77 -34.5t-88 -14.5q-81 0 -119.5 42t-38.5 107q0 58 25.5 112t68.5 95t99 66t117 25q88 0 127 -50t39 -132q0 -104 -44 -197t-118 -165t-170.5 -119t-201.5 -59l-38 -3zM269 182q36 0 72 10.5t67 25.5 q34 88 34 180q0 60 -24.5 90t-69.5 30q-42 0 -76 -23t-57.5 -58t-36.5 -77t-13 -81q0 -50 27 -73.5t77 -23.5z" />
<glyph unicode="&#xc1;" horiz-adv-x="682" d="M0 0zM431 240h-229l-90 -143q-11 -18 -7 -31t23 -18q7 -2 23 -3.5t33 -3.5l-11 -41h-232l11 41q11 1 24.5 4.5t22.5 6.5q17 5 28.5 15.5t23.5 29.5l386 609h43l57 -609q2 -20 8 -30t20 -15q8 -3 20.5 -6.5t23.5 -4.5l-11 -41h-266l11 41q17 2 33.5 3.5t24.5 3.5 q16 3 29.5 15t12.5 34zM235 293h192l-21 271zM678 832l-201 -99h-32l-1 10l130 100h102z" />
<glyph unicode="&#xc2;" horiz-adv-x="682" d="M0 0zM431 240h-229l-90 -143q-11 -18 -7 -31t23 -18q7 -2 23 -3.5t33 -3.5l-11 -41h-232l11 41q11 1 24.5 4.5t22.5 6.5q17 5 28.5 15.5t23.5 29.5l386 609h43l57 -609q2 -20 8 -30t20 -15q8 -3 20.5 -6.5t23.5 -4.5l-11 -41h-266l11 41q17 2 33.5 3.5t24.5 3.5 q16 3 29.5 15t12.5 34zM235 293h192l-21 271zM464 849h42l88 -110l-6 -10h-32l-84 67l-112 -67h-32l-2 10z" />
<glyph unicode="&#xc0;" horiz-adv-x="682" d="M0 0zM431 240h-229l-90 -143q-11 -18 -7 -31t23 -18q7 -2 23 -3.5t33 -3.5l-11 -41h-232l11 41q11 1 24.5 4.5t22.5 6.5q17 5 28.5 15.5t23.5 29.5l386 609h43l57 -609q2 -20 8 -30t20 -15q8 -3 20.5 -6.5t23.5 -4.5l-11 -41h-266l11 41q17 2 33.5 3.5t24.5 3.5 q16 3 29.5 15t12.5 34zM235 293h192l-21 271zM253 843h102l130 -100l-1 -10h-32l-201 99z" />
<glyph unicode="&#xc3;" horiz-adv-x="682" d="M0 0zM431 240h-229l-90 -143q-11 -18 -7 -31t23 -18q7 -2 23 -3.5t33 -3.5l-11 -41h-232l11 41q11 1 24.5 4.5t22.5 6.5q17 5 28.5 15.5t23.5 29.5l386 609h43l57 -609q2 -20 8 -30t20 -15q8 -3 20.5 -6.5t23.5 -4.5l-11 -41h-266l11 41q17 2 33.5 3.5t24.5 3.5 q16 3 29.5 15t12.5 34zM235 293h192l-21 271zM629 847q-6 -21 -15.5 -40t-24 -34t-34.5 -23.5t-45 -8.5q-24 0 -41.5 7.5t-31 16.5l-25 16.5t-23.5 7.5q-18 0 -30.5 -14.5t-23.5 -37.5h-31q13 45 41.5 75.5t73.5 30.5q21 0 36.5 -7.5t28 -16.5t24 -16.5t23.5 -7.5 q21 0 38 13t28 39h32z" />
<glyph unicode="&#xc7;" horiz-adv-x="673" d="M58 0zM479 659q-52 0 -96 -20.5t-79.5 -55t-62 -79.5t-44.5 -94t-27 -98.5t-9 -93.5q0 -88 37 -135.5t119 -47.5q45 0 80 14t63.5 38t51 55.5t41.5 66.5h35l-38 -153q-50 -34 -113.5 -52.5t-126.5 -18.5t-110.5 18.5t-79 52.5t-47 81t-15.5 103q0 85 33.5 169t92.5 150.5 t141 108t178 41.5q54 0 105.5 -14t91.5 -40l-45 -179h-35q-2 40 -8 74t-22 58t-42.5 37.5t-68.5 13.5zM414 -126q0 -26 -13.5 -45t-34.5 -31t-47 -18t-51 -6q-17 0 -35.5 2.5t-35.5 7.5l14 54q18 -7 36.5 -11t35.5 -4q23 0 39.5 9t16.5 26q0 10 -6.5 16t-17 9t-23 3.5 t-25.5 0.5l30 121h48l-16 -66q34 -3 59.5 -21t25.5 -47z" />
<glyph unicode="&#xc9;" horiz-adv-x="610" d="M0 0zM-8 41q5 0 13.5 0.5t17.5 1.5t16.5 1.5t12.5 2.5q17 5 25.5 16.5t14.5 33.5l124 499q5 23 2 34t-17 16q-6 2 -23 3t-34 3l10 41h463l-21 -167h-36q-1 36 -7 59t-19.5 35.5t-35.5 17.5t-55 5h-122l-65 -260h101q23 0 36 6.5t21 20.5q4 7 9.5 24.5l10.5 34.5h41 l-55 -222h-41q1 5 2.5 13.5l3 17t2.5 16.5t1 12q-1 15 -11.5 21t-32.5 6h-100l-71 -283h135q37 0 63 7t48 24t42 45.5t45 71.5l31 -4l-64 -194h-492zM607 832l-201 -99h-32l-1 10l130 100h102z" />
<glyph unicode="&#xca;" horiz-adv-x="610" d="M0 0zM-8 41q5 0 13.5 0.5t17.5 1.5t16.5 1.5t12.5 2.5q17 5 25.5 16.5t14.5 33.5l124 499q5 23 2 34t-17 16q-6 2 -23 3t-34 3l10 41h463l-21 -167h-36q-1 36 -7 59t-19.5 35.5t-35.5 17.5t-55 5h-122l-65 -260h101q23 0 36 6.5t21 20.5q4 7 9.5 24.5l10.5 34.5h41 l-55 -222h-41q1 5 2.5 13.5l3 17t2.5 16.5t1 12q-1 15 -11.5 21t-32.5 6h-100l-71 -283h135q37 0 63 7t48 24t42 45.5t45 71.5l31 -4l-64 -194h-492zM434 849h42l88 -110l-6 -10h-32l-84 67l-112 -67h-32l-2 10z" />
<glyph unicode="&#xcb;" horiz-adv-x="610" d="M0 0zM-8 41q5 0 13.5 0.5t17.5 1.5t16.5 1.5t12.5 2.5q17 5 25.5 16.5t14.5 33.5l124 499q5 23 2 34t-17 16q-6 2 -23 3t-34 3l10 41h463l-21 -167h-36q-1 36 -7 59t-19.5 35.5t-35.5 17.5t-55 5h-122l-65 -260h101q23 0 36 6.5t21 20.5q4 7 9.5 24.5l10.5 34.5h41 l-55 -222h-41q1 5 2.5 13.5l3 17t2.5 16.5t1 12q-1 15 -11.5 21t-32.5 6h-100l-71 -283h135q37 0 63 7t48 24t42 45.5t45 71.5l31 -4l-64 -194h-492zM472 779q0 26 20 45.5t49 19.5q17 0 28.5 -9t11.5 -30q0 -15 -6.5 -27.5t-16 -20.5t-21.5 -12.5t-24 -4.5q-17 0 -29 9.5 t-12 29.5zM304 778q0 26 19.5 46t48.5 20q17 0 29 -9t12 -30q0 -30 -22.5 -47.5t-46.5 -17.5q-17 0 -28.5 9t-11.5 29z" />
<glyph unicode="&#xc8;" horiz-adv-x="610" d="M0 0zM-8 41q5 0 13.5 0.5t17.5 1.5t16.5 1.5t12.5 2.5q17 5 25.5 16.5t14.5 33.5l124 499q5 23 2 34t-17 16q-6 2 -23 3t-34 3l10 41h463l-21 -167h-36q-1 36 -7 59t-19.5 35.5t-35.5 17.5t-55 5h-122l-65 -260h101q23 0 36 6.5t21 20.5q4 7 9.5 24.5l10.5 34.5h41 l-55 -222h-41q1 5 2.5 13.5l3 17t2.5 16.5t1 12q-1 15 -11.5 21t-32.5 6h-100l-71 -283h135q37 0 63 7t48 24t42 45.5t45 71.5l31 -4l-64 -194h-492zM244 843h102l130 -100l-1 -10h-32l-201 99z" />
<glyph unicode="&#xcd;" horiz-adv-x="370" d="M0 0zM186 97q-6 -23 -2.5 -34t16.5 -16q6 -2 23.5 -3t34.5 -3l-11 -41h-266l11 41q5 0 13.5 0.5t17.5 1.5t16.5 1.5t12.5 2.5q17 5 25.5 16.5t14.5 33.5l124 499q5 23 2 34t-17 16q-6 2 -23 3t-34 3l10 41h266l-10 -41q-5 0 -13.5 -0.5t-17.5 -1.5l-17.5 -2t-12.5 -2 q-29 -8 -39 -50zM473 832l-201 -99h-32l-1 10l130 100h102z" />
<glyph unicode="&#xce;" horiz-adv-x="370" d="M0 0zM186 97q-6 -23 -2.5 -34t16.5 -16q6 -2 23.5 -3t34.5 -3l-11 -41h-266l11 41q5 0 13.5 0.5t17.5 1.5t16.5 1.5t12.5 2.5q17 5 25.5 16.5t14.5 33.5l124 499q5 23 2 34t-17 16q-6 2 -23 3t-34 3l10 41h266l-10 -41q-5 0 -13.5 -0.5t-17.5 -1.5l-17.5 -2t-12.5 -2 q-29 -8 -39 -50zM302 849h42l88 -110l-6 -10h-32l-84 67l-112 -67h-32l-2 10z" />
<glyph unicode="&#xcf;" horiz-adv-x="370" d="M0 0zM186 97q-6 -23 -2.5 -34t16.5 -16q6 -2 23.5 -3t34.5 -3l-11 -41h-266l11 41q5 0 13.5 0.5t17.5 1.5t16.5 1.5t12.5 2.5q17 5 25.5 16.5t14.5 33.5l124 499q5 23 2 34t-17 16q-6 2 -23 3t-34 3l10 41h266l-10 -41q-5 0 -13.5 -0.5t-17.5 -1.5l-17.5 -2t-12.5 -2 q-29 -8 -39 -50zM334 779q0 26 20 45.5t49 19.5q17 0 28.5 -9t11.5 -30q0 -15 -6.5 -27.5t-16 -20.5t-21.5 -12.5t-24 -4.5q-17 0 -29 9.5t-12 29.5zM166 778q0 26 19.5 46t48.5 20q17 0 29 -9t12 -30q0 -30 -22.5 -47.5t-46.5 -17.5q-17 0 -28.5 9t-11.5 29z" />
<glyph unicode="&#xd1;" horiz-adv-x="807" d="M0 0zM581 173l97 388q8 29 4 46.5t-17 27.5q-21 16 -59 21l9 37h256l-9 -37q-17 -2 -32 -6t-29 -11q-20 -9 -35.5 -27.5t-23.5 -50.5l-140 -565h-49l-279 562l-105 -426q-8 -29 -4 -46.5t17 -27.5q21 -16 59 -21l-9 -37h-256l9 37q17 2 32 6t29 11q20 9 35.5 27.5 t23.5 50.5l101 408q13 52 -1 81t-61 36l9 36h160zM686 847q-6 -21 -15.5 -40t-24 -34t-34.5 -23.5t-45 -8.5q-24 0 -41.5 7.5t-31 16.5l-25 16.5t-23.5 7.5q-18 0 -30.5 -14.5t-23.5 -37.5h-31q13 45 41.5 75.5t73.5 30.5q21 0 36.5 -7.5t28 -16.5t24 -16.5t23.5 -7.5 q21 0 38 13t28 39h32z" />
<glyph unicode="&#xd6;" horiz-adv-x="780" d="M58 0zM753 449q0 -84 -34 -167t-93.5 -149t-141 -107t-176.5 -41q-123 0 -186.5 69t-63.5 187q0 84 33.5 167.5t92.5 150.5t140 108.5t176 41.5q63 0 110.5 -19t79 -53t47.5 -82t16 -106zM318 37q55 0 101 19.5t83 52.5t64.5 77t46 92t28 97.5t9.5 94.5q0 43 -9 78 t-28.5 59.5t-50.5 38t-74 13.5q-55 0 -101 -20t-82 -54.5t-63 -79t-45 -93.5t-27 -99t-9 -94q0 -88 36.5 -135t120.5 -47zM528 779q0 26 20 45.5t49 19.5q17 0 28.5 -9t11.5 -30q0 -15 -6.5 -27.5t-16 -20.5t-21.5 -12.5t-24 -4.5q-17 0 -29 9.5t-12 29.5zM360 778 q0 26 19.5 46t48.5 20q17 0 29 -9t12 -30q0 -30 -22.5 -47.5t-46.5 -17.5q-17 0 -28.5 9t-11.5 29z" />
<glyph unicode="&#xd5;" horiz-adv-x="780" d="M58 0zM753 449q0 -84 -34 -167t-93.5 -149t-141 -107t-176.5 -41q-123 0 -186.5 69t-63.5 187q0 84 33.5 167.5t92.5 150.5t140 108.5t176 41.5q63 0 110.5 -19t79 -53t47.5 -82t16 -106zM318 37q55 0 101 19.5t83 52.5t64.5 77t46 92t28 97.5t9.5 94.5q0 43 -9 78 t-28.5 59.5t-50.5 38t-74 13.5q-55 0 -101 -20t-82 -54.5t-63 -79t-45 -93.5t-27 -99t-9 -94q0 -88 36.5 -135t120.5 -47zM674 847q-6 -21 -15.5 -40t-24 -34t-34.5 -23.5t-45 -8.5q-24 0 -41.5 7.5t-31 16.5l-25 16.5t-23.5 7.5q-18 0 -30.5 -14.5t-23.5 -37.5h-31 q13 45 41.5 75.5t73.5 30.5q21 0 36.5 -7.5t28 -16.5t24 -16.5t23.5 -7.5q21 0 38 13t28 39h32z" />
<glyph unicode="&#xd3;" horiz-adv-x="780" d="M58 0zM753 449q0 -84 -34 -167t-93.5 -149t-141 -107t-176.5 -41q-123 0 -186.5 69t-63.5 187q0 84 33.5 167.5t92.5 150.5t140 108.5t176 41.5q63 0 110.5 -19t79 -53t47.5 -82t16 -106zM318 37q55 0 101 19.5t83 52.5t64.5 77t46 92t28 97.5t9.5 94.5q0 43 -9 78 t-28.5 59.5t-50.5 38t-74 13.5q-55 0 -101 -20t-82 -54.5t-63 -79t-45 -93.5t-27 -99t-9 -94q0 -88 36.5 -135t120.5 -47zM685 832l-201 -99h-32l-1 10l130 100h102z" />
<glyph unicode="&#xd4;" horiz-adv-x="780" d="M58 0zM753 449q0 -84 -34 -167t-93.5 -149t-141 -107t-176.5 -41q-123 0 -186.5 69t-63.5 187q0 84 33.5 167.5t92.5 150.5t140 108.5t176 41.5q63 0 110.5 -19t79 -53t47.5 -82t16 -106zM318 37q55 0 101 19.5t83 52.5t64.5 77t46 92t28 97.5t9.5 94.5q0 43 -9 78 t-28.5 59.5t-50.5 38t-74 13.5q-55 0 -101 -20t-82 -54.5t-63 -79t-45 -93.5t-27 -99t-9 -94q0 -88 36.5 -135t120.5 -47zM517 849h42l88 -110l-6 -10h-32l-84 67l-112 -67h-32l-2 10z" />
<glyph unicode="&#xda;" horiz-adv-x="758" d="M95 0zM304 -14q-58 0 -101 14t-69 43.5t-32.5 75.5t9.5 109l92 368q11 43 -15 50q-10 3 -27.5 4t-29.5 2l10 41h266l-10 -41q-23 -2 -36.5 -2.5t-24.5 -3.5q-26 -7 -37 -42l-92 -368q-24 -97 4 -147.5t119 -50.5q50 0 87.5 15t65.5 42t46 64t29 81l82 329q5 26 0.5 41.5 t-15.5 24.5q-21 16 -59 21l9 37h256l-9 -37q-16 -2 -31.5 -6t-29.5 -11q-19 -9 -34 -26t-23 -46l-82 -328q-14 -57 -40 -103.5t-65 -80t-92 -51.5t-121 -18zM695 832l-201 -99h-32l-1 10l130 100h102z" />
<glyph unicode="&#xdb;" horiz-adv-x="758" d="M95 0zM304 -14q-58 0 -101 14t-69 43.5t-32.5 75.5t9.5 109l92 368q11 43 -15 50q-10 3 -27.5 4t-29.5 2l10 41h266l-10 -41q-23 -2 -36.5 -2.5t-24.5 -3.5q-26 -7 -37 -42l-92 -368q-24 -97 4 -147.5t119 -50.5q50 0 87.5 15t65.5 42t46 64t29 81l82 329q5 26 0.5 41.5 t-15.5 24.5q-21 16 -59 21l9 37h256l-9 -37q-16 -2 -31.5 -6t-29.5 -11q-19 -9 -34 -26t-23 -46l-82 -328q-14 -57 -40 -103.5t-65 -80t-92 -51.5t-121 -18zM504 849h42l88 -110l-6 -10h-32l-84 67l-112 -67h-32l-2 10z" />
<glyph unicode="&#xd9;" horiz-adv-x="758" d="M95 0zM304 -14q-58 0 -101 14t-69 43.5t-32.5 75.5t9.5 109l92 368q11 43 -15 50q-10 3 -27.5 4t-29.5 2l10 41h266l-10 -41q-23 -2 -36.5 -2.5t-24.5 -3.5q-26 -7 -37 -42l-92 -368q-24 -97 4 -147.5t119 -50.5q50 0 87.5 15t65.5 42t46 64t29 81l82 329q5 26 0.5 41.5 t-15.5 24.5q-21 16 -59 21l9 37h256l-9 -37q-16 -2 -31.5 -6t-29.5 -11q-19 -9 -34 -26t-23 -46l-82 -328q-14 -57 -40 -103.5t-65 -80t-92 -51.5t-121 -18zM298 843h102l130 -100l-1 -10h-32l-201 99z" />
<glyph unicode="&#xdc;" horiz-adv-x="758" d="M95 0zM304 -14q-58 0 -101 14t-69 43.5t-32.5 75.5t9.5 109l92 368q11 43 -15 50q-10 3 -27.5 4t-29.5 2l10 41h266l-10 -41q-23 -2 -36.5 -2.5t-24.5 -3.5q-26 -7 -37 -42l-92 -368q-24 -97 4 -147.5t119 -50.5q50 0 87.5 15t65.5 42t46 64t29 81l82 329q5 26 0.5 41.5 t-15.5 24.5q-21 16 -59 21l9 37h256l-9 -37q-16 -2 -31.5 -6t-29.5 -11q-19 -9 -34 -26t-23 -46l-82 -328q-14 -57 -40 -103.5t-65 -80t-92 -51.5t-121 -18zM542 779q0 26 20 45.5t49 19.5q17 0 28.5 -9t11.5 -30q0 -15 -6.5 -27.5t-16 -20.5t-21.5 -12.5t-24 -4.5 q-17 0 -29 9.5t-12 29.5zM374 778q0 26 19.5 46t48.5 20q17 0 29 -9t12 -30q0 -30 -22.5 -47.5t-46.5 -17.5q-17 0 -28.5 9t-11.5 29z" />
<glyph unicode="&#x178;" horiz-adv-x="644" d="M103 0zM281 604q0 -7 1 -14.5t4 -17.5l65 -227l191 237q18 22 18 37q0 10 -7 16t-18 9.5t-24.5 5t-26.5 2.5l10 41h241l-9 -35q-30 -3 -57 -19.5t-52 -42.5l-254 -305l-47 -194q-6 -23 -2.5 -34t16.5 -16q6 -2 23.5 -3t34.5 -3l-11 -41h-266l11 41q5 0 13.5 0.5t17.5 1.5 t16.5 1.5t12.5 2.5q17 5 25.5 16.5t14.5 33.5l49 202l-96 297q-10 26 -25.5 38.5t-46.5 17.5l10 41h276l-10 -41q-47 -4 -72.5 -11t-25.5 -37zM494 779q0 26 20 45.5t49 19.5q17 0 28.5 -9t11.5 -30q0 -15 -6.5 -27.5t-16 -20.5t-21.5 -12.5t-24 -4.5q-17 0 -29 9.5 t-12 29.5zM326 778q0 26 19.5 46t48.5 20q17 0 29 -9t12 -30q0 -30 -22.5 -47.5t-46.5 -17.5q-17 0 -28.5 9t-11.5 29z" />
<glyph unicode="&#xc6;" horiz-adv-x="945" d="M655 643l-65 -260h100q23 0 36 6.5t21 20.5q4 7 9.5 24.5l10.5 34.5h41l-55 -222h-41q1 5 2.5 13.5l3 17t2.5 16.5t1 12q-1 15 -11.5 21t-32.5 6h-100l-71 -283h135q37 0 64.5 8.5t51.5 27.5t45.5 49t46.5 73l24 -4l-64 -204h-495l11 41q5 0 13.5 0.5t17.5 1.5t16.5 1.5 t12.5 2.5q17 5 25.5 16.5t14.5 33.5l46 186h-215l-145 -186q-13 -16 -8 -30t24 -19q7 -2 23 -3.5t33 -3.5l-11 -41h-236l11 41q10 1 24 4.5t23 6.5q17 5 27 15.5t25 29.5l428 549l-77 6l10 41h543l-21 -167h-36q-1 36 -7 59t-19.5 35.5t-35.5 17.5t-55 5h-121zM538 643 l-243 -310h189l77 310h-23z" />
<glyph unicode="&#x152;" horiz-adv-x="967" d="M973 693l-23 -167h-36q0 36 -7 59t-21 35.5t-36.5 17.5t-55.5 5h-122l-65 -260h106q20 0 31 3.5t19 13.5t13.5 26.5l13.5 42.5h41l-55 -222h-41l5.5 30.5t3.5 28.5q-1 15 -11 21t-32 6h-106l-71 -283h135q37 0 64 7.5t50 25t44 46t46 71.5l31 -4l-59 -196h-408 q-26 -7 -53.5 -11t-55.5 -4q-121 0 -190.5 68t-69.5 194q0 94 39 178t103 147t147 100t171 37q27 0 52.5 -4t45.5 -12h357zM492 659q-55 0 -100.5 -19t-82 -51t-64.5 -75t-46.5 -91t-28 -98t-9.5 -97q0 -94 40 -142.5t132 -48.5q29 0 53 4.5t46 13.5l146 586q-17 8 -38.5 13 t-47.5 5z" />
<glyph unicode="&#xe1;" horiz-adv-x="544" d="M17 0zM389 97q-7 -27 6 -27q6 0 14.5 4.5t19 12l21.5 16t21 17.5l16 -30q-49 -57 -89.5 -81t-63.5 -24q-26 0 -36 25t1 59l38 124h-3q-27 -44 -54.5 -81.5t-55 -64.5t-55 -42.5t-54.5 -15.5q-41 0 -69.5 32.5t-28.5 101.5q0 40 10.5 83t30.5 84t48.5 78.5t64 65.5 t77.5 44.5t89 16.5q22 0 40 -5t35 -13l62 18h15zM150 63q19 0 44 20.5t52.5 53t55 72.5l52.5 79l30 122q-17 13 -38 22t-44 9q-33 0 -60 -15.5t-48 -41t-36 -58t-25 -66t-15 -66.5t-5 -58q0 -73 37 -73zM538 738l-193 -159h-32l-2 10l128 160h98z" />
<glyph unicode="&#xe0;" horiz-adv-x="544" d="M17 0zM389 97q-7 -27 6 -27q6 0 14.5 4.5t19 12l21.5 16t21 17.5l16 -30q-49 -57 -89.5 -81t-63.5 -24q-26 0 -36 25t1 59l38 124h-3q-27 -44 -54.5 -81.5t-55 -64.5t-55 -42.5t-54.5 -15.5q-41 0 -69.5 32.5t-28.5 101.5q0 40 10.5 83t30.5 84t48.5 78.5t64 65.5 t77.5 44.5t89 16.5q22 0 40 -5t35 -13l62 18h15zM150 63q19 0 44 20.5t52.5 53t55 72.5l52.5 79l30 122q-17 13 -38 22t-44 9q-33 0 -60 -15.5t-48 -41t-36 -58t-25 -66t-15 -66.5t-5 -58q0 -73 37 -73zM233 749h98l88 -160l-2 -10h-32l-153 159z" />
<glyph unicode="&#xe2;" horiz-adv-x="544" d="M17 0zM389 97q-7 -27 6 -27q6 0 14.5 4.5t19 12l21.5 16t21 17.5l16 -30q-49 -57 -89.5 -81t-63.5 -24q-26 0 -36 25t1 59l38 124h-3q-27 -44 -54.5 -81.5t-55 -64.5t-55 -42.5t-54.5 -15.5q-41 0 -69.5 32.5t-28.5 101.5q0 40 10.5 83t30.5 84t48.5 78.5t64 65.5 t77.5 44.5t89 16.5q22 0 40 -5t35 -13l62 18h15zM150 63q19 0 44 20.5t52.5 53t55 72.5l52.5 79l30 122q-17 13 -38 22t-44 9q-33 0 -60 -15.5t-48 -41t-36 -58t-25 -66t-15 -66.5t-5 -58q0 -73 37 -73zM368 749h42l78 -160l-6 -10h-32l-79 97l-117 -97h-32l-2 10z" />
<glyph unicode="&#xe3;" horiz-adv-x="544" d="M17 0zM389 97q-7 -27 6 -27q6 0 14.5 4.5t19 12l21.5 16t21 17.5l16 -30q-49 -57 -89.5 -81t-63.5 -24q-26 0 -36 25t1 59l38 124h-3q-27 -44 -54.5 -81.5t-55 -64.5t-55 -42.5t-54.5 -15.5q-41 0 -69.5 32.5t-28.5 101.5q0 40 10.5 83t30.5 84t48.5 78.5t64 65.5 t77.5 44.5t89 16.5q22 0 40 -5t35 -13l62 18h15zM150 63q19 0 44 20.5t52.5 53t55 72.5l52.5 79l30 122q-17 13 -38 22t-44 9q-33 0 -60 -15.5t-48 -41t-36 -58t-25 -66t-15 -66.5t-5 -58q0 -73 37 -73zM526 720q-6 -21 -15.5 -40t-24 -34t-34.5 -23.5t-45 -8.5 q-24 0 -41.5 7.5t-31 16.5l-25 16.5t-23.5 7.5q-18 0 -30.5 -14.5t-23.5 -37.5h-31q13 45 41.5 75.5t73.5 30.5q21 0 36.5 -7.5t28 -16.5t24 -16.5t23.5 -7.5q21 0 38 13t28 39h32z" />
<glyph unicode="&#xe7;" horiz-adv-x="436" d="M23 0zM379 370q-22 0 -31 12t-16 26q-8 14 -19 26t-38 12q-41 0 -71 -29t-49.5 -72.5t-28.5 -93t-9 -91.5q0 -23 3 -44t11.5 -36.5t25 -24.5t43.5 -9q36 0 67.5 17.5t73.5 59.5l14 -33q-39 -47 -85.5 -76.5t-108.5 -29.5q-40 0 -66.5 12.5t-42.5 34.5t-22.5 50.5 t-6.5 61.5q0 58 20 120t57 113.5t89 84.5t116 33q25 0 47 -5t38.5 -14t26 -22.5t9.5 -30.5q0 -18 -9.5 -35t-37.5 -17zM270 -126q0 -26 -13.5 -45t-34.5 -31t-47 -18t-51 -6q-17 0 -35.5 2.5t-35.5 7.5l14 54q18 -7 36.5 -11t35.5 -4q23 0 39.5 9t16.5 26q0 10 -6.5 16 t-17 9t-23 3.5t-25.5 0.5l30 121h48l-16 -66q34 -3 59.5 -21t25.5 -47z" />
<glyph unicode="&#xe9;" horiz-adv-x="460" d="M22 0zM368 91q-39 -47 -90 -76.5t-113 -29.5q-40 0 -67 12.5t-44 34t-24.5 50.5t-7.5 61q0 56 20.5 118t58.5 114t91.5 86t120.5 34q23 0 45.5 -4.5t40 -15t28.5 -28t11 -44.5t-14.5 -57t-50.5 -56t-97.5 -44t-155.5 -22q-2 -17 -3 -33t-1 -30q0 -23 3.5 -44t13.5 -36.5 t27 -24.5t44 -9q36 0 72 17.5t78 59.5zM284 447q-32 0 -57.5 -16t-45 -41.5t-33 -59t-21.5 -67.5q77 8 120 25t64 36t26 37t5 28q0 31 -15 44.5t-43 13.5zM506 738l-193 -159h-32l-2 10l128 160h98z" />
<glyph unicode="&#xe8;" horiz-adv-x="460" d="M22 0zM368 91q-39 -47 -90 -76.5t-113 -29.5q-40 0 -67 12.5t-44 34t-24.5 50.5t-7.5 61q0 56 20.5 118t58.5 114t91.5 86t120.5 34q23 0 45.5 -4.5t40 -15t28.5 -28t11 -44.5t-14.5 -57t-50.5 -56t-97.5 -44t-155.5 -22q-2 -17 -3 -33t-1 -30q0 -23 3.5 -44t13.5 -36.5 t27 -24.5t44 -9q36 0 72 17.5t78 59.5zM284 447q-32 0 -57.5 -16t-45 -41.5t-33 -59t-21.5 -67.5q77 8 120 25t64 36t26 37t5 28q0 31 -15 44.5t-43 13.5zM170 749h98l88 -160l-2 -10h-32l-153 159z" />
<glyph unicode="&#xea;" horiz-adv-x="460" d="M22 0zM368 91q-39 -47 -90 -76.5t-113 -29.5q-40 0 -67 12.5t-44 34t-24.5 50.5t-7.5 61q0 56 20.5 118t58.5 114t91.5 86t120.5 34q23 0 45.5 -4.5t40 -15t28.5 -28t11 -44.5t-14.5 -57t-50.5 -56t-97.5 -44t-155.5 -22q-2 -17 -3 -33t-1 -30q0 -23 3.5 -44t13.5 -36.5 t27 -24.5t44 -9q36 0 72 17.5t78 59.5zM284 447q-32 0 -57.5 -16t-45 -41.5t-33 -59t-21.5 -67.5q77 8 120 25t64 36t26 37t5 28q0 31 -15 44.5t-43 13.5zM341 749h42l78 -160l-6 -10h-32l-79 97l-117 -97h-32l-2 10z" />
<glyph unicode="&#xeb;" horiz-adv-x="460" d="M22 0zM368 91q-39 -47 -90 -76.5t-113 -29.5q-40 0 -67 12.5t-44 34t-24.5 50.5t-7.5 61q0 56 20.5 118t58.5 114t91.5 86t120.5 34q23 0 45.5 -4.5t40 -15t28.5 -28t11 -44.5t-14.5 -57t-50.5 -56t-97.5 -44t-155.5 -22q-2 -17 -3 -33t-1 -30q0 -23 3.5 -44t13.5 -36.5 t27 -24.5t44 -9q36 0 72 17.5t78 59.5zM284 447q-32 0 -57.5 -16t-45 -41.5t-33 -59t-21.5 -67.5q77 8 120 25t64 36t26 37t5 28q0 31 -15 44.5t-43 13.5zM385 670q0 26 20.5 47.5t50.5 21.5q18 0 30.5 -9.5t12.5 -32.5q0 -32 -23 -50t-48 -18q-18 0 -30.5 10t-12.5 31z M208 669q0 27 20.5 48.5t50.5 21.5q18 0 30.5 -9.5t12.5 -32.5q0 -16 -6.5 -28.5t-17 -21.5t-23.5 -13.5t-25 -4.5q-18 0 -30 10t-12 30z" />
<glyph unicode="&#xed;" horiz-adv-x="291" d="M43 0zM138 90q-3 -20 8 -20q8 0 26 12t49 38l11 -31q-49 -57 -85.5 -81t-59.5 -23q-26 1 -35 25t0 59l81 330q5 18 2 25.5t-13 7.5q-12 0 -32 -8t-41 -20v35q48 32 81 44t55 12q32 0 38 -20.5t-2 -51.5l-83 -333v0zM359 738l-193 -159h-32l-2 10l128 160h98z" />
<glyph unicode="&#xee;" horiz-adv-x="291" d="M37 0zM138 90q-3 -20 8 -20q8 0 26 12t49 38l11 -31q-49 -57 -85.5 -81t-59.5 -23q-26 1 -35 25t0 59l81 330q5 18 2 25.5t-13 7.5q-12 0 -32 -8t-41 -20v35q48 32 81 44t55 12q32 0 38 -20.5t-2 -51.5l-83 -333v0zM185 749h42l78 -160l-6 -10h-32l-79 97l-117 -97h-32 l-2 10z" />
<glyph unicode="&#xef;" horiz-adv-x="291" d="M43 0zM138 90q-3 -20 8 -20q8 0 26 12t49 38l11 -31q-49 -57 -85.5 -81t-59.5 -23q-26 1 -35 25t0 59l81 330q5 18 2 25.5t-13 7.5q-12 0 -32 -8t-41 -20v35q48 32 81 44t55 12q32 0 38 -20.5t-2 -51.5l-83 -333v0zM247 670q0 26 20.5 47.5t50.5 21.5q18 0 30.5 -9.5 t12.5 -32.5q0 -32 -23 -50t-48 -18q-18 0 -30.5 10t-12.5 31zM70 669q0 27 20.5 48.5t50.5 21.5q18 0 30.5 -9.5t12.5 -32.5q0 -16 -6.5 -28.5t-17 -21.5t-23.5 -13.5t-25 -4.5q-18 0 -30 10t-12 30z" />
<glyph unicode="&#x131;" horiz-adv-x="291" d="M138 90q-3 -20 8 -20q8 0 26 12t49 38l11 -31q-49 -57 -85.5 -81t-59.5 -23q-26 1 -35 25t0 59l81 330q5 18 2 25.5t-13 7.5q-12 0 -32 -8t-41 -20v35q48 32 81 44t55 12q32 0 38 -20.5t-2 -51.5l-83 -333v0z" />
<glyph unicode="&#xf1;" horiz-adv-x="557" d="M36 0zM134 399q5 18 2 25.5t-13 7.5q-12 0 -32 -8t-41 -20v35q48 32 81 44t55 12q32 0 38 -20.5t-2 -51.5l-46 -158h3q35 63 65.5 107t58 71t53 39.5t50.5 12.5q22 0 38.5 -8.5t25.5 -28t8.5 -50.5t-11.5 -76l-56 -222q-5 -20 -4.5 -30t8.5 -10t26 12t49 38l11 -31 q-49 -57 -85.5 -81t-59.5 -23q-26 1 -35 25t0 59l60 239q14 53 12.5 74.5t-29.5 21.5q-29 0 -84 -60.5t-124 -179.5l-39 -164h-81l98 399v0zM516 720q-6 -21 -15.5 -40t-24 -34t-34.5 -23.5t-45 -8.5q-24 0 -41.5 7.5t-31 16.5l-25 16.5t-23.5 7.5q-18 0 -30.5 -14.5 t-23.5 -37.5h-31q13 45 41.5 75.5t73.5 30.5q21 0 36.5 -7.5t28 -16.5t24 -16.5t23.5 -7.5q21 0 38 13t28 39h32z" />
<glyph unicode="&#xf3;" horiz-adv-x="510" d="M26 0zM463 325q0 -57 -20.5 -117t-58 -109.5t-89.5 -81.5t-116 -32q-78 0 -115.5 47.5t-37.5 126.5q0 60 20.5 120t57 108t88.5 78t115 30q75 0 115.5 -45.5t40.5 -124.5zM196 34q38 0 69.5 29t54 73.5t35 97.5t12.5 100q0 23 -3.5 43t-12 35t-23.5 24t-38 9 q-41 0 -72 -27t-52 -69.5t-32 -94t-11 -99.5q0 -24 3 -46t11.5 -38.5t22.5 -26.5t36 -10zM502 738l-193 -159h-32l-2 10l128 160h98z" />
<glyph unicode="&#xf4;" horiz-adv-x="510" d="M26 0zM463 325q0 -57 -20.5 -117t-58 -109.5t-89.5 -81.5t-116 -32q-78 0 -115.5 47.5t-37.5 126.5q0 60 20.5 120t57 108t88.5 78t115 30q75 0 115.5 -45.5t40.5 -124.5zM196 34q38 0 69.5 29t54 73.5t35 97.5t12.5 100q0 23 -3.5 43t-12 35t-23.5 24t-38 9 q-41 0 -72 -27t-52 -69.5t-32 -94t-11 -99.5q0 -24 3 -46t11.5 -38.5t22.5 -26.5t36 -10zM331 749h42l78 -160l-6 -10h-32l-79 97l-117 -97h-32l-2 10z" />
<glyph unicode="&#xf6;" horiz-adv-x="510" d="M26 0zM463 325q0 -57 -20.5 -117t-58 -109.5t-89.5 -81.5t-116 -32q-78 0 -115.5 47.5t-37.5 126.5q0 60 20.5 120t57 108t88.5 78t115 30q75 0 115.5 -45.5t40.5 -124.5zM196 34q38 0 69.5 29t54 73.5t35 97.5t12.5 100q0 23 -3.5 43t-12 35t-23.5 24t-38 9 q-41 0 -72 -27t-52 -69.5t-32 -94t-11 -99.5q0 -24 3 -46t11.5 -38.5t22.5 -26.5t36 -10zM373 670q0 26 20.5 47.5t50.5 21.5q18 0 30.5 -9.5t12.5 -32.5q0 -32 -23 -50t-48 -18q-18 0 -30.5 10t-12.5 31zM196 669q0 27 20.5 48.5t50.5 21.5q18 0 30.5 -9.5t12.5 -32.5 q0 -16 -6.5 -28.5t-17 -21.5t-23.5 -13.5t-25 -4.5q-18 0 -30 10t-12 30z" />
<glyph unicode="&#xf5;" horiz-adv-x="510" d="M26 0zM463 325q0 -57 -20.5 -117t-58 -109.5t-89.5 -81.5t-116 -32q-78 0 -115.5 47.5t-37.5 126.5q0 60 20.5 120t57 108t88.5 78t115 30q75 0 115.5 -45.5t40.5 -124.5zM196 34q38 0 69.5 29t54 73.5t35 97.5t12.5 100q0 23 -3.5 43t-12 35t-23.5 24t-38 9 q-41 0 -72 -27t-52 -69.5t-32 -94t-11 -99.5q0 -24 3 -46t11.5 -38.5t22.5 -26.5t36 -10zM484 720q-6 -21 -15.5 -40t-24 -34t-34.5 -23.5t-45 -8.5q-24 0 -41.5 7.5t-31 16.5l-25 16.5t-23.5 7.5q-18 0 -30.5 -14.5t-23.5 -37.5h-31q13 45 41.5 75.5t73.5 30.5 q21 0 36.5 -7.5t28 -16.5t24 -16.5t23.5 -7.5q21 0 38 13t28 39h32z" />
<glyph unicode="&#xfa;" d="M47 0zM403 96q-5 -17 -0.5 -21.5t7.5 -4.5q12 0 32.5 16l42.5 34l11 -31q-49 -57 -85.5 -80.5t-58.5 -23.5q-16 0 -25.5 7.5t-13 19.5t-2.5 27t5 30l37 137h-3q-34 -61 -64 -103t-57 -68.5t-51.5 -38t-47.5 -11.5q-22 0 -38.5 9t-25.5 28.5t-8.5 50.5t11.5 76l63 250 q5 20 -0.5 27t-13.5 7t-26 -6t-45 -22v35q38 29 74 42.5t59 12.5q26 -1 37.5 -16t2.5 -50l-65 -256q-14 -53 -13 -75.5t29 -22.5q29 0 83 59t122 177l43 170h81l-97 -385v0zM525 738l-193 -159h-32l-2 10l128 160h98z" />
<glyph unicode="&#xf9;" d="M47 0zM403 96q-5 -17 -0.5 -21.5t7.5 -4.5q12 0 32.5 16l42.5 34l11 -31q-49 -57 -85.5 -80.5t-58.5 -23.5q-16 0 -25.5 7.5t-13 19.5t-2.5 27t5 30l37 137h-3q-34 -61 -64 -103t-57 -68.5t-51.5 -38t-47.5 -11.5q-22 0 -38.5 9t-25.5 28.5t-8.5 50.5t11.5 76l63 250 q5 20 -0.5 27t-13.5 7t-26 -6t-45 -22v35q38 29 74 42.5t59 12.5q26 -1 37.5 -16t2.5 -50l-65 -256q-14 -53 -13 -75.5t29 -22.5q29 0 83 59t122 177l43 170h81l-97 -385v0zM191 749h98l88 -160l-2 -10h-32l-153 159z" />
<glyph unicode="&#xfb;" d="M47 0zM403 96q-5 -17 -0.5 -21.5t7.5 -4.5q12 0 32.5 16l42.5 34l11 -31q-49 -57 -85.5 -80.5t-58.5 -23.5q-16 0 -25.5 7.5t-13 19.5t-2.5 27t5 30l37 137h-3q-34 -61 -64 -103t-57 -68.5t-51.5 -38t-47.5 -11.5q-22 0 -38.5 9t-25.5 28.5t-8.5 50.5t11.5 76l63 250 q5 20 -0.5 27t-13.5 7t-26 -6t-45 -22v35q38 29 74 42.5t59 12.5q26 -1 37.5 -16t2.5 -50l-65 -256q-14 -53 -13 -75.5t29 -22.5q29 0 83 59t122 177l43 170h81l-97 -385v0zM341 749h42l78 -160l-6 -10h-32l-79 97l-117 -97h-32l-2 10z" />
<glyph unicode="&#xfc;" d="M47 0zM403 96q-5 -17 -0.5 -21.5t7.5 -4.5q12 0 32.5 16l42.5 34l11 -31q-49 -57 -85.5 -80.5t-58.5 -23.5q-16 0 -25.5 7.5t-13 19.5t-2.5 27t5 30l37 137h-3q-34 -61 -64 -103t-57 -68.5t-51.5 -38t-47.5 -11.5q-22 0 -38.5 9t-25.5 28.5t-8.5 50.5t11.5 76l63 250 q5 20 -0.5 27t-13.5 7t-26 -6t-45 -22v35q38 29 74 42.5t59 12.5q26 -1 37.5 -16t2.5 -50l-65 -256q-14 -53 -13 -75.5t29 -22.5q29 0 83 59t122 177l43 170h81l-97 -385v0zM391 670q0 26 20.5 47.5t50.5 21.5q18 0 30.5 -9.5t12.5 -32.5q0 -32 -23 -50t-48 -18 q-18 0 -30.5 10t-12.5 31zM214 669q0 27 20.5 48.5t50.5 21.5q18 0 30.5 -9.5t12.5 -32.5q0 -16 -6.5 -28.5t-17 -21.5t-23.5 -13.5t-25 -4.5q-18 0 -30 10t-12 30z" />
<glyph unicode="&#xff;" horiz-adv-x="536" d="M0 0zM308 27q38 66 61 142t36 160q-48 -75 -110.5 -158.5t-140.5 -161.5h-37l4 403q-3 21 -18 21q-11 0 -31 -8.5t-38 -17.5v33q20 15 42 27q19 11 41.5 19.5t45.5 8.5q29 0 40 -18.5t9 -58.5l-11 -290q30 33 61.5 73.5l60.5 79.5l53 73.5t38 57.5q2 17 3 34l2 35h88 l6 -10q-6 -26 -16.5 -76.5t-28 -113.5t-45 -133t-68.5 -136q-24 -39 -58 -80.5t-74.5 -75.5t-87 -56t-96.5 -22q-69 0 -69 47q0 26 17.5 39.5t45.5 13.5q22 0 52 -4.5t65.5 5t75.5 42t82 106.5zM385 670q0 26 20.5 47.5t50.5 21.5q18 0 30.5 -9.5t12.5 -32.5q0 -32 -23 -50 t-48 -18q-18 0 -30.5 10t-12.5 31zM208 669q0 27 20.5 48.5t50.5 21.5q18 0 30.5 -9.5t12.5 -32.5q0 -16 -6.5 -28.5t-17 -21.5t-23.5 -13.5t-25 -4.5q-18 0 -30 10t-12 30z" />
<glyph horiz-adv-x="291" d="M43 0zM138 90q-3 -20 8 -20q8 0 26 12t49 38l11 -31q-49 -57 -85.5 -81t-59.5 -23q-26 1 -35 25t0 59l81 330q5 18 2 25.5t-13 7.5q-12 0 -32 -8t-41 -20v35q48 32 81 44t55 12q32 0 38 -20.5t-2 -51.5zM184 696q0 23 16.5 40t39.5 17t40 -17t17 -40t-17 -39.5t-40 -16.5 t-39.5 16.5t-16.5 39.5z" />
<glyph unicode="&#xe6;" horiz-adv-x="718" d="M626 91q-39 -47 -90 -76.5t-113 -29.5q-35 0 -60 9.5t-42 26t-26.5 39.5t-12.5 49q-38 -55 -85 -87t-98 -32q-43 0 -71.5 27.5t-28.5 69.5q0 80 73.5 118.5t221.5 50.5h4l12 45q4 17 6.5 32t2.5 29q0 26 -14.5 42.5t-57.5 16.5q-17 0 -37.5 -2t-42 -5t-42.5 -7t-39 -8 l6 44q50 23 107.5 36t105.5 13q50 0 71 -19t23 -52q35 34 78 54t94 20q23 0 45.5 -4.5t40 -15t28.5 -28t11 -44.5t-14.5 -57t-50.5 -56t-97.5 -44.5t-155.5 -22.5q-2 -17 -3 -32.5t-1 -29.5q0 -23 3.5 -44t13.5 -36.5t27 -24.5t44 -9q36 0 72 17.5t78 59.5zM542 447 q-32 0 -57.5 -16t-45 -41.5t-33 -59t-21.5 -67.5q77 8 120 25t64 36t26 37t5 28q0 31 -15 44.5t-43 13.5zM139 65q32 0 69.5 24.5t71.5 70.5q2 30 9 60q-101 -11 -148.5 -38t-47.5 -65q0 -23 13 -37.5t33 -14.5z" />
<glyph unicode="&#x153;" horiz-adv-x="781" d="M689 91q-39 -47 -90 -76.5t-113 -29.5q-57 0 -88 24t-44 62q-33 -38 -77 -62t-98 -24q-78 0 -115.5 47.5t-37.5 126.5q0 60 20.5 120t57 108t88.5 78t115 30q57 0 87.5 -27t41.5 -75q38 45 87.5 73.5t110.5 28.5q23 0 45.5 -4.5t40 -15t28.5 -28t11 -44.5t-14.5 -57 t-50.5 -56t-97.5 -44t-155.5 -22q-2 -17 -3 -33t-1 -30q0 -23 3.5 -44t13.5 -36.5t27 -24.5t44 -9q36 0 72 17.5t78 59.5zM196 34q38 0 69.5 29t54 73.5t35 97.5t12.5 100q0 23 -3.5 43t-12 35t-23.5 24t-38 9q-41 0 -72 -27t-52 -69.5t-32 -94t-11 -99.5q0 -24 3 -46 t11.5 -38.5t22.5 -26.5t36 -10zM605 447q-32 0 -57.5 -16t-45 -41.5t-33 -59t-21.5 -67.5q77 8 120 25t64 36t26 37t5 28q0 31 -15 44.5t-43 13.5z" />
<glyph unicode="," horiz-adv-x="280" d="M-41 -173l-17 32q43 26 78 59.5t50 82.5q-27 0 -43 13t-16 35q0 17 7 32t18 26t25.5 17.5t29.5 6.5q32 0 51 -19.5t19 -47.5q0 -40 -20 -76.5t-50 -67t-65.5 -54.5t-66.5 -39z" />
<glyph unicode="." horiz-adv-x="281" d="M74 -10q-10 0 -21 2t-20.5 7.5t-15.5 15.5t-6 26q0 41 27 61.5t60 20.5q10 0 21.5 -2.5t21.5 -8t16 -15t6 -24.5q0 -33 -23.5 -58t-65.5 -25z" />
<glyph unicode=":" horiz-adv-x="296" d="M16 0zM79 -10q-10 0 -21 2t-20.5 7.5t-15.5 15.5t-6 26q0 41 27 61.5t60 20.5q10 0 21.5 -2.5t21.5 -8t16 -15t6 -24.5q0 -33 -23.5 -58t-65.5 -25zM171 361q-10 0 -21 2t-20.5 7.5t-15.5 15.5t-6 26q0 41 27 61.5t60 20.5q10 0 21.5 -2.5t21.5 -8t16 -15t6 -24.5 q0 -33 -23.5 -58t-65.5 -25z" />
<glyph unicode=";" horiz-adv-x="315" d="M0 0zM-23 -173l-17 32q43 26 78 59.5t50 82.5q-27 0 -43 13t-16 35q0 17 7 32t18 26t25.5 17.5t29.5 6.5q32 0 51 -19.5t19 -47.5q0 -40 -20 -76.5t-50 -67t-65.5 -54.5t-66.5 -39zM176 361q-10 0 -21 2t-20.5 7.5t-15.5 15.5t-6 26q0 41 27 61.5t60 20.5q10 0 21.5 -2.5 t21.5 -8t16 -15t6 -24.5q0 -33 -23.5 -58t-65.5 -25z" />
<glyph unicode="?" horiz-adv-x="467" d="M189 237q-5 18 -6.5 29.5t-1.5 25.5q0 28 15.5 51.5t38.5 44t50 39t50 37t38.5 38.5t15.5 44q0 13 -5 28t-16 27t-29 20t-44 8q-18 0 -40 -5t-44.5 -14.5t-44 -22.5t-37.5 -29l-18 23q32 35 62 58t59 36.5t57 19t57 5.5q66 0 103.5 -35t37.5 -86q0 -36 -16.5 -64t-42 -52 t-56 -45t-58.5 -43t-50 -46t-29 -54q-3 -11 -1.5 -22t2.5 -16h-47zM260 56q0 -19 -7 -32t-18 -20.5t-25 -10.5t-27 -3q-14 0 -27.5 3t-24.5 10.5t-18 20.5t-7 32t7 32t18 20.5t24.5 11t27.5 3.5q13 0 27 -3.5t25 -11t18 -20.5t7 -32z" />
<glyph unicode="&#xbf;" horiz-adv-x="452" d="M0 0zM248.012 247.015q5 -17.999 6.49902 -29.498q1.5 -11.5 1.5 -25.499q0 -27.998 -15.499 -51.4971q-15.499 -23.498 -38.4971 -43.9971q-22.999 -20.498 -49.9971 -38.9971t-49.9971 -36.998t-38.498 -38.498q-15.499 -19.998 -15.499 -43.9971q0 -12.999 5 -27.998 t15.999 -26.998q10.999 -12 28.998 -19.999q17.999 -8 43.9971 -8q17.999 0 39.998 5t44.4971 14.499q22.499 9.5 43.9971 22.499q21.499 12.999 37.498 28.998l17.999 -22.999q-31.998 -34.998 -61.9961 -57.9961q-29.998 -22.999 -58.9971 -36.498 q-28.998 -13.499 -56.9961 -18.999q-27.998 -5.49902 -56.9961 -5.49902q-65.9961 0 -103.494 34.998q-37.498 34.9971 -37.498 85.9941q0 35.998 16.499 63.9961t41.998 51.9971q25.498 23.998 55.9961 44.9971t58.4971 42.9971q27.998 21.999 49.9961 45.998 q21.999 23.998 28.999 53.9961q2.99902 10.999 1.5 21.999q-1.5 10.999 -2.5 15.999h46.9971zM177.016 428.004q0 18.998 7 31.998q6.99902 12.999 17.999 20.498q10.999 7.5 24.998 10.5q13.999 2.99902 26.998 2.99902q14 0 27.499 -2.99902q13.499 -3 24.498 -10.5 q11 -7.49902 17.999 -20.498q7 -13 7 -31.998q0 -18.999 -7 -31.998q-6.99902 -13 -17.999 -20.499q-10.999 -7.5 -24.498 -11q-13.499 -3.49902 -27.499 -3.49902q-12.999 0 -26.998 3.49902q-13.999 3.5 -24.998 11q-11 7.49902 -17.999 20.499q-7 12.999 -7 31.998z" />
<glyph unicode="!" horiz-adv-x="313" d="M304 693l-26 -104l-107 -353h-61l69 353l26 104h99zM186 56q0 -19 -7 -32t-18 -20.5t-25 -10.5t-27 -3q-14 0 -27.5 3t-24.5 10.5t-18 20.5t-7 32t7 32t18 20.5t24.5 11t27.5 3.5q13 0 27 -3.5t25 -11t18 -20.5t7 -32z" />
<glyph unicode="&#xa1;" horiz-adv-x="291" d="M0 0zM-21.9814 -208.958l25.998 103.994l106.994 352.979h60.9961l-68.9961 -352.979l-25.998 -103.994h-98.9941zM96.0117 428.004q0 18.998 6.99902 31.998q7 12.999 17.999 20.498q10.999 7.5 24.998 10.5q14 2.99902 26.999 2.99902q13.999 0 27.498 -2.99902 q13.499 -3 24.499 -10.5q10.999 -7.49902 17.998 -20.498q7 -13 7 -31.998q0 -18.999 -7 -31.998q-6.99902 -13 -17.998 -20.499q-11 -7.5 -24.499 -11q-13.499 -3.49902 -27.498 -3.49902q-12.999 0 -26.999 3.49902q-13.999 3.5 -24.998 11 q-10.999 7.49902 -17.999 20.499q-6.99902 12.999 -6.99902 31.998z" />
<glyph unicode="-" horiz-adv-x="423" d="M334 224h-276l20 77h276z" />
<glyph unicode="&#x2013;" horiz-adv-x="661" d="M566 238h-497l15 61h497z" />
<glyph unicode="&#x2014;" horiz-adv-x="864" d="M769 238h-700l15 61h700z" />
<glyph unicode="_" horiz-adv-x="643" d="M444 -217h-496l16 61h496z" />
<glyph unicode="@" horiz-adv-x="879" d="M571 71q-42 0 -61.5 14.5t-22.5 35.5q-35 -26 -65 -37t-58 -11q-54 0 -84.5 33.5t-30.5 94.5q0 52 20 102.5t55 90t84 63.5t107 24q47 0 82 -19l44 11h12l-76 -306q-7 -26 2 -35t27 -9q47 0 84.5 30t63 76.5t39 103t13.5 109.5q0 50 -16.5 89.5t-46.5 67t-72 42t-94 14.5 q-65 0 -126.5 -20t-115.5 -55t-99 -83t-77 -105t-50 -120t-18 -128q0 -55 17 -101t51 -79.5t85.5 -52t120.5 -18.5q22 0 55 2.5t70.5 8.5t76.5 17.5t74 29.5l-12 -48q-28 -15 -64.5 -26.5t-76 -19t-78.5 -11t-71 -3.5q-78 0 -136 22t-96.5 61.5t-57.5 93t-19 116.5 q0 70 20.5 139.5t58 133t89.5 118t115 94.5t134.5 63t148.5 23q62 0 112 -17.5t85 -50t53.5 -79t18.5 -103.5q0 -70 -20 -139t-57.5 -124t-92 -89t-124.5 -34zM415 137q20 0 35.5 4.5t40.5 15.5l63 251q-14 9 -32 16t-45 7q-24 0 -49.5 -11.5t-46.5 -38t-35 -69t-14 -105.5 q0 -34 18 -52t65 -18z" />
<glyph unicode="&#x26;" horiz-adv-x="764" d="M674 12q-20 -12 -47 -18.5t-56 -6.5q-26 0 -43 5.5t-29.5 16t-23.5 25l-26 33.5l-1 1q-42 -33 -97 -58t-126 -25q-38 0 -70.5 9.5t-56.5 28.5t-37.5 47.5t-13.5 66.5t13.5 71t36.5 60.5t55 49.5t68 38q-24 35 -34.5 63t-10.5 57q0 45 20 87t54 74.5t79.5 52t95.5 19.5 q27 0 53 -6.5t46.5 -20.5t33.5 -37t13 -56q0 -42 -20.5 -75.5t-52.5 -59.5t-71.5 -46t-78.5 -35l151 -198l9 12l27.5 34.5t48 52.5t60 47.5t64.5 20.5q21 0 32.5 -10.5t5.5 -33.5t-23 -34t-39 -11t-42.5 -9.5t-38 -22.5t-32 -28l-23.5 -25q-5 -6 -11 -12.5l-13 -13.5l18 -23 q23 -32 46 -51t60 -19q14 0 32 3zM280 55q44 0 78.5 12.5t63.5 32.5l-169 212q-4 5 -7.5 8.5t-6.5 8.5q-36 -32 -60 -76t-24 -91q0 -48 29 -77.5t96 -29.5zM276 521q0 -24 8.5 -48t27.5 -53l16 -21q25 14 51.5 32t47.5 41t34.5 50.5t13.5 60.5q0 32 -16 52t-52 20 q-26 0 -50 -11t-42 -29.5t-28.5 -42.5t-10.5 -51z" />
<glyph unicode="/" horiz-adv-x="429" d="M504 744l-523 -961h-63l520 961h66z" />
<glyph unicode="\" horiz-adv-x="413" d="M213 744l41 -961h-64l-43 961h66z" />
<glyph unicode="|" horiz-adv-x="267" d="M283 744l-240 -961h-69l240 961h69z" />
<glyph unicode="(" horiz-adv-x="360" d="M22 75q0 103 25.5 207t77.5 196t130.5 165.5t184.5 116.5l9 -38q-50 -17 -94.5 -55.5t-81.5 -91t-66 -116.5t-49.5 -131t-31 -134.5t-10.5 -127.5q0 -81 27 -137t85 -91l-27 -38q-96 33 -137.5 106t-41.5 169z" />
<glyph unicode=")" horiz-adv-x="362" d="M334 470q0 -101 -25.5 -206t-77 -197t-130 -163t-183.5 -104l-9 38q50 17 94.5 55.5t81.5 91.5t66 116.5t49 131t30.5 135t10.5 127.5q0 80 -26.5 136t-84.5 91l27 38q49 -22 83 -52.5t55 -67.5t30 -80t9 -90z" />
<glyph unicode="[" horiz-adv-x="349" d="M197 -194h-218l238 953h218l-14 -55h-132l-210 -843h132z" />
<glyph unicode="]" horiz-adv-x="350" d="M-73 -139h132l210 843h-132l14 55h218l-238 -953h-218z" />
<glyph unicode="{" horiz-adv-x="368" d="M216 -194q-48 0 -84.5 7t-58.5 25.5t-28 52t7 86.5l37 149q9 37 7.5 60.5t-11 37t-26.5 19.5t-38 8l16 63q25 3 45 9.5t36 20.5t28 37t21 58l37 150q13 54 37.5 87t57.5 51.5t72 25t83 6.5l-14 -55q-31 0 -55 -4.5t-41.5 -15.5t-30 -30.5t-19.5 -50.5l-31 -124 q-11 -43 -23.5 -76t-29.5 -56.5t-40 -39t-55 -22.5l-2 -5q34 -10 50 -26t20 -39.5t-2 -55.5t-16 -73l-31 -124q-8 -32 -4 -51.5t17.5 -30.5t34.5 -15t48 -4z" />
<glyph unicode="}" horiz-adv-x="368" d="M-73 -139q27 0 50 4t41.5 15t32.5 30.5t22 51.5l31 124q10 41 20 73t25.5 55.5t39.5 39.5t63 26l2 5q-57 15 -65.5 61.5t13.5 132.5l31 124q7 31 5 50.5t-14 30.5t-34 15.5t-53 4.5l14 55q43 0 79.5 -6.5t59.5 -25t30.5 -51.5t-5.5 -87l-37 -150q-9 -35 -8 -58t10 -37 t26 -20.5t40 -9.5l-16 -63q-22 -2 -42 -8t-36.5 -19.5t-29.5 -37t-22 -60.5l-37 -149q-13 -53 -36 -86.5t-54.5 -52t-71 -25.5t-87.5 -7z" />
<glyph unicode="&#xa7;" horiz-adv-x="537" d="M50 251q0 59 39 112.5t105 86.5q-17 17 -27 39t-10 51q0 42 22 81t58 70t83 49.5t97 18.5q29 0 55 -6.5t46 -17t32 -25t12 -30.5q0 -20 -16.5 -38t-42.5 -18q-21 0 -31.5 13t-20.5 28.5t-25 28.5t-45 13q-23 0 -46 -9t-42 -24.5t-30.5 -37.5t-11.5 -48t13.5 -43.5 t41.5 -31.5l90 -46q42 -21 68 -51.5t26 -77.5q0 -54 -37.5 -105t-103.5 -83q20 -15 34.5 -38.5t14.5 -59.5q0 -44 -23 -84t-61.5 -70t-87.5 -48t-100 -18q-26 0 -52 4.5t-47.5 14t-35 23t-13.5 31.5q0 29 16.5 47t48.5 18q23 0 32 -13.5t17 -29t21 -29t44 -13.5q22 0 47 8 t46 22.5t35 35t14 45.5q0 29 -19 48t-51 36l-80 40q-53 26 -76 57.5t-23 73.5zM304 178l5 -3q40 19 60.5 50t20.5 61q0 27 -16.5 48t-50.5 39l-79 42l-16 9q-34 -18 -56.5 -49t-22.5 -69q0 -29 15 -47t48 -35z" />
<glyph unicode="&#x2022;" horiz-adv-x="434" d="M348 301q0 -30 -13 -59t-35.5 -52.5t-52 -38t-62.5 -14.5q-46 0 -77 27.5t-31 72.5q0 32 14 61t37 51.5t52.5 35.5t60.5 13q46 0 76.5 -27.5t30.5 -69.5z" />
<glyph unicode="#" horiz-adv-x="673" d="M162 481h129l108 212h59l-108 -212h142l108 212h59l-108 -212h130l-30 -60h-130l-81 -160h129l-30 -60h-130l-101 -201h-60l102 201h-142l-101 -201h-60l102 201h-129l30 60h129l82 160h-129zM239 261h141l82 160h-142z" />
<glyph unicode="%" horiz-adv-x="792" d="M755 693l-642 -693h-68l640 693h70zM427 588q0 -39 -16.5 -76.5t-45 -67t-67.5 -47.5t-84 -18q-24 0 -44.5 6.5t-36 20.5t-24.5 36t-9 53q0 48 19 86.5t49 65.5t67 41.5t73 14.5q51 0 85 -28.5t34 -86.5zM227 420q32 0 55 18.5t37.5 45.5t21.5 57.5t7 55.5 q0 35 -13.5 50.5t-39.5 15.5q-33 0 -55.5 -18t-36 -44.5t-19.5 -56t-6 -52.5q0 -12 1.5 -24.5t7 -23t15 -17.5t25.5 -7zM726 197q0 -39 -16.5 -76.5t-45 -67t-67.5 -47.5t-84 -18q-24 0 -44.5 6.5t-36 20.5t-24.5 36t-9 53q0 48 19 86.5t49 65.5t67 41.5t73 14.5 q51 0 85 -28.5t34 -86.5zM526 29q32 0 55 18.5t37.5 45.5t21.5 57.5t7 55.5q0 35 -13.5 50.5t-39.5 15.5q-33 0 -55.5 -18t-36 -44.5t-19.5 -56t-6 -52.5q0 -12 1.5 -24.5t7 -23t15 -17.5t25.5 -7z" />
<glyph unicode="&#x2030;" horiz-adv-x="1142" d="M756 693l-642 -693h-68l640 693h70zM428 588q0 -39 -16.5 -76.5t-45 -67t-67.5 -47.5t-84 -18q-24 0 -44.5 6.5t-36 20.5t-24.5 36t-9 53q0 48 19 86.5t49 65.5t67 41.5t73 14.5q51 0 85 -28.5t34 -86.5zM228 420q32 0 55 18.5t37.5 45.5t21.5 57.5t7 55.5 q0 35 -13.5 50.5t-39.5 15.5q-33 0 -55.5 -18t-36 -44.5t-19.5 -56t-6 -52.5q0 -12 1.5 -24.5t7 -23t15 -17.5t25.5 -7zM727 197q0 -39 -16.5 -76.5t-45 -67t-67.5 -47.5t-84 -18q-24 0 -44.5 6.5t-36 20.5t-24.5 36t-9 53q0 48 19 86.5t49 65.5t67 41.5t73 14.5 q51 0 85 -28.5t34 -86.5zM527 29q32 0 55 18.5t37.5 45.5t21.5 57.5t7 55.5q0 35 -13.5 50.5t-39.5 15.5q-33 0 -55.5 -18t-36 -44.5t-19.5 -56t-6 -52.5q0 -12 1.5 -24.5t7 -23t15 -17.5t25.5 -7zM1077 197q0 -39 -16.5 -76.5t-45 -67t-67.5 -47.5t-84 -18q-24 0 -44.5 6.5 t-36 20.5t-24.5 36t-9 53q0 48 19 86.5t49 65.5t67 41.5t73 14.5q51 0 85 -28.5t34 -86.5zM877 29q32 0 55 18.5t37.5 45.5t21.5 57.5t7 55.5q0 35 -13.5 50.5t-39.5 15.5q-33 0 -55.5 -18t-36 -44.5t-19.5 -56t-6 -52.5q0 -12 1.5 -24.5t7 -23t15 -17.5t25.5 -7z" />
<glyph unicode="&#x2020;" horiz-adv-x="438" d="M426 410h-139l-156 -627h-73l156 627h-139l18 71h138l66 263h73l-66 -263h140z" />
<glyph unicode="'" horiz-adv-x="234" d="M289 744l-111 -283h-70l103 283h78z" />
<glyph unicode="&#x22;" horiz-adv-x="404" d="M289 744l-111 -283h-70l103 283h78zM459 744l-111 -283h-70l103 283h78z" />
<glyph unicode="&#x201c;" horiz-adv-x="469" d="M117 471zM117 535q0 37 18 70.5t45.5 62t61.5 51.5t66 40l17 -30q-41 -25 -74 -56.5t-47 -78.5q26 0 41 -15.5t15 -37.5q0 -32 -23.5 -51t-52.5 -19q-30 0 -48.5 18.5t-18.5 45.5zM317 535q0 37 18 70.5t45.5 62t61.5 51.5t66 40l17 -30q-41 -25 -74 -56.5t-47 -78.5 q26 0 41 -15.5t15 -37.5q0 -32 -23.5 -51t-52.5 -19q-30 0 -48.5 18.5t-18.5 45.5z" />
<glyph unicode="&#x201d;" horiz-adv-x="467" d="M108 471zM316 695q0 -37 -18 -70.5t-45.5 -62t-61.5 -51.5t-66 -40l-17 30q41 25 74 56.5t47 78.5q-26 0 -41 15.5t-15 37.5q0 32 23.5 51t52.5 19q30 0 48.5 -18.5t18.5 -45.5zM516 695q0 -37 -18 -70.5t-45.5 -62t-61.5 -51.5t-66 -40l-17 30q41 25 74 56.5t47 78.5 q-26 0 -41 15.5t-15 37.5q0 32 23.5 51t52.5 19q30 0 48.5 -18.5t18.5 -45.5z" />
<glyph unicode="&#x2018;" horiz-adv-x="269" d="M117 535q0 37 18 70.5t45.5 62t61.5 51.5t66 40l17 -30q-41 -25 -74 -56.5t-47 -78.5q26 0 41 -15.5t15 -37.5q0 -32 -23.5 -51t-52.5 -19q-30 0 -48.5 18.5t-18.5 45.5z" />
<glyph unicode="&#x2019;" horiz-adv-x="267" d="M316 695q0 -37 -18 -70.5t-45.5 -62t-61.5 -51.5t-66 -40l-17 30q41 25 74 56.5t47 78.5q-26 0 -41 15.5t-15 37.5q0 32 23.5 51t52.5 19q30 0 48.5 -18.5t18.5 -45.5z" />
<glyph unicode="&#x201a;" horiz-adv-x="276" d="M0 0zM156 52q0 -37 -18 -70.5t-45.5 -62t-61.5 -51.5t-66 -40l-17 30q41 25 74 56.5t47 78.5q-26 0 -41 15.5t-15 37.5q0 32 23.5 51t52.5 19q30 0 48.5 -18.5t18.5 -45.5z" />
<glyph unicode="&#x201e;" horiz-adv-x="479" d="M0 0zM156 52q0 -37 -18 -70.5t-45.5 -62t-61.5 -51.5t-66 -40l-17 30q41 25 74 56.5t47 78.5q-26 0 -41 15.5t-15 37.5q0 32 23.5 51t52.5 19q30 0 48.5 -18.5t18.5 -45.5zM358 52q0 -37 -18 -70.5t-45.5 -62t-61.5 -51.5t-66 -40l-17 30q41 25 74 56.5t47 78.5 q-26 0 -41 15.5t-15 37.5q0 32 23.5 51t52.5 19q30 0 48.5 -18.5t18.5 -45.5z" />
<glyph unicode="&#x2039;" horiz-adv-x="316" d="M165 67l-123 189l5 20l217 185l31 -28l-140 -163l56 -176z" />
<glyph unicode="&#x203a;" horiz-adv-x="317" d="M11 94l144 176l-60 163l45 28l125 -185l-5 -20l-217 -189z" />
<glyph unicode="&#xab;" horiz-adv-x="506" d="M165 67l-123 189l5 20l217 185l31 -28l-140 -163l56 -176zM355 67l-123 189l5 20l217 185l31 -28l-140 -163l56 -176z" />
<glyph unicode="&#xbb;" horiz-adv-x="507" d="M201 94l144 176l-60 163l45 28l125 -185l-5 -20l-217 -189zM11 94l144 176l-60 163l45 28l125 -185l-5 -20l-217 -189z" />
<glyph unicode="*" horiz-adv-x="448" d="M421 458l-112 51l-54 -141h-23l16 141l-137 -51l-5 19l126 88l-82 88l14 17l113 -51l55 140h19l-15 -140l138 51l4 -17l-127 -89l83 -87z" />
<glyph unicode="+" horiz-adv-x="554" d="M362 491l-49 -194h194l-17 -65h-193l-48 -195h-69l48 195h-192l17 65h191l49 194h69z" />
<glyph unicode="&#x3c;" horiz-adv-x="478" d="M347 5l-323 232l15 60l438 231l-19 -75l-350 -189l258 -180z" />
<glyph unicode="=" horiz-adv-x="614" d="M498 142h-454l16 65h454zM543 322h-454l16 65h454z" />
<glyph unicode="&#x3e;" horiz-adv-x="477" d="M11 84l350 189l-258 180l19 75l322 -231l-15 -60l-437 -232z" />
<glyph unicode="&#x401;" horiz-adv-x="610" d="M0 0zM-8 41q5 0 13.5 0.5t17.5 1.5t16.5 1.5t12.5 2.5q17 5 25.5 16.5t14.5 33.5l124 499q5 23 2 34t-17 16q-6 2 -23 3t-34 3l10 41h463l-21 -167h-36q-1 36 -7 59t-19.5 35.5t-35.5 17.5t-55 5h-122l-65 -260h101q23 0 36 6.5t21 20.5q4 7 9.5 24.5l10.5 34.5h41 l-55 -222h-41q1 5 2.5 13.5l3 17t2.5 16.5t1 12q-1 15 -11.5 21t-32.5 6h-100l-71 -283h135q37 0 63 7t48 24t42 45.5t45 71.5l31 -4l-64 -194h-492zM472 779q0 26 20 45.5t49 19.5q17 0 28.5 -9t11.5 -30q0 -15 -6.5 -27.5t-16 -20.5t-21.5 -12.5t-24 -4.5q-17 0 -29 9.5 t-12 29.5zM304 778q0 26 19.5 46t48.5 20q17 0 29 -9t12 -30q0 -30 -22.5 -47.5t-46.5 -17.5q-17 0 -28.5 9t-11.5 29z" />
<glyph unicode="&#x410;" horiz-adv-x="682" d="M0 0zM431 240h-229l-90 -143q-11 -18 -7 -31t23 -18q7 -2 23 -3.5t33 -3.5l-11 -41h-232l11 41q11 1 24.5 4.5t22.5 6.5q17 5 28.5 15.5t23.5 29.5l386 609h43l57 -609q2 -20 8 -30t20 -15q8 -3 20.5 -6.5t23.5 -4.5l-11 -41h-266l11 41q17 2 33.5 3.5t24.5 3.5 q16 3 29.5 15t12.5 34zM235 293h192l-21 271z" />
<glyph unicode="&#x411;" horiz-adv-x="635" d="M322 643l-62 -249h138q88 0 132 -40t44 -108q0 -49 -21.5 -93.5t-60.5 -78.5t-93.5 -54t-121.5 -20h-296l11 41q5 0 13.5 0.5t17.5 1.5t16.5 1.5t12.5 2.5q17 5 25.5 16.5t14.5 33.5l124 499q5 23 2 34t-17 16q-6 2 -23 3t-34 3l10 41h473l-41 -167h-36q-1 36 -7 59 t-19.5 35.5t-35.5 17.5t-55 5h-111zM248 344l-74 -294h102q44 0 78.5 15.5t58.5 41.5t36.5 59t12.5 69q0 57 -26 83t-82 26h-106z" />
<glyph unicode="&#x412;" horiz-adv-x="632" d="M0 0zM-8 41q5 0 13.5 0.5t17.5 1.5t16.5 1.5t12.5 2.5q17 5 25.5 17.5t14.5 32.5l124 499q11 43 -15 50q-4 1 -11 2t-15.5 1.5t-16.5 1.5t-14 1l10 41h283q78 0 122 -27.5t44 -91.5q0 -39 -16.5 -73t-45 -61t-66 -45.5t-79.5 -26.5l-1 -3q90 -2 128.5 -36.5t38.5 -92.5 q0 -51 -24.5 -94.5t-65 -75t-92 -49t-104.5 -17.5h-295zM459 222q0 51 -32.5 81t-108.5 30h-74l-71 -283h87q39 0 74.5 12t63.5 34.5t44.5 54.5t16.5 71zM321 643l-65 -260h56q37 0 69.5 13t57 35.5t39 54t14.5 67.5q0 48 -25.5 69t-73.5 21h-72z" />
<glyph unicode="&#x413;" horiz-adv-x="558" d="M216 596q5 23 2 34t-17 16q-6 2 -23 3t-34 3l10 41h473l-41 -167h-36q-1 36 -7 59t-19.5 35.5t-35.5 17.5t-55 5h-112l-135 -546q-5 -23 -2 -34t16 -16q6 -2 23.5 -3t34.5 -3l-11 -41h-266l11 41q5 0 13.5 0.5t17.5 1.5t16.5 1.5t12.5 2.5q17 5 25.5 16.5t14.5 33.5z" />
<glyph unicode="&#x414;" horiz-adv-x="708" d="M503 53h114l-49 -195h-36q3 42 0 69t-16.5 43.5t-39.5 23t-69 6.5h-282q-44 0 -71.5 -6.5t-47 -23t-34.5 -43.5t-33 -69h-35l48 195h36q47 18 81 55.5t64 101.5t60.5 159t69.5 230q10 37 -10 45q-9 5 -24.5 6t-38.5 2l10 41h547l-10 -41q-5 0 -13.5 -0.5t-17.5 -1.5 l-17.5 -2t-12.5 -2q-29 -8 -39 -50zM327 640l-62 -216.5t-56 -168t-59.5 -122.5t-72.5 -80h332l145 587h-227z" />
<glyph unicode="&#x415;" horiz-adv-x="610" d="M0 0zM-8 41q5 0 13.5 0.5t17.5 1.5t16.5 1.5t12.5 2.5q17 5 25.5 16.5t14.5 33.5l124 499q5 23 2 34t-17 16q-6 2 -23 3t-34 3l10 41h463l-21 -167h-36q-1 36 -7 59t-19.5 35.5t-35.5 17.5t-55 5h-122l-65 -260h101q23 0 36 6.5t21 20.5q4 7 9.5 24.5l10.5 34.5h41 l-55 -222h-41q1 5 2.5 13.5l3 17t2.5 16.5t1 12q-1 15 -11.5 21t-32.5 6h-100l-71 -283h135q37 0 63 7t48 24t42 45.5t45 71.5l31 -4l-64 -194h-492z" />
<glyph unicode="&#x416;" horiz-adv-x="948" d="M471 97q-6 -23 -2.5 -34t16.5 -16q6 -2 23.5 -3t34.5 -3l-11 -41h-266l11 41q5 0 13.5 0.5t17.5 1.5t16.5 1.5t12.5 2.5q17 5 25.5 16.5t14.5 33.5l124 499q5 23 2 34t-17 16q-6 2 -23 3t-34 3l10 41h266l-10 -41q-5 0 -13.5 -0.5t-17.5 -1.5l-17.5 -2t-12.5 -2 q-29 -8 -39 -50zM406 338l-309 -338h-151l9 40q21 3 38 9t31 15.5t27.5 22.5t28.5 30l242 266l-100 194q-36 69 -109 75l11 41h240l-11 -41q-45 -3 -58 -24q-12 -21 7 -64l106 -219zM564 345l13 13l34.5 34l48.5 47l53 51.5l49 48.5l38 38q12 12 19 25t5 24t-14 18.5 t-38 7.5l8 41h254l-8 -41q-42 -3 -76.5 -23t-76.5 -59q-38 -35 -88 -87.5l-124 -124.5l103 -241q14 -33 37.5 -52t63.5 -25l-7 -40h-151l-144 338z" />
<glyph unicode="&#x417;" horiz-adv-x="587" d="M361 659q-36 0 -66 -12.5t-55 -34.5t-45.5 -52t-38.5 -65h-35l39 153q47 28 99.5 44.5t110.5 16.5q93 0 143 -38.5t50 -104.5q0 -40 -15 -74t-42.5 -60t-67.5 -43t-89 -23l-1 -4q75 -3 120 -36.5t45 -100.5q0 -59 -24.5 -103.5t-66.5 -75t-96.5 -46t-114.5 -15.5 q-131 0 -211 54l45 179h35q1 -39 8 -72.5t23 -58t42 -38.5t65 -14q40 0 75 13t61 37t40.5 58t14.5 75q0 34 -10.5 56.5t-30 36t-47 19t-61.5 5.5h-66l12 50h65q38 0 72 11.5t59.5 33t40.5 53.5t15 74q0 48 -23 75t-74 27z" />
<glyph unicode="&#x418;" horiz-adv-x="790" d="M191 119l480 574h169l-10 -41q-5 0 -13.5 -0.5t-17.5 -1.5l-17.5 -2t-12.5 -2q-29 -8 -39 -50l-124 -499q-6 -23 -2.5 -34t16.5 -16q6 -2 23.5 -3t34.5 -3l-11 -41h-266l11 41q5 0 13.5 0.5t17.5 1.5t16.5 1.5t12.5 2.5q17 5 26 16.5t14 33.5l118 474l-478 -571h-171 l11 41q5 0 13.5 0.5t17.5 1.5t16.5 1.5t12.5 2.5q17 5 25.5 16.5t14.5 33.5l124 499q5 23 2 34t-17 16q-6 2 -23 3t-34 3l10 41h266l-10 -41q-5 0 -13.5 -0.5t-17.5 -1.5l-17.5 -2t-12.5 -2q-29 -8 -39 -50z" />
<glyph unicode="&#x419;" horiz-adv-x="790" d="M0 0zM191 119l480 574h169l-10 -41q-5 0 -13.5 -0.5t-17.5 -1.5l-17.5 -2t-12.5 -2q-29 -8 -39 -50l-124 -499q-6 -23 -2.5 -34t16.5 -16q6 -2 23.5 -3t34.5 -3l-11 -41h-266l11 41q5 0 13.5 0.5t17.5 1.5t16.5 1.5t12.5 2.5q17 5 26 16.5t14 33.5l118 474l-478 -571 h-171l11 41q5 0 13.5 0.5t17.5 1.5t16.5 1.5t12.5 2.5q17 5 25.5 16.5t14.5 33.5l124 499q5 23 2 34t-17 16q-6 2 -23 3t-34 3l10 41h266l-10 -41q-5 0 -13.5 -0.5t-17.5 -1.5l-17.5 -2t-12.5 -2q-29 -8 -39 -50zM685 836q-14 -49 -51 -74.5t-108 -25.5q-27 0 -50 5.5 t-39 17.5t-24.5 31t-7.5 46h86q-3 -31 11.5 -44t37.5 -13q35 0 55 13.5t29 43.5h61z" />
<glyph unicode="&#x41a;" horiz-adv-x="678" d="M0 0zM186 97q-6 -23 -2.5 -34t16.5 -16q6 -2 23.5 -3t34.5 -3l-11 -41h-266l11 41q5 0 13.5 0.5t17.5 1.5t16.5 1.5t12.5 2.5q17 5 25.5 16.5t14.5 33.5l124 499q5 23 2 34t-17 16q-6 2 -23 3t-34 3l10 41h266l-10 -41q-5 0 -13.5 -0.5t-17.5 -1.5l-17.5 -2t-12.5 -2 q-29 -8 -39 -50zM279 345q36 27 70.5 58.5l65 61.5l56 56l43.5 43q12 11 26.5 29t18.5 32q2 7 1.5 11t-6 7t-17.5 5t-33 4l10 41h254l-10 -41q-75 -6 -151 -75q-16 -14 -40 -37.5l-54 -52.5l-65.5 -62.5l-72.5 -67.5l114 -240q16 -33 39 -52t63 -25l-13 -40h-145l-155 338z " />
<glyph unicode="&#x41b;" horiz-adv-x="705" d="M521 97q-6 -23 -2.5 -34t16.5 -16q6 -2 23.5 -3t34.5 -3l-11 -41h-266l11 41q5 0 13.5 0.5t17.5 1.5t16.5 1.5t12.5 2.5q17 5 25.5 16.5t14.5 33.5l135 543h-227q-43 -152 -81 -272.5t-76 -205.5t-79 -130t-89 -45q-30 0 -44 16t-14 39q0 25 17 43t47 22q41 5 71 32 t58 84.5t57.5 149t68.5 226.5q10 37 -10 45q-9 5 -24.5 6t-38.5 2l10 41h547l-10 -41q-5 0 -13.5 -0.5t-17.5 -1.5l-17.5 -2t-12.5 -2q-29 -8 -39 -50z" />
<glyph unicode="&#x41c;" horiz-adv-x="922" d="M0 0zM972 693l-10 -41q-5 0 -13.5 -0.5t-17.5 -1.5l-17.5 -2t-12.5 -2q-29 -8 -39 -50l-124 -499q-6 -23 -2.5 -34t16.5 -16q6 -2 23.5 -3t34.5 -3l-11 -41h-266l11 41q5 0 13.5 0.5t17.5 1.5t16.5 1.5t12.5 2.5q17 5 25.5 16.5t14.5 33.5l119 480l-333 -430h-34 l-118 429l-111 -444q-7 -29 -3 -46.5t17 -27.5q21 -16 59 -21l-10 -37h-256l10 37q16 2 31.5 6t29.5 11q20 9 35 27.5t23 50.5l116 464q5 23 2 34t-17 16q-6 2 -23 3t-34 3l10 41h184l117 -423l334 423h180z" />
<glyph unicode="&#x41d;" horiz-adv-x="780" d="M0 0zM596 97q-6 -23 -2.5 -34t16.5 -16q6 -2 23.5 -3t34.5 -3l-11 -41h-266l11 41q5 0 13.5 0.5t17.5 1.5t16.5 1.5t12.5 2.5q17 5 25.5 16.5t14.5 33.5l59 237h-316l-59 -237q-6 -23 -2.5 -34t16.5 -16q6 -2 23.5 -3t34.5 -3l-11 -41h-266l11 41q5 0 13.5 0.5t17.5 1.5 t16.5 1.5t12.5 2.5q17 5 25.5 16.5t14.5 33.5l124 499q5 23 2 34t-17 16q-6 2 -23 3t-34 3l10 41h266l-10 -41q-5 0 -13.5 -0.5t-17.5 -1.5l-17.5 -2t-12.5 -2q-29 -8 -39 -50l-52 -209h316l52 209q5 23 2 34t-17 16q-6 2 -23 3t-34 3l10 41h266l-10 -41q-5 0 -13.5 -0.5 t-17.5 -1.5l-17.5 -2t-12.5 -2q-29 -8 -39 -50z" />
<glyph unicode="&#x41e;" horiz-adv-x="780" d="M58 0zM753 449q0 -84 -34 -167t-93.5 -149t-141 -107t-176.5 -41q-123 0 -186.5 69t-63.5 187q0 84 33.5 167.5t92.5 150.5t140 108.5t176 41.5q63 0 110.5 -19t79 -53t47.5 -82t16 -106zM318 37q55 0 101 19.5t83 52.5t64.5 77t46 92t28 97.5t9.5 94.5q0 43 -9 78 t-28.5 59.5t-50.5 38t-74 13.5q-55 0 -101 -20t-82 -54.5t-63 -79t-45 -93.5t-27 -99t-9 -94q0 -88 36.5 -135t120.5 -47z" />
<glyph unicode="&#x41f;" horiz-adv-x="770" d="M586 97q-6 -23 -2.5 -34t16.5 -16q6 -2 23.5 -3t34.5 -3l-11 -41h-266l11 41q5 0 13.5 0.5t17.5 1.5t16.5 1.5t12.5 2.5q17 5 25.5 16.5t14.5 33.5l135 543h-306l-135 -543q-6 -23 -2.5 -34t16.5 -16q6 -2 23.5 -3t34.5 -3l-11 -41h-266l11 41q5 0 13.5 0.5t17.5 1.5 t16.5 1.5t12.5 2.5q17 5 25.5 16.5t14.5 33.5l124 499q5 23 2 34t-17 16q-6 2 -23 3t-34 3l10 41h666l-10 -41q-5 0 -13.5 -0.5t-17.5 -1.5l-17.5 -2t-12.5 -2q-29 -8 -39 -50z" />
<glyph unicode="&#x420;" horiz-adv-x="594" d="M0 0zM216 596q11 43 -15 50q-10 3 -23 3.5t-34 2.5l10 41h303q78 0 120.5 -35.5t42.5 -102.5q0 -53 -22.5 -100.5t-61 -83.5t-88.5 -57t-105 -21h-109l-48 -196q-11 -43 14 -50q11 -3 29 -3.5t39 -2.5l-11 -41h-276l11 41q14 1 31.5 2t28.5 4q29 7 40 50zM321 643 l-74 -300h75q40 0 74 16.5t59 44.5t39 65t14 77q0 45 -24.5 71t-70.5 26h-92z" />
<glyph unicode="&#x421;" horiz-adv-x="673" d="M58 0zM479 659q-52 0 -96 -20.5t-79.5 -55t-62 -79.5t-44.5 -94t-27 -98.5t-9 -93.5q0 -88 37 -135.5t119 -47.5q45 0 80 14t63.5 38t51 55.5t41.5 66.5h35l-38 -153q-50 -34 -113.5 -52.5t-126.5 -18.5t-110.5 18.5t-79 52.5t-47 81t-15.5 103q0 85 33.5 169t92.5 150.5 t141 108t178 41.5q54 0 105.5 -14t91.5 -40l-45 -179h-35q-2 40 -8 74t-22 58t-42.5 37.5t-68.5 13.5z" />
<glyph unicode="&#x422;" horiz-adv-x="632" d="M92 0zM452 643l-136 -546q-11 -43 14 -50q10 -3 23 -3.5t35 -2.5l-11 -41h-266l11 41q14 1 31.5 2t28.5 4q29 7 40 50l136 546h-55q-33 0 -57.5 -5t-44.5 -17.5t-37.5 -35.5t-35.5 -59h-36l41 167h568l-41 -167h-36q-1 36 -7 59t-19.5 35.5t-35.5 17.5t-55 5h-55z" />
<glyph unicode="&#x423;" horiz-adv-x="677" d="M212 99q23 0 41.5 13t38.5 36l-123 448q-8 31 -26 42t-46 14l10 41h261l-10 -41q-34 -3 -54 -8.5t-29.5 -16.5t-9.5 -28.5t7 -43.5l86 -320l226 330q32 45 17 65.5t-69 21.5l10 41h233l-9 -36q-30 -5 -52 -16.5t-42 -40.5l-298 -418l-62 -85t-54.5 -61.5t-54.5 -37.5 t-63 -13t-51 17.5t-16 40.5q0 33 22 50t52 17q13 0 22 -1.5t15.5 -4t13 -4t14.5 -1.5z" />
<glyph unicode="&#x424;" horiz-adv-x="859" d="M554 595l1 2q139 0 213 -52.5t74 -150.5q0 -66 -27 -120.5t-79.5 -93.5t-129 -61t-176.5 -22l-2 -10q-6 -23 -2.5 -34t16.5 -16q6 -2 23.5 -3t34.5 -3l-11 -41h-266l11 41q5 0 13.5 0.5t17.5 1.5t16.5 1.5t12.5 2.5q17 5 25.5 16.5t14.5 33.5l2 10q-138 0 -212 52.5 t-74 150.5q0 65 27 119.5t79 94t128.5 61.5t175.5 22l3 9q5 23 2 34t-17 16q-6 2 -23 3t-34 3l10 41h266l-10 -41q-5 0 -13.5 -0.5t-17.5 -1.5l-17.5 -2t-12.5 -2q-29 -8 -39 -50zM732 393q0 43 -14.5 73.5t-40 49.5t-60 28t-73.5 10l-105 -420l3 8q66 0 120 19t91.5 52.5 t58 79.5t20.5 100zM160 301q0 -43 14.5 -73.5t39.5 -50t59.5 -28.5t73.5 -9l102 412q-66 0 -119.5 -19t-91 -52.5t-58 -79.5t-20.5 -100z" />
<glyph unicode="&#x425;" horiz-adv-x="663" d="M0 0zM125 693h272l-10 -41q-41 -2 -59 -8.5t-18 -26.5q0 -14 11 -42l60 -155l156 163q24 25 24 40q0 23 -63 29l10 41h238l-10 -41q-30 -4 -66 -20.5t-67 -48.5l-203 -212l108 -274q11 -28 26 -39.5t46 -16.5l-11 -41h-275l11 41q57 5 79 15t22 30q0 5 -2 11l-4 12 l-72 187l-172 -180q-28 -29 -28 -46q0 -14 17 -20.5t45 -8.5l-11 -41h-237l11 41q17 2 36 9.5t37 18t35 23t29 24.5l219 229l-96 251q-6 14 -17.5 24t-25.5 17t-28.5 10.5t-26.5 4.5z" />
<glyph unicode="&#x426;" horiz-adv-x="776" d="M215 596q6 23 2.5 34t-16.5 16q-6 2 -23.5 3t-34.5 3l11 41h266l-11 -41q-5 0 -13.5 -0.5t-17.5 -1.5t-17 -2t-12 -2q-17 -5 -25.5 -16.5t-14.5 -33.5l-135 -543h305l136 543q6 23 2.5 34t-16.5 16q-6 2 -23.5 3t-34.5 3l11 41h266l-11 -41q-5 0 -13.5 -0.5t-17.5 -1.5 t-17 -2t-12 -2q-17 -5 -25.5 -16.5t-14.5 -33.5l-136 -543h104l-49 -195h-36q4 42 3 69.5t-12.5 43.5t-34 22.5t-59.5 6.5h-508l10 41q5 0 13.5 0.5t17.5 1.5t17 1.5t13 2.5q29 8 39 50z" />
<glyph unicode="&#x427;" horiz-adv-x="730" d="M546 97q-6 -23 -2.5 -34t16.5 -16q6 -2 23.5 -3t34.5 -3l-11 -41h-266l11 41q5 0 13.5 0.5t17.5 1.5t16.5 1.5t12.5 2.5q17 5 25.5 16.5t14.5 33.5l58 236q-26 -10 -50 -17t-47.5 -11.5t-48 -6.5t-51.5 -2q-46 0 -81.5 14.5t-57.5 41.5t-28 67t7 91l22 86q5 23 2 34 t-17 16q-6 2 -23 3t-34 3l10 41h266l-10 -41q-5 0 -13.5 -0.5t-17.5 -1.5l-17.5 -2t-12.5 -2q-29 -8 -39 -50l-23 -88q-18 -73 7.5 -113.5t108.5 -40.5q31 0 58.5 3t48.5 7t34.5 7.5l17.5 4.5l55 220q5 23 2 34t-17 16q-6 2 -23 3t-34 3l10 41h266l-10 -41q-5 0 -13.5 -0.5 t-17.5 -1.5l-17.5 -2t-12.5 -2q-29 -8 -39 -50z" />
<glyph unicode="&#x428;" horiz-adv-x="1110" d="M215 596q6 23 2.5 34t-16.5 16q-6 2 -23.5 3t-34.5 3l11 41h266l-11 -41q-5 0 -13.5 -0.5t-17.5 -1.5t-17 -2t-12 -2q-17 -5 -25.5 -16.5t-14.5 -33.5l-135 -543h275l136 543q6 23 2.5 34t-16.5 16q-6 2 -23.5 3t-34.5 3l11 41h266l-11 -41q-5 0 -13.5 -0.5t-17.5 -1.5 t-17 -2t-12 -2q-17 -5 -25.5 -16.5t-14.5 -33.5l-136 -543h276l136 543q6 23 2.5 34t-16.5 16q-6 2 -23.5 3t-34.5 3l11 41h266l-11 -41q-5 0 -13.5 -0.5t-17.5 -1.5t-17 -2t-12 -2q-17 -5 -25.5 -16.5t-14.5 -33.5l-124 -499q-5 -23 -2 -34t17 -16q6 -2 23 -3t34 -3 l-10 -41h-1006l10 41q5 0 13.5 0.5t17.5 1.5t17 1.5t13 2.5q29 8 39 50z" />
<glyph unicode="&#x429;" horiz-adv-x="1116" d="M215 596q6 23 2.5 34t-16.5 16q-6 2 -23.5 3t-34.5 3l11 41h266l-11 -41q-5 0 -13.5 -0.5t-17.5 -1.5t-17 -2t-12 -2q-17 -5 -25.5 -16.5t-14.5 -33.5l-135 -543h275l136 543q6 23 2.5 34t-16.5 16q-6 2 -23.5 3t-34.5 3l11 41h266l-11 -41q-5 0 -13.5 -0.5t-17.5 -1.5 t-17 -2t-12 -2q-17 -5 -25.5 -16.5t-14.5 -33.5l-136 -543h276l136 543q6 23 2.5 34t-16.5 16q-6 2 -23.5 3t-34.5 3l11 41h266l-11 -41q-5 0 -13.5 -0.5t-17.5 -1.5t-17 -2t-12 -2q-17 -5 -25.5 -16.5t-14.5 -33.5l-136 -543h104l-49 -195h-36q4 40 3 67t-10.5 43t-29 23.5 t-52.5 8.5h-862l10 41q5 0 13.5 0.5t17.5 1.5t17 1.5t13 2.5q29 8 39 50z" />
<glyph unicode="&#x42a;" horiz-adv-x="725" d="M378 400h127q88 0 132 -40t44 -108q0 -49 -21.5 -94.5t-60.5 -80.5t-93.5 -56t-121.5 -21h-286l11 41q5 0 13.5 0.5t17.5 1.5t16.5 1.5t12.5 2.5q17 5 25.5 16.5t14.5 33.5l136 546h-43q-33 0 -57.5 -5t-44.5 -17.5t-37.5 -35.5t-35.5 -59h-36l41 167h405l-10 -41 q-5 0 -13.5 -0.5t-17.5 -1.5l-17.5 -2t-12.5 -2q-29 -8 -39 -50zM366 350l-75 -300h92q44 0 78.5 16.5t58.5 43.5t36.5 61t12.5 70q0 57 -26 83t-82 26h-95z" />
<glyph unicode="&#x42b;" horiz-adv-x="920" d="M736 97q-6 -23 -2.5 -34t16.5 -16q6 -2 23.5 -3t34.5 -3l-11 -41h-266l11 41q5 0 13.5 0.5t17.5 1.5t16.5 1.5t12.5 2.5q17 5 26 16.5t14 33.5l124 499q5 23 2 34t-17 16q-6 2 -23 3t-34 3l10 41h266l-10 -41q-5 0 -13.5 -0.5t-17.5 -1.5l-17.5 -2t-12.5 -2 q-29 -8 -39 -50zM261 400h127q88 0 132 -40t44 -108q0 -49 -21.5 -94.5t-60.5 -80.5t-93.5 -56t-121.5 -21h-286l11 41q5 0 13.5 0.5t17.5 1.5t16.5 1.5t12.5 2.5q17 5 25.5 16.5t14.5 33.5l124 499q5 23 2 34t-17 16q-6 2 -23 3t-34 3l10 41h266l-10 -41q-5 0 -13.5 -0.5 t-17.5 -1.5l-17.5 -2t-12.5 -2q-29 -8 -39 -50zM249 350l-75 -300h92q44 0 78.5 16.5t58.5 43.5t36.5 61t12.5 70q0 57 -26 83t-82 26h-95z" />
<glyph unicode="&#x42c;" horiz-adv-x="608" d="M261 400h127q88 0 132 -40t44 -108q0 -49 -21.5 -94.5t-60.5 -80.5t-93.5 -56t-121.5 -21h-286l11 41q5 0 13.5 0.5t17.5 1.5t16.5 1.5t12.5 2.5q17 5 25.5 16.5t14.5 33.5l124 499q5 23 2 34t-17 16q-6 2 -23 3t-34 3l10 41h266l-10 -41q-5 0 -13.5 -0.5t-17.5 -1.5 l-17.5 -2t-12.5 -2q-29 -8 -39 -50zM249 350l-75 -300h92q44 0 78.5 16.5t58.5 43.5t36.5 61t12.5 70q0 57 -26 83t-82 26h-95z" />
<glyph unicode="&#x42d;" horiz-adv-x="672" d="M224 35q58 0 105.5 24.5t84 65t63 92.5t42.5 107h-294v53h307q5 26 7.5 51t2.5 48q0 88 -37 135.5t-119 47.5q-45 0 -80 -14t-63.5 -38t-51 -55.5t-41.5 -66.5h-35l38 153q50 34 113.5 52.5t126.5 18.5t110.5 -19t79 -52.5t47 -80.5t15.5 -103q0 -85 -33.5 -169 t-92.5 -150.5t-141 -108t-178 -41.5q-54 0 -105.5 14t-91.5 40l45 179h35q1 -41 7.5 -74.5t22.5 -57.5t42.5 -37.5t68.5 -13.5z" />
<glyph unicode="&#x42e;" horiz-adv-x="1079" d="M1052 449q0 -84 -34 -167t-92.5 -149t-138 -107t-170.5 -41q-57 0 -102 18t-75.5 51t-46.5 80.5t-16 106.5q0 49 10 93h-142l-59 -237q-6 -23 -2.5 -34t16.5 -16q6 -2 23.5 -3t34.5 -3l-11 -41h-266l11 41q5 0 13.5 0.5t17.5 1.5t16.5 1.5t12.5 2.5q17 5 25.5 16.5 t14.5 33.5l124 499q5 23 2 34t-17 16q-6 2 -23 3t-34 3l10 41h266l-10 -41q-5 0 -13.5 -0.5t-17.5 -1.5l-17.5 -2t-12.5 -2q-29 -8 -39 -50l-52 -209h144q22 64 61.5 122.5t92.5 103t117 70.5t136 26q59 0 104.5 -19t76 -53t46.5 -82t16 -106zM627 37q52 0 96.5 19.5 t80.5 52.5t63 77t45 92t27.5 97.5t9.5 94.5q0 86 -36.5 137.5t-115.5 51.5q-53 0 -97 -20t-79 -54.5t-61.5 -79t-44 -93.5t-26.5 -99t-9 -94q0 -88 35.5 -135t111.5 -47z" />
<glyph unicode="&#x42f;" horiz-adv-x="665" d="M436 298h-83l-261 -298h-135l9 40q20 4 35 11t28 16t25.5 21.5l27.5 28.5l175 196q-58 11 -91.5 45.5t-33.5 94.5q0 37 17.5 79.5t53.5 78t92 59t134 23.5h286l-11 -41q-5 0 -13.5 -0.5t-17.5 -1.5t-17 -2t-12 -2q-17 -5 -25.5 -16.5t-14.5 -33.5l-124 -499 q-5 -23 -2 -34t17 -16q6 -2 23 -3t34 -3l-10 -41h-266l10 41q5 0 13.5 0.5t17.5 1.5t17 1.5t13 2.5q29 8 39 50zM241 457q0 -57 27.5 -83t83.5 -26h96l73 295h-91q-44 0 -79 -15.5t-59.5 -41.5t-37.5 -59.5t-13 -69.5z" />
<glyph unicode="&#x430;" horiz-adv-x="529" d="M377 97q-7 -27 6 -27q6 0 14.5 4.5t19 12l21.5 16t21 17.5l11 -31q-49 -57 -85.5 -80.5t-59.5 -23.5q-26 0 -36 25t1 59l38 124h-3q-27 -44 -54.5 -81.5t-55 -64.5t-55 -42.5t-54.5 -15.5q-36 0 -62 31t-26 100q0 60 22 126t62.5 121.5t97.5 91.5t128 36q22 0 40 -5 t35 -13l59 18h15zM141 63q19 0 44 20.5t52.5 53t55 72.5l52.5 79l30 122q-17 13 -38 22t-44 9q-33 0 -60 -15.5t-48 -41t-36 -58t-25 -66t-15 -66.5t-5 -58q0 -73 37 -73z" />
<glyph unicode="&#x431;" horiz-adv-x="524" d="M584 755q-10 -23 -21.5 -41t-26.5 -31t-35 -21.5t-47 -13.5l-25 -3q-42 -4 -73 -5.5t-54.5 -6t-41 -14.5t-32.5 -32q-23 -34 -43.5 -81.5t-38.5 -113.5q9 12 25 29.5t38 34t49.5 28t60.5 11.5q41 0 71 -12.5t49.5 -35t29 -53t9.5 -66.5q0 -61 -22 -122.5t-60 -110.5 t-89.5 -79.5t-110.5 -30.5q-41 0 -70.5 13t-48 37t-27 57.5t-8.5 74.5q0 35 7 76.5t21 98.5q21 84 50.5 153t73 118.5t103 78.5t138.5 34l9 1q28 2 47.5 4t33 5.5t22.5 9.5t17 15zM208 34q38 0 70 29t55 73.5t36 97.5t13 100q0 23 -4 43t-13 35t-24.5 24t-38.5 9 q-41 0 -73 -27t-53.5 -69.5t-33 -94t-11.5 -99.5q0 -24 4 -46t13 -38.5t23.5 -26.5t36.5 -10z" />
<glyph unicode="&#x432;" horiz-adv-x="480" d="M313 495q34 0 58.5 -7.5t40 -21t23 -31.5t7.5 -38q0 -27 -11.5 -50t-31 -41.5t-46.5 -32t-57 -21.5q43 -2 73.5 -24t30.5 -65q0 -37 -18.5 -69.5t-49.5 -56.5t-72 -38t-85 -14t-73 12.5t-47 34t-25.5 50.5t-7.5 61q0 56 20.5 118t58.5 114t91.5 86t120.5 34zM119 214 q-3 -27 -3 -53q0 -23 3.5 -45.5t13.5 -40t27 -28.5t44 -11q47 0 74 30.5t27 82.5q0 40 -33 60t-100 12zM284 447q-33 0 -58.5 -16.5t-45 -43t-33 -60.5t-21.5 -69l70 10q28 4 55 14t47 26t32.5 38.5t12.5 51.5q0 20 -14 34.5t-45 14.5z" />
<glyph unicode="&#x433;" horiz-adv-x="438" d="M9 94q0 46 22 74t54.5 46.5t70.5 32.5t70.5 31.5t54.5 42.5t22 66q0 32 -20.5 45.5t-51.5 13.5q-42 0 -73 -28t-63 -86l-31 3l33 122q38 19 74 28.5t80 9.5q61 0 99.5 -25.5t38.5 -82.5q0 -49 -21.5 -79t-54.5 -50.5t-70.5 -34.5t-70.5 -30.5t-54.5 -39t-21.5 -59.5 q0 -28 21.5 -44t59.5 -16q56 0 90.5 28.5t63.5 85.5l32 -3l-35 -122q-74 -38 -166 -38q-32 0 -60 6.5t-48.5 20t-32.5 34t-12 48.5z" />
<glyph unicode="&#x434;" horiz-adv-x="517" d="M296 494q27 0 49.5 -6.5t41.5 -22.5q0 39 -4.5 77t-20 72t-46 62.5t-82.5 49.5l19 31q65 -18 107.5 -48.5t67.5 -72.5t35 -94.5t10 -113.5q0 -89 -21.5 -169.5t-61 -141.5t-95 -96.5t-124.5 -35.5q-41 0 -68.5 15t-44 40t-24 58t-7.5 69q0 57 20.5 115t56.5 105.5t85 77 t107 29.5zM201 43q42 0 75 33.5t56.5 86t37 117t16.5 127.5q-20 17 -40 24t-49 7q-47 0 -79.5 -27.5t-53.5 -67t-30.5 -85t-9.5 -81.5q0 -73 20 -103.5t57 -30.5z" />
<glyph unicode="&#x435;" horiz-adv-x="460" d="M368 91q-39 -47 -90 -76.5t-113 -29.5q-40 0 -67 12.5t-44 34t-24.5 50.5t-7.5 61q0 56 20.5 118t58.5 114t91.5 86t120.5 34q23 0 45.5 -4.5t40 -15t28.5 -28t11 -44.5t-14.5 -57t-50.5 -56t-97.5 -44t-155.5 -22q-2 -17 -3 -33t-1 -30q0 -23 3.5 -44t13.5 -36.5 t27 -24.5t44 -9q36 0 72 17.5t78 59.5zM284 447q-32 0 -57.5 -16t-45 -41.5t-33 -59t-21.5 -67.5q77 8 120 25t64 36t26 37t5 28q0 31 -15 44.5t-43 13.5z" />
<glyph unicode="&#x436;" horiz-adv-x="866" d="M66 390q27 44 60.5 74t80.5 30q29 0 48 -12.5t30.5 -34.5t16.5 -50.5t5 -61.5q0 -36 -6 -70h87l54 216h79l-55 -216h87q13 45 34 86t49.5 73t63 51t73.5 19q37 0 60 -13.5t23 -48.5q0 -18 -9.5 -35t-37.5 -17q-22 0 -33 12.5t-16 35.5q-3 18 -22 18q-27 0 -48 -29 t-35.5 -72.5t-22 -93t-7.5 -91.5q0 -23 2 -44t7.5 -36.5t15.5 -24.5t27 -9q27 0 48 21t44 53l8 -32q-27 -44 -60.5 -74t-80.5 -30q-29 0 -48 12.5t-30.5 34.5t-16.5 50.5t-5 61.5q0 18 1.5 37t5.5 39h-88l-55 -219h-77l54 219h-86q-12 -46 -33 -88.5t-49.5 -75t-63.5 -52 t-75 -19.5q-37 0 -60 13.5t-23 48.5q0 18 9.5 35t37.5 17q22 0 33 -12.5t16 -35.5q3 -18 22 -18q27 0 48 29t35.5 72.5t22 93t7.5 91.5q0 23 -2 44t-7.5 36.5t-15.5 24.5t-27 9q-27 0 -48 -21t-44 -53z" />
<glyph unicode="&#x437;" horiz-adv-x="443" d="M153 -15q-54 0 -90 9t-68 29l20 126l30 2q5 -29 12.5 -51t20 -38t31 -24t46.5 -8q52 0 84 29t32 83q0 37 -19.5 58.5t-70.5 21.5h-59l9 45h55q54 0 82.5 28t28.5 77q0 37 -18 57t-52 20q-45 0 -73 -26.5t-54 -80.5l-31 3l29 112q36 19 69 28.5t77 9.5q64 0 104.5 -29.5 t40.5 -86.5q0 -53 -36.5 -86.5t-90.5 -45.5q43 -8 71 -35.5t28 -69.5q0 -37 -15.5 -66t-43 -49.5t-66 -31t-83.5 -10.5z" />
<glyph unicode="&#x438;" d="M403 96q-5 -17 -0.5 -21.5t7.5 -4.5q12 0 32.5 16l42.5 34l11 -31q-49 -57 -85.5 -80.5t-58.5 -23.5q-16 0 -25.5 7.5t-13 19.5t-2.5 27t5 30l37 137h-3q-34 -61 -64 -103t-57 -68.5t-51.5 -38t-47.5 -11.5q-22 0 -38.5 9t-25.5 28.5t-8.5 50.5t11.5 76l63 250 q5 20 -0.5 27t-13.5 7t-26 -6t-45 -22v35q38 29 74 42.5t59 12.5q26 -1 37.5 -16t2.5 -50l-65 -256q-14 -53 -13 -75.5t29 -22.5q29 0 83 59t122 177l43 170h81l-97 -385v0z" />
<glyph unicode="&#x439;" d="M47 0zM403 96q-5 -17 -0.5 -21.5t7.5 -4.5q12 0 32.5 16l42.5 34l11 -31q-49 -57 -85.5 -80.5t-58.5 -23.5q-16 0 -25.5 7.5t-13 19.5t-2.5 27t5 30l37 137h-3q-34 -61 -64 -103t-57 -68.5t-51.5 -38t-47.5 -11.5q-22 0 -38.5 9t-25.5 28.5t-8.5 50.5t11.5 76l63 250 q5 20 -0.5 27t-13.5 7t-26 -6t-45 -22v35q38 29 74 42.5t59 12.5q26 -1 37.5 -16t2.5 -50l-65 -256q-14 -53 -13 -75.5t29 -22.5q29 0 83 59t122 177l43 170h81l-97 -385v0zM493 695q-14 -49 -51 -79.5t-108 -30.5q-55 0 -89 27.5t-32 82.5h86q-3 -31 11.5 -49t37.5 -18 q35 0 55 18.5t29 48.5h61z" />
<glyph unicode="&#x43a;" horiz-adv-x="498" d="M134 399q5 18 2 25.5t-13 7.5q-12 0 -32 -8t-41 -20v35q48 32 81 44t55 12q32 0 38.5 -20.5t-1.5 -51.5l-106 -423h-81zM206 241l139 130q25 23 29 48.5t-18 35.5v26h114q5 -29 -10.5 -56t-38.5 -47l-143 -125l140 -237l-10 -31h-72l-134 238z" />
<glyph unicode="&#x43b;" horiz-adv-x="510" d="M362 110q-5 -20 -5.5 -30t7.5 -10t26 12t49 38l11 -31q-49 -57 -85.5 -81t-59.5 -23q-26 1 -35 25t0 59l92 370h-126q-29 -120 -55 -205t-53 -139t-57 -79.5t-67 -25.5q-23 0 -34.5 11.5t-11.5 29.5q0 17 13.5 32t44.5 18t53.5 24t40.5 60t34.5 95l36.5 128q8 36 -6 44.5 t-51 10.5l9 38h321z" />
<glyph unicode="&#x43c;" horiz-adv-x="698" d="M270 481l42 -360l239 360h91l-92 -371q-5 -20 -5.5 -30t7.5 -10t26 12t49 38l11 -31q-49 -57 -85.5 -81t-59.5 -23q-26 1 -35 25t0 59l75 301l-244 -362h-34l-46 358q-27 -103 -51 -174.5t-48 -116.5t-49 -65t-55 -20q-23 0 -34.5 11.5t-11.5 29.5q0 17 12.5 31t35.5 18 q30 4 52.5 26t41.5 61t36 94.5t35 126.5q4 18 3 28.5t-8.5 16t-20.5 7.5t-31 3l9 38h145z" />
<glyph unicode="&#x43d;" horiz-adv-x="551" d="M403 110q-5 -20 -5.5 -30t7.5 -10t26 12t49 38l11 -31q-49 -57 -85.5 -81t-59.5 -23q-26 1 -35 25t0 59l37 149h-177l-54 -218h-81l98 399q5 18 2 25.5t-13 7.5q-12 0 -32 -8t-41 -20v35q48 32 81 44t55 12q32 0 38.5 -20.5t-1.5 -51.5l-40 -157h177l54 215h81z" />
<glyph unicode="&#x43e;" horiz-adv-x="510" d="M26 0zM463 325q0 -57 -20.5 -117t-58 -109.5t-89.5 -81.5t-116 -32q-78 0 -115.5 47.5t-37.5 126.5q0 60 20.5 120t57 108t88.5 78t115 30q75 0 115.5 -45.5t40.5 -124.5zM196 34q38 0 69.5 29t54 73.5t35 97.5t12.5 100q0 23 -3.5 43t-12 35t-23.5 24t-38 9 q-41 0 -72 -27t-52 -69.5t-32 -94t-11 -99.5q0 -24 3 -46t11.5 -38.5t22.5 -26.5t36 -10z" />
<glyph unicode="&#x43f;" horiz-adv-x="557" d="M36 0zM134 399q5 18 2 25.5t-13 7.5q-12 0 -32 -8t-41 -20v35q48 32 81 44t55 12q32 0 38 -20.5t-2 -51.5l-46 -158h3q35 63 65.5 107t58 71t53 39.5t50.5 12.5q22 0 38.5 -8.5t25.5 -28t8.5 -50.5t-11.5 -76l-56 -222q-5 -20 -4.5 -30t8.5 -10t26 12t49 38l11 -31 q-49 -57 -85.5 -81t-59.5 -23q-26 1 -35 25t0 59l60 239q14 53 12.5 74.5t-29.5 21.5q-29 0 -84 -60.5t-124 -179.5l-39 -164h-81l98 399v0z" />
<glyph unicode="&#x440;" horiz-adv-x="545" d="M0 0zM-73 -167h66l142 566q5 19 1 26.5t-15 7.5q-12 0 -31 -8.5t-40 -19.5v35q49 34 79 44.5t54 10.5q29 0 38.5 -18t1.5 -48l-31 -113h2q31 50 58.5 84t52 55t48 30.5t46.5 9.5q52 0 76.5 -39t24.5 -108q0 -66 -20.5 -131t-60.5 -116t-98.5 -83t-134.5 -32 q-15 0 -33.5 2.5t-38.5 7.5l-41 -163h136l-12 -50h-282zM355 411q-30 0 -75.5 -46.5t-110.5 -151.5l-37 -147q19 -9 43 -15.5t50 -6.5q49 0 84 26t57.5 66t33 87.5t10.5 91.5q0 54 -12.5 75t-42.5 21z" />
<glyph unicode="&#x441;" horiz-adv-x="436" d="M23 0zM379 370q-22 0 -31 12t-16 26q-8 14 -19 26t-38 12q-41 0 -71 -29t-49.5 -72.5t-28.5 -93t-9 -91.5q0 -23 3 -44t11.5 -36.5t25 -24.5t43.5 -9q36 0 67.5 17.5t73.5 59.5l14 -33q-39 -47 -85.5 -76.5t-108.5 -29.5q-40 0 -66.5 12.5t-42.5 34.5t-22.5 50.5 t-6.5 61.5q0 58 20 120t57 113.5t89 84.5t116 33q25 0 47 -5t38.5 -14t26 -22.5t9.5 -30.5q0 -18 -9.5 -35t-37.5 -17z" />
<glyph unicode="&#x442;" horiz-adv-x="815" d="M36 0zM134 399q5 18 2 25.5t-13 7.5q-12 0 -32 -8t-41 -20v35q48 32 81 44t55 12q32 0 38 -20.5t-2 -51.5l-40 -144h2q33 59 62.5 100t56.5 67t51.5 37.5t48.5 11.5q22 0 38 -8.5t24.5 -28t8 -50.5t-11.5 -76l-10 -40q64 111 114.5 157t97.5 46q22 0 38.5 -8.5t25.5 -28 t8.5 -50.5t-11.5 -76l-56 -222q-5 -20 -4.5 -30t8.5 -10t26 12t49 38l11 -31q-49 -57 -85.5 -81t-59.5 -23q-26 1 -35 25t0 59l60 239q14 53 12.5 74.5t-29.5 21.5t-78.5 -53.5t-113.5 -159.5l-48 -191h-80l76 308q14 53 12.5 74.5t-29.5 21.5q-29 0 -82 -57t-119 -171 l-43 -176h-81l98 399v0z" />
<glyph unicode="&#x443;" horiz-adv-x="536" d="M0 0zM308 27q38 66 61 142t36 160q-48 -75 -110.5 -158.5t-140.5 -161.5h-37l4 403q-3 21 -18 21q-11 0 -31 -8.5t-38 -17.5v33q20 15 42 27q19 11 41.5 19.5t45.5 8.5q29 0 40 -18.5t9 -58.5l-11 -290q30 33 61.5 73.5l60.5 79.5l53 73.5t38 57.5q2 17 3 34l2 35h88 l6 -10q-6 -26 -16.5 -76.5t-28 -113.5t-45 -133t-68.5 -136q-24 -39 -58 -80.5t-74.5 -75.5t-87 -56t-96.5 -22q-69 0 -69 47q0 26 17.5 39.5t45.5 13.5q22 0 52 -4.5t65.5 5t75.5 42t82 106.5z" />
<glyph unicode="&#x444;" horiz-adv-x="718" d="M414 663q5 19 1 26.5t-15 7.5q-13 0 -32 -9l-39 -19v35q40 29 73.5 42t59.5 13q31 0 39.5 -18t0.5 -48l-88 -349q38 72 79.5 111.5t87.5 39.5t69 -39.5t23 -107.5q0 -66 -22 -131t-61 -116t-93.5 -83t-119.5 -32q-25 0 -38 5q-7 3 -12 6l-41 -164h80l-12 -50h-240l12 50 h80l76 303q-38 -72 -80 -111.5t-87 -39.5q-46 0 -69 39.5t-23 107.5q0 66 22 131t61 116t93.5 83t119.5 32q13 0 22.5 -2t15.5 -4l12 -5zM538 413q-30 0 -66 -38t-84 -133l-44 -176q1 0 5.5 -4t12.5 -8.5t19 -8t25 -3.5q43 0 76 26.5t55.5 66.5t34 88t11.5 92q0 52 -9.5 75 t-35.5 23zM158 67q29 0 65.5 38t83.5 133l44 175q0 1 -4.5 5t-12.5 8.5t-19.5 8t-24.5 3.5q-43 0 -76 -26.5t-55.5 -66.5t-34 -88.5t-11.5 -91.5q0 -52 9.5 -75t35.5 -23z" />
<glyph unicode="&#x445;" horiz-adv-x="516" d="M0 0zM271 317l90 110q31 38 50.5 52t39.5 14q17 0 28.5 -15t19.5 -37q6 -18 9 -37l-27 -17q-20 15 -41 15q-19 0 -36 -11.5t-36 -34.5l-80 -95l46 -150q6 -20 16 -29t21 -9q15 0 31.5 11t31.5 25l20 -20q-13 -20 -27 -38.5t-29 -33t-31 -23.5t-34 -9q-29 0 -44.5 21 t-23.5 46l-42 131l-108 -128q-28 -34 -48.5 -52t-41.5 -18q-23 0 -35 11.5t-18 26.5q-3 6 -5 12l-4 12l22 28q7 -4 15.5 -5t17.5 0q23 2 49 15.5t46 38.5l92 113l-55 174q-4 9 -9.5 15t-13.5 6q-11 0 -31 -8.5t-38 -17.5l-6 33q23 19 51.5 37t62.5 18q29 0 46 -18.5 t29 -58.5z" />
<glyph unicode="&#x446;" horiz-adv-x="552" d="M313 -178q23 6 32.5 17t13 27t4.5 36t9 44q5 17 14.5 32t25.5 30q-15 -7 -30.5 -12t-29.5 -5q-32 0 -38 23.5t2 54.5l37 137h-3q-34 -61 -64 -103t-57 -68.5t-51.5 -38t-47.5 -11.5q-22 0 -38.5 9t-25.5 28.5t-8.5 50.5t11.5 76l63 250q5 20 -0.5 27t-13.5 7t-26 -6 t-45 -22v35q38 29 74 42.5t59 12.5q26 -1 37.5 -16t2.5 -50l-65 -256q-14 -53 -13 -75.5t29 -22.5q29 0 83 59t122 177l43 170h81l-110 -438h73v-21q-16 -16 -21 -34t-5.5 -37t-1.5 -38.5t-8 -38.5q-9 -23 -34 -44.5t-75 -25.5z" />
<glyph unicode="&#x447;" horiz-adv-x="553" d="M400 96q-5 -17 -0.5 -21.5t7.5 -4.5q12 0 32.5 16l42.5 34l11 -31q-49 -57 -85.5 -80.5t-58.5 -23.5q-16 0 -25.5 7.5t-13 19.5t-2.5 27t5 30l52 207q-38 -44 -83.5 -71t-87.5 -27q-48 0 -68 37.5t-3 106.5l19 77q5 20 -0.5 27t-13.5 7t-26 -6t-45 -22v35q38 29 74 42.5 t59 12.5q26 -1 37.5 -16t2.5 -50l-27 -107q-8 -29 -1.5 -49.5t41.5 -20.5t69 22t66 54l38 153h81l-97 -385v0z" />
<glyph unicode="&#x448;" horiz-adv-x="802" d="M338 199q-33 -59 -61 -99.5t-53 -66t-48.5 -37t-45.5 -11.5t-38.5 9t-25.5 28.5t-8.5 50.5t11.5 76l63 250q5 20 -0.5 27t-13.5 7t-26 -6t-45 -22v35q38 29 74 42.5t59 12.5q26 -1 37.5 -16t2.5 -50l-65 -256q-14 -53 -13 -75.5t29 -22.5q29 0 79 59t116 175l44 172h80 l-79 -308q-14 -53 -13 -75.5t29 -22.5q29 0 79 58.5t116 174.5l43 173h81l-97 -385q-5 -17 -0.5 -21.5t7.5 -4.5q12 0 32.5 16l42.5 34l11 -31q-49 -57 -85.5 -80.5t-58.5 -23.5q-16 0 -25.5 7.5t-13 19.5t-2.5 27t5 30l37 137h-2q-33 -61 -62 -103t-54.5 -68.5t-48.5 -38 t-46 -11.5q-22 0 -38.5 9t-25.5 28.5t-8.5 50.5t11.5 76z" />
<glyph unicode="&#x449;" horiz-adv-x="798" d="M338 199q-33 -59 -61 -99.5t-53 -66t-48.5 -37t-45.5 -11.5t-38.5 9t-25.5 28.5t-8.5 50.5t11.5 76l63 250q5 20 -0.5 27t-13.5 7t-26 -6t-45 -22v35q38 29 74 42.5t59 12.5q26 -1 37.5 -16t2.5 -50l-65 -256q-14 -53 -13 -75.5t29 -22.5q29 0 79 59t116 175l44 172h80 l-79 -308q-14 -53 -13 -75.5t29 -22.5q29 0 79 58.5t116 174.5l43 173h81l-110 -438h73v-21q-16 -16 -21 -34t-5.5 -37t-1.5 -38.5t-8 -38.5q-9 -23 -34 -44.5t-75 -25.5l-5 18q23 6 32.5 17t13 27t4.5 36t9 44q5 17 14.5 32t25.5 30q-15 -7 -30.5 -12t-29.5 -5 q-32 0 -38 23.5t2 54.5l37 137h-2q-33 -61 -62 -103t-54.5 -68.5t-48.5 -38t-46 -11.5q-22 0 -38.5 9t-25.5 28.5t-8.5 50.5t11.5 76z" />
<glyph unicode="&#x44a;" horiz-adv-x="513" d="M387 446q-66 -38 -114 -92t-74 -115q28 28 68 46.5t80 18.5q52 0 78.5 -27t26.5 -77q0 -46 -21.5 -85.5t-54.5 -68t-73.5 -45t-78.5 -16.5q-65 0 -96.5 35t-31.5 91q0 43 13.5 84.5t37 80.5t55.5 74t68 65q-26 -6 -46.5 -7.5t-39 -1t-35.5 2t-35 1.5q-15 0 -28 -10 t-27 -45l-25 8q14 39 25 64.5t22 40.5t24.5 21t31.5 6q25 0 46.5 -6.5t43 -14t45.5 -13.5t56 -4q9 7 18.5 12.5l19.5 11.5h21v-35zM243 32q21 0 42.5 10t38 28.5t27 46t10.5 62.5q0 37 -17 53t-41 16q-19 0 -38 -8t-35.5 -20t-30 -26.5t-21.5 -27.5q-2 -11 -3 -23t-1 -23 q0 -47 19 -67.5t50 -20.5z" />
<glyph unicode="&#x44b;" horiz-adv-x="688" d="M176 256q26 25 58 41.5t78 16.5q52 0 78.5 -27t26.5 -77q0 -48 -21.5 -89t-55.5 -71.5t-74.5 -47.5t-78.5 -17q-39 0 -65.5 13t-40.5 36t-16 54.5t7 68.5l61 242q5 20 -0.5 27t-13.5 7t-26 -6t-45 -22v35q38 29 74 42.5t59 12.5q26 -1 37.5 -16t2.5 -50zM540 110 q-5 -20 -5.5 -30t7.5 -10t26 12t49 38l11 -31q-49 -57 -85.5 -81t-59.5 -23q-26 1 -35 25t0 59l103 412h81zM206 32q21 0 42.5 10t39 30t28 49t10.5 68q0 37 -17 53t-41 16q-31 0 -59.5 -20.5t-48.5 -44.5l-12 -48q-14 -54 2 -83.5t56 -29.5z" />
<glyph unicode="&#x44c;" horiz-adv-x="471" d="M176 256q26 25 58 41.5t78 16.5q52 0 78.5 -27t26.5 -77q0 -48 -21.5 -89t-55.5 -71.5t-74.5 -47.5t-78.5 -17q-39 0 -65.5 13t-40.5 36t-16 54.5t7 68.5l61 242q5 20 -0.5 27t-13.5 7t-26 -6t-45 -22v35q38 29 74 42.5t59 12.5q26 -1 37.5 -16t2.5 -50zM206 32 q21 0 42.5 10t39 30t28 49t10.5 68q0 37 -17 53t-41 16q-31 0 -59.5 -20.5t-48.5 -44.5l-12 -48q-14 -54 2 -83.5t56 -29.5z" />
<glyph unicode="&#x44d;" horiz-adv-x="453" d="M125 -15q-42 0 -75 11t-55 27l20 126l30 2q5 -60 26.5 -89t56.5 -29q32 0 58.5 15t47.5 40.5t36 59.5t24 71h-178l8 47h180q2 17 3.5 34t1.5 34q0 23 -3.5 43.5t-12 35.5t-23.5 24t-38 9q-48 0 -77.5 -25.5t-54.5 -78.5l-31 3l29 112q36 19 71.5 28.5t79.5 9.5 q75 0 115.5 -45.5t40.5 -124.5q0 -64 -21.5 -125t-59 -109t-88.5 -77t-111 -29z" />
<glyph unicode="&#x44e;" horiz-adv-x="739" d="M692 325q0 -57 -20.5 -117t-58 -109.5t-89.5 -81.5t-116 -32q-78 0 -115.5 47.5t-37.5 126.5q0 14 1 29t4 30h-90l-54 -218h-81l98 399q5 18 2 25.5t-13 7.5q-12 0 -32 -8t-41 -20v35q48 32 81 44t55 12q32 0 38.5 -20.5t-1.5 -51.5l-40 -157h89q14 46 38.5 87.5t58.5 73 t76.5 50t91.5 18.5q75 0 115.5 -45.5t40.5 -124.5zM425 34q38 0 69.5 29t54 73.5t35 97.5t12.5 100q0 23 -3.5 43t-12 35t-23.5 24t-38 9q-41 0 -72 -27t-52 -69.5t-32 -94t-11 -99.5q0 -24 3 -46t11.5 -38.5t22.5 -26.5t36 -10z" />
<glyph unicode="&#x44f;" horiz-adv-x="515" d="M367 110q-5 -20 -5.5 -30t7.5 -10t26 12t49 38l11 -31q-49 -57 -85.5 -81t-59.5 -23q-26 1 -34.5 25t-0.5 59l36 147h-68l-84 -111.5t-58.5 -68.5t-43 -35t-39.5 -12q-13 -2 -22.5 0t-16.5 4q-8 3 -13 7v26q13 0 24 10t35 38l82 91q26 30 44.5 43.5t38.5 22.5v3 q-50 4 -83 28t-33 76q0 36 16.5 65t45 49.5t67 31.5t83.5 11q30 0 54 -6t43 -14l63 20h17zM166 330q0 -21 8.5 -35.5t22.5 -24t32.5 -13.5t38.5 -4h52l42 169q-14 11 -33 19t-45 8q-30 0 -52 -9.5t-36.5 -26t-22 -38t-7.5 -45.5z" />
<glyph unicode="&#x451;" horiz-adv-x="460" d="M22 0zM368 91q-39 -47 -90 -76.5t-113 -29.5q-40 0 -67 12.5t-44 34t-24.5 50.5t-7.5 61q0 56 20.5 118t58.5 114t91.5 86t120.5 34q23 0 45.5 -4.5t40 -15t28.5 -28t11 -44.5t-14.5 -57t-50.5 -56t-97.5 -44t-155.5 -22q-2 -17 -3 -33t-1 -30q0 -23 3.5 -44t13.5 -36.5 t27 -24.5t44 -9q36 0 72 17.5t78 59.5zM284 447q-32 0 -57.5 -16t-45 -41.5t-33 -59t-21.5 -67.5q77 8 120 25t64 36t26 37t5 28q0 31 -15 44.5t-43 13.5zM385 670q0 26 20.5 47.5t50.5 21.5q18 0 30.5 -9.5t12.5 -32.5q0 -32 -23 -50t-48 -18q-18 0 -30.5 10t-12.5 31z M208 669q0 27 20.5 48.5t50.5 21.5q18 0 30.5 -9.5t12.5 -32.5q0 -16 -6.5 -28.5t-17 -21.5t-23.5 -13.5t-25 -4.5q-18 0 -30 10t-12 30z" />
<glyph horiz-adv-x="511" d="M521 639q0 -34 -13.5 -67.5t-35.5 -63t-51.5 -54t-60.5 -40.5q47 -17 70 -53t23 -84q0 -60 -21 -113t-55.5 -92.5t-78.5 -62.5t-90 -23q-69 0 -112 51t-43 160q0 48 9.5 108.5t28.5 123t48 122t67.5 106t87.5 75t109 28.5q48 0 83 -29t35 -92zM261 377q-35 0 -57.5 -5.5 t-35.5 -11.5q-20 -91 -20 -166q0 -83 21 -117.5t56 -34.5q28 0 52.5 19.5t42.5 50t28 68t10 73.5q0 60 -24.5 92t-72.5 32zM288 426h9t8 -1q25 13 47 34t38 48t25.5 58.5t9.5 66.5q0 75 -50 75q-30 0 -63 -29t-67 -94q-20 -38 -36 -82t-29 -90q15 5 41.5 9.5t66.5 4.5z" />
<glyph horiz-adv-x="438" d="M9 0zM9 94q0 46 22 74t54.5 46.5t70.5 32.5t70.5 31.5t54.5 42.5t22 66q0 32 -20.5 45.5t-51.5 13.5q-42 0 -73 -28t-63 -86l-31 3l33 122q38 19 74 28.5t80 9.5q61 0 99.5 -25.5t38.5 -82.5q0 -49 -21.5 -79t-54.5 -50.5t-70.5 -34.5t-70.5 -30.5t-54.5 -39t-21.5 -59.5 q0 -28 21.5 -44t59.5 -16q56 0 90.5 28.5t63.5 85.5l32 -3l-35 -122q-74 -38 -166 -38q-32 0 -60 6.5t-48.5 20t-32.5 34t-12 48.5z" />
<glyph horiz-adv-x="505" d="M318 179h-2q-26 -41 -52.5 -76t-52.5 -60.5t-52.5 -39.5t-52.5 -14q-36 0 -62 31t-26 100q0 60 22 126t62.5 121.5t97.5 91.5t128 36q22 0 40 -5t35 -13l59 18h15l-126 -504q-12 -48 -33 -88t-52 -68.5t-71.5 -44t-91.5 -15.5q-34 0 -65.5 9t-61.5 29l25 126l33 3 q10 -57 33.5 -85t71.5 -28q55 0 83.5 37.5t45.5 108.5zM141 63q19 0 43 19.5t50.5 50.5t53.5 69.5l52 76.5l34 132q-17 12 -37.5 21t-43.5 9q-33 0 -60 -15.5t-48 -41t-36 -58t-25 -66t-15 -66.5t-5 -58q0 -73 37 -73z" />
<glyph horiz-adv-x="703" d="M400 662q5 18 2 25.5t-13 7.5q-12 0 -32 -8t-41 -20v35q48 32 81 44t55 12q32 0 38 -20.5t-2 -51.5l-170 -686h-81zM265 223l-219 -238h-82v31l235 239l-96 123q-14 20 -17 47t14 56h114l-11 -26q-26 -10 -33.5 -35.5t6.5 -48.5l94 -130zM407 241l144 130 q26 23 29.5 48.5t-18.5 35.5v26h114q5 -29 -10.5 -56t-38.5 -47l-148 -126l145 -236l-10 -31h-72l-139 238z" />
<glyph horiz-adv-x="415" d="M52 -225q-46 0 -75.5 9t-58.5 29l24 126l27 3q10 -57 31 -87.5t67 -30.5q36 0 64.5 16.5t47.5 43.5t29 62.5t10 73.5q0 39 -8.5 64t-24 39t-37.5 18.5t-48 1.5l-27 -4l6 42l44 6q36 4 63 19.5t45.5 38.5t27.5 52t9 61q0 88 -63 88q-43 0 -73.5 -28t-62.5 -86l-28 3 l38 122q38 19 73.5 28.5t75.5 9.5q67 0 99.5 -36t32.5 -94q0 -69 -46 -122.5t-133 -72.5q25 -2 48 -11t41 -26t28.5 -43.5t10.5 -62.5q0 -56 -20 -102t-55 -79.5t-82 -52t-100 -18.5z" />
<glyph d="M47 0zM403 96q-5 -17 -0.5 -21.5t7.5 -4.5q12 0 32.5 16l42.5 34l11 -31q-49 -57 -85.5 -80.5t-58.5 -23.5q-16 0 -25.5 7.5t-13 19.5t-2.5 27t5 30l37 137h-3q-34 -61 -64 -103t-57 -68.5t-51.5 -38t-47.5 -11.5q-22 0 -38.5 9t-25.5 28.5t-8.5 50.5t11.5 76l63 250 q5 20 -0.5 27t-13.5 7t-26 -6t-45 -22v35q38 29 74 42.5t59 12.5q26 -1 37.5 -16t2.5 -50l-65 -256q-14 -53 -13 -75.5t29 -22.5q29 0 83 59t122 177l43 170h81l-97 -385v0z" />
<glyph d="M47 0zM403 96q-5 -17 -0.5 -21.5t7.5 -4.5q12 0 32.5 16l42.5 34l11 -31q-49 -57 -85.5 -80.5t-58.5 -23.5q-16 0 -25.5 7.5t-13 19.5t-2.5 27t5 30l37 137h-3q-34 -61 -64 -103t-57 -68.5t-51.5 -38t-47.5 -11.5q-22 0 -38.5 9t-25.5 28.5t-8.5 50.5t11.5 76l63 250 q5 20 -0.5 27t-13.5 7t-26 -6t-45 -22v35q38 29 74 42.5t59 12.5q26 -1 37.5 -16t2.5 -50l-65 -256q-14 -53 -13 -75.5t29 -22.5q29 0 83 59t122 177l43 170h81l-97 -385v0zM483 695q-14 -49 -51 -79.5t-108 -30.5q-55 0 -89 27.5t-32 82.5h86q-3 -31 11.5 -49t37.5 -18 q35 0 55 18.5t29 48.5h61z" />
<glyph horiz-adv-x="477" d="M174 662q5 18 2 25.5t-13 7.5q-12 0 -32 -8t-41 -20v35q48 32 81 44t55 12q32 0 38 -20.5t-2 -51.5l-170 -686h-81zM181 241l144 130q26 23 29.5 48.5t-18.5 35.5v26h114q5 -29 -10.5 -56t-38.5 -47l-148 -126l145 -236l-10 -31h-72l-139 238z" />
<glyph horiz-adv-x="516" d="M-8 -18q-22 0 -32 14.5t-10 28.5q0 27 16.5 42t48.5 21q32 5 52.5 27.5t43.5 59.5l189 314h24l61 -406q5 -27 19.5 -39t34.5 -15l-7 -29h-201l7 29q29 0 47 13.5t16 34.5l-40 277l-125 -231q-20 -37 -37 -63.5t-33.5 -44t-34 -25.5t-39.5 -8z" />
<glyph horiz-adv-x="557" d="M36 0zM134 399q5 18 2 25.5t-13 7.5q-12 0 -32 -8t-41 -20v35q48 32 81 44t55 12q32 0 38 -20.5t-2 -51.5l-46 -158h3q35 63 65.5 107t58 71t53 39.5t50.5 12.5q22 0 38.5 -8.5t25.5 -28t8.5 -50.5t-11.5 -76l-56 -222q-5 -20 -4.5 -30t8.5 -10t26 12t49 38l11 -31 q-49 -57 -85.5 -81t-59.5 -23q-26 1 -35 25t0 59l60 239q14 53 12.5 74.5t-29.5 21.5q-29 0 -84 -60.5t-124 -179.5l-39 -164h-81l98 399v0z" />
<glyph horiz-adv-x="815" d="M36 0zM134 399q5 18 2 25.5t-13 7.5q-12 0 -32 -8t-41 -20v35q48 32 81 44t55 12q32 0 38 -20.5t-2 -51.5l-40 -144h2q33 59 62.5 100t56.5 67t51.5 37.5t48.5 11.5q22 0 38 -8.5t24.5 -28t8 -50.5t-11.5 -76l-10 -40q64 111 114.5 157t97.5 46q22 0 38.5 -8.5t25.5 -28 t8.5 -50.5t-11.5 -76l-56 -222q-5 -20 -4.5 -30t8.5 -10t26 12t49 38l11 -31q-49 -57 -85.5 -81t-59.5 -23q-26 1 -35 25t0 59l60 239q14 53 12.5 74.5t-29.5 21.5t-78.5 -53.5t-113.5 -159.5l-48 -191h-80l76 308q14 53 12.5 74.5t-29.5 21.5q-29 0 -82 -57t-119 -171 l-43 -176h-81l98 399v0z" />
<glyph horiz-adv-x="552" d="M313 -178q23 6 32.5 17t13 27t4.5 36t9 44q5 17 14.5 32t25.5 30q-15 -7 -30.5 -12t-29.5 -5q-32 0 -38 23.5t2 54.5l37 137h-3q-34 -61 -64 -103t-57 -68.5t-51.5 -38t-47.5 -11.5q-22 0 -38.5 9t-25.5 28.5t-8.5 50.5t11.5 76l63 250q5 20 -0.5 27t-13.5 7t-26 -6 t-45 -22v35q38 29 74 42.5t59 12.5q26 -1 37.5 -16t2.5 -50l-65 -256q-14 -53 -13 -75.5t29 -22.5q29 0 83 59t122 177l43 170h81l-110 -438h73v-21q-16 -16 -21 -34t-5.5 -37t-1.5 -38.5t-8 -38.5q-9 -23 -34 -44.5t-75 -25.5z" />
<glyph horiz-adv-x="802" d="M338 199q-33 -59 -61 -99.5t-53 -66t-48.5 -37t-45.5 -11.5t-38.5 9t-25.5 28.5t-8.5 50.5t11.5 76l63 250q5 20 -0.5 27t-13.5 7t-26 -6t-45 -22v35q38 29 74 42.5t59 12.5q26 -1 37.5 -16t2.5 -50l-65 -256q-14 -53 -13 -75.5t29 -22.5q29 0 79 59t116 175l44 172h80 l-79 -308q-14 -53 -13 -75.5t29 -22.5q29 0 79 58.5t116 174.5l43 173h81l-97 -385q-5 -17 -0.5 -21.5t7.5 -4.5q12 0 32.5 16l42.5 34l11 -31q-49 -57 -85.5 -80.5t-58.5 -23.5q-16 0 -25.5 7.5t-13 19.5t-2.5 27t5 30l37 137h-2q-33 -61 -62 -103t-54.5 -68.5t-48.5 -38 t-46 -11.5q-22 0 -38.5 9t-25.5 28.5t-8.5 50.5t11.5 76z" />
<glyph horiz-adv-x="798" d="M338 199q-33 -59 -61 -99.5t-53 -66t-48.5 -37t-45.5 -11.5t-38.5 9t-25.5 28.5t-8.5 50.5t11.5 76l63 250q5 20 -0.5 27t-13.5 7t-26 -6t-45 -22v35q38 29 74 42.5t59 12.5q26 -1 37.5 -16t2.5 -50l-65 -256q-14 -53 -13 -75.5t29 -22.5q29 0 79 59t116 175l44 172h80 l-79 -308q-14 -53 -13 -75.5t29 -22.5q29 0 79 58.5t116 174.5l43 173h81l-110 -438h73v-21q-16 -16 -21 -34t-5.5 -37t-1.5 -38.5t-8 -38.5q-9 -23 -34 -44.5t-75 -25.5l-5 18q23 6 32.5 17t13 27t4.5 36t9 44q5 17 14.5 32t25.5 30q-15 -7 -30.5 -12t-29.5 -5 q-32 0 -38 23.5t2 54.5l37 137h-2q-33 -61 -62 -103t-54.5 -68.5t-48.5 -38t-46 -11.5q-22 0 -38.5 9t-25.5 28.5t-8.5 50.5t11.5 76z" />
<glyph horiz-adv-x="519" d="M393 446q-66 -38 -114 -92t-74 -115q28 28 68 46.5t80 18.5q52 0 78.5 -27t26.5 -77q0 -46 -21.5 -85.5t-54.5 -68t-73.5 -45t-78.5 -16.5q-65 0 -96.5 35t-31.5 91q0 42 12.5 82t35 77.5t52 71.5t64.5 64q-24 -4 -45 -4.5t-39 1t-35 3.5t-34 2q-15 0 -27.5 -9t-26.5 -44 l-25 8q14 39 25 64.5t22 40.5t24.5 21t31.5 6q26 0 45.5 -5.5t40.5 -12.5t46.5 -12.5t64.5 -6.5q10 6 19 12t19 11h21v-35zM249 32q21 0 42.5 10t38 28.5t27 46t10.5 62.5q0 37 -17 53t-41 16q-19 0 -38 -8t-35.5 -20t-30 -26.5t-21.5 -27.5q-2 -11 -3 -23t-1 -23 q0 -47 19 -67.5t50 -20.5z" />
<glyph horiz-adv-x="471" d="M176 256q26 25 58 41.5t78 16.5q52 0 78.5 -27t26.5 -77q0 -48 -21.5 -89t-55.5 -71.5t-74.5 -47.5t-78.5 -17q-39 0 -65.5 13t-40.5 36t-16 54.5t7 68.5l61 242q5 20 -0.5 27t-13.5 7t-26 -6t-45 -22v35q38 29 74 42.5t59 12.5q26 -1 37.5 -16t2.5 -50zM206 32 q21 0 42.5 10t39 30t28 49t10.5 68q0 37 -17 53t-41 16q-31 0 -59.5 -20.5t-48.5 -44.5l-12 -48q-14 -54 2 -83.5t56 -29.5z" />
<glyph horiz-adv-x="715" d="M668 325q0 -57 -20.5 -117t-58 -109.5t-89.5 -81.5t-116 -32q-78 0 -115.5 47.5t-37.5 126.5q0 14 1 29t4 30h-90l-54 -218h-81l163 662q5 18 2 25.5t-13 7.5q-12 0 -32 -8t-41 -20v35q48 32 81 44t55 12q32 0 38 -20.5t-2 -51.5l-104 -420h89q14 46 38.5 87.5t58.5 73 t76.5 50t91.5 18.5q75 0 115.5 -45.5t40.5 -124.5zM401 34q38 0 69.5 29t54 73.5t35 97.5t12.5 100q0 23 -3.5 43t-12 35t-23.5 24t-38 9q-41 0 -72 -27t-52 -69.5t-32 -94t-11 -99.5q0 -24 3 -46t11.5 -38.5t22.5 -26.5t36 -10z" />
<glyph horiz-adv-x="292" d="M43 0zM138 90q-3 -20 8 -20q8 0 26 12t49 38l11 -31q-49 -57 -85.5 -81t-59.5 -23q-26 1 -35 25t0 59l81 330q5 18 2 25.5t-13 7.5q-12 0 -32 -8t-41 -20v35q48 32 81 44t55 12q32 0 38 -20.5t-2 -51.5l-83 -333v0zM106 694h232l-15 -60h-232z" />
<glyph horiz-adv-x="510" d="M463 325q0 -57 -20.5 -117t-58 -109.5t-89.5 -81.5t-116 -32q-78 0 -115.5 47.5t-37.5 126.5q0 60 20 118t56.5 104.5t87 75t110.5 28.5q23 0 39.5 -9t24.5 -14q-39 35 -75 53.5t-63.5 34.5t-44 35.5t-16.5 56.5q0 42 34.5 72t101.5 30h118q24 0 38 3t23 8t15 12t12 16 h31l-34 -110h-201q-33 0 -48.5 -11.5t-15.5 -31.5q0 -19 16.5 -34t41.5 -31l54 -35t54 -47t41.5 -66t16.5 -92zM196 34q38 0 69.5 27.5t54 70t35 94t12.5 98.5q0 23 -3.5 43t-12 35t-23.5 24t-38 9q-41 0 -72 -25.5t-52 -66t-32 -90.5t-11 -98q0 -24 3 -46t11.5 -38.5 t22.5 -26.5t36 -10zM364 462q2 -2 3 -2z" />
<glyph horiz-adv-x="505" d="M0 0zM318 179h-2q-26 -41 -52.5 -76t-52.5 -60.5t-52.5 -39.5t-52.5 -14q-36 0 -62 31t-26 100q0 60 22 126t62.5 121.5t97.5 91.5t128 36q22 0 40 -5t35 -13l59 18h15l-126 -504q-12 -48 -33 -88t-52 -68.5t-71.5 -44t-91.5 -15.5q-34 0 -65.5 9t-61.5 29l25 126l33 3 q10 -57 33.5 -85t71.5 -28q55 0 83.5 37.5t45.5 108.5zM141 63q19 0 43 19.5t50.5 50.5t53.5 69.5l52 76.5l34 132q-17 12 -37.5 21t-43.5 9q-33 0 -60 -15.5t-48 -41t-36 -58t-25 -66t-15 -66.5t-5 -58q0 -73 37 -73z" />
<glyph d="M47 0zM403 96q-5 -17 -0.5 -21.5t7.5 -4.5q12 0 32.5 16l42.5 34l11 -31q-49 -57 -85.5 -80.5t-58.5 -23.5q-16 0 -25.5 7.5t-13 19.5t-2.5 27t5 30l37 137h-3q-34 -61 -64 -103t-57 -68.5t-51.5 -38t-47.5 -11.5q-22 0 -38.5 9t-25.5 28.5t-8.5 50.5t11.5 76l63 250 q5 20 -0.5 27t-13.5 7t-26 -6t-45 -22v35q38 29 74 42.5t59 12.5q26 -1 37.5 -16t2.5 -50l-65 -256q-14 -53 -13 -75.5t29 -22.5q29 0 83 59t122 177l43 170h81l-97 -385v0zM248 694h232l-15 -60h-232z" />
<glyph horiz-adv-x="802" d="M281 674h372l-15 -60h-372zM338 199q-33 -59 -61 -99.5t-53 -66t-48.5 -37t-45.5 -11.5t-38.5 9t-25.5 28.5t-8.5 50.5t11.5 76l63 250q5 20 -0.5 27t-13.5 7t-26 -6t-45 -22v35q38 29 74 42.5t59 12.5q26 -1 37.5 -16t2.5 -50l-65 -256q-14 -53 -13 -75.5t29 -22.5 q29 0 79 59t116 175l44 172h80l-79 -308q-14 -53 -13 -75.5t29 -22.5q29 0 79 58.5t116 174.5l43 173h81l-97 -385q-5 -17 -0.5 -21.5t7.5 -4.5q12 0 32.5 16l42.5 34l11 -31q-49 -57 -85.5 -80.5t-58.5 -23.5q-16 0 -25.5 7.5t-13 19.5t-2.5 27t5 30l37 137h-2 q-33 -61 -62 -103t-54.5 -68.5t-48.5 -38t-46 -11.5q-22 0 -38.5 9t-25.5 28.5t-8.5 50.5t11.5 76z" />
<glyph unicode="&#xb4;" horiz-adv-x="427" d="M434 738l-193 -159h-32l-2 10l128 160h98z" />
<glyph unicode="`" horiz-adv-x="427" d="M238 749h98l88 -160l-2 -10h-32l-153 159z" />
<glyph unicode="&#x2c6;" horiz-adv-x="502" d="M335 749h42l78 -160l-6 -10h-32l-79 97l-117 -97h-32l-2 10z" />
<glyph unicode="&#xa8;" horiz-adv-x="477" d="M361 670q0 26 20.5 47.5t50.5 21.5q18 0 30.5 -9.5t12.5 -32.5q0 -32 -23 -50t-48 -18q-18 0 -30.5 10t-12.5 31zM184 669q0 27 20.5 48.5t50.5 21.5q18 0 30.5 -9.5t12.5 -32.5q0 -16 -6.5 -28.5t-17 -21.5t-23.5 -13.5t-25 -4.5q-18 0 -30 10t-12 30z" />
<glyph unicode="&#x2dc;" horiz-adv-x="467" d="M464 720q-6 -21 -15.5 -40t-24 -34t-34.5 -23.5t-45 -8.5q-24 0 -41.5 7.5t-31 16.5l-25 16.5t-23.5 7.5q-18 0 -30.5 -14.5t-23.5 -37.5h-31q13 45 41.5 75.5t73.5 30.5q21 0 36.5 -7.5t28 -16.5t24 -16.5t23.5 -7.5q21 0 38 13t28 39h32z" />
<glyph unicode="&#xaf;" horiz-adv-x="316" d="M128 694h232l-15 -60h-232z" />
<glyph unicode="&#xb8;" horiz-adv-x="504" d="M326 -126q0 -26 -13.5 -45t-34.5 -31t-47 -18t-51 -6q-17 0 -35.5 2.5t-35.5 7.5l14 54q18 -7 36.5 -11t35.5 -4q23 0 39.5 9t16.5 26q0 10 -6.5 16t-17 9t-23 3.5t-25.5 0.5l30 121h48l-16 -66q34 -3 59.5 -21t25.5 -47z" />
<glyph horiz-adv-x="372" d="M401 832l-201 -99h-32l-1 10l130 100h102z" />
<glyph horiz-adv-x="428" d="M304 849h42l88 -110l-6 -10h-32l-84 67l-112 -67h-32l-2 10z" />
<glyph horiz-adv-x="433" d="M344 779q0 26 20 45.5t49 19.5q17 0 28.5 -9t11.5 -30q0 -15 -6.5 -27.5t-16 -20.5t-21.5 -12.5t-24 -4.5q-17 0 -29 9.5t-12 29.5zM176 778q0 26 19.5 46t48.5 20q17 0 29 -9t12 -30q0 -30 -22.5 -47.5t-46.5 -17.5q-17 0 -28.5 9t-11.5 29z" />
<glyph horiz-adv-x="372" d="M169 843h102l130 -100l-1 -10h-32l-201 99z" />
<glyph horiz-adv-x="470" d="M459 847q-6 -21 -15.5 -40t-24 -34t-34.5 -23.5t-45 -8.5q-24 0 -41.5 7.5t-31 16.5l-25 16.5t-23.5 7.5q-18 0 -30.5 -14.5t-23.5 -37.5h-31q13 45 41.5 75.5t73.5 30.5q21 0 36.5 -7.5t28 -16.5t24 -16.5t23.5 -7.5q21 0 38 13t28 39h32z" />
<glyph d="M520 836q-14 -49 -51 -74.5t-108 -25.5q-27 0 -50 5.5t-39 17.5t-24.5 31t-7.5 46h86q-3 -31 11.5 -44t37.5 -13q35 0 55 13.5t29 43.5h61z" />
<glyph d="M483 695q-14 -49 -51 -79.5t-108 -30.5q-55 0 -89 27.5t-32 82.5h86q-3 -31 11.5 -49t37.5 -18q35 0 55 18.5t29 48.5h61z" />
<glyph unicode="&#x2122;" horiz-adv-x="1106" d="M1079 758v-36q-7 -1 -20 -1.5t-18 -2.5q-18 -6 -18 -33v-205q0 -15 4.5 -22.5t13.5 -10.5q5 -2 16 -2.5t22 -1.5v-36h-179v36q7 1 20 1.5t19 2.5q17 6 17 33v195l-124 -205h-21l-123 208v-176q0 -35 20 -48q8 -5 19 -8t23 -5v-34h-173v34l20 3.5t17 6.5q11 6 18 18.5 t7 32.5v183q0 15 -4 22.5t-14 10.5q-4 2 -15.5 2.5t-22.5 1.5v36h133l116 -202l124 202h123zM391 716v-236q0 -28 17 -33q7 -2 15.5 -2.5t22.5 -1.5v-36h-178v36q9 1 19.5 1.5t17.5 2.5q17 5 17 33v236h-22q-21 0 -36 -3t-25.5 -11.5t-18.5 -23t-14 -38.5h-33v118h367v-118 h-33q-6 24 -13.5 38.5t-18.5 23t-26 11.5t-36 3h-22z" />
<glyph unicode="&#xae;" horiz-adv-x="629" d="M366 242q-52 0 -98 17t-80.5 49.5t-55 80.5t-20.5 111t20.5 111t55 80.5t80.5 49.5t98 17t98 -17t80.5 -49.5t55 -80.5t20.5 -111t-20.5 -111t-55 -80.5t-80.5 -49.5t-98 -17zM366 283q44 0 82 14.5t65.5 42.5t43.5 68.5t16 91.5t-16 91.5t-43.5 68.5t-65.5 42.5 t-82 14.5t-82 -14.5t-66 -42.5t-43.5 -68.5t-15.5 -91.5t15.5 -91.5t43.5 -68.5t66 -42.5t82 -14.5zM282 597q0 15 -11 18q-4 1 -8.5 1t-12.5 1v21h134q34 0 56 -17.5t22 -50.5q0 -28 -17 -47.5t-43 -25.5l48 -64q11 -14 21.5 -20t25.5 -8v-20h-71l-76 109h-21v-68 q0 -15 9 -18l27 -2v-21h-115v21q11 0 21 2q11 3 11 18v171zM329 610v-87h27q26 0 39 9t13 36q0 23 -12 32.5t-34 9.5h-33z" />
<glyph unicode="&#xa9;" horiz-adv-x="673" d="M249 -9q-44 0 -82 13t-65.5 38.5t-43 64t-15.5 89.5q0 66 26.5 132t74 118.5t112.5 85.5t142 33q44 0 82 -12t65.5 -38t43 -66t15.5 -96q0 -81 -31.5 -147.5t-82.5 -114t-114.5 -74t-126.5 -26.5zM261 28q64 0 119 28t95 73t62.5 103t22.5 118q0 88 -46 133t-126 45 q-65 0 -120 -28t-95.5 -73.5t-63 -103.5t-22.5 -118q0 -46 13 -79.5t36.5 -55t55 -32t69.5 -10.5zM392 149q-29 -20 -60.5 -27.5t-57.5 -7.5q-100 0 -100 105q0 47 18.5 88.5t48 72t66 48.5t73.5 18q15 0 30 -3t26.5 -9.5t19 -15.5t7.5 -21q0 -19 -15 -30.5t-28 -11.5 q-11 0 -16.5 6.5t-12 15t-16.5 15t-28 6.5q-24 0 -43.5 -12.5t-34 -33.5t-22.5 -49.5t-8 -61.5q0 -16 2.5 -30t10.5 -24t21.5 -15.5t36.5 -5.5q37 0 89 16z" />
<glyph unicode="&#x20ac;" horiz-adv-x="646" d="M92 461h77q28 55 68 100.5t86 78.5t97 51t102 18q27 0 53 -5.5t47 -16t33.5 -26.5t12.5 -38q0 -28 -18.5 -42.5t-40.5 -14.5q-23 0 -33 14.5t-19.5 32t-26.5 32t-54 14.5q-36 0 -68 -16t-59 -43t-49 -63t-38 -76h203l-12 -50h-209q-18 -54 -27 -109h209l-13 -50h-202 q-2 -11 -2 -22v-21q0 -85 31.5 -129.5t88.5 -44.5q34 0 56.5 14t40 31t35 31t41.5 14q15 0 26.5 -7.5t11.5 -27.5q0 -26 -19.5 -45.5t-49.5 -32.5t-67 -20t-71 -7q-109 0 -165 65.5t-56 182.5v19h-72l13 50h64q4 29 11 56t18 53h-66z" />
<glyph unicode="$" horiz-adv-x="546" d="M428 827l-30 -119q33 -1 63 -7t53 -17t37 -26t14 -33q0 -10 -4.5 -21.5t-12.5 -21t-20 -15.5t-27 -6q-23 0 -33.5 12.5t-19.5 28.5t-22.5 32t-40.5 22l-65 -260l33 -14q27 -12 50.5 -26t41 -33.5t28 -45t10.5 -59.5q0 -50 -22 -90.5t-58.5 -70t-84.5 -47.5t-100 -23 l-36 -146h-53l36 145q-31 1 -61 8t-54 19t-38.5 28t-14.5 36q0 26 21 43.5t44 17.5q18 0 29 -12t22 -28t25.5 -32t40.5 -24l67 270l-35 16q-52 23 -78.5 59t-26.5 92q0 48 19 87t51 68t75.5 47t92.5 24l31 122h53zM380 184q0 40 -20.5 64t-65.5 44l-63 -256q30 2 57.5 13.5 t47.5 30.5t32 45.5t12 58.5zM199 518q0 -34 16 -57.5t57 -43.5l61 241q-26 -3 -50.5 -13.5t-43 -28.5t-29.5 -42.5t-11 -55.5z" />
<glyph unicode="&#xa2;" horiz-adv-x="456" d="M386 370q-22 0 -31 12t-16 26q-5 9 -11.5 18t-17.5 14l-98 -394q34 1 64.5 19t71.5 58l14 -33q-35 -42 -74.5 -69.5t-90.5 -34.5l-36 -145h-52l36 144q-33 4 -55 17.5t-35.5 34.5t-19 48.5t-5.5 57.5q0 53 17 110t48 106t75.5 84.5t100.5 46.5l31 125h52l-30 -121 q45 -2 77 -21t32 -51q0 -18 -9.5 -35t-37.5 -17zM124 160q0 -35 7 -63t31 -42l97 388q-35 -9 -60.5 -39.5t-42 -72t-24.5 -87t-8 -84.5z" />
<glyph unicode="&#xa3;" horiz-adv-x="600" d="M78 361h87l12 49q35 140 111.5 219.5t190.5 79.5q65 0 104 -22.5t39 -61.5q0 -29 -19.5 -45t-45.5 -14q-17 1 -25.5 8.5t-13 18.5t-7.5 23.5t-9.5 23t-19 17.5t-36.5 7q-30 0 -55 -13.5t-46.5 -47.5t-42 -91.5t-42.5 -144.5l-2 -6h192l-12 -50h-194q-14 -39 -43.5 -92.5 t-91.5 -122.5h385l1 -10l-52 -86h-455l2 35q42 38 70 74t46.5 70t29 67t18.5 65h-88z" />
<glyph unicode="&#xa5;" horiz-adv-x="697" d="M109 349h206l-13 -50h-206zM74 210h494l-13 -50h-494zM393 349h210l-13 -50h-210zM307 604q0 -7 1 -14.5t4 -17.5l65 -227l191 237q18 22 18 37q0 10 -7 16t-18 9.5t-24.5 5t-26.5 2.5l10 41h241l-9 -35q-30 -3 -57 -19.5t-52 -42.5l-254 -305l-47 -194q-6 -23 -2.5 -34 t16.5 -16q6 -2 23.5 -3t34.5 -3l-11 -41h-266l11 41q5 0 13.5 0.5t17.5 1.5t16.5 1.5t12.5 2.5q17 5 25.5 16.5t14.5 33.5l49 202l-96 297q-10 26 -25.5 38.5t-46.5 17.5l10 41h276l-10 -41q-47 -4 -72.5 -11t-25.5 -37z" />
<glyph unicode="&#xa4;" horiz-adv-x="517" d="M410 111l-50 -42l-65 90q-17 -10 -36 -15.5t-37 -5.5q-36 0 -62 21l-111 -91l-28 44l108 91q-5 18 -5 37q0 30 11 55.5t29 47.5l-62 93l52 42l63 -91q14 9 35.5 15t38.5 6q16 0 33 -6t27 -14l109 90l31 -42l-109 -93q3 -9 4.5 -19.5t1.5 -19.5q0 -29 -12.5 -56t-28.5 -45 zM333 289q0 33 -20 49t-43 16q-18 0 -34.5 -8.5t-29.5 -22.5t-20.5 -32.5t-7.5 -38.5q0 -26 17 -43t43 -17q19 0 36 8.5t30 22.5t21 31t8 35z" />
<glyph unicode="B" horiz-adv-x="632" d="M-8 41q5 0 13.5 0.5t17.5 1.5t16.5 1.5t12.5 2.5q17 5 25.5 17.5t14.5 32.5l124 499q11 43 -15 50q-4 1 -11 2t-15.5 1.5t-16.5 1.5t-14 1l10 41h283q78 0 122 -27.5t44 -91.5q0 -39 -16.5 -73t-45 -61t-66 -45.5t-79.5 -26.5l-1 -3q90 -2 128.5 -36.5t38.5 -92.5 q0 -51 -24.5 -94.5t-65 -75t-92 -49t-104.5 -17.5h-295zM459 222q0 51 -32.5 81t-108.5 30h-74l-71 -283h87q39 0 74.5 12t63.5 34.5t44.5 54.5t16.5 71zM321 643l-65 -260h56q37 0 69.5 13t57 35.5t39 54t14.5 67.5q0 48 -25.5 69t-73.5 21h-72z" />
<glyph unicode="A" horiz-adv-x="682" d="M431 240h-229l-90 -143q-11 -18 -7 -31t23 -18q7 -2 23 -3.5t33 -3.5l-11 -41h-232l11 41q11 1 24.5 4.5t22.5 6.5q17 5 28.5 15.5t23.5 29.5l386 609h43l57 -609q2 -20 8 -30t20 -15q8 -3 20.5 -6.5t23.5 -4.5l-11 -41h-266l11 41q17 2 33.5 3.5t24.5 3.5q16 3 29.5 15 t12.5 34zM235 293h192l-21 271z" />
<glyph horiz-adv-x="682" d="M0 0z" />
</font>
</defs>
</svg>
