<?xml version="1.0" standalone="no"?>
<!DOCTYPE svg PUBLIC "-//W3C//DTD SVG 1.1//EN" "http://www.w3.org/Graphics/SVG/1.1/DTD/svg11.dtd" >
<svg xmlns="http://www.w3.org/2000/svg">
<metadata>
This is a custom SVG webfont generated by Typotheque.
</metadata>
<defs>
<font id="typotheque_webfonts_service" horiz-adv-x="577" >
<font-face units-per-em="1000" ascent="744" descent="-256" />
<missing-glyph horiz-adv-x="257" />
<glyph unicode=" "  horiz-adv-x="257" />
<glyph unicode="&#x09;" horiz-adv-x="257" />
<glyph unicode="&#xa0;" horiz-adv-x="257" />
<glyph unicode="C" horiz-adv-x="681" d="M401 659q-58 0 -97.5 -25t-63.5 -67.5t-34.5 -98.5t-10.5 -118q0 -71 11 -129t36 -99t63.5 -64t94.5 -23q39 0 69 14.5t52.5 39.5t38 56.5t24.5 66.5h39v-156q-42 -34 -100.5 -52.5t-124.5 -18.5q-78 0 -142.5 26t-110.5 73.5t-71 112.5t-25 143q0 82 27 150t75 116.5 t114 75.5t144 27q58 0 112.5 -14t101.5 -40v-182h-39q-12 43 -28 77.5t-38 58.5t-51 37t-66 13z" />
<glyph unicode="D" horiz-adv-x="760" d="M257 642v-591h85q66 0 109 24.5t67.5 65.5t34.5 94.5t10 111.5q0 63 -11.5 117t-37.5 93.5t-67 62t-101 22.5h-89zM48 40q13 1 27.5 2t23.5 5q26 9 26 49v501q0 40 -26 49q-9 3 -21 4t-30 3v40h318q78 0 141.5 -22.5t108 -65.5t69 -105.5t24.5 -142.5q0 -83 -26 -149 t-73 -112t-112 -71t-143 -25h-307v40z" />
<glyph unicode="E" horiz-adv-x="638" d="M48 40l28 2.5t25 5.5q14 5 19 17.5t5 34.5v493q0 23 -5.5 35t-19.5 17q-7 3 -21 4.5t-31 3.5v40h512v-170h-38q-9 36 -21.5 59t-30 36.5t-41 18.5t-56.5 5h-116v-260h92q42 0 52 26q4 8 6 25.5l4 35.5h42v-225h-42q-2 12 -3.5 31t-6.5 28q-10 28 -52 28h-92v-280h132 q37 0 62.5 8.5t44.5 27t33.5 48.5t28.5 73l34 -4l-15 -204h-529v40z" />
<glyph unicode="F" horiz-adv-x="589" d="M257 642v-277h96q22 0 34 6t18 20q4 8 5.5 25.5t3.5 35.5h43v-225h-43l-2.5 31t-6.5 29q-10 27 -52 27h-96v-216q0 -22 6.5 -33.5t20.5 -16.5q8 -3 24 -4.5t33 -3.5v-40h-293v40q10 1 26.5 2t24.5 5q26 8 26 49v497q0 23 -5.5 35t-19.5 17q-7 3 -21 4.5t-31 3.5v40h512 v-170h-38q-9 36 -21.5 59t-30 36.5t-41 18.5t-56.5 5h-116z" />
<glyph unicode="G" horiz-adv-x="735" d="M645 48q-19 -13 -46.5 -24.5t-59.5 -20.5t-68 -13.5t-73 -4.5q-78 1 -142.5 25.5t-110.5 70t-71 110t-25 146.5q0 84 28 152.5t77.5 117.5t117.5 75.5t147 26.5q28 0 58.5 -3.5t60 -10.5t57 -17t50.5 -23v-179h-36q-23 84 -70.5 134t-129.5 50q-60 0 -100.5 -25t-66 -68 t-36.5 -99t-11 -118q0 -71 11.5 -129t37 -99.5t66 -64.5t98.5 -23q26 0 52.5 7t52.5 20v169q0 40 -26 49q-8 3 -25 4t-33 3v40h272v-40q-20 -2 -34 -10q-22 -11 -22 -46v-182v0z" />
<glyph unicode="H" horiz-adv-x="820" d="M563 597q0 21 -6.5 32.5t-19.5 16.5q-7 3 -22 4t-30 3v40h287v-40q-10 -1 -26.5 -2t-24.5 -5q-26 -8 -26 -49v-501q0 -21 6 -32.5t20 -16.5q7 -3 21.5 -4t29.5 -3v-40h-287v40q11 1 27.5 2t24.5 5q26 9 26 49v239h-306v-239q0 -21 6.5 -32.5t20.5 -16.5q7 -3 21.5 -4 t29.5 -3v-40h-287v40q10 1 26.5 2t24.5 5q26 8 26 49v501q0 21 -6 32.5t-20 16.5q-7 3 -21.5 4t-29.5 3v40h287v-40q-11 -1 -27.5 -2t-24.5 -5q-26 -9 -26 -49v-210h306v210v0z" />
<glyph unicode="I" horiz-adv-x="383" d="M257 96q0 -21 6.5 -32.5t20.5 -16.5q7 -3 21.5 -4t29.5 -3v-40h-287v40q10 1 26.5 2t24.5 5q26 8 26 49v501q0 21 -6 32.5t-20 16.5q-7 3 -21.5 4t-29.5 3v40h287v-40q-11 -1 -27.5 -2t-24.5 -5q-26 -9 -26 -49v-501z" />
<glyph unicode="J" horiz-adv-x="368" d="M250 43q0 -48 -14.5 -96t-44 -86t-73.5 -62t-103 -24q-53 0 -80.5 19.5t-27.5 48.5q0 23 13.5 40t39.5 17q23 0 33.5 -12t17 -26.5t14 -26.5t25.5 -12q22 0 35 17t20.5 50t10 80t2.5 107v520q0 21 -6 32.5t-20 16.5q-7 3 -21.5 4t-29.5 3v40h287v-40q-11 -1 -27.5 -2 t-24.5 -5q-26 -8 -26 -49v-554v0z" />
<glyph unicode="K" horiz-adv-x="710" d="M257 96q0 -40 27 -49q7 -3 21.5 -4t29.5 -3v-40h-287v40q10 1 26.5 2t24.5 5q26 8 26 49v501q0 40 -26 49q-7 3 -21.5 4t-29.5 3v40h287v-40q-11 -1 -27.5 -2t-24.5 -5q-26 -9 -26 -49v-501zM289 340l180 214q30 35 30 57q0 17 -14.5 28t-48.5 14v40h261v-40 q-38 -4 -71 -22.5t-64 -53.5l-163 -188l185 -269q23 -35 51 -55t67 -25l-3 -40h-188l-222 333v7z" />
<glyph unicode="L" horiz-adv-x="587" d="M48 40l28.5 2.5t25.5 5.5q23 11 23 52v497q0 21 -6 32.5t-20 16.5q-7 3 -21.5 4t-29.5 3v40h287v-40q-11 -1 -27.5 -2t-24.5 -5q-26 -9 -26 -49v-546h91q39 0 66 9.5t47 29.5t35 51t29 74l35 -4l-14 -211h-498v40z" />
<glyph unicode="M" horiz-adv-x="932" d="M807 96q0 -21 6 -32.5t20 -16.5q7 -3 21.5 -4t29.5 -3v-40h-287v40q11 1 27.5 2t24.5 5q26 9 26 49v467l-219 -424h-38l-219 422v-429q0 -29 8.5 -46.5t23.5 -27.5q25 -16 64 -21v-37h-258v37q16 2 30 6t27 11q17 9 28 27.5t11 50.5v448q0 24 -5.5 37.5t-19.5 21.5 q-8 6 -25.5 9t-36.5 5v40h217l206 -398l209 398h206v-40q-10 -1 -26.5 -2t-24.5 -5q-26 -8 -26 -49v-501z" />
<glyph unicode="N" horiz-adv-x="805" d="M607 -4l-407 547v-411q0 -29 8.5 -46.5t23.5 -27.5q25 -16 64 -21v-37h-257v37q16 2 30 6t27 11q17 9 28 27.5t11 50.5v408q0 52 -21.5 81t-69.5 36v36h199l371 -485v353q0 29 -8.5 46.5t-23.5 27.5q-25 16 -64 21v37h258v-37q-16 -2 -30 -6t-27 -11q-17 -9 -28 -27.5 t-11 -50.5v-565h-73z" />
<glyph unicode="O" horiz-adv-x="800" d="M751 352q0 -78 -26.5 -145t-73.5 -116.5t-113 -77.5t-145 -28q-75 0 -138 25.5t-108.5 72t-71.5 112t-26 146.5q0 82 27 150t74.5 116.5t112.5 75t141 26.5q77 0 141 -27t109.5 -74.5t71 -113t25.5 -142.5zM605 347q0 65 -10 122t-34 99.5t-63.5 67t-99.5 24.5t-99 -25 t-62.5 -68t-32.5 -99.5t-9 -119.5q0 -71 10.5 -128.5t34 -98t62 -63t94.5 -22.5q63 0 103.5 27t64 70.5t32.5 99.5t9 114z" />
<glyph unicode="P" horiz-adv-x="627" d="M257 287v-191q0 -40 27 -49q11 -3 25.5 -4t32.5 -3v-40h-294v40q13 1 27.5 2t23.5 5q26 9 26 49v501q0 40 -26 49q-9 3 -21 4t-30 3v40h332q45 0 85.5 -12t71 -36t48 -59.5t17.5 -82.5q0 -48 -18.5 -88t-50.5 -68.5t-75 -44t-92 -15.5h-109zM257 642v-303h67 q70 0 102.5 42.5t32.5 111.5q0 66 -30.5 107.5t-88.5 41.5h-83z" />
<glyph unicode="Q" horiz-adv-x="800" d="M751 352q0 -78 -26.5 -145t-73.5 -116.5t-113 -77.5q-29 -12 -60 -19q14 -39 30 -66q22 -37 45 -57t47 -26.5t49 -6.5q13 0 29 1.5t29 3.5v-41q-38 -11 -77.5 -19t-79.5 -8q-48 0 -80.5 14.5t-56.5 44.5t-43 76q-14 35 -29 78q-46 6 -86 22q-63 26 -108.5 72.5t-71.5 112 t-26 146.5q0 82 27 150t74.5 116.5t112.5 75t141 26.5q77 0 141 -27t109.5 -74.5t71 -113t25.5 -142.5zM605 347q0 65 -10 122t-34 99.5t-63.5 67t-99.5 24.5t-99 -25t-62.5 -68t-32.5 -99.5t-9 -119.5q0 -71 10.5 -128.5t34 -98t62 -63t94.5 -22.5q63 0 103.5 27t64 70.5 t32.5 99.5t9 114z" />
<glyph unicode="R" horiz-adv-x="707" d="M602 519q0 -36 -12 -66.5t-33 -54.5t-49.5 -41t-61.5 -27l155 -213q29 -40 55.5 -56.5t64.5 -20.5l-3 -40h-191l-219 317h-51v-221q0 -40 27 -49q11 -3 25.5 -4t32.5 -3v-40h-294v40q13 1 27.5 2t23.5 5q26 9 26 49v501q0 40 -26 49q-9 3 -21 4t-30 3v40h332 q45 0 85.5 -9.5t71 -30.5t48 -54t17.5 -80zM257 642v-273h67q70 0 102.5 34.5t32.5 106.5q0 62 -30.5 97t-88.5 35h-83z" />
<glyph unicode="S" horiz-adv-x="600" d="M279 -15q-52 0 -109.5 13t-108.5 42v180h32q32 -100 83.5 -140.5t119.5 -40.5q67 0 99.5 30.5t32.5 79.5q0 48 -31.5 80t-84.5 51l-77 29q-36 13 -67 29.5t-54 38.5t-36 51.5t-13 68.5q0 42 16 80t48 67.5t79.5 46.5t111.5 17q52 0 102.5 -13t101.5 -42v-179h-40 q-25 96 -66 140t-110 44q-63 0 -96 -30.5t-33 -81.5q0 -25 8 -43.5t22.5 -32.5t33.5 -24t40 -18l79 -29q47 -17 82 -36.5t58 -42.5t34.5 -51.5t11.5 -64.5q0 -49 -20 -89.5t-56 -69t-85.5 -44.5t-107.5 -16z" />
<glyph unicode="T" horiz-adv-x="651" d="M391 644v-548q0 -40 26 -49q10 -3 21.5 -4t30.5 -3v-40h-288v40l28.5 2t23.5 5q26 9 26 49v548h-41q-34 0 -59 -7t-43 -23t-31 -41t-22 -61h-36v181h596v-181h-36q-9 36 -22 61t-31 41t-42.5 23t-58.5 7h-42z" />
<glyph unicode="U" horiz-adv-x="765" d="M243 239q0 -95 39.5 -145t129.5 -50q46 0 79 14.5t54 40.5t30.5 62t9.5 79v329q-2 26 -10 41.5t-22 24.5q-25 16 -64 21v37h257v-37q-15 -2 -29.5 -6t-27.5 -11q-17 -9 -27.5 -26t-11.5 -46v-325q0 -57 -17.5 -104t-51 -81t-84 -52.5t-116.5 -18.5q-58 0 -107.5 14.5 t-85.5 44.5t-56.5 76t-20.5 109v367q0 40 -26 49q-10 3 -24 4.5t-27 2.5v40h287v-40q-19 -2 -30.5 -2.5t-21.5 -4.5q-25 -9 -26 -43v-364z" />
<glyph unicode="V" horiz-adv-x="691" d="M221 603q0 -8 3 -18l149 -427l169 421q6 15 6 26q0 13 -8 22t-20 14t-27.5 7.5t-30.5 4.5v40h232v-37q-31 -5 -52.5 -20.5t-35.5 -50.5l-242 -597h-48l-228 609q-11 31 -32.5 42t-49.5 14v40h293v-40q-13 -2 -26.5 -4.5t-25 -8t-19 -14.5t-7.5 -23z" />
<glyph unicode="W" horiz-adv-x="1041" d="M595 693l158 -522l133 395q6 19 6 33q1 28 -21.5 40t-60.5 14v40h231v-37q-31 -5 -53 -21.5t-38 -62.5l-205 -583h-50l-175 540l-186 -540h-51l-187 594q-13 42 -35.5 55t-50.5 15v40h294v-40q-38 -2 -58.5 -13.5t-20.5 -36.5q0 -10 3 -22l114 -406l174 518h79z" />
<glyph unicode="X" horiz-adv-x="675" d="M14 693h301v-41q-27 -2 -45 -11t-18 -27q0 -12 10 -29l101 -157l109 149q14 20 14 35q0 19 -18.5 28.5t-46.5 11.5v41h238v-41q-29 -4 -58.5 -21t-53.5 -48l-152 -205l182 -281q17 -26 35.5 -38.5t47.5 -17.5v-41h-304v41q39 3 61.5 14.5t22.5 31.5q0 14 -12 32l-109 169 l-118 -164q-14 -20 -14 -36q0 -18 15.5 -30.5t45.5 -16.5v-41h-238v41q38 8 67 29t49 46l161 222l-166 258q-19 29 -50.5 41.5t-56.5 14.5v41z" />
<glyph unicode="Y" horiz-adv-x="657" d="M232 601q0 -17 10 -33l119 -223l121 220q11 22 11 37q0 25 -22 37t-56 13v41h242v-36q-29 -3 -53.5 -19t-45.5 -52l-164 -284v-206q0 -21 6 -32.5t20 -16.5q7 -3 21.5 -4t29.5 -3v-40h-287v40q11 1 27.5 2t24.5 5q26 9 26 49v206l-167 294q-16 26 -35 38.5t-51 17.5v41 h304v-41q-42 -4 -61.5 -17.5t-19.5 -33.5z" />
<glyph unicode="Z" horiz-adv-x="629" d="M581 215l-14 -215h-527l-5 17l377 626h-151q-34 0 -60.5 -6t-47 -21t-36 -41t-28.5 -66l-35 2l12 182h505l7 -17l-378 -626h123q53 0 86.5 8t57 27t41 51.5t38.5 82.5z" />
<glyph unicode="a" horiz-adv-x="519" d="M431 99q0 -38 16 -50.5t47 -12.5h8t9 1v-27q-19 -8 -41.5 -15t-54.5 -7q-60 0 -81.5 24t-21.5 62v1q-24 -38 -63.5 -62t-86.5 -24q-53 0 -88 31.5t-35 87.5q0 57 39.5 90t115.5 51l118 28v21q0 60 -22 85.5t-80 25.5q-32 0 -75 -6t-81 -15v53q49 26 107.5 41.5 t110.5 15.5q78 0 118.5 -41.5t40.5 -135.5v-222zM229 76q21 0 43.5 6t39.5 14v136l-63 -16q-48 -12 -71.5 -27.5t-23.5 -46.5q0 -32 18.5 -49t56.5 -17z" />
<glyph unicode="b" horiz-adv-x="575" d="M192 421q37 42 74 59.5t81 17.5q40 0 74 -15t59 -43.5t39 -70.5t14 -97q0 -67 -21.5 -120t-59.5 -89.5t-90 -56t-112 -19.5q-45 0 -87.5 7t-89.5 30v632q0 24 -6.5 33t-31.5 9q-10 0 -21 -1t-18 -2v35l31 9.5t37.5 9.5t38.5 7t34 3q32 0 43.5 -15t11.5 -46v-277zM284 415 q-20 0 -41.5 -5.5t-50.5 -19.5v-326q19 -8 41.5 -14t46.5 -6q36 0 61.5 15t42 41.5t24.5 62t8 76.5q0 87 -34 131.5t-98 44.5z" />
<glyph unicode="c" horiz-adv-x="497" d="M451 49q-38 -32 -87 -48t-103 -16t-95 17t-68.5 48.5t-42 75.5t-14.5 99q0 61 19 111.5t53 87t81 57t103 20.5q37 0 68 -7.5t53.5 -20t34.5 -30t12 -37.5q0 -29 -17 -46.5t-44 -17.5q-16 0 -26 7.5t-18.5 18.5t-16 24.5t-18 24.5t-25 18.5t-35.5 7.5q-28 0 -49 -13.5 t-34.5 -37.5t-20.5 -56.5t-7 -71.5q0 -87 35.5 -137.5t119.5 -50.5q29 0 64.5 5.5t75.5 19.5l2 -52v0z" />
<glyph unicode="d" horiz-adv-x="600" d="M385 656q0 23 -6 31.5t-26 9.5q-9 1 -22.5 0t-23.5 -2v35l31 9.5t37.5 9.5t39 7t34.5 3q32 0 43.5 -15t11.5 -46v-599q0 -42 20 -53t59 -9l1 -27q-19 -8 -41.5 -15t-54.5 -7q-56 0 -78 20t-25 54q-33 -37 -71 -57t-82 -20q-41 0 -75.5 17.5t-60 49.5t-40 77t-14.5 99 q0 64 21 114.5t57.5 86t85.5 54t105 18.5q36 0 74 -8v163zM301 75q21 0 40 4.5t44 16.5v321q-22 11 -47 18.5t-52 7.5q-69 0 -99 -48.5t-30 -130.5q0 -88 32.5 -138.5t111.5 -50.5z" />
<glyph unicode="e" horiz-adv-x="514" d="M455 48q-38 -32 -89 -47.5t-102 -15.5q-109 0 -166 63.5t-57 172.5q0 62 18 113.5t51.5 88.5t81 57.5t106.5 20.5q78 0 125 -43t53 -124q0 -10 0.5 -21t-0.5 -22l-25 -44h-298q2 -80 38 -126t119 -46q30 0 67.5 5.5t75.5 19.5zM266 443q-51 0 -78 -40t-33 -103h202 q0 7 0.5 13t0.5 13q0 53 -23 85t-69 32z" />
<glyph unicode="f" horiz-adv-x="359" d="M28 481h78q1 57 18 107.5t48 88.5t75.5 60t100.5 22q42 0 67.5 -13t25.5 -41q0 -20 -12 -33.5t-37 -13.5q-14 0 -24 5.5t-20 12t-21 12t-27 5.5q-47 0 -61 -37.5t-14 -117.5v-57h119v-49h-119v-339q0 -21 6 -32.5t20 -16.5q7 -3 16 -4t25 -3v-37h-253v37l22 2t19 5 q26 8 26 49v339h-78v49z" />
<glyph unicode="g" horiz-adv-x="558" d="M259 188q-41 0 -79 8q-16 -21 -16 -39q0 -17 15 -27t48 -10h77q48 0 87.5 -7.5t67.5 -23.5t43.5 -41t15.5 -60q0 -39 -19.5 -77.5t-56.5 -68.5t-91 -49t-123 -19q-50 0 -88.5 11t-64.5 29t-39.5 42t-13.5 51q0 44 31 71.5t82 47.5q-35 12 -48.5 33.5t-13.5 45.5 q0 31 22.5 56t54.5 44q-46 17 -73 50t-27 81q0 35 15 65t42 52.5t65.5 35t85.5 12.5t87.5 -13t68.5 -37q18 9 27.5 23l18 27.5t18.5 23t29 9.5q21 0 34 -11t13 -29q0 -17 -11 -29.5t-28.5 -20.5t-38 -12.5t-39.5 -5.5q25 -34 25 -78q0 -37 -16.5 -66.5t-44 -50.5t-64.5 -32 t-78 -11zM218 15q-31 0 -51 4q-23 -19 -31.5 -40.5t-8.5 -44.5q0 -47 32 -76t100 -29q66 0 108 29t42 81q0 36 -25.5 56t-88.5 20h-77zM336 340q0 55 -25.5 83t-60.5 28q-39 0 -59.5 -29.5t-20.5 -76.5q0 -48 22.5 -78t65.5 -30q40 0 59 28.5t19 74.5z" />
<glyph unicode="h" horiz-adv-x="612" d="M91 656q0 23 -6.5 32t-28.5 10q-9 0 -22 -1t-21 -2v35l31 9.5t37.5 9.5t38.5 7t34 3q32 0 44 -14.5t12 -46.5v-278q38 36 81.5 58.5t94.5 22.5q67 0 102 -39.5t35 -129.5v-239q0 -21 6 -32.5t20 -16.5q7 -3 16 -4t24 -3v-37h-252v37l22 2t19 5q26 9 26 49v206 q0 28 -4 49.5t-15 36.5t-29.5 22.5t-48.5 7.5q-26 0 -47 -5t-50 -15v-302q0 -21 6 -32.5t20 -16.5q7 -3 16 -4t24 -3v-37h-252v37l22 2t19 5q26 9 26 49v563z" />
<glyph unicode="i" horiz-adv-x="314" d="M223 93q0 -21 6 -32.5t20 -16.5q7 -3 16 -4t25 -3v-37h-253v37l22 2t19 5q26 8 26 49v305q0 23 -6.5 32t-29.5 9q-9 0 -21 -0.5t-20 -1.5v35q12 4 30 9.5t37.5 9.5t38.5 7t34 3q33 0 44.5 -15t11.5 -47v-346zM88 690q0 37 21.5 53.5t49.5 16.5q29 0 50.5 -16.5 t21.5 -53.5q0 -36 -21.5 -52.5t-50.5 -16.5q-28 0 -49.5 16.5t-21.5 52.5z" />
<glyph unicode="j" horiz-adv-x="288" d="M96 398q0 24 -7 32.5t-32 8.5q-8 0 -20 -0.5t-19 -1.5v35l31 9.5t37.5 9.5t38.5 7t34 3q32 0 44 -15t12 -47v-338q0 -54 -17.5 -111.5t-49.5 -105.5t-77 -79t-100 -31q-28 0 -40.5 16t-12.5 33t11.5 32.5t33.5 15.5q15 0 24.5 -4t16 -8.5t12.5 -7.5t15 -2q39 7 52 45.5 t13 119.5v384zM81 690q0 36 21.5 52.5t50.5 16.5q28 0 50 -16.5t22 -52.5q0 -37 -22 -53.5t-50 -16.5q-29 0 -50.5 16.5t-21.5 53.5z" />
<glyph unicode="k" horiz-adv-x="576" d="M91 656q0 24 -7 33t-30 9q-8 0 -20.5 -1t-20.5 -2v35l31 9.5t37.5 9.5t38.5 7t34 3q32 0 44 -14.5t12 -46.5v-605q0 -21 6 -32.5t20 -16.5q7 -3 16 -4t24 -3v-37h-252v37l22 2t19 5q26 9 26 49v563zM225 256l122 105q27 25 27 49q2 18 -15.5 31t-50.5 14v31h242v-31 q-28 -3 -54 -21t-53 -44l-114 -101l115 -159q14 -20 27 -34t26.5 -24.5t29.5 -18.5t36 -15l-3 -38h-167l-168 240v16z" />
<glyph unicode="l" horiz-adv-x="305" d="M93 656q0 23 -6 32t-29 10q-9 0 -21.5 -1t-20.5 -2v35l31 9.5t37.5 9.5t38 7t33.5 3q33 0 44.5 -14.5t11.5 -46.5v-605q0 -21 6 -32.5t20 -16.5q7 -3 16.5 -4t24.5 -3v-37h-253v37l22 2t19 5q26 8 26 49v563z" />
<glyph unicode="m" horiz-adv-x="930" d="M223 93q0 -21 6 -32.5t20 -16.5q7 -3 16 -4t25 -3v-37h-253v37l22 2t19 5q26 8 26 49v305q0 23 -7 32t-31 9q-8 0 -20 -0.5t-19 -1.5v35q12 4 30 9.5t37.5 9.5t38.5 7t34 3q33 0 44.5 -15t11.5 -47v-19q38 36 81.5 58.5t94.5 22.5q48 0 79.5 -19.5t45.5 -64.5 q39 37 83 60.5t96 23.5q67 0 102 -39.5t35 -129.5v-239q0 -21 6 -32.5t20 -16.5q7 -3 16.5 -4t24.5 -3v-37h-253v37l22 2t19 5q26 8 26 49v206q0 28 -4 49.5t-15 36.5t-29.5 22.5t-48.5 7.5q-24 0 -45.5 -5t-48.5 -14q6 -29 6 -64v-239q0 -21 6 -32.5t20 -16.5q7 -3 16 -4 t25 -3v-37h-253v37l22 2t19 5q26 8 26 49v206q0 28 -4 49.5t-15 36.5t-29.5 22.5t-48.5 7.5q-26 0 -47 -5t-50 -15v-302v0z" />
<glyph unicode="n" horiz-adv-x="625" d="M223 93q0 -21 6 -32.5t20 -16.5q7 -3 16 -4t25 -3v-37h-253v37l22 2t19 5q26 8 26 49v305q0 23 -6.5 32t-29.5 9q-9 0 -21 -0.5t-20 -1.5v35q12 4 30 9.5t37.5 9.5t38.5 7t34 3q33 0 44.5 -15t11.5 -47v-19q38 36 81.5 58.5t94.5 22.5q67 0 102 -39.5t35 -129.5v-239 q0 -21 6 -32.5t20 -16.5q7 -3 16 -4t25 -3v-37h-253v37l22 2t19 5q26 8 26 49v206q0 28 -4 49.5t-15 36.5t-29.5 22.5t-48.5 7.5q-26 0 -47 -5t-50 -15v-302v0z" />
<glyph unicode="o" d="M537 266q0 -56 -18.5 -107t-52.5 -89.5t-83.5 -61.5t-110.5 -23q-51 0 -93.5 16.5t-73 47.5t-47.5 75.5t-17 100.5q0 63 20.5 114t56.5 87t84.5 55.5t104.5 19.5q52 0 94.5 -17t72.5 -47.5t46.5 -74t16.5 -96.5zM407 233q0 47 -7 85.5t-22 66.5t-39.5 43t-58.5 15 q-32 0 -53 -13t-34 -37t-18 -57.5t-5 -73.5q0 -47 6.5 -87t21.5 -69t38.5 -46t58.5 -17q58 0 85 49t27 141z" />
<glyph unicode="p" horiz-adv-x="597" d="M96 398q0 23 -7 32t-31 9q-8 0 -20 -0.5t-20 -1.5v35l31 9.5t37.5 9.5t39 7t34.5 3q32 0 43.5 -15t11.5 -47v-18q39 44 78 60.5t78 16.5q41 0 75 -15.5t58 -44.5t37.5 -71t13.5 -95q0 -67 -21.5 -120t-59.5 -90t-91 -56.5t-117 -19.5q-27 0 -51 3v-113q0 -44 34 -50 q3 -1 9.5 -1.5t14.5 -1t17 -1t15 -0.5v-39h-276v37l22 2t19 5q26 9 26 49v522zM307 415q-20 0 -42 -5t-50 -19v-330q19 -8 41.5 -12.5t45.5 -4.5q36 0 61.5 15t42 41.5t24.5 62t8 76.5q0 86 -33.5 131t-97.5 45z" />
<glyph unicode="q" horiz-adv-x="578" d="M289 -180q4 0 12.5 0.5l17.5 1t16.5 1t10.5 1.5q35 7 35 52v189q-32 -38 -68 -59t-79 -21q-39 0 -74 17.5t-61.5 49.5t-41.5 77t-15 100q0 64 21 114.5t57.5 85.5t85.5 53.5t105 18.5q33 0 63 -6.5t56 -17.5l52 16h18v-617q0 -21 6.5 -32.5t20.5 -16.5q11 -4 40 -7v-37 h-278v37zM303 73q22 0 38.5 5t39.5 19v320q-20 11 -43.5 18.5t-51.5 7.5q-69 0 -98.5 -48t-29.5 -133q0 -88 34.5 -138.5t110.5 -50.5z" />
<glyph unicode="r" horiz-adv-x="452" d="M223 93q0 -44 37 -50q5 -2 22.5 -2.5t30.5 -1.5v-39h-276v37l22 2t19 5q26 8 26 49v305q0 24 -7 33t-32 8q-8 0 -19.5 -0.5t-18.5 -1.5v35q12 4 30 9.5t37.5 9.5t38.5 7t34 3q33 0 44.5 -15t11.5 -47v-15q32 35 66 54.5t72 19.5q31 0 54.5 -15.5t23.5 -53.5 q0 -25 -16.5 -44.5t-48.5 -19.5q-19 0 -29 8t-17.5 18t-16.5 18t-26 8q-12 0 -26 -5.5t-36 -16.5v-302v0z" />
<glyph unicode="s" horiz-adv-x="457" d="M207 -13q-36 0 -78 8.5t-81 24.5l-3 135l29 3q20 -58 58 -88t84 -30q44 0 68 18.5t24 50.5q0 30 -22.5 45.5t-56.5 26.5l-53 16q-21 7 -42.5 18.5t-38 29t-27 41t-10.5 53.5q0 35 14.5 64.5t40 51.5t60.5 34t77 12q34 0 71.5 -9t72.5 -29l7 -116l-36 -3q-15 29 -28.5 49 t-28 32.5t-31.5 18t-38 5.5q-40 0 -59.5 -18.5t-19.5 -47.5t18.5 -46t48.5 -27l63 -21q19 -6 40.5 -15.5t40 -25.5t30.5 -39.5t12 -57.5q0 -39 -16.5 -69.5t-45 -51.5t-66 -32t-78.5 -11z" />
<glyph unicode="t" horiz-adv-x="382" d="M11 481h87v102l101 54h18v-156h138v-49h-138v-263q0 -31 4.5 -51.5t15.5 -33t29 -17.5t45 -5q11 0 25.5 2t28.5 5v-46q-20 -14 -54.5 -24.5t-71.5 -10.5q-30 0 -55.5 6t-44.5 20.5t-30 37.5t-11 56v324h-87v49z" />
<glyph unicode="u" horiz-adv-x="613" d="M399 398q0 23 -7 32t-30 9q-8 0 -20.5 -0.5t-20.5 -1.5v35l31 9.5t37.5 9.5t38.5 7t34 3q32 0 44 -15t12 -47v-340q0 -42 20 -53t59 -9l1 -27q-19 -8 -41.5 -15t-54.5 -7q-57 0 -79 21t-24 56q-38 -36 -79.5 -57.5t-93.5 -21.5q-66 0 -100.5 39t-34.5 129v244 q0 24 -7 32.5t-32 8.5q-8 0 -20 -0.5t-19 -1.5v35l31 9.5t37.5 9.5t38.5 7t34 3q32 0 44 -15t12 -47v-254q0 -27 4 -48t15 -35t30 -21t48 -7q24 0 44.5 5t47.5 14v305v0z" />
<glyph unicode="v" horiz-adv-x="550" d="M544 455q-26 -6 -45.5 -26t-30.5 -46l-170 -391h-50l-172 409q-11 27 -29 39t-38 15v31h248v-31q-29 0 -44 -13.5t-7 -34.5l101 -264l91 220q18 42 2 64.5t-53 27.5v31h197v-31z" />
<glyph unicode="w" horiz-adv-x="832" d="M466 486l139 -345l77 222q16 45 1 66t-52 26v31h196v-31q-26 -6 -45.5 -25t-30.5 -47l-152 -391h-51l-135 321l-128 -321h-59l-147 409q-10 26 -28.5 38.5t-38.5 15.5v31h248v-31q-29 0 -43.5 -13t-7.5 -35l82 -256l127 335h48z" />
<glyph unicode="x" horiz-adv-x="545" d="M453 86q34 -48 77 -54v-32h-239v32q29 0 36.5 15t-5.5 33l-80 109l-53 -66q-30 -38 -22.5 -62.5t42.5 -28.5v-32h-195v32q26 6 54 24.5t52 47.5l98 119l-128 178q-17 24 -32 37.5t-35 16.5v31h239v-31q-29 0 -42 -15t1 -33l82 -115l55 71q25 32 15 59.5t-45 32.5v31h195 v-31q-26 -6 -51 -26t-45 -46l-99 -125z" />
<glyph unicode="y" horiz-adv-x="551" d="M545 455q-26 -6 -45.5 -26t-30.5 -46l-117 -268h1l-51 -117l-28.5 -63t-45 -74t-66.5 -61.5t-93 -25.5q-26 0 -39.5 13t-13.5 33q0 23 13.5 38t36.5 15q39 0 66 4.5t47.5 17.5t36 36.5t32.5 61.5l-171 408q-11 27 -29 39t-38 15v31h248v-31q-29 0 -44 -13.5t-7 -34.5 l101 -265l91 221q18 42 2 64.5t-53 27.5v31h197v-31z" />
<glyph unicode="z" horiz-adv-x="494" d="M65 486h369l17 -28l-263 -407h111q45 0 81 31t47 81l31 -4l-22 -159h-387l-15 26l263 409h-107q-27 0 -45.5 -8t-32 -22t-22.5 -32t-17 -39l-34 5z" />
<glyph unicode="0" horiz-adv-x="657" d="M598 293q0 -68 -22 -124.5t-60 -97.5t-89.5 -63.5t-110.5 -22.5q-52 0 -98.5 16t-81.5 49.5t-55.5 85.5t-20.5 124t22 130.5t59.5 99t87 62.5t104.5 22q56 0 104.5 -18.5t84 -54.5t56 -88.5t20.5 -119.5zM462 268q0 53 -8 99t-24.5 80.5t-43 54t-63.5 19.5q-35 0 -59 -17 t-39 -48t-22 -74.5t-7 -96.5q0 -118 31 -181.5t98 -63.5q39 0 65 19t42 50.5t23 73t7 85.5z" />
<glyph unicode="1" horiz-adv-x="457" d="M309 105q-1 -23 6 -34t21 -16q3 -1 16 -2.5t28.5 -2.5l30.5 -2t24 -2v-46h-371v46q5 0 19.5 1t31 2.5t30.5 2.5t18 3q15 5 21 16.5t6 33.5v353h-136v36q27 4 59 13t63 20.5t58.5 23.5l46.5 21h28v-467z" />
<glyph unicode="2" horiz-adv-x="555" d="M484 0h-428l-7 35l130 119.5t86 88t48 70.5t15 66q0 48 -27 74.5t-80 26.5q-48 0 -82 -20.5t-64 -56.5l-20 23q47 82 107 115t122 33q43 0 75.5 -12.5t54 -34t32.5 -49.5t11 -59q0 -43 -19.5 -82.5t-55 -77.5t-84.5 -77l-108 -82h327l3 -10z" />
<glyph unicode="3" horiz-adv-x="561" d="M187 204l67.5 45t52 42t33 43t11.5 49q0 26 -11 44.5t-29 30t-40 17t-44 5.5q-45 0 -86 -18.5t-69 -50.5l-22 26q48 71 104.5 104t123.5 33q41 0 76 -11t60.5 -31t40 -48.5t14.5 -63.5q0 -49 -37 -91t-112 -87q88 -11 141 -57.5t53 -124.5q0 -54 -26 -95t-67 -68.5 t-91.5 -41.5t-99.5 -14q-30 0 -62 5.5t-59 16.5t-44.5 29t-17.5 43q0 23 14.5 37.5t40.5 14.5q19 0 30 -7.5t18.5 -18.5t14.5 -24.5t17.5 -24.5t27.5 -18.5t44 -7.5q59 0 96 36t37 99q0 23 -7 47t-28 45t-58.5 37t-97.5 23z" />
<glyph unicode="4" horiz-adv-x="609" d="M333 50h-312v68l373 449h58v-428h134l3 -10l-26 -79h-111v-191h-119v191zM333 139v274l-225 -274h225z" />
<glyph unicode="5" horiz-adv-x="567" d="M168 447l-25 -166q80 4 146 -7t112.5 -36t72 -64.5t25.5 -92.5q0 -56 -25.5 -100t-66.5 -75.5t-91.5 -48t-101.5 -16.5q-29 0 -60.5 5.5t-57.5 17t-43.5 29.5t-17.5 42q0 21 14 36.5t40 15.5q18 0 29 -7.5t19.5 -18.5t15.5 -24.5t18 -24.5t27.5 -18.5t42.5 -7.5 q63 0 97.5 41.5t34.5 107.5q0 40 -14.5 72t-49 53.5t-90.5 31t-138 5.5l53 361h379l3 -10l-34 -101h-314z" />
<glyph unicode="6" horiz-adv-x="607" d="M542 665q-77 -5 -136 -28t-101 -60t-68 -86t-39 -106q32 22 70.5 35.5t83.5 13.5q46 0 84.5 -15t66 -41.5t43 -63.5t15.5 -82q0 -53 -20.5 -98.5t-56.5 -78.5t-84.5 -52t-105.5 -19q-59 0 -104.5 20.5t-76 57.5t-46.5 89t-16 115q0 91 31 169.5t87.5 137t134.5 94 t172 41.5q14 0 28 0.5t29 -0.5zM185 259q0 -109 32.5 -168.5t91.5 -59.5q54 0 85.5 46.5t31.5 124.5q0 83 -35.5 123.5t-96.5 40.5q-28 0 -54.5 -7.5t-49.5 -18.5q-3 -20 -4 -40.5t-1 -40.5z" />
<glyph unicode="7" horiz-adv-x="515" d="M104 -144l-1 11l309 585h-376l-3 10l36 96h426l7 -30l-304 -672h-94z" />
<glyph unicode="8" horiz-adv-x="605" d="M537 546q0 -52 -35 -91.5t-110 -72.5q85 -41 121.5 -84t36.5 -103q0 -47 -21.5 -86t-57.5 -66.5t-83 -42.5t-98 -15q-46 0 -88.5 10t-75.5 32t-52.5 55.5t-19.5 80.5q0 64 38.5 106.5t105.5 68.5q-66 36 -96.5 76.5t-30.5 96.5q0 49 22 85.5t56.5 61.5t78 37.5t87.5 12.5 q43 0 83 -11t71 -31.5t49.5 -50.5t18.5 -69zM431 152q0 34 -18.5 59.5t-46.5 44.5t-61 33l-62 27q-32 -23 -52.5 -54.5t-20.5 -83.5q0 -63 31 -102.5t96 -39.5q33 0 58 9.5t42 26t25.5 37t8.5 43.5zM187 553q0 -32 13.5 -54.5t35.5 -40t51 -30.5l59 -26q33 29 52 61t19 72 q0 53 -29.5 87t-86.5 34q-51 0 -82.5 -28t-31.5 -75z" />
<glyph unicode="9" horiz-adv-x="608" d="M65 -107q77 5 135.5 28t100.5 59.5t68.5 85.5t39.5 107q-32 -22 -70.5 -35.5t-83.5 -13.5q-46 0 -84.5 15t-66 41.5t-43 63.5t-15.5 81q0 54 20.5 99.5t56.5 78.5t84.5 52t105.5 19q59 0 104.5 -20.5t76 -57.5t46.5 -89t16 -115q0 -92 -31 -170t-87.5 -136.5t-135 -94 t-172.5 -41.5q-13 0 -27.5 -0.5t-28.5 0.5zM422 299q0 108 -32.5 168t-91.5 60q-54 0 -85.5 -46.5t-31.5 -124.5q0 -83 35.5 -123.5t96.5 -40.5q28 0 54.5 7.5t49.5 18.5q2 20 3.5 40t1.5 41z" />
<glyph unicode="&#xc1;" horiz-adv-x="693" d="M0 0zM423 240h-226l-54 -144q-7 -18 1 -31t28 -18q7 -2 23.5 -3.5t33.5 -3.5v-40h-231v40q11 1 23.5 4.5t20.5 6.5q15 5 24 15.5t16 29.5l238 610h64l219 -610q7 -20 16 -30t24 -15q8 -3 19.5 -6.5t22.5 -4.5v-40h-293v40q16 2 30.5 4t22.5 4q14 5 23.5 16.5t2.5 31.5z M217 293h188l-87 263zM534 855l-176 -122h-35l-4 10l96 123h115z" />
<glyph unicode="&#xc2;" horiz-adv-x="693" d="M0 0zM423 240h-226l-54 -144q-7 -18 1 -31t28 -18q7 -2 23.5 -3.5t33.5 -3.5v-40h-231v40q11 1 23.5 4.5t20.5 6.5q15 5 24 15.5t16 29.5l238 610h64l219 -610q7 -20 16 -30t24 -15q8 -3 19.5 -6.5t22.5 -4.5v-40h-293v40q16 2 30.5 4t22.5 4q14 5 23.5 16.5t2.5 31.5z M217 293h188l-87 263zM330 871h49l116 -132l-4 -10h-43l-99 66l-96 -66h-36l-4 10z" />
<glyph unicode="&#xc0;" horiz-adv-x="693" d="M0 0zM423 240h-226l-54 -144q-7 -18 1 -31t28 -18q7 -2 23.5 -3.5t33.5 -3.5v-40h-231v40q11 1 23.5 4.5t20.5 6.5q15 5 24 15.5t16 29.5l238 610h64l219 -610q7 -20 16 -30t24 -15q8 -3 19.5 -6.5t22.5 -4.5v-40h-293v40q16 2 30.5 4t22.5 4q14 5 23.5 16.5t2.5 31.5z M217 293h188l-87 263zM174 866h115l96 -123l-4 -10h-35l-176 122z" />
<glyph unicode="&#xc3;" horiz-adv-x="693" d="M0 0zM423 240h-226l-54 -144q-7 -18 1 -31t28 -18q7 -2 23.5 -3.5t33.5 -3.5v-40h-231v40q11 1 23.5 4.5t20.5 6.5q15 5 24 15.5t16 29.5l238 610h64l219 -610q7 -20 16 -30t24 -15q8 -3 19.5 -6.5t22.5 -4.5v-40h-293v40q16 2 30.5 4t22.5 4q14 5 23.5 16.5t2.5 31.5z M217 293h188l-87 263zM505 850q-2 -45 -23.5 -77t-70.5 -32q-23 0 -42 6.5t-35.5 15l-30 15t-24.5 6.5q-32 0 -41 -47h-36q2 45 23 76.5t68 31.5q19 0 36.5 -6.5t32.5 -14.5t29 -14.5t27 -6.5q20 0 33 12t16 35h38z" />
<glyph unicode="&#xc7;" horiz-adv-x="681" d="M49 0zM401 659q-58 0 -97.5 -25t-63.5 -67.5t-34.5 -98.5t-10.5 -118q0 -71 11 -129t36 -99t63.5 -64t94.5 -23q39 0 69 14.5t52.5 39.5t38 56.5t24.5 66.5h39v-156q-42 -34 -100.5 -52.5t-124.5 -18.5q-78 0 -142.5 26t-110.5 73.5t-71 112.5t-25 143q0 82 27 150 t75 116.5t114 75.5t144 27q58 0 112.5 -14t101.5 -40v-182h-39q-12 43 -28 77.5t-38 58.5t-51 37t-66 13zM506 -138q0 -42 -35.5 -65t-90.5 -23q-20 0 -38.5 2.5t-36.5 7.5v58q17 -6 37.5 -10.5t37.5 -4.5q20 0 32.5 7t12.5 22q0 10 -5.5 16t-13.5 9.5t-17.5 5t-18.5 1.5 h-11.5t-9.5 -1v121h51v-66q20 0 39 -4.5t34 -14.5t24 -25t9 -36z" />
<glyph unicode="&#xc9;" horiz-adv-x="638" d="M48 0zM500 855l-176 -122h-35l-4 10l96 123h115zM48 40l28 2.5t25 5.5q14 5 19 17.5t5 34.5v493q0 23 -5.5 35t-19.5 17q-7 3 -21 4.5t-31 3.5v40h512v-170h-38q-9 36 -21.5 59t-30 36.5t-41 18.5t-56.5 5h-116v-260h92q42 0 52 26q4 8 6 25.5l4 35.5h42v-225h-42 q-2 12 -3.5 31t-6.5 28q-10 28 -52 28h-92v-280h132q37 0 62.5 8.5t44.5 27t33.5 48.5t28.5 73l34 -4l-15 -204h-529v40z" />
<glyph unicode="&#xca;" horiz-adv-x="638" d="M48 0zM48 40l28 2.5t25 5.5q14 5 19 17.5t5 34.5v493q0 23 -5.5 35t-19.5 17q-7 3 -21 4.5t-31 3.5v40h512v-170h-38q-9 36 -21.5 59t-30 36.5t-41 18.5t-56.5 5h-116v-260h92q42 0 52 26q4 8 6 25.5l4 35.5h42v-225h-42q-2 12 -3.5 31t-6.5 28q-10 28 -52 28h-92v-280 h132q37 0 62.5 8.5t44.5 27t33.5 48.5t28.5 73l34 -4l-15 -204h-529v40zM303 871h49l116 -132l-4 -10h-43l-99 66l-96 -66h-36l-4 10z" />
<glyph unicode="&#xcb;" horiz-adv-x="638" d="M48 0zM188 799q0 31 18 45t42 14q25 0 43.5 -14t18.5 -45q0 -32 -18.5 -45.5t-43.5 -13.5q-24 0 -42 13.5t-18 45.5zM365 799q0 31 19 45t43 14t42.5 -14t18.5 -45q0 -32 -18.5 -45.5t-42.5 -13.5t-43 13.5t-19 45.5zM48 40l28 2.5t25 5.5q14 5 19 17.5t5 34.5v493 q0 23 -5.5 35t-19.5 17q-7 3 -21 4.5t-31 3.5v40h512v-170h-38q-9 36 -21.5 59t-30 36.5t-41 18.5t-56.5 5h-116v-260h92q42 0 52 26q4 8 6 25.5l4 35.5h42v-225h-42q-2 12 -3.5 31t-6.5 28q-10 28 -52 28h-92v-280h132q37 0 62.5 8.5t44.5 27t33.5 48.5t28.5 73l34 -4 l-15 -204h-529v40z" />
<glyph unicode="&#xc8;" horiz-adv-x="638" d="M48 0zM173 866h115l96 -123l-4 -10h-35l-176 122zM48 40l28 2.5t25 5.5q14 5 19 17.5t5 34.5v493q0 23 -5.5 35t-19.5 17q-7 3 -21 4.5t-31 3.5v40h512v-170h-38q-9 36 -21.5 59t-30 36.5t-41 18.5t-56.5 5h-116v-260h92q42 0 52 26q4 8 6 25.5l4 35.5h42v-225h-42 q-2 12 -3.5 31t-6.5 28q-10 28 -52 28h-92v-280h132q37 0 62.5 8.5t44.5 27t33.5 48.5t28.5 73l34 -4l-15 -204h-529v40z" />
<glyph unicode="&#xcd;" horiz-adv-x="383" d="M48 0zM257 96q0 -21 6.5 -32.5t20.5 -16.5q7 -3 21.5 -4t29.5 -3v-40h-287v40q10 1 26.5 2t24.5 5q26 8 26 49v501q0 21 -6 32.5t-20 16.5q-7 3 -21.5 4t-29.5 3v40h287v-40q-11 -1 -27.5 -2t-24.5 -5q-26 -9 -26 -49v-501zM359 855l-176 -122h-35l-4 10l96 123h115z" />
<glyph unicode="&#xce;" horiz-adv-x="383" d="M48 0zM257 96q0 -21 6.5 -32.5t20.5 -16.5q7 -3 21.5 -4t29.5 -3v-40h-287v40q10 1 26.5 2t24.5 5q26 8 26 49v501q0 21 -6 32.5t-20 16.5q-7 3 -21.5 4t-29.5 3v40h287v-40q-11 -1 -27.5 -2t-24.5 -5q-26 -9 -26 -49v-501zM175 871h49l116 -132l-4 -10h-43l-99 66 l-96 -66h-36l-4 10z" />
<glyph unicode="&#xcf;" horiz-adv-x="383" d="M43 0zM257 96q0 -21 6.5 -32.5t20.5 -16.5q7 -3 21.5 -4t29.5 -3v-40h-287v40q10 1 26.5 2t24.5 5q26 8 26 49v501q0 21 -6 32.5t-20 16.5q-7 3 -21.5 4t-29.5 3v40h287v-40q-11 -1 -27.5 -2t-24.5 -5q-26 -9 -26 -49v-501zM43 799q0 31 18 45t42 14q25 0 43.5 -14 t18.5 -45q0 -32 -18.5 -45.5t-43.5 -13.5q-24 0 -42 13.5t-18 45.5zM220 799q0 31 19 45t43 14t42.5 -14t18.5 -45q0 -32 -18.5 -45.5t-42.5 -13.5t-43 13.5t-19 45.5z" />
<glyph unicode="&#xd1;" horiz-adv-x="805" d="M39 0zM559 850q-2 -45 -23.5 -77t-70.5 -32q-23 0 -42 6.5t-35.5 15l-30 15t-24.5 6.5q-32 0 -41 -47h-36q2 45 23 76.5t68 31.5q19 0 36.5 -6.5t32.5 -14.5t29 -14.5t27 -6.5q20 0 33 12t16 35h38zM607 -4l-407 547v-411q0 -29 8.5 -46.5t23.5 -27.5q25 -16 64 -21v-37 h-257v37q16 2 30 6t27 11q17 9 28 27.5t11 50.5v408q0 52 -21.5 81t-69.5 36v36h199l371 -485v353q0 29 -8.5 46.5t-23.5 27.5q-25 16 -64 21v37h258v-37q-16 -2 -30 -6t-27 -11q-17 -9 -28 -27.5t-11 -50.5v-565h-73z" />
<glyph unicode="&#xd6;" horiz-adv-x="800" d="M49 0zM251 799q0 31 18 45t42 14q25 0 43.5 -14t18.5 -45q0 -32 -18.5 -45.5t-43.5 -13.5q-24 0 -42 13.5t-18 45.5zM428 799q0 31 19 45t43 14t42.5 -14t18.5 -45q0 -32 -18.5 -45.5t-42.5 -13.5t-43 13.5t-19 45.5zM751 352q0 -78 -26.5 -145t-73.5 -116.5t-113 -77.5 t-145 -28q-75 0 -138 25.5t-108.5 72t-71.5 112t-26 146.5q0 82 27 150t74.5 116.5t112.5 75t141 26.5q77 0 141 -27t109.5 -74.5t71 -113t25.5 -142.5zM605 347q0 65 -10 122t-34 99.5t-63.5 67t-99.5 24.5t-99 -25t-62.5 -68t-32.5 -99.5t-9 -119.5q0 -71 10.5 -128.5 t34 -98t62 -63t94.5 -22.5q63 0 103.5 27t64 70.5t32.5 99.5t9 114z" />
<glyph unicode="&#xd5;" horiz-adv-x="800" d="M49 0zM551 850q-2 -45 -23.5 -77t-70.5 -32q-23 0 -42 6.5t-35.5 15l-30 15t-24.5 6.5q-32 0 -41 -47h-36q2 45 23 76.5t68 31.5q19 0 36.5 -6.5t32.5 -14.5t29 -14.5t27 -6.5q20 0 33 12t16 35h38zM751 352q0 -78 -26.5 -145t-73.5 -116.5t-113 -77.5t-145 -28 q-75 0 -138 25.5t-108.5 72t-71.5 112t-26 146.5q0 82 27 150t74.5 116.5t112.5 75t141 26.5q77 0 141 -27t109.5 -74.5t71 -113t25.5 -142.5zM605 347q0 65 -10 122t-34 99.5t-63.5 67t-99.5 24.5t-99 -25t-62.5 -68t-32.5 -99.5t-9 -119.5q0 -71 10.5 -128.5t34 -98 t62 -63t94.5 -22.5q63 0 103.5 27t64 70.5t32.5 99.5t9 114z" />
<glyph unicode="&#xd3;" horiz-adv-x="800" d="M49 0zM558 855l-176 -122h-35l-4 10l96 123h115zM751 352q0 -78 -26.5 -145t-73.5 -116.5t-113 -77.5t-145 -28q-75 0 -138 25.5t-108.5 72t-71.5 112t-26 146.5q0 82 27 150t74.5 116.5t112.5 75t141 26.5q77 0 141 -27t109.5 -74.5t71 -113t25.5 -142.5zM605 347 q0 65 -10 122t-34 99.5t-63.5 67t-99.5 24.5t-99 -25t-62.5 -68t-32.5 -99.5t-9 -119.5q0 -71 10.5 -128.5t34 -98t62 -63t94.5 -22.5q63 0 103.5 27t64 70.5t32.5 99.5t9 114z" />
<glyph unicode="&#xd4;" horiz-adv-x="800" d="M49 0zM751 352q0 -78 -26.5 -145t-73.5 -116.5t-113 -77.5t-145 -28q-75 0 -138 25.5t-108.5 72t-71.5 112t-26 146.5q0 82 27 150t74.5 116.5t112.5 75t141 26.5q77 0 141 -27t109.5 -74.5t71 -113t25.5 -142.5zM605 347q0 65 -10 122t-34 99.5t-63.5 67t-99.5 24.5 t-99 -25t-62.5 -68t-32.5 -99.5t-9 -119.5q0 -71 10.5 -128.5t34 -98t62 -63t94.5 -22.5q63 0 103.5 27t64 70.5t32.5 99.5t9 114zM381 871h49l116 -132l-4 -10h-43l-99 66l-96 -66h-36l-4 10z" />
<glyph unicode="&#xda;" horiz-adv-x="765" d="M34 0zM574 855l-176 -122h-35l-4 10l96 123h115zM243 239q0 -95 39.5 -145t129.5 -50q46 0 79 14.5t54 40.5t30.5 62t9.5 79v329q-2 26 -10 41.5t-22 24.5q-25 16 -64 21v37h257v-37q-15 -2 -29.5 -6t-27.5 -11q-17 -9 -27.5 -26t-11.5 -46v-325q0 -57 -17.5 -104 t-51 -81t-84 -52.5t-116.5 -18.5q-58 0 -107.5 14.5t-85.5 44.5t-56.5 76t-20.5 109v367q0 40 -26 49q-10 3 -24 4.5t-27 2.5v40h287v-40q-19 -2 -30.5 -2.5t-21.5 -4.5q-25 -9 -26 -43v-364z" />
<glyph unicode="&#xdb;" horiz-adv-x="765" d="M34 0zM243 239q0 -95 39.5 -145t129.5 -50q46 0 79 14.5t54 40.5t30.5 62t9.5 79v329q-2 26 -10 41.5t-22 24.5q-25 16 -64 21v37h257v-37q-15 -2 -29.5 -6t-27.5 -11q-17 -9 -27.5 -26t-11.5 -46v-325q0 -57 -17.5 -104t-51 -81t-84 -52.5t-116.5 -18.5 q-58 0 -107.5 14.5t-85.5 44.5t-56.5 76t-20.5 109v367q0 40 -26 49q-10 3 -24 4.5t-27 2.5v40h287v-40q-19 -2 -30.5 -2.5t-21.5 -4.5q-25 -9 -26 -43v-364zM380 871h49l116 -132l-4 -10h-43l-99 66l-96 -66h-36l-4 10z" />
<glyph unicode="&#xd9;" horiz-adv-x="765" d="M34 0zM228 866h115l96 -123l-4 -10h-35l-176 122zM243 239q0 -95 39.5 -145t129.5 -50q46 0 79 14.5t54 40.5t30.5 62t9.5 79v329q-2 26 -10 41.5t-22 24.5q-25 16 -64 21v37h257v-37q-15 -2 -29.5 -6t-27.5 -11q-17 -9 -27.5 -26t-11.5 -46v-325q0 -57 -17.5 -104 t-51 -81t-84 -52.5t-116.5 -18.5q-58 0 -107.5 14.5t-85.5 44.5t-56.5 76t-20.5 109v367q0 40 -26 49q-10 3 -24 4.5t-27 2.5v40h287v-40q-19 -2 -30.5 -2.5t-21.5 -4.5q-25 -9 -26 -43v-364z" />
<glyph unicode="&#xdc;" horiz-adv-x="765" d="M34 0zM250 799q0 31 18 45t42 14q25 0 43.5 -14t18.5 -45q0 -32 -18.5 -45.5t-43.5 -13.5q-24 0 -42 13.5t-18 45.5zM427 799q0 31 19 45t43 14t42.5 -14t18.5 -45q0 -32 -18.5 -45.5t-42.5 -13.5t-43 13.5t-19 45.5zM243 239q0 -95 39.5 -145t129.5 -50q46 0 79 14.5 t54 40.5t30.5 62t9.5 79v329q-2 26 -10 41.5t-22 24.5q-25 16 -64 21v37h257v-37q-15 -2 -29.5 -6t-27.5 -11q-17 -9 -27.5 -26t-11.5 -46v-325q0 -57 -17.5 -104t-51 -81t-84 -52.5t-116.5 -18.5q-58 0 -107.5 14.5t-85.5 44.5t-56.5 76t-20.5 109v367q0 40 -26 49 q-10 3 -24 4.5t-27 2.5v40h287v-40q-19 -2 -30.5 -2.5t-21.5 -4.5q-25 -9 -26 -43v-364z" />
<glyph unicode="&#x178;" horiz-adv-x="657" d="M9 0zM232 601q0 -17 10 -33l119 -223l121 220q11 22 11 37q0 25 -22 37t-56 13v41h242v-36q-29 -3 -53.5 -19t-45.5 -52l-164 -284v-206q0 -21 6 -32.5t20 -16.5q7 -3 21.5 -4t29.5 -3v-40h-287v40q11 1 27.5 2t24.5 5q26 9 26 49v206l-167 294q-16 26 -35 38.5t-51 17.5 v41h304v-41q-42 -4 -61.5 -17.5t-19.5 -33.5zM207 799q0 31 18 45t42 14q25 0 43.5 -14t18.5 -45q0 -32 -18.5 -45.5t-43.5 -13.5q-24 0 -42 13.5t-18 45.5zM384 799q0 31 19 45t43 14t42.5 -14t18.5 -45q0 -32 -18.5 -45.5t-42.5 -13.5t-43 13.5t-19 45.5z" />
<glyph unicode="&#xc6;" horiz-adv-x="962" d="M582 642v-260h91q23 0 35 6t18 20q4 8 5.5 25.5t3.5 35.5h43v-225h-43l-2.5 31t-6.5 28q-6 15 -18 21.5t-35 6.5h-91v-280h131q37 0 62.5 8.5t44.5 27t33.5 48.5t28.5 73l35 -4l-15 -204h-530v40l28 2.5t25 5.5q14 5 19.5 17.5t5.5 34.5v171h-213l-92 -173 q-10 -17 -1.5 -31.5t28.5 -19.5q7 -2 23.5 -3.5t33.5 -3.5v-40h-234v40q11 1 23 4.5t20 6.5q15 5 22.5 16t17.5 29l294 549l-78 6v42h591v-170h-39q-9 36 -21.5 59t-30 36.5t-41 18.5t-56.5 5h-115zM450 642h-7t-9 1l-170 -321h186v320z" />
<glyph unicode="&#x152;" horiz-adv-x="1002" d="M499 0q-25 -7 -51.5 -11t-54.5 -4q-75 0 -138 25.5t-108.5 72t-71.5 112t-26 146.5q0 82 27 150t74.5 116.5t112.5 75t141 26.5q66 0 114 -16h406v-170h-39q-9 36 -21.5 59t-30 36.5t-41 18.5t-56.5 5h-115v-260h99q22 0 34 6t18 20q4 8 5.5 25.5t3.5 35.5h43v-225h-43 l-2.5 31t-6.5 28q-10 28 -52 28h-99v-280h131q37 0 62.5 8.5t44.5 27t33.5 48.5t28.5 73l35 -4l-15 -204h-442zM400 36q25 0 47 4t42 14v586q-38 20 -88 20q-61 0 -101 -24.5t-63 -67t-32.5 -99.5t-9.5 -121q0 -73 10.5 -130.5t34.5 -98t63 -62t97 -21.5z" />
<glyph unicode="&#xe1;" horiz-adv-x="519" d="M39 0zM431 99q0 -38 16 -50.5t47 -12.5h8t9 1v-27q-19 -8 -41.5 -15t-54.5 -7q-60 0 -81.5 24t-21.5 62v1q-24 -38 -63.5 -62t-86.5 -24q-53 0 -88 31.5t-35 87.5q0 57 39.5 90t115.5 51l118 28v21q0 60 -22 85.5t-80 25.5q-32 0 -75 -6t-81 -15v53q49 26 107.5 41.5 t110.5 15.5q78 0 118.5 -41.5t40.5 -135.5v-222zM229 76q21 0 43.5 6t39.5 14v136l-63 -16q-48 -12 -71.5 -27.5t-23.5 -46.5q0 -32 18.5 -49t56.5 -17zM409 737l-165 -162h-32l-4 10l85 163h112z" />
<glyph unicode="&#xe0;" horiz-adv-x="519" d="M39 0zM431 99q0 -38 16 -50.5t47 -12.5h8t9 1v-27q-19 -8 -41.5 -15t-54.5 -7q-60 0 -81.5 24t-21.5 62v1q-24 -38 -63.5 -62t-86.5 -24q-53 0 -88 31.5t-35 87.5q0 57 39.5 90t115.5 51l118 28v21q0 60 -22 85.5t-80 25.5q-32 0 -75 -6t-81 -15v53q49 26 107.5 41.5 t110.5 15.5q78 0 118.5 -41.5t40.5 -135.5v-222zM229 76q21 0 43.5 6t39.5 14v136l-63 -16q-48 -12 -71.5 -27.5t-23.5 -46.5q0 -32 18.5 -49t56.5 -17zM108 748h112l88 -163l-4 -10h-34l-166 162z" />
<glyph unicode="&#xe2;" horiz-adv-x="519" d="M39 0zM431 99q0 -38 16 -50.5t47 -12.5h8t9 1v-27q-19 -8 -41.5 -15t-54.5 -7q-60 0 -81.5 24t-21.5 62v1q-24 -38 -63.5 -62t-86.5 -24q-53 0 -88 31.5t-35 87.5q0 57 39.5 90t115.5 51l118 28v21q0 60 -22 85.5t-80 25.5q-32 0 -75 -6t-81 -15v53q49 26 107.5 41.5 t110.5 15.5q78 0 118.5 -41.5t40.5 -135.5v-222zM229 76q21 0 43.5 6t39.5 14v136l-63 -16q-48 -12 -71.5 -27.5t-23.5 -46.5q0 -32 18.5 -49t56.5 -17zM386 579l-4 -11h-46l-95 94l-93 -94h-35l-4 11l112 161h52z" />
<glyph unicode="&#xe3;" horiz-adv-x="519" d="M39 0zM431 99q0 -38 16 -50.5t47 -12.5h8t9 1v-27q-19 -8 -41.5 -15t-54.5 -7q-60 0 -81.5 24t-21.5 62v1q-24 -38 -63.5 -62t-86.5 -24q-53 0 -88 31.5t-35 87.5q0 57 39.5 90t115.5 51l118 28v21q0 60 -22 85.5t-80 25.5q-32 0 -75 -6t-81 -15v53q49 26 107.5 41.5 t110.5 15.5q78 0 118.5 -41.5t40.5 -135.5v-222zM229 76q21 0 43.5 6t39.5 14v136l-63 -16q-48 -12 -71.5 -27.5t-23.5 -46.5q0 -32 18.5 -49t56.5 -17zM404 720q-1 -50 -24.5 -84t-71.5 -34q-23 0 -42 6.5t-35 15t-29.5 15t-24.5 6.5q-32 0 -41 -47h-37q0 23 6 44.5t17 38 t28 26t39 9.5q19 0 36.5 -6.5t33.5 -15t30 -15t27 -6.5q20 0 33 12t16 35h39z" />
<glyph unicode="&#xe7;" horiz-adv-x="497" d="M41 0zM451 49q-38 -32 -87 -48t-103 -16t-95 17t-68.5 48.5t-42 75.5t-14.5 99q0 61 19 111.5t53 87t81 57t103 20.5q37 0 68 -7.5t53.5 -20t34.5 -30t12 -37.5q0 -29 -17 -46.5t-44 -17.5q-16 0 -26 7.5t-18.5 18.5t-16 24.5t-18 24.5t-25 18.5t-35.5 7.5 q-28 0 -49 -13.5t-34.5 -37.5t-20.5 -56.5t-7 -71.5q0 -87 35.5 -137.5t119.5 -50.5q29 0 64.5 5.5t75.5 19.5l2 -52v0zM387 -138q0 -42 -35.5 -65t-90.5 -23q-20 0 -38.5 2.5t-36.5 7.5v58q17 -6 37.5 -10.5t37.5 -4.5q20 0 32.5 7t12.5 22q0 10 -5.5 16t-13.5 9.5t-17.5 5 t-18.5 1.5h-11.5t-9.5 -1v121h51v-66q20 0 39 -4.5t34 -14.5t24 -25t9 -36z" />
<glyph unicode="&#xe9;" horiz-adv-x="514" d="M41 0zM420 737l-165 -162h-32l-4 10l85 163h112zM455 48q-38 -32 -89 -47.5t-102 -15.5q-109 0 -166 63.5t-57 172.5q0 62 18 113.5t51.5 88.5t81 57.5t106.5 20.5q78 0 125 -43t53 -124q0 -10 0.5 -21t-0.5 -22l-25 -44h-298q2 -80 38 -126t119 -46q30 0 67.5 5.5 t75.5 19.5zM266 443q-51 0 -78 -40t-33 -103h202q0 7 0.5 13t0.5 13q0 53 -23 85t-69 32z" />
<glyph unicode="&#xe8;" horiz-adv-x="514" d="M41 0zM455 48q-38 -32 -89 -47.5t-102 -15.5q-109 0 -166 63.5t-57 172.5q0 62 18 113.5t51.5 88.5t81 57.5t106.5 20.5q78 0 125 -43t53 -124q0 -10 0.5 -21t-0.5 -22l-25 -44h-298q2 -80 38 -126t119 -46q30 0 67.5 5.5t75.5 19.5zM266 443q-51 0 -78 -40t-33 -103h202 q0 7 0.5 13t0.5 13q0 53 -23 85t-69 32zM127 748h112l88 -163l-4 -10h-34l-166 162z" />
<glyph unicode="&#xea;" horiz-adv-x="514" d="M41 0zM409 579l-4 -11h-46l-95 94l-93 -94h-35l-4 11l112 161h52zM455 48q-38 -32 -89 -47.5t-102 -15.5q-109 0 -166 63.5t-57 172.5q0 62 18 113.5t51.5 88.5t81 57.5t106.5 20.5q78 0 125 -43t53 -124q0 -10 0.5 -21t-0.5 -22l-25 -44h-298q2 -80 38 -126t119 -46 q30 0 67.5 5.5t75.5 19.5zM266 443q-51 0 -78 -40t-33 -103h202q0 7 0.5 13t0.5 13q0 53 -23 85t-69 32z" />
<glyph unicode="&#xeb;" horiz-adv-x="514" d="M41 0zM119 673q0 32 19 46.5t44 14.5t44 -14.5t19 -46.5t-19 -46.5t-44 -14.5t-44 14.5t-19 46.5zM303 673q0 32 19.5 46.5t44.5 14.5t44 -14.5t19 -46.5t-19 -46.5t-44 -14.5t-44.5 14.5t-19.5 46.5zM455 48q-38 -32 -89 -47.5t-102 -15.5q-109 0 -166 63.5t-57 172.5 q0 62 18 113.5t51.5 88.5t81 57.5t106.5 20.5q78 0 125 -43t53 -124q0 -10 0.5 -21t-0.5 -22l-25 -44h-298q2 -80 38 -126t119 -46q30 0 67.5 5.5t75.5 19.5zM266 443q-51 0 -78 -40t-33 -103h202q0 7 0.5 13t0.5 13q0 53 -23 85t-69 32z" />
<glyph unicode="&#xed;" horiz-adv-x="314" d="M27 0zM303 737l-165 -162h-32l-4 10l85 163h112zM223 93q0 -21 6 -32.5t20 -16.5q7 -3 16 -4t25 -3v-37h-253v37l22 2t19 5q26 8 26 49v305q0 23 -7 32t-31 9q-8 0 -20 -0.5t-19 -1.5v35q12 4 30 9.5t37.5 9.5t38.5 7t34 3q33 0 44.5 -15t11.5 -47v-346z" />
<glyph unicode="&#xee;" horiz-adv-x="314" d="M22 0zM299 579l-4 -11h-46l-95 94l-93 -94h-35l-4 11l112 161h52zM223 93q0 -21 6 -32.5t20 -16.5q7 -3 16 -4t25 -3v-37h-253v37l22 2t19 5q26 8 26 49v305q0 23 -7 32t-31 9q-8 0 -20 -0.5t-19 -1.5v35q12 4 30 9.5t37.5 9.5t38.5 7t34 3q33 0 44.5 -15t11.5 -47v-346z " />
<glyph unicode="&#xef;" horiz-adv-x="314" d="M2 0zM2 673q0 32 19 46.5t44 14.5t44 -14.5t19 -46.5t-19 -46.5t-44 -14.5t-44 14.5t-19 46.5zM186 673q0 32 19.5 46.5t44.5 14.5t44 -14.5t19 -46.5t-19 -46.5t-44 -14.5t-44.5 14.5t-19.5 46.5zM223 93q0 -21 6 -32.5t20 -16.5q7 -3 16 -4t25 -3v-37h-253v37l22 2 t19 5q26 8 26 49v305q0 23 -7 32t-31 9q-8 0 -20 -0.5t-19 -1.5v35q12 4 30 9.5t37.5 9.5t38.5 7t34 3q33 0 44.5 -15t11.5 -47v-346z" />
<glyph unicode="&#x131;" horiz-adv-x="314" d="M223 93q0 -21 6 -32.5t20 -16.5q7 -3 16 -4t25 -3v-37h-253v37l22 2t19 5q26 8 26 49v305q0 23 -7 32t-31 9q-8 0 -20 -0.5t-19 -1.5v35q12 4 30 9.5t37.5 9.5t38.5 7t34 3q33 0 44.5 -15t11.5 -47v-346z" />
<glyph unicode="&#xf1;" horiz-adv-x="625" d="M27 0zM223 93q0 -21 6 -32.5t20 -16.5q7 -3 16 -4t25 -3v-37h-253v37l22 2t19 5q26 8 26 49v305q0 23 -6.5 32t-29.5 9q-9 0 -21 -0.5t-20 -1.5v35q12 4 30 9.5t37.5 9.5t38.5 7t34 3q33 0 44.5 -15t11.5 -47v-19q38 36 81.5 58.5t94.5 22.5q67 0 102 -39.5t35 -129.5 v-239q0 -21 6 -32.5t20 -16.5q7 -3 16 -4t25 -3v-37h-253v37l22 2t19 5q26 8 26 49v206q0 28 -4 49.5t-15 36.5t-29.5 22.5t-48.5 7.5q-26 0 -47 -5t-50 -15v-302v0zM468 720q-1 -50 -24.5 -84t-71.5 -34q-23 0 -42 6.5t-35 15t-29.5 15t-24.5 6.5q-32 0 -41 -47h-37 q0 23 6 44.5t17 38t28 26t39 9.5q19 0 36.5 -6.5t33.5 -15t30 -15t27 -6.5q20 0 33 12t16 35h39z" />
<glyph unicode="&#xf3;" d="M41 0zM427 737l-165 -162h-32l-4 10l85 163h112zM537 266q0 -56 -18.5 -107t-52.5 -89.5t-83.5 -61.5t-110.5 -23q-51 0 -93.5 16.5t-73 47.5t-47.5 75.5t-17 100.5q0 63 20.5 114t56.5 87t84.5 55.5t104.5 19.5q52 0 94.5 -17t72.5 -47.5t46.5 -74t16.5 -96.5zM407 233 q0 47 -7 85.5t-22 66.5t-39.5 43t-58.5 15q-32 0 -53 -13t-34 -37t-18 -57.5t-5 -73.5q0 -47 6.5 -87t21.5 -69t38.5 -46t58.5 -17q58 0 85 49t27 141z" />
<glyph unicode="&#xf4;" d="M41 0zM427 579l-4 -11h-46l-95 94l-93 -94h-35l-4 11l112 161h52zM537 266q0 -56 -18.5 -107t-52.5 -89.5t-83.5 -61.5t-110.5 -23q-51 0 -93.5 16.5t-73 47.5t-47.5 75.5t-17 100.5q0 63 20.5 114t56.5 87t84.5 55.5t104.5 19.5q52 0 94.5 -17t72.5 -47.5t46.5 -74 t16.5 -96.5zM407 233q0 47 -7 85.5t-22 66.5t-39.5 43t-58.5 15q-32 0 -53 -13t-34 -37t-18 -57.5t-5 -73.5q0 -47 6.5 -87t21.5 -69t38.5 -46t58.5 -17q58 0 85 49t27 141z" />
<glyph unicode="&#xf6;" d="M41 0zM133 673q0 32 19 46.5t44 14.5t44 -14.5t19 -46.5t-19 -46.5t-44 -14.5t-44 14.5t-19 46.5zM317 673q0 32 19.5 46.5t44.5 14.5t44 -14.5t19 -46.5t-19 -46.5t-44 -14.5t-44.5 14.5t-19.5 46.5zM537 266q0 -56 -18.5 -107t-52.5 -89.5t-83.5 -61.5t-110.5 -23 q-51 0 -93.5 16.5t-73 47.5t-47.5 75.5t-17 100.5q0 63 20.5 114t56.5 87t84.5 55.5t104.5 19.5q52 0 94.5 -17t72.5 -47.5t46.5 -74t16.5 -96.5zM407 233q0 47 -7 85.5t-22 66.5t-39.5 43t-58.5 15q-32 0 -53 -13t-34 -37t-18 -57.5t-5 -73.5q0 -47 6.5 -87t21.5 -69 t38.5 -46t58.5 -17q58 0 85 49t27 141z" />
<glyph unicode="&#xf5;" d="M41 0zM537 266q0 -56 -18.5 -107t-52.5 -89.5t-83.5 -61.5t-110.5 -23q-51 0 -93.5 16.5t-73 47.5t-47.5 75.5t-17 100.5q0 63 20.5 114t56.5 87t84.5 55.5t104.5 19.5q52 0 94.5 -17t72.5 -47.5t46.5 -74t16.5 -96.5zM407 233q0 47 -7 85.5t-22 66.5t-39.5 43t-58.5 15 q-32 0 -53 -13t-34 -37t-18 -57.5t-5 -73.5q0 -47 6.5 -87t21.5 -69t38.5 -46t58.5 -17q58 0 85 49t27 141zM441 720q-1 -50 -24.5 -84t-71.5 -34q-23 0 -42 6.5t-35 15t-29.5 15t-24.5 6.5q-32 0 -41 -47h-37q0 23 6 44.5t17 38t28 26t39 9.5q19 0 36.5 -6.5t33.5 -15 t30 -15t27 -6.5q20 0 33 12t16 35h39z" />
<glyph unicode="&#xfa;" horiz-adv-x="613" d="M13 0zM452 737l-165 -162h-32l-4 10l85 163h112zM399 398q0 23 -7 32t-30 9q-8 0 -20.5 -0.5t-20.5 -1.5v35l31 9.5t37.5 9.5t38.5 7t34 3q32 0 44 -15t12 -47v-340q0 -42 20 -53t59 -9l1 -27q-19 -8 -41.5 -15t-54.5 -7q-57 0 -79 21t-24 56q-38 -36 -79.5 -57.5 t-93.5 -21.5q-66 0 -100.5 39t-34.5 129v244q0 24 -7 32.5t-32 8.5q-8 0 -20 -0.5t-19 -1.5v35l31 9.5t37.5 9.5t38.5 7t34 3q32 0 44 -15t12 -47v-254q0 -27 4 -48t15 -35t30 -21t48 -7q24 0 44.5 5t47.5 14v305v0z" />
<glyph unicode="&#xf9;" horiz-adv-x="613" d="M13 0zM399 398q0 23 -7 32t-30 9q-8 0 -20.5 -0.5t-20.5 -1.5v35l31 9.5t37.5 9.5t38.5 7t34 3q32 0 44 -15t12 -47v-340q0 -42 20 -53t59 -9l1 -27q-19 -8 -41.5 -15t-54.5 -7q-57 0 -79 21t-24 56q-38 -36 -79.5 -57.5t-93.5 -21.5q-66 0 -100.5 39t-34.5 129v244 q0 24 -7 32.5t-32 8.5q-8 0 -20 -0.5t-19 -1.5v35l31 9.5t37.5 9.5t38.5 7t34 3q32 0 44 -15t12 -47v-254q0 -27 4 -48t15 -35t30 -21t48 -7q24 0 44.5 5t47.5 14v305v0zM135 748h112l88 -163l-4 -10h-34l-166 162z" />
<glyph unicode="&#xfb;" horiz-adv-x="613" d="M13 0zM432 579l-4 -11h-46l-95 94l-93 -94h-35l-4 11l112 161h52zM399 398q0 23 -7 32t-30 9q-8 0 -20.5 -0.5t-20.5 -1.5v35l31 9.5t37.5 9.5t38.5 7t34 3q32 0 44 -15t12 -47v-340q0 -42 20 -53t59 -9l1 -27q-19 -8 -41.5 -15t-54.5 -7q-57 0 -79 21t-24 56 q-38 -36 -79.5 -57.5t-93.5 -21.5q-66 0 -100.5 39t-34.5 129v244q0 24 -7 32.5t-32 8.5q-8 0 -20 -0.5t-19 -1.5v35l31 9.5t37.5 9.5t38.5 7t34 3q32 0 44 -15t12 -47v-254q0 -27 4 -48t15 -35t30 -21t48 -7q24 0 44.5 5t47.5 14v305v0z" />
<glyph unicode="&#xfc;" horiz-adv-x="613" d="M13 0zM138 673q0 32 19 46.5t44 14.5t44 -14.5t19 -46.5t-19 -46.5t-44 -14.5t-44 14.5t-19 46.5zM322 673q0 32 19.5 46.5t44.5 14.5t44 -14.5t19 -46.5t-19 -46.5t-44 -14.5t-44.5 14.5t-19.5 46.5zM399 398q0 23 -7 32t-30 9q-8 0 -20.5 -0.5t-20.5 -1.5v35l31 9.5 t37.5 9.5t38.5 7t34 3q32 0 44 -15t12 -47v-340q0 -42 20 -53t59 -9l1 -27q-19 -8 -41.5 -15t-54.5 -7q-57 0 -79 21t-24 56q-38 -36 -79.5 -57.5t-93.5 -21.5q-66 0 -100.5 39t-34.5 129v244q0 24 -7 32.5t-32 8.5q-8 0 -20 -0.5t-19 -1.5v35l31 9.5t37.5 9.5t38.5 7t34 3 q32 0 44 -15t12 -47v-254q0 -27 4 -48t15 -35t30 -21t48 -7q24 0 44.5 5t47.5 14v305v0z" />
<glyph unicode="&#xff;" horiz-adv-x="551" d="M10 0zM545 455q-26 -6 -45.5 -26t-30.5 -46l-117 -268h1l-51 -117l-28.5 -63t-45 -74t-66.5 -61.5t-93 -25.5q-26 0 -39.5 13t-13.5 33q0 23 13.5 38t36.5 15q39 0 66 4.5t47.5 17.5t36 36.5t32.5 61.5l-171 408q-11 27 -29 39t-38 15v31h248v-31q-29 0 -44 -13.5 t-7 -34.5l101 -265l91 221q18 42 2 64.5t-53 27.5v31h197v-31zM137 673q0 32 19 46.5t44 14.5t44 -14.5t19 -46.5t-19 -46.5t-44 -14.5t-44 14.5t-19 46.5zM321 673q0 32 19.5 46.5t44.5 14.5t44 -14.5t19 -46.5t-19 -46.5t-44 -14.5t-44.5 14.5t-19.5 46.5z" />
<glyph horiz-adv-x="314" d="M27 0zM223 93q0 -21 6 -32.5t20 -16.5q7 -3 16 -4t25 -3v-37h-253v37l22 2t19 5q26 8 26 49v305q0 23 -6.5 32t-29.5 9q-9 0 -21 -0.5t-20 -1.5v35q12 4 30 9.5t37.5 9.5t38.5 7t34 3q33 0 44.5 -15t11.5 -47v-346zM88 690q0 37 21.5 53.5t49.5 16.5q29 0 50.5 -16.5 t21.5 -53.5q0 -36 -21.5 -52.5t-50.5 -16.5q-28 0 -49.5 16.5t-21.5 52.5z" />
<glyph unicode="&#xe6;" horiz-adv-x="784" d="M725 48q-38 -32 -88.5 -47.5t-101.5 -15.5q-67 0 -114.5 24.5t-74.5 70.5q-35 -42 -83 -66.5t-101 -24.5t-88 31.5t-35 87.5q0 57 39.5 90t115.5 51l118 28v21q0 60 -21.5 85.5t-80.5 25.5q-32 0 -75 -6t-81 -15v53q49 26 107.5 41.5t110.5 15.5q46 0 77 -14t48 -45 q32 29 75 45.5t96 16.5q88 0 136.5 -54.5t41.5 -155.5l-24 -44h-298q2 -80 37.5 -126t119.5 -46q30 0 67 5.5t75 19.5zM536 443q-51 0 -78 -40t-33 -103h203q6 64 -17.5 103.5t-74.5 39.5zM332 108q-20 49 -20 113v11l-63 -16q-48 -12 -71.5 -27.5t-23.5 -46.5 q0 -32 18.5 -49t56.5 -17q26 0 53 9.5t50 22.5z" />
<glyph unicode="&#x153;" horiz-adv-x="887" d="M827 48q-38 -32 -89 -47.5t-102 -15.5q-65 0 -111 22.5t-74 64.5q-32 -39 -77 -63t-102 -24q-51 0 -93.5 16.5t-73 47.5t-47.5 75.5t-17 100.5q0 63 20.5 114t56.5 87t84.5 55.5t104.5 19.5q55 0 97.5 -23.5t70.5 -63.5q34 42 83 64.5t112 22.5q78 0 125 -43t53 -124 q0 -10 0.5 -21t-0.5 -22l-25 -44h-298q2 -80 38 -126t119 -46q30 0 67.5 5.5t75.5 19.5zM407 233q0 47 -7 85.5t-22 66.5t-39.5 43t-58.5 15q-32 0 -53 -13t-34 -37t-18 -57.5t-5 -73.5q0 -47 6.5 -87t21.5 -69t38.5 -46t58.5 -17q58 0 85 49t27 141zM638 443q-51 0 -78 -40 t-33 -103h202q0 7 0.5 13t0.5 13q0 53 -23 85t-69 32z" />
<glyph unicode="," horiz-adv-x="290" d="M230 48q0 -39 -15 -73.5t-38 -63t-50.5 -50t-52.5 -34.5l-27 32q38 26 65.5 58.5t30.5 81.5q-33 0 -58 18.5t-25 54.5q0 32 23.5 52t53.5 20q45 0 69 -25t24 -71z" />
<glyph unicode="." horiz-adv-x="289" d="M228 64q0 -21 -7.5 -35t-19.5 -22.5t-26.5 -12t-29.5 -3.5t-30 3.5t-27 12t-19.5 22.5t-7.5 35t7.5 35t19.5 22.5t27 12.5t30 4t29.5 -4t26.5 -12.5t19.5 -22.5t7.5 -35z" />
<glyph unicode=":" horiz-adv-x="308" d="M70 0zM237 64q0 -21 -7.5 -35t-19.5 -22.5t-26.5 -12t-29.5 -3.5t-30 3.5t-27 12t-19.5 22.5t-7.5 35t7.5 35t19.5 22.5t27 12.5t30 4t29.5 -4t26.5 -12.5t19.5 -22.5t7.5 -35zM237 425q0 -21 -7.5 -35t-19.5 -22.5t-26.5 -12t-29.5 -3.5t-30 3.5t-27 12t-19.5 22.5 t-7.5 35t7.5 35t19.5 22.5t27 12.5t30 4t29.5 -4t26.5 -12.5t19.5 -22.5t7.5 -35z" />
<glyph unicode=";" horiz-adv-x="324" d="M67 0zM250 48q0 -39 -15 -73.5t-38 -63t-50.5 -50t-52.5 -34.5l-27 32q38 26 65.5 58.5t30.5 81.5q-33 0 -58 18.5t-25 54.5q0 32 23.5 52t53.5 20q45 0 69 -25t24 -71zM243 425q0 -21 -7.5 -35t-19.5 -22.5t-26.5 -12t-29.5 -3.5t-30 3.5t-27 12t-19.5 22.5t-7.5 35 t7.5 35t19.5 22.5t27 12.5t30 4t29.5 -4t26.5 -12.5t19.5 -22.5t7.5 -35z" />
<glyph unicode="?" horiz-adv-x="466" d="M197 237q-11 23 -17 41t-6 35q0 39 21 64t46.5 46.5t46.5 43.5t21 54q0 39 -32 65t-83 26q-36 0 -73.5 -15t-65.5 -45l-21 20q43 71 96 104t116 33q39 0 72 -11.5t58 -31.5t39 -48t14 -62t-14.5 -60.5t-36 -48.5t-46.5 -41t-46.5 -38.5t-36 -41.5t-14.5 -50 q0 -13 4 -23.5t5 -15.5h-47zM302 64q0 -21 -7.5 -35t-19.5 -22.5t-27 -12t-30 -3.5t-30 3.5t-27 12t-19.5 22.5t-7.5 35t7.5 35t19.5 22.5t27 12.5t30 4t30 -4t27 -12.5t19.5 -22.5t7.5 -35z" />
<glyph unicode="&#xbf;" horiz-adv-x="459" d="M33 0zM265.012 253.015q11 -22.999 16.999 -40.998q6 -17.999 6 -34.9971q0 -38.998 -20.999 -63.9961q-20.998 -24.999 -46.4971 -46.498q-25.498 -21.498 -46.4971 -43.4971q-20.999 -21.998 -20.999 -53.9961q0 -38.998 31.998 -64.9961 q31.998 -25.999 82.9951 -25.999q35.998 0 73.4961 14.999q37.4971 14.999 65.4951 44.9971l20.999 -19.998q-42.9971 -70.9961 -95.9941 -103.994t-115.993 -32.998q-38.9971 0 -71.9951 11.5q-32.998 11.499 -57.9961 31.498q-24.999 19.998 -38.998 47.9971 q-13.999 27.998 -13.999 61.9961t14.499 60.4961t35.998 48.4971q21.498 21.999 46.4971 40.9971q24.998 18.999 46.4971 38.498q21.498 19.499 35.998 41.4971q14.499 21.999 14.499 49.9971q0 12.999 -4 23.499q-4 10.499 -5 15.499h46.9971zM160.019 426.004 q0 20.999 7.49902 34.998q7.5 13.999 19.499 22.498q11.999 8.5 26.999 12q14.999 3.49902 29.998 3.49902t29.998 -3.49902q14.999 -3.5 26.998 -12q11.999 -8.49902 19.499 -22.498q7.49902 -13.999 7.49902 -34.998t-7.49902 -34.998q-7.5 -13.999 -19.499 -22.498 q-11.999 -8.5 -26.998 -12.5q-14.999 -3.99902 -29.998 -3.99902t-29.998 3.99902q-15 4 -26.999 12.5q-11.999 8.49902 -19.499 22.498q-7.49902 13.999 -7.49902 34.998z" />
<glyph unicode="!" horiz-adv-x="317" d="M225 693v-104l-34 -353h-64l-34 353v104h132zM241 64q0 -21 -7.5 -35t-19.5 -22.5t-27 -12t-30 -3.5t-30 3.5t-27 12t-19.5 22.5t-7.5 35t7.5 35t19.5 22.5t27 12.5t30 4t30 -4t27 -12.5t19.5 -22.5t7.5 -35z" />
<glyph unicode="&#xa1;" horiz-adv-x="297" d="M66 0zM82.0137 -202.958v103.994l33.998 352.979h63.9961l33.998 -352.979v-103.994h-131.992zM66.0146 426.004q0 20.999 7.5 34.998q7.49902 13.999 19.498 22.498q12 8.5 26.999 12q14.999 3.49902 29.998 3.49902t29.998 -3.49902q14.999 -3.5 26.998 -12 q12 -8.49902 19.499 -22.498q7.5 -13.999 7.5 -34.998t-7.5 -34.998q-7.49902 -13.999 -19.499 -22.498q-11.999 -8.5 -26.998 -12.5q-14.999 -3.99902 -29.998 -3.99902t-29.998 3.99902q-14.999 4 -26.999 12.5q-11.999 8.49902 -19.498 22.498q-7.5 13.999 -7.5 34.998z " />
<glyph unicode="-" horiz-adv-x="426" d="M358 221h-291v82h291v-82z" />
<glyph unicode="&#x2013;" horiz-adv-x="678" d="M600 238h-523v61h523v-61z" />
<glyph unicode="&#x2014;" horiz-adv-x="892" d="M814 238h-737v61h737v-61z" />
<glyph unicode="_" horiz-adv-x="658" d="M590 -217h-523v61h523v-61z" />
<glyph unicode="@" horiz-adv-x="865" d="M613 71q-45 0 -67.5 15.5t-29.5 38.5q-52 -52 -113 -52q-72 0 -116 50t-44 141q0 50 15.5 89.5t43.5 67.5t65 42.5t81 14.5q53 0 94 -19l59 14h12v-302q0 -26 11 -35.5t29 -9.5q31 0 53.5 21t36.5 54.5t20.5 74.5t6.5 81q0 73 -22 129t-60.5 93.5t-92 56.5t-116.5 19 q-86 0 -154 -32.5t-115.5 -88t-73 -130.5t-25.5 -159q0 -77 22 -142t65.5 -111.5t108 -72.5t150.5 -26q22 0 54.5 2.5t68.5 8.5t72 17.5t67 29.5v-48q-24 -15 -58 -26.5t-71.5 -19t-75.5 -11t-70 -3.5q-95 0 -168.5 30.5t-124 84.5t-77 127.5t-26.5 159.5q0 99 33.5 183.5 t92 146.5t138.5 97t174 35q75 0 137.5 -23t107.5 -67t70 -108t25 -145q0 -53 -11.5 -105.5t-36.5 -94t-66 -67.5t-99 -26zM448 142q17 0 30.5 3t34.5 14v244q-15 9 -33.5 16t-42.5 7q-44 0 -66.5 -35t-22.5 -109q0 -66 21 -103t79 -37z" />
<glyph unicode="&#x26;" horiz-adv-x="779" d="M755 15q-17 -12 -48.5 -20t-65.5 -8q-26 0 -44.5 5.5t-34.5 15t-31 24l-33 32.5q-36 -32 -86.5 -55.5t-120.5 -23.5q-45 0 -85.5 11.5t-71.5 34.5t-49.5 57t-18.5 79q0 55 33 103.5t106 80.5q-23 25 -38.5 46.5t-24.5 41.5t-13 39t-4 39q0 39 14.5 74t41.5 61.5 t64.5 41.5t84.5 15q33 0 67 -8.5t61.5 -27t45 -47.5t17.5 -70q0 -63 -44.5 -103t-126.5 -71l190 -191l2 4q14 31 31 60.5t36.5 52.5t42.5 37.5t49 14.5q23 0 40 -12.5t17 -38.5q0 -25 -15.5 -38.5t-41.5 -13.5q-27 0 -56.5 -18t-57.5 -63l-13 -20l24 -23q33 -32 61.5 -57 t60.5 -25q17 0 35 3v-39zM350 58q37 0 65.5 10t51.5 27l-226 220l-9 8q-20 -26 -28.5 -56t-8.5 -58q0 -29 9 -56.5t28 -48.5t48.5 -33.5t69.5 -12.5zM243 550q0 -32 14.5 -59t48.5 -65l19 -19q48 33 68 67.5t20 74.5q0 42 -21 73.5t-63 31.5t-64 -28.5t-22 -75.5z" />
<glyph unicode="/" horiz-adv-x="437" d="M408 744l-309 -961h-70l307 961h72z" />
<glyph unicode="\" horiz-adv-x="428" d="M103 744l296 -961h-71l-298 961h73z" />
<glyph unicode="|" horiz-adv-x="263" d="M169 744v-961h-76v961h76z" />
<glyph unicode="(" horiz-adv-x="365" d="M44 277q0 83 13.5 157t46.5 136t88 110t137 80l19 -38q-56 -28 -93.5 -68.5t-61 -95t-33.5 -124t-10 -154.5q0 -86 10 -155t33.5 -123.5t61 -95t93.5 -68.5l-19 -38q-84 25 -139 72.5t-87.5 110.5t-45.5 138t-13 156z" />
<glyph unicode=")" horiz-adv-x="365" d="M321 277q0 -81 -13 -156t-45.5 -138t-87.5 -110.5t-139 -72.5l-19 38q55 28 93 68.5t61.5 95t33.5 123.5t10 155q0 85 -10 154.5t-33.5 124t-61.5 95t-93 68.5l19 38q82 -32 137 -80t88 -110t46.5 -136t13.5 -157z" />
<glyph unicode="[" horiz-adv-x="351" d="M323 -194h-230v953h230v-55h-136v-843h136v-55z" />
<glyph unicode="]" horiz-adv-x="351" d="M28 -139h137v843h-137v55h230v-953h-230v55z" />
<glyph unicode="{" horiz-adv-x="370" d="M342 -194q-51 0 -91 7t-68.5 25.5t-43.5 52t-15 86.5v149q0 37 -7.5 60.5t-21.5 37t-33 19.5t-42 8v63q25 3 44.5 9.5t32.5 20.5t20 37t7 58v150q0 54 17 87t46.5 51.5t69 25t85.5 6.5v-55q-33 0 -56.5 -4.5t-38.5 -15.5t-22 -30.5t-7 -50.5v-124q0 -43 -5 -76 t-17.5 -56.5t-33.5 -39t-53 -22.5v-5q39 -10 60.5 -26t32.5 -39.5t13.5 -55.5t2.5 -73v-124q0 -32 9 -51.5t25 -30.5t39 -15t51 -4v-55z" />
<glyph unicode="}" horiz-adv-x="370" d="M28 -139q28 0 51 4t39.5 15t25.5 30.5t9 51.5v124q0 41 2.5 73t13 55.5t32 39.5t60.5 26v5q-32 7 -53 22.5t-33 39t-17 56.5t-5 76v124q0 31 -7.5 50.5t-22.5 30.5t-38.5 15.5t-56.5 4.5v55q46 0 85.5 -6.5t69 -25t46.5 -51.5t17 -87v-150q0 -35 7 -58t20 -37t32.5 -20.5 t44.5 -9.5v-63q-23 -2 -42 -8t-33 -19.5t-21.5 -37t-7.5 -60.5v-149q0 -53 -15 -86.5t-43.5 -52t-68.5 -25.5t-91 -7v55z" />
<glyph unicode="&#xa7;" horiz-adv-x="547" d="M244 -168q-32 0 -65 6t-60 17.5t-44 28.5t-17 40q0 20 14.5 37t41.5 17q17 0 28 -7t19.5 -18l17 -23t19 -23t26 -18t38.5 -7q20 0 39.5 6.5t35 18t25 28t9.5 37.5q0 32 -24.5 56t-69.5 41l-80 33q-71 29 -109 71.5t-38 103.5q0 51 25.5 93.5t74.5 69.5q-30 22 -50 53 t-20 76q0 39 16.5 73.5t46 60.5t70.5 41t91 15q33 0 65 -7t57.5 -19t41.5 -29.5t16 -38.5t-13 -34.5t-35 -13.5q-23 0 -38 14.5t-30 31.5t-34 31.5t-51 14.5q-41 0 -70 -25.5t-29 -67.5q0 -62 77 -93l94 -39q66 -26 104.5 -67.5t38.5 -103.5q0 -50 -26 -90t-74 -66 q33 -21 56.5 -53.5t23.5 -81.5q0 -42 -18.5 -77t-50 -60t-74 -39t-91.5 -14zM199 412q-20 -14 -31.5 -37t-11.5 -50q0 -32 18.5 -56t65.5 -43l95 -39l8 -3q24 14 35.5 36t11.5 46q0 65 -93 103l-79 35z" />
<glyph unicode="&#x2022;" horiz-adv-x="420" d="M341 268q-1 -28 -11.5 -52t-28.5 -41.5t-41 -27.5t-50 -10t-51 10t-41.5 28t-28 42t-10.5 51t10.5 50.5t28 41.5t41.5 28t51 10q28 0 52.5 -10.5t42.5 -28t27.5 -41t8.5 -50.5z" />
<glyph unicode="#" horiz-adv-x="661" d="M106 481h129l55 212h59l-55 -212h142l55 212h59l-55 -212h130l-15 -60h-130l-41 -160h129l-15 -60h-130l-51 -201h-60l52 201h-142l-51 -201h-60l52 201h-129l15 60h129l42 160h-129zM238 261h141l42 160h-142z" />
<glyph unicode="%" horiz-adv-x="794" d="M668 693l-491 -693h-68l489 693h70zM362 546q0 -41 -13.5 -72.5t-36.5 -52.5t-53.5 -31.5t-64.5 -10.5q-31 0 -59.5 9.5t-50 29t-34 49.5t-12.5 71q0 43 13.5 74.5t36 51.5t52 29.5t61.5 9.5q34 0 63.5 -10t51 -30t34 -49.5t12.5 -67.5zM269 543q0 63 -17 91.5t-55 28.5 q-36 0 -51 -28t-15 -93q0 -69 15.5 -95.5t48.5 -26.5q42 0 58 31.5t16 91.5zM758 154q0 -41 -13.5 -72.5t-36.5 -52.5t-53.5 -31.5t-64.5 -10.5q-31 0 -59 9.5t-49.5 29t-34 49.5t-12.5 71q0 43 13.5 74.5t36 51.5t51.5 29.5t61 9.5q34 0 63.5 -10t51 -30t34 -49.5 t12.5 -67.5zM666 151q0 63 -17.5 91.5t-55.5 28.5q-36 0 -51 -28t-15 -93q0 -69 15.5 -95.5t48.5 -26.5q42 0 58.5 31.5t16.5 91.5z" />
<glyph unicode="&#x2030;" horiz-adv-x="1150" d="M671 693l-491 -693h-68l489 693h70zM365 546q0 -41 -13.5 -72.5t-36.5 -52.5t-53.5 -31.5t-64.5 -10.5q-31 0 -59.5 9.5t-50 29t-34 49.5t-12.5 71q0 43 13.5 74.5t36 51.5t52 29.5t61.5 9.5q34 0 63.5 -10t51 -30t34 -49.5t12.5 -67.5zM272 543q0 63 -17 91.5t-55 28.5 q-36 0 -51 -28t-15 -93q0 -69 15.5 -95.5t48.5 -26.5q42 0 58 31.5t16 91.5zM761 154q0 -41 -13.5 -72.5t-36.5 -52.5t-53.5 -31.5t-64.5 -10.5q-31 0 -59 9.5t-49.5 29t-34 49.5t-12.5 71q0 43 13.5 74.5t36 51.5t51.5 29.5t61 9.5q34 0 63.5 -10t51 -30t34 -49.5 t12.5 -67.5zM669 151q0 63 -17.5 91.5t-55.5 28.5q-36 0 -51 -28t-15 -93q0 -69 15.5 -95.5t48.5 -26.5q42 0 58.5 31.5t16.5 91.5zM1115 154q0 -41 -13.5 -72.5t-36.5 -52.5t-53.5 -31.5t-64.5 -10.5q-31 0 -59 9.5t-49.5 29t-34 49.5t-12.5 71q0 43 13.5 74.5t36 51.5 t51.5 29.5t61 9.5q34 0 63.5 -10t51 -30t34 -49.5t12.5 -67.5zM1023 151q0 63 -17.5 91.5t-55.5 28.5q-36 0 -51 -28t-15 -93q0 -69 16 -95.5t48 -26.5q42 0 58.5 31.5t16.5 91.5z" />
<glyph unicode="&#x2020;" horiz-adv-x="425" d="M388 410h-139v-627h-73v627h-139v71h139v263h73v-263h139v-71z" />
<glyph unicode="'" horiz-adv-x="227" d="M178 744l-46 -283h-70l27 283h89z" />
<glyph unicode="&#x22;" horiz-adv-x="403" d="M178 744l-46 -283h-70l27 283h89zM354 744l-46 -283h-70l26 283h90z" />
<glyph unicode="&#x201c;" horiz-adv-x="481" d="M48 464zM48 554q0 39 14.5 72.5t36 60.5t47.5 47.5t50 33.5l27 -31q-38 -25 -64 -56t-29 -79q32 0 55.5 -19t23.5 -51q0 -29 -22 -48.5t-52 -19.5q-40 0 -63.5 23.5t-23.5 66.5zM259 554q0 39 14.5 72.5t36 60.5t47.5 47.5t50 33.5l27 -31q-38 -25 -64 -56t-29 -79 q32 0 55.5 -19t23.5 -51q0 -29 -22 -48.5t-52 -19.5q-40 0 -63.5 23.5t-23.5 66.5z" />
<glyph unicode="&#x201d;" horiz-adv-x="481" d="M53 461zM228 676q0 -39 -14.5 -72.5t-36.5 -61t-48 -48t-50 -33.5l-26 31q37 26 63 56.5t29 78.5q-32 0 -55.5 19t-23.5 51q0 29 22.5 48.5t51.5 19.5q40 0 64 -23t24 -66zM439 676q0 -39 -14.5 -72.5t-36.5 -61t-48 -48t-50 -33.5l-26 31q37 26 63 56.5t29 78.5 q-32 0 -55.5 19t-23.5 51q0 29 22.5 48.5t51.5 19.5q40 0 64 -23t24 -66z" />
<glyph unicode="&#x2018;" horiz-adv-x="269" d="M48 554q0 39 14.5 72.5t36 60.5t47.5 47.5t50 33.5l27 -31q-38 -25 -64 -56t-29 -79q32 0 55.5 -19t23.5 -51q0 -29 -22 -48.5t-52 -19.5q-40 0 -63.5 23.5t-23.5 66.5z" />
<glyph unicode="&#x2019;" horiz-adv-x="270" d="M228 676q0 -39 -14.5 -72.5t-36.5 -61t-48 -48t-50 -33.5l-26 31q37 26 63 56.5t29 78.5q-32 0 -55.5 19t-23.5 51q0 29 22.5 48.5t51.5 19.5q40 0 64 -23t24 -66z" />
<glyph unicode="&#x201a;" horiz-adv-x="283" d="M50 0zM225 33q0 -39 -14.5 -72.5t-36.5 -61t-48 -48t-50 -33.5l-26 31q37 26 63 56.5t29 78.5q-32 0 -55.5 19t-23.5 51q0 29 22.5 48.5t51.5 19.5q40 0 64 -23t24 -66z" />
<glyph unicode="&#x201e;" horiz-adv-x="498" d="M50 0zM225 33q0 -39 -14.5 -72.5t-36.5 -61t-48 -48t-50 -33.5l-26 31q37 26 63 56.5t29 78.5q-32 0 -55.5 19t-23.5 51q0 29 22.5 48.5t51.5 19.5q40 0 64 -23t24 -66zM438 33q0 -39 -14.5 -72.5t-36.5 -61t-48 -48t-50 -33.5l-26 31q37 26 63 56.5t29 78.5 q-32 0 -55.5 19t-23.5 51q0 29 22.5 48.5t51.5 19.5q40 0 64 -23t24 -66z" />
<glyph unicode="&#x2039;" horiz-adv-x="320" d="M225 67l-179 189v20l180 185l40 -28l-100 -163l100 -176z" />
<glyph unicode="&#x203a;" horiz-adv-x="320" d="M54 94l101 176l-101 163l40 28l180 -185v-20l-179 -189z" />
<glyph unicode="&#xab;" horiz-adv-x="520" d="M225 67l-179 189v20l180 185l40 -28l-100 -163l100 -176zM425 67l-179 189v20l180 185l40 -28l-100 -163l100 -176z" />
<glyph unicode="&#xbb;" horiz-adv-x="520" d="M254 94l101 176l-101 163l40 28l180 -185v-20l-179 -189zM54 94l101 176l-101 163l40 28l180 -185v-20l-179 -189z" />
<glyph unicode="*" horiz-adv-x="452" d="M389 458l-126 43l-25 -133h-24l-24 133l-127 -43l-10 19l101 88l-101 88l10 17l128 -43l25 132h20l26 -132l127 43l10 -17l-102 -89l102 -87z" />
<glyph unicode="+" horiz-adv-x="544" d="M306 491v-194h193v-65h-193v-195h-69v195h-192v65h192v194h69z" />
<glyph unicode="&#x3c;" horiz-adv-x="471" d="M414 5l-380 232v60l380 231v-75l-304 -185l304 -184v-79z" />
<glyph unicode="=" horiz-adv-x="596" d="M525 142h-454v65h454v-65zM525 322h-454v65h454v-65z" />
<glyph unicode="&#x3e;" horiz-adv-x="471" d="M57 84l304 184l-304 185v75l380 -231v-60l-380 -232v79z" />
<glyph unicode="&#x401;" horiz-adv-x="638" d="M48 0zM182 799q0 31 18 45t42 14q25 0 43.5 -14t18.5 -45q0 -32 -18.5 -45.5t-43.5 -13.5q-24 0 -42 13.5t-18 45.5zM359 799q0 31 19 45t43 14t42.5 -14t18.5 -45q0 -32 -18.5 -45.5t-42.5 -13.5t-43 13.5t-19 45.5zM48 40l28 2.5t25 5.5q14 5 19 17.5t5 34.5v493 q0 23 -5.5 35t-19.5 17q-7 3 -21 4.5t-31 3.5v40h512v-170h-38q-9 36 -21.5 59t-30 36.5t-41 18.5t-56.5 5h-116v-260h92q42 0 52 26q4 8 6 25.5l4 35.5h42v-225h-42q-2 12 -3.5 31t-6.5 28q-10 28 -52 28h-92v-280h132q37 0 62.5 8.5t44.5 27t33.5 48.5t28.5 73l34 -4 l-15 -204h-529v40z" />
<glyph unicode="&#x410;" horiz-adv-x="693" d="M0 0zM423 240h-226l-54 -144q-7 -18 1 -31t28 -18q7 -2 23.5 -3.5t33.5 -3.5v-40h-231v40q11 1 23.5 4.5t20.5 6.5q15 5 24 15.5t16 29.5l238 610h64l219 -610q7 -20 16 -30t24 -15q8 -3 19.5 -6.5t22.5 -4.5v-40h-293v40q16 2 30.5 4t22.5 4q14 5 23.5 16.5t2.5 31.5z M217 293h188l-87 263z" />
<glyph unicode="&#x411;" horiz-adv-x="658" d="M257 640v-242h127q51 0 94 -11.5t74.5 -34.5t49.5 -58t18 -82q0 -49 -19 -88t-52 -66.5t-78 -42.5t-96 -15h-327v40q10 1 26.5 2.5t24.5 4.5q26 10 26 49v501q0 40 -26 49q-7 3 -21.5 4t-29.5 3v40h512v-170h-38q-9 36 -21.5 59t-30 35.5t-41 17.5t-56.5 5h-116zM257 346 v-295h79q72 0 106.5 41t34.5 110q0 66 -33 105t-97 39h-90z" />
<glyph unicode="&#x412;" horiz-adv-x="672" d="M48 0zM48 0v40q10 1 26.5 2t24.5 5q26 8 26 49v501q0 40 -26 49q-7 3 -21.5 4t-29.5 3v40h305q107 0 168.5 -41.5t61.5 -121.5q0 -28 -11.5 -54t-33.5 -48t-54 -37.5t-72 -22.5v-4q109 -4 161.5 -51.5t52.5 -117.5q0 -51 -23 -88t-60 -61t-84 -35t-94 -11h-317zM486 193 q0 27 -9 52t-29.5 44.5t-53.5 31t-81 11.5h-56v-281h68q85 0 123 38t38 104zM257 642v-261h40q73 0 107 34.5t34 96.5q0 68 -33.5 99t-91.5 31h-56z" />
<glyph unicode="&#x413;" horiz-adv-x="584" d="M257 642v-544q0 -22 6.5 -33.5t20.5 -16.5q8 -3 24 -4.5t33 -3.5v-40h-293v40q10 1 26.5 2t24.5 5q26 8 26 49v497q0 23 -5.5 35t-19.5 17q-7 3 -21 4.5t-31 3.5v40h512v-170h-38q-9 36 -21.5 59t-30 36.5t-41 18.5t-56.5 5h-116z" />
<glyph unicode="&#x414;" horiz-adv-x="738" d="M209 0q-42 0 -69.5 -8.5t-46 -26.5t-30 -46.5t-19.5 -68.5h-36v202h45q60 20 93 159.5t37 387.5q0 36 -22 46q-10 4 -23.5 5.5t-32.5 2.5v40h578v-40q-11 -1 -27.5 -2t-24.5 -5q-26 -8 -26 -49v-545h100v-202h-36q-8 40 -19.5 68.5t-30 46.5t-46 26.5t-69.5 8.5h-295z M242 642q-2 -126 -9.5 -223.5t-20.5 -169.5t-31.5 -120.5t-42.5 -76.5h335v590h-231z" />
<glyph unicode="&#x415;" horiz-adv-x="638" d="M48 0zM48 40l28 2.5t25 5.5q14 5 19 17.5t5 34.5v493q0 23 -5.5 35t-19.5 17q-7 3 -21 4.5t-31 3.5v40h512v-170h-38q-9 36 -21.5 59t-30 36.5t-41 18.5t-56.5 5h-116v-260h92q42 0 52 26q4 8 6 25.5l4 35.5h42v-225h-42q-2 12 -3.5 31t-6.5 28q-10 28 -52 28h-92v-280 h132q37 0 62.5 8.5t44.5 27t33.5 48.5t28.5 73l34 -4l-15 -204h-529v40z" />
<glyph unicode="&#x416;" horiz-adv-x="1018" d="M574 96q0 -40 26 -49q7 -3 21.5 -4t29.5 -3v-40h-285v40q10 1 26.5 2t24.5 5q26 8 26 49v501q0 40 -26 49q-7 3 -21.5 4t-29.5 3v40h285v-40q-10 -1 -26.5 -2t-24.5 -5q-26 -8 -26 -49v-501zM605 340l172 214q30 35 29 57q0 17 -12.5 27.5t-44.5 14.5v40h254v-40 q-37 -4 -70 -22.5t-62 -53.5l-156 -187l182 -270q23 -35 48.5 -55t63.5 -25l-1 -40h-186l-217 333v7zM412 333l-217 -333h-186l1 40q38 5 63 25t48 55l181 270l-156 187q-29 35 -62 53.5t-70 22.5v40h254v-40q-32 -4 -44.5 -14.5t-12.5 -27.5q-1 -22 29 -57l172 -214v-7z " />
<glyph unicode="&#x417;" horiz-adv-x="616" d="M266 660q-35 0 -62 -14.5t-47 -39t-34.5 -56.5t-23.5 -68h-36v156q42 34 99 52.5t122 18.5q55 0 101 -10.5t80 -31.5t53 -53t19 -75q0 -72 -50 -117.5t-135 -56.5v-4q44 -2 83.5 -12t69 -30t47 -51t17.5 -73q0 -53 -20 -92.5t-56.5 -65.5t-89 -39t-116.5 -13 q-75 0 -131 14t-103 40v177h36q10 -39 24.5 -72.5t36.5 -58t53.5 -38t75.5 -13.5q69 0 109.5 40.5t40.5 116.5q0 39 -13.5 66.5t-37 44t-56 24t-71.5 7.5h-61v50h60q142 0 142 139q0 67 -33 102.5t-93 35.5z" />
<glyph unicode="&#x418;" horiz-adv-x="827" d="M780 693v-40q-11 -1 -27.5 -2t-24.5 -5q-26 -8 -26 -49v-501q0 -21 6 -32.5t20 -16.5q7 -3 21.5 -4t30.5 -3v-40h-288v40q11 1 27.5 2t24.5 5q26 8 26 49v469l-332 -565h-190v40q10 1 26.5 2t24.5 5q26 8 26 49v501q0 21 -6 32.5t-20 16.5q-7 3 -21.5 4t-29.5 3v40h287 v-40q-11 -1 -27.5 -2t-24.5 -5q-26 -9 -26 -49v-471l332 567h191z" />
<glyph unicode="&#x419;" horiz-adv-x="827" d="M48 0zM780 693v-40q-11 -1 -27.5 -2t-24.5 -5q-26 -8 -26 -49v-501q0 -21 6 -32.5t20 -16.5q7 -3 21.5 -4t30.5 -3v-40h-288v40q11 1 27.5 2t24.5 5q26 8 26 49v469l-332 -565h-190v40q10 1 26.5 2t24.5 5q26 8 26 49v501q0 21 -6 32.5t-20 16.5q-7 3 -21.5 4t-29.5 3v40 h287v-40q-11 -1 -27.5 -2t-24.5 -5q-26 -9 -26 -49v-471l332 567h191zM591 854q-7 -51 -47 -83t-108 -32q-62 0 -104.5 28t-51.5 87h95q3 -33 21 -51.5t44 -18.5q35 0 50.5 19t19.5 51h81z" />
<glyph unicode="&#x41a;" horiz-adv-x="710" d="M48 0zM257 96q0 -40 27 -49q7 -3 21.5 -4t29.5 -3v-40h-287v40q10 1 26.5 2t24.5 5q26 8 26 49v501q0 40 -26 49q-7 3 -21.5 4t-29.5 3v40h287v-40q-11 -1 -27.5 -2t-24.5 -5q-26 -9 -26 -49v-501zM289 340l180 214q30 35 30 57q0 17 -14.5 28t-48.5 14v40h261v-40 q-38 -4 -71 -22.5t-64 -53.5l-163 -188l185 -269q23 -35 51 -55t67 -25l-3 -40h-188l-222 333v7z" />
<glyph unicode="&#x41b;" horiz-adv-x="732" d="M198 599q0 36 -22 46q-10 4 -23.5 5.5t-32.5 2.5v40h564v-40q-11 -1 -27.5 -2t-24.5 -5q-26 -9 -26 -49v-501q0 -21 6.5 -32.5t20.5 -16.5q7 -3 21.5 -4t29.5 -3v-40h-287v40q10 1 26.5 2t24.5 5q26 8 26 49v546h-222q-3 -179 -14 -303.5t-33 -202.5t-55.5 -113 t-82.5 -35q-30 0 -46.5 17t-16.5 43q0 61 67 75q33 7 56.5 34t38.5 82.5t22.5 143.5t9.5 216z" />
<glyph unicode="&#x41c;" horiz-adv-x="932" d="M37 0zM807 96q0 -21 6 -32.5t20 -16.5q7 -3 21.5 -4t29.5 -3v-40h-287v40q11 1 27.5 2t24.5 5q26 9 26 49v467l-219 -424h-38l-219 422v-429q0 -29 8.5 -46.5t23.5 -27.5q25 -16 64 -21v-37h-258v37q16 2 30 6t27 11q17 9 28 27.5t11 50.5v448q0 24 -5.5 37.5t-19.5 21.5 q-8 6 -25.5 9t-36.5 5v40h217l206 -398l209 398h206v-40q-10 -1 -26.5 -2t-24.5 -5q-26 -8 -26 -49v-501z" />
<glyph unicode="&#x41d;" horiz-adv-x="820" d="M48 0zM563 597q0 21 -6.5 32.5t-19.5 16.5q-7 3 -22 4t-30 3v40h287v-40q-10 -1 -26.5 -2t-24.5 -5q-26 -8 -26 -49v-501q0 -21 6 -32.5t20 -16.5q7 -3 21.5 -4t29.5 -3v-40h-287v40q11 1 27.5 2t24.5 5q26 9 26 49v239h-306v-239q0 -21 6.5 -32.5t20.5 -16.5 q7 -3 21.5 -4t29.5 -3v-40h-287v40q10 1 26.5 2t24.5 5q26 8 26 49v501q0 21 -6 32.5t-20 16.5q-7 3 -21.5 4t-29.5 3v40h287v-40q-11 -1 -27.5 -2t-24.5 -5q-26 -9 -26 -49v-210h306v210v0z" />
<glyph unicode="&#x41e;" horiz-adv-x="800" d="M49 0zM751 352q0 -78 -26.5 -145t-73.5 -116.5t-113 -77.5t-145 -28q-75 0 -138 25.5t-108.5 72t-71.5 112t-26 146.5q0 82 27 150t74.5 116.5t112.5 75t141 26.5q77 0 141 -27t109.5 -74.5t71 -113t25.5 -142.5zM605 347q0 65 -10 122t-34 99.5t-63.5 67t-99.5 24.5 t-99 -25t-62.5 -68t-32.5 -99.5t-9 -119.5q0 -71 10.5 -128.5t34 -98t62 -63t94.5 -22.5q63 0 103.5 27t64 70.5t32.5 99.5t9 114z" />
<glyph unicode="&#x41f;" horiz-adv-x="807" d="M48 693h712v-40q-11 -1 -27.5 -2t-24.5 -5q-26 -8 -26 -49v-501q0 -21 6 -32.5t20 -16.5q7 -3 21.5 -4t30.5 -3v-40h-288v40q11 1 27.5 2t24.5 5q26 8 26 49v545h-293v-545q0 -21 6.5 -32.5t20.5 -16.5q7 -3 21.5 -4t29.5 -3v-40h-287v40q10 1 26.5 2t24.5 5q26 8 26 49 v501q0 21 -6 32.5t-20 16.5q-7 3 -21.5 4t-29.5 3v40z" />
<glyph unicode="&#x420;" horiz-adv-x="626" d="M48 0zM257 287v-191q0 -40 27 -49q11 -3 25.5 -4t32.5 -3v-40h-294v40q13 1 27.5 2t23.5 5q26 9 26 49v501q0 40 -26 49q-9 3 -21 4t-30 3v40h332q45 0 85.5 -12t71 -36t48 -59.5t17.5 -82.5q0 -48 -18.5 -88t-50.5 -68.5t-75 -44t-92 -15.5h-109zM257 642v-303h67 q70 0 102.5 42.5t32.5 111.5q0 66 -30.5 107.5t-88.5 41.5h-83z" />
<glyph unicode="&#x421;" horiz-adv-x="682" d="M49 0zM401 659q-58 0 -97.5 -25t-63.5 -67.5t-34.5 -98.5t-10.5 -118q0 -71 11 -129t36 -99t63.5 -64t94.5 -23q39 0 69 14.5t52.5 39.5t38 56.5t24.5 66.5h39v-156q-42 -34 -100.5 -52.5t-124.5 -18.5q-78 0 -142.5 26t-110.5 73.5t-71 112.5t-25 143q0 82 27 150 t75 116.5t114 75.5t144 27q58 0 112.5 -14t101.5 -40v-182h-39q-12 43 -28 77.5t-38 58.5t-51 37t-66 13z" />
<glyph unicode="&#x422;" horiz-adv-x="651" d="M27 0zM391 644v-548q0 -40 26 -49q10 -3 21.5 -4t30.5 -3v-40h-288v40l28.5 2t23.5 5q26 9 26 49v548h-41q-34 0 -59 -7t-43 -23t-31 -41t-22 -61h-36v181h596v-181h-36q-9 36 -22 61t-31 41t-42.5 23t-58.5 7h-42z" />
<glyph unicode="&#x423;" horiz-adv-x="677" d="M262 106q22 0 36.5 12.5t28.5 33.5l-236 444q-17 30 -36.5 41t-49.5 15v41h304v-41q-15 -2 -29.5 -5t-26.5 -8.5t-19.5 -15t-7.5 -22.5q0 -11 4 -22l160 -304l131 288q12 24 12 41q0 13 -7 22t-18.5 14.5t-26.5 8t-31 3.5v41h236v-37q-29 -5 -49 -17t-35 -40l-186 -390 q-25 -52 -47 -93.5t-45.5 -70.5t-51.5 -44.5t-65 -15.5q-35 0 -54 18t-19 47t18.5 47.5t47.5 18.5q13 0 21.5 -1.5t14.5 -3.5t12 -3.5t14 -1.5z" />
<glyph unicode="&#x424;" horiz-adv-x="904" d="M517 600q90 0 157 -18t111.5 -50t66 -77t21.5 -100q0 -59 -20 -106.5t-63 -82t-110.5 -53.5t-162.5 -19v-8q0 -21 6 -32.5t20 -16.5q7 -3 22 -4t30 -3v-40h-286v40q11 1 27.5 2t24.5 5q26 9 26 49v8q-90 0 -157.5 17.5t-111.5 50t-66 77.5t-22 100q0 58 20 106t63 82.5 t111 53.5t163 19v7q0 21 -6.5 32.5t-20.5 16.5q-7 3 -21.5 4t-29.5 3v40h286v-40q-11 -1 -27.5 -2t-24.5 -5q-26 -8 -26 -49v-7zM177 345q0 -54 15.5 -92.5t43.5 -63.5t66.5 -37.5t84.5 -12.5v416q-100 -1 -155 -55t-55 -155zM726 349q0 54 -15.5 92.5t-43.5 63.5t-66.5 37 t-83.5 13v-416q100 0 154.5 54t54.5 156z" />
<glyph unicode="&#x425;" horiz-adv-x="675" d="M10 0zM14 693h301v-41q-27 -2 -45 -11t-18 -27q0 -12 10 -29l101 -157l109 149q14 20 14 35q0 19 -18.5 28.5t-46.5 11.5v41h238v-41q-29 -4 -58.5 -21t-53.5 -48l-152 -205l182 -281q17 -26 35.5 -38.5t47.5 -17.5v-41h-304v41q39 3 61.5 14.5t22.5 31.5q0 14 -12 32 l-109 169l-118 -164q-14 -20 -14 -36q0 -18 15.5 -30.5t45.5 -16.5v-41h-238v41q38 8 67 29t49 46l161 222l-166 258q-19 29 -50.5 41.5t-56.5 14.5v41z" />
<glyph unicode="&#x426;" horiz-adv-x="815" d="M257 52h293v545q0 41 -26 49q-8 4 -24.5 5t-27.5 2v40h288v-40q-16 -2 -30.5 -3t-21.5 -4q-14 -5 -20 -16.5t-6 -32.5v-545h100v-202h-36q-8 40 -19.5 68.5t-30 46.5t-46 26.5t-69.5 8.5h-533v40q15 2 29.5 3t21.5 4q14 5 20 16.5t6 32.5v501q0 41 -26 49q-8 4 -24.5 5 t-26.5 2v40h287v-40q-15 -2 -29.5 -3t-21.5 -4q-14 -5 -20.5 -16.5t-6.5 -32.5v-545z" />
<glyph unicode="&#x427;" horiz-adv-x="765" d="M508 597q0 21 -6.5 32.5t-19.5 16.5q-7 3 -22 4t-30 3v40h287v-40q-10 -1 -26.5 -2t-24.5 -5q-26 -8 -26 -49v-501q0 -21 6 -32.5t20 -16.5q7 -3 21.5 -4t29.5 -3v-40h-287v40q11 1 27.5 2t24.5 5q26 9 26 49v218q-46 -18 -93.5 -25.5t-93.5 -7.5q-116 0 -172.5 51.5 t-56.5 166.5v98q0 21 -6 32.5t-20 16.5q-7 3 -21.5 4t-29.5 3v40h287v-40q-11 -1 -27.5 -2t-24.5 -5q-26 -9 -26 -49v-107q0 -71 31 -111t111 -40q51 0 88 7t54 12v239v0z" />
<glyph unicode="&#x428;" horiz-adv-x="1152" d="M48 40q15 2 29.5 3t21.5 4q14 5 20 16.5t6 32.5v501q0 41 -26 49q-8 4 -24.5 5t-26.5 2v40h287v-40q-15 -2 -29.5 -3t-21.5 -4q-14 -5 -20.5 -16.5t-6.5 -32.5v-545h253v545q0 41 -26 49q-8 4 -24.5 5t-27.5 2v40h288v-40q-16 -2 -30.5 -3t-21.5 -4q-14 -5 -20 -16.5 t-6 -32.5v-545h253v545q0 21 -6 32.5t-20 16.5q-7 3 -22 4t-30 3v40h287v-40q-10 -1 -26.5 -2t-24.5 -5q-26 -8 -26 -49v-501q0 -21 6 -32.5t20 -16.5q7 -3 21.5 -4t29.5 -3v-40h-1056v40z" />
<glyph unicode="&#x429;" horiz-adv-x="1160" d="M48 40q15 2 29.5 3t21.5 4q14 5 20 16.5t6 32.5v501q0 41 -26 49q-8 4 -24.5 5t-26.5 2v40h287v-40q-15 -2 -29.5 -3t-21.5 -4q-14 -5 -20.5 -16.5t-6.5 -32.5v-545h253v545q0 41 -26 49q-8 4 -24.5 5t-27.5 2v40h288v-40q-16 -2 -30.5 -3t-21.5 -4q-14 -5 -20 -16.5 t-6 -32.5v-545h253v545q0 21 -6 32.5t-20 16.5q-7 3 -22 4t-30 3v40h287v-40q-10 -1 -26.5 -2t-24.5 -5q-26 -8 -26 -49v-545h99v-202h-36q-8 40 -19.5 68.5t-30 46.5t-46 26.5t-69.5 8.5h-877v40z" />
<glyph unicode="&#x42a;" horiz-adv-x="755" d="M381 411h116q49 0 91.5 -12.5t73.5 -37t49 -60.5t18 -83q0 -49 -19 -89t-52 -68.5t-78 -44.5t-96 -16h-313v40l27.5 2.5t24.5 4.5q26 10 26 49v548h-31q-34 0 -59 -7t-43 -23t-31 -41t-22 -61h-36v181h432v-40l-27.5 -2.5t-24.5 -4.5q-26 -10 -26 -49v-186zM381 359v-308 h67q36 0 62 11.5t43 32.5t25.5 50t8.5 63q0 33 -8 60.5t-24 47.5t-38.5 31.5t-52.5 11.5h-83z" />
<glyph unicode="&#x42b;" horiz-adv-x="968" d="M48 0zM841 96q0 -21 6.5 -32.5t20.5 -16.5q7 -3 21.5 -4t29.5 -3v-40h-287v40q10 1 26.5 2t24.5 5q26 8 26 49v501q0 21 -6 32.5t-20 16.5q-7 3 -21.5 4t-29.5 3v40h287v-40q-11 -1 -27.5 -2t-24.5 -5q-26 -9 -26 -49v-501zM257 411h117q49 0 91 -12.5t73 -37t49 -60.5 t18 -83q0 -49 -19 -89t-52 -68.5t-77.5 -44.5t-95.5 -16h-313v40q10 1 26.5 2.5t24.5 4.5q26 10 26 49v501q0 40 -26 49q-7 3 -21.5 4t-29.5 3v40h287v-40l-27 -2.5t-24 -4.5q-27 -10 -27 -49v-186zM257 359v-308h67q36 0 62 11.5t43.5 32.5t25.5 50t8 63q0 33 -8 60.5 t-23.5 47.5t-38.5 31.5t-53 11.5h-83z" />
<glyph unicode="&#x42c;" horiz-adv-x="631" d="M257 411h117q49 0 91 -12.5t73 -37t49 -60.5t18 -83q0 -49 -19 -89t-52 -68.5t-77.5 -44.5t-95.5 -16h-313v40q10 1 26.5 2.5t24.5 4.5q26 10 26 49v501q0 40 -26 49q-7 3 -21.5 4t-29.5 3v40h287v-40l-27 -2.5t-24 -4.5q-27 -10 -27 -49v-186zM257 359v-308h67 q36 0 62 11.5t43.5 32.5t25.5 50t8 63q0 33 -8 60.5t-23.5 47.5t-38.5 31.5t-53 11.5h-83z" />
<glyph unicode="&#x42d;" horiz-adv-x="681" d="M277 34q59 0 98.5 23.5t64 64t35 95t11.5 116.5h-289v50h288q-3 62 -15 113t-36 87.5t-61.5 56.5t-91.5 20q-40 0 -71 -14.5t-53.5 -39t-38 -56.5t-24.5 -68h-36v156q42 34 100 52.5t124 18.5q78 0 142.5 -26t110.5 -73.5t71.5 -112.5t25.5 -143q0 -82 -27 -150 t-75 -116.5t-114 -75.5t-144 -27q-59 0 -113 14t-101 40v177h36q10 -39 25 -72.5t37 -58t52 -38t69 -13.5z" />
<glyph unicode="&#x42e;" horiz-adv-x="1117" d="M1069 352q0 -78 -26.5 -145t-73 -116.5t-110.5 -77.5t-139 -28q-71 0 -131.5 25t-105.5 71t-70.5 110.5t-26.5 144.5h-129v-240q0 -21 6.5 -32.5t20.5 -16.5q7 -3 21.5 -4t29.5 -3v-40h-287v40q10 1 26.5 2t24.5 5q26 8 26 49v501q0 21 -6 32.5t-20 16.5q-7 3 -21.5 4 t-29.5 3v40h287v-40q-11 -1 -27.5 -2t-24.5 -5q-26 -9 -26 -49v-211h131q7 73 36.5 132.5t75 102t105 65.5t126.5 23q73 0 135 -27t107 -74.5t70.5 -113t25.5 -142.5zM923 347q0 65 -10 122t-33 99.5t-61 67t-93 24.5q-56 0 -93.5 -25t-60 -68t-31.5 -99.5t-9 -119.5 q0 -71 10 -128.5t33 -98t59 -63t89 -22.5q59 0 98 27t61.5 70.5t31.5 99.5t9 114z" />
<glyph unicode="&#x42f;" horiz-adv-x="702" d="M444 289h-94l-176 -289h-176l1 40q37 5 59 23.5t45 53.5l125 197q-62 17 -100.5 62t-38.5 112q0 45 17.5 83t49 65t76 42t98.5 15h324v-40l-27 -2.5t-24 -4.5q-27 -10 -27 -49v-501q0 -40 26 -49q7 -3 22 -4t30 -3v-40h-287v40l27 2.5t24 4.5q26 10 26 49v193zM232 492 q0 -66 33.5 -108.5t107.5 -42.5h71v301h-63q-76 0 -112.5 -42.5t-36.5 -107.5z" />
<glyph unicode="&#x430;" horiz-adv-x="520" d="M39 0zM431 99q0 -38 16 -50.5t47 -12.5h8t9 1v-27q-19 -8 -41.5 -15t-54.5 -7q-60 0 -81.5 24t-21.5 62v1q-24 -38 -63.5 -62t-86.5 -24q-53 0 -88 31.5t-35 87.5q0 57 39.5 90t115.5 51l118 28v21q0 60 -22 85.5t-80 25.5q-32 0 -75 -6t-81 -15v53q49 26 107.5 41.5 t110.5 15.5q78 0 118.5 -41.5t40.5 -135.5v-222zM229 76q21 0 43.5 6t39.5 14v136l-63 -16q-48 -12 -71.5 -27.5t-23.5 -46.5q0 -32 18.5 -49t56.5 -17z" />
<glyph unicode="&#x431;" horiz-adv-x="597" d="M206 640q-11 -41 -19.5 -100.5t-12.5 -122.5q26 38 64 58t92 20q50 0 91.5 -16.5t71.5 -46.5t46.5 -72.5t16.5 -94.5q0 -56 -18 -107t-52 -89.5t-83 -61t-111 -22.5q-109 0 -170.5 67t-61.5 217q0 112 16 194.5t50.5 138.5t90 85.5t135.5 35.5l36 2q36 3 59.5 4.5t38.5 5 t24 9.5t16 17l20 -6q-5 -40 -26 -66.5t-51 -43t-66.5 -23.5t-73.5 -8q-42 -2 -73 7.5t-50 18.5zM426 230q0 46 -7 84.5t-22 65.5t-39.5 42t-58.5 15q-32 0 -53 -13t-34 -36.5t-18 -56t-5 -72.5q0 -46 6.5 -85.5t21.5 -68.5t39 -45.5t59 -16.5q58 0 84.5 48t26.5 139z" />
<glyph unicode="&#x432;" horiz-adv-x="552" d="M101 393q0 40 -26 50q-8 3 -19 4l-22 2v37h280q88 0 134 -32t46 -89q0 -48 -33.5 -78.5t-89.5 -38.5q61 -5 99.5 -31t38.5 -79q0 -68 -49 -103t-144 -35h-282v37l22 2t19 5q26 8 26 49v300zM220 224v-178h53q53 0 80.5 21t27.5 70q0 40 -26 63.5t-80 23.5h-55zM220 441 v-172h43q103 0 103 87q0 47 -26 66t-80 19h-40z" />
<glyph unicode="&#x433;" horiz-adv-x="468" d="M220 439v-346q0 -21 6 -32.5t20 -16.5q7 -3 16 -4t25 -3v-37h-253v37l22 2t19 5q26 8 26 49v300q0 40 -26 50q-8 3 -19 4l-22 2v37h404v-172h-32q-9 34 -19.5 58t-25.5 39t-37 21.5t-54 6.5h-50z" />
<glyph unicode="&#x434;" horiz-adv-x="597" d="M554 486v-37q-15 -1 -24.5 -2.5t-16.5 -3.5q-14 -5 -20 -16.5t-6 -33.5v-345h86v-194h-36q-8 36 -18 63.5t-26 45.5t-40.5 27.5t-61.5 9.5h-195q-39 0 -64.5 -9t-42 -27t-26.5 -45.5t-17 -64.5h-36v194h30q28 6 49.5 33t36.5 72t23.5 105.5t11.5 132.5q2 35 -14.5 45 t-51.5 12v38h459zM219 438q-4 -83 -11 -147t-17.5 -111t-25 -79.5t-33.5 -52.5h236v390h-149z" />
<glyph unicode="&#x435;" horiz-adv-x="514" d="M41 0zM455 48q-38 -32 -89 -47.5t-102 -15.5q-109 0 -166 63.5t-57 172.5q0 62 18 113.5t51.5 88.5t81 57.5t106.5 20.5q78 0 125 -43t53 -124q0 -10 0.5 -21t-0.5 -22l-25 -44h-298q2 -80 38 -126t119 -46q30 0 67.5 5.5t75.5 19.5zM266 443q-51 0 -78 -40t-33 -103h202 q0 7 0.5 13t0.5 13q0 53 -23 85t-69 32z" />
<glyph unicode="&#x436;" horiz-adv-x="840" d="M361 393q0 20 -5 31.5t-18 16.5q-8 4 -19.5 5.5t-22.5 2.5v37h239v-37q-32 -3 -44 -13.5t-12 -42.5v-300q0 -31 13.5 -42t44.5 -14v-37h-234v37q34 2 46 13.5t12 42.5v300zM494 253l113 100q20 17 28 31.5t8 28.5q0 16 -11 27.5t-35 14.5v31h222v-31q-28 -5 -53 -22.5 t-54 -42.5l-114 -102l120 -158q15 -20 27 -34t23.5 -25t25 -19t31.5 -16l-2 -36h-151l-178 237v16zM345 237l-180 -237h-150v36q18 8 32 16t26.5 19t24.5 25t27 34l118 156l-115 104q-29 25 -54 42.5t-54 22.5v31h223v-31q-25 -3 -36 -14.5t-11 -27.5q0 -14 8.5 -28.5 t28.5 -32.5l113 -99z" />
<glyph unicode="&#x437;" horiz-adv-x="492" d="M216 -15q-96 0 -169 37l-5 131l35 4q25 -57 55 -88t80 -31q51 0 81.5 25t30.5 74q0 40 -26 63.5t-80 23.5h-69v47h60q46 0 70.5 21t24.5 65q0 47 -21.5 70t-71.5 23q-25 0 -43.5 -7.5t-32.5 -22.5t-25.5 -37t-21.5 -52l-34 4l6 128q35 18 78.5 28t88.5 10q42 0 79 -7 t65 -22.5t44 -41.5t16 -64q0 -48 -34 -78.5t-87 -38.5q31 -2 57 -10t44.5 -21.5t29 -33t10.5 -46.5q0 -36 -17.5 -64.5t-48.5 -48t-74.5 -30t-94.5 -10.5z" />
<glyph unicode="&#x438;" horiz-adv-x="653" d="M433 370l-229 -370h-170v37l22 2t19 5q26 8 26 49v300q0 40 -26 50q-8 3 -19 4l-22 2v37h253v-37q-16 -1 -25 -2.5t-16 -4.5q-14 -5 -20 -16t-6 -33v-282l229 375h170v-37q-15 -1 -24.5 -2.5t-16.5 -3.5q-14 -5 -20 -16.5t-6 -33.5v-300q0 -40 26 -49q7 -3 16.5 -4 t24.5 -3v-37h-253v37q11 1 22 2.5t19 4.5q14 5 20 16.5t6 32.5v277z" />
<glyph unicode="&#x439;" horiz-adv-x="653" d="M34 0zM433 370l-229 -370h-170v37l22 2t19 5q26 8 26 49v300q0 40 -26 50q-8 3 -19 4l-22 2v37h253v-37q-16 -1 -25 -2.5t-16 -4.5q-14 -5 -20 -16t-6 -33v-282l229 375h170v-37q-15 -1 -24.5 -2.5t-16.5 -3.5q-14 -5 -20 -16.5t-6 -33.5v-300q0 -40 26 -49q7 -3 16.5 -4 t24.5 -3v-37h-253v37q11 1 22 2.5t19 4.5q14 5 20 16.5t6 32.5v277zM491 705q-5 -52 -47.5 -86t-110.5 -34q-31 0 -58.5 7.5t-49 22.5t-35 37.5t-16.5 52.5h98q2 -35 20.5 -55t44.5 -20q35 0 50 21t20 54h84z" />
<glyph unicode="&#x43a;" horiz-adv-x="584" d="M101 393q0 40 -26 50q-8 3 -19 4l-22 2v37h242v-37q-32 -3 -44 -13.5t-12 -42.5v-300q0 -21 6 -32.5t20 -16.5q7 -3 16 -4t25 -3v-37h-253v37l22 2t19 5q26 8 26 49v300zM235 248l121 112q28 26 28 51q0 37 -46 44v31h223v-31q-29 -5 -54.5 -22t-53.5 -43l-114 -104 l127 -157l25 -31t22.5 -23.5t25 -19t32.5 -17.5l-3 -38h-150l-183 233v15z" />
<glyph unicode="&#x43b;" horiz-adv-x="586" d="M366 438h-147q-2 -118 -11 -202.5t-27 -139t-46.5 -80.5t-70.5 -26q-30 0 -44 16t-14 36q0 29 14.5 44.5t43.5 24.5q28 8 47 25t31 49.5t18 82t7 123.5q0 35 -17 45t-52 12v38h454v-37q-15 -1 -24.5 -2.5t-16.5 -3.5q-14 -5 -20 -16.5t-6 -33.5v-300q0 -40 26 -49 q7 -3 16.5 -4t24.5 -3v-37h-252v37q10 1 21 2.5t19 4.5q14 5 20 16.5t6 32.5v345z" />
<glyph unicode="&#x43c;" horiz-adv-x="762" d="M386 184l160 302h182v-37q-15 -1 -24.5 -2.5t-16.5 -3.5q-13 -5 -19 -16.5t-6 -33.5v-300q0 -40 25 -49q7 -3 16.5 -4t24.5 -3v-37h-252v37q10 1 21 2.5t19 4.5q14 5 20.5 16.5t6.5 32.5v277l-175 -332h-35l-175 327l1 -268q0 -41 26 -51q8 -4 20.5 -5.5t23.5 -3.5v-37 h-197v37q30 3 43 8q14 5 21 17t7 35v288q0 22 -6 34t-18 19q-14 8 -46 11v37h192z" />
<glyph unicode="&#x43d;" horiz-adv-x="646" d="M426 222h-206v-129q0 -21 6 -32.5t20 -16.5q7 -3 16 -4t25 -3v-37h-253v37l22 2t19 5q26 8 26 49v300q0 40 -26 50q-8 3 -19 4l-22 2v37h253v-37q-16 -1 -25 -2.5t-16 -4.5q-14 -5 -20 -16t-6 -33v-123h206v123q0 41 -26 49q-8 4 -19 5l-22 2v37h253v-37 q-15 -1 -24.5 -2.5t-16.5 -3.5q-14 -5 -20 -16.5t-6 -33.5v-300q0 -40 26 -49q7 -3 16.5 -4t24.5 -3v-37h-253v37q11 1 22 2.5t19 4.5q14 5 20 16.5t6 32.5v129z" />
<glyph unicode="&#x43e;" d="M41 0zM537 266q0 -56 -18.5 -107t-52.5 -89.5t-83.5 -61.5t-110.5 -23q-51 0 -93.5 16.5t-73 47.5t-47.5 75.5t-17 100.5q0 63 20.5 114t56.5 87t84.5 55.5t104.5 19.5q52 0 94.5 -17t72.5 -47.5t46.5 -74t16.5 -96.5zM407 233q0 47 -7 85.5t-22 66.5t-39.5 43t-58.5 15 q-32 0 -53 -13t-34 -37t-18 -57.5t-5 -73.5q0 -47 6.5 -87t21.5 -69t38.5 -46t58.5 -17q58 0 85 49t27 141z" />
<glyph unicode="&#x43f;" horiz-adv-x="636" d="M416 438h-196v-345q0 -21 6 -32.5t20 -16.5q7 -3 16 -4t25 -3v-37h-253v37l22 2t19 5q26 8 26 49v300q0 40 -26 50q-8 3 -19 4l-22 2v37h568v-37q-15 -1 -24.5 -2.5t-16.5 -3.5q-14 -5 -20 -16.5t-6 -33.5v-300q0 -40 26 -49q7 -3 16.5 -4t24.5 -3v-37h-253v37 q11 1 22 2.5t19 4.5q14 5 20 16.5t6 32.5v345z" />
<glyph unicode="&#x440;" horiz-adv-x="596" d="M18 0zM96 398q0 23 -7 32t-31 9q-8 0 -20 -0.5t-20 -1.5v35l31 9.5t37.5 9.5t39 7t34.5 3q32 0 43.5 -15t11.5 -47v-18q39 44 78 60.5t78 16.5q41 0 75 -15.5t58 -44.5t37.5 -71t13.5 -95q0 -67 -21.5 -120t-59.5 -90t-91 -56.5t-117 -19.5q-27 0 -51 3v-113 q0 -44 34 -50q3 -1 9.5 -1.5t14.5 -1t17 -1t15 -0.5v-39h-276v37l22 2t19 5q26 9 26 49v522zM307 415q-20 0 -42 -5t-50 -19v-330q19 -8 41.5 -12.5t45.5 -4.5q36 0 61.5 15t42 41.5t24.5 62t8 76.5q0 86 -33.5 131t-97.5 45z" />
<glyph unicode="&#x441;" horiz-adv-x="497" d="M41 0zM451 49q-38 -32 -87 -48t-103 -16t-95 17t-68.5 48.5t-42 75.5t-14.5 99q0 61 19 111.5t53 87t81 57t103 20.5q37 0 68 -7.5t53.5 -20t34.5 -30t12 -37.5q0 -29 -17 -46.5t-44 -17.5q-16 0 -26 7.5t-18.5 18.5t-16 24.5t-18 24.5t-25 18.5t-35.5 7.5 q-28 0 -49 -13.5t-34.5 -37.5t-20.5 -56.5t-7 -71.5q0 -87 35.5 -137.5t119.5 -50.5q29 0 64.5 5.5t75.5 19.5l2 -52v0z" />
<glyph unicode="&#x442;" horiz-adv-x="542" d="M212 439h-12q-32 0 -54 -6.5t-37 -21.5t-25.5 -39t-19.5 -58h-33v172h480v-172h-33q-9 34 -19.5 58t-25.5 39t-37 21.5t-54 6.5h-11v-346q0 -21 6 -32.5t20 -16.5q7 -3 16 -4t24 -3v-37h-252v37q10 1 21.5 2t19.5 5q26 9 26 49v346z" />
<glyph unicode="&#x443;" horiz-adv-x="551" d="M10 0zM545 455q-26 -6 -45.5 -26t-30.5 -46l-117 -268h1l-51 -117l-28.5 -63t-45 -74t-66.5 -61.5t-93 -25.5q-26 0 -39.5 13t-13.5 33q0 23 13.5 38t36.5 15q39 0 66 4.5t47.5 17.5t36 36.5t32.5 61.5l-171 408q-11 27 -29 39t-38 15v31h248v-31q-29 0 -44 -13.5 t-7 -34.5l101 -265l91 221q18 42 2 64.5t-53 27.5v31h197v-31z" />
<glyph unicode="&#x444;" horiz-adv-x="801" d="M341 -17q-57 1 -110.5 12.5t-95.5 39.5t-67.5 75.5t-25.5 120.5q0 74 25 125.5t67 83.5t96 47.5t111 17.5v148q0 23 -6.5 32t-29.5 10q-8 0 -20.5 -0.5t-20.5 -1.5v35q12 4 30 9t37.5 9.5t38.5 7t34 2.5q33 0 44.5 -14.5t11.5 -46.5v-190q56 -1 110 -12.5t96 -40t68 -76 t26 -119.5q0 -74 -25.5 -125.5t-67.5 -84t-96 -47.5t-111 -17v-135q0 -21 6 -32.5t20 -16.5q7 -3 16.5 -4t24.5 -3v-37h-253v37l22 2t19 4q26 10 26 50v135zM632 234q0 57 -12.5 98.5t-35 68.5t-54 40t-70.5 14v-425q36 2 67 13t54.5 34.5t37 61.5t13.5 95zM169 254 q0 -57 12.5 -98.5t35 -68t54.5 -40t70 -14.5v425q-36 -2 -67 -13t-54.5 -34.5t-37 -61.5t-13.5 -95z" />
<glyph unicode="&#x445;" horiz-adv-x="545" d="M14 0zM453 86q34 -48 77 -54v-32h-239v32q29 0 36.5 15t-5.5 33l-80 109l-53 -66q-30 -38 -22.5 -62.5t42.5 -28.5v-32h-195v32q26 6 54 24.5t52 47.5l98 119l-128 178q-17 24 -32 37.5t-35 16.5v31h239v-31q-29 0 -42 -15t1 -33l82 -115l55 71q25 32 15 59.5t-45 32.5 v31h195v-31q-26 -6 -51 -26t-45 -46l-99 -125z" />
<glyph unicode="&#x446;" horiz-adv-x="645" d="M101 393q0 40 -26 50q-8 3 -19 4l-22 2v37h253v-37q-16 -1 -25 -2.5t-16 -4.5q-14 -5 -20 -16t-6 -33v-345h196v345q1 40 -26 49q-8 4 -19 5l-22 2v37h253v-37q-15 -1 -24.5 -2.5t-16.5 -3.5q-14 -5 -20 -16.5t-6 -33.5v-345h86v-194h-37q-8 36 -17 63t-25 45t-40 27.5 t-60 10.5h-408v37l22 2t19 5q26 8 26 49v300z" />
<glyph unicode="&#x447;" horiz-adv-x="623" d="M403 245q-14 -12 -31.5 -25t-39 -24t-48 -18t-57.5 -7q-30 0 -56 8.5t-45.5 27.5t-30.5 50t-11 75v61q0 40 -26 49q-8 4 -19 5l-22 2v37h253v-37q-16 -1 -25 -2.5t-16 -3.5q-14 -5 -20 -16.5t-6 -33.5v-31q0 -54 19.5 -84t75.5 -30q38 0 67 6t38 9v130q0 40 -26 49 q-8 4 -19 5l-22 2v37h253v-37q-16 -1 -25 -2.5t-16 -3.5q-14 -5 -20 -16.5t-6 -33.5v-300q0 -40 26 -49q7 -3 16 -4t25 -3v-37h-253v37q11 1 22 2.5t19 4.5q14 5 20 16.5t6 32.5v152z" />
<glyph unicode="&#x448;" horiz-adv-x="911" d="M810 93q0 -40 26 -49q8 -4 19 -5l22 -2v-37h-843v37l22 2t19 5q26 8 26 49v300q0 40 -26 50q-8 3 -19 4l-22 2v37h251v-37q-16 -1 -25.5 -3t-16.5 -5q-23 -10 -23 -48v-345h176v345q0 20 -5 31.5t-19 16.5q-8 4 -19 5.5t-22 2.5v37h249v-37q-30 -1 -42 -9 q-12 -5 -17.5 -16t-5.5 -31v-345h176v345q0 38 -23 48q-7 3 -16.5 5t-25.5 3v37h251v-37q-11 -1 -23 -2.5t-20 -5.5q-24 -10 -24 -48v-300z" />
<glyph unicode="&#x449;" horiz-adv-x="921" d="M34 0v37l22 2t19 5q26 8 26 49v300q0 40 -26 50q-8 3 -19 4l-22 2v37h251v-37q-16 -1 -25.5 -3t-16.5 -5q-23 -10 -23 -48v-345h176v345q0 20 -5 31.5t-19 16.5q-8 4 -19 5.5t-22 2.5v37h249v-37q-30 -1 -42 -9q-12 -5 -17.5 -16t-5.5 -31v-345h176v345q0 38 -23 48 q-7 3 -16.5 5t-25.5 3v37h251v-37q-11 -1 -23 -2.5t-20 -5.5q-24 -10 -24 -48v-345h86v-194h-36q-8 37 -17.5 64.5t-26 45.5t-42 27t-64.5 9h-676z" />
<glyph unicode="&#x44a;" horiz-adv-x="664" d="M218 439h-18q-32 0 -54 -6.5t-37.5 -21.5t-26 -39t-19.5 -58h-32v172h372v-37q-15 -1 -24 -2.5t-16 -4.5q-14 -5 -20 -16t-6 -33v-95h98q94 0 148.5 -34t54.5 -104q0 -79 -56.5 -119.5t-164.5 -40.5h-266v37l22 2t19 5q26 9 26 49v346zM337 250v-202h54q57 0 85 24t28 78 t-27 77t-84 23h-56z" />
<glyph unicode="&#x44b;" horiz-adv-x="805" d="M101 393q0 40 -26 50q-8 3 -19 4l-22 2v37h253v-37q-16 -1 -25 -2.5t-16 -4.5q-14 -5 -20 -16t-6 -33v-95h92q94 0 148.5 -34t54.5 -104q0 -79 -56.5 -119.5t-164.5 -40.5h-260v37l22 2t19 5q26 8 26 49v300zM585 393q0 41 -26 49q-8 4 -19 5l-22 2v37h253v-37 q-15 -1 -24.5 -2.5t-16.5 -3.5q-14 -5 -20 -16.5t-6 -33.5v-300q0 -40 26 -49q7 -3 16.5 -4t24.5 -3v-37h-253v37q11 1 22 2.5t19 4.5q14 5 20 16.5t6 32.5v300zM220 250v-202h48q57 0 85 24t28 78t-27 77t-84 23h-50z" />
<glyph unicode="&#x44c;" horiz-adv-x="547" d="M101 393q0 40 -26 50q-8 3 -19 4l-22 2v37h253v-37q-16 -1 -25 -2.5t-16 -4.5q-14 -5 -20 -16t-6 -33v-95h99q93 0 148 -34t55 -104q0 -79 -56.5 -119.5t-165.5 -40.5h-266v37l22 2t19 5q26 8 26 49v300zM220 250v-202h54q57 0 85 24t28 78t-27 77t-84 23h-56z" />
<glyph unicode="&#x44d;" horiz-adv-x="509" d="M210 450q-50 0 -79.5 -29.5t-49.5 -89.5l-35 4l7 128q36 20 81.5 29t90.5 9q57 0 102 -16.5t76.5 -48t48 -76t16.5 -100.5q0 -62 -20 -113t-55.5 -87t-84 -55.5t-104.5 -19.5q-38 0 -77.5 9t-75.5 28l-5 131l34 4q25 -57 57 -87.5t78 -30.5q34 0 57.5 14t38 38.5t21.5 58 t7 73.5h-197v47h195q-3 39 -11 72t-23 57t-38 37.5t-55 13.5z" />
<glyph unicode="&#x44e;" horiz-adv-x="845" d="M805 262q0 -55 -18 -105t-51.5 -88.5t-81.5 -61t-108 -22.5q-50 0 -92 16t-72.5 46.5t-48 74.5t-18.5 100h-95v-129q0 -21 6 -32.5t20 -16.5q7 -3 16 -4t25 -3v-37h-253v37l22 2t19 5q26 8 26 49v300q0 40 -26 50q-8 3 -19 4l-22 2v37h253v-37q-16 -1 -25 -2.5t-16 -4.5 q-14 -5 -20 -16t-6 -33v-123h98q7 53 29.5 95.5t56.5 72.5t78 46.5t94 16.5q52 0 94 -17t72 -48.5t46.5 -75.5t16.5 -98zM676 233q0 47 -6.5 85.5t-21.5 66.5t-38.5 43t-57.5 15q-32 0 -52.5 -13t-32.5 -37t-17 -57.5t-5 -73.5q0 -47 6 -87t20.5 -69t37.5 -46t58 -17 q58 0 83.5 49t25.5 141z" />
<glyph unicode="&#x44f;" horiz-adv-x="573" d="M16 0v32l26.5 18t22 18t21 22l24.5 29q23 29 48.5 54.5l42.5 42.5q-29 4 -54.5 13.5t-44 25.5t-29 38.5t-10.5 53.5q0 66 55.5 102.5t159.5 36.5h261v-37l-22 -2t-19 -4q-26 -10 -26 -50v-300q0 -40 26 -49q8 -4 19 -5l22 -2v-37h-252v37q15 2 24 3t16 4q14 5 20 16.5 t6 32.5v347h-44q-56 0 -85 -25t-29 -68q0 -53 28.5 -75t87.5 -22h26v-11l-192 -239h-129z" />
<glyph unicode="&#x451;" horiz-adv-x="514" d="M41 0zM119 673q0 32 19 46.5t44 14.5t44 -14.5t19 -46.5t-19 -46.5t-44 -14.5t-44 14.5t-19 46.5zM303 673q0 32 19.5 46.5t44.5 14.5t44 -14.5t19 -46.5t-19 -46.5t-44 -14.5t-44.5 14.5t-19.5 46.5zM455 48q-38 -32 -89 -47.5t-102 -15.5q-109 0 -166 63.5t-57 172.5 q0 62 18 113.5t51.5 88.5t81 57.5t106.5 20.5q78 0 125 -43t53 -124q0 -10 0.5 -21t-0.5 -22l-25 -44h-298q2 -80 38 -126t119 -46q30 0 67.5 5.5t75.5 19.5zM266 443q-51 0 -78 -40t-33 -103h202q0 7 0.5 13t0.5 13q0 53 -23 85t-69 32z" />
<glyph horiz-adv-x="554" d="M284 -15q-121 0 -174.5 92t-53.5 280q0 202 62 302t193 100q90 0 137 -48t47 -124q0 -69 -39.5 -116t-109.5 -62q36 -3 66.5 -16.5t53.5 -36t36 -54.5t13 -72q0 -57 -17 -102.5t-47.5 -77t-73 -48.5t-93.5 -17zM291 41q51 0 73.5 45.5t22.5 132.5q0 47 -10 78t-29 49 t-46.5 24.5t-62.5 4.5q-5 0 -22.5 -1.5t-32.5 -3.5q0 -88 4 -150.5t16 -102t33 -58t54 -18.5zM286 704q-30 0 -50 -17.5t-31 -53.5t-16 -89.5t-5 -125.5q11 1 23.5 2.5t23.5 2.5t18.5 2t9.5 1q55 7 81.5 44t26.5 94q0 69 -21.5 104.5t-59.5 35.5z" />
<glyph horiz-adv-x="463" d="M41 113q0 32 11.5 55t29.5 40.5t41 30l47 24.5q22 10 43 21t37 24.5t25.5 31.5t9.5 43q0 32 -20.5 49.5t-54.5 17.5q-48 0 -72 -29t-43 -89l-36 3l7 128q33 18 76.5 28t96.5 10q36 0 67.5 -7t54.5 -22.5t36.5 -39.5t13.5 -58q0 -33 -11.5 -57.5t-29.5 -42.5t-40.5 -31.5 t-45.5 -24.5l-43 -21t-37.5 -22t-26.5 -28t-10 -38q0 -34 24.5 -53.5t69.5 -19.5q50 0 77 29.5t47 88.5l34 -3l-7 -129q-34 -18 -81.5 -27.5t-99.5 -9.5q-41 0 -75.5 7t-60 22t-40 39.5t-14.5 59.5z" />
<glyph d="M380 84q-29 -36 -64.5 -57.5t-82.5 -21.5q-39 0 -74 16t-61.5 46t-41.5 73.5t-15 98.5q0 61 21 109.5t57.5 82.5t85.5 52t105 18q33 0 63 -6.5t56 -17.5l52 16h18v-443q0 -64 -20 -115t-55 -86.5t-83 -54.5t-104 -19q-80 0 -153 37l-5 131l35 4q25 -57 54.5 -87.5 t81.5 -30.5q73 0 101.5 48t28.5 138v69zM281 86q32 0 54 8t45 22v301q-20 11 -43.5 18.5t-51.5 7.5q-69 0 -98.5 -45t-29.5 -126q0 -88 32 -137t92 -49z" />
<glyph horiz-adv-x="840" d="M360 656q0 23 -6 32t-29 10q-9 0 -21.5 -1t-20.5 -2v35l31 9.5t37.5 9.5t38 7t33.5 3q33 0 43.5 -14.5t10.5 -46.5v-605q0 -37 23 -47q7 -4 17 -5.5t26 -3.5v-37h-248v37q11 1 22.5 2.5t19.5 6.5q23 8 23 47v563zM494 253l113 100q20 17 28 31.5t8 28.5q0 16 -11 27.5 t-35 14.5v31h222v-31q-28 -5 -53 -22.5t-54 -42.5l-114 -102l120 -158q15 -20 27 -34t23.5 -25t25 -19t31.5 -16l-2 -36h-151l-178 237v16zM345 237l-180 -237h-150v36q18 8 32 16t26.5 19t24.5 25t27 34l118 156l-115 104q-29 25 -54 42.5t-54 22.5v31h223v-31 q-25 -3 -36 -14.5t-11 -27.5q0 -14 8.5 -28.5t28.5 -32.5l113 -99z" />
<glyph horiz-adv-x="454" d="M184 -225q-52 0 -92.5 9t-77.5 28l-5 131l35 4q12 -29 25 -51.5t29 -38t36.5 -24t47.5 -8.5q51 0 80 42.5t29 119.5q0 46 -10.5 77t-29 48.5t-43 24t-52.5 3.5h-5.5t-10 -0.5t-10 -1.5t-5.5 -1l-7 37v8q1 0 7.5 1t13.5 2.5t13 2.5t7 1q54 10 79.5 47t25.5 93 q0 62 -25 91.5t-65 29.5q-23 0 -40 -7.5t-30 -22t-23.5 -37t-20.5 -52.5l-35 4l7 128q34 19 75 28.5t86 9.5q90 0 144.5 -42t54.5 -121q0 -66 -41 -110t-113 -56q38 -3 71 -16t57.5 -35t38.5 -53.5t14 -71.5q0 -52 -18 -93t-50 -69.5t-75 -43.5t-92 -15z" />
<glyph horiz-adv-x="614" d="M399 398q0 23 -7 32t-30 9q-8 0 -20.5 -0.5t-20.5 -1.5v35l31 9.5t37.5 9.5t38.5 7t34 3q32 0 44 -15t12 -47v-340q0 -42 20 -53t59 -9l1 -27q-19 -8 -41.5 -15t-54.5 -7q-57 0 -79 21t-24 56q-38 -36 -79.5 -57.5t-93.5 -21.5q-66 0 -100.5 39t-34.5 129v244 q0 24 -7 32.5t-32 8.5q-8 0 -20 -0.5t-19 -1.5v35l31 9.5t37.5 9.5t38.5 7t34 3q32 0 44 -15t12 -47v-254q0 -27 4 -48t15 -35t30 -21t48 -7q24 0 44.5 5t47.5 14v305z" />
<glyph horiz-adv-x="614" d="M13 0zM399 398q0 23 -7 32t-30 9q-8 0 -20.5 -0.5t-20.5 -1.5v35l31 9.5t37.5 9.5t38.5 7t34 3q32 0 44 -15t12 -47v-340q0 -42 20 -53t59 -9l1 -27q-19 -8 -41.5 -15t-54.5 -7q-57 0 -79 21t-24 56q-38 -36 -79.5 -57.5t-93.5 -21.5q-66 0 -100.5 39t-34.5 129v244 q0 24 -7 32.5t-32 8.5q-8 0 -20 -0.5t-19 -1.5v35l31 9.5t37.5 9.5t38.5 7t34 3q32 0 44 -15t12 -47v-254q0 -27 4 -48t15 -35t30 -21t48 -7q24 0 44.5 5t47.5 14v305v0zM460 705q-5 -52 -47.5 -86t-110.5 -34q-31 0 -58.5 7.5t-49 22.5t-35 37.5t-16.5 52.5h98 q2 -35 20.5 -55t44.5 -20q35 0 50 21t20 54h84z" />
<glyph horiz-adv-x="578" d="M15 0zM93 656q0 24 -7 33t-30 9q-8 0 -20.5 -1t-20.5 -2v35l31 9.5t37.5 9.5t38.5 7t34 3q32 0 44 -14.5t12 -46.5v-605q0 -21 6 -32.5t20 -16.5q7 -3 16 -4t24 -3v-37h-252v37l22 2t19 5q26 9 26 49v563zM227 256l122 105q27 25 27 49q2 18 -15.5 31t-50.5 14v31h242 v-31q-28 -3 -54 -21t-53 -44l-114 -101l115 -159q14 -20 27 -34t26.5 -24.5t29.5 -18.5t36 -15l-3 -38h-167l-168 240v16z" />
<glyph horiz-adv-x="563" d="M253 347l-69 -211q-14 -39 -25.5 -67.5t-25 -47.5t-30 -28t-39.5 -9q-32 0 -44.5 17.5t-12.5 34.5q0 28 16.5 41.5t42.5 18.5q32 5 48 29.5t35 69.5l115 299h52l172 -408q11 -27 29 -39t38 -15v-32h-248v32q29 0 44 13.5t7 34.5z" />
<glyph horiz-adv-x="626" d="M27 0zM223 93q0 -21 6 -32.5t20 -16.5q7 -3 16 -4t25 -3v-37h-253v37l22 2t19 5q26 8 26 49v305q0 23 -6.5 32t-29.5 9q-9 0 -21 -0.5t-20 -1.5v35q12 4 30 9.5t37.5 9.5t38.5 7t34 3q33 0 44.5 -15t11.5 -47v-19q38 36 81.5 58.5t94.5 22.5q67 0 102 -39.5t35 -129.5 v-239q0 -21 6 -32.5t20 -16.5q7 -3 16 -4t25 -3v-37h-253v37l22 2t19 5q26 8 26 49v206q0 28 -4 49.5t-15 36.5t-29.5 22.5t-48.5 7.5q-26 0 -47 -5t-50 -15v-302v0z" />
<glyph horiz-adv-x="930" d="M27 0zM223 93q0 -21 6 -32.5t20 -16.5q7 -3 16 -4t25 -3v-37h-253v37l22 2t19 5q26 8 26 49v305q0 23 -7 32t-31 9q-8 0 -20 -0.5t-19 -1.5v35q12 4 30 9.5t37.5 9.5t38.5 7t34 3q33 0 44.5 -15t11.5 -47v-19q38 36 81.5 58.5t94.5 22.5q48 0 79.5 -19.5t45.5 -64.5 q39 37 83 60.5t96 23.5q67 0 102 -39.5t35 -129.5v-239q0 -21 6 -32.5t20 -16.5q7 -3 16.5 -4t24.5 -3v-37h-253v37l22 2t19 5q26 8 26 49v206q0 28 -4 49.5t-15 36.5t-29.5 22.5t-48.5 7.5q-24 0 -45.5 -5t-48.5 -14q6 -29 6 -64v-239q0 -21 6 -32.5t20 -16.5q7 -3 16 -4 t25 -3v-37h-253v37l22 2t19 5q26 8 26 49v206q0 28 -4 49.5t-15 36.5t-29.5 22.5t-48.5 7.5q-26 0 -47 -5t-50 -15v-302v0z" />
<glyph horiz-adv-x="617" d="M399 65q-38 -36 -79.5 -57.5t-93.5 -21.5q-66 0 -100.5 39t-34.5 129v244q0 24 -7 32.5t-32 8.5q-8 0 -20 -0.5t-19 -1.5v35l31 9.5t37.5 9.5t38.5 7t34 3q32 0 44 -15t12 -47v-254q0 -27 4 -48t15 -35t30 -21t48 -7q24 0 44.5 5t47.5 14v305q0 23 -7 32t-30 9 q-8 0 -20.5 -0.5t-20.5 -1.5v35l31 9.5t37.5 9.5t38.5 7t34 3q32 0 44 -15t12 -47v-391h85v-194h-36q-8 37 -16 64.5t-20.5 45.5t-32.5 27t-50 9h-27l-1 2l-21 -2v65z" />
<glyph horiz-adv-x="890" d="M300 74q24 0 44.5 4t43.5 15q-2 14 -3.5 29t-1.5 32v244q0 24 -6 32.5t-32 8.5q-8 0 -19.5 -0.5t-18.5 -1.5v35l30.5 9.5t37 9.5t38 7t33.5 3q33 0 44.5 -15t11.5 -47v-254q0 -27 3.5 -48t13 -35t27 -21t46.5 -7q22 0 39.5 5t43.5 14v305q0 23 -6 32t-29 9 q-8 0 -20.5 -0.5t-20.5 -1.5v35l30.5 9.5t37 9.5t38.5 7t34 3q32 0 43.5 -15t11.5 -47v-340q0 -42 20 -53t59 -9l1 -27q-19 -8 -41.5 -15t-53.5 -7q-57 0 -79.5 20.5t-24.5 55.5q-36 -35 -73.5 -56.5t-90.5 -21.5q-91 0 -118 88q-40 -40 -79.5 -64t-94.5 -24q-61 0 -94.5 39 t-33.5 129v244q0 24 -7 32.5t-32 8.5q-8 0 -20 -0.5t-19 -1.5v35l31 9.5t37.5 9.5t38.5 7t34 3q32 0 44 -15t12 -47v-254q0 -55 18.5 -83t71.5 -28z" />
<glyph horiz-adv-x="893" d="M675 64q-36 -35 -73.5 -56.5t-90.5 -21.5q-91 0 -118 88q-40 -40 -79.5 -64t-94.5 -24q-61 0 -94.5 39t-33.5 129v244q0 24 -7 32.5t-32 8.5q-8 0 -20 -0.5t-19 -1.5v35l31 9.5t37.5 9.5t38.5 7t34 3q32 0 44 -15t12 -47v-254q0 -55 18.5 -83t71.5 -28q24 0 44.5 4 t43.5 15q-2 14 -3.5 29t-1.5 32v244q0 24 -6 32.5t-32 8.5q-8 0 -19.5 -0.5t-18.5 -1.5v35l30.5 9.5t37 9.5t38 7t33.5 3q33 0 44.5 -15t11.5 -47v-254q0 -27 3.5 -48t13 -35t27 -21t46.5 -7q22 0 39.5 5t43.5 14v305q0 23 -6.5 32t-30.5 9q-8 0 -20 -0.5t-20 -1.5v35 l31 9.5t37.5 9.5t38.5 7t34 3q32 0 43.5 -15t11.5 -47v-391h85v-194h-36q-8 37 -16 64.5t-20.5 45.5t-32 27t-49.5 9h-27l-1 2l-22 -2v64z" />
<glyph horiz-adv-x="570" d="M124 175q0 45 13 84t32.5 72.5t43 60.5t44.5 47h-55q-33 0 -55 -6t-37.5 -20t-26 -38.5t-19.5 -60.5h-32v172h308v-22q-29 -38 -49 -80t-32 -87q14 2 35 4t50 2q41 0 77.5 -7.5t64 -24.5t43.5 -44.5t16 -67.5q0 -43 -16 -75.5t-45 -54.5t-69.5 -33t-88.5 -11 q-92 0 -147 45.5t-55 144.5zM311 255q-19 0 -35 -1.5l-27 -2.5q-6 -38 -6 -74q-1 -71 17.5 -107.5t65.5 -36.5q45 0 68 31t23 88q0 49 -26 76t-80 27z" />
<glyph horiz-adv-x="535" d="M207 301q10 2 34 5.5t60 3.5q104 0 156.5 -37.5t52.5 -109.5q0 -43 -16 -76.5t-45 -56t-69.5 -34t-89.5 -11.5q-45 0 -82.5 9t-64 29t-41 52.5t-14.5 80.5v242q0 24 -6.5 32.5t-31.5 8.5q-8 0 -20 -0.5t-19 -1.5v35l31 9.5t37.5 9.5t38.5 7t34 3q32 0 43.5 -15t11.5 -47 v-138zM276 262q-23 0 -41 -1.5t-28 -3.5v-104q0 -57 18.5 -88.5t64.5 -31.5q48 0 70 32.5t22 89.5q0 107 -106 107z" />
<glyph horiz-adv-x="834" d="M93 656q0 23 -6.5 32t-29.5 10q-8 0 -21 -1t-21 -2v35l31 9.5t37.5 9.5t38.5 7t34 3q32 0 44 -14.5t12 -46.5v-428h94q7 53 29.5 95.5t57 72.5t78.5 46.5t94 16.5q51 0 93.5 -17t72.5 -48.5t46.5 -75.5t16.5 -98q0 -55 -18 -105t-51.5 -88.5t-81.5 -61t-109 -22.5 q-50 0 -92 16t-72.5 46.5t-48 74.5t-18.5 100h-91v-129q0 -21 6 -32.5t20 -16.5q7 -3 16 -4t24 -3v-37h-252v37l22 2t19 5q26 9 26 49v563zM664 233q0 47 -6.5 85.5t-21 66.5t-38.5 43t-58 15q-32 0 -52.5 -13t-32.5 -37t-17 -57.5t-5 -73.5q0 -47 6 -87t20.5 -69t38 -46 t58.5 -17q57 0 82.5 49t25.5 141z" />
<glyph horiz-adv-x="468" d="M34 0zM220 439v-346q0 -21 6 -32.5t20 -16.5q7 -3 16 -4t25 -3v-37h-253v37l22 2t19 5q26 8 26 49v300q0 40 -26 50q-8 3 -19 4l-22 2v37h404v-172h-32q-9 34 -19.5 58t-25.5 39t-37 21.5t-54 6.5h-50z" />
<glyph d="M537 253q0 -55 -18.5 -103.5t-52.5 -85t-83.5 -58t-110.5 -21.5q-51 0 -93.5 15t-73 44.5t-47.5 72t-17 97.5q0 60 18 107t50.5 79.5t76.5 50t97 17.5q33 0 62 -8q-29 16 -61 28l-62 23t-57 22.5t-47.5 27t-32.5 35.5t-12 48q0 45 36.5 72.5t99.5 27.5h178q46 0 65 11 t29 28h34l-24 -137h-270q-51 0 -51 -31q0 -21 27 -35.5t68 -30.5t88.5 -36.5t88.5 -54t68 -83t27 -122.5zM407 220q0 92 -29 144.5t-98 52.5q-32 0 -53 -11.5t-34 -33t-18 -53t-5 -70.5q0 -45 6.5 -83t21.5 -65.5t38.5 -42.5t58.5 -15q58 0 85 43.5t27 133.5z" />
<glyph horiz-adv-x="597" d="M10 0zM554 486v-37q-15 -1 -24.5 -2.5t-16.5 -3.5q-14 -5 -20 -16.5t-6 -33.5v-345h86v-194h-36q-8 36 -18 63.5t-26 45.5t-40.5 27.5t-61.5 9.5h-195q-39 0 -64.5 -9t-42 -27t-26.5 -45.5t-17 -64.5h-36v194h30q28 6 49.5 33t36.5 72t23.5 105.5t11.5 132.5 q2 35 -14.5 45t-51.5 12v38h459zM219 438q-4 -83 -11 -147t-17.5 -111t-25 -79.5t-33.5 -52.5h236v390h-149z" />
<glyph horiz-adv-x="636" d="M34 0zM416 438h-196v-345q0 -21 6 -32.5t20 -16.5q7 -3 16 -4t25 -3v-37h-253v37l22 2t19 5q26 8 26 49v300q0 40 -26 50q-8 3 -19 4l-22 2v37h568v-37q-15 -1 -24.5 -2.5t-16.5 -3.5q-14 -5 -20 -16.5t-6 -33.5v-300q0 -40 26 -49q7 -3 16.5 -4t24.5 -3v-37h-253v37 q11 1 22 2.5t19 4.5q14 5 20 16.5t6 32.5v345z" />
<glyph horiz-adv-x="542" d="M31 0zM212 439h-12q-32 0 -54 -6.5t-37 -21.5t-25.5 -39t-19.5 -58h-33v172h480v-172h-33q-9 34 -19.5 58t-25.5 39t-37 21.5t-54 6.5h-11v-346q0 -21 6 -32.5t20 -16.5q7 -3 16 -4t24 -3v-37h-252v37q10 1 21.5 2t19.5 5q26 9 26 49v346z" />
<glyph unicode="&#xb4;" horiz-adv-x="427" d="M344 737l-165 -162h-32l-4 10l85 163h112z" />
<glyph unicode="`" horiz-adv-x="427" d="M129 748h112l88 -163l-4 -10h-34l-166 162z" />
<glyph unicode="&#x2c6;" horiz-adv-x="502" d="M403 579l-4 -11h-46l-95 94l-93 -94h-35l-4 11l112 161h52z" />
<glyph unicode="&#xa8;" horiz-adv-x="477" d="M82 673q0 32 19 46.5t44 14.5t44 -14.5t19 -46.5t-19 -46.5t-44 -14.5t-44 14.5t-19 46.5zM266 673q0 32 19.5 46.5t44.5 14.5t44 -14.5t19 -46.5t-19 -46.5t-44 -14.5t-44.5 14.5t-19.5 46.5z" />
<glyph unicode="&#x2dc;" horiz-adv-x="467" d="M383 720q-1 -50 -24.5 -84t-71.5 -34q-23 0 -42 6.5t-35 15t-29.5 15t-24.5 6.5q-32 0 -41 -47h-37q0 23 6 44.5t17 38t28 26t39 9.5q19 0 36.5 -6.5t33.5 -15t30 -15t27 -6.5q20 0 33 12t16 35h39z" />
<glyph unicode="&#xb8;" horiz-adv-x="504" d="M351 -138q0 -42 -35.5 -65t-90.5 -23q-20 0 -38.5 2.5t-36.5 7.5v58q17 -6 37.5 -10.5t37.5 -4.5q20 0 32.5 7t12.5 22q0 10 -5.5 16t-13.5 9.5t-17.5 5t-18.5 1.5h-11.5t-9.5 -1v121h51v-66q20 0 39 -4.5t34 -14.5t24 -25t9 -36z" />
<glyph horiz-adv-x="372" d="M298 855l-176 -122h-35l-4 10l96 123h115z" />
<glyph horiz-adv-x="428" d="M193 871h49l116 -132l-4 -10h-43l-99 66l-96 -66h-36l-4 10z" />
<glyph horiz-adv-x="433" d="M69 799q0 31 18 45t42 14q25 0 43.5 -14t18.5 -45q0 -32 -18.5 -45.5t-43.5 -13.5q-24 0 -42 13.5t-18 45.5zM246 799q0 31 19 45t43 14t42.5 -14t18.5 -45q0 -32 -18.5 -45.5t-42.5 -13.5t-43 13.5t-19 45.5z" />
<glyph horiz-adv-x="372" d="M81 866h115l96 -123l-4 -10h-35l-176 122z" />
<glyph horiz-adv-x="470" d="M383 850q-2 -45 -23.5 -77t-70.5 -32q-23 0 -42 6.5t-35.5 15l-30 15t-24.5 6.5q-32 0 -41 -47h-36q2 45 23 76.5t68 31.5q19 0 36.5 -6.5t32.5 -14.5t29 -14.5t27 -6.5q20 0 33 12t16 35h38z" />
<glyph horiz-adv-x="597" d="M452 854q-7 -51 -47 -83t-108 -32q-62 0 -104.5 28t-51.5 87h95q3 -33 21 -51.5t44 -18.5q35 0 50.5 19t19.5 51h81z" />
<glyph horiz-adv-x="622" d="M466 705q-5 -52 -47.5 -86t-110.5 -34q-31 0 -58.5 7.5t-49 22.5t-35 37.5t-16.5 52.5h98q2 -35 20.5 -55t44.5 -20q35 0 50 21t20 54h84z" />
<glyph unicode="&#x2122;" horiz-adv-x="1033" d="M963 759v-34q-6 -1 -16.5 -2t-15.5 -3q-15 -6 -16 -30v-214q0 -23 16 -30q4 -2 13.5 -3l18.5 -2v-34h-177v34q6 1 17 1.5t16 3.5q15 6 15 30v198l-119 -206h-23l-119 208v-179q0 -31 19 -44q15 -11 40 -14v-32h-164v32q23 3 37 11q10 6 16 17.5t6 29.5v183q0 28 -16 36 q-4 4 -15 6t-23 3v34h140l109 -195l113 195h128zM294 720v-244q0 -25 16 -31q6 -2 13 -2.5t18 -1.5v-34h-176v34q8 1 16.5 1.5t13.5 2.5q16 5 16 31v244h-18q-42 0 -62.5 -16.5t-32.5 -61.5h-29v117h368v-117h-30q-11 45 -32 61.5t-63 16.5h-18z" />
<glyph unicode="&#xae;" horiz-adv-x="612" d="M306 243q-52 0 -98 17t-80.5 49.5t-55 80.5t-20.5 111t20.5 111t55 80.5t80.5 49.5t98 17t98 -17t80.5 -49.5t55 -80.5t20.5 -111t-20.5 -111t-55 -80.5t-80.5 -49.5t-98 -17zM306 287q44 0 81.5 14t64.5 41.5t42.5 67.5t15.5 91t-15.5 91t-42.5 67.5t-64.5 41.5 t-81.5 14t-81.5 -14t-64.5 -41.5t-42.5 -67.5t-15.5 -91t15.5 -91t42.5 -67.5t64.5 -41.5t81.5 -14zM214 599q0 14 -9 17q-4 2 -8 2t-11 1v21h140q34 0 58.5 -16.5t24.5 -51.5q0 -26 -17.5 -44.5t-42.5 -26.5l52 -66q11 -14 20.5 -20t23.5 -8v-21h-79l-74 109h-19v-68 q0 -13 7 -16q7 -2 24 -4v-21h-118v21l19 3q9 4 9 17v172zM273 612v-90h23q27 0 38.5 10.5t11.5 36.5q0 23 -11.5 33t-32.5 10h-29z" />
<glyph unicode="&#xa9;" horiz-adv-x="683" d="M342 -9q-58 0 -109.5 18.5t-90.5 55t-61.5 90t-22.5 123.5t22.5 123.5t61.5 90t90.5 55t109.5 18.5q57 0 108.5 -18.5t90.5 -55t61.5 -90t22.5 -123.5t-22.5 -123.5t-61.5 -90t-90.5 -55t-108.5 -18.5zM342 32q52 0 95 15.5t74 46t48 76.5t17 108q0 57 -17 103t-48 77.5 t-74 48.5t-95 17q-50 0 -93 -15.5t-74.5 -46t-50 -77t-18.5 -107.5q0 -62 18.5 -108t50.5 -76.5t75 -46t92 -15.5zM456 154q-25 -20 -57 -31t-67 -11q-70 0 -107 42t-37 114q0 40 12.5 73t35 56.5t53 36.5t67.5 13q49 0 79.5 -17.5t30.5 -43.5q0 -19 -11.5 -30t-29.5 -11 q-15 0 -23.5 9t-16 19.5t-19 19.5t-32.5 9q-36 0 -51 -29t-15 -80q0 -56 21 -89t76 -33q37 0 90 17z" />
<glyph unicode="&#x20ac;" horiz-adv-x="699" d="M44 461h80q15 57 44.5 102.5t71 78t92.5 50t110 17.5q34 0 70.5 -6.5t65.5 -19.5t48 -32.5t19 -45.5q0 -29 -17 -43t-39 -14q-26 0 -42 17.5t-31.5 38.5t-37 38.5t-58.5 17.5q-36 0 -63 -15t-46 -41.5t-31.5 -63t-18.5 -79.5h197v-50h-202q-2 -16 -2 -31.5v-31.5v-23.5 t1 -22.5h203v-50h-199q12 -100 52.5 -159t116.5 -59q37 0 57 16t34.5 35.5t29.5 36t43 16.5q20 0 36 -11.5t16 -39.5q0 -26 -18 -45t-47 -32t-65 -19t-72 -6q-65 0 -119.5 19t-96.5 54.5t-70 84.5t-40 109h-72v50h65q-1 9 -1 18v19q0 19 1.5 37t3.5 35h-69v50z" />
<glyph unicode="$" horiz-adv-x="579" d="M316 827v-119q40 -1 78 -8.5t67.5 -20.5t47 -31t17.5 -41q0 -26 -13.5 -41.5t-36.5 -15.5q-27 0 -44.5 14.5t-33.5 33.5t-34.5 36.5t-47.5 22.5v-234l35 -13q37 -13 71 -30.5t60 -42t41.5 -57.5t15.5 -78q0 -44 -17 -81t-46.5 -65t-70.5 -45.5t-89 -22.5v-147h-55v144 q-39 1 -78.5 9t-71 21.5t-51.5 32.5t-20 43q0 26 18 42.5t44 16.5q21 0 38 -15t34 -34t37.5 -37t49.5 -25v243l-36 14q-32 12 -63 28t-55.5 39.5t-39.5 55.5t-15 76q0 38 13.5 73.5t39.5 64t65.5 47.5t90.5 25v122h55zM425 147q0 23 -8.5 40.5t-23.5 31t-35 24t-42 19.5 v-224q51 7 80 37t29 72zM160 553q0 -42 29 -67t72 -43v213q-46 -8 -73.5 -36t-27.5 -67z" />
<glyph unicode="&#xa2;" horiz-adv-x="528" d="M321 623v-122q35 -1 65 -9t52 -20.5t34.5 -29.5t12.5 -36q0 -29 -17.5 -46.5t-44.5 -17.5q-18 0 -30 10t-22.5 24.5l-22 29.5t-27.5 25v-355q29 0 68.5 5.5t79.5 19.5l2 -52q-31 -26 -69.5 -40.5t-80.5 -20.5v-139h-55v136q-52 1 -93 18.5t-69 48.5t-43 75t-15 98 q0 55 16.5 101.5t45.5 82t69.5 58.5t88.5 30v126h55zM159 264q0 -72 25.5 -119t81.5 -62v359q-26 -3 -45.5 -17t-33.5 -37.5t-21 -55t-7 -68.5z" />
<glyph unicode="&#xa3;" horiz-adv-x="617" d="M54 361h77q0 10 -0.5 19.5t-0.5 20.5q0 72 19.5 129.5t54.5 97t83.5 60.5t106.5 21q34 0 64.5 -7t53.5 -20t36 -31.5t13 -40.5q0 -23 -15.5 -39t-44.5 -15q-30 1 -43.5 18t-24 37t-25 36.5t-47.5 16.5q-27 0 -46.5 -14t-32.5 -46t-19 -85.5t-6 -131.5v-26h192v-50h-197 q-5 -41 -23 -90.5t-60 -110.5h394l3 -10l-36 -100h-476l-7 35q33 39 51.5 75t27 70.5t9.5 66.5t-1 64h-80v50z" />
<glyph unicode="&#xa5;" horiz-adv-x="722" d="M98 349h167l-140 247q-17 26 -35.5 38.5t-50.5 17.5v41h304v-41q-17 -2 -33 -3.5t-24 -3.5t-15.5 -6t-12.5 -10.5t-6 -14.5t5 -18l134 -251l130 237q12 21 6.5 39.5t-25.5 23.5q-7 2 -23.5 3.5t-33.5 3.5v41h242v-35q-29 -3 -52.5 -19.5t-41.5 -42.5l-142 -247h167v-50 h-194v-89h194v-50h-194v-64q0 -21 6 -32.5t20 -16.5q7 -3 21.5 -4t29.5 -3v-40h-287v40q11 1 27.5 2t24.5 5q26 9 26 49v64h-194v50h194v89h-194v50z" />
<glyph unicode="&#xa4;" horiz-adv-x="523" d="M466 111l-42 -42l-92 90q-32 -21 -71 -21q-18 0 -37 5.5t-34 15.5l-92 -91l-41 44l89 91q-9 15 -14.5 33.5t-5.5 36.5q0 38 20 70l-89 93l43 42l90 -91q13 9 34.5 15t36.5 6q19 0 38 -6t32 -14l91 90l44 -42l-91 -93q21 -32 21 -70q0 -19 -6 -38t-15 -32zM340 273 q0 16 -6.5 31t-17 26t-25 17.5t-30.5 6.5q-33 0 -56 -23.5t-23 -57.5q0 -33 23 -57t56 -24q16 0 30.5 6.5t25 17.5t17 25.5t6.5 31.5z" />
<glyph unicode="B" horiz-adv-x="672" d="M48 0v40q10 1 26.5 2t24.5 5q26 8 26 49v501q0 40 -26 49q-7 3 -21.5 4t-29.5 3v40h305q107 0 168.5 -41.5t61.5 -121.5q0 -28 -11.5 -54t-33.5 -48t-54 -37.5t-72 -22.5v-4q109 -4 161.5 -51.5t52.5 -117.5q0 -51 -23 -88t-60 -61t-84 -35t-94 -11h-317zM486 193 q0 27 -9 52t-29.5 44.5t-53.5 31t-81 11.5h-56v-281h68q85 0 123 38t38 104zM257 642v-261h40q73 0 107 34.5t34 96.5q0 68 -33.5 99t-91.5 31h-56z" />
<glyph unicode="A" horiz-adv-x="693" d="M423 240h-226l-54 -144q-7 -18 1 -31t28 -18q7 -2 23.5 -3.5t33.5 -3.5v-40h-231v40q11 1 23.5 4.5t20.5 6.5q15 5 24 15.5t16 29.5l238 610h64l219 -610q7 -20 16 -30t24 -15q8 -3 19.5 -6.5t22.5 -4.5v-40h-293v40q16 2 30.5 4t22.5 4q14 5 23.5 16.5t2.5 31.5z M217 293h188l-87 263z" />
<glyph horiz-adv-x="693" d="M0 0z" />
</font>
</defs>
</svg>
