<svg xmlns="http://www.w3.org/2000/svg">
<defs>
<font id="a3d938175ac06cb8 - subset of Typothequetypefoundry: Lava Pro Med Ita: 2013" horiz-adv-x="1148"><font-face font-family="a3d938175ac06cb8 - subset of Lava Pro Med" font-weight="500" font-stretch="normal" units-per-em="1000" panose-1="2 0 0 0 0 0 0 0 0 0" ascent="913" descent="-284" x-height="0" bbox="-206 -226 1172 860" underline-thickness="50" underline-position="-75" unicode-range="U+0020-2122" /><missing-glyph horiz-adv-x="712" d="M305 402 l27 0 l0 -27 l-27 0 l0 27 ZM380 552 l27 0 l0 -27 l-27 0 l0 27 ZM305 552 l27 0 l0 -27 l-27 0 l0 27 ZM230 552 l27 0 l0 -27 l-27 0 l0 27 ZM80 27 l27 0 l0 -27 l-27 0 l0 27 ZM155 27 l27 0 l0 -27 l-27 0 l0 27 ZM230 27 l27 0 l0 -27 l-27 0 l0 27 ZM305 27 l27 0 l0 -27 l-27 0 l0 27 ZM380 27 l27 0 l0 -27 l-27 0 l0 27 ZM80 102 l27 0 l0 -27 l-27 0 l0 27 ZM80 177 l27 0 l0 -27 l-27 0 l0 27 ZM80 252 l27 0 l0 -27 l-27 0 l0 27 ZM80 327 l27 0 l0 -27 l-27 0 l0 27 ZM80 402 l27 0 l0 -27 l-27 0 l0 27 ZM80 477 l27 0 l0 -27 l-27 0 l0 27 ZM80 552 l27 0 l0 -27 l-27 0 l0 27 ZM80 627 l27 0 l0 -27 l-27 0 l0 27 ZM80 702 l27 0 l0 -27 l-27 0 l0 27 ZM155 702 l27 0 l0 -27 l-27 0 l0 27 ZM230 702 l27 0 l0 -27 l-27 0 l0 27 ZM305 702 l27 0 l0 -27 l-27 0 l0 27 ZM380 702 l27 0 l0 -27 l-27 0 l0 27 ZM455 702 l27 0 l0 -27 l-27 0 l0 27 ZM530 702 l27 0 l0 -27 l-27 0 l0 27 ZM530 27 l27 0 l0 -27 l-27 0 l0 27 ZM455 27 l27 0 l0 -27 l-27 0 l0 27 ZM605 27 l27 0 l0 -27 l-27 0 l0 27 ZM605 702 l27 0 l0 -27 l-27 0 l0 27 ZM305 327 l27 0 l0 -27 l-27 0 l0 27 ZM305 177 l27 0 l0 -27 l-27 0 l0 27 ZM380 402 l27 0 l0 -27 l-27 0 l0 27 ZM455 402 l27 0 l0 -27 l-27 0 l0 27 ZM455 477 l27 0 l0 -27 l-27 0 l0 27 ZM455 552 l27 0 l0 -27 l-27 0 l0 27 ZM605 627 l27 0 l0 -27 l-27 0 l0 27 ZM605 552 l27 0 l0 -27 l-27 0 l0 27 ZM605 402 l27 0 l0 -27 l-27 0 l0 27 ZM605 327 l27 0 l0 -27 l-27 0 l0 27 ZM605 177 l27 0 l0 -27 l-27 0 l0 27 ZM605 102 l27 0 l0 -27 l-27 0 l0 27 ZM605 252 l27 0 l0 -27 l-27 0 l0 27 ZM605 477 l27 0 l0 -27 l-27 0 l0 27 Z" /><glyph glyph-name="space" unicode=" " d="" /><glyph glyph-name="C" unicode="c" d="M489 660 q-52 0 -95.5 -22 q-43.5 -22 -77.5 -58.5 q-34 -36.5 -59.5 -84 q-25.5 -47.5 -42 -98.5 q-16.5 -51 -25 -102 q-8.5 -51 -8.5 -94 q0 -80 33.5 -123.5 q33.5 -43.5 110.5 -43.5 q43 0 78 14 q35 14 63.5 38 q28.5 24 52 56 q23.5 32 42.5 67 l36 0 l-38 -153 q-51 -34 -114 -52.5 q-63 -18.5 -129 -18.5 q-65 0 -114 18 q-49 18 -82.5 51.5 q-33.5 33.5 -50.5 80.5 q-17 47 -17 105 q0 60 16 118 q16 58 45.5 110 q29.5 52 71 96 q41.5 44 92.5 76.5 q51 32.5 110 50.5 q59 18 123 18 q56 0 107 -14 q51 -14 91 -40 l-44 -179 l-36 0 q-1 41 -8 75 q-7 34 -23 58 q-16 24 -42.5 37.5 q-26.5 13.5 -65.5 13.5 Z" /><glyph glyph-name="D" unicode="d" d="M722 457 q0 -87 -33.5 -169 q-33.5 -82 -93.5 -146 q-60 -64 -142 -103 q-82 -39 -178 -39 l-296 0 l10 40 q16 1 29.5 2 q13.5 1 23.5 5 q28 9 38 49 l124 501 q10 39 -14 49 q-8 3 -20 4 q-12 1 -29 3 l10 40 l308 0 q130 0 196.5 -60.5 q66.5 -60.5 66.5 -175.5 ZM276 51 q52 0 95.5 18.5 q43.5 18.5 78 50 q34.5 31.5 60.5 73.5 q26 42 43.5 88.5 q17.5 46.5 26 94.5 q8.5 48 8.5 93 q0 81 -36.5 127 q-36.5 46 -124.5 46 l-89 0 l-147 -591 l85 0 Z" /><glyph glyph-name="E" unicode="e" d="M-11 40 q11 1 28.5 2.5 q17.5 1.5 26.5 5.5 q16 5 24 17.5 q8 12.5 14 34.5 l122 493 q6 23 3.5 35 q-2.5 12 -15.5 17 q-6 3 -20 4.5 q-14 1.5 -31 3.5 l10 40 l489 0 l-28 -170 l-39 0 q0 36 -6.5 59 q-6.5 23 -20.5 36.5 q-14 13.5 -36.5 18.5 q-22.5 5 -55.5 5 l-116 0 l-65 -260 l92 0 q23 0 36.5 6 q13.5 6 22.5 20 q6 8 12.5 25.5 q6.5 17.5 11.5 35.5 l43 0 l-56 -225 l-43 0 q2 12 5 31 q3 19 1 28 q-3 28 -46 28 l-92 0 l-69 -280 l132 0 q37 0 63.5 7.5 q26.5 7.5 48.5 25 q22 17.5 42.5 46 q20.5 28.5 45.5 71.5 l34 -4 l-66 -197 l-512 0 l10 40 Z" /><glyph glyph-name="F" unicode="f" d="M204 593 q5 23 2.5 35 q-2.5 12 -15.5 17 q-5 3 -19 4.5 q-14 1.5 -31 3.5 l10 40 l503 0 l-42 -170 l-39 0 q-1 36 -7.5 59 q-6.5 23 -20.5 36.5 q-14 13.5 -36 18.5 q-22 5 -55 5 l-116 0 l-69 -277 l95 0 q23 0 36.5 6 q13.5 6 22.5 20 q6 8 12.5 25.5 q6.5 17.5 11.5 35.5 l43 0 l-56 -225 l-43 0 q2 12 5.5 31 q3.5 19 1.5 29 q-4 27 -47 27 l-95 0 l-53 -216 q-5 -22 -1.5 -33.5 q3.5 -11.5 15.5 -16.5 q7 -3 22.5 -4.5 q15.5 -1.5 32.5 -3.5 l-11 -40 l-283 0 l11 40 q11 1 27.5 2 q16.5 1 25.5 5 q16 5 24.5 17 q8.5 12 14.5 32 l123 497 Z" /><glyph glyph-name="G" unicode="g" d="M571 48 q-23 -13 -51.5 -24.5 q-28.5 -11.5 -61.5 -20.5 q-33 -9 -68.5 -13.5 q-35.5 -4.5 -71.5 -4.5 q-131 2 -198.5 70 q-67.5 68 -67.5 186 q0 91 36.5 175.5 q36.5 84.5 99.5 149.5 q63 65 148 104 q85 39 182 39 q58 0 111.5 -14 q53.5 -14 92.5 -40 l-44 -179 l-37 0 q-1 42 -8 76 q-7 34 -23.5 58 q-16.5 24 -44 37 q-27.5 13 -67.5 13 q-52 0 -95.5 -21 q-43.5 -21 -78.5 -56.5 q-35 -35.5 -61.5 -82 q-26.5 -46.5 -44 -97 q-17.5 -50.5 -26 -101.5 q-8.5 -51 -8.5 -96 q0 -82 36 -127 q36 -45 120 -45 q27 0 55 5.5 q28 5.5 56 17.5 l43 173 q11 41 -14 49 q-8 3 -25.5 4 q-17.5 1 -31.5 3 l11 40 l262 0 l-10 -40 q-21 -2 -36 -10 q-14 -6 -21.5 -16.5 q-7.5 -10.5 -12.5 -29.5 l-45 -182 Z" /><glyph glyph-name="H" unicode="h" d="M624 96 q-6 -21 -2.5 -32.5 q3.5 -11.5 15.5 -16.5 q6 -3 20.5 -4 q14.5 -1 29.5 -3 l-10 -40 l-278 0 l11 40 q11 1 27.5 2 q16.5 1 25.5 5 q16 5 24.5 17 q8.5 12 14.5 32 l59 239 l-299 0 l-59 -239 q-6 -21 -2.5 -32.5 q3.5 -11.5 15.5 -16.5 q6 -3 20.5 -4 q14.5 -1 29.5 -3 l-10 -40 l-277 0 l10 40 q11 1 28 2 q17 1 25 5 q16 5 24.5 17 q8.5 12 14.5 32 l124 501 q5 21 2 32.5 q-3 11.5 -16 16.5 q-6 3 -20.5 4 q-14.5 1 -29.5 3 l10 40 l278 0 l-10 -40 q-11 -1 -28 -2 q-17 -1 -26 -5 q-15 -5 -24 -17 q-9 -12 -14 -32 l-52 -210 l299 0 l52 210 q5 21 1.5 32.5 q-3.5 11.5 -15.5 16.5 q-6 3 -20.5 4 q-14.5 1 -29.5 3 l10 40 l278 0 l-10 -40 q-11 -1 -28 -2 q-17 -1 -26 -5 q-15 -5 -24 -17 q-9 -12 -14 -32 l-124 -501 Z" /><glyph glyph-name="I" unicode="i" d="M203 96 q-6 -21 -2.5 -32.5 q3.5 -11.5 15.5 -16.5 q6 -3 20.5 -4 q14.5 -1 29.5 -3 l-10 -40 l-277 0 l10 40 q11 1 28 2 q17 1 25 5 q16 5 24.5 17 q8.5 12 14.5 32 l124 501 q5 21 2 32.5 q-3 11.5 -16 16.5 q-6 3 -20.5 4 q-14.5 1 -29.5 3 l10 40 l278 0 l-10 -40 q-11 -1 -28 -2 q-17 -1 -26 -5 q-15 -5 -24 -17 q-9 -12 -14 -32 l-124 -501 Z" /><glyph glyph-name="J" unicode="j" d="M199 597 q5 21 1.5 32.5 q-3.5 11.5 -15.5 16.5 q-7 3 -21 4 q-14 1 -29 3 l10 40 l277 0 l-10 -40 q-10 -1 -27 -2 q-17 -1 -26 -5 q-29 -9 -38 -49 l-138 -554 q-12 -48 -37 -96 q-25 -48 -62.5 -86 q-37.5 -38 -86 -62 q-48.5 -24 -106.5 -24 q-51 0 -71.5 17.5 q-20.5 17.5 -20.5 43.5 q0 27 19.5 45.5 q19.5 18.5 45.5 18.5 q23 0 31.5 -12 q8.5 -12 12.5 -26.5 q4 -14.5 8.5 -26.5 q4.5 -12 21.5 -12 q22 0 39.5 17 q17.5 17 33 50 q15.5 33 29.5 80 q14 47 29 107 l130 520 Z" /><glyph glyph-name="K" unicode="k" d="M203 96 q-6 -21 -2 -32.5 q4 -11.5 15 -16.5 q7 -3 21 -4 q14 -1 29 -3 l-10 -40 l-277 0 l10 40 q11 1 28 2 q17 1 25 5 q16 5 24.5 17 q8.5 12 14.5 32 l124 501 q10 40 -14 49 q-6 3 -20.5 4 q-14.5 1 -29.5 3 l10 40 l278 0 l-10 -40 q-11 -1 -28 -2 q-17 -1 -26 -5 q-15 -5 -24 -17 q-9 -12 -14 -32 l-124 -501 ZM292 340 q36 28 70.5 58.5 q34.5 30.5 65.5 60 q31 29.5 56 54.5 q25 25 41 41 q14 14 29 31 q15 17 19 32 q5 17 -4.5 24.5 q-9.5 7.5 -51.5 11.5 l10 40 l264 0 l-10 -40 q-78 -8 -154 -76 q-10 -9 -33.5 -30.5 q-23.5 -21.5 -54 -49.5 q-30.5 -28 -65 -59.5 q-34.5 -31.5 -65.5 -59.5 l115 -258 q15 -35 37.5 -55 q22.5 -20 60.5 -25 l-13 -40 l-175 0 l-143 333 l1 7 Z" /><glyph glyph-name="L" unicode="l" d="M44 48 q15 6 23 18 q8 12 14 34 l123 497 q5 21 2 32.5 q-3 11.5 -16 16.5 q-6 3 -20.5 4 q-14.5 1 -28.5 3 l10 40 l277 0 l-10 -40 q-11 -1 -28 -2 q-17 -1 -26 -5 q-15 -5 -24 -17 q-9 -12 -14 -32 l-136 -546 l91 0 q39 0 68.5 9.5 q29.5 9.5 54.5 29.5 q25 20 47.5 51 q22.5 31 47.5 74 l34 -4 l-67 -211 l-487 0 l10 40 q12 1 29.5 2.5 q17.5 1.5 25.5 5.5 Z" /><glyph glyph-name="M" unicode="m" d="M977 693 l-10 -40 q-11 -1 -28 -2 q-17 -1 -26 -5 q-15 -5 -24 -17 q-9 -12 -14 -32 l-124 -501 q-5 -21 -1.5 -32.5 q3.5 -11.5 15.5 -16.5 q6 -3 20.5 -4 q14.5 -1 29.5 -3 l-11 -40 l-277 0 l11 40 q10 1 27 2 q17 1 26 5 q15 5 24 17 q9 12 14 32 l116 467 l-325 -424 l-37 0 l-115 423 l-107 -430 q-7 -29 -3 -46.5 q4 -17.5 17 -27.5 q21 -16 59 -21 l-10 -37 l-257 0 l10 37 q16 2 31.5 6 q15.5 4 29.5 11 q20 9 35 27.5 q15 18.5 23 50.5 l112 448 q5 24 2.5 37.5 q-2.5 13.5 -13.5 21.5 q-7 6 -23.5 9 q-16.5 3 -34.5 5 l10 40 l207 0 l109 -406 l315 406 l197 0 Z" /><glyph glyph-name="N" unicode="n" d="M588 199 l90 362 q8 29 4 46.5 q-4 17.5 -17 27.5 q-21 16 -59 21 l9 37 l257 0 l-9 -37 q-17 -2 -32 -6 q-15 -4 -29 -11 q-20 -9 -35.5 -27.5 q-15.5 -18.5 -23.5 -50.5 l-140 -565 l-67 0 l-271 547 l-102 -411 q-8 -29 -4 -46.5 q4 -17.5 17 -27.5 q21 -16 59 -21 l-9 -37 l-257 0 l9 37 q17 2 32 6 q15 4 29 11 q20 9 35.5 27.5 q15.5 18.5 23.5 50.5 l101 408 q13 52 -1 81 q-14 29 -61 36 l9 36 l186 0 l256 -494 Z" /><glyph glyph-name="O" unicode="o" d="M764 450 q0 -88 -35.5 -171.5 q-35.5 -83.5 -97 -149 q-61.5 -65.5 -144 -105 q-82.5 -39.5 -176.5 -39.5 q-125 0 -192 67.5 q-67 67.5 -67 187.5 q0 88 35 172.5 q35 84.5 95.5 150.5 q60.5 66 143 106 q82.5 40 177.5 40 q64 0 113 -18.5 q49 -18.5 82 -52.5 q33 -34 49.5 -82 q16.5 -48 16.5 -106 ZM322 36 q53 0 97 21.5 q44 21.5 79 57 q35 35.5 60.5 82 q25.5 46.5 43 97 q17.5 50.5 26 101 q8.5 50.5 8.5 94.5 q0 78 -33.5 124.5 q-33.5 46.5 -112.5 46.5 q-52 0 -95.5 -22 q-43.5 -22 -78 -58.5 q-34.5 -36.5 -60 -84 q-25.5 -47.5 -42.5 -98.5 q-17 -51 -25.5 -102 q-8.5 -51 -8.5 -94 q0 -80 33 -122.5 q33 -42.5 109 -42.5 Z" /><glyph glyph-name="P" unicode="p" d="M205 597 q10 40 -14 49 q-9 3 -20.5 4 q-11.5 1 -29.5 3 l10 40 l323 0 q78 0 124.5 -35.5 q46.5 -35.5 46.5 -105.5 q0 -54 -23.5 -102.5 q-23.5 -48.5 -63.5 -84.5 q-40 -36 -91.5 -57 q-51.5 -21 -107.5 -21 l-109 0 l-47 -191 q-10 -40 13 -49 q10 -3 25 -4 q15 -1 33 -3 l-11 -40 l-284 0 l10 40 q14 1 28.5 2 q14.5 1 24.5 5 q29 9 39 49 l124 501 ZM338 642 l-75 -303 l67 0 q40 0 73.5 17.5 q33.5 17.5 57.5 47 q24 29.5 37 67 q13 37.5 13 77.5 q0 43 -22.5 68.5 q-22.5 25.5 -67.5 25.5 l-83 0 Z" /><glyph glyph-name="Q" unicode="q" d="M764 450 q0 -88 -35.5 -171.5 q-35.5 -83.5 -97 -149 q-61.5 -65.5 -144.5 -105.5 q-41 -19 -84 -29 q0 -37 5 -64 q8 -35 24 -55 q16 -20 39 -28 q23 -8 50 -8 q18 0 37 2.5 q19 2.5 42 5.5 l-2 -42 q-38 -13 -86.5 -22 q-48.5 -9 -89.5 -9 q-47 0 -76 16 q-29 16 -44.5 46.5 q-15.5 30.5 -21.5 75.5 q-5 33 -7 74 q-98 9 -154 65 q-67 68 -67 188 q0 88 35 172.5 q35 84.5 95.5 150.5 q60.5 66 143 106 q82.5 40 177.5 40 q64 0 113 -18.5 q49 -18.5 82 -52.5 q33 -34 49.5 -82 q16.5 -48 16.5 -106 ZM322 36 q53 0 97 21.5 q44 21.5 79 57 q35 35.5 60.5 82 q25.5 46.5 43 97 q17.5 50.5 26 101 q8.5 50.5 8.5 94.5 q0 78 -33.5 124.5 q-33.5 46.5 -112.5 46.5 q-52 0 -95.5 -22 q-43.5 -22 -78 -58.5 q-34.5 -36.5 -60 -84 q-25.5 -47.5 -42.5 -98.5 q-17 -51 -25.5 -102 q-8.5 -51 -8.5 -94 q0 -80 33 -122.5 q33 -42.5 109 -42.5 Z" /><glyph glyph-name="R" unicode="r" d="M205 597 q5 21 2 32.5 q-3 11.5 -16 16.5 q-8 3 -20 4 q-12 1 -30 3 l10 40 l323 0 q79 0 127 -31.5 q48 -31.5 48 -101.5 q0 -42 -17.5 -79.5 q-17.5 -37.5 -47 -67.5 q-29.5 -30 -68.5 -52 q-39 -22 -82 -33 l103 -211 q20 -40 42 -56 q22 -16 58 -21 l-13 -40 l-173 0 l-138 317 l-55 0 l-55 -221 q-10 -40 13 -49 q10 -3 25 -4 q15 -1 33 -3 l-11 -40 l-284 0 l10 40 q12 1 27.5 2 q15.5 1 25.5 5 q29 9 39 49 l124 501 ZM338 642 l-67 -273 l66 0 q40 0 72.5 14.5 q32.5 14.5 55.5 39.5 q23 25 36 58 q13 33 13 71 q0 90 -93 90 l-83 0 Z" /><glyph glyph-name="S" unicode="s" d="M204 -15 q-51 0 -106 13 q-55 13 -98 42 l44 180 l32 0 q7 -97 47 -139 q40 -42 106 -42 q33 0 64 9.5 q31 9.5 54 27.5 q23 18 37 43 q14 25 14 56 q0 38 -20 63 q-20 25 -69 45 l-70 29 q-54 22 -85.5 56.5 q-31.5 34.5 -31.5 96.5 q0 57 25.5 102 q25.5 45 68 76.5 q42.5 31.5 97 48 q54.5 16.5 111.5 16.5 q51 0 100 -13 q49 -13 91 -42 l-44 -179 l-39 0 q-1 97 -31.5 140.5 q-30.5 43.5 -95.5 43.5 q-32 0 -61 -9.5 q-29 -9.5 -52 -27 q-23 -17.5 -36.5 -41.5 q-13.5 -24 -13.5 -53 q0 -38 17.5 -63 q17.5 -25 61.5 -43 l72 -29 q30 -12 54.5 -26 q24.5 -14 42.5 -33 q18 -19 27.5 -44 q9.5 -25 9.5 -58 q0 -59 -28.5 -105 q-28.5 -46 -74.5 -77.5 q-46 -31.5 -104 -47.5 q-58 -16 -116 -16 Z" /><glyph glyph-name="T" unicode="t" d="M476 644 l-136 -548 q-10 -40 14 -49 q8 -3 19.5 -4 q11.5 -1 30.5 -3 l-11 -40 l-277 0 l10 40 q14 1 28.5 2 q14.5 1 24.5 5 q29 9 39 49 l136 548 l-46 0 q-33 0 -60 -7 q-27 -7 -49 -23 q-22 -16 -41 -41 q-19 -25 -37 -61 l-36 0 l45 181 l596 0 l-45 -181 l-36 0 q-1 36 -7.5 61 q-6.5 25 -20.5 41 q-14 16 -37 23 q-23 7 -56 7 l-48 0 Z" /><glyph glyph-name="U" unicode="u" d="M307 -14 q-58 0 -103 14.5 q-45 14.5 -73.5 44.5 q-28.5 30 -37 76 q-8.5 46 7.5 109 l92 367 q9 41 -15 49 q-8 3 -23 4.5 q-15 1.5 -26 2.5 l10 40 l277 0 l-10 -40 q-19 -2 -31 -2.5 q-12 -0.5 -22 -4.5 q-27 -9 -37 -43 l-91 -364 q-23 -95 4 -145 q27 -50 117 -50 q46 0 82.5 14.5 q36.5 14.5 63.5 40.5 q27 26 45.5 62 q18.5 36 29.5 79 l82 329 q5 26 0.5 41.5 q-4.5 15.5 -15.5 24.5 q-21 16 -59 21 l9 37 l258 0 l-10 -37 q-15 -2 -31 -6 q-16 -4 -30 -11 q-19 -9 -34 -26 q-15 -17 -23 -46 l-81 -325 q-14 -57 -42 -104 q-28 -47 -69 -81 q-41 -34 -95 -52.5 q-54 -18.5 -120 -18.5 Z" /><glyph glyph-name="V" unicode="v" d="M291 597 q0 -3 0.5 -7.5 q0.5 -4.5 0.5 -7.5 l43 -424 l268 415 q18 27 18 44 q0 18 -19 26 q-19 8 -55 10 l10 40 l231 0 l-9 -37 q-32 -4 -60 -23 q-28 -19 -46 -48 l-390 -597 l-45 0 l-73 609 q-2 20 -8.5 30 q-6.5 10 -19.5 15 q-8 3 -19 6.5 q-11 3.5 -21 4.5 l10 40 l287 0 l-10 -40 q-51 -4 -72 -15.5 q-21 -11.5 -21 -40.5 Z" /><glyph glyph-name="W" unicode="w" d="M689 693 l27 -518 l228 396 q16 29 16 46 q0 18 -18.5 26 q-18.5 8 -55.5 10 l10 40 l232 0 l-10 -37 q-67 -8 -103 -69 l-352 -598 l-47 0 l-41 539 l-320 -539 l-51 0 l-36 608 q-2 20 -8.5 30 q-6.5 10 -19.5 15 q-8 3 -19 6.5 q-11 3.5 -21 4.5 l10 40 l290 0 l-10 -40 q-27 -2 -44.5 -5 q-17.5 -3 -28 -9.5 q-10.5 -6.5 -15.5 -18 q-5 -11.5 -5 -30.5 l0 -15 l12 -399 l303 517 l77 0 Z" /><glyph glyph-name="X" unicode="x" d="M118 693 l296 0 l-10 -41 q-38 -3 -57 -10 q-19 -7 -19 -28 q0 -15 10 -39 l58 -147 l150 153 q24 25 24 41 q0 24 -61 30 l10 41 l238 0 l-10 -41 q-29 -4 -63 -21 q-34 -17 -66 -48 l-203 -204 l112 -282 q11 -26 26 -38.5 q15 -12.5 44 -17.5 l-11 -41 l-301 0 l11 41 q53 4 76.5 15 q23.5 11 23.5 32 q0 5 -2 10.5 q-2 5.5 -4 11.5 l-70 180 l-167 -174 q-25 -26 -25 -43 q0 -14 16.5 -21.5 q16.5 -7.5 42.5 -10.5 l-11 -41 l-237 0 l11 41 q16 3 34.5 10 q18.5 7 36 17.5 q17.5 10.5 33.5 23 q16 12.5 29 24.5 l218 223 l-100 257 q-12 28 -40.5 41 q-28.5 13 -52.5 15 l10 41 Z" /><glyph glyph-name="Y" unicode="y" d="M302 601 q0 -13 4 -28 l65 -228 l187 234 q19 25 19 40 q0 19 -23.5 25 q-23.5 6 -51.5 8 l10 41 l242 0 l-10 -36 q-30 -3 -57 -19 q-27 -16 -51 -42 l-250 -302 l-48 -198 q-5 -21 -1.5 -32.5 q3.5 -11.5 15.5 -16.5 q6 -3 20.5 -4 q14.5 -1 29.5 -3 l-11 -40 l-277 0 l11 40 q10 1 27 2 q17 1 26 5 q15 5 24 17 q9 12 14 32 l49 201 l-95 299 q-10 26 -25.5 38.5 q-15.5 12.5 -46.5 17.5 l10 41 l301 0 l-10 -41 q-47 -3 -72 -12.5 q-25 -9.5 -25 -38.5 Z" /><glyph glyph-name="Z" unicode="z" d="M556 215 l-67 -215 l-516 0 l-1 17 l529 626 l-147 0 q-34 0 -62 -6 q-28 -6 -52.5 -21 q-24.5 -15 -47 -41 q-22.5 -26 -44.5 -66 l-33 2 l56 182 l495 0 l3 -17 l-531 -626 l120 0 q53 0 88.5 8 q35.5 8 63.5 27 q28 19 53.5 51.5 q25.5 32.5 59.5 82.5 l33 -4 Z" /><glyph glyph-name="a" unicode="a" d="M410 97 q-4 -14 -1 -20 q3 -6 9 -6 q14 0 34.5 16.5 q20.5 16.5 40.5 34.5 l18 -29 q-48 -57 -92 -82.5 q-44 -25.5 -73 -25.5 q-18 0 -28.5 8 q-10.5 8 -16 20.5 q-5.5 12.5 -5 28.5 q0.5 16 5.5 33 l36 122 l-3 0 q-27 -45 -54 -83.5 q-27 -38.5 -54.5 -66 q-27.5 -27.5 -55.5 -43 q-28 -15.5 -56 -15.5 q-43 0 -72 31.5 q-29 31.5 -29 106.5 q0 64 25.5 130.5 q25.5 66.5 70 120.5 q44.5 54 104 88.5 q59.5 34.5 128.5 34.5 q25 0 46.5 -5.5 q21.5 -5.5 41.5 -15.5 l65 21 l18 0 l-103 -404 ZM164 80 q18 0 40.5 17.5 q22.5 17.5 47 46 q24.5 28.5 50 65.5 q25.5 37 49.5 77 l30 123 q-16 16 -35 26.5 q-19 10.5 -41 10.5 q-28 0 -52 -14.5 q-24 -14.5 -43.5 -39 q-19.5 -24.5 -34 -56 q-14.5 -31.5 -24.5 -65 q-10 -33.5 -15 -66 q-5 -32.5 -5 -59.5 q0 -66 33 -66 Z" /><glyph glyph-name="b" unicode="b" d="M169 654 q5 19 1 27 q-4 8 -15 8 q-12 0 -30.5 -8 q-18.5 -8 -39.5 -19 l-2 36 q49 32 87 46.5 q38 14.5 65 14.5 q35 0 46 -18.5 q11 -18.5 3 -49.5 l-91 -362 l2 0 q30 49 55.5 82 q25.5 33 49.5 53 q24 20 46.5 28.5 q22.5 8.5 46.5 8.5 q57 0 82.5 -42 q25.5 -42 25.5 -106 q0 -69 -23.5 -134.5 q-23.5 -65.5 -67 -117.5 q-43.5 -52 -104.5 -83.5 q-61 -31.5 -136 -31.5 q-15 0 -35 2 q-20 2 -41.5 6.5 q-21.5 4.5 -42.5 12 q-21 7.5 -39 17.5 l157 630 ZM338 411 q-27 0 -67 -42 q-40 -42 -101 -142 l-41 -159 q17 -8 38 -13 q21 -5 44 -5 q47 0 80.5 25.5 q33.5 25.5 55 65 q21.5 39.5 31.5 86.5 q10 47 10 89 q0 53 -12 74 q-12 21 -38 21 Z" /><glyph glyph-name="c" unicode="c" d="M387 361 q-14 0 -23.5 5 q-9.5 5 -15.5 12 q-6 7 -9 15.5 q-3 8.5 -6 15.5 q-5 14 -14.5 28.5 q-9.5 14.5 -36.5 14.5 q-37 0 -64.5 -27.5 q-27.5 -27.5 -46 -69.5 q-18.5 -42 -27.5 -91.5 q-9 -49.5 -9 -93.5 q0 -25 3 -45.5 q3 -20.5 11.5 -35.5 q8.5 -15 23.5 -23.5 q15 -8.5 40 -8.5 q36 0 70 18.5 q34 18.5 78 57.5 l14 -31 q-20 -23 -42 -44.5 q-22 -21.5 -48.5 -38 q-26.5 -16.5 -56.5 -26 q-30 -9.5 -65 -9.5 q-41 0 -68.5 12.5 q-27.5 12.5 -44 34.5 q-16.5 22 -24 52 q-7.5 30 -7.5 64 q0 60 21.5 123 q21.5 63 61 114 q39.5 51 95 83.5 q55.5 32.5 122.5 32.5 q59 0 92 -22.5 q33 -22.5 33 -56.5 q0 -23 -13.5 -41.5 q-13.5 -18.5 -43.5 -18.5 Z" /><glyph glyph-name="d" unicode="d" d="M402 97 q-4 -16 0 -21.5 q4 -5.5 12 -3.5 q14 2 33.5 17.5 q19.5 15.5 37.5 32.5 l14 -30 q-48 -56 -88.5 -81.5 q-40.5 -25.5 -70.5 -25.5 q-17 0 -28 8 q-11 8 -16 20.5 q-5 12.5 -5 28.5 q0 16 5 33 l34 117 l-4 0 q-26 -44 -52.5 -81.5 q-26.5 -37.5 -53.5 -64.5 q-27 -27 -55 -42 q-28 -15 -57 -15 q-19 0 -36 7 q-17 7 -29.5 23 q-12.5 16 -20 41.5 q-7.5 25.5 -7.5 62.5 q0 65 24.5 132.5 q24.5 67.5 67.5 122 q43 54.5 102 89 q59 34.5 128 34.5 q30 0 59 -8 l40 160 q5 20 1 28 q-4 8 -15 8 q-12 0 -31.5 -8.5 q-19.5 -8.5 -39.5 -17.5 l-1 35 q42 28 82 44.5 q40 16.5 72 16.5 q34 0 44.5 -18.5 q10.5 -18.5 2.5 -49.5 l-149 -594 ZM159 80 q18 0 40 17.5 q22 17.5 47 46 q25 28.5 50 66 q25 37.5 49 77.5 l32 127 q-16 14 -35 23 q-19 9 -42 9 q-43 0 -75.5 -31.5 q-32.5 -31.5 -54.5 -77.5 q-22 -46 -33.5 -98 q-11.5 -52 -11.5 -92 q0 -67 34 -67 Z" /><glyph glyph-name="e" unicode="e" d="M391 101 q-19 -23 -43.5 -44 q-24.5 -21 -53 -37 q-28.5 -16 -61 -25.5 q-32.5 -9.5 -67.5 -9.5 q-41 0 -69 12.5 q-28 12.5 -45 34.5 q-17 22 -25 51.5 q-8 29.5 -8 63.5 q0 58 21.5 121 q21.5 63 62 114.5 q40.5 51.5 98 85 q57.5 33.5 128.5 33.5 q28 0 52 -5.5 q24 -5.5 42 -17 q18 -11.5 28 -29.5 q10 -18 10 -43 q0 -30 -16.5 -59.5 q-16.5 -29.5 -54.5 -54.5 q-38 -25 -100 -42.5 q-62 -17.5 -152 -22.5 q-3 -29 -3 -54 q0 -25 3.5 -46.5 q3.5 -21.5 13.5 -37 q10 -15.5 27 -24.5 q17 -9 43 -9 q36 0 73 17.5 q37 17.5 82 58.5 l14 -31 ZM288 453 q-29 0 -52.5 -16 q-23.5 -16 -41.5 -42.5 q-18 -26.5 -30.5 -60 q-12.5 -33.5 -19.5 -69.5 q58 8 96 22.5 q38 14.5 60.5 32.5 q22.5 18 32 37.5 q9.5 19.5 9.5 37.5 q0 30 -14 44 q-14 14 -40 14 Z" /><glyph glyph-name="f" unicode="f" d="M62 486 l92 0 q15 60 39.5 110 q24.5 50 58.5 86 q34 36 78 56.5 q44 20.5 99 20.5 q52 0 80 -18 q28 -18 28 -41 q0 -22 -13.5 -36 q-13.5 -14 -36.5 -14 q-18 0 -29.5 9 q-11.5 9 -22 19.5 q-10.5 10.5 -21.5 19.5 q-11 9 -28 9 q-25 0 -42 -12 q-17 -12 -29.5 -34 q-12.5 -22 -22 -53.5 q-9.5 -31.5 -19.5 -71.5 l-13 -50 l118 0 l-12 -50 l-118 0 l-97 -388 q-15 -61 -42.5 -111.5 q-27.5 -50.5 -62 -86.5 q-34.5 -36 -74.5 -55.5 q-40 -19.5 -80 -19.5 q-38 0 -65 17 q-27 17 -27 42 q0 20 13 34.5 q13 14.5 36 14.5 q14 0 24 -8 q10 -8 19.5 -17 q9.5 -9 20.5 -17 q11 -8 27 -8 q29 0 50.5 43.5 q21.5 43.5 41.5 121.5 l109 438 l-91 0 l12 50 Z" /><glyph glyph-name="g" unicode="g" d="M210 186 q-17 0 -32.5 1.5 q-15.5 1.5 -29.5 6.5 q-27 -27 -27 -46 q-1 -16 14 -24.5 q15 -8.5 42 -12.5 l83 -13 q71 -11 111 -36 q40 -25 40 -75 q0 -43 -29 -81.5 q-29 -38.5 -75 -68 q-46 -29.5 -103.5 -46.5 q-57.5 -17 -115.5 -17 q-77 0 -121.5 31.5 q-44.5 31.5 -44.5 81.5 q0 28 13.5 51 q13.5 23 35 41 q21.5 18 48.5 31.5 q27 13.5 54 24.5 q-25 11 -35.5 26 q-10.5 15 -10.5 34 q0 18 8.5 33.5 q8.5 15.5 22 29 q13.5 13.5 30.5 25.5 q17 12 34 21 q-29 14 -46.5 39.5 q-17.5 25.5 -17.5 62.5 q0 41 19.5 76.5 q19.5 35.5 53 62 q33.5 26.5 77.5 41.5 q44 15 92 15 q35 0 66 -10.5 q31 -10.5 52 -31.5 q10 12 14.5 25 q4.5 13 7.5 26 q5 22 17.5 36.5 q12.5 14.5 34.5 14.5 q40 0 40 -36 q0 -16 -9 -29 q-9 -13 -23.5 -23 q-14.5 -10 -32 -18 q-17.5 -8 -34.5 -14 q19 -27 19 -64 q0 -40 -19 -74.5 q-19 -34.5 -52 -60.5 q-33 -26 -77 -41 q-44 -15 -94 -15 ZM124 22 q-6 1 -12 1.5 q-6 0.5 -11 2.5 q-30 -19 -52 -46.5 q-22 -27.5 -22 -65.5 q0 -39 26.5 -62 q26.5 -23 78.5 -23 q34 0 64 8.5 q30 8.5 52.5 23.5 q22.5 15 36 36.5 q13.5 21.5 13.5 47.5 q0 26 -20.5 41 q-20.5 15 -69.5 22 l-84 14 ZM228 229 q25 0 45 13.5 q20 13.5 34 34.5 q14 21 22 47 q8 26 8 52 q0 38 -15.5 60 q-15.5 22 -43.5 22 q-24 0 -44 -14 q-20 -14 -35 -36 q-15 -22 -23.5 -49 q-8.5 -27 -8.5 -53 q0 -35 14 -56 q14 -21 47 -21 Z" /><glyph glyph-name="h" unicode="h" d="M421 110 q-5 -20 -4 -29.5 q1 -9.5 10 -9.5 q19 0 74 51 l14 -29 q-48 -57 -89.5 -83 q-41.5 -26 -71.5 -25 q-36 1 -46 29 q-10 28 -1 63 l57 221 q12 47 13 71.5 q1 24.5 -26 24.5 q-28 0 -78 -54 q-50 -54 -111 -166 l-46 -174 l-107 0 l160 652 q5 20 1.5 28 q-3.5 8 -13.5 8 q-11 0 -30.5 -8 q-19.5 -8 -41.5 -19 l-1 35 q48 30 87 46 q39 16 68 16 q35 0 44 -20.5 q9 -20.5 1 -51.5 l-99 -401 l3 0 q65 117 119 166.5 q54 49.5 107 49.5 q49 0 67.5 -38.5 q18.5 -38.5 -3.5 -130.5 l-57 -222 Z" /><glyph glyph-name="i" unicode="i" d="M160 91 q-3 -20 9 -20 q11 0 28.5 12 q17.5 12 46.5 39 l14 -29 q-48 -57 -89.5 -83 q-41.5 -26 -71.5 -25 q-33 1 -45 27 q-12 26 -1 68 l78 315 q8 35 -12 35 q-11 0 -31 -8 q-20 -8 -41 -19 l-2 35 q47 30 87 46.5 q40 16.5 69 16.5 q35 0 43.5 -21 q8.5 -21 0.5 -51 l-83 -338 ZM181 688 q0 27 19.5 47 q19.5 20 46.5 20 q27 0 47 -20 q20 -20 20 -47 q0 -27 -20 -46.5 q-20 -19.5 -47 -19.5 q-27 0 -46.5 19.5 q-19.5 19.5 -19.5 46.5 Z" /><glyph glyph-name="j" unicode="j" d="M145 48 q-15 -61 -42.5 -111.5 q-27.5 -50.5 -62 -86.5 q-34.5 -36 -74 -55.5 q-39.5 -19.5 -79.5 -19.5 q-19 0 -36 5 q-17 5 -29.5 14 q-12.5 9 -20 20.5 q-7.5 11.5 -7.5 24.5 q0 20 14 34.5 q14 14.5 37 14.5 q13 0 23 -8.5 q10 -8.5 19.5 -19 q9.5 -10.5 20.5 -19 q11 -8.5 27 -8.5 q28 0 49.5 43.5 q21.5 43.5 41.5 121.5 l99 397 q10 35 -12 35 q-11 0 -31 -8 q-20 -8 -41 -19 l-1 35 q46 30 86 46.5 q40 16.5 69 16.5 q36 0 44.5 -21 q8.5 -21 0.5 -51 l-95 -381 ZM179 688 q0 27 19.5 47 q19.5 20 46.5 20 q27 0 47 -20 q20 -20 20 -47 q0 -27 -20 -46.5 q-20 -19.5 -47 -19.5 q-27 0 -46.5 19.5 q-19.5 19.5 -19.5 46.5 Z" /><glyph glyph-name="k" unicode="k" d="M8 0 l162 653 q5 20 1 28 q-4 8 -15 8 q-12 0 -31 -8 q-19 -8 -39 -18 l-2 35 q43 29 82.5 45 q39.5 16 71.5 16 q34 0 44.5 -19 q10.5 -19 2.5 -49 l-101 -404 l3 0 q33 58 62 99 q29 41 56 66.5 q27 25.5 52.5 37 q25.5 11.5 52.5 11.5 q17 0 33 -4.5 q16 -4.5 28.5 -14.5 q12.5 -10 20 -26.5 q7.5 -16.5 7.5 -40.5 q0 -50 -36.5 -95 q-36.5 -45 -117.5 -98 l111 -207 l-10 -30 l-96 0 l-101 203 l0 10 q70 59 102.5 106 q32.5 47 32.5 76 q0 29 -29 29 q-28 0 -78 -58 q-50 -58 -115 -170 l-48 -181 l-106 0 Z" /><glyph glyph-name="l" unicode="l" d="M139 96 q-7 -27 10 -24 q13 2 32.5 16 q19.5 14 40.5 34 l13 -29 q-49 -57 -89.5 -82.5 q-40.5 -25.5 -71.5 -25.5 q-33 0 -44.5 26.5 q-11.5 26.5 -0.5 68.5 l141 573 q5 20 1 28 q-4 8 -15 8 q-12 0 -31 -8.5 q-19 -8.5 -39 -17.5 l-2 35 q42 28 82 44.5 q40 16.5 72 16.5 q34 0 44.5 -18.5 q10.5 -18.5 2.5 -49.5 l-146 -595 l0 0 Z" /><glyph glyph-name="m" unicode="m" d="M130 395 q8 35 -12 35 q-11 0 -30.5 -7.5 q-19.5 -7.5 -41.5 -19.5 l-2 35 q98 63 153 63 q35 0 44 -21 q9 -21 1 -51 l-40 -152 l3 0 q66 121 121 172.5 q55 51.5 110 51.5 q49 0 65.5 -38 q16.5 -38 -5.5 -127 l-15 -57 l1 0 q66 120 121 171 q55 51 109 51 q49 0 67.5 -38.5 q18.5 -38.5 -4.5 -130.5 l-56 -222 q-5 -20 -4 -29.5 q1 -9.5 10 -9.5 q19 0 74 51 l13 -29 q-48 -57 -89 -83 q-41 -26 -71 -25 q-18 0 -29.5 8 q-11.5 8 -17 21 q-5.5 13 -5.5 29.5 q0 16.5 5 33.5 l57 221 q12 47 13 71.5 q1 24.5 -26 24.5 q-28 0 -77.5 -52.5 q-49.5 -52.5 -110.5 -164.5 l-44 -177 l-105 0 l74 298 q14 53 13 74.5 q-1 21.5 -27 21.5 q-28 0 -78.5 -54.5 q-50.5 -54.5 -112.5 -168.5 l-42 -171 l-107 0 l98 395 l0 0 Z" /><glyph glyph-name="n" unicode="n" d="M130 395 q8 35 -12 35 q-11 0 -30.5 -7.5 q-19.5 -7.5 -41.5 -19.5 l-2 35 q98 63 154 63 q35 0 43.5 -20.5 q8.5 -20.5 0.5 -51.5 l-44 -162 l4 0 q34 63 65 107.5 q31 44.5 59.5 72.5 q28.5 28 56 41 q27.5 13 55.5 13 q49 0 67 -38.5 q18 -38.5 -4 -130.5 l-56 -222 q-9 -39 5 -39 q20 0 75 51 l13 -29 q-48 -57 -89 -83 q-41 -26 -72 -25 q-36 1 -45.5 29 q-9.5 28 -0.5 63 l57 221 q12 47 13 71.5 q1 24.5 -26 24.5 q-29 0 -81.5 -57.5 q-52.5 -57.5 -116.5 -177.5 l-38 -159 l-107 0 l98 395 l0 0 Z" /><glyph glyph-name="o" unicode="o" d="M489 329 q0 -60 -23.5 -121.5 q-23.5 -61.5 -65 -111 q-41.5 -49.5 -97.5 -81 q-56 -31.5 -121 -31.5 q-81 0 -121 48 q-40 48 -40 129 q0 63 23.5 124 q23.5 61 64.5 109 q41 48 96.5 77.5 q55.5 29.5 119.5 29.5 q78 0 121 -45.5 q43 -45.5 43 -126.5 ZM205 37 q33 0 63 30 q30 30 52.5 75.5 q22.5 45.5 36 100.5 q13.5 55 13.5 105 q0 47 -14.5 75 q-14.5 28 -52.5 28 q-38 0 -68 -30.5 q-30 -30.5 -50.5 -76.5 q-20.5 -46 -31.5 -99 q-11 -53 -11 -99 q0 -23 3 -42.5 q3 -19.5 10 -34.5 q7 -15 19.5 -23.5 q12.5 -8.5 30.5 -8.5 Z" /><glyph glyph-name="p" unicode="p" d="M-74 -167 l64 0 l140 562 q10 36 -13 36 q-12 0 -30.5 -8 q-18.5 -8 -40.5 -19 l-2 35 q50 32 85 47 q35 15 66 15 q33 0 44 -19 q11 -19 3 -49 l-30 -117 l2 0 q31 52 58 87.5 q27 35.5 51.5 57.5 q24.5 22 47.5 31 q23 9 47 9 q58 0 83.5 -42 q25.5 -42 25.5 -108 q0 -68 -23.5 -133 q-23.5 -65 -67 -117 q-43.5 -52 -104.5 -83.5 q-61 -31.5 -136 -31.5 q-27 0 -60 6 l-39 -159 l137 0 l-12 -50 l-308 0 l12 50 ZM364 411 q-27 0 -68 -43.5 q-41 -43.5 -103 -145.5 l-38 -154 q17 -8 38 -13 q21 -5 43 -5 q47 0 81 25.5 q34 25.5 55.5 65 q21.5 39.5 31.5 86.5 q10 47 10 89 q0 53 -12 74 q-12 21 -38 21 Z" /><glyph glyph-name="q" unicode="q" d="M100 -167 l132 0 l84 337 l-4 0 q-24 -40 -49 -73 q-25 -33 -50.5 -57 q-25.5 -24 -51.5 -37.5 q-26 -13.5 -52 -13.5 q-40 0 -67 30.5 q-27 30.5 -27 105.5 q0 64 24.5 130.5 q24.5 66.5 67.5 121 q43 54.5 101.5 89.5 q58.5 35 127.5 35 q24 0 45.5 -5.5 q21.5 -5.5 40.5 -13.5 l63 19 l18 0 l-165 -668 l70 0 l-12 -50 l-308 0 l12 50 ZM159 80 q17 0 38.5 16.5 q21.5 16.5 45.5 44 q24 27.5 48.5 63 q24.5 35.5 48.5 74.5 l34 133 q-16 15 -34.5 25 q-18.5 10 -39.5 10 q-29 0 -53 -14.5 q-24 -14.5 -43 -39 q-19 -24.5 -34 -56 q-15 -31.5 -25 -65 q-10 -33.5 -15 -66 q-5 -32.5 -5 -59.5 q0 -66 34 -66 Z" /><glyph glyph-name="r" unicode="r" d="M130 395 q9 36 -12 36 q-11 0 -30.5 -8 q-19.5 -8 -41.5 -19 l-2 35 q48 30 86.5 46 q38.5 16 67.5 16 q35 0 43.5 -20 q8.5 -20 0.5 -52 l-33 -129 l4 0 q34 62 60 101 q26 39 47.5 61.5 q21.5 22.5 40.5 30.5 q19 8 40 8 q26 0 40 -11 q14 -11 14 -37 q0 -25 -17 -42.5 q-17 -17.5 -50 -19.5 q-31 -2 -53 -10 q-22 -8 -43 -27.5 q-21 -19.5 -44 -54.5 q-23 -35 -57 -90 l-52 -209 l-107 0 l98 395 l0 0 Z" /><glyph glyph-name="s" unicode="s" d="M110 -13 q-27 0 -50.5 4 q-23.5 4 -41 12.5 q-17.5 8.5 -27.5 21.5 q-10 13 -10 31 q0 23 14 36 q14 13 37 13 q18 0 31 -10 q13 -10 26.5 -21.5 q13.5 -11.5 30 -21.5 q16.5 -10 40.5 -10 q17 0 30.5 9 q13.5 9 13.5 33 q0 21 -11 39 q-11 18 -25 38 l-71 100 q-14 21 -20 42 q-6 21 -6 38 q0 30 16 58.5 q16 28.5 43 51 q27 22.5 63.5 36.5 q36.5 14 78.5 14 q51 0 84 -19 q33 -19 33 -51 q0 -20 -13.5 -33.5 q-13.5 -13.5 -35.5 -13.5 q-17 0 -30.5 9.5 q-13.5 9.5 -27 21.5 q-13.5 12 -29.5 21.5 q-16 9.5 -37 9.5 q-26 0 -38.5 -15 q-12.5 -15 -12.5 -36 q0 -12 6 -26 q6 -14 20 -34 l74 -102 q10 -12 24.5 -37 q14.5 -25 14.5 -55 q0 -25 -12.5 -52.5 q-12.5 -27.5 -37 -50 q-24.5 -22.5 -61 -37 q-36.5 -14.5 -83.5 -14.5 Z" /><glyph glyph-name="t" unicode="t" d="M61 486 l98 0 l23 91 l104 52 l15 0 l-36 -143 l135 0 l-13 -50 l-134 0 l-67 -269 q-4 -16 -6.5 -31 q-2.5 -15 -2.5 -28 q0 -39 31 -39 q21 0 47 10 q26 10 64 31 l18 -29 q-46 -42 -91.5 -67.5 q-45.5 -25.5 -93.5 -25.5 q-43 0 -66.5 19.5 q-23.5 19.5 -25.5 58.5 q-1 12 0.5 26.5 q1.5 14.5 6.5 30.5 l79 313 l-98 0 l13 50 Z" /><glyph glyph-name="u" unicode="u" d="M436 102 q-6 -20 -1.5 -25.5 q4.5 -5.5 9.5 -5.5 q12 0 31.5 15.5 q19.5 15.5 41.5 35.5 l14 -29 q-45 -54 -86.5 -81 q-41.5 -27 -71.5 -27 q-18 0 -29 7.5 q-11 7.5 -16 20 q-5 12.5 -5 27.5 q0 15 4 30 l35 142 l-3 0 q-34 -62 -64 -105 q-30 -43 -58.5 -70 q-28.5 -27 -55 -39.5 q-26.5 -12.5 -52.5 -12.5 q-24 0 -41 9 q-17 9 -25.5 29.5 q-8.5 20.5 -8 52.5 q0.5 32 11.5 78 l62 242 q5 19 0 27 q-5 8 -14 8 q-9 0 -26 -6 q-17 -6 -45 -21 l-1 35 q38 28 80.5 45 q42.5 17 73.5 17 q36 -1 44.5 -22.5 q8.5 -21.5 -0.5 -56.5 l-60 -234 q-12 -47 -13.5 -72.5 q-1.5 -25.5 25.5 -25.5 q28 0 79 56.5 q51 56.5 114 176.5 l40 163 l107 0 l-96 -384 l0 0 Z" /><glyph glyph-name="v" unicode="v" d="M443 501 q32 0 44 -19 q12 -19 12 -50 q0 -43 -22 -96 q-22 -53 -62 -111 q-40 -58 -95 -118 q-55 -60 -121 -115 l-26 0 l-66 420 q-3 21 -18 21 q-11 0 -31 -8.5 q-20 -8.5 -38 -17.5 l-3 34 q24 17 49 30 q21 11 46.5 20.5 q25.5 9.5 50.5 9.5 q29 0 39 -17.5 q10 -17.5 15 -59.5 l43 -313 q43 40 67 81.5 q24 41.5 36.5 82.5 q12.5 41 15.5 80.5 q3 39.5 4 77.5 q0 32 17 50 q17 18 43 18 Z" /><glyph glyph-name="w" unicode="w" d="M706 501 q32 0 44.5 -19 q12.5 -19 12.5 -50 q0 -43 -21 -96 q-21 -53 -60 -111 q-39 -58 -93 -118 q-54 -60 -120 -115 l-26 0 l-40 254 q-34 -62 -84.5 -126.5 q-50.5 -64.5 -119.5 -127.5 l-26 0 l-66 420 q-3 21 -18 21 q-11 0 -31 -8.5 q-20 -8.5 -38 -17.5 l-3 34 q24 17 49 30 q21 11 46.5 20.5 q25.5 9.5 50.5 9.5 q29 0 39 -17.5 q10 -17.5 15 -59.5 l42 -305 q61 66 88 132 q27 66 35 129 l-17 106 l113 0 l52 -376 q43 40 66 81.5 q23 41.5 34 82.5 q11 41 13.5 81 q2.5 40 2.5 78 q0 32 17 50 q17 18 43 18 Z" /><glyph glyph-name="x" unicode="x" d="M293 325 l86 106 q30 37 51 51.5 q21 14.5 41 14.5 q19 0 32 -17.5 q13 -17.5 18 -46.5 q5 -20 6 -38 l-28 -14 q-10 9 -20.5 13 q-10.5 4 -20.5 4 q-40 0 -80 -48 l-69 -80 l47 -159 q11 -38 35 -38 q16 0 33 13.5 q17 13.5 35 31.5 l20 -20 q-15 -22 -31.5 -42.5 q-16.5 -20.5 -34.5 -36 q-18 -15.5 -37.5 -25 q-19.5 -9.5 -40.5 -9.5 q-33 0 -50.5 20.5 q-17.5 20.5 -25.5 46.5 l-39 124 l-97 -119 q-26 -31 -50 -51.5 q-24 -20.5 -50 -20.5 q-23 0 -35.5 13 q-12.5 13 -17.5 36 q-2 8 -2.5 16 q-0.5 8 -1.5 16 l22 25 q9 -6 21 -8.5 q12 -2.5 23 -1.5 q23 1 47 13 q24 12 43 35 l82 98 l-55 179 q-4 9 -9.5 15 q-5.5 6 -13.5 6 q-11 0 -31 -8.5 q-20 -8.5 -38 -17.5 l-6 33 q12 9 27 20.5 q15 11.5 33 21.5 q18 10 37.5 17 q19.5 7 39.5 7 q32 0 48.5 -20 q16.5 -20 29.5 -63 l27 -92 Z" /><glyph glyph-name="y" unicode="y" d="M316 26 q35 57 55 126 q20 69 31 149 q-51 -70 -114.5 -146 q-63.5 -76 -133.5 -146 l-37 0 l5 400 q-3 21 -18 21 q-11 0 -32.5 -7.5 q-21.5 -7.5 -39.5 -16.5 l-1 33 q25 17 51 31 q22 11 47.5 21 q25.5 10 48.5 10 q32 0 45.5 -18 q13.5 -18 11.5 -59 l-12 -277 q24 26 50 56 q26 30 50.5 60.5 q24.5 30.5 47 59.5 q22.5 29 39.5 53 q4 52 6 110 l113 0 l6 -10 q-6 -28 -17.5 -79.5 q-11.5 -51.5 -31.5 -115 q-20 -63.5 -49 -134 q-29 -70.5 -70 -136.5 q-24 -39 -56.5 -80.5 q-32.5 -41.5 -72 -75.5 q-39.5 -34 -84.5 -55.5 q-45 -21.5 -95 -21.5 q-34 0 -52.5 14 q-18.5 14 -18.5 40 q0 26 17.5 42.5 q17.5 16.5 49.5 16.5 q27 0 58.5 -1.5 q31.5 -1.5 64.5 9 q33 10.5 68 39 q35 28.5 70 88.5 Z" /><glyph glyph-name="z" unicode="z" d="M452 486 l10 -28 l-318 -340 q20 -3 45.5 -7 q25.5 -4 51 -7.5 q25.5 -3.5 47.5 -6 q22 -2.5 36 -2.5 q22 0 36.5 2.5 q14.5 2.5 24 10 q9.5 7.5 17.5 20.5 q8 13 19 35 l27 -6 q-14 -41 -28.5 -72.5 q-14.5 -31.5 -31 -53.5 q-16.5 -22 -36.5 -33.5 q-20 -11.5 -46 -11.5 q-27 0 -62.5 6 q-35.5 6 -70 13.5 q-34.5 7.5 -63.5 15.5 q-29 8 -44 13 l-32 -34 l-38 0 l-9 26 l317 341 q-32 0 -57.5 4 q-25.5 4 -47.5 8.5 q-22 4.5 -41 8 q-19 3.5 -37 3.5 q-15 0 -27.5 -9 q-12.5 -9 -26.5 -44 l-25 8 q14 39 25.5 68 q11.5 29 24 48 q12.5 19 27 28.5 q14.5 9.5 34.5 9.5 q27 0 49.5 -7 q22.5 -7 48 -15.5 q25.5 -8.5 56.5 -17 q31 -8.5 74 -11.5 l34 37 l37 0 Z" /><glyph glyph-name="zero" unicode="0" d="M605 373 q0 -67 -28.5 -136 q-28.5 -69 -78.5 -125 q-50 -56 -118 -91.5 q-68 -35.5 -148 -35.5 q-40 0 -74.5 10.5 q-34.5 10.5 -60 33 q-25.5 22.5 -40 58 q-14.5 35.5 -14.5 85.5 q0 67 26.5 137 q26.5 70 74.5 127 q48 57 114.5 93 q66.5 36 147.5 36 q43 0 80 -11.5 q37 -11.5 63 -35.5 q26 -24 41 -60 q15 -36 15 -85 ZM261 40 q37 0 67 18 q30 18 54 47 q24 29 41 66.5 q17 37.5 28.5 76 q11.5 38.5 17 75.5 q5.5 37 5.5 66 q0 60 -23 91.5 q-23 31.5 -70 31.5 q-36 0 -65.5 -18.5 q-29.5 -18.5 -53 -48.5 q-23.5 -30 -40.5 -68 q-17 -38 -28 -78 q-11 -40 -16.5 -78 q-5.5 -38 -5.5 -67 q0 -59 22 -86.5 q22 -27.5 67 -27.5 Z" /><glyph glyph-name="one" unicode="1" d="M259 105 q-7 -23 -3 -34 q4 -11 17 -16 q3 -1 15.5 -2.5 q12.5 -1.5 27.5 -2.5 q15 -1 30 -2 q15 -1 24 -2 l-12 -46 l-363 0 l12 46 q5 0 20 1 q15 1 31.5 2.5 q16.5 1.5 30.5 2.5 q14 1 19 3 q29 8 39 50 l88 353 l-136 0 l9 36 q28 4 61.5 13 q33.5 9 66 20.5 q32.5 11.5 62 23.5 q29.5 12 50.5 21 l28 0 l-117 -467 Z" /><glyph glyph-name="two" unicode="2" d="M417 0 l-428 0 l2 35 q96 73 166.5 126 q70.5 53 117 95 q46.5 42 69 78.5 q22.5 36.5 22.5 75.5 q0 70 -86 70 q-48 0 -90.5 -20.5 q-42.5 -20.5 -81.5 -56.5 l-14 23 q67 82 135.5 115 q68.5 33 130.5 33 q72 0 107 -36.5 q35 -36.5 35 -92.5 q0 -53 -29 -97 q-29 -44 -78.5 -84.5 q-49.5 -40.5 -114 -80.5 q-64.5 -40 -135.5 -83 l330 0 l1 -10 l-59 -90 Z" /><glyph glyph-name="three" unicode="3" d="M169 204 q27 15 63.5 35.5 q36.5 20.5 69.5 46.5 q33 26 56 56 q23 30 23 65 q0 21 -9 35.5 q-9 14.5 -23.5 22.5 q-14.5 8 -32.5 11.5 q-18 3.5 -37 3.5 q-47 0 -92.5 -18.5 q-45.5 -18.5 -81.5 -50.5 l-15 26 q65 70 130 103.5 q65 33.5 131 33.5 q72 0 113.5 -35.5 q41.5 -35.5 41.5 -92.5 q0 -36 -17 -66.5 q-17 -30.5 -44.5 -56 q-27.5 -25.5 -62.5 -46 q-35 -20.5 -72 -38.5 q71 -11 109.5 -50 q38.5 -39 38.5 -100 q0 -58 -31.5 -104 q-31.5 -46 -80.5 -78 q-49 -32 -108.5 -49 q-59.5 -17 -114.5 -17 q-27 0 -56 4.5 q-29 4.5 -52.5 14 q-23.5 9.5 -38.5 25 q-15 15.5 -15 37.5 q0 26 20 45.5 q20 19.5 49 19.5 q18 0 27 -7.5 q9 -7.5 14 -18.5 q5 -11 9 -24.5 q4 -13.5 11.5 -24.5 q7.5 -11 21.5 -18.5 q14 -7.5 40 -7.5 q33 0 64.5 12.5 q31.5 12.5 56 35 q24.5 22.5 39.5 53.5 q15 31 15 67 q0 21 -7 40 q-7 19 -24.5 34.5 q-17.5 15.5 -48 27 q-30.5 11.5 -78.5 17.5 l-1 31 Z" /><glyph glyph-name="four" unicode="4" d="M278 50 l-311 0 l16 68 l484 449 l53 0 l-108 -433 l141 0 l0 -10 l-45 -74 l-117 0 l-47 -191 l-113 0 l47 191 ZM299 134 l70 280 l-300 -280 l230 0 Z" /><glyph glyph-name="five" unicode="5" d="M107 -159 q-28 0 -57.5 5.5 q-29.5 5.5 -53 16.5 q-23.5 11 -37 27.5 q-13.5 16.5 -9.5 39.5 q4 22 22 39.5 q18 17.5 46 17.5 q18 0 27 -7.5 q9 -7.5 14.5 -18.5 q5.5 -11 9.5 -24.5 q4 -13.5 12 -24.5 q8 -11 22.5 -18.5 q14.5 -7.5 40.5 -7.5 q36 0 68 16 q32 16 56 43 q24 27 38 61.5 q14 34.5 14 71.5 q0 46 -27.5 71.5 q-27.5 25.5 -67 36.5 q-39.5 11 -84.5 12 q-45 1 -80 -1 l144 361 l379 0 l1 -10 l-60 -96 l-311 0 l-69 -170 q60 1 115 -7 q55 -8 97 -27.5 q42 -19.5 67.5 -51.5 q25.5 -32 25.5 -80 q0 -62 -32.5 -112.5 q-32.5 -50.5 -83 -86.5 q-50.5 -36 -111 -56 q-60.5 -20 -116.5 -20 Z" /><glyph glyph-name="six" unicode="6" d="M635 665 q-75 -5 -139.5 -28 q-64.5 -23 -118 -60.5 q-53.5 -37.5 -95 -87.5 q-41.5 -50 -69.5 -107 q38 23 82.5 39 q44.5 16 90.5 16 q77 0 116.5 -43 q39.5 -43 39.5 -114 q0 -61 -27.5 -114.5 q-27.5 -53.5 -72.5 -94 q-45 -40.5 -103.5 -64 q-58.5 -23.5 -119.5 -23.5 q-94 0 -137 49.5 q-43 49.5 -43 139.5 q0 105 44.5 197.5 q44.5 92.5 119 164 q74.5 71.5 172.5 116.5 q98 45 205 55 q13 2 28 2 q15 0 29 0 l-2 -43 ZM313 366 q-30 0 -61 -8 q-31 -8 -58 -20 q-35 -93 -35 -189 q0 -60 21.5 -89 q21.5 -29 62.5 -29 q37 0 68.5 21.5 q31.5 21.5 53.5 55.5 q22 34 34.5 75.5 q12.5 41.5 12.5 80.5 q0 53 -25.5 77.5 q-25.5 24.5 -73.5 24.5 Z" /><glyph glyph-name="seven" unicode="7" d="M4 -144 l-1 11 l460 593 l-381 0 l-1 10 l59 88 l426 0 l-1 -30 l-471 -672 l-90 0 Z" /><glyph glyph-name="eight" unicode="8" d="M599 579 q0 -38 -16.5 -68 q-16.5 -30 -43.5 -55 q-27 -25 -62.5 -44 q-35.5 -19 -73.5 -34 q63 -34 90 -70.5 q27 -36.5 27 -81.5 q0 -51 -26 -95.5 q-26 -44.5 -69 -76.5 q-43 -32 -98.5 -50.5 q-55.5 -18.5 -115.5 -18.5 q-40 0 -75 7.5 q-35 7.5 -61 24 q-26 16.5 -41 42 q-15 25.5 -15 60.5 q0 39 14.5 73 q14.5 34 40.5 62 q26 28 62 50.5 q36 22.5 79 37.5 q-47 28 -68 61.5 q-21 33.5 -21 75.5 q0 52 26 94.5 q26 42.5 68 72.5 q42 30 94 46 q52 16 104 16 q37 0 70 -8.5 q33 -8.5 58 -25 q25 -16.5 39 -40.5 q14 -24 14 -55 ZM398 179 q0 27 -13.5 48 q-13.5 21 -34.5 37.5 q-21 16.5 -46.5 30 q-25.5 13.5 -49.5 25.5 q-24 -15 -46.5 -34.5 q-22.5 -19.5 -39 -44 q-16.5 -24.5 -26.5 -53 q-10 -28.5 -10 -61.5 q0 -42 24.5 -66.5 q24.5 -24.5 75.5 -24.5 q29 0 58.5 10.5 q29.5 10.5 53.5 29 q24 18.5 39 45 q15 26.5 15 58.5 ZM244 525 q0 -24 10 -42.5 q10 -18.5 26.5 -33.5 q16.5 -15 38.5 -27 q22 -12 45 -24 q24 16 45 35.5 q21 19.5 37 41.5 q16 22 25.5 47 q9.5 25 9.5 53 q0 37 -23 59 q-23 22 -68 22 q-27 0 -53 -9.5 q-26 -9.5 -47 -27 q-21 -17.5 -33.5 -41.5 q-12.5 -24 -12.5 -53 Z" /><glyph glyph-name="nine" unicode="9" d="M-34 -107 q74 4 138.5 27.5 q64.5 23.5 118 61 q53.5 37.5 94.5 87.5 q41 50 69 107 q-38 -23 -82 -39 q-44 -16 -89 -16 q-77 0 -116.5 43.5 q-39.5 43.5 -39.5 113.5 q0 60 26 113.5 q26 53.5 70.5 94 q44.5 40.5 102.5 64.5 q58 24 121 24 q94 0 138.5 -49.5 q44.5 -49.5 44.5 -138.5 q0 -106 -45 -199.5 q-45 -93.5 -120.5 -165 q-75.5 -71.5 -174.5 -116.5 q-99 -45 -207 -54 q-12 0 -24.5 -0.5 q-12.5 -0.5 -26.5 0.5 l2 42 ZM288 192 q29 0 60 8.5 q31 8.5 58 19.5 q35 91 35 189 q0 118 -83 118 q-38 0 -69 -21.5 q-31 -21.5 -53 -55.5 q-22 -34 -34.5 -75.5 q-12.5 -41.5 -12.5 -80.5 q0 -53 25.5 -77.5 q25.5 -24.5 73.5 -24.5 Z" /><glyph glyph-name="AE" unicode="æ" d="M670 642 l-65 -260 l91 0 q22 0 35.5 6 q13.5 6 23.5 20 q5 8 11.5 25.5 q6.5 17.5 11.5 35.5 l43 0 l-56 -225 l-42 0 q2 12 5 31 q3 19 1 28 q-4 28 -46 28 l-91 0 l-70 -280 l131 0 q36 0 63.5 8.5 q27.5 8.5 51 27 q23.5 18.5 45 48.5 q21.5 30 46.5 73 l28 -4 l-65 -204 l-511 0 l10 40 q11 1 28.5 2.5 q17.5 1.5 25.5 5.5 q16 5 24 17.5 q8 12.5 14 34.5 l42 171 l-218 0 l-134 -173 q-14 -17 -9.5 -31.5 q4.5 -14.5 23.5 -19.5 q7 -2 23 -3.5 q16 -1.5 33 -3.5 l-11 -40 l-231 0 l11 40 q10 1 22.5 4.5 q12.5 3.5 21.5 6.5 q17 5 27 16 q10 11 25 29 l426 550 q-19 1 -37.5 2 q-18.5 1 -37.5 3 l10 42 l569 0 l-28 -170 l-38 0 q0 36 -6.5 59 q-6.5 23 -20 36.5 q-13.5 13.5 -36 18.5 q-22.5 5 -54.5 5 l-115 0 ZM548 642 q-3 0 -8.5 0 q-5.5 0 -13.5 1 l-249 -321 l191 0 l80 320 Z" /><glyph glyph-name="OE" unicode="&#x152;" d="M1007 693 l-29 -170 l-39 0 q0 36 -6.5 59 q-6.5 23 -21 36.5 q-14.5 13.5 -37 18.5 q-22.5 5 -54.5 5 l-115 0 l-65 -260 l95 0 q38 0 53 19 q8 11 14.5 27 q6.5 16 14.5 41 l42 0 l-56 -225 l-42 0 q2 10 5 27 q3 17 3 25 q-1 18 -11.5 26.5 q-10.5 8.5 -34.5 8.5 l-96 0 l-70 -280 l131 0 q36 0 63 7.5 q27 7.5 50 25 q23 17.5 44 46.5 q21 29 46 72 l33 -4 l-62 -198 l-436 0 q-26 -7 -53.5 -11 q-27.5 -4 -56.5 -4 q-60 0 -109 17 q-49 17 -83.5 50 q-34.5 33 -53 82 q-18.5 49 -18.5 112 q0 93 38.5 177 q38.5 84 103 147.5 q64.5 63.5 147.5 101 q83 37.5 173 37.5 q58 0 102 -16 l391 0 ZM495 660 q-53 0 -96.5 -20.5 q-43.5 -20.5 -78.5 -55.5 q-35 -35 -61.5 -80.5 q-26.5 -45.5 -44 -94.5 q-17.5 -49 -26 -99 q-8.5 -50 -8.5 -93 q0 -44 8 -77.5 q8 -33.5 26.5 -56.5 q18.5 -23 48 -35 q29.5 -12 72.5 -12 q59 0 102 22 l144 578 q-35 24 -86 24 Z" /><glyph glyph-name="dotlessi" unicode="&#x131;" d="M160 91 q-3 -20 9 -20 q11 0 28.5 12 q17.5 12 46.5 39 l14 -29 q-48 -57 -89.5 -83 q-41.5 -26 -71.5 -25 q-33 1 -45 27 q-12 26 -1 68 l78 315 q8 35 -12 35 q-11 0 -31 -8 q-20 -8 -41 -19 l-2 35 q47 30 87 46.5 q40 16.5 69 16.5 q35 0 43.5 -21 q8.5 -21 0.5 -51 l-83 -338 l0 0 Z" /><glyph glyph-name="ae" unicode="æ" d="M653 101 q-19 -23 -43.5 -44 q-24.5 -21 -53 -37 q-28.5 -16 -61 -25.5 q-32.5 -9.5 -67.5 -9.5 q-70 0 -103.5 35.5 q-33.5 35.5 -41.5 89.5 q-38 -54 -86.5 -87.5 q-48.5 -33.5 -102.5 -33.5 q-43 0 -71.5 26.5 q-28.5 26.5 -28.5 69.5 q0 40 18.5 69.5 q18.5 29.5 54 49.5 q35.5 20 86 32 q50.5 12 114.5 19 q4 0 13 1.5 q9 1.5 19 3.5 l8 30 q3 11 6 26.5 q3 15.5 3 25.5 q2 31 -12 50.5 q-14 19.5 -61 19.5 q-31 0 -76.5 -7 q-45.5 -7 -85.5 -16 l9 52 q56 26 116 41.5 q60 15.5 112 15.5 q49 0 69.5 -17.5 q20.5 -17.5 24.5 -49.5 q36 32 81 51 q45 19 98 19 q28 0 52 -5.5 q24 -5.5 42 -17 q18 -11.5 28 -29.5 q10 -18 10 -43 q0 -30 -16.5 -59 q-16.5 -29 -54.5 -53.5 q-38 -24.5 -99.5 -41.5 q-61.5 -17 -151.5 -21 q-2 -15 -3 -29.5 q-1 -14.5 -1 -28.5 q0 -25 3.5 -46.5 q3.5 -21.5 13.5 -37 q10 -15.5 27 -24.5 q17 -9 43 -9 q36 0 73 17.5 q37 17.5 82 58.5 l14 -31 ZM551 453 q-29 0 -52 -15.5 q-23 -15.5 -41 -41 q-18 -25.5 -30.5 -58.5 q-12.5 -33 -19.5 -67 q57 7 94.5 20.5 q37.5 13.5 60 30.5 q22.5 17 32 36 q9.5 19 9.5 37 q0 58 -53 58 ZM159 77 q29 0 61 19 q32 19 61 54 q0 36 9 72 l-6 0 q-172 -20 -172 -96 q0 -23 13.5 -36 q13.5 -13 33.5 -13 Z" /><glyph glyph-name="oe" unicode="&#x153;" d="M715 101 q-19 -23 -43.5 -44 q-24.5 -21 -53 -37 q-28.5 -16 -61 -25.5 q-32.5 -9.5 -67.5 -9.5 q-54 0 -86 22 q-32 22 -47 57 q-35 -36 -78.5 -58 q-43.5 -22 -96.5 -22 q-81 0 -121 48 q-40 48 -40 129 q0 63 23.5 124 q23.5 61 64.5 109 q41 48 96.5 77.5 q55.5 29.5 119.5 29.5 q54 0 84.5 -22.5 q30.5 -22.5 44.5 -64.5 q39 39 89 63 q50 24 110 24 q28 0 52 -5.5 q24 -5.5 42 -17 q18 -11.5 28 -29.5 q10 -18 10 -43 q0 -30 -16.5 -59.5 q-16.5 -29.5 -54.5 -54.5 q-38 -25 -100 -42.5 q-62 -17.5 -152 -22.5 q-3 -29 -3 -54 q0 -25 3.5 -46.5 q3.5 -21.5 13.5 -37 q10 -15.5 27 -24.5 q17 -9 43 -9 q36 0 73 17.5 q37 17.5 82 58.5 l14 -31 ZM205 37 q33 0 63 30 q30 30 52.5 75.5 q22.5 45.5 36 100.5 q13.5 55 13.5 105 q0 47 -14.5 75 q-14.5 28 -52.5 28 q-38 0 -68 -30.5 q-30 -30.5 -50.5 -76.5 q-20.5 -46 -31.5 -99 q-11 -53 -11 -99 q0 -23 3 -42.5 q3 -19.5 10 -34.5 q7 -15 19.5 -23.5 q12.5 -8.5 30.5 -8.5 ZM612 453 q-29 0 -52.5 -16 q-23.5 -16 -41.5 -42.5 q-18 -26.5 -30.5 -60 q-12.5 -33.5 -19.5 -69.5 q58 8 96 22.5 q38 14.5 60.5 32.5 q22.5 18 32 37.5 q9.5 19.5 9.5 37.5 q0 30 -14 44 q-14 14 -40 14 Z" /><glyph glyph-name="comma" unicode="," d="M-37 -173 l-18 32 q44 26 78 58.5 q34 32.5 49 81.5 q-27 0 -45.5 13.5 q-18.5 13.5 -18.5 40.5 q0 18 7 34.5 q7 16.5 19.5 29 q12.5 12.5 28.5 20 q16 7.5 34 7.5 q33 0 53.5 -19.5 q20.5 -19.5 20.5 -51.5 q0 -40 -20.5 -77.5 q-20.5 -37.5 -51.5 -69.5 q-31 -32 -67.5 -57.5 q-36.5 -25.5 -68.5 -41.5 Z" /><glyph glyph-name="period" unicode="." d="M76 -9 q-11 0 -23 2.5 q-12 2.5 -22 9 q-10 6.5 -16.5 17.5 q-6.5 11 -6.5 28 q0 22 8 38.5 q8 16.5 21.5 28 q13.5 11.5 31 17.5 q17.5 6 35.5 6 q11 0 23.5 -2.5 q12.5 -2.5 22.5 -9 q10 -6.5 16.5 -17.5 q6.5 -11 6.5 -27 q0 -36 -26 -63.5 q-26 -27.5 -71 -27.5 Z" /><glyph glyph-name="question" unicode="?" d="M187 237 q-4 17 -5.5 28 q-1.5 11 -1.5 24 q0 30 14 53.5 q14 23.5 35.5 43 q21.5 19.5 46 36.5 q24.5 17 46 35 q21.5 18 35.5 38 q14 20 14 46 q0 29 -21.5 53 q-21.5 24 -68.5 24 q-18 0 -39.5 -4.5 q-21.5 -4.5 -42.5 -13 q-21 -8.5 -40 -20.5 q-19 -12 -34 -26 l-17 21 q61 70 118.5 99 q57.5 29 119.5 29 q33 0 59.5 -10 q26.5 -10 45 -26.5 q18.5 -16.5 28 -39 q9.5 -22.5 9.5 -47.5 q0 -38 -17 -67 q-17 -29 -42.5 -53 q-25.5 -24 -56.5 -44.5 q-31 -20.5 -59 -42 q-28 -21.5 -50 -45 q-22 -23.5 -29 -52.5 q-3 -13 -2 -24 q1 -11 1 -15 l-46 0 ZM261 70 q0 -20 -7.5 -35 q-7.5 -15 -19.5 -25 q-12 -10 -28 -14.5 q-16 -4.5 -33 -4.5 q-14 0 -28 3 q-14 3 -25 11 q-11 8 -18 21 q-7 13 -7 33 q0 21 8 36 q8 15 20.5 24.5 q12.5 9.5 28.5 14 q16 4.5 32 4.5 q13 0 27 -3.5 q14 -3.5 25 -11 q11 -7.5 18 -21 q7 -13.5 7 -32.5 Z" /><glyph glyph-name="exclam" unicode="!" d="M322 693 l-26 -104 l-120 -353 l-61 0 l55 353 l26 104 l126 0 ZM194 70 q0 -20 -7.5 -35 q-7.5 -15 -19.5 -25 q-12 -10 -28 -14.5 q-16 -4.5 -33 -4.5 q-14 0 -28 3 q-14 3 -25 11 q-11 8 -18 21 q-7 13 -7 33 q0 21 8 36 q8 15 20.5 24.5 q12.5 9.5 28.5 14 q16 4.5 32 4.5 q13 0 27 -3.5 q14 -3.5 25 -11 q11 -7.5 18 -21 q7 -13.5 7 -32.5 Z" /><glyph glyph-name="hyphen" unicode="-" d="M331 221 l-277 0 l21 82 l277 0 l-21 -82 Z" /><glyph glyph-name="endash" unicode="&#x2013;" d="M564 238 l-498 0 l15 61 l498 0 l-15 -61 Z" /><glyph glyph-name="emdash" unicode="&#x2014;" d="M768 238 l-702 0 l15 61 l702 0 l-15 -61 Z" /><glyph glyph-name="underscore" unicode="_" d="M442 -217 l-498 0 l16 61 l498 0 l-16 -61 Z" /><glyph glyph-name="at" unicode="@" d="M567 71 q-42 0 -61.5 14.5 q-19.5 14.5 -22.5 35.5 q-35 -26 -65 -37 q-30 -11 -58 -11 q-54 0 -84.5 33.5 q-30.5 33.5 -30.5 94.5 q0 52 20 102.5 q20 50.5 55 90 q35 39.5 84 63.5 q49 24 107 24 q47 0 82 -19 l44 11 l12 0 l-76 -306 q-7 -26 2 -35 q9 -9 27 -9 q47 0 84.5 30 q37.5 30 63 76.5 q25.5 46.5 39 103 q13.5 56.5 13.5 109.5 q0 50 -16.5 89.5 q-16.5 39.5 -46.5 67 q-30 27.5 -72 42 q-42 14.5 -94 14.5 q-65 0 -126.5 -20 q-61.5 -20 -115.5 -55 q-54 -35 -99 -83 q-45 -48 -77 -105 q-32 -57 -50 -120 q-18 -63 -18 -128 q0 -55 17 -101 q17 -46 51 -79.5 q34 -33.5 85.5 -52 q51.5 -18.5 120.5 -18.5 q22 0 55 2.5 q33 2.5 70.5 8.5 q37.5 6 76.5 17.5 q39 11.5 74 29.5 l-12 -48 q-28 -15 -64.5 -26.5 q-36.5 -11.5 -76 -19 q-39.5 -7.5 -78.5 -11 q-39 -3.5 -71 -3.5 q-78 0 -136 22 q-58 22 -96.5 61.5 q-38.5 39.5 -57.5 93 q-19 53.5 -19 116.5 q0 70 20.5 139.5 q20.5 69.5 58 133 q37.5 63.5 89.5 118 q52 54.5 115 94.5 q63 40 134.5 63 q71.5 23 148.5 23 q62 0 112 -17.5 q50 -17.5 85 -50 q35 -32.5 53.5 -79 q18.5 -46.5 18.5 -103.5 q0 -70 -20 -139 q-20 -69 -57.5 -124 q-37.5 -55 -92 -89 q-54.5 -34 -124.5 -34 ZM411 137 q20 0 35.5 4.5 q15.5 4.5 40.5 15.5 l63 251 q-14 9 -32 16 q-18 7 -45 7 q-24 0 -49.5 -11.5 q-25.5 -11.5 -46.5 -38 q-21 -26.5 -35 -69 q-14 -42.5 -14 -105.5 q0 -34 18 -52 q18 -18 65 -18 Z" /><glyph glyph-name="ampersand" unicode="&amp;" d="M686 15 q-20 -12 -55 -20 q-35 -8 -68 -8 q-25 0 -42 5 q-17 5 -30.5 14.5 q-13.5 9.5 -25 23.5 q-11.5 14 -24.5 32 q-43 -32 -99 -54.5 q-56 -22.5 -126 -22.5 q-82 0 -132 39 q-50 39 -50 112 q0 74 51 127.5 q51 53.5 134 86.5 q-25 36 -36 65 q-11 29 -11 59 q0 46 21 88.5 q21 42.5 57 75 q36 32.5 83.5 52 q47.5 19.5 100.5 19.5 q28 0 56 -6.5 q28 -6.5 50 -20.5 q22 -14 35.5 -37.5 q13.5 -23.5 13.5 -56.5 q0 -40 -20 -72.5 q-20 -32.5 -51.5 -58 q-31.5 -25.5 -72 -45 q-40.5 -19.5 -80.5 -32.5 l147 -196 q0 1 2 3 q14 20 36 48.5 q22 28.5 48 54 q26 25.5 55.5 43.5 q29.5 18 59.5 18 q23 0 37 -11.5 q14 -11.5 9 -35.5 q-5 -27 -25 -40.5 q-20 -13.5 -47 -15.5 q-22 -1 -40.5 -8.5 q-18.5 -7.5 -35 -19 q-16.5 -11.5 -30.5 -25.5 q-14 -14 -27 -27 q-4 -5 -8 -9.5 q-4 -4.5 -9 -9.5 l17 -21 q24 -33 48 -55 q24 -22 56 -22 q14 0 34 3 l-6 -39 ZM292 58 q37 0 68 9.5 q31 9.5 57 25.5 l-172 222 l-6 7 q-32 -31 -52 -71.5 q-20 -40.5 -20 -83.5 q0 -47 28.5 -78 q28.5 -31 96.5 -31 ZM295 526 q0 -24 9 -47.5 q9 -23.5 29 -54.5 l14 -19 q25 15 49 34 q24 19 43 41 q19 22 30 48 q11 26 11 56 q0 32 -15 51 q-15 19 -48 19 q-24 0 -46 -10 q-22 -10 -39 -27.5 q-17 -17.5 -27 -40.5 q-10 -23 -10 -50 Z" /><glyph glyph-name="slash" unicode="/" d="M514 744 l-535 -961 l-64 0 l531 961 l68 0 Z" /><glyph glyph-name="backslash" unicode="\" d="M213 744 l42 -961 l-67 0 l-44 961 l69 0 Z" /><glyph glyph-name="bar" unicode="|" d="M282 744 l-240 -961 l-72 0 l240 961 l72 0 Z" /><glyph glyph-name="parenleft" unicode="(" d="M19 80 q0 102 26 205.5 q26 103.5 78 195 q52 91.5 131 165 q79 73.5 184 114.5 l9 -38 q-51 -17 -95 -55.5 q-44 -38.5 -81 -92 q-37 -53.5 -66 -117.5 q-29 -64 -49 -131.5 q-20 -67.5 -30.5 -134.5 q-10.5 -67 -10.5 -126 q0 -79 25.5 -135 q25.5 -56 85.5 -92 l-27 -38 q-49 17 -83 44 q-34 27 -55.5 62.5 q-21.5 35.5 -31.5 79.5 q-10 44 -10 94 Z" /><glyph glyph-name="parenright" unicode=")" d="M332 467 q0 -66 -11.5 -135.5 q-11.5 -69.5 -34.5 -136 q-23 -66.5 -57.5 -128.5 q-34.5 -62 -80.5 -114 q-46 -52 -104.5 -91.5 q-58.5 -39.5 -128.5 -61.5 l-9 38 q50 16 94.5 55 q44.5 39 81 92.5 q36.5 53.5 65.5 118 q29 64.5 49 132 q20 67.5 30.5 134.5 q10.5 67 10.5 126 q0 79 -25.5 134.5 q-25.5 55.5 -84.5 91.5 l27 38 q50 -23 84 -53 q34 -30 55 -67.5 q21 -37.5 30 -81 q9 -43.5 9 -91.5 Z" /><glyph glyph-name="bracketleft" unicode="[" d="M194 -194 l-218 0 l238 953 l218 0 l-14 -55 l-130 0 l-210 -843 l130 0 l-14 -55 Z" /><glyph glyph-name="bracketright" unicode="]" d="M-76 -139 l131 0 l210 843 l-131 0 l14 55 l219 0 l-238 -953 l-219 0 l14 55 Z" /><glyph glyph-name="braceleft" unicode="{" d="M213 -194 q-48 0 -84.5 7 q-36.5 7 -58.5 25.5 q-22 18.5 -28 52 q-6 33.5 7 86.5 l37 149 q9 37 7.5 60.5 q-1.5 23.5 -11 37 q-9.5 13.5 -26.5 19.5 q-17 6 -38 8 l16 63 q25 3 45 9.5 q20 6.5 36 20.5 q16 14 28 37 q12 23 21 58 l37 150 q13 54 37.5 87 q24.5 33 57.5 51.5 q33 18.5 72 25 q39 6.5 83 6.5 l-14 -55 q-31 0 -54.5 -4.5 q-23.5 -4.5 -41 -15.5 q-17.5 -11 -29.5 -30.5 q-12 -19.5 -19 -50.5 l-31 -124 q-11 -43 -23.5 -76 q-12.5 -33 -30 -56.5 q-17.5 -23.5 -41 -39 q-23.5 -15.5 -55.5 -22.5 l-2 -5 q34 -10 50.5 -26 q16.5 -16 20.5 -39.5 q4 -23.5 -1.5 -55.5 q-5.5 -32 -15.5 -73 l-31 -124 q-8 -32 -4 -51.5 q4 -19.5 16.5 -30.5 q12.5 -11 33.5 -15 q21 -4 48 -4 l-14 -55 Z" /><glyph glyph-name="braceright" unicode="}" d="M-76 -139 q27 0 49.5 4 q22.5 4 41 15 q18.5 11 32 30.5 q13.5 19.5 21.5 51.5 l31 124 q10 41 20.5 73 q10.5 32 26.5 55.5 q16 23.5 40.5 39.5 q24.5 16 63.5 26 l2 5 q-58 15 -67.5 61 q-9.5 46 12.5 133 l31 124 q7 31 5 50.5 q-2 19.5 -13.5 30.5 q-11.5 11 -33 15.5 q-21.5 4.5 -52.5 4.5 l14 55 q43 0 79.5 -6.5 q36.5 -6.5 59.5 -25 q23 -18.5 30.5 -51.5 q7.5 -33 -5.5 -87 l-37 -150 q-9 -35 -8 -58 q1 -23 10.5 -37 q9.5 -14 26.5 -20.5 q17 -6.5 40 -9.5 l-16 -63 q-22 -2 -42 -8 q-20 -6 -36.5 -19.5 q-16.5 -13.5 -30 -37 q-13.5 -23.5 -22.5 -60.5 l-37 -149 q-13 -53 -36 -86.5 q-23 -33.5 -54.5 -52 q-31.5 -18.5 -71 -25.5 q-39.5 -7 -87.5 -7 l13 55 Z" /><glyph glyph-name="section" unicode="§" d="M46 235 q0 63 40.5 117.5 q40.5 54.5 106.5 86.5 q-20 17 -33 40.5 q-13 23.5 -13 55.5 q0 46 23 87 q23 41 61.5 71.5 q38.5 30.5 87.5 48 q49 17.5 101 17.5 q31 0 60 -6.5 q29 -6.5 51 -17.5 q22 -11 35 -27 q13 -16 11 -35 q-2 -23 -19 -39.5 q-17 -16.5 -42 -16.5 q-23 0 -34.5 14.5 q-11.5 14.5 -22 31.5 q-10.5 17 -26 31.5 q-15.5 14.5 -46.5 14.5 q-22 0 -44 -8 q-22 -8 -39.5 -22.5 q-17.5 -14.5 -29 -34.5 q-11.5 -20 -12.5 -44 q-2 -27 11.5 -45 q13.5 -18 44.5 -32 l84 -39 q50 -21 78 -53 q28 -32 28 -80 q0 -61 -40.5 -111.5 q-40.5 -50.5 -106.5 -81.5 q25 -17 41 -41.5 q16 -24.5 16 -60.5 q0 -48 -24.5 -89 q-24.5 -41 -65 -71 q-40.5 -30 -91.5 -47 q-51 -17 -103 -17 q-30 0 -60 5.5 q-30 5.5 -53.5 16 q-23.5 10.5 -37.5 26 q-14 15.5 -12 35.5 q2 28 20 45.5 q18 17.5 49 17.5 q25 0 35 -15 q10 -15 18.5 -33 q8.5 -18 22.5 -33 q14 -15 47 -15 q22 0 45 7.5 q23 7.5 42.5 20.5 q19.5 13 32.5 31.5 q13 18.5 14 41.5 q2 29 -16.5 49.5 q-18.5 20.5 -53.5 36.5 l-72 33 q-53 24 -81 54.5 q-28 30.5 -28 78.5 ZM311 184 l1 -1 q35 17 54.5 45 q19.5 28 21.5 55 q3 55 -69 89 l-71 34 l-12 5 q-30 -17 -50 -44.5 q-20 -27.5 -22 -60.5 q-2 -29 12.5 -48.5 q14.5 -19.5 49.5 -34.5 l85 -39 Z" /><glyph glyph-name="bullet" unicode="&#x2022;" d="M340 302 q0 -30 -13 -59.5 q-13 -29.5 -35.5 -53 q-22.5 -23.5 -52 -38 q-29.5 -14.5 -62.5 -14.5 q-46 0 -76 27.5 q-30 27.5 -30 72.5 q0 32 14 61 q14 29 37 51.5 q23 22.5 52.5 35.5 q29.5 13 60.5 13 q46 0 75.5 -27 q29.5 -27 29.5 -69 Z" /><glyph glyph-name="numbersign" unicode="#" d="M159 481 l128 0 l107 212 l58 0 l-107 -212 l141 0 l107 212 l58 0 l-107 -212 l128 0 l-29 -60 l-129 0 l-81 -160 l128 0 l-30 -60 l-128 0 l-101 -201 l-59 0 l101 201 l-139 0 l-101 -201 l-60 0 l101 201 l-127 0 l30 60 l128 0 l80 160 l-127 0 l30 60 ZM235 261 l140 0 l80 160 l-140 0 l-80 -160 Z" /><glyph glyph-name="percent" unicode="%" d="M765 693 l-658 -693 l-67 0 l656 693 l69 0 ZM433 588 q0 -39 -17 -77 q-17 -38 -46 -67 q-29 -29 -68.5 -47 q-39.5 -18 -85.5 -18 q-49 0 -83.5 27 q-34.5 27 -34.5 89 q0 46 18 84.5 q18 38.5 48 66 q30 27.5 68 42.5 q38 15 78 15 q54 0 88.5 -28.5 q34.5 -28.5 34.5 -86.5 ZM229 420 q31 0 52.5 19.5 q21.5 19.5 35.5 48 q14 28.5 20.5 60 q6.5 31.5 6.5 54.5 q0 32 -12 46.5 q-12 14.5 -35 14.5 q-32 0 -53 -20 q-21 -20 -34.5 -48.5 q-13.5 -28.5 -19 -59 q-5.5 -30.5 -5.5 -52.5 q0 -11 1.5 -22 q1.5 -11 6.5 -20 q5 -9 13.5 -15 q8.5 -6 22.5 -6 ZM726 196 q0 -39 -16.5 -76.5 q-16.5 -37.5 -45.5 -67 q-29 -29.5 -68.5 -47.5 q-39.5 -18 -85.5 -18 q-49 0 -83.5 27.5 q-34.5 27.5 -34.5 89.5 q0 46 18 84 q18 38 48 65.5 q30 27.5 68 42.5 q38 15 78 15 q54 0 88 -28.5 q34 -28.5 34 -86.5 ZM523 28 q31 0 52.5 19.5 q21.5 19.5 35.5 48 q14 28.5 20.5 60 q6.5 31.5 6.5 54.5 q0 32 -12 46.5 q-12 14.5 -35 14.5 q-32 0 -53 -19.5 q-21 -19.5 -34.5 -47.5 q-13.5 -28 -19 -59 q-5.5 -31 -5.5 -53 q0 -12 2 -23.5 q2 -11.5 6.5 -20.5 q4.5 -9 13 -14.5 q8.5 -5.5 22.5 -5.5 Z" /><glyph glyph-name="perthousand" unicode="&#x2030;" d="M766 693 l-658 -693 l-67 0 l656 693 l69 0 ZM434 588 q0 -39 -16.5 -77 q-16.5 -38 -46 -67 q-29.5 -29 -69 -47 q-39.5 -18 -84.5 -18 q-50 0 -84 27 q-34 27 -34 89 q0 46 18 84.5 q18 38.5 47.5 66 q29.5 27.5 67.5 42.5 q38 15 78 15 q54 0 88.5 -28.5 q34.5 -28.5 34.5 -86.5 ZM230 420 q31 0 53 19.5 q22 19.5 36 48 q14 28.5 20.5 60 q6.5 31.5 6.5 54.5 q0 32 -12.5 46.5 q-12.5 14.5 -35.5 14.5 q-32 0 -53 -20 q-21 -20 -34 -48.5 q-13 -28.5 -18.5 -59 q-5.5 -30.5 -5.5 -52.5 q0 -11 1.5 -22 q1.5 -11 6 -20 q4.5 -9 13 -15 q8.5 -6 22.5 -6 ZM728 196 q0 -39 -16.5 -76.5 q-16.5 -37.5 -46 -67 q-29.5 -29.5 -69 -47.5 q-39.5 -18 -84.5 -18 q-50 0 -84 27.5 q-34 27.5 -34 89.5 q0 46 18 84 q18 38 47.5 65.5 q29.5 27.5 67.5 42.5 q38 15 78 15 q54 0 88.5 -28.5 q34.5 -28.5 34.5 -86.5 ZM524 28 q31 0 53 19.5 q22 19.5 36 48 q14 28.5 20.5 60 q6.5 31.5 6.5 54.5 q0 32 -12 46.5 q-12 14.5 -36 14.5 q-31 0 -52.5 -19.5 q-21.5 -19.5 -34.5 -47.5 q-13 -28 -19 -59 q-6 -31 -6 -53 q0 -12 2 -23.5 q2 -11.5 6.5 -20.5 q4.5 -9 13 -14.5 q8.5 -5.5 22.5 -5.5 ZM1083 196 q0 -39 -16.5 -76.5 q-16.5 -37.5 -45.5 -67 q-29 -29.5 -68.5 -47.5 q-39.5 -18 -85.5 -18 q-49 0 -83.5 27.5 q-34.5 27.5 -34.5 89.5 q0 46 18 84 q18 38 48 65.5 q30 27.5 68 42.5 q38 15 78 15 q54 0 88 -28.5 q34 -28.5 34 -86.5 ZM880 28 q31 0 52.5 19.5 q21.5 19.5 35.5 48 q14 28.5 20.5 60 q6.5 31.5 6.5 54.5 q0 32 -12 46.5 q-12 14.5 -35 14.5 q-32 0 -53 -19.5 q-21 -19.5 -34.5 -47.5 q-13.5 -28 -19 -59 q-5.5 -31 -5.5 -53 q0 -12 1.5 -23.5 q1.5 -11.5 6.5 -20.5 q5 -9 13.5 -14.5 q8.5 -5.5 22.5 -5.5 Z" /><glyph glyph-name="dagger" unicode="&#x2020;" d="M420 410 l-137 0 l-156 -627 l-73 0 l156 627 l-137 0 l18 71 l137 0 l66 263 l72 0 l-66 -263 l138 0 l-18 -71 Z" /><glyph glyph-name="quotesingle" unicode="&#39;" d="M292 744 l-116 -283 l-69 0 l97 283 l88 0 Z" /><glyph glyph-name="quotedbl" unicode="&quot;" d="M292 744 l-116 -283 l-69 0 l97 283 l88 0 ZM460 744 l-116 -283 l-69 0 l97 283 l88 0 Z" /><glyph glyph-name="quoteleft" unicode="&#x2018;" d="M112 531 q0 37 18.5 72.5 q18.5 35.5 47.5 66 q29 30.5 64.5 55.5 q35.5 25 68.5 43 l17 -31 q-41 -25 -74 -56.5 q-33 -31.5 -47 -78.5 q26 0 43 -16 q17 -16 17 -41 q0 -17 -7.5 -32 q-7.5 -15 -19.5 -26 q-12 -11 -28 -17 q-16 -6 -32 -6 q-30 0 -49 18.5 q-19 18.5 -19 48.5 Z" /><glyph glyph-name="quoteright" unicode="&#x2019;" d="M320 697 q0 -37 -18.5 -72 q-18.5 -35 -47.5 -65.5 q-29 -30.5 -64 -55.5 q-35 -25 -68 -43 l-18 31 q42 26 74.5 56.5 q32.5 30.5 47.5 78.5 q-26 0 -43 16 q-17 16 -17 42 q0 17 7 31.5 q7 14.5 19 25.5 q12 11 27 17 q15 6 32 6 q30 0 49.5 -18.5 q19.5 -18.5 19.5 -49.5 Z" /><glyph glyph-name="guilsinglleft" unicode="&#x2039;" d="M164 67 l-123 189 l5 20 l217 185 l31 -28 l-136 -163 l52 -176 l-46 -27 Z" /><glyph glyph-name="guilsinglright" unicode="&#x203a;" d="M9 94 l140 176 l-56 163 l45 28 l125 -185 l-5 -20 l-217 -189 l-32 27 Z" /><glyph glyph-name="guillemotleft" unicode="«" d="M164 67 l-123 189 l5 20 l217 185 l31 -28 l-136 -163 l52 -176 l-46 -27 ZM355 67 l-124 189 l5 20 l218 185 l31 -28 l-136 -163 l52 -176 l-46 -27 Z" /><glyph glyph-name="guillemotright" unicode="»" d="M199 94 l140 176 l-56 163 l45 28 l126 -185 l-5 -20 l-218 -189 l-32 27 ZM9 94 l140 176 l-56 163 l45 28 l125 -185 l-5 -20 l-217 -189 l-32 27 Z" /><glyph glyph-name="asterisk" unicode="*" d="M416 458 l-110 43 l-57 -133 l-23 0 l10 133 l-131 -43 l-5 19 l118 88 l-74 88 l14 17 l111 -43 l57 132 l19 0 l-8 -132 l132 43 l4 -17 l-119 -89 l75 -87 l-13 -19 Z" /><glyph glyph-name="plus" unicode="+" d="M355 491 l-49 -194 l192 0 l-17 -65 l-191 0 l-48 -195 l-68 0 l48 195 l-190 0 l17 65 l189 0 l49 194 l68 0 Z" /><glyph glyph-name="less" unicode="&lt;" d="M341 5 l-318 232 l15 60 l433 231 l-19 -75 l-347 -188 l255 -181 l-19 -79 Z" /><glyph glyph-name="equal" unicode="=" d="M487 142 l-449 0 l16 65 l449 0 l-16 -65 ZM532 322 l-449 0 l16 65 l449 0 l-16 -65 Z" /><glyph glyph-name="greater" unicode="&gt;" d="M7 84 l347 188 l-255 181 l19 75 l318 -231 l-15 -60 l-433 -232 l19 79 Z" /><glyph glyph-name="uni0411" unicode="&#x411;" d="M599 523 l-38 0 q-1 36 -7.5 59 q-6.5 23 -20.5 36.5 q-14 13.5 -36.5 18.5 q-22.5 5 -55.5 5 l-102 0 l-62 -246 l134 0 q85 0 133 -38.5 q48 -38.5 48 -109.5 q0 -52 -22.5 -97 q-22.5 -45 -63 -78.5 q-40.5 -33.5 -95.5 -53 q-55 -19.5 -119 -19.5 l-313 0 l10 40 q11 1 28 2 q17 1 25 5 q16 5 24.5 17 q8.5 12 14.5 32 l124 501 q5 21 2 32.5 q-3 11.5 -16 16.5 q-6 3 -20.5 4 q-14.5 1 -29.5 3 l10 40 l490 0 l-42 -170 ZM264 344 l-73 -293 l87 0 q43 0 77 16 q34 16 56.5 43 q22.5 27 34.5 61.5 q12 34.5 12 70.5 q0 52 -24 77 q-24 25 -76 25 l-94 0 Z" /><glyph glyph-name="uni0413" unicode="&#x413;" d="M204 593 q5 23 2.5 35 q-2.5 12 -15.5 17 q-5 3 -19 4.5 q-14 1.5 -31 3.5 l10 40 l490 0 l-42 -170 l-39 0 q0 36 -6.5 59 q-6.5 23 -20.5 36.5 q-14 13.5 -36.5 18.5 q-22.5 5 -55.5 5 l-103 0 l-135 -544 q-5 -22 -1.5 -33.5 q3.5 -11.5 15.5 -16.5 q7 -3 22.5 -4.5 q15.5 -1.5 32.5 -3.5 l-11 -40 l-283 0 l11 40 q11 1 27.5 2 q16.5 1 25.5 5 q16 5 24.5 17 q8.5 12 14.5 32 l123 497 Z" /><glyph glyph-name="uni0414" unicode="&#x414;" d="M523 52 l105 0 l-48 -194 l-39 0 q3 40 0.5 67 q-2.5 27 -14.5 43.5 q-12 16.5 -35.5 24 q-23.5 7.5 -61.5 7.5 l-302 0 q-44 0 -71.5 -6.5 q-27.5 -6.5 -47 -23 q-19.5 -16.5 -34.5 -43.5 q-15 -27 -33 -69 l-38 0 l47 194 l36 0 q45 14 78.5 51.5 q33.5 37.5 64 103.5 q30.5 66 61 163 q30.5 97 69.5 229 q9 35 -10 44 q-9 5 -22.5 7 q-13.5 2 -33.5 3 l10 40 l555 0 l-10 -40 q-11 -1 -28 -2 q-17 -1 -26 -5 q-15 -5 -24 -17 q-9 -12 -14 -32 l-134 -545 ZM324 641 q-33 -120 -60.5 -215.5 q-27.5 -95.5 -55 -168.5 q-27.5 -73 -57.5 -124 q-30 -51 -68 -81 l318 0 l145 589 l-222 0 Z" /><glyph glyph-name="uni0416" unicode="&#x416;" d="M506 96 q-10 -40 13 -49 q7 -3 21 -4 q14 -1 30 -3 l-11 -40 l-274 0 l11 40 q11 1 28.5 2.5 q17.5 1.5 25.5 6.5 q26 10 36 47 l124 501 q10 40 -14 49 q-6 3 -20.5 4 q-14.5 1 -29.5 3 l10 40 l275 0 l-10 -40 q-11 -1 -29 -2.5 q-18 -1.5 -27 -5.5 q-25 -10 -35 -48 l-124 -501 ZM417 333 l-298 -333 l-178 0 l8 40 q40 5 66 25 q26 20 57 55 l250 281 l-100 176 q-38 68 -113 76 l10 40 l254 0 l-11 -40 q-52 -4 -66 -34 q-5 -12 -2 -28 q3 -16 13 -37 q1 -3 9 -18 q8 -15 19 -37 q11 -22 24 -47.5 q13 -25.5 25 -48.5 q12 -23 21.5 -40.5 q9.5 -17.5 13.5 -22.5 l-2 -7 ZM595 340 q6 5 22.5 20 q16.5 15 38.5 35.5 q22 20.5 47 44.5 q25 24 48.5 47 q23.5 23 44 43 q20.5 20 33.5 33 q14 14 23.5 28 q9.5 14 9.5 27 q1 14 -11.5 24 q-12.5 10 -42.5 11 l8 40 l264 0 l-8 -40 q-42 -4 -78.5 -24 q-36.5 -20 -77.5 -57 q-12 -11 -34.5 -32.5 q-22.5 -21.5 -50.5 -48 q-28 -26.5 -59.5 -56 q-31.5 -29.5 -61.5 -57.5 l106 -258 q14 -35 37 -55 q23 -20 60 -25 l-9 -40 l-174 0 l-136 333 l1 7 Z" /><glyph glyph-name="uni0417" unicode="&#x417;" d="M356 659 q-36 0 -66 -12.5 q-30 -12.5 -55 -34.5 q-25 -22 -45.5 -52 q-20.5 -30 -38.5 -65 l-35 0 l39 153 q47 28 102.5 44.5 q55.5 16.5 124.5 16.5 q45 0 83 -9 q38 -9 65.5 -27 q27.5 -18 42.5 -45 q15 -27 15 -62 q0 -42 -15.5 -77 q-15.5 -35 -44.5 -61 q-29 -26 -70 -42 q-41 -16 -92 -21 l-1 -4 q80 -2 126.5 -36 q46.5 -34 46.5 -102 q0 -57 -26.5 -101 q-26.5 -44 -72 -74.5 q-45.5 -30.5 -106 -46.5 q-60.5 -16 -127.5 -16 q-131 0 -211 54 l45 179 l35 0 q1 -39 8 -72.5 q7 -33.5 23 -58 q16 -24.5 42 -38.5 q26 -14 65 -14 q40 0 75 13 q35 13 61 37 q26 24 40.5 58 q14.5 34 14.5 75 q0 34 -10.5 56.5 q-10.5 22.5 -30 36 q-19.5 13.5 -47 19 q-27.5 5.5 -61.5 5.5 l-66 0 l12 50 l65 0 q38 0 72 11.5 q34 11.5 59.5 33 q25.5 21.5 40.5 53.5 q15 32 15 74 q0 48 -23 75 q-23 27 -74 27 Z" /><glyph glyph-name="uni0418" unicode="&#x418;" d="M211 130 l463 563 l186 0 l-10 -40 q-11 -1 -28 -2 q-17 -1 -26 -5 q-15 -5 -24 -17 q-9 -12 -14 -32 l-124 -501 q-6 -21 -2.5 -32.5 q3.5 -11.5 15.5 -16.5 q6 -3 20.5 -4 q14.5 -1 29.5 -3 l-10 -40 l-278 0 l11 40 q11 1 27.5 2 q16.5 1 25.5 5 q16 5 25 17 q9 12 14 32 l115 466 l-461 -562 l-187 0 l10 40 q11 1 28 2 q17 1 25 5 q16 5 24.5 17 q8.5 12 14.5 32 l124 501 q5 21 2 32.5 q-3 11.5 -16 16.5 q-6 3 -20.5 4 q-14.5 1 -29.5 3 l10 40 l278 0 l-10 -40 q-11 -1 -28 -2 q-17 -1 -26 -5 q-15 -5 -24 -17 q-9 -12 -14 -32 l-116 -467 Z" /><glyph glyph-name="uni041B" unicode="&#x41b;" d="M540 96 q-6 -21 -2.5 -32.5 q3.5 -11.5 15.5 -16.5 q6 -3 20.5 -4 q14.5 -1 29.5 -3 l-10 -40 l-278 0 l11 40 q11 1 27.5 2 q16.5 1 25.5 5 q16 5 24.5 17 q8.5 12 14.5 32 l134 545 l-221 0 q-42 -152 -78.5 -273.5 q-36.5 -121.5 -73.5 -206 q-37 -84.5 -77 -129.5 q-40 -45 -91 -45 q-32 0 -47 17 q-15 17 -15 42 q0 27 18.5 46 q18.5 19 50.5 23 q41 5 70.5 32 q29.5 27 56 83.5 q26.5 56.5 55 146.5 q28.5 90 66.5 222 q11 35 -9 44 q-9 5 -23 7 q-14 2 -33 3 l10 40 l555 0 l-10 -40 q-11 -1 -28 -2 q-17 -1 -26 -5 q-15 -5 -24 -17 q-9 -12 -14 -32 l-124 -501 Z" /><glyph glyph-name="uni041F" unicode="&#x41f;" d="M612 96 q-5 -21 -1.5 -32.5 q3.5 -11.5 15.5 -16.5 q6 -3 20.5 -4 q14.5 -1 29.5 -3 l-11 -40 l-277 0 l11 40 q10 1 27 2 q17 1 26 5 q15 5 24 17 q9 12 14 32 l135 545 l-287 0 l-135 -545 q-6 -21 -2.5 -32.5 q3.5 -11.5 15.5 -16.5 q6 -3 20.5 -4 q14.5 -1 29.5 -3 l-10 -40 l-277 0 l10 40 q11 1 28 2 q17 1 25 5 q16 5 24.5 17 q8.5 12 14.5 32 l124 501 q5 21 2 32.5 q-3 11.5 -16 16.5 q-6 3 -20.5 4 q-14.5 1 -29.5 3 l10 40 l687 0 l-10 -40 q-11 -1 -28 -2 q-17 -1 -26 -5 q-28 -9 -37 -49 l-125 -501 Z" /><glyph glyph-name="uni0423" unicode="&#x423;" d="M217 106 q23 0 41 11 q18 11 35 32 l-135 447 q-9 31 -24.5 42.5 q-15.5 11.5 -44.5 14.5 l10 40 l280 0 l-10 -40 q-34 -3 -53.5 -9 q-19.5 -6 -27.5 -17 q-8 -11 -7 -29 q1 -18 9 -43 l86 -296 l208 306 q32 45 19.5 65.5 q-12.5 20.5 -70.5 22.5 l10 40 l231 0 l-9 -37 q-30 -4 -51.5 -15.5 q-21.5 -11.5 -41.5 -40.5 l-294 -416 q-35 -49 -62 -86.5 q-27 -37.5 -53.5 -62.5 q-26.5 -25 -54.5 -37.5 q-28 -12.5 -65 -12.5 q-38 0 -54.5 19 q-16.5 19 -16.5 43 q0 35 23 53 q23 18 54 18 q13 0 22 -2 q9 -2 16 -4 q7 -2 13.5 -4 q6.5 -2 16.5 -2 Z" /><glyph glyph-name="uni0424" unicode="&#x424;" d="M580 593 l2 4 q139 0 215.5 -51.5 q76.5 -51.5 76.5 -151.5 q0 -67 -28 -122 q-28 -55 -81 -94 q-53 -39 -130.5 -60 q-77.5 -21 -177.5 -21 l-2 -11 q-6 -21 -2.5 -32.5 q3.5 -11.5 15.5 -16.5 q6 -3 20.5 -4 q14.5 -1 29.5 -3 l-10 -40 l-277 0 l11 40 q10 1 27 2 q17 1 26 5 q15 5 23.5 17 q8.5 12 14.5 32 l2 11 q-138 0 -214.5 51.5 q-76.5 51.5 -76.5 151.5 q0 67 27.5 121.5 q27.5 54.5 80.5 93.5 q53 39 130.5 60.5 q77.5 21.5 176.5 21.5 l3 10 q5 21 2 32.5 q-3 11.5 -16 16.5 q-6 3 -20.5 4 q-14.5 1 -28.5 3 l10 40 l277 0 l-10 -40 q-11 -1 -28 -2 q-17 -1 -26 -5 q-15 -5 -24 -17 q-9 -12 -14 -32 l-4 -14 ZM739 393 q0 42 -13 72 q-13 30 -35.5 49.5 q-22.5 19.5 -53 29 q-30.5 9.5 -66.5 10.5 l-105 -421 l3 9 q61 0 111 19 q50 19 85.5 52.5 q35.5 33.5 54.5 79.5 q19 46 19 100 ZM179 301 q0 -42 12.5 -72 q12.5 -30 35 -49.5 q22.5 -19.5 53 -29 q30.5 -9.5 66.5 -10.5 l102 412 q-61 0 -110.5 -19 q-49.5 -19 -85 -52.5 q-35.5 -33.5 -54.5 -79.5 q-19 -46 -19 -100 Z" /><glyph glyph-name="uni0426" unicode="&#x426;" d="M205 597 q5 21 1.5 32.5 q-3.5 11.5 -15.5 16.5 q-6 3 -20.5 4 q-14.5 1 -29.5 3 l11 40 l277 0 l-11 -40 q-10 -1 -27 -2 q-17 -1 -26 -5 q-15 -5 -24 -17 q-9 -12 -14 -32 l-135 -545 l287 0 l135 545 q6 21 2.5 32.5 q-3.5 11.5 -15.5 16.5 q-6 3 -20.5 4 q-14.5 1 -29.5 3 l10 40 l277 0 l-11 -40 q-10 -1 -27 -2 q-17 -1 -26 -5 q-15 -5 -23.5 -17 q-8.5 -12 -14.5 -32 l-136 -545 l99 0 l-49 -194 l-38 0 q4 41 2 68 q-2 27 -13 43.5 q-11 16.5 -33.5 23.5 q-22.5 7 -58.5 7 l-530 0 l10 40 q10 1 27.5 2 q17.5 1 25.5 5 q29 9 38 49 l125 501 Z" /><glyph glyph-name="uni0427" unicode="&#x427;" d="M571 96 q-6 -21 -2.5 -32.5 q3.5 -11.5 15.5 -16.5 q6 -3 20.5 -4 q14.5 -1 30.5 -3 l-11 -40 l-277 0 l10 40 q11 1 28 2 q17 1 25 5 q16 5 24.5 17 q8.5 12 14.5 32 l57 233 q-45 -18 -91 -27.5 q-46 -9.5 -100 -9.5 q-50 0 -88.5 14.5 q-38.5 14.5 -62 41.5 q-23.5 27 -30.5 67 q-7 40 6 91 l23 91 q5 21 1.5 32.5 q-3.5 11.5 -15.5 16.5 q-6 3 -20.5 4 q-14.5 1 -29.5 3 l10 40 l278 0 l-10 -40 q-11 -1 -28 -2 q-17 -1 -26 -5 q-15 -5 -24 -17 q-9 -12 -14 -32 l-23 -92 q-18 -73 6.5 -113 q24.5 -40 104.5 -40 q63 0 101.5 9.5 q38.5 9.5 42.5 10.5 l56 225 q5 21 2 32.5 q-3 11.5 -16 16.5 q-6 3 -20.5 4 q-14.5 1 -28.5 3 l10 40 l277 0 l-10 -40 q-11 -1 -28 -2 q-17 -1 -26 -5 q-15 -5 -24 -17 q-9 -12 -14 -32 l-124 -501 Z" /><glyph glyph-name="uni0428" unicode="&#x428;" d="M205 597 q5 21 1.5 32.5 q-3.5 11.5 -15.5 16.5 q-6 3 -20.5 4 q-14.5 1 -29.5 3 l11 40 l277 0 l-11 -40 q-10 -1 -27 -2 q-17 -1 -26 -5 q-15 -5 -24 -17 q-9 -12 -14 -32 l-135 -545 l249 0 l135 545 q6 21 2.5 32.5 q-3.5 11.5 -15.5 16.5 q-6 3 -20.5 4 q-14.5 1 -29.5 3 l10 40 l277 0 l-10 -40 q-11 -1 -28 -2 q-17 -1 -25 -5 q-16 -5 -24.5 -17 q-8.5 -12 -14.5 -32 l-135 -545 l249 0 l136 545 q5 21 1.5 32.5 q-3.5 11.5 -15.5 16.5 q-6 3 -20.5 4 q-14.5 1 -29.5 3 l11 40 l277 0 l-11 -40 q-11 -1 -27.5 -2 q-16.5 -1 -25.5 -5 q-15 -5 -24 -17 q-9 -12 -14 -32 l-125 -501 q-5 -21 -1.5 -32.5 q3.5 -11.5 16.5 -16.5 q6 -3 20.5 -4 q14.5 -1 28.5 -3 l-10 -40 l-1020 0 l10 40 q10 1 27.5 2 q17.5 1 25.5 5 q29 9 38 49 l125 501 Z" /><glyph glyph-name="uni0429" unicode="&#x429;" d="M-21 0 l10 40 q10 1 27.5 2 q17.5 1 25.5 5 q29 9 38 49 l125 501 q5 21 1.5 32.5 q-3.5 11.5 -15.5 16.5 q-6 3 -20.5 4 q-14.5 1 -29.5 3 l11 40 l277 0 l-11 -40 q-10 -1 -27 -2 q-17 -1 -26 -5 q-15 -5 -24 -17 q-9 -12 -14 -32 l-135 -545 l249 0 l135 545 q6 21 2.5 32.5 q-3.5 11.5 -15.5 16.5 q-6 3 -20.5 4 q-14.5 1 -29.5 3 l10 40 l277 0 l-10 -40 q-11 -1 -28 -2 q-17 -1 -25 -5 q-16 -5 -24.5 -17 q-8.5 -12 -14.5 -32 l-135 -545 l249 0 l136 545 q5 21 1.5 32.5 q-3.5 11.5 -15.5 16.5 q-6 3 -20.5 4 q-14.5 1 -29.5 3 l11 40 l277 0 l-11 -40 q-11 -1 -27.5 -2 q-16.5 -1 -25.5 -5 q-15 -5 -24 -17 q-9 -12 -14 -32 l-136 -545 l98 0 l-48 -194 l-39 0 q4 41 2.5 68 q-1.5 27 -13 43.5 q-11.5 16.5 -34 23.5 q-22.5 7 -58.5 7 l-863 0 Z" /><glyph glyph-name="uni042A" unicode="&#x42a;" d="M401 400 l126 0 q85 0 132.5 -38.5 q47.5 -38.5 47.5 -109.5 q0 -52 -22.5 -97.5 q-22.5 -45.5 -62.5 -80 q-40 -34.5 -95 -54.5 q-55 -20 -119 -20 l-306 0 l10 40 q11 1 28 2 q17 1 25 5 q16 5 24.5 17 q8.5 12 14.5 32 l137 548 l-34 0 q-34 0 -60.5 -7 q-26.5 -7 -48.5 -23 q-22 -16 -41 -41 q-19 -25 -37 -61 l-36 0 l44 181 l424 0 l-10 -40 q-11 -1 -28 -2 q-17 -1 -26 -5 q-15 -5 -24 -17 q-9 -12 -14 -32 l-49 -197 ZM388 349 l-74 -298 l79 0 q44 0 77.5 17 q33.5 17 56.5 44.5 q23 27.5 34.5 62.5 q11.5 35 11.5 72 q0 51 -23.5 76.5 q-23.5 25.5 -75.5 25.5 l-86 0 Z" /><glyph glyph-name="uni042B" unicode="&#x42b;" d="M769 96 q-5 -21 -1.5 -32.5 q3.5 -11.5 15.5 -16.5 q6 -3 20.5 -4 q14.5 -1 29.5 -3 l-11 -40 l-277 0 l11 40 q10 1 27 2 q17 1 26 5 q29 9 38 49 l125 501 q5 21 1.5 32.5 q-3.5 11.5 -16.5 16.5 q-6 3 -20.5 4 q-14.5 1 -28.5 3 l10 40 l277 0 l-10 -40 q-11 -1 -28 -2 q-17 -1 -26 -5 q-28 -9 -37 -49 l-125 -501 ZM278 400 l126 0 q85 0 132.5 -38.5 q47.5 -38.5 47.5 -109.5 q0 -52 -22.5 -97.5 q-22.5 -45.5 -62.5 -80 q-40 -34.5 -95 -54.5 q-55 -20 -119 -20 l-306 0 l10 40 q11 1 28 2 q17 1 25 5 q16 5 24.5 17 q8.5 12 14.5 32 l124 501 q5 21 2 32.5 q-3 11.5 -16 16.5 q-6 3 -20.5 4 q-14.5 1 -29.5 3 l10 40 l278 0 l-10 -40 q-11 -1 -28 -2 q-17 -1 -26 -5 q-15 -5 -24 -17 q-9 -12 -14 -32 l-49 -197 ZM265 349 l-74 -298 l79 0 q44 0 77.5 17 q33.5 17 56.5 44.5 q23 27.5 35 62.5 q12 35 12 72 q0 51 -24 76.5 q-24 25.5 -76 25.5 l-86 0 Z" /><glyph glyph-name="uni042C" unicode="&#x42c;" d="M278 400 l126 0 q85 0 132.5 -38.5 q47.5 -38.5 47.5 -109.5 q0 -52 -22.5 -97.5 q-22.5 -45.5 -62.5 -80 q-40 -34.5 -95 -54.5 q-55 -20 -119 -20 l-306 0 l10 40 q11 1 28 2 q17 1 25 5 q16 5 24.5 17 q8.5 12 14.5 32 l124 501 q5 21 2 32.5 q-3 11.5 -16 16.5 q-6 3 -20.5 4 q-14.5 1 -29.5 3 l10 40 l278 0 l-10 -40 q-11 -1 -28 -2 q-17 -1 -26 -5 q-15 -5 -24 -17 q-9 -12 -14 -32 l-49 -197 ZM265 349 l-74 -298 l79 0 q44 0 77.5 17 q33.5 17 56.5 44.5 q23 27.5 35 62.5 q12 35 12 72 q0 51 -24 76.5 q-24 25.5 -76 25.5 l-86 0 Z" /><glyph glyph-name="uni042D" unicode="&#x42d;" d="M217 34 q56 0 101.5 25 q45.5 25 80.5 66 q35 41 60.5 93 q25.5 52 40.5 107 l-285 0 l2 52 l296 0 q12 61 12 116 q0 80 -33.5 123.5 q-33.5 43.5 -110.5 43.5 q-43 0 -78 -14 q-35 -14 -63.5 -38 q-28.5 -24 -51.5 -56 q-23 -32 -42 -67 l-37 0 l38 153 q51 34 114 52.5 q63 18.5 129 18.5 q65 0 114.5 -18 q49.5 -18 82.5 -51.5 q33 -33.5 50 -80.5 q17 -47 17 -105 q0 -60 -16 -118 q-16 -58 -45.5 -110 q-29.5 -52 -71 -96 q-41.5 -44 -92.5 -76.5 q-51 -32.5 -110 -50.5 q-59 -18 -123 -18 q-56 0 -107 14 q-51 14 -91 40 l44 179 l37 0 q0 -41 7 -75 q7 -34 23 -58 q16 -24 42.5 -37.5 q26.5 -13.5 65.5 -13.5 Z" /><glyph glyph-name="uni042E" unicode="&#x42e;" d="M1072 450 q0 -88 -35 -171.5 q-35 -83.5 -95 -149 q-60 -65.5 -141 -105 q-81 -39.5 -173 -39.5 q-117 0 -182.5 67.5 q-65.5 67.5 -65.5 187.5 q0 49 10 95 l-128 0 l-59 -239 q-6 -21 -2.5 -32.5 q3.5 -11.5 15.5 -16.5 q6 -3 20.5 -4 q14.5 -1 29.5 -3 l-10 -40 l-277 0 l10 40 q11 1 28 2 q17 1 25 5 q16 5 24.5 17 q8.5 12 14.5 32 l124 501 q5 21 2 32.5 q-3 11.5 -16 16.5 q-6 3 -20.5 4 q-14.5 1 -29.5 3 l10 40 l278 0 l-10 -40 q-11 -1 -28 -2 q-17 -1 -26 -5 q-15 -5 -24 -17 q-9 -12 -14 -32 l-52 -210 l130 0 q22 66 63 124.5 q41 58.5 95 102.5 q54 44 119.5 69.5 q65.5 25.5 137.5 25.5 q61 0 108 -18.5 q47 -18.5 79 -52.5 q32 -34 48.5 -82 q16.5 -48 16.5 -106 ZM640 36 q51 0 93.5 21.5 q42.5 21.5 76.5 57 q34 35.5 59 82 q25 46.5 41.5 97 q16.5 50.5 25 101 q8.5 50.5 8.5 94.5 q0 78 -32.5 124.5 q-32.5 46.5 -104.5 46.5 q-51 0 -92.5 -22 q-41.5 -22 -75 -58.5 q-33.5 -36.5 -58 -84 q-24.5 -47.5 -41 -98.5 q-16.5 -51 -24.5 -102 q-8 -51 -8 -94 q0 -80 31.5 -122.5 q31.5 -42.5 100.5 -42.5 Z" /><glyph glyph-name="uni042F" unicode="&#x42f;" d="M436 298 l-70 0 l-254 -298 l-163 0 l9 40 q19 4 33.5 10.5 q14.5 6.5 28 16.5 q13.5 10 27 23 q13.5 13 28.5 30 l173 198 q-54 11 -88 44.5 q-34 33.5 -34 94.5 q0 40 18.5 82 q18.5 42 55.5 76 q37 34 93 56 q56 22 132 22 l309 0 l-11 -40 q-10 -1 -27 -2.5 q-17 -1.5 -26 -4.5 q-28 -10 -38 -49 l-124 -501 q-5 -21 -2 -32.5 q3 -11.5 16 -16.5 q6 -3 20.5 -4 q14.5 -1 28.5 -3 l-10 -40 l-277 0 l10 40 q11 1 28 2 q17 1 26 4 q28 10 38 50 l50 202 ZM257 456 q0 -53 27 -80.5 q27 -27.5 83 -27.5 l81 0 l73 293 l-81 0 q-44 0 -78 -15.5 q-34 -15.5 -57 -41.5 q-23 -26 -35.5 -59 q-12.5 -33 -12.5 -69 Z" /><glyph glyph-name="uni0430" unicode="&#x430;" d="M402 97 q-4 -14 -1 -20 q3 -6 9 -6 q13 0 34 16.5 q21 16.5 41 34.5 l14 -30 q-48 -57 -89 -82 q-41 -25 -70 -25 q-18 0 -29 8 q-11 8 -16 20.5 q-5 12.5 -4.5 28.5 q0.5 16 5.5 33 l35 122 l-3 0 q-26 -45 -53 -83.5 q-27 -38.5 -54.5 -66 q-27.5 -27.5 -55.5 -43 q-28 -15.5 -57 -15.5 q-39 0 -66 30.5 q-27 30.5 -27 105.5 q0 64 24.5 130.5 q24.5 66.5 67 121 q42.5 54.5 101.5 89.5 q59 35 128 35 q24 0 46 -5.5 q22 -5.5 41 -14.5 l63 20 l18 0 l-102 -404 ZM158 80 q18 0 40.5 17.5 q22.5 17.5 47.5 46.5 q25 29 50 66.5 q25 37.5 49 77.5 l30 121 q-16 16 -35.5 26.5 q-19.5 10.5 -40.5 10.5 q-28 0 -52.5 -14.5 q-24.5 -14.5 -43.5 -39 q-19 -24.5 -34 -56 q-15 -31.5 -25 -65 q-10 -33.5 -15 -66 q-5 -32.5 -5 -59.5 q0 -66 34 -66 Z" /><glyph glyph-name="uni0431" unicode="&#x431;" d="M609 755 q-18 -52 -49 -84.5 q-31 -32.5 -94 -42.5 l-21 -3 q-45 -5 -77.5 -4.5 q-32.5 0.5 -56.5 -1 q-24 -1.5 -42 -8 q-18 -6.5 -33 -25.5 q-21 -27 -37.5 -68 q-16.5 -41 -30.5 -104 q12 14 28.5 29.5 q16.5 15.5 38 28 q21.5 12.5 47.5 21 q26 8.5 58 8.5 q84 0 125 -47.5 q41 -47.5 41 -122.5 q0 -63 -25 -125.5 q-25 -62.5 -67 -111.5 q-42 -49 -97.5 -79.5 q-55.5 -30.5 -116.5 -30.5 q-83 0 -122 50 q-39 50 -39 132 q0 35 6 76 q6 41 20 94 q21 87 55.5 157.5 q34.5 70.5 83 121.5 q48.5 51 112 80.5 q63.5 29.5 142.5 34.5 l11 1 q28 2 47.5 3.5 q19.5 1.5 33.5 4.5 q14 3 23 8 q9 5 16 14 l20 -6 ZM219 37 q33 0 63.5 30 q30.5 30 53.5 75.5 q23 45.5 36.5 100.5 q13.5 55 13.5 105 q0 47 -15 75 q-15 28 -53 28 q-39 0 -69.5 -30.5 q-30.5 -30.5 -51.5 -76.5 q-21 -46 -32 -99 q-11 -53 -11 -99 q0 -45 14.5 -77 q14.5 -32 50.5 -32 Z" /><glyph glyph-name="uni0432" unicode="&#x432;" d="M328 501 q72 0 104 -29 q32 -29 32 -71 q0 -28 -12.5 -51.5 q-12.5 -23.5 -34.5 -42 q-22 -18.5 -52 -31.5 q-30 -13 -66 -20 q52 -2 87.5 -26.5 q35.5 -24.5 34.5 -74.5 q-1 -38 -20.5 -69 q-19.5 -31 -51.5 -53.5 q-32 -22.5 -74.5 -35 q-42.5 -12.5 -88.5 -12.5 q-46 0 -78 12.5 q-32 12.5 -52 34.5 q-20 22 -29 51.5 q-9 29.5 -9 63.5 q0 58 22 121 q22 63 62.5 114.5 q40.5 51.5 97.5 85 q57 33.5 128 33.5 ZM186 226 q-5 0 -21.5 -2 q-16.5 -2 -27.5 -4 q-3 -29 -3 -56 q0 -25 3 -48 q3 -23 12 -41 q9 -18 24.5 -29 q15.5 -11 39.5 -11 q42 0 66 28.5 q24 28.5 26 81.5 q1 40 -27.5 63 q-28.5 23 -91.5 18 ZM288 453 q-29 0 -52.5 -16 q-23.5 -16 -41.5 -42.5 q-18 -26.5 -30.5 -60.5 q-12.5 -34 -19.5 -71 q7 1 16 2 q9 1 17.5 2.5 q8.5 1.5 15 2.5 q6.5 1 7.5 1 q62 8 102 41.5 q40 33.5 40 89.5 q0 22 -13 36.5 q-13 14.5 -41 14.5 Z" /><glyph glyph-name="uni0433" unicode="&#x433;" d="M6 101 q0 46 21 74.5 q21 28.5 52.5 47.5 q31.5 19 68.5 33.5 q37 14.5 68.5 32 q31.5 17.5 52.5 42 q21 24.5 21 64.5 q0 28 -18 42.5 q-18 14.5 -47 14.5 q-39 0 -68.5 -27.5 q-29.5 -27.5 -59.5 -84.5 l-32 3 l31 121 q37 19 74 28 q37 9 83 9 q32 0 59 -6.5 q27 -6.5 47 -20 q20 -13.5 31.5 -35 q11.5 -21.5 11.5 -51.5 q0 -49 -21 -79.5 q-21 -30.5 -52 -50.5 q-31 -20 -68 -34.5 q-37 -14.5 -68 -31 q-31 -16.5 -52 -39.5 q-21 -23 -21 -60 q0 -27 19.5 -43 q19.5 -16 54.5 -16 q51 0 84 29 q33 29 61 85 l35 -3 l-34 -123 q-36 -19 -78 -28 q-42 -9 -85 -9 q-35 0 -66.5 6.5 q-31.5 6.5 -54.5 20 q-23 13.5 -36.5 35.5 q-13.5 22 -13.5 54 Z" /><glyph glyph-name="uni0434" unicode="&#x434;" d="M301 500 q53 0 88 -26 q-1 40 -9 77.5 q-8 37.5 -26.5 70 q-18.5 32.5 -51 58.5 q-32.5 26 -81.5 43 l18 33 q131 -28 197 -113.5 q66 -85.5 66 -218.5 q0 -88 -24 -167.5 q-24 -79.5 -66.5 -140 q-42.5 -60.5 -102 -96.5 q-59.5 -36 -130.5 -36 q-42 0 -72 14 q-30 14 -48.5 39 q-18.5 25 -27.5 58 q-9 33 -9 71 q0 56 21 115.5 q21 59.5 58 108 q37 48.5 88 79.5 q51 31 112 31 ZM209 43 q27 0 50 16.5 q23 16.5 42.5 44.5 q19.5 28 34.5 65 q15 37 25.5 78.5 q10.5 41.5 17.5 84.5 q7 43 9 84 q-17 16 -34.5 23 q-17.5 7 -41.5 7 q-45 0 -76.5 -30 q-31.5 -30 -52 -73.5 q-20.5 -43.5 -30 -93 q-9.5 -49.5 -9.5 -89.5 q0 -63 16.5 -90 q16.5 -27 48.5 -27 Z" /><glyph glyph-name="uni0435" unicode="&#x435;" d="M391 101 q-19 -23 -43.5 -44 q-24.5 -21 -53 -37 q-28.5 -16 -61 -25.5 q-32.5 -9.5 -67.5 -9.5 q-41 0 -69 12.5 q-28 12.5 -45 34.5 q-17 22 -25 51.5 q-8 29.5 -8 63.5 q0 58 21.5 121 q21.5 63 62 114.5 q40.5 51.5 98 85 q57.5 33.5 128.5 33.5 q28 0 52 -5.5 q24 -5.5 42 -17 q18 -11.5 28 -29.5 q10 -18 10 -43 q0 -30 -16.5 -59.5 q-16.5 -29.5 -54.5 -54.5 q-38 -25 -100 -42.5 q-62 -17.5 -152 -22.5 q-3 -29 -3 -54 q0 -25 3.5 -46.5 q3.5 -21.5 13.5 -37 q10 -15.5 27 -24.5 q17 -9 43 -9 q36 0 73 17.5 q37 17.5 82 58.5 l14 -31 ZM288 453 q-29 0 -52.5 -16 q-23.5 -16 -41.5 -42.5 q-18 -26.5 -30.5 -60 q-12.5 -33.5 -19.5 -69.5 q58 8 96 22.5 q38 14.5 60.5 32.5 q22.5 18 32 37.5 q9.5 19.5 9.5 37.5 q0 30 -14 44 q-14 14 -40 14 Z" /><glyph glyph-name="uni0436" unicode="&#x436;" d="M64 385 q15 24 32 44.5 q17 20.5 37.5 36.5 q20.5 16 44 25 q23.5 9 51.5 9 q29 0 49.5 -12 q20.5 -12 33.5 -34 q13 -22 19 -51.5 q6 -29.5 6 -64.5 q0 -18 -2 -36.5 q-2 -18.5 -5 -36.5 l80 0 l55 221 l102 0 l-56 -221 l79 0 q13 46 35 88.5 q22 42.5 52 75 q30 32.5 68.5 52 q38.5 19.5 83.5 19.5 q45 0 72.5 -17 q27.5 -17 27.5 -56 q0 -20 -11.5 -39.5 q-11.5 -19.5 -43.5 -19.5 q-26 0 -39 13.5 q-13 13.5 -17 39.5 q-2 14 -5 22.5 q-3 8.5 -17 8.5 q-26 0 -47 -28 q-21 -28 -35.5 -70 q-14.5 -42 -22.5 -92 q-8 -50 -8 -94 q0 -23 2 -43.5 q2 -20.5 8 -35.5 q6 -15 16.5 -23.5 q10.5 -8.5 27.5 -8.5 q28 0 51.5 21 q23.5 21 46.5 53 l11 -32 q-15 -24 -32 -44.5 q-17 -20.5 -37 -36.5 q-20 -16 -43.5 -25 q-23.5 -9 -51.5 -9 q-30 0 -50.5 12 q-20.5 12 -33 34 q-12.5 22 -18.5 51.5 q-6 29.5 -6 64.5 q0 35 6 73 l-80 0 l-55 -219 l-100 0 l54 219 l-79 0 q-13 -47 -35 -89.5 q-22 -42.5 -52.5 -74.5 q-30.5 -32 -68.5 -51.5 q-38 -19.5 -83 -19.5 q-44 0 -71.5 17 q-27.5 17 -27.5 55 q0 20 11.5 39.5 q11.5 19.5 42.5 19.5 q26 0 39 -13.5 q13 -13.5 18 -39.5 q2 -14 5 -22 q3 -8 16 -8 q26 0 47 28 q21 28 36 70 q15 42 23 92 q8 50 8 94 q0 23 -2.5 43.5 q-2.5 20.5 -8.5 35.5 q-6 15 -16.5 23.5 q-10.5 8.5 -27.5 8.5 q-28 0 -51 -21 q-23 -21 -46 -53 l-12 32 Z" /><glyph glyph-name="uni0437" unicode="&#x437;" d="M153 -15 q-56 0 -92.5 9 q-36.5 9 -68.5 29 l20 126 l31 2 q5 -29 12.5 -51 q7.5 -22 20 -37.5 q12.5 -15.5 30.5 -23.5 q18 -8 45 -8 q51 0 80.5 29 q29.5 29 29.5 81 q0 38 -18.5 61 q-18.5 23 -70.5 23 l-55 0 l9 45 l54 0 q51 0 79 28 q28 28 28 76 q0 38 -16.5 59 q-16.5 21 -50.5 21 q-41 0 -69 -26 q-28 -26 -54 -80 l-33 3 l29 113 q36 19 70.5 28 q34.5 9 80.5 9 q33 0 61.5 -7 q28.5 -7 49.5 -21.5 q21 -14.5 33.5 -37 q12.5 -22.5 12.5 -53.5 q0 -57 -39.5 -90 q-39.5 -33 -97.5 -42 q45 -7 77 -34.5 q32 -27.5 32 -73.5 q0 -38 -17 -67.5 q-17 -29.5 -46.5 -49.5 q-29.5 -20 -69.5 -30 q-40 -10 -87 -10 Z" /><glyph glyph-name="uni0438" unicode="&#x438;" d="M436 102 q-6 -20 -1.5 -25.5 q4.5 -5.5 9.5 -5.5 q12 0 31.5 15.5 q19.5 15.5 41.5 35.5 l14 -29 q-45 -54 -86.5 -81 q-41.5 -27 -71.5 -27 q-18 0 -29 7.5 q-11 7.5 -16 20 q-5 12.5 -5 27.5 q0 15 4 30 l35 142 l-3 0 q-34 -62 -64 -105 q-30 -43 -58.5 -70 q-28.5 -27 -55 -39.5 q-26.5 -12.5 -52.5 -12.5 q-24 0 -41 9 q-17 9 -25.5 29.5 q-8.5 20.5 -8 52.5 q0.5 32 11.5 78 l62 242 q5 19 0 27 q-5 8 -14 8 q-9 0 -26 -6 q-17 -6 -45 -21 l-1 35 q38 28 80.5 45 q42.5 17 73.5 17 q36 -1 44.5 -22.5 q8.5 -21.5 -0.5 -56.5 l-60 -234 q-12 -47 -13.5 -72.5 q-1.5 -25.5 25.5 -25.5 q28 0 79 56.5 q51 56.5 114 176.5 l40 163 l107 0 l-96 -384 l0 0 Z" /><glyph glyph-name="uni043A" unicode="&#x43a;" d="M130 395 q8 35 -12 35 q-11 0 -31 -8 q-20 -8 -41 -19 l-2 35 q47 30 87 46.5 q40 16.5 69 16.5 q35 0 44 -21 q9 -21 1 -51 l-106 -429 l-107 0 l98 395 ZM226 241 q34 32 62 58 q24 23 45.5 43.5 q21.5 20.5 26.5 26.5 q26 27 28.5 53.5 q2.5 26.5 -18.5 36.5 l0 27 l133 0 q6 -31 -10.5 -59.5 q-16.5 -28.5 -40.5 -48.5 q-6 -4 -21.5 -16.5 q-15.5 -12.5 -35.5 -28 q-20 -15.5 -41.5 -33 q-21.5 -17.5 -39.5 -31.5 l135 -253 l-10 -31 l-98 0 l-119 238 l4 18 Z" /><glyph glyph-name="uni043B" unicode="&#x43b;" d="M390 112 q-5 -21 -4.5 -31 q0.5 -10 9.5 -10 q18 0 73 51 l13 -29 q-45 -54 -86.5 -81.5 q-41.5 -27.5 -71.5 -26.5 q-34 1 -46.5 26 q-12.5 25 -1.5 66 l90 366 l-122 0 q-29 -121 -54 -207 q-25 -86 -51.5 -140.5 q-26.5 -54.5 -57.5 -80 q-31 -25.5 -70 -25.5 q-27 0 -40.5 13.5 q-13.5 13.5 -13.5 34.5 q0 20 15.5 37.5 q15.5 17.5 48.5 20.5 q33 3 55.5 22 q22.5 19 40.5 56 q18 37 33.5 91 q15.5 54 35.5 128 q8 36 -6 44.5 q-14 8.5 -51 10.5 l9 38 l346 0 l-93 -374 Z" /><glyph glyph-name="uni043C" unicode="&#x43c;" d="M296 486 l41 -333 l218 333 l118 0 l-93 -374 q-5 -21 -4.5 -31 q0.5 -10 9.5 -10 q18 0 73 51 l14 -29 q-45 -54 -86.5 -81.5 q-41.5 -27.5 -72.5 -26.5 q-34 1 -46.5 26 q-12.5 25 -1.5 66 l73 295 l-242 -366 l-37 0 l-48 364 q-24 -100 -46 -171.5 q-22 -71.5 -45 -118 q-23 -46.5 -49.5 -68.5 q-26.5 -22 -60.5 -22 q-26 0 -39 13.5 q-13 13.5 -13 34.5 q0 20 14.5 36 q14.5 16 42.5 21 q30 5 51.5 26.5 q21.5 21.5 39.5 59.5 q18 38 33.5 91 q15.5 53 32.5 121 q4 18 3 28.5 q-1 10.5 -8.5 16 q-7.5 5.5 -20.5 7.5 q-13 2 -31 3 l9 38 l172 0 Z" /><glyph glyph-name="uni043D" unicode="&#x43d;" d="M436 112 q-10 -41 5 -41 q18 0 73 51 l14 -29 q-45 -54 -86.5 -81.5 q-41.5 -27.5 -72.5 -26.5 q-34 1 -46.5 26 q-12.5 25 -1.5 66 l35 141 l-163 0 l-54 -218 l-107 0 l98 395 q8 35 -12 35 q-11 0 -31 -8 q-20 -8 -41 -19 l-2 35 q47 30 87 46.5 q40 16.5 69 16.5 q35 0 44 -21 q9 -21 1 -51 l-40 -163 l163 0 l54 220 l107 0 l-93 -374 Z" /><glyph glyph-name="uni0444" unicode="&#x444;" d="M411 653 q5 20 1 28 q-4 8 -15 8 q-12 0 -31.5 -8.5 q-19.5 -8.5 -39.5 -17.5 l-1 35 q42 28 82 44.5 q40 16.5 72 16.5 q33 0 44 -18.5 q11 -18.5 3 -49.5 l-85 -342 q36 75 76 113.5 q40 38.5 89 38.5 q51 0 75 -41 q24 -41 24 -107 q0 -68 -23 -133.5 q-23 -65.5 -63.5 -117.5 q-40.5 -52 -96.5 -83.5 q-56 -31.5 -123 -32.5 q-21 0 -32 4 q-11 4 -14 4 l-40 -161 l78 0 l-12 -50 l-261 0 l12 50 l77 0 l76 304 q-37 -75 -77 -113.5 q-40 -38.5 -88 -38.5 q-51 0 -75 41 q-24 41 -24 107 q0 67 22.5 132 q22.5 65 62.5 116.5 q40 51.5 95.5 83.5 q55.5 32 121.5 34 q23 0 34.5 -4 q11.5 -4 15.5 -4 l40 162 ZM173 73 q28 0 59.5 37.5 q31.5 37.5 75.5 128.5 l44 178 q-5 5 -20 14 q-15 9 -38 9 q-38 0 -68 -25 q-30 -25 -51 -64.5 q-21 -39.5 -32.5 -88.5 q-11.5 -49 -11.5 -96 q0 -49 9.5 -71 q9.5 -22 32.5 -22 ZM550 412 q-27 0 -59 -37 q-32 -37 -75 -126 l-45 -182 q6 -5 21.5 -13 q15.5 -8 36.5 -8 q38 0 68.5 25 q30.5 25 51.5 64.5 q21 39.5 32 88 q11 48.5 11 95.5 q0 50 -9.5 71.5 q-9.5 21.5 -32.5 21.5 Z" /><glyph glyph-name="uni0446" unicode="&#x446;" d="M341 -178 q21 6 29 17.5 q8 11.5 11 27.5 q3 16 4.5 36 q1.5 20 9.5 43 q5 17 16 32 q11 15 27 30 q-15 -8 -32 -13.5 q-17 -5.5 -33 -5.5 q-36 0 -45 25 q-9 25 -1 59 l35 139 l-3 0 q-34 -62 -64 -105 q-30 -43 -58.5 -70 q-28.5 -27 -55 -39.5 q-26.5 -12.5 -52.5 -12.5 q-24 0 -41 9 q-17 9 -25.5 29.5 q-8.5 20.5 -8 52.5 q0.5 32 11.5 78 l62 242 q5 19 0 27 q-5 8 -14 8 q-9 0 -26 -6 q-17 -6 -45 -21 l-1 35 q38 28 80.5 45 q42.5 17 73.5 17 q36 -1 44.5 -22.5 q8.5 -21.5 -0.5 -56.5 l-60 -234 q-12 -47 -13.5 -72.5 q-1.5 -25.5 25.5 -25.5 q28 0 79 56.5 q51 56.5 114 176.5 l40 163 l107 0 l-110 -442 l70 0 l0 -21 q-15 -17 -18 -34 q-3 -17 -3 -35 q0 -18 -0.5 -37.5 q-0.5 -19.5 -8.5 -40.5 q-11 -28 -39 -48 q-28 -20 -77 -24 l-5 18 Z" /><glyph glyph-name="uni0447" unicode="&#x447;" d="M433 102 q-5 -20 -1 -25.5 q4 -5.5 9 -5.5 q12 0 31.5 15.5 q19.5 15.5 42.5 35.5 l13 -29 q-45 -54 -86.5 -81 q-41.5 -27 -71.5 -27 q-38 0 -48.5 27 q-10.5 27 0.5 65 l48 197 q-38 -45 -85.5 -75 q-47.5 -30 -92.5 -30 q-52 0 -72 40 q-20 40 -1 115 l18 72 q5 19 0.5 27 q-4.5 8 -14.5 8 q-8 0 -25 -6 q-17 -6 -45 -21 l-2 35 q39 28 81.5 45 q42.5 17 72.5 17 q35 -1 44 -22.5 q9 -21.5 -1 -56.5 l-20 -82 q-10 -34 -5 -56 q5 -22 37 -22 q32 0 63.5 19 q31.5 19 60.5 48 l39 157 l106 0 l-96 -384 l0 0 Z" /><glyph glyph-name="uni0448" unicode="&#x448;" d="M343 196 q-31 -57 -59 -97.5 q-28 -40.5 -54 -65.5 q-26 -25 -51 -36.5 q-25 -11.5 -50 -11.5 q-48 0 -67 39 q-19 39 4 130 l62 242 q5 19 0 27 q-5 8 -14 8 q-9 0 -26 -6 q-17 -6 -45 -21 l-1 35 q38 28 80.5 45 q42.5 17 73.5 17 q36 -1 44.5 -22.5 q8.5 -21.5 -0.5 -56.5 l-60 -234 q-12 -47 -13.5 -72.5 q-1.5 -25.5 25.5 -25.5 q28 0 74.5 56 q46.5 56 107.5 174 l42 166 l106 0 l-76 -298 q-11 -47 -12.5 -72.5 q-1.5 -25.5 25.5 -25.5 q28 0 74 55.5 q46 55.5 106 173.5 l42 167 l107 0 l-97 -384 q-5 -20 -0.5 -25.5 q4.5 -5.5 9.5 -5.5 q11 0 31 15.5 q20 15.5 42 35.5 l14 -29 q-45 -54 -87 -81 q-42 -27 -71 -27 q-18 0 -29 7.5 q-11 7.5 -16 20 q-5 12.5 -5 27.5 q0 15 4 30 l35 142 l-2 0 q-33 -62 -61.5 -105 q-28.5 -43 -55.5 -70 q-27 -27 -52.5 -39.5 q-25.5 -12.5 -51.5 -12.5 q-49 0 -67.5 38.5 q-18.5 38.5 4.5 130.5 l11 42 Z" /><glyph glyph-name="uni0449" unicode="&#x449;" d="M343 196 q-31 -57 -59 -97.5 q-28 -40.5 -54 -65.5 q-26 -25 -51 -36.5 q-25 -11.5 -50 -11.5 q-48 0 -67 39 q-19 39 4 130 l62 242 q5 19 0 27 q-5 8 -14 8 q-9 0 -26 -6 q-17 -6 -45 -21 l-1 35 q38 28 80.5 45 q42.5 17 73.5 17 q36 -1 44.5 -22.5 q8.5 -21.5 -0.5 -56.5 l-60 -234 q-12 -47 -13.5 -72.5 q-1.5 -25.5 25.5 -25.5 q28 0 74.5 56 q46.5 56 107.5 174 l42 166 l106 0 l-76 -298 q-11 -47 -12.5 -72.5 q-1.5 -25.5 25.5 -25.5 q28 0 74 55.5 q46 55.5 106 173.5 l42 167 l107 0 l-111 -442 l70 0 l0 -21 q-14 -17 -17.5 -34 q-3.5 -17 -3.5 -35 q0 -18 -0.5 -37.5 q-0.5 -19.5 -8.5 -40.5 q-11 -28 -38.5 -48 q-27.5 -20 -76.5 -24 l-5 18 q21 6 29 17.5 q8 11.5 10.5 27.5 q2.5 16 4 36 q1.5 20 9.5 43 q10 31 44 62 q-16 -8 -33 -13.5 q-17 -5.5 -32 -5.5 q-37 0 -45.5 25 q-8.5 25 -0.5 59 l34 139 l-1 0 q-33 -62 -61.5 -105 q-28.5 -43 -55.5 -70 q-27 -27 -52.5 -39.5 q-25.5 -12.5 -51.5 -12.5 q-49 0 -67.5 38.5 q-18.5 38.5 4.5 130.5 l11 42 Z" /><glyph glyph-name="uni044A" unicode="&#x44a;" d="M402 453 q-58 -39 -102 -88.5 q-44 -49.5 -70 -106.5 q23 20 57 36.5 q34 16.5 76 16.5 q54 0 83.5 -28 q29.5 -28 29.5 -81 q0 -51 -22 -91 q-22 -40 -57 -68 q-35 -28 -77.5 -43 q-42.5 -15 -83.5 -15 q-72 0 -106 36 q-34 36 -34 94 q0 43 14 83.5 q14 40.5 38 78 q24 37.5 56 71.5 q32 34 67 63 q-29 -9 -51 -11 q-22 -2 -41 -1.5 q-19 0.5 -36 3 q-17 2.5 -35 2.5 q-15 0 -27 -10 q-12 -10 -26 -43 l-25 8 q13 39 24.5 66 q11.5 27 24 43.5 q12.5 16.5 26.5 24 q14 7.5 34 7.5 q28 0 50 -7 q22 -7 44.5 -15 q22.5 -8 47.5 -13 q25 -5 59 -1 q8 6 17 11.5 q9 5.5 17 10.5 l25 0 l3 -33 ZM252 32 q21 0 41 12.5 q20 12.5 36 33.5 q16 21 25.5 49 q9.5 28 9.5 60 q0 35 -15 51 q-15 16 -38 16 q-18 0 -35 -8 q-17 -8 -31.5 -20 q-14.5 -12 -25.5 -25.5 q-11 -13.5 -17 -23.5 q-4 -17 -5.5 -34 q-1.5 -17 -1.5 -34 q0 -41 15.5 -59 q15.5 -18 41.5 -18 Z" /><glyph glyph-name="uni044B" unicode="&#x44b;" d="M201 267 q20 19 50.5 35 q30.5 16 77.5 16 q54 0 83.5 -28 q29.5 -28 29.5 -81 q0 -52 -22.5 -93.5 q-22.5 -41.5 -57.5 -70.5 q-35 -29 -78 -44.5 q-43 -15.5 -84 -15.5 q-44 0 -73.5 13.5 q-29.5 13.5 -45 38.5 q-15.5 25 -18 59.5 q-2.5 34.5 8.5 75.5 l57 224 q5 19 0 27 q-5 8 -14 8 q-8 0 -25 -6 q-17 -6 -45 -21 l-2 35 q39 28 81.5 45 q42.5 17 72.5 17 q36 -1 44.5 -22.5 q8.5 -21.5 -0.5 -56.5 l-40 -155 ZM583 112 q-10 -41 4 -41 q19 0 74 51 l13 -29 q-45 -54 -86.5 -81.5 q-41.5 -27.5 -72.5 -26.5 q-34 1 -46 26 q-12 25 -1 66 l101 409 l106 0 l-92 -374 ZM216 32 q21 0 41.5 12.5 q20.5 12.5 36 34.5 q15.5 22 25.5 51.5 q10 29.5 10 63.5 q0 35 -14.5 51 q-14.5 16 -37.5 16 q-28 0 -52 -19 q-24 -19 -41 -39 l-13 -52 q-14 -57 -2 -88 q12 -31 47 -31 Z" /><glyph glyph-name="uni044C" unicode="&#x44c;" d="M201 267 q20 19 50.5 35 q30.5 16 77.5 16 q54 0 83.5 -28 q29.5 -28 29.5 -81 q0 -52 -22.5 -93.5 q-22.5 -41.5 -57.5 -70.5 q-35 -29 -78 -44.5 q-43 -15.5 -84 -15.5 q-44 0 -73.5 13.5 q-29.5 13.5 -45 38.5 q-15.5 25 -18 59.5 q-2.5 34.5 8.5 75.5 l57 224 q5 19 0 27 q-5 8 -14 8 q-8 0 -25 -6 q-17 -6 -45 -21 l-2 35 q39 28 81.5 45 q42.5 17 72.5 17 q36 -1 44.5 -22.5 q8.5 -21.5 -0.5 -56.5 l-40 -155 ZM216 32 q21 0 41.5 12.5 q20.5 12.5 36 34.5 q15.5 22 25.5 51.5 q10 29.5 10 63.5 q0 35 -14.5 51 q-14.5 16 -37.5 16 q-28 0 -52 -19 q-24 -19 -41 -39 l-13 -52 q-14 -57 -2 -88 q12 -31 47 -31 Z" /><glyph glyph-name="uni044D" unicode="&#x44d;" d="M130 -16 q-43 0 -78.5 10.5 q-35.5 10.5 -60.5 27.5 l20 126 l32 2 q12 -118 86 -118 q30 0 55 15.5 q25 15.5 44.5 41.5 q19.5 26 33.5 60 q14 34 23 72 l-171 0 l8 47 l172 0 q2 17 3.5 35 q1.5 18 1.5 35 q0 49 -15 81 q-15 32 -59 32 q-44 0 -73.5 -25 q-29.5 -25 -55.5 -79 l-32 3 l28 113 q36 19 73.5 28 q37.5 9 82.5 9 q84 0 127 -48.5 q43 -48.5 43 -129.5 q0 -63 -21 -123.5 q-21 -60.5 -59 -108.5 q-38 -48 -91 -77 q-53 -29 -117 -29 Z" /><glyph glyph-name="uni044E" unicode="&#x44e;" d="M730 329 q0 -60 -23 -121.5 q-23 -61.5 -63.5 -111 q-40.5 -49.5 -96.5 -81 q-56 -31.5 -121 -31.5 q-80 0 -118.5 48 q-38.5 48 -39.5 129 q0 14 1 28.5 q1 14.5 3 28.5 l-80 0 l-54 -218 l-107 0 l98 395 q8 35 -12 35 q-11 0 -31 -8 q-20 -8 -41 -19 l-2 35 q47 30 87 46.5 q40 16.5 69 16.5 q35 0 44 -21 q9 -21 1 -51 l-40 -163 l80 0 q15 48 41.5 90.5 q26.5 42.5 63 74.5 q36.5 32 81.5 51 q45 19 96 19 q78 0 120.5 -45.5 q42.5 -45.5 43.5 -126.5 ZM449 37 q33 0 62.5 29.5 q29.5 29.5 51.5 74.5 q22 45 34.5 99.5 q12.5 54.5 12.5 104.5 q0 49 -14 77.5 q-14 28.5 -52 28.5 q-38 0 -67.5 -30 q-29.5 -30 -49.5 -75 q-20 -45 -30 -98.5 q-10 -53.5 -10 -99.5 q0 -23 3 -43 q3 -20 10 -35 q7 -15 19 -24 q12 -9 30 -9 Z" /><glyph glyph-name="uni044F" unicode="&#x44f;" d="M395 112 q-10 -41 5 -41 q18 0 73 51 l14 -29 q-45 -54 -86.5 -81.5 q-41.5 -27.5 -72.5 -26.5 q-34 1 -46 26 q-12 25 -2 66 l34 139 l-60 0 q-44 -66 -76 -109.5 q-32 -43.5 -57.5 -69.5 q-25.5 -26 -48.5 -37 q-23 -11 -49 -12 q-15 -1 -26.5 1 q-11.5 2 -19.5 4 q-10 3 -16 7 l0 27 q14 0 24.5 10 q10.5 10 33.5 36 l71 80 q16 19 29.5 32 q13.5 13 26 22.5 q12.5 9.5 26 15.5 q13.5 6 28.5 11 l0 3 q-26 1 -49.5 7 q-23.5 6 -41 18 q-17.5 12 -27.5 31.5 q-10 19.5 -10 46.5 q0 35 16 64.5 q16 29.5 45.5 51 q29.5 21.5 70 33.5 q40.5 12 89.5 12 q34 0 60 -6 q26 -6 46 -14 l73 20 l20 0 l-97 -389 ZM190 330 q0 -42 27.5 -59 q27.5 -17 65.5 -17 l40 0 l43 173 q-11 12 -27.5 20 q-16.5 8 -39.5 8 q-26 0 -46.5 -11 q-20.5 -11 -34.5 -28.5 q-14 -17.5 -21 -40 q-7 -22.5 -7 -45.5 Z" /><glyph glyph-name="acute" unicode="´" d="M450 738 l-186 -162 l-37 0 l-2 10 l116 163 l108 0 l1 -11 Z" /><glyph glyph-name="grave" unicode="`" d="M245 749 l108 0 l87 -163 l-1 -10 l-38 0 l-157 162 l1 11 Z" /><glyph glyph-name="circumflex" unicode="&#x2c6;" d="M355 749 l49 0 l74 -160 l-6 -10 l-42 0 l-74 94 l-108 -94 l-36 0 l-2 10 l145 160 Z" /><glyph glyph-name="dieresis" unicode="¨" d="M378 670 q0 28 21 50 q21 22 52 22 q22 0 37.5 -13.5 q15.5 -13.5 15.5 -39.5 q0 -32 -23 -51 q-23 -19 -50 -19 q-22 0 -37.5 13.5 q-15.5 13.5 -15.5 37.5 ZM195 669 q0 29 21 51 q21 22 52 22 q22 0 37 -13.5 q15 -13.5 15 -39.5 q0 -32 -23 -51 q-23 -19 -50 -19 q-23 0 -37.5 13.5 q-14.5 13.5 -14.5 36.5 Z" /><glyph glyph-name="tilde" unicode="&#x2dc;" d="M489 725 q-13 -49 -41.5 -80 q-28.5 -31 -79.5 -31 q-23 0 -40 6.5 q-17 6.5 -31 14.5 q-14 8 -26 14.5 q-12 6.5 -23 6.5 q-30 0 -52 -46 l-36 0 q13 46 42 78.5 q29 32.5 75 32.5 q19 0 35 -6.5 q16 -6.5 29.5 -14.5 q13.5 -8 25.5 -14.5 q12 -6.5 25 -6.5 q20 0 35.5 11.5 q15.5 11.5 24.5 34.5 l37 0 Z" /><glyph glyph-name="macron" unicode="¯" d="M152 700 l234 0 l-16 -63 l-234 0 l16 63 Z" /><glyph glyph-name="cedilla" unicode="¸" d="M323 -128 q0 -26 -12.5 -44.5 q-12.5 -18.5 -32.5 -30.5 q-20 -12 -45.5 -17.5 q-25.5 -5.5 -51.5 -5.5 q-17 0 -38.5 4 q-21.5 4 -37.5 10 l13 54 q16 -6 35 -10.5 q19 -4.5 36 -4.5 q22 0 37 8 q15 8 15 24 q0 9 -6 14.5 q-6 5.5 -15.5 8.5 q-9.5 3 -21 4 q-11.5 1 -22.5 1 l30 121 l47 0 l-16 -66 q33 -3 59.5 -20.5 q26.5 -17.5 26.5 -49.5 Z" /><glyph glyph-name="trademark" unicode="&#x2122;" d="M1066 759 l0 -33 q-7 -1 -17.5 -2 q-10.5 -1 -15.5 -4 q-15 -6 -15 -29 l0 -215 q0 -23 15 -29 q5 -3 14.5 -4 q9.5 -1 18.5 -2 l0 -34 l-178 0 l0 34 q7 1 17.5 2 q10.5 1 16.5 3 q14 7 14 30 l0 198 l-119 -205 l-23 0 l-119 208 l0 -180 q0 -17 5.5 -27.5 q5.5 -10.5 13.5 -16.5 q8 -5 18.5 -8 q10.5 -3 22.5 -5 l0 -33 l-164 0 l0 33 q11 2 19.5 4 q8.5 2 16.5 7 q10 6 16.5 17 q6.5 11 6.5 29 l0 184 q0 26 -16 35 q-5 4 -16 6 q-11 2 -23 4 l0 33 l140 0 l109 -195 l114 195 l128 0 ZM397 720 l0 -244 q0 -24 15 -31 q6 -2 13 -2.5 q7 -0.5 19 -1.5 l0 -34 l-177 0 l0 34 q8 1 16.5 1.5 q8.5 0.5 14.5 2.5 q15 5 15 31 l0 244 l-17 0 q-42 0 -62.5 -17 q-20.5 -17 -33.5 -61 l-29 0 l0 117 l368 0 l0 -117 l-29 0 q-12 45 -32.5 61.5 q-20.5 16.5 -62.5 16.5 l-18 0 Z" /><glyph glyph-name="registered" unicode="®" d="M366 242 q-52 0 -98 17 q-46 17 -80.5 49.5 q-34.5 32.5 -55 80.5 q-20.5 48 -20.5 111 q0 63 20.5 111 q20.5 48 55 80.5 q34.5 32.5 80.5 49.5 q46 17 98 17 q52 0 98 -17 q46 -17 80.5 -49.5 q34.5 -32.5 55 -80.5 q20.5 -48 20.5 -111 q0 -63 -20.5 -111 q-20.5 -48 -55 -80.5 q-34.5 -32.5 -80.5 -49.5 q-46 -17 -98 -17 ZM366 286 q44 0 81.5 14 q37.5 14 64.5 41.5 q27 27.5 42.5 67.5 q15.5 40 15.5 91 q0 51 -15.5 91 q-15.5 40 -42.5 67.5 q-27 27.5 -64.5 41.5 q-37.5 14 -81.5 14 q-44 0 -81.5 -14 q-37.5 -14 -64.5 -41.5 q-27 -27.5 -42.5 -67.5 q-15.5 -40 -15.5 -91 q0 -51 15.5 -91 q15.5 -40 42.5 -67.5 q27 -27.5 64.5 -41.5 q37.5 -14 81.5 -14 ZM274 598 q0 14 -9 17 q-4 2 -8 2 q-4 0 -11 1 l0 21 l139 0 q35 0 59.5 -16.5 q24.5 -16.5 24.5 -51.5 q0 -26 -17.5 -44.5 q-17.5 -18.5 -42.5 -26.5 l52 -66 q11 -14 20.5 -20 q9.5 -6 23.5 -8 l0 -21 l-79 0 l-74 109 l-20 0 l0 -68 q0 -13 8 -16 q7 -2 24 -4 l0 -21 l-118 0 l0 21 l19 3 q9 5 9 17 l0 172 ZM332 611 l0 -90 l24 0 q27 0 38.5 10.5 q11.5 10.5 11.5 36.5 q0 23 -11.5 33 q-11.5 10 -32.5 10 l-30 0 Z" /><glyph glyph-name="copyright" unicode="©" d="M245 -9 q-44 0 -82 13 q-38 13 -66 38.5 q-28 25.5 -43.5 64.5 q-15.5 39 -15.5 91 q0 70 28 136.5 q28 66.5 76.5 117.5 q48.5 51 113.5 82 q65 31 138 31 q44 0 82 -12.5 q38 -12.5 65.5 -38 q27.5 -25.5 43.5 -65.5 q16 -40 16 -94 q0 -77 -30.5 -143.5 q-30.5 -66.5 -80 -115.5 q-49.5 -49 -114 -77 q-64.5 -28 -131.5 -28 ZM256 32 q66 0 120.5 27.5 q54.5 27.5 93.5 72.5 q39 45 61 102 q22 57 22 116 q0 88 -45.5 131 q-45.5 43 -124.5 43 q-65 0 -120 -27.5 q-55 -27.5 -94.5 -72.5 q-39.5 -45 -62 -102 q-22.5 -57 -22.5 -117 q0 -45 13 -78 q13 -33 36 -54 q23 -21 54.5 -31 q31.5 -10 68.5 -10 ZM398 154 q-29 -20 -63 -31 q-34 -11 -66 -11 q-106 0 -106 107 q0 46 18.5 87.5 q18.5 41.5 48.5 72.5 q30 31 69 49.5 q39 18.5 81 18.5 q35 0 60.5 -14 q25.5 -14 25.5 -37 q0 -21 -15.5 -36 q-15.5 -15 -34.5 -15 q-14 0 -20 9 q-6 9 -10.5 19.5 q-4.5 10.5 -12 19.5 q-7.5 9 -25.5 9 q-23 0 -41.5 -13.5 q-18.5 -13.5 -32.5 -35.5 q-14 -22 -21.5 -50.5 q-7.5 -28.5 -7.5 -58.5 q0 -32 13.5 -52.5 q13.5 -20.5 56.5 -20.5 q34 0 91 17 l-8 -34 Z" /><glyph glyph-name="Euro" unicode="&#x20ac;" d="M89 461 l74 0 q29 54 69.5 99.5 q40.5 45.5 89 78.5 q48.5 33 102.5 51.5 q54 18.5 110 18.5 q29 0 57.5 -5.5 q28.5 -5.5 51.5 -16.5 q23 -11 37.5 -28.5 q14.5 -17.5 14.5 -41.5 q0 -29 -19 -46 q-19 -17 -45 -17 q-17 0 -26.5 8 q-9.5 8 -16 19.5 q-6.5 11.5 -12.5 25.5 q-6 14 -15.5 25.5 q-9.5 11.5 -25 19.5 q-15.5 8 -41.5 8 q-36 0 -67 -16 q-31 -16 -57.5 -43 q-26.5 -27 -48 -63.5 q-21.5 -36.5 -37.5 -76.5 l200 0 l-12 -50 l-206 0 q-17 -58 -26 -109 l205 0 l-13 -50 l-199 0 q-1 -14 -1.5 -26.5 q-0.5 -12.5 -0.5 -24.5 q0 -81 29 -124 q29 -43 86 -43 q25 0 43.5 7.5 q18.5 7.5 33 19.5 q14.5 12 26.5 25 q12 13 24.5 25 q12.5 12 26.5 19.5 q14 7.5 32 7.5 q16 0 27.5 -8 q11.5 -8 11.5 -30 q0 -29 -21 -50.5 q-21 -21.5 -54 -36 q-33 -14.5 -73 -21.5 q-40 -7 -77 -7 q-114 0 -177.5 65.5 q-63.5 65.5 -63.5 186.5 l0 15 l-68 0 l13 50 l60 0 q7 55 29 109 l-62 0 l12 50 Z" /><glyph glyph-name="dollar" unicode="$" d="M439 827 l-30 -119 q33 -1 64.5 -7 q31.5 -6 56.5 -17.5 q25 -11.5 40 -28 q15 -16.5 15 -37.5 q0 -12 -4.5 -24 q-4.5 -12 -13.5 -21.5 q-9 -9.5 -21.5 -16 q-12.5 -6.5 -27.5 -6.5 q-24 0 -36 14 q-12 14 -21.5 32.5 q-9.5 18.5 -23 36 q-13.5 17.5 -41.5 23.5 l-62 -248 l36 -14 q29 -12 53.5 -27.5 q24.5 -15.5 42.5 -36 q18 -20.5 28 -46 q10 -25.5 10 -57.5 q0 -54 -22.5 -96.5 q-22.5 -42.5 -61 -72.5 q-38.5 -30 -88 -48 q-49.5 -18 -103.5 -23 l-36 -146 l-53 0 l36 144 q-33 1 -65.5 8 q-32.5 7 -58 19.5 q-25.5 12.5 -41.5 30 q-16 17.5 -16 39.5 q0 14 6.5 26.5 q6.5 12.5 16.5 21.5 q10 9 23 14.5 q13 5.5 26 5.5 q22 0 33.5 -14 q11.5 -14 22 -32.5 q10.5 -18.5 25 -37 q14.5 -18.5 42.5 -26.5 l63 253 l-36 15 q-55 23 -85 60.5 q-30 37.5 -30 97.5 q0 49 19.5 90 q19.5 41 54 72 q34.5 31 80.5 51 q46 20 99 26 l31 122 l53 0 ZM375 172 q0 35 -18 59 q-18 24 -56 42 l-59 -236 q27 3 51 13.5 q24 10.5 42.5 28.5 q18.5 18 29 41.5 q10.5 23.5 10.5 51.5 ZM222 524 q0 -31 14.5 -54.5 q14.5 -23.5 49.5 -41.5 l57 228 q-24 -4 -45.5 -14.5 q-21.5 -10.5 -38.5 -27.5 q-17 -17 -27 -39.5 q-10 -22.5 -10 -50.5 Z" /><glyph glyph-name="cent" unicode="¢" d="M394 359 q-25 0 -38 15 q-13 15 -18 35 q-4 10 -8.5 19.5 q-4.5 9.5 -13.5 15.5 l-96 -387 q35 0 69.5 18.5 q34.5 18.5 78.5 57.5 l14 -31 q-35 -42 -79 -74.5 q-44 -32.5 -101 -40.5 l-34 -138 l-53 0 l34 136 q-35 3 -58.5 17 q-23.5 14 -37.5 35.5 q-14 21.5 -20.5 49.5 q-6.5 28 -6.5 60 q0 54 18 111 q18 57 50.5 105.5 q32.5 48.5 78.5 84 q46 35.5 103 47.5 l32 128 l53 0 l-31 -123 q57 -2 89.5 -24 q32.5 -22 32.5 -57 q0 -23 -14 -41.5 q-14 -18.5 -44 -18.5 ZM142 170 q0 -33 5.5 -59 q5.5 -26 22.5 -40 l94 378 q-31 -9 -54 -38.5 q-23 -29.5 -38 -69.5 q-15 -40 -22.5 -85.5 q-7.5 -45.5 -7.5 -85.5 Z" /><glyph glyph-name="sterling" unicode="£" d="M74 361 l83 0 l10 40 q18 72 50 129.5 q32 57.5 75 97 q43 39.5 95 60.5 q52 21 109 21 q66 0 104 -23.5 q38 -23.5 38 -62.5 q0 -31 -22.5 -49.5 q-22.5 -18.5 -52.5 -17.5 q-29 1 -38 18 q-9 17 -14 37 q-5 20 -15.5 36.5 q-10.5 16.5 -43.5 16.5 q-27 0 -49.5 -13.5 q-22.5 -13.5 -43 -45.5 q-20.5 -32 -39.5 -85 q-19 -53 -40 -133 l-7 -26 l190 0 l-12 -50 l-195 0 q-15 -40 -45 -89.5 q-30 -49.5 -87 -111.5 l389 0 l1 -10 l-60 -100 l-470 0 l2 35 q42 39 70 75 q28 36 46 70.5 q18 34.5 28 66.5 q10 32 17 64 l-85 0 l12 50 Z" /><glyph glyph-name="yen" unicode="¥" d="M119 349 l207 0 l-13 -50 l-207 0 l13 50 ZM84 210 l495 0 l-13 -50 l-495 0 l13 50 ZM404 349 l210 0 l-13 -50 l-210 0 l13 50 ZM329 601 q0 -13 4 -28 l65 -228 l187 234 q19 25 19 40 q0 19 -23.5 25 q-23.5 6 -51.5 8 l10 41 l242 0 l-10 -36 q-30 -3 -57 -19 q-27 -16 -51 -42 l-250 -302 l-48 -198 q-5 -21 -1.5 -32.5 q3.5 -11.5 15.5 -16.5 q6 -3 20.5 -4 q14.5 -1 29.5 -3 l-11 -40 l-277 0 l11 40 q10 1 27 2 q17 1 26 5 q15 5 24 17 q9 12 14 32 l49 201 l-95 299 q-10 26 -25.5 38.5 q-15.5 12.5 -46.5 17.5 l10 41 l301 0 l-10 -41 q-47 -3 -72 -12.5 q-25 -9.5 -25 -38.5 Z" /><glyph glyph-name="currency" unicode="¤" d="M405 111 l-50 -42 l-65 90 q-17 -10 -36 -15.5 q-19 -5.5 -37 -5.5 q-37 0 -63 21 l-111 -91 l-28 44 l108 91 q-5 18 -5 37 q0 29 11 55 q11 26 29 48 l-62 93 l52 42 l63 -91 q14 9 36 15 q22 6 39 6 q16 0 33 -6 q17 -6 27 -14 l109 90 l31 -42 l-109 -93 q3 -9 4.5 -19.5 q1.5 -10.5 1.5 -19.5 q0 -29 -12.5 -56 q-12.5 -27 -28.5 -45 l63 -92 ZM328 289 q0 34 -19.5 49.5 q-19.5 15.5 -42.5 15.5 q-18 0 -35 -8.5 q-17 -8.5 -30 -22.5 q-13 -14 -21 -32.5 q-8 -18.5 -8 -38.5 q0 -26 17 -43 q17 -17 43 -17 q19 0 36 8.5 q17 8.5 30.5 22.5 q13.5 14 21.5 31 q8 17 8 35 Z" /><glyph glyph-name="nonbreakingspace" unicode=" " d="" /><glyph glyph-name="B" unicode="b" d="M-11 40 q11 1 28 2 q17 1 25 5 q16 5 24.5 17 q8.5 12 14.5 32 l124 501 q11 40 -14 49 q-8 3 -23.5 4.5 q-15.5 1.5 -26.5 2.5 l10 40 l296 0 q91 0 138 -30 q47 -30 47 -92 q0 -40 -17 -73.5 q-17 -33.5 -46 -59.5 q-29 -26 -66.5 -44 q-37.5 -18 -77.5 -26 l-1 -3 q89 -3 128 -37 q39 -34 39 -89 q0 -55 -27 -99.5 q-27 -44.5 -70.5 -75.5 q-43.5 -31 -98 -47.5 q-54.5 -16.5 -109.5 -16.5 l-307 0 l10 40 ZM460 226 q0 47 -32 76.5 q-32 29.5 -111 29.5 l-57 0 l-70 -281 l69 0 q39 0 75.5 12 q36.5 12 64.5 34.5 q28 22.5 44.5 55 q16.5 32.5 16.5 73.5 ZM338 642 l-65 -261 l40 0 q37 0 70 13 q33 13 57.5 36 q24.5 23 38.5 54.5 q14 31.5 14 69.5 q0 47 -25.5 67.5 q-25.5 20.5 -73.5 20.5 l-56 0 Z" /><glyph glyph-name="A" unicode="a" d="M419 240 l-225 0 l-90 -144 q-11 -18 -7 -31 q4 -13 23 -18 q7 -2 23 -3.5 q16 -1.5 33 -3.5 l-11 -40 l-230 0 l11 40 q11 1 23.5 4.5 q12.5 3.5 21.5 6.5 q17 5 28.5 15.5 q11.5 10.5 23.5 29.5 l390 610 l58 0 l63 -610 q2 -20 8 -30 q6 -10 19 -15 q8 -3 19 -6.5 q11 -3.5 22 -4.5 l-11 -40 l-283 0 l10 40 q17 2 32 4 q15 2 23 4 q16 5 28 16.5 q12 11.5 11 31.5 l-13 144 ZM228 293 l187 0 l-23 262 l-164 -262 Z" /></font>
</defs>
</svg>
