<svg xmlns="http://www.w3.org/2000/svg">
<defs>
<font id="db147ac736593ed0 - subset of Typothequetypefoundry: Lava Pro Med: 2013" horiz-adv-x="1160"><font-face font-family="db147ac736593ed0 - subset of Lava Pro Med" font-weight="500" font-stretch="normal" units-per-em="1000" panose-1="2 0 0 0 0 0 0 0 0 0" ascent="913" descent="-284" x-height="0" bbox="-93 -245 1126 871" underline-thickness="50" underline-position="-75" unicode-range="U+0020-2122" /><missing-glyph horiz-adv-x="712" d="M305 402 l27 0 l0 -27 l-27 0 l0 27 ZM380 552 l27 0 l0 -27 l-27 0 l0 27 ZM305 552 l27 0 l0 -27 l-27 0 l0 27 ZM230 552 l27 0 l0 -27 l-27 0 l0 27 ZM80 27 l27 0 l0 -27 l-27 0 l0 27 ZM155 27 l27 0 l0 -27 l-27 0 l0 27 ZM230 27 l27 0 l0 -27 l-27 0 l0 27 ZM305 27 l27 0 l0 -27 l-27 0 l0 27 ZM380 27 l27 0 l0 -27 l-27 0 l0 27 ZM80 102 l27 0 l0 -27 l-27 0 l0 27 ZM80 177 l27 0 l0 -27 l-27 0 l0 27 ZM80 252 l27 0 l0 -27 l-27 0 l0 27 ZM80 327 l27 0 l0 -27 l-27 0 l0 27 ZM80 402 l27 0 l0 -27 l-27 0 l0 27 ZM80 477 l27 0 l0 -27 l-27 0 l0 27 ZM80 552 l27 0 l0 -27 l-27 0 l0 27 ZM80 627 l27 0 l0 -27 l-27 0 l0 27 ZM80 702 l27 0 l0 -27 l-27 0 l0 27 ZM155 702 l27 0 l0 -27 l-27 0 l0 27 ZM230 702 l27 0 l0 -27 l-27 0 l0 27 ZM305 702 l27 0 l0 -27 l-27 0 l0 27 ZM380 702 l27 0 l0 -27 l-27 0 l0 27 ZM455 702 l27 0 l0 -27 l-27 0 l0 27 ZM530 702 l27 0 l0 -27 l-27 0 l0 27 ZM530 27 l27 0 l0 -27 l-27 0 l0 27 ZM455 27 l27 0 l0 -27 l-27 0 l0 27 ZM605 27 l27 0 l0 -27 l-27 0 l0 27 ZM605 702 l27 0 l0 -27 l-27 0 l0 27 ZM305 327 l27 0 l0 -27 l-27 0 l0 27 ZM305 177 l27 0 l0 -27 l-27 0 l0 27 ZM380 402 l27 0 l0 -27 l-27 0 l0 27 ZM455 402 l27 0 l0 -27 l-27 0 l0 27 ZM455 477 l27 0 l0 -27 l-27 0 l0 27 ZM455 552 l27 0 l0 -27 l-27 0 l0 27 ZM605 627 l27 0 l0 -27 l-27 0 l0 27 ZM605 552 l27 0 l0 -27 l-27 0 l0 27 ZM605 402 l27 0 l0 -27 l-27 0 l0 27 ZM605 327 l27 0 l0 -27 l-27 0 l0 27 ZM605 177 l27 0 l0 -27 l-27 0 l0 27 ZM605 102 l27 0 l0 -27 l-27 0 l0 27 ZM605 252 l27 0 l0 -27 l-27 0 l0 27 ZM605 477 l27 0 l0 -27 l-27 0 l0 27 Z" /><glyph glyph-name="space" unicode=" " d="" /><glyph glyph-name="C" unicode="c" d="M401 659 q-58 0 -97.5 -25 q-39.5 -25 -63.5 -67.5 q-24 -42.5 -34.5 -98.5 q-10.5 -56 -10.5 -118 q0 -71 11 -129 q11 -58 36 -99 q25 -41 63.5 -64 q38.5 -23 94.5 -23 q39 0 69 14.5 q30 14.5 52.5 39.5 q22.5 25 38 56.5 q15.5 31.5 24.5 66.5 l39 0 l0 -156 q-42 -34 -100.5 -52.5 q-58.5 -18.5 -124.5 -18.5 q-78 0 -142.5 26 q-64.5 26 -110.5 73.5 q-46 47.5 -71 112.5 q-25 65 -25 143 q0 82 27 150 q27 68 75 116.5 q48 48.5 114 75.5 q66 27 144 27 q58 0 112.5 -14 q54.5 -14 101.5 -40 l0 -182 l-39 0 q-12 43 -28 77.5 q-16 34.5 -38 58.5 q-22 24 -51 37 q-29 13 -66 13 Z" /><glyph glyph-name="D" unicode="d" d="M257 642 l0 -591 l85 0 q66 0 109 24.5 q43 24.5 67.5 65.5 q24.5 41 34.5 94.5 q10 53.5 10 111.5 q0 63 -11.5 117 q-11.5 54 -37.5 93.5 q-26 39.5 -67 62 q-41 22.5 -101 22.5 l-89 0 ZM48 40 q13 1 27.5 2 q14.5 1 23.5 5 q26 9 26 49 l0 501 q0 40 -26 49 q-9 3 -21 4 q-12 1 -30 3 l0 40 l318 0 q78 0 141.5 -22.5 q63.5 -22.5 108 -65.5 q44.5 -43 69 -105.5 q24.5 -62.5 24.5 -142.5 q0 -83 -26 -149 q-26 -66 -73 -112 q-47 -46 -112 -71 q-65 -25 -143 -25 l-307 0 l0 40 Z" /><glyph glyph-name="E" unicode="e" d="M48 40 q11 1 28 2.5 q17 1.5 25 5.5 q14 5 19 17.5 q5 12.5 5 34.5 l0 493 q0 23 -5.5 35 q-5.5 12 -19.5 17 q-7 3 -21 4.5 q-14 1.5 -31 3.5 l0 40 l512 0 l0 -170 l-38 0 q-9 36 -21.5 59 q-12.5 23 -30 36.5 q-17.5 13.5 -41 18.5 q-23.5 5 -56.5 5 l-116 0 l0 -260 l92 0 q42 0 52 26 q4 8 6 25.5 q2 17.5 4 35.5 l42 0 l0 -225 l-42 0 q-2 12 -3.5 31 q-1.5 19 -6.5 28 q-10 28 -52 28 l-92 0 l0 -280 l132 0 q37 0 62.5 8.5 q25.5 8.5 44.5 27 q19 18.5 33.5 48.5 q14.5 30 28.5 73 l34 -4 l-15 -204 l-529 0 l0 40 Z" /><glyph glyph-name="F" unicode="f" d="M257 642 l0 -277 l96 0 q22 0 34 6 q12 6 18 20 q4 8 5.5 25.5 q1.5 17.5 3.5 35.5 l43 0 l0 -225 l-43 0 q-1 12 -2.5 31 q-1.5 19 -6.5 29 q-10 27 -52 27 l-96 0 l0 -216 q0 -22 6.5 -33.5 q6.5 -11.5 20.5 -16.5 q8 -3 24 -4.5 q16 -1.5 33 -3.5 l0 -40 l-293 0 l0 40 q10 1 26.5 2 q16.5 1 24.5 5 q26 8 26 49 l0 497 q0 23 -5.5 35 q-5.5 12 -19.5 17 q-7 3 -21 4.5 q-14 1.5 -31 3.5 l0 40 l512 0 l0 -170 l-38 0 q-9 36 -21.5 59 q-12.5 23 -30 36.5 q-17.5 13.5 -41 18.5 q-23.5 5 -56.5 5 l-116 0 Z" /><glyph glyph-name="G" unicode="g" d="M645 48 q-19 -13 -46.5 -24.5 q-27.5 -11.5 -59.5 -20.5 q-32 -9 -68 -13.5 q-36 -4.5 -73 -4.5 q-78 1 -142.5 25.5 q-64.5 24.5 -110.5 70 q-46 45.5 -71 110 q-25 64.5 -25 146.5 q0 84 28 152.5 q28 68.5 77.5 117.5 q49.5 49 117.5 75.5 q68 26.5 147 26.5 q28 0 58.5 -3.5 q30.5 -3.5 60 -10.5 q29.5 -7 57 -17 q27.5 -10 50.5 -23 l0 -179 l-36 0 q-23 84 -70.5 134 q-47.5 50 -129.5 50 q-60 0 -100.5 -25 q-40.5 -25 -66 -68 q-25.5 -43 -36.5 -99 q-11 -56 -11 -118 q0 -71 11.5 -129 q11.5 -58 37 -99.5 q25.5 -41.5 66 -64.5 q40.5 -23 98.5 -23 q26 0 52.5 7 q26.5 7 52.5 20 l0 169 q0 40 -26 49 q-8 3 -25 4 q-17 1 -33 3 l0 40 l272 0 l0 -40 q-20 -2 -34 -10 q-22 -11 -22 -46 l0 -182 l0 0 Z" /><glyph glyph-name="H" unicode="h" d="M563 597 q0 21 -6.5 32.5 q-6.5 11.5 -19.5 16.5 q-7 3 -22 4 q-15 1 -30 3 l0 40 l287 0 l0 -40 q-10 -1 -26.5 -2 q-16.5 -1 -24.5 -5 q-26 -8 -26 -49 l0 -501 q0 -21 6 -32.5 q6 -11.5 20 -16.5 q7 -3 21.5 -4 q14.5 -1 29.5 -3 l0 -40 l-287 0 l0 40 q11 1 27.5 2 q16.5 1 24.5 5 q26 9 26 49 l0 239 l-306 0 l0 -239 q0 -21 6.5 -32.5 q6.5 -11.5 20.5 -16.5 q7 -3 21.5 -4 q14.5 -1 29.5 -3 l0 -40 l-287 0 l0 40 q10 1 26.5 2 q16.5 1 24.5 5 q26 8 26 49 l0 501 q0 21 -6 32.5 q-6 11.5 -20 16.5 q-7 3 -21.5 4 q-14.5 1 -29.5 3 l0 40 l287 0 l0 -40 q-11 -1 -27.5 -2 q-16.5 -1 -24.5 -5 q-26 -9 -26 -49 l0 -210 l306 0 l0 210 l0 0 Z" /><glyph glyph-name="I" unicode="i" d="M257 96 q0 -21 6.5 -32.5 q6.5 -11.5 20.5 -16.5 q7 -3 21.5 -4 q14.5 -1 29.5 -3 l0 -40 l-287 0 l0 40 q10 1 26.5 2 q16.5 1 24.5 5 q26 8 26 49 l0 501 q0 21 -6 32.5 q-6 11.5 -20 16.5 q-7 3 -21.5 4 q-14.5 1 -29.5 3 l0 40 l287 0 l0 -40 q-11 -1 -27.5 -2 q-16.5 -1 -24.5 -5 q-26 -9 -26 -49 l0 -501 Z" /><glyph glyph-name="J" unicode="j" d="M250 43 q0 -48 -14.5 -96 q-14.5 -48 -44 -86 q-29.5 -38 -73.5 -62 q-44 -24 -103 -24 q-53 0 -80.5 19.5 q-27.5 19.5 -27.5 48.5 q0 23 13.5 40 q13.5 17 39.5 17 q23 0 33.5 -12 q10.5 -12 17 -26.5 q6.5 -14.5 14 -26.5 q7.5 -12 25.5 -12 q22 0 35 17 q13 17 20.5 50 q7.5 33 10 80 q2.5 47 2.5 107 l0 520 q0 21 -6 32.5 q-6 11.5 -20 16.5 q-7 3 -21.5 4 q-14.5 1 -29.5 3 l0 40 l287 0 l0 -40 q-11 -1 -27.5 -2 q-16.5 -1 -24.5 -5 q-26 -8 -26 -49 l0 -554 l0 0 Z" /><glyph glyph-name="K" unicode="k" d="M257 96 q0 -40 27 -49 q7 -3 21.5 -4 q14.5 -1 29.5 -3 l0 -40 l-287 0 l0 40 q10 1 26.5 2 q16.5 1 24.5 5 q26 8 26 49 l0 501 q0 40 -26 49 q-7 3 -21.5 4 q-14.5 1 -29.5 3 l0 40 l287 0 l0 -40 q-11 -1 -27.5 -2 q-16.5 -1 -24.5 -5 q-26 -9 -26 -49 l0 -501 ZM289 340 l180 214 q30 35 30 57 q0 17 -14.5 28 q-14.5 11 -48.5 14 l0 40 l261 0 l0 -40 q-38 -4 -71 -22.5 q-33 -18.5 -64 -53.5 l-163 -188 l185 -269 q23 -35 51 -55 q28 -20 67 -25 l-3 -40 l-188 0 l-222 333 l0 7 Z" /><glyph glyph-name="L" unicode="l" d="M48 40 q11 1 28.5 2.5 q17.5 1.5 25.5 5.5 q23 11 23 52 l0 497 q0 21 -6 32.5 q-6 11.5 -20 16.5 q-7 3 -21.5 4 q-14.5 1 -29.5 3 l0 40 l287 0 l0 -40 q-11 -1 -27.5 -2 q-16.5 -1 -24.5 -5 q-26 -9 -26 -49 l0 -546 l91 0 q39 0 66 9.5 q27 9.5 47 29.5 q20 20 35 51 q15 31 29 74 l35 -4 l-14 -211 l-498 0 l0 40 Z" /><glyph glyph-name="M" unicode="m" d="M807 96 q0 -21 6 -32.5 q6 -11.5 20 -16.5 q7 -3 21.5 -4 q14.5 -1 29.5 -3 l0 -40 l-287 0 l0 40 q11 1 27.5 2 q16.5 1 24.5 5 q26 9 26 49 l0 467 l-219 -424 l-38 0 l-219 422 l0 -429 q0 -29 8.5 -46.5 q8.5 -17.5 23.5 -27.5 q25 -16 64 -21 l0 -37 l-258 0 l0 37 q16 2 30 6 q14 4 27 11 q17 9 28 27.5 q11 18.5 11 50.5 l0 448 q0 24 -5.5 37.5 q-5.5 13.5 -19.5 21.5 q-8 6 -25.5 9 q-17.5 3 -36.5 5 l0 40 l217 0 l206 -398 l209 398 l206 0 l0 -40 q-10 -1 -26.5 -2 q-16.5 -1 -24.5 -5 q-26 -8 -26 -49 l0 -501 Z" /><glyph glyph-name="N" unicode="n" d="M607 -4 l-407 547 l0 -411 q0 -29 8.5 -46.5 q8.5 -17.5 23.5 -27.5 q25 -16 64 -21 l0 -37 l-257 0 l0 37 q16 2 30 6 q14 4 27 11 q17 9 28 27.5 q11 18.5 11 50.5 l0 408 q0 52 -21.5 81 q-21.5 29 -69.5 36 l0 36 l199 0 l371 -485 l0 353 q0 29 -8.5 46.5 q-8.5 17.5 -23.5 27.5 q-25 16 -64 21 l0 37 l258 0 l0 -37 q-16 -2 -30 -6 q-14 -4 -27 -11 q-17 -9 -28 -27.5 q-11 -18.5 -11 -50.5 l0 -565 l-73 0 Z" /><glyph glyph-name="O" unicode="o" d="M751 352 q0 -78 -26.5 -145 q-26.5 -67 -73.5 -116.5 q-47 -49.5 -113 -77.5 q-66 -28 -145 -28 q-75 0 -138 25.5 q-63 25.5 -108.5 72 q-45.5 46.5 -71.5 112 q-26 65.5 -26 146.5 q0 82 27 150 q27 68 74.5 116.5 q47.5 48.5 112.5 75 q65 26.5 141 26.5 q77 0 141 -27 q64 -27 109.5 -74.5 q45.5 -47.5 71 -113 q25.5 -65.5 25.5 -142.5 ZM605 347 q0 65 -10 122 q-10 57 -34 99.5 q-24 42.5 -63.5 67 q-39.5 24.5 -99.5 24.5 q-60 0 -99 -25 q-39 -25 -62.5 -68 q-23.5 -43 -32.5 -99.5 q-9 -56.5 -9 -119.5 q0 -71 10.5 -128.5 q10.5 -57.5 34 -98 q23.5 -40.5 62 -63 q38.5 -22.5 94.5 -22.5 q63 0 103.5 27 q40.5 27 64 70.5 q23.5 43.5 32.5 99.5 q9 56 9 114 Z" /><glyph glyph-name="P" unicode="p" d="M257 287 l0 -191 q0 -40 27 -49 q11 -3 25.5 -4 q14.5 -1 32.5 -3 l0 -40 l-294 0 l0 40 q13 1 27.5 2 q14.5 1 23.5 5 q26 9 26 49 l0 501 q0 40 -26 49 q-9 3 -21 4 q-12 1 -30 3 l0 40 l332 0 q45 0 85.5 -12 q40.5 -12 71 -36 q30.5 -24 48 -59.5 q17.5 -35.5 17.5 -82.5 q0 -48 -18.5 -88 q-18.5 -40 -50.5 -68.5 q-32 -28.5 -75 -44 q-43 -15.5 -92 -15.5 l-109 0 ZM257 642 l0 -303 l67 0 q70 0 102.5 42.5 q32.5 42.5 32.5 111.5 q0 66 -30.5 107.5 q-30.5 41.5 -88.5 41.5 l-83 0 Z" /><glyph glyph-name="Q" unicode="q" d="M751 352 q0 -78 -26.5 -145 q-26.5 -67 -73.5 -116.5 q-47 -49.5 -113 -77.5 q-29 -12 -60 -19 q14 -39 30 -66 q22 -37 45 -57 q23 -20 47 -26.5 q24 -6.5 49 -6.5 q13 0 29 1.5 q16 1.5 29 3.5 l0 -41 q-38 -11 -77.5 -19 q-39.5 -8 -79.5 -8 q-48 0 -80.5 14.5 q-32.5 14.5 -56.5 44.5 q-24 30 -43 76 q-14 35 -29 78 q-46 6 -86 22 q-63 26 -108.5 72.5 q-45.5 46.5 -71.5 112 q-26 65.5 -26 146.5 q0 82 27 150 q27 68 74.5 116.5 q47.5 48.5 112.5 75 q65 26.5 141 26.5 q77 0 141 -27 q64 -27 109.5 -74.5 q45.5 -47.5 71 -113 q25.5 -65.5 25.5 -142.5 ZM605 347 q0 65 -10 122 q-10 57 -34 99.5 q-24 42.5 -63.5 67 q-39.5 24.5 -99.5 24.5 q-60 0 -99 -25 q-39 -25 -62.5 -68 q-23.5 -43 -32.5 -99.5 q-9 -56.5 -9 -119.5 q0 -71 10.5 -128.5 q10.5 -57.5 34 -98 q23.5 -40.5 62 -63 q38.5 -22.5 94.5 -22.5 q63 0 103.5 27 q40.5 27 64 70.5 q23.5 43.5 32.5 99.5 q9 56 9 114 Z" /><glyph glyph-name="R" unicode="r" d="M602 519 q0 -36 -12 -66.5 q-12 -30.5 -33 -54.5 q-21 -24 -49.5 -41 q-28.5 -17 -61.5 -27 l155 -213 q29 -40 55.5 -56.5 q26.5 -16.5 64.5 -20.5 l-3 -40 l-191 0 l-219 317 l-51 0 l0 -221 q0 -40 27 -49 q11 -3 25.5 -4 q14.5 -1 32.5 -3 l0 -40 l-294 0 l0 40 q13 1 27.5 2 q14.5 1 23.5 5 q26 9 26 49 l0 501 q0 40 -26 49 q-9 3 -21 4 q-12 1 -30 3 l0 40 l332 0 q45 0 85.5 -9.5 q40.5 -9.5 71 -30.5 q30.5 -21 48 -54 q17.5 -33 17.5 -80 ZM257 642 l0 -273 l67 0 q70 0 102.5 34.5 q32.5 34.5 32.5 106.5 q0 62 -30.5 97 q-30.5 35 -88.5 35 l-83 0 Z" /><glyph glyph-name="S" unicode="s" d="M279 -15 q-52 0 -109.5 13 q-57.5 13 -108.5 42 l0 180 l32 0 q32 -100 83.5 -140.5 q51.5 -40.5 119.5 -40.5 q67 0 99.5 30.5 q32.5 30.5 32.5 79.5 q0 48 -31.5 80 q-31.5 32 -84.5 51 l-77 29 q-36 13 -67 29.5 q-31 16.5 -54 38.5 q-23 22 -36 51.5 q-13 29.5 -13 68.5 q0 42 16 80 q16 38 48 67.5 q32 29.5 79.5 46.5 q47.5 17 111.5 17 q52 0 102.5 -13 q50.5 -13 101.5 -42 l0 -179 l-40 0 q-25 96 -66 140 q-41 44 -110 44 q-63 0 -96 -30.5 q-33 -30.5 -33 -81.5 q0 -25 8 -43.5 q8 -18.5 22.5 -32.5 q14.5 -14 33.5 -24 q19 -10 40 -18 l79 -29 q47 -17 82 -36.5 q35 -19.5 58 -42.5 q23 -23 34.5 -51.5 q11.5 -28.5 11.5 -64.5 q0 -49 -20 -89.5 q-20 -40.5 -56 -69 q-36 -28.5 -85.5 -44.5 q-49.5 -16 -107.5 -16 Z" /><glyph glyph-name="T" unicode="t" d="M391 644 l0 -548 q0 -40 26 -49 q10 -3 21.5 -4 q11.5 -1 30.5 -3 l0 -40 l-288 0 l0 40 q14 1 28.5 2 q14.5 1 23.5 5 q26 9 26 49 l0 548 l-41 0 q-34 0 -59 -7 q-25 -7 -43 -23 q-18 -16 -31 -41 q-13 -25 -22 -61 l-36 0 l0 181 l596 0 l0 -181 l-36 0 q-9 36 -22 61 q-13 25 -31 41 q-18 16 -42.5 23 q-24.5 7 -58.5 7 l-42 0 Z" /><glyph glyph-name="U" unicode="u" d="M243 239 q0 -95 39.5 -145 q39.5 -50 129.5 -50 q46 0 79 14.5 q33 14.5 54 40.5 q21 26 30.5 62 q9.5 36 9.5 79 l0 329 q-2 26 -10 41.5 q-8 15.5 -22 24.5 q-25 16 -64 21 l0 37 l257 0 l0 -37 q-15 -2 -29.5 -6 q-14.5 -4 -27.5 -11 q-17 -9 -27.5 -26 q-10.5 -17 -11.5 -46 l0 -325 q0 -57 -17.5 -104 q-17.5 -47 -51 -81 q-33.5 -34 -84 -52.5 q-50.5 -18.5 -116.5 -18.5 q-58 0 -107.5 14.5 q-49.5 14.5 -85.5 44.5 q-36 30 -56.5 76 q-20.5 46 -20.5 109 l0 367 q0 40 -26 49 q-10 3 -24 4.5 q-14 1.5 -27 2.5 l0 40 l287 0 l0 -40 q-19 -2 -30.5 -2.5 q-11.5 -0.5 -21.5 -4.5 q-25 -9 -26 -43 l0 -364 Z" /><glyph glyph-name="V" unicode="v" d="M221 603 q0 -8 3 -18 l149 -427 l169 421 q6 15 6 26 q0 13 -8 22 q-8 9 -20 14 q-12 5 -27.5 7.5 q-15.5 2.5 -30.5 4.5 l0 40 l232 0 l0 -37 q-31 -5 -52.5 -20.5 q-21.5 -15.5 -35.5 -50.5 l-242 -597 l-48 0 l-228 609 q-11 31 -32.5 42 q-21.5 11 -49.5 14 l0 40 l293 0 l0 -40 q-13 -2 -26.5 -4.5 q-13.5 -2.5 -25 -8 q-11.5 -5.5 -19 -14.5 q-7.5 -9 -7.5 -23 Z" /><glyph glyph-name="W" unicode="w" d="M595 693 l158 -522 l133 395 q6 19 6 33 q1 28 -21.5 40 q-22.5 12 -60.5 14 l0 40 l231 0 l0 -37 q-31 -5 -53 -21.5 q-22 -16.5 -38 -62.5 l-205 -583 l-50 0 l-175 540 l-186 -540 l-51 0 l-187 594 q-13 42 -35.5 55 q-22.5 13 -50.5 15 l0 40 l294 0 l0 -40 q-38 -2 -58.5 -13.5 q-20.5 -11.5 -20.5 -36.5 q0 -10 3 -22 l114 -406 l174 518 l79 0 Z" /><glyph glyph-name="X" unicode="x" d="M14 693 l301 0 l0 -41 q-27 -2 -45 -11 q-18 -9 -18 -27 q0 -12 10 -29 l101 -157 l109 149 q14 20 14 35 q0 19 -18.5 28.5 q-18.5 9.5 -46.5 11.5 l0 41 l238 0 l0 -41 q-29 -4 -58.5 -21 q-29.5 -17 -53.5 -48 l-152 -205 l182 -281 q17 -26 35.5 -38.5 q18.5 -12.5 47.5 -17.5 l0 -41 l-304 0 l0 41 q39 3 61.5 14.5 q22.5 11.5 22.5 31.5 q0 14 -12 32 l-109 169 l-118 -164 q-14 -20 -14 -36 q0 -18 15.5 -30.5 q15.5 -12.5 45.5 -16.5 l0 -41 l-238 0 l0 41 q38 8 67 29 q29 21 49 46 l161 222 l-166 258 q-19 29 -50.5 41.5 q-31.5 12.5 -56.5 14.5 l0 41 Z" /><glyph glyph-name="Y" unicode="y" d="M232 601 q0 -17 10 -33 l119 -223 l121 220 q11 22 11 37 q0 25 -22 37 q-22 12 -56 13 l0 41 l242 0 l0 -36 q-29 -3 -53.5 -19 q-24.5 -16 -45.5 -52 l-164 -284 l0 -206 q0 -21 6 -32.5 q6 -11.5 20 -16.5 q7 -3 21.5 -4 q14.5 -1 29.5 -3 l0 -40 l-287 0 l0 40 q11 1 27.5 2 q16.5 1 24.5 5 q26 9 26 49 l0 206 l-167 294 q-16 26 -35 38.5 q-19 12.5 -51 17.5 l0 41 l304 0 l0 -41 q-42 -4 -61.5 -17.5 q-19.5 -13.5 -19.5 -33.5 Z" /><glyph glyph-name="Z" unicode="z" d="M581 215 l-14 -215 l-527 0 l-5 17 l377 626 l-151 0 q-34 0 -60.5 -6 q-26.5 -6 -47 -21 q-20.5 -15 -36 -41 q-15.5 -26 -28.5 -66 l-35 2 l12 182 l505 0 l7 -17 l-378 -626 l123 0 q53 0 86.5 8 q33.5 8 57 27 q23.5 19 41 51.5 q17.5 32.5 38.5 82.5 l35 -4 Z" /><glyph glyph-name="a" unicode="a" d="M431 99 q0 -38 16 -50.5 q16 -12.5 47 -12.5 q4 0 8 0 q4 0 9 1 l0 -27 q-19 -8 -41.5 -15 q-22.5 -7 -54.5 -7 q-60 0 -81.5 24 q-21.5 24 -21.5 62 l0 1 q-24 -38 -63.5 -62 q-39.5 -24 -86.5 -24 q-53 0 -88 31.5 q-35 31.5 -35 87.5 q0 57 39.5 90 q39.5 33 115.5 51 l118 28 l0 21 q0 60 -22 85.5 q-22 25.5 -80 25.5 q-32 0 -75 -6 q-43 -6 -81 -15 l0 53 q49 26 107.5 41.5 q58.5 15.5 110.5 15.5 q78 0 118.5 -41.5 q40.5 -41.5 40.5 -135.5 l0 -222 ZM229 76 q21 0 43.5 6 q22.5 6 39.5 14 l0 136 l-63 -16 q-48 -12 -71.5 -27.5 q-23.5 -15.5 -23.5 -46.5 q0 -32 18.5 -49 q18.5 -17 56.5 -17 Z" /><glyph glyph-name="b" unicode="b" d="M192 421 q37 42 74 59.5 q37 17.5 81 17.5 q40 0 74 -15 q34 -15 59 -43.5 q25 -28.5 39 -70.5 q14 -42 14 -97 q0 -67 -21.5 -120 q-21.5 -53 -59.5 -89.5 q-38 -36.5 -90 -56 q-52 -19.5 -112 -19.5 q-45 0 -87.5 7 q-42.5 7 -89.5 30 l0 632 q0 24 -6.5 33 q-6.5 9 -31.5 9 q-10 0 -21 -1 q-11 -1 -18 -2 l0 35 q13 4 31 9.5 q18 5.5 37.5 9.5 q19.5 4 38.5 7 q19 3 34 3 q32 0 43.5 -15 q11.5 -15 11.5 -46 l0 -277 ZM284 415 q-20 0 -41.5 -5.5 q-21.5 -5.5 -50.5 -19.5 l0 -326 q19 -8 41.5 -14 q22.5 -6 46.5 -6 q36 0 61.5 15 q25.5 15 42 41.5 q16.5 26.5 24.5 62 q8 35.5 8 76.5 q0 87 -34 131.5 q-34 44.5 -98 44.5 Z" /><glyph glyph-name="c" unicode="c" d="M451 49 q-38 -32 -87 -48 q-49 -16 -103 -16 q-54 0 -95 17 q-41 17 -68.5 48.5 q-27.5 31.5 -42 75.5 q-14.5 44 -14.5 99 q0 61 19 111.5 q19 50.5 53 87 q34 36.5 81 57 q47 20.5 103 20.5 q37 0 68 -7.5 q31 -7.5 53.5 -20 q22.5 -12.5 34.5 -30 q12 -17.5 12 -37.5 q0 -29 -17 -46.5 q-17 -17.5 -44 -17.5 q-16 0 -26 7.5 q-10 7.5 -18.5 18.5 q-8.5 11 -16 24.5 q-7.5 13.5 -18 24.5 q-10.5 11 -25 18.5 q-14.5 7.5 -35.5 7.5 q-28 0 -49 -13.5 q-21 -13.5 -34.5 -37.5 q-13.5 -24 -20.5 -56.5 q-7 -32.5 -7 -71.5 q0 -87 35.5 -137.5 q35.5 -50.5 119.5 -50.5 q29 0 64.5 5.5 q35.5 5.5 75.5 19.5 l2 -52 l0 0 Z" /><glyph glyph-name="d" unicode="d" d="M385 656 q0 23 -6 31.5 q-6 8.5 -26 9.5 q-9 1 -22.5 0 q-13.5 -1 -23.5 -2 l0 35 q13 4 31 9.5 q18 5.5 37.5 9.5 q19.5 4 39 7 q19.5 3 34.5 3 q32 0 43.5 -15 q11.5 -15 11.5 -46 l0 -599 q0 -42 20 -53 q20 -11 59 -9 l1 -27 q-19 -8 -41.5 -15 q-22.5 -7 -54.5 -7 q-56 0 -78 20 q-22 20 -25 54 q-33 -37 -71 -57 q-38 -20 -82 -20 q-41 0 -75.5 17.5 q-34.5 17.5 -60 49.5 q-25.5 32 -40 77 q-14.5 45 -14.5 99 q0 64 21 114.5 q21 50.5 57.5 86 q36.5 35.5 85.5 54 q49 18.5 105 18.5 q36 0 74 -8 l0 163 ZM301 75 q21 0 40 4.5 q19 4.5 44 16.5 l0 321 q-22 11 -47 18.5 q-25 7.5 -52 7.5 q-69 0 -99 -48.5 q-30 -48.5 -30 -130.5 q0 -88 32.5 -138.5 q32.5 -50.5 111.5 -50.5 Z" /><glyph glyph-name="e" unicode="e" d="M455 48 q-38 -32 -89 -47.5 q-51 -15.5 -102 -15.5 q-109 0 -166 63.5 q-57 63.5 -57 172.5 q0 62 18 113.5 q18 51.5 51.5 88.5 q33.5 37 81 57.5 q47.5 20.5 106.5 20.5 q78 0 125 -43 q47 -43 53 -124 q0 -10 0.5 -21 q0.5 -11 -0.5 -22 l-25 -44 l-298 0 q2 -80 38 -126 q36 -46 119 -46 q30 0 67.5 5.5 q37.5 5.5 75.5 19.5 l2 -52 ZM266 443 q-51 0 -78 -40 q-27 -40 -33 -103 l202 0 q0 7 0.5 13 q0.5 6 0.5 13 q0 53 -23 85 q-23 32 -69 32 Z" /><glyph glyph-name="f" unicode="f" d="M28 481 l78 0 q1 57 18 107.5 q17 50.5 48 88.5 q31 38 75.5 60 q44.5 22 100.5 22 q42 0 67.5 -13 q25.5 -13 25.5 -41 q0 -20 -12 -33.5 q-12 -13.5 -37 -13.5 q-14 0 -24 5.5 q-10 5.5 -20 12 q-10 6.5 -21 12 q-11 5.5 -27 5.5 q-47 0 -61 -37.5 q-14 -37.5 -14 -117.5 l0 -57 l119 0 l0 -49 l-119 0 l0 -339 q0 -21 6 -32.5 q6 -11.5 20 -16.5 q7 -3 16 -4 q9 -1 25 -3 l0 -37 l-253 0 l0 37 q11 1 22 2 q11 1 19 5 q26 8 26 49 l0 339 l-78 0 l0 49 Z" /><glyph glyph-name="g" unicode="g" d="M259 188 q-41 0 -79 8 q-16 -21 -16 -39 q0 -17 15 -27 q15 -10 48 -10 l77 0 q48 0 87.5 -7.5 q39.5 -7.5 67.5 -23.5 q28 -16 43.5 -41 q15.5 -25 15.5 -60 q0 -39 -19.5 -77.5 q-19.5 -38.5 -56.5 -68.5 q-37 -30 -91 -49 q-54 -19 -123 -19 q-50 0 -88.5 11 q-38.5 11 -64.5 29 q-26 18 -39.5 42 q-13.5 24 -13.5 51 q0 44 31 71.5 q31 27.5 82 47.5 q-35 12 -48.5 33.5 q-13.5 21.5 -13.5 45.5 q0 31 22.5 56 q22.5 25 54.5 44 q-46 17 -73 50 q-27 33 -27 81 q0 35 15 65 q15 30 42 52.5 q27 22.5 65.5 35 q38.5 12.5 85.5 12.5 q47 0 87.5 -13 q40.5 -13 68.5 -37 q18 9 27.5 23 q9.5 14 18 27.5 q8.5 13.5 18.5 23 q10 9.5 29 9.5 q21 0 34 -11 q13 -11 13 -29 q0 -17 -11 -29.5 q-11 -12.5 -28.5 -20.5 q-17.5 -8 -38 -12.5 q-20.5 -4.5 -39.5 -5.5 q25 -34 25 -78 q0 -37 -16.5 -66.5 q-16.5 -29.5 -44 -50.5 q-27.5 -21 -64.5 -32 q-37 -11 -78 -11 ZM218 15 q-31 0 -51 4 q-23 -19 -31.5 -40.5 q-8.5 -21.5 -8.5 -44.5 q0 -47 32 -76 q32 -29 100 -29 q66 0 108 29 q42 29 42 81 q0 36 -25.5 56 q-25.5 20 -88.5 20 l-77 0 ZM336 340 q0 55 -25.5 83 q-25.5 28 -60.5 28 q-39 0 -59.5 -29.5 q-20.5 -29.5 -20.5 -76.5 q0 -48 22.5 -78 q22.5 -30 65.5 -30 q40 0 59 28.5 q19 28.5 19 74.5 Z" /><glyph glyph-name="h" unicode="h" d="M91 656 q0 23 -6.5 32 q-6.5 9 -28.5 10 q-9 0 -22 -1 q-13 -1 -21 -2 l0 35 q13 4 31 9.5 q18 5.5 37.5 9.5 q19.5 4 38.5 7 q19 3 34 3 q32 0 44 -14.5 q12 -14.5 12 -46.5 l0 -278 q38 36 81.5 58.5 q43.5 22.5 94.5 22.5 q67 0 102 -39.5 q35 -39.5 35 -129.5 l0 -239 q0 -21 6 -32.5 q6 -11.5 20 -16.5 q7 -3 16 -4 q9 -1 24 -3 l0 -37 l-252 0 l0 37 q11 1 22 2 q11 1 19 5 q26 9 26 49 l0 206 q0 28 -4 49.5 q-4 21.5 -15 36.5 q-11 15 -29.5 22.5 q-18.5 7.5 -48.5 7.5 q-26 0 -47 -5 q-21 -5 -50 -15 l0 -302 q0 -21 6 -32.5 q6 -11.5 20 -16.5 q7 -3 16 -4 q9 -1 24 -3 l0 -37 l-252 0 l0 37 q11 1 22 2 q11 1 19 5 q26 9 26 49 l0 563 Z" /><glyph glyph-name="i" unicode="i" d="M223 93 q0 -21 6 -32.5 q6 -11.5 20 -16.5 q7 -3 16 -4 q9 -1 25 -3 l0 -37 l-253 0 l0 37 q11 1 22 2 q11 1 19 5 q26 8 26 49 l0 305 q0 23 -6.5 32 q-6.5 9 -29.5 9 q-9 0 -21 -0.5 q-12 -0.5 -20 -1.5 l0 35 q12 4 30 9.5 q18 5.5 37.5 9.5 q19.5 4 38.5 7 q19 3 34 3 q33 0 44.5 -15 q11.5 -15 11.5 -47 l0 -346 ZM88 690 q0 37 21.5 53.5 q21.5 16.5 49.5 16.5 q29 0 50.5 -16.5 q21.5 -16.5 21.5 -53.5 q0 -36 -21.5 -52.5 q-21.5 -16.5 -50.5 -16.5 q-28 0 -49.5 16.5 q-21.5 16.5 -21.5 52.5 Z" /><glyph glyph-name="j" unicode="j" d="M96 398 q0 24 -7 32.5 q-7 8.5 -32 8.5 q-8 0 -20 -0.5 q-12 -0.5 -19 -1.5 l0 35 q13 4 31 9.5 q18 5.5 37.5 9.5 q19.5 4 38.5 7 q19 3 34 3 q32 0 44 -15 q12 -15 12 -47 l0 -338 q0 -54 -17.5 -111.5 q-17.5 -57.5 -49.5 -105.5 q-32 -48 -77 -79 q-45 -31 -100 -31 q-28 0 -40.5 16 q-12.5 16 -12.5 33 q0 17 11.5 32.5 q11.5 15.5 33.5 15.5 q15 0 24.5 -4 q9.5 -4 16 -8.5 q6.5 -4.5 12.5 -7.5 q6 -3 15 -2 q39 7 52 45.5 q13 38.5 13 119.5 l0 384 ZM81 690 q0 36 21.5 52.5 q21.5 16.5 50.5 16.5 q28 0 50 -16.5 q22 -16.5 22 -52.5 q0 -37 -22 -53.5 q-22 -16.5 -50 -16.5 q-29 0 -50.5 16.5 q-21.5 16.5 -21.5 53.5 Z" /><glyph glyph-name="k" unicode="k" d="M91 656 q0 24 -7 33 q-7 9 -30 9 q-8 0 -20.5 -1 q-12.5 -1 -20.5 -2 l0 35 q13 4 31 9.5 q18 5.5 37.5 9.5 q19.5 4 38.5 7 q19 3 34 3 q32 0 44 -14.5 q12 -14.5 12 -46.5 l0 -605 q0 -21 6 -32.5 q6 -11.5 20 -16.5 q7 -3 16 -4 q9 -1 24 -3 l0 -37 l-252 0 l0 37 q11 1 22 2 q11 1 19 5 q26 9 26 49 l0 563 ZM225 256 l122 105 q27 25 27 49 q2 18 -15.5 31 q-17.5 13 -50.5 14 l0 31 l242 0 l0 -31 q-28 -3 -54 -21 q-26 -18 -53 -44 l-114 -101 l115 -159 q14 -20 27 -34 q13 -14 26.5 -24.5 q13.5 -10.5 29.5 -18.5 q16 -8 36 -15 l-3 -38 l-167 0 l-168 240 l0 16 Z" /><glyph glyph-name="l" unicode="l" d="M93 656 q0 23 -6 32 q-6 9 -29 10 q-9 0 -21.5 -1 q-12.5 -1 -20.5 -2 l0 35 q13 4 31 9.5 q18 5.5 37.5 9.5 q19.5 4 38 7 q18.5 3 33.5 3 q33 0 44.5 -14.5 q11.5 -14.5 11.5 -46.5 l0 -605 q0 -21 6 -32.5 q6 -11.5 20 -16.5 q7 -3 16.5 -4 q9.5 -1 24.5 -3 l0 -37 l-253 0 l0 37 q11 1 22 2 q11 1 19 5 q26 8 26 49 l0 563 Z" /><glyph glyph-name="m" unicode="m" d="M223 93 q0 -21 6 -32.5 q6 -11.5 20 -16.5 q7 -3 16 -4 q9 -1 25 -3 l0 -37 l-253 0 l0 37 q11 1 22 2 q11 1 19 5 q26 8 26 49 l0 305 q0 23 -7 32 q-7 9 -31 9 q-8 0 -20 -0.5 q-12 -0.5 -19 -1.5 l0 35 q12 4 30 9.5 q18 5.5 37.5 9.5 q19.5 4 38.5 7 q19 3 34 3 q33 0 44.5 -15 q11.5 -15 11.5 -47 l0 -19 q38 36 81.5 58.5 q43.5 22.5 94.5 22.5 q48 0 79.5 -19.5 q31.5 -19.5 45.5 -64.5 q39 37 83 60.5 q44 23.5 96 23.5 q67 0 102 -39.5 q35 -39.5 35 -129.5 l0 -239 q0 -21 6 -32.5 q6 -11.5 20 -16.5 q7 -3 16.5 -4 q9.5 -1 24.5 -3 l0 -37 l-253 0 l0 37 q11 1 22 2 q11 1 19 5 q26 8 26 49 l0 206 q0 28 -4 49.5 q-4 21.5 -15 36.5 q-11 15 -29.5 22.5 q-18.5 7.5 -48.5 7.5 q-24 0 -45.5 -5 q-21.5 -5 -48.5 -14 q6 -29 6 -64 l0 -239 q0 -21 6 -32.5 q6 -11.5 20 -16.5 q7 -3 16 -4 q9 -1 25 -3 l0 -37 l-253 0 l0 37 q11 1 22 2 q11 1 19 5 q26 8 26 49 l0 206 q0 28 -4 49.5 q-4 21.5 -15 36.5 q-11 15 -29.5 22.5 q-18.5 7.5 -48.5 7.5 q-26 0 -47 -5 q-21 -5 -50 -15 l0 -302 l0 0 Z" /><glyph glyph-name="n" unicode="n" d="M223 93 q0 -21 6 -32.5 q6 -11.5 20 -16.5 q7 -3 16 -4 q9 -1 25 -3 l0 -37 l-253 0 l0 37 q11 1 22 2 q11 1 19 5 q26 8 26 49 l0 305 q0 23 -6.5 32 q-6.5 9 -29.5 9 q-9 0 -21 -0.5 q-12 -0.5 -20 -1.5 l0 35 q12 4 30 9.5 q18 5.5 37.5 9.5 q19.5 4 38.5 7 q19 3 34 3 q33 0 44.5 -15 q11.5 -15 11.5 -47 l0 -19 q38 36 81.5 58.5 q43.5 22.5 94.5 22.5 q67 0 102 -39.5 q35 -39.5 35 -129.5 l0 -239 q0 -21 6 -32.5 q6 -11.5 20 -16.5 q7 -3 16 -4 q9 -1 25 -3 l0 -37 l-253 0 l0 37 q11 1 22 2 q11 1 19 5 q26 8 26 49 l0 206 q0 28 -4 49.5 q-4 21.5 -15 36.5 q-11 15 -29.5 22.5 q-18.5 7.5 -48.5 7.5 q-26 0 -47 -5 q-21 -5 -50 -15 l0 -302 l0 0 Z" /><glyph glyph-name="o" unicode="o" d="M537 266 q0 -56 -18.5 -107 q-18.5 -51 -52.5 -89.5 q-34 -38.5 -83.5 -61.5 q-49.5 -23 -110.5 -23 q-51 0 -93.5 16.5 q-42.5 16.5 -73 47.5 q-30.5 31 -47.5 75.5 q-17 44.5 -17 100.5 q0 63 20.5 114 q20.5 51 56.5 87 q36 36 84.5 55.5 q48.5 19.5 104.5 19.5 q52 0 94.5 -17 q42.5 -17 72.5 -47.5 q30 -30.5 46.5 -74 q16.5 -43.5 16.5 -96.5 ZM407 233 q0 47 -7 85.5 q-7 38.5 -22 66.5 q-15 28 -39.5 43 q-24.5 15 -58.5 15 q-32 0 -53 -13 q-21 -13 -34 -37 q-13 -24 -18 -57.5 q-5 -33.5 -5 -73.5 q0 -47 6.5 -87 q6.5 -40 21.5 -69 q15 -29 38.5 -46 q23.5 -17 58.5 -17 q58 0 85 49 q27 49 27 141 Z" /><glyph glyph-name="p" unicode="p" d="M96 398 q0 23 -7 32 q-7 9 -31 9 q-8 0 -20 -0.5 q-12 -0.5 -20 -1.5 l0 35 q13 4 31 9.5 q18 5.5 37.5 9.5 q19.5 4 39 7 q19.5 3 34.5 3 q32 0 43.5 -15 q11.5 -15 11.5 -47 l0 -18 q39 44 78 60.5 q39 16.5 78 16.5 q41 0 75 -15.5 q34 -15.5 58 -44.5 q24 -29 37.5 -71 q13.5 -42 13.5 -95 q0 -67 -21.5 -120 q-21.5 -53 -59.5 -90 q-38 -37 -91 -56.5 q-53 -19.5 -117 -19.5 q-27 0 -51 3 l0 -113 q0 -44 34 -50 q3 -1 9.5 -1.5 q6.5 -0.5 14.5 -1 q8 -0.5 17 -1 q9 -0.5 15 -0.5 l0 -39 l-276 0 l0 37 q11 1 22 2 q11 1 19 5 q26 9 26 49 l0 522 ZM307 415 q-20 0 -42 -5 q-22 -5 -50 -19 l0 -330 q19 -8 41.5 -12.5 q22.5 -4.5 45.5 -4.5 q36 0 61.5 15 q25.5 15 42 41.5 q16.5 26.5 24.5 62 q8 35.5 8 76.5 q0 86 -33.5 131 q-33.5 45 -97.5 45 Z" /><glyph glyph-name="q" unicode="q" d="M289 -180 q4 0 12.5 0.5 q8.5 0.5 17.5 1 q9 0.5 16.5 1 q7.5 0.5 10.5 1.5 q35 7 35 52 l0 189 q-32 -38 -68 -59 q-36 -21 -79 -21 q-39 0 -74 17.5 q-35 17.5 -61.5 49.5 q-26.5 32 -41.5 77 q-15 45 -15 100 q0 64 21 114.5 q21 50.5 57.5 85.5 q36.5 35 85.5 53.5 q49 18.5 105 18.5 q33 0 63 -6.5 q30 -6.5 56 -17.5 l52 16 l18 0 l0 -617 q0 -21 6.5 -32.5 q6.5 -11.5 20.5 -16.5 q11 -4 40 -7 l0 -37 l-278 0 l0 37 ZM303 73 q22 0 38.5 5 q16.5 5 39.5 19 l0 320 q-20 11 -43.5 18.5 q-23.5 7.5 -51.5 7.5 q-69 0 -98.5 -48 q-29.5 -48 -29.5 -133 q0 -88 34.5 -138.5 q34.5 -50.5 110.5 -50.5 Z" /><glyph glyph-name="r" unicode="r" d="M223 93 q0 -44 37 -50 q5 -2 22.5 -2.5 q17.5 -0.5 30.5 -1.5 l0 -39 l-276 0 l0 37 q11 1 22 2 q11 1 19 5 q26 8 26 49 l0 305 q0 24 -7 33 q-7 9 -32 8 q-8 0 -19.5 -0.5 q-11.5 -0.5 -18.5 -1.5 l0 35 q12 4 30 9.5 q18 5.5 37.5 9.5 q19.5 4 38.5 7 q19 3 34 3 q33 0 44.5 -15 q11.5 -15 11.5 -47 l0 -15 q32 35 66 54.5 q34 19.5 72 19.5 q31 0 54.5 -15.5 q23.5 -15.5 23.5 -53.5 q0 -25 -16.5 -44.5 q-16.5 -19.5 -48.5 -19.5 q-19 0 -29 8 q-10 8 -17.5 18 q-7.5 10 -16.5 18 q-9 8 -26 8 q-12 0 -26 -5.5 q-14 -5.5 -36 -16.5 l0 -302 l0 0 Z" /><glyph glyph-name="s" unicode="s" d="M207 -13 q-36 0 -78 8.5 q-42 8.5 -81 24.5 l-3 135 l29 3 q20 -58 58 -88 q38 -30 84 -30 q44 0 68 18.5 q24 18.5 24 50.5 q0 30 -22.5 45.5 q-22.5 15.5 -56.5 26.5 l-53 16 q-21 7 -42.5 18.5 q-21.5 11.5 -38 29 q-16.5 17.5 -27 41 q-10.5 23.5 -10.5 53.5 q0 35 14.5 64.5 q14.5 29.5 40 51.5 q25.5 22 60.5 34 q35 12 77 12 q34 0 71.5 -9 q37.5 -9 72.5 -29 l7 -116 l-36 -3 q-15 29 -28.5 49 q-13.5 20 -28 32.5 q-14.5 12.5 -31.5 18 q-17 5.5 -38 5.5 q-40 0 -59.5 -18.5 q-19.5 -18.5 -19.5 -47.5 q0 -29 18.5 -46 q18.5 -17 48.5 -27 l63 -21 q19 -6 40.5 -15.5 q21.5 -9.5 40 -25.5 q18.5 -16 30.5 -39.5 q12 -23.5 12 -57.5 q0 -39 -16.5 -69.5 q-16.5 -30.5 -45 -51.5 q-28.5 -21 -66 -32 q-37.5 -11 -78.5 -11 Z" /><glyph glyph-name="t" unicode="t" d="M11 481 l87 0 l0 102 l101 54 l18 0 l0 -156 l138 0 l0 -49 l-138 0 l0 -263 q0 -31 4.5 -51.5 q4.5 -20.5 15.5 -33 q11 -12.5 29 -17.5 q18 -5 45 -5 q11 0 25.5 2 q14.5 2 28.5 5 l0 -46 q-20 -14 -54.5 -24.5 q-34.5 -10.5 -71.5 -10.5 q-30 0 -55.5 6 q-25.5 6 -44.5 20.5 q-19 14.5 -30 37.5 q-11 23 -11 56 l0 324 l-87 0 l0 49 Z" /><glyph glyph-name="u" unicode="u" d="M399 398 q0 23 -7 32 q-7 9 -30 9 q-8 0 -20.5 -0.5 q-12.5 -0.5 -20.5 -1.5 l0 35 q13 4 31 9.5 q18 5.5 37.5 9.5 q19.5 4 38.5 7 q19 3 34 3 q32 0 44 -15 q12 -15 12 -47 l0 -340 q0 -42 20 -53 q20 -11 59 -9 l1 -27 q-19 -8 -41.5 -15 q-22.5 -7 -54.5 -7 q-57 0 -79 21 q-22 21 -24 56 q-38 -36 -79.5 -57.5 q-41.5 -21.5 -93.5 -21.5 q-66 0 -100.5 39 q-34.5 39 -34.5 129 l0 244 q0 24 -7 32.5 q-7 8.5 -32 8.5 q-8 0 -20 -0.5 q-12 -0.5 -19 -1.5 l0 35 q13 4 31 9.5 q18 5.5 37.5 9.5 q19.5 4 38.5 7 q19 3 34 3 q32 0 44 -15 q12 -15 12 -47 l0 -254 q0 -27 4 -48 q4 -21 15 -35 q11 -14 30 -21 q19 -7 48 -7 q24 0 44.5 5 q20.5 5 47.5 14 l0 305 l0 0 Z" /><glyph glyph-name="v" unicode="v" d="M544 455 q-26 -6 -45.5 -26 q-19.5 -20 -30.5 -46 l-170 -391 l-50 0 l-172 409 q-11 27 -29 39 q-18 12 -38 15 l0 31 l248 0 l0 -31 q-29 0 -44 -13.5 q-15 -13.5 -7 -34.5 l101 -264 l91 220 q18 42 2 64.5 q-16 22.5 -53 27.5 l0 31 l197 0 l0 -31 Z" /><glyph glyph-name="w" unicode="w" d="M466 486 l139 -345 l77 222 q16 45 1 66 q-15 21 -52 26 l0 31 l196 0 l0 -31 q-26 -6 -45.5 -25 q-19.5 -19 -30.5 -47 l-152 -391 l-51 0 l-135 321 l-128 -321 l-59 0 l-147 409 q-10 26 -28.5 38.5 q-18.5 12.5 -38.5 15.5 l0 31 l248 0 l0 -31 q-29 0 -43.5 -13 q-14.5 -13 -7.5 -35 l82 -256 l127 335 l48 0 Z" /><glyph glyph-name="x" unicode="x" d="M453 86 q34 -48 77 -54 l0 -32 l-239 0 l0 32 q29 0 36.5 15 q7.5 15 -5.5 33 l-80 109 l-53 -66 q-30 -38 -22.5 -62.5 q7.5 -24.5 42.5 -28.5 l0 -32 l-195 0 l0 32 q26 6 54 24.5 q28 18.5 52 47.5 l98 119 l-128 178 q-17 24 -32 37.5 q-15 13.5 -35 16.5 l0 31 l239 0 l0 -31 q-29 0 -42 -15 q-13 -15 1 -33 l82 -115 l55 71 q25 32 15 59.5 q-10 27.5 -45 32.5 l0 31 l195 0 l0 -31 q-26 -6 -51 -26 q-25 -20 -45 -46 l-99 -125 l125 -172 Z" /><glyph glyph-name="y" unicode="y" d="M545 455 q-26 -6 -45.5 -26 q-19.5 -20 -30.5 -46 l-117 -268 l1 0 l-51 -117 q-11 -25 -28.5 -63 q-17.5 -38 -45 -74 q-27.5 -36 -66.5 -61.5 q-39 -25.5 -93 -25.5 q-26 0 -39.5 13 q-13.5 13 -13.5 33 q0 23 13.5 38 q13.5 15 36.5 15 q39 0 66 4.5 q27 4.5 47.5 17.5 q20.5 13 36 36.5 q15.5 23.5 32.5 61.5 l-171 408 q-11 27 -29 39 q-18 12 -38 15 l0 31 l248 0 l0 -31 q-29 0 -44 -13.5 q-15 -13.5 -7 -34.5 l101 -265 l91 221 q18 42 2 64.5 q-16 22.5 -53 27.5 l0 31 l197 0 l0 -31 Z" /><glyph glyph-name="z" unicode="z" d="M65 486 l369 0 l17 -28 l-263 -407 l111 0 q45 0 81 31 q36 31 47 81 l31 -4 l-22 -159 l-387 0 l-15 26 l263 409 l-107 0 q-27 0 -45.5 -8 q-18.5 -8 -32 -22 q-13.5 -14 -22.5 -32 q-9 -18 -17 -39 l-34 5 l26 147 Z" /><glyph glyph-name="zero" unicode="0" d="M598 293 q0 -68 -22 -124.5 q-22 -56.5 -60 -97.5 q-38 -41 -89.5 -63.5 q-51.5 -22.5 -110.5 -22.5 q-52 0 -98.5 16 q-46.5 16 -81.5 49.5 q-35 33.5 -55.5 85.5 q-20.5 52 -20.5 124 q0 72 22 130.5 q22 58.5 59.5 99 q37.5 40.5 87 62.5 q49.5 22 104.5 22 q56 0 104.5 -18.5 q48.5 -18.5 84 -54.5 q35.5 -36 56 -88.5 q20.5 -52.5 20.5 -119.5 ZM462 268 q0 53 -8 99 q-8 46 -24.5 80.5 q-16.5 34.5 -43 54 q-26.5 19.5 -63.5 19.5 q-35 0 -59 -17 q-24 -17 -39 -48 q-15 -31 -22 -74.5 q-7 -43.5 -7 -96.5 q0 -118 31 -181.5 q31 -63.5 98 -63.5 q39 0 65 19 q26 19 42 50.5 q16 31.5 23 73 q7 41.5 7 85.5 Z" /><glyph glyph-name="one" unicode="1" d="M309 105 q-1 -23 6 -34 q7 -11 21 -16 q3 -1 16 -2.5 q13 -1.5 28.5 -2.5 q15.5 -1 30.5 -2 q15 -1 24 -2 l0 -46 l-371 0 l0 46 q5 0 19.5 1 q14.5 1 31 2.5 q16.5 1.5 30.5 2.5 q14 1 18 3 q15 5 21 16.5 q6 11.5 6 33.5 l0 353 l-136 0 l0 36 q27 4 59 13 q32 9 63 20.5 q31 11.5 58.5 23.5 q27.5 12 46.5 21 l28 0 l0 -467 Z" /><glyph glyph-name="two" unicode="2" d="M484 0 l-428 0 l-7 35 q77 70 130 119.5 q53 49.5 86 88 q33 38.5 48 70.5 q15 32 15 66 q0 48 -27 74.5 q-27 26.5 -80 26.5 q-48 0 -82 -20.5 q-34 -20.5 -64 -56.5 l-20 23 q47 82 107 115 q60 33 122 33 q43 0 75.5 -12.5 q32.5 -12.5 54 -34 q21.5 -21.5 32.5 -49.5 q11 -28 11 -59 q0 -43 -19.5 -82.5 q-19.5 -39.5 -55 -77.5 q-35.5 -38 -84.5 -77 q-49 -39 -108 -82 l327 0 l3 -10 l-36 -90 Z" /><glyph glyph-name="three" unicode="3" d="M187 204 q37 24 67.5 45 q30.5 21 52 42 q21.5 21 33 43 q11.5 22 11.5 49 q0 26 -11 44.5 q-11 18.5 -29 30 q-18 11.5 -40 17 q-22 5.5 -44 5.5 q-45 0 -86 -18.5 q-41 -18.5 -69 -50.5 l-22 26 q48 71 104.5 104 q56.5 33 123.5 33 q41 0 76 -11 q35 -11 60.5 -31 q25.5 -20 40 -48.5 q14.5 -28.5 14.5 -63.5 q0 -49 -37 -91 q-37 -42 -112 -87 q88 -11 141 -57.5 q53 -46.5 53 -124.5 q0 -54 -26 -95 q-26 -41 -67 -68.5 q-41 -27.5 -91.5 -41.5 q-50.5 -14 -99.5 -14 q-30 0 -62 5.5 q-32 5.5 -59 16.5 q-27 11 -44.5 29 q-17.5 18 -17.5 43 q0 23 14.5 37.5 q14.5 14.5 40.5 14.5 q19 0 30 -7.5 q11 -7.5 18.5 -18.5 q7.5 -11 14.5 -24.5 q7 -13.5 17.5 -24.5 q10.5 -11 27.5 -18.5 q17 -7.5 44 -7.5 q59 0 96 36 q37 36 37 99 q0 23 -7 47 q-7 24 -28 45 q-21 21 -58.5 37 q-37.5 16 -97.5 23 l-9 31 Z" /><glyph glyph-name="four" unicode="4" d="M333 50 l-312 0 l0 68 l373 449 l58 0 l0 -428 l134 0 l3 -10 l-26 -79 l-111 0 l0 -191 l-119 0 l0 191 ZM333 139 l0 274 l-225 -274 l225 0 Z" /><glyph glyph-name="five" unicode="5" d="M168 447 l-25 -166 q80 4 146 -7 q66 -11 112.5 -36 q46.5 -25 72 -64.5 q25.5 -39.5 25.5 -92.5 q0 -56 -25.5 -100 q-25.5 -44 -66.5 -75.5 q-41 -31.5 -91.5 -48 q-50.5 -16.5 -101.5 -16.5 q-29 0 -60.5 5.5 q-31.5 5.5 -57.5 17 q-26 11.5 -43.5 29.5 q-17.5 18 -17.5 42 q0 21 14 36.5 q14 15.5 40 15.5 q18 0 29 -7.5 q11 -7.5 19.5 -18.5 q8.5 -11 15.5 -24.5 q7 -13.5 18 -24.5 q11 -11 27.5 -18.5 q16.5 -7.5 42.5 -7.5 q63 0 97.5 41.5 q34.5 41.5 34.5 107.5 q0 40 -14.5 72 q-14.5 32 -49 53.5 q-34.5 21.5 -90.5 31 q-56 9.5 -138 5.5 l53 361 l379 0 l3 -10 l-34 -101 l-314 0 Z" /><glyph glyph-name="six" unicode="6" d="M542 665 q-77 -5 -136 -28 q-59 -23 -101 -60 q-42 -37 -68 -86 q-26 -49 -39 -106 q32 22 70.5 35.5 q38.5 13.5 83.5 13.5 q46 0 84.5 -15 q38.5 -15 66 -41.5 q27.5 -26.5 43 -63.5 q15.5 -37 15.5 -82 q0 -53 -20.5 -98.5 q-20.5 -45.5 -56.5 -78.5 q-36 -33 -84.5 -52 q-48.5 -19 -105.5 -19 q-59 0 -104.5 20.5 q-45.5 20.5 -76 57.5 q-30.5 37 -46.5 89 q-16 52 -16 115 q0 91 31 169.5 q31 78.5 87.5 137 q56.5 58.5 134.5 94 q78 35.5 172 41.5 q14 0 28 0.5 q14 0.5 29 -0.5 l9 -43 ZM185 259 q0 -109 32.5 -168.5 q32.5 -59.5 91.5 -59.5 q54 0 85.5 46.5 q31.5 46.5 31.5 124.5 q0 83 -35.5 123.5 q-35.5 40.5 -96.5 40.5 q-28 0 -54.5 -7.5 q-26.5 -7.5 -49.5 -18.5 q-3 -20 -4 -40.5 q-1 -20.5 -1 -40.5 Z" /><glyph glyph-name="seven" unicode="7" d="M104 -144 l-1 11 l309 585 l-376 0 l-3 10 l36 96 l426 0 l7 -30 l-304 -672 l-94 0 Z" /><glyph glyph-name="eight" unicode="8" d="M537 546 q0 -52 -35 -91.5 q-35 -39.5 -110 -72.5 q85 -41 121.5 -84 q36.5 -43 36.5 -103 q0 -47 -21.5 -86 q-21.5 -39 -57.5 -66.5 q-36 -27.5 -83 -42.5 q-47 -15 -98 -15 q-46 0 -88.5 10 q-42.5 10 -75.5 32 q-33 22 -52.5 55.5 q-19.5 33.5 -19.5 80.5 q0 64 38.5 106.5 q38.5 42.5 105.5 68.5 q-66 36 -96.5 76.5 q-30.5 40.5 -30.5 96.5 q0 49 22 85.5 q22 36.5 56.5 61.5 q34.5 25 78 37.5 q43.5 12.5 87.5 12.5 q43 0 83 -11 q40 -11 71 -31.5 q31 -20.5 49.5 -50.5 q18.5 -30 18.5 -69 ZM431 152 q0 34 -18.5 59.5 q-18.5 25.5 -46.5 44.5 q-28 19 -61 33 q-33 14 -62 27 q-32 -23 -52.5 -54.5 q-20.5 -31.5 -20.5 -83.5 q0 -63 31 -102.5 q31 -39.5 96 -39.5 q33 0 58 9.5 q25 9.5 42 26 q17 16.5 25.5 37 q8.5 20.5 8.5 43.5 ZM187 553 q0 -32 13.5 -54.5 q13.5 -22.5 35.5 -40 q22 -17.5 51 -30.5 q29 -13 59 -26 q33 29 52 61 q19 32 19 72 q0 53 -29.5 87 q-29.5 34 -86.5 34 q-51 0 -82.5 -28 q-31.5 -28 -31.5 -75 Z" /><glyph glyph-name="nine" unicode="9" d="M65 -107 q77 5 135.5 28 q58.5 23 100.5 59.5 q42 36.5 68.5 85.5 q26.5 49 39.5 107 q-32 -22 -70.5 -35.5 q-38.5 -13.5 -83.5 -13.5 q-46 0 -84.5 15 q-38.5 15 -66 41.5 q-27.5 26.5 -43 63.5 q-15.5 37 -15.5 81 q0 54 20.5 99.5 q20.5 45.5 56.5 78.5 q36 33 84.5 52 q48.5 19 105.5 19 q59 0 104.5 -20.5 q45.5 -20.5 76 -57.5 q30.5 -37 46.5 -89 q16 -52 16 -115 q0 -92 -31 -170 q-31 -78 -87.5 -136.5 q-56.5 -58.5 -135 -94 q-78.5 -35.5 -172.5 -41.5 q-13 0 -27.5 -0.5 q-14.5 -0.5 -28.5 0.5 l-9 43 ZM422 299 q0 108 -32.5 168 q-32.5 60 -91.5 60 q-54 0 -85.5 -46.5 q-31.5 -46.5 -31.5 -124.5 q0 -83 35.5 -123.5 q35.5 -40.5 96.5 -40.5 q28 0 54.5 7.5 q26.5 7.5 49.5 18.5 q2 20 3.5 40 q1.5 20 1.5 41 Z" /><glyph glyph-name="AE" unicode="æ" d="M582 642 l0 -260 l91 0 q23 0 35 6 q12 6 18 20 q4 8 5.5 25.5 q1.5 17.5 3.5 35.5 l43 0 l0 -225 l-43 0 q-1 12 -2.5 31 q-1.5 19 -6.5 28 q-6 15 -18 21.5 q-12 6.5 -35 6.5 l-91 0 l0 -280 l131 0 q37 0 62.5 8.5 q25.5 8.5 44.5 27 q19 18.5 33.5 48.5 q14.5 30 28.5 73 l35 -4 l-15 -204 l-530 0 l0 40 q11 1 28 2.5 q17 1.5 25 5.5 q14 5 19.5 17.5 q5.5 12.5 5.5 34.5 l0 171 l-213 0 l-92 -173 q-10 -17 -1.5 -31.5 q8.5 -14.5 28.5 -19.5 q7 -2 23.5 -3.5 q16.5 -1.5 33.5 -3.5 l0 -40 l-234 0 l0 40 q11 1 23 4.5 q12 3.5 20 6.5 q15 5 22.5 16 q7.5 11 17.5 29 l294 549 l-78 6 l0 42 l591 0 l0 -170 l-39 0 q-9 36 -21.5 59 q-12.5 23 -30 36.5 q-17.5 13.5 -41 18.5 q-23.5 5 -56.5 5 l-115 0 ZM450 642 q-3 0 -7 0 q-4 0 -9 1 l-170 -321 l186 0 l0 320 Z" /><glyph glyph-name="OE" unicode="&#x152;" d="M499 0 q-25 -7 -51.5 -11 q-26.5 -4 -54.5 -4 q-75 0 -138 25.5 q-63 25.5 -108.5 72 q-45.5 46.5 -71.5 112 q-26 65.5 -26 146.5 q0 82 27 150 q27 68 74.5 116.5 q47.5 48.5 112.5 75 q65 26.5 141 26.5 q66 0 114 -16 l406 0 l0 -170 l-39 0 q-9 36 -21.5 59 q-12.5 23 -30 36.5 q-17.5 13.5 -41 18.5 q-23.5 5 -56.5 5 l-115 0 l0 -260 l99 0 q22 0 34 6 q12 6 18 20 q4 8 5.5 25.5 q1.5 17.5 3.5 35.5 l43 0 l0 -225 l-43 0 q-1 12 -2.5 31 q-1.5 19 -6.5 28 q-10 28 -52 28 l-99 0 l0 -280 l131 0 q37 0 62.5 8.5 q25.5 8.5 44.5 27 q19 18.5 33.5 48.5 q14.5 30 28.5 73 l35 -4 l-15 -204 l-442 0 ZM400 36 q25 0 47 4 q22 4 42 14 l0 586 q-38 20 -88 20 q-61 0 -101 -24.5 q-40 -24.5 -63 -67 q-23 -42.5 -32.5 -99.5 q-9.5 -57 -9.5 -121 q0 -73 10.5 -130.5 q10.5 -57.5 34.5 -98 q24 -40.5 63 -62 q39 -21.5 97 -21.5 Z" /><glyph glyph-name="dotlessi" unicode="&#x131;" d="M223 93 q0 -21 6 -32.5 q6 -11.5 20 -16.5 q7 -3 16 -4 q9 -1 25 -3 l0 -37 l-253 0 l0 37 q11 1 22 2 q11 1 19 5 q26 8 26 49 l0 305 q0 23 -7 32 q-7 9 -31 9 q-8 0 -20 -0.5 q-12 -0.5 -19 -1.5 l0 35 q12 4 30 9.5 q18 5.5 37.5 9.5 q19.5 4 38.5 7 q19 3 34 3 q33 0 44.5 -15 q11.5 -15 11.5 -47 l0 -346 Z" /><glyph glyph-name="ae" unicode="æ" d="M725 48 q-38 -32 -88.5 -47.5 q-50.5 -15.5 -101.5 -15.5 q-67 0 -114.5 24.5 q-47.5 24.5 -74.5 70.5 q-35 -42 -83 -66.5 q-48 -24.5 -101 -24.5 q-53 0 -88 31.5 q-35 31.5 -35 87.5 q0 57 39.5 90 q39.5 33 115.5 51 l118 28 l0 21 q0 60 -21.5 85.5 q-21.5 25.5 -80.5 25.5 q-32 0 -75 -6 q-43 -6 -81 -15 l0 53 q49 26 107.5 41.5 q58.5 15.5 110.5 15.5 q46 0 77 -14 q31 -14 48 -45 q32 29 75 45.5 q43 16.5 96 16.5 q88 0 136.5 -54.5 q48.5 -54.5 41.5 -155.5 l-24 -44 l-298 0 q2 -80 37.5 -126 q35.5 -46 119.5 -46 q30 0 67 5.5 q37 5.5 75 19.5 l2 -52 ZM536 443 q-51 0 -78 -40 q-27 -40 -33 -103 l203 0 q6 64 -17.5 103.5 q-23.5 39.5 -74.5 39.5 ZM332 108 q-20 49 -20 113 l0 11 l-63 -16 q-48 -12 -71.5 -27.5 q-23.5 -15.5 -23.5 -46.5 q0 -32 18.5 -49 q18.5 -17 56.5 -17 q26 0 53 9.5 q27 9.5 50 22.5 Z" /><glyph glyph-name="oe" unicode="&#x153;" d="M827 48 q-38 -32 -89 -47.5 q-51 -15.5 -102 -15.5 q-65 0 -111 22.5 q-46 22.5 -74 64.5 q-32 -39 -77 -63 q-45 -24 -102 -24 q-51 0 -93.5 16.5 q-42.5 16.5 -73 47.5 q-30.5 31 -47.5 75.5 q-17 44.5 -17 100.5 q0 63 20.5 114 q20.5 51 56.5 87 q36 36 84.5 55.5 q48.5 19.5 104.5 19.5 q55 0 97.5 -23.5 q42.5 -23.5 70.5 -63.5 q34 42 83 64.5 q49 22.5 112 22.5 q78 0 125 -43 q47 -43 53 -124 q0 -10 0.5 -21 q0.5 -11 -0.5 -22 l-25 -44 l-298 0 q2 -80 38 -126 q36 -46 119 -46 q30 0 67.5 5.5 q37.5 5.5 75.5 19.5 l2 -52 ZM407 233 q0 47 -7 85.5 q-7 38.5 -22 66.5 q-15 28 -39.5 43 q-24.5 15 -58.5 15 q-32 0 -53 -13 q-21 -13 -34 -37 q-13 -24 -18 -57.5 q-5 -33.5 -5 -73.5 q0 -47 6.5 -87 q6.5 -40 21.5 -69 q15 -29 38.5 -46 q23.5 -17 58.5 -17 q58 0 85 49 q27 49 27 141 ZM638 443 q-51 0 -78 -40 q-27 -40 -33 -103 l202 0 q0 7 0.5 13 q0.5 6 0.5 13 q0 53 -23 85 q-23 32 -69 32 Z" /><glyph glyph-name="comma" unicode="," d="M230 48 q0 -39 -15 -73.5 q-15 -34.5 -38 -63 q-23 -28.5 -50.5 -50 q-27.5 -21.5 -52.5 -34.5 l-27 32 q38 26 65.5 58.5 q27.5 32.5 30.5 81.5 q-33 0 -58 18.5 q-25 18.5 -25 54.5 q0 32 23.5 52 q23.5 20 53.5 20 q45 0 69 -25 q24 -25 24 -71 Z" /><glyph glyph-name="period" unicode="." d="M228 64 q0 -21 -7.5 -35 q-7.5 -14 -19.5 -22.5 q-12 -8.5 -26.5 -12 q-14.5 -3.5 -29.5 -3.5 q-15 0 -30 3.5 q-15 3.5 -27 12 q-12 8.5 -19.5 22.5 q-7.5 14 -7.5 35 q0 21 7.5 35 q7.5 14 19.5 22.5 q12 8.5 27 12.5 q15 4 30 4 q15 0 29.5 -4 q14.5 -4 26.5 -12.5 q12 -8.5 19.5 -22.5 q7.5 -14 7.5 -35 Z" /><glyph glyph-name="question" unicode="?" d="M197 237 q-11 23 -17 41 q-6 18 -6 35 q0 39 21 64 q21 25 46.5 46.5 q25.5 21.5 46.5 43.5 q21 22 21 54 q0 39 -32 65 q-32 26 -83 26 q-36 0 -73.5 -15 q-37.5 -15 -65.5 -45 l-21 20 q43 71 96 104 q53 33 116 33 q39 0 72 -11.5 q33 -11.5 58 -31.5 q25 -20 39 -48 q14 -28 14 -62 q0 -34 -14.5 -60.5 q-14.5 -26.5 -36 -48.5 q-21.5 -22 -46.5 -41 q-25 -19 -46.5 -38.5 q-21.5 -19.5 -36 -41.5 q-14.5 -22 -14.5 -50 q0 -13 4 -23.5 q4 -10.5 5 -15.5 l-47 0 ZM302 64 q0 -21 -7.5 -35 q-7.5 -14 -19.5 -22.5 q-12 -8.5 -27 -12 q-15 -3.5 -30 -3.5 q-15 0 -30 3.5 q-15 3.5 -27 12 q-12 8.5 -19.5 22.5 q-7.5 14 -7.5 35 q0 21 7.5 35 q7.5 14 19.5 22.5 q12 8.5 27 12.5 q15 4 30 4 q15 0 30 -4 q15 -4 27 -12.5 q12 -8.5 19.5 -22.5 q7.5 -14 7.5 -35 Z" /><glyph glyph-name="exclam" unicode="!" d="M225 693 l0 -104 l-34 -353 l-64 0 l-34 353 l0 104 l132 0 ZM241 64 q0 -21 -7.5 -35 q-7.5 -14 -19.5 -22.5 q-12 -8.5 -27 -12 q-15 -3.5 -30 -3.5 q-15 0 -30 3.5 q-15 3.5 -27 12 q-12 8.5 -19.5 22.5 q-7.5 14 -7.5 35 q0 21 7.5 35 q7.5 14 19.5 22.5 q12 8.5 27 12.5 q15 4 30 4 q15 0 30 -4 q15 -4 27 -12.5 q12 -8.5 19.5 -22.5 q7.5 -14 7.5 -35 Z" /><glyph glyph-name="hyphen" unicode="-" d="M358 221 l-291 0 l0 82 l291 0 l0 -82 Z" /><glyph glyph-name="endash" unicode="&#x2013;" d="M600 238 l-523 0 l0 61 l523 0 l0 -61 Z" /><glyph glyph-name="emdash" unicode="&#x2014;" d="M814 238 l-737 0 l0 61 l737 0 l0 -61 Z" /><glyph glyph-name="underscore" unicode="_" d="M590 -217 l-523 0 l0 61 l523 0 l0 -61 Z" /><glyph glyph-name="at" unicode="@" d="M613 71 q-45 0 -67.5 15.5 q-22.5 15.5 -29.5 38.5 q-52 -52 -113 -52 q-72 0 -116 50 q-44 50 -44 141 q0 50 15.5 89.5 q15.5 39.5 43.5 67.5 q28 28 65 42.5 q37 14.5 81 14.5 q53 0 94 -19 l59 14 l12 0 l0 -302 q0 -26 11 -35.5 q11 -9.5 29 -9.5 q31 0 53.5 21 q22.5 21 36.5 54.5 q14 33.5 20.5 74.5 q6.5 41 6.5 81 q0 73 -22 129 q-22 56 -60.5 93.5 q-38.5 37.5 -92 56.5 q-53.5 19 -116.5 19 q-86 0 -154 -32.5 q-68 -32.5 -115.5 -88 q-47.5 -55.5 -73 -130.5 q-25.5 -75 -25.5 -159 q0 -77 22 -142 q22 -65 65.5 -111.5 q43.5 -46.5 108 -72.5 q64.5 -26 150.5 -26 q22 0 54.5 2.5 q32.5 2.5 68.5 8.5 q36 6 72 17.5 q36 11.5 67 29.5 l0 -48 q-24 -15 -58 -26.5 q-34 -11.5 -71.5 -19 q-37.5 -7.5 -75.5 -11 q-38 -3.5 -70 -3.5 q-95 0 -168.5 30.5 q-73.5 30.5 -124 84.5 q-50.5 54 -77 127.5 q-26.5 73.5 -26.5 159.5 q0 99 33.5 183.5 q33.5 84.5 92 146.5 q58.5 62 138.5 97 q80 35 174 35 q75 0 137.5 -23 q62.5 -23 107.5 -67 q45 -44 70 -108 q25 -64 25 -145 q0 -53 -11.5 -105.5 q-11.5 -52.5 -36.5 -94 q-25 -41.5 -66 -67.5 q-41 -26 -99 -26 ZM448 142 q17 0 30.5 3 q13.5 3 34.5 14 l0 244 q-15 9 -33.5 16 q-18.5 7 -42.5 7 q-44 0 -66.5 -35 q-22.5 -35 -22.5 -109 q0 -66 21 -103 q21 -37 79 -37 Z" /><glyph glyph-name="ampersand" unicode="&amp;" d="M755 15 q-17 -12 -48.5 -20 q-31.5 -8 -65.5 -8 q-26 0 -44.5 5.5 q-18.5 5.5 -34.5 15 q-16 9.5 -31 24 q-15 14.5 -33 32.5 q-36 -32 -86.5 -55.5 q-50.5 -23.5 -120.5 -23.5 q-45 0 -85.5 11.5 q-40.5 11.5 -71.5 34.5 q-31 23 -49.5 57 q-18.5 34 -18.5 79 q0 55 33 103.5 q33 48.5 106 80.5 q-23 25 -38.5 46.5 q-15.5 21.5 -24.5 41.5 q-9 20 -13 39 q-4 19 -4 39 q0 39 14.5 74 q14.5 35 41.5 61.5 q27 26.5 64.5 41.5 q37.5 15 84.5 15 q33 0 67 -8.5 q34 -8.5 61.5 -27 q27.5 -18.5 45 -47.5 q17.5 -29 17.5 -70 q0 -63 -44.5 -103 q-44.5 -40 -126.5 -71 l190 -191 q0 0 2 4 q14 31 31 60.5 q17 29.5 36.5 52.5 q19.5 23 42.5 37.5 q23 14.5 49 14.5 q23 0 40 -12.5 q17 -12.5 17 -38.5 q0 -25 -15.5 -38.5 q-15.5 -13.5 -41.5 -13.5 q-27 0 -56.5 -18 q-29.5 -18 -57.5 -63 l-13 -20 l24 -23 q33 -32 61.5 -57 q28.5 -25 60.5 -25 q17 0 35 3 l0 -39 ZM350 58 q37 0 65.5 10 q28.5 10 51.5 27 l-226 220 l-9 8 q-20 -26 -28.5 -56 q-8.5 -30 -8.5 -58 q0 -29 9 -56.5 q9 -27.5 28 -48.5 q19 -21 48.5 -33.5 q29.5 -12.5 69.5 -12.5 ZM243 550 q0 -32 14.5 -59 q14.5 -27 48.5 -65 l19 -19 q48 33 68 67.5 q20 34.5 20 74.5 q0 42 -21 73.5 q-21 31.5 -63 31.5 q-42 0 -64 -28.5 q-22 -28.5 -22 -75.5 Z" /><glyph glyph-name="slash" unicode="/" d="M408 744 l-309 -961 l-70 0 l307 961 l72 0 Z" /><glyph glyph-name="backslash" unicode="\" d="M103 744 l296 -961 l-71 0 l-298 961 l73 0 Z" /><glyph glyph-name="bar" unicode="|" d="M169 744 l0 -961 l-76 0 l0 961 l76 0 Z" /><glyph glyph-name="parenleft" unicode="(" d="M44 277 q0 83 13.5 157 q13.5 74 46.5 136 q33 62 88 110 q55 48 137 80 l19 -38 q-56 -28 -93.5 -68.5 q-37.5 -40.5 -61 -95 q-23.5 -54.5 -33.5 -124 q-10 -69.5 -10 -154.5 q0 -86 10 -155 q10 -69 33.5 -123.5 q23.5 -54.5 61 -95 q37.5 -40.5 93.5 -68.5 l-19 -38 q-84 25 -139 72.5 q-55 47.5 -87.5 110.5 q-32.5 63 -45.5 138 q-13 75 -13 156 Z" /><glyph glyph-name="parenright" unicode=")" d="M321 277 q0 -81 -13 -156 q-13 -75 -45.5 -138 q-32.5 -63 -87.5 -110.5 q-55 -47.5 -139 -72.5 l-19 38 q55 28 93 68.5 q38 40.5 61.5 95 q23.5 54.5 33.5 123.5 q10 69 10 155 q0 85 -10 154.5 q-10 69.5 -33.5 124 q-23.5 54.5 -61.5 95 q-38 40.5 -93 68.5 l19 38 q82 -32 137 -80 q55 -48 88 -110 q33 -62 46.5 -136 q13.5 -74 13.5 -157 Z" /><glyph glyph-name="bracketleft" unicode="[" d="M323 -194 l-230 0 l0 953 l230 0 l0 -55 l-136 0 l0 -843 l136 0 l0 -55 Z" /><glyph glyph-name="bracketright" unicode="]" d="M28 -139 l137 0 l0 843 l-137 0 l0 55 l230 0 l0 -953 l-230 0 l0 55 Z" /><glyph glyph-name="braceleft" unicode="{" d="M342 -194 q-51 0 -91 7 q-40 7 -68.5 25.5 q-28.5 18.5 -43.5 52 q-15 33.5 -15 86.5 l0 149 q0 37 -7.5 60.5 q-7.5 23.5 -21.5 37 q-14 13.5 -33 19.5 q-19 6 -42 8 l0 63 q25 3 44.5 9.5 q19.5 6.5 32.5 20.5 q13 14 20 37 q7 23 7 58 l0 150 q0 54 17 87 q17 33 46.5 51.5 q29.5 18.5 69 25 q39.5 6.5 85.5 6.5 l0 -55 q-33 0 -56.5 -4.5 q-23.5 -4.5 -38.5 -15.5 q-15 -11 -22 -30.5 q-7 -19.5 -7 -50.5 l0 -124 q0 -43 -5 -76 q-5 -33 -17.5 -56.5 q-12.5 -23.5 -33.5 -39 q-21 -15.5 -53 -22.5 l0 -5 q39 -10 60.5 -26 q21.5 -16 32.5 -39.5 q11 -23.5 13.5 -55.5 q2.5 -32 2.5 -73 l0 -124 q0 -32 9 -51.5 q9 -19.5 25 -30.5 q16 -11 39 -15 q23 -4 51 -4 l0 -55 Z" /><glyph glyph-name="braceright" unicode="}" d="M28 -139 q28 0 51 4 q23 4 39.5 15 q16.5 11 25.5 30.5 q9 19.5 9 51.5 l0 124 q0 41 2.5 73 q2.5 32 13 55.5 q10.5 23.5 32 39.5 q21.5 16 60.5 26 l0 5 q-32 7 -53 22.5 q-21 15.5 -33 39 q-12 23.5 -17 56.5 q-5 33 -5 76 l0 124 q0 31 -7.5 50.5 q-7.5 19.5 -22.5 30.5 q-15 11 -38.5 15.5 q-23.5 4.5 -56.5 4.5 l0 55 q46 0 85.5 -6.5 q39.5 -6.5 69 -25 q29.5 -18.5 46.5 -51.5 q17 -33 17 -87 l0 -150 q0 -35 7 -58 q7 -23 20 -37 q13 -14 32.5 -20.5 q19.5 -6.5 44.5 -9.5 l0 -63 q-23 -2 -42 -8 q-19 -6 -33 -19.5 q-14 -13.5 -21.5 -37 q-7.5 -23.5 -7.5 -60.5 l0 -149 q0 -53 -15 -86.5 q-15 -33.5 -43.5 -52 q-28.5 -18.5 -68.5 -25.5 q-40 -7 -91 -7 l0 55 Z" /><glyph glyph-name="section" unicode="§" d="M244 -168 q-32 0 -65 6 q-33 6 -60 17.5 q-27 11.5 -44 28.5 q-17 17 -17 40 q0 20 14.5 37 q14.5 17 41.5 17 q17 0 28 -7 q11 -7 19.5 -18 q8.5 -11 17 -23 q8.5 -12 19 -23 q10.5 -11 26 -18 q15.5 -7 38.5 -7 q20 0 39.5 6.5 q19.5 6.5 35 18 q15.5 11.5 25 28 q9.5 16.5 9.5 37.5 q0 32 -24.5 56 q-24.5 24 -69.5 41 l-80 33 q-71 29 -109 71.5 q-38 42.5 -38 103.5 q0 51 25.5 93.5 q25.5 42.5 74.5 69.5 q-30 22 -50 53 q-20 31 -20 76 q0 39 16.5 73.5 q16.5 34.5 46 60.5 q29.5 26 70.5 41 q41 15 91 15 q33 0 65 -7 q32 -7 57.5 -19 q25.5 -12 41.5 -29.5 q16 -17.5 16 -38.5 q0 -21 -13 -34.5 q-13 -13.5 -35 -13.5 q-23 0 -38 14.5 q-15 14.5 -30 31.5 q-15 17 -34 31.5 q-19 14.5 -51 14.5 q-41 0 -70 -25.5 q-29 -25.5 -29 -67.5 q0 -62 77 -93 l94 -39 q66 -26 104.5 -67.5 q38.5 -41.5 38.5 -103.5 q0 -50 -26 -90 q-26 -40 -74 -66 q33 -21 56.5 -53.5 q23.5 -32.5 23.5 -81.5 q0 -42 -18.5 -77 q-18.5 -35 -50 -60 q-31.5 -25 -74 -39 q-42.5 -14 -91.5 -14 ZM199 412 q-20 -14 -31.5 -37 q-11.5 -23 -11.5 -50 q0 -32 18.5 -56 q18.5 -24 65.5 -43 l95 -39 l8 -3 q24 14 35.5 36 q11.5 22 11.5 46 q0 65 -93 103 l-79 35 l-19 8 Z" /><glyph glyph-name="bullet" unicode="&#x2022;" d="M341 268 q-1 -28 -11.5 -52 q-10.5 -24 -28.5 -41.5 q-18 -17.5 -41 -27.5 q-23 -10 -50 -10 q-27 0 -51 10 q-24 10 -41.5 28 q-17.5 18 -28 42 q-10.5 24 -10.5 51 q0 27 10.5 50.5 q10.5 23.5 28 41.5 q17.5 18 41.5 28 q24 10 51 10 q28 0 52.5 -10.5 q24.5 -10.5 42.5 -28 q18 -17.5 27.5 -41 q9.5 -23.5 8.5 -50.5 Z" /><glyph glyph-name="numbersign" unicode="#" d="M106 481 l129 0 l55 212 l59 0 l-55 -212 l142 0 l55 212 l59 0 l-55 -212 l130 0 l-15 -60 l-130 0 l-41 -160 l129 0 l-15 -60 l-130 0 l-51 -201 l-60 0 l52 201 l-142 0 l-51 -201 l-60 0 l52 201 l-129 0 l15 60 l129 0 l42 160 l-129 0 l15 60 ZM238 261 l141 0 l42 160 l-142 0 l-41 -160 Z" /><glyph glyph-name="percent" unicode="%" d="M668 693 l-491 -693 l-68 0 l489 693 l70 0 ZM362 546 q0 -41 -13.5 -72.5 q-13.5 -31.5 -36.5 -52.5 q-23 -21 -53.5 -31.5 q-30.5 -10.5 -64.5 -10.5 q-31 0 -59.5 9.5 q-28.5 9.5 -50 29 q-21.5 19.5 -34 49.5 q-12.5 30 -12.5 71 q0 43 13.5 74.5 q13.5 31.5 36 51.5 q22.5 20 52 29.5 q29.5 9.5 61.5 9.5 q34 0 63.5 -10 q29.5 -10 51 -30 q21.5 -20 34 -49.5 q12.5 -29.5 12.5 -67.5 ZM269 543 q0 63 -17 91.5 q-17 28.5 -55 28.5 q-36 0 -51 -28 q-15 -28 -15 -93 q0 -69 15.5 -95.5 q15.5 -26.5 48.5 -26.5 q42 0 58 31.5 q16 31.5 16 91.5 ZM758 154 q0 -41 -13.5 -72.5 q-13.5 -31.5 -36.5 -52.5 q-23 -21 -53.5 -31.5 q-30.5 -10.5 -64.5 -10.5 q-31 0 -59 9.5 q-28 9.5 -49.5 29 q-21.5 19.5 -34 49.5 q-12.5 30 -12.5 71 q0 43 13.5 74.5 q13.5 31.5 36 51.5 q22.5 20 51.5 29.5 q29 9.5 61 9.5 q34 0 63.5 -10 q29.5 -10 51 -30 q21.5 -20 34 -49.5 q12.5 -29.5 12.5 -67.5 ZM666 151 q0 63 -17.5 91.5 q-17.5 28.5 -55.5 28.5 q-36 0 -51 -28 q-15 -28 -15 -93 q0 -69 15.5 -95.5 q15.5 -26.5 48.5 -26.5 q42 0 58.5 31.5 q16.5 31.5 16.5 91.5 Z" /><glyph glyph-name="perthousand" unicode="&#x2030;" d="M671 693 l-491 -693 l-68 0 l489 693 l70 0 ZM365 546 q0 -41 -13.5 -72.5 q-13.5 -31.5 -36.5 -52.5 q-23 -21 -53.5 -31.5 q-30.5 -10.5 -64.5 -10.5 q-31 0 -59.5 9.5 q-28.5 9.5 -50 29 q-21.5 19.5 -34 49.5 q-12.5 30 -12.5 71 q0 43 13.5 74.5 q13.5 31.5 36 51.5 q22.5 20 52 29.5 q29.5 9.5 61.5 9.5 q34 0 63.5 -10 q29.5 -10 51 -30 q21.5 -20 34 -49.5 q12.5 -29.5 12.5 -67.5 ZM272 543 q0 63 -17 91.5 q-17 28.5 -55 28.5 q-36 0 -51 -28 q-15 -28 -15 -93 q0 -69 15.5 -95.5 q15.5 -26.5 48.5 -26.5 q42 0 58 31.5 q16 31.5 16 91.5 ZM761 154 q0 -41 -13.5 -72.5 q-13.5 -31.5 -36.5 -52.5 q-23 -21 -53.5 -31.5 q-30.5 -10.5 -64.5 -10.5 q-31 0 -59 9.5 q-28 9.5 -49.5 29 q-21.5 19.5 -34 49.5 q-12.5 30 -12.5 71 q0 43 13.5 74.5 q13.5 31.5 36 51.5 q22.5 20 51.5 29.5 q29 9.5 61 9.5 q34 0 63.5 -10 q29.5 -10 51 -30 q21.5 -20 34 -49.5 q12.5 -29.5 12.5 -67.5 ZM669 151 q0 63 -17.5 91.5 q-17.5 28.5 -55.5 28.5 q-36 0 -51 -28 q-15 -28 -15 -93 q0 -69 15.5 -95.5 q15.5 -26.5 48.5 -26.5 q42 0 58.5 31.5 q16.5 31.5 16.5 91.5 ZM1115 154 q0 -41 -13.5 -72.5 q-13.5 -31.5 -36.5 -52.5 q-23 -21 -53.5 -31.5 q-30.5 -10.5 -64.5 -10.5 q-31 0 -59 9.5 q-28 9.5 -49.5 29 q-21.5 19.5 -34 49.5 q-12.5 30 -12.5 71 q0 43 13.5 74.5 q13.5 31.5 36 51.5 q22.5 20 51.5 29.5 q29 9.5 61 9.5 q34 0 63.5 -10 q29.5 -10 51 -30 q21.5 -20 34 -49.5 q12.5 -29.5 12.5 -67.5 ZM1023 151 q0 63 -17.5 91.5 q-17.5 28.5 -55.5 28.5 q-36 0 -51 -28 q-15 -28 -15 -93 q0 -69 16 -95.5 q16 -26.5 48 -26.5 q42 0 58.5 31.5 q16.5 31.5 16.5 91.5 Z" /><glyph glyph-name="dagger" unicode="&#x2020;" d="M388 410 l-139 0 l0 -627 l-73 0 l0 627 l-139 0 l0 71 l139 0 l0 263 l73 0 l0 -263 l139 0 l0 -71 Z" /><glyph glyph-name="quotesingle" unicode="&#39;" d="M178 744 l-46 -283 l-70 0 l27 283 l89 0 Z" /><glyph glyph-name="quotedbl" unicode="&quot;" d="M178 744 l-46 -283 l-70 0 l27 283 l89 0 ZM354 744 l-46 -283 l-70 0 l26 283 l90 0 Z" /><glyph glyph-name="quoteleft" unicode="&#x2018;" d="M48 554 q0 39 14.5 72.5 q14.5 33.5 36 60.5 q21.5 27 47.5 47.5 q26 20.5 50 33.5 l27 -31 q-38 -25 -64 -56 q-26 -31 -29 -79 q32 0 55.5 -19 q23.5 -19 23.5 -51 q0 -29 -22 -48.5 q-22 -19.5 -52 -19.5 q-40 0 -63.5 23.5 q-23.5 23.5 -23.5 66.5 Z" /><glyph glyph-name="quoteright" unicode="&#x2019;" d="M228 676 q0 -39 -14.5 -72.5 q-14.5 -33.5 -36.5 -61 q-22 -27.5 -48 -48 q-26 -20.5 -50 -33.5 l-26 31 q37 26 63 56.5 q26 30.5 29 78.5 q-32 0 -55.5 19 q-23.5 19 -23.5 51 q0 29 22.5 48.5 q22.5 19.5 51.5 19.5 q40 0 64 -23 q24 -23 24 -66 Z" /><glyph glyph-name="guilsinglleft" unicode="&#x2039;" d="M225 67 l-179 189 l0 20 l180 185 l40 -28 l-100 -163 l100 -176 l-41 -27 Z" /><glyph glyph-name="guilsinglright" unicode="&#x203a;" d="M54 94 l101 176 l-101 163 l40 28 l180 -185 l0 -20 l-179 -189 l-41 27 Z" /><glyph glyph-name="guillemotleft" unicode="«" d="M225 67 l-179 189 l0 20 l180 185 l40 -28 l-100 -163 l100 -176 l-41 -27 ZM425 67 l-179 189 l0 20 l180 185 l40 -28 l-100 -163 l100 -176 l-41 -27 Z" /><glyph glyph-name="guillemotright" unicode="»" d="M254 94 l101 176 l-101 163 l40 28 l180 -185 l0 -20 l-179 -189 l-41 27 ZM54 94 l101 176 l-101 163 l40 28 l180 -185 l0 -20 l-179 -189 l-41 27 Z" /><glyph glyph-name="asterisk" unicode="*" d="M389 458 l-126 43 l-25 -133 l-24 0 l-24 133 l-127 -43 l-10 19 l101 88 l-101 88 l10 17 l128 -43 l25 132 l20 0 l26 -132 l127 43 l10 -17 l-102 -89 l102 -87 l-10 -19 Z" /><glyph glyph-name="plus" unicode="+" d="M306 491 l0 -194 l193 0 l0 -65 l-193 0 l0 -195 l-69 0 l0 195 l-192 0 l0 65 l192 0 l0 194 l69 0 Z" /><glyph glyph-name="less" unicode="&lt;" d="M414 5 l-380 232 l0 60 l380 231 l0 -75 l-304 -185 l304 -184 l0 -79 Z" /><glyph glyph-name="equal" unicode="=" d="M525 142 l-454 0 l0 65 l454 0 l0 -65 ZM525 322 l-454 0 l0 65 l454 0 l0 -65 Z" /><glyph glyph-name="greater" unicode="&gt;" d="M57 84 l304 184 l-304 185 l0 75 l380 -231 l0 -60 l-380 -232 l0 79 Z" /><glyph glyph-name="uni0411" unicode="&#x411;" d="M257 640 l0 -242 l127 0 q51 0 94 -11.5 q43 -11.5 74.5 -34.5 q31.5 -23 49.5 -58 q18 -35 18 -82 q0 -49 -19 -88 q-19 -39 -52 -66.5 q-33 -27.5 -78 -42.5 q-45 -15 -96 -15 l-327 0 l0 40 q10 1 26.5 2.5 q16.5 1.5 24.5 4.5 q26 10 26 49 l0 501 q0 40 -26 49 q-7 3 -21.5 4 q-14.5 1 -29.5 3 l0 40 l512 0 l0 -170 l-38 0 q-9 36 -21.5 59 q-12.5 23 -30 35.5 q-17.5 12.5 -41 17.5 q-23.5 5 -56.5 5 l-116 0 ZM257 346 l0 -295 l79 0 q72 0 106.5 41 q34.5 41 34.5 110 q0 66 -33 105 q-33 39 -97 39 l-90 0 Z" /><glyph glyph-name="uni0413" unicode="&#x413;" d="M257 642 l0 -544 q0 -22 6.5 -33.5 q6.5 -11.5 20.5 -16.5 q8 -3 24 -4.5 q16 -1.5 33 -3.5 l0 -40 l-293 0 l0 40 q10 1 26.5 2 q16.5 1 24.5 5 q26 8 26 49 l0 497 q0 23 -5.5 35 q-5.5 12 -19.5 17 q-7 3 -21 4.5 q-14 1.5 -31 3.5 l0 40 l512 0 l0 -170 l-38 0 q-9 36 -21.5 59 q-12.5 23 -30 36.5 q-17.5 13.5 -41 18.5 q-23.5 5 -56.5 5 l-116 0 Z" /><glyph glyph-name="uni0414" unicode="&#x414;" d="M209 0 q-42 0 -69.5 -8.5 q-27.5 -8.5 -46 -26.5 q-18.5 -18 -30 -46.5 q-11.5 -28.5 -19.5 -68.5 l-36 0 l0 202 l45 0 q60 20 93 159.5 q33 139.5 37 387.5 q0 36 -22 46 q-10 4 -23.5 5.5 q-13.5 1.5 -32.5 2.5 l0 40 l578 0 l0 -40 q-11 -1 -27.5 -2 q-16.5 -1 -24.5 -5 q-26 -8 -26 -49 l0 -545 l100 0 l0 -202 l-36 0 q-8 40 -19.5 68.5 q-11.5 28.5 -30 46.5 q-18.5 18 -46 26.5 q-27.5 8.5 -69.5 8.5 l-295 0 ZM242 642 q-2 -126 -9.5 -223.5 q-7.5 -97.5 -20.5 -169.5 q-13 -72 -31.5 -120.5 q-18.5 -48.5 -42.5 -76.5 l335 0 l0 590 l-231 0 Z" /><glyph glyph-name="uni0416" unicode="&#x416;" d="M574 96 q0 -40 26 -49 q7 -3 21.5 -4 q14.5 -1 29.5 -3 l0 -40 l-285 0 l0 40 q10 1 26.5 2 q16.5 1 24.5 5 q26 8 26 49 l0 501 q0 40 -26 49 q-7 3 -21.5 4 q-14.5 1 -29.5 3 l0 40 l285 0 l0 -40 q-10 -1 -26.5 -2 q-16.5 -1 -24.5 -5 q-26 -8 -26 -49 l0 -501 ZM605 340 l172 214 q30 35 29 57 q0 17 -12.5 27.5 q-12.5 10.5 -44.5 14.5 l0 40 l254 0 l0 -40 q-37 -4 -70 -22.5 q-33 -18.5 -62 -53.5 l-156 -187 l182 -270 q23 -35 48.5 -55 q25.5 -20 63.5 -25 l-1 -40 l-186 0 l-217 333 l0 7 ZM412 333 l-217 -333 l-186 0 l1 40 q38 5 63 25 q25 20 48 55 l181 270 l-156 187 q-29 35 -62 53.5 q-33 18.5 -70 22.5 l0 40 l254 0 l0 -40 q-32 -4 -44.5 -14.5 q-12.5 -10.5 -12.5 -27.5 q-1 -22 29 -57 l172 -214 l0 -7 Z" /><glyph glyph-name="uni0417" unicode="&#x417;" d="M266 660 q-35 0 -62 -14.5 q-27 -14.5 -47 -39 q-20 -24.5 -34.5 -56.5 q-14.5 -32 -23.5 -68 l-36 0 l0 156 q42 34 99 52.5 q57 18.5 122 18.5 q55 0 101 -10.5 q46 -10.5 80 -31.5 q34 -21 53 -53 q19 -32 19 -75 q0 -72 -50 -117.5 q-50 -45.5 -135 -56.5 l0 -4 q44 -2 83.5 -12 q39.5 -10 69 -30 q29.5 -20 47 -51 q17.5 -31 17.5 -73 q0 -53 -20 -92.5 q-20 -39.5 -56.5 -65.5 q-36.5 -26 -89 -39 q-52.5 -13 -116.5 -13 q-75 0 -131 14 q-56 14 -103 40 l0 177 l36 0 q10 -39 24.5 -72.5 q14.5 -33.5 36.5 -58 q22 -24.5 53.5 -38 q31.5 -13.5 75.5 -13.5 q69 0 109.5 40.5 q40.5 40.5 40.5 116.5 q0 39 -13.5 66.5 q-13.5 27.5 -37 44 q-23.5 16.5 -56 24 q-32.5 7.5 -71.5 7.5 l-61 0 l0 50 l60 0 q142 0 142 139 q0 67 -33 102.5 q-33 35.5 -93 35.5 Z" /><glyph glyph-name="uni0418" unicode="&#x418;" d="M780 693 l0 -40 q-11 -1 -27.5 -2 q-16.5 -1 -24.5 -5 q-26 -8 -26 -49 l0 -501 q0 -21 6 -32.5 q6 -11.5 20 -16.5 q7 -3 21.5 -4 q14.5 -1 30.5 -3 l0 -40 l-288 0 l0 40 q11 1 27.5 2 q16.5 1 24.5 5 q26 8 26 49 l0 469 l-332 -565 l-190 0 l0 40 q10 1 26.5 2 q16.5 1 24.5 5 q26 8 26 49 l0 501 q0 21 -6 32.5 q-6 11.5 -20 16.5 q-7 3 -21.5 4 q-14.5 1 -29.5 3 l0 40 l287 0 l0 -40 q-11 -1 -27.5 -2 q-16.5 -1 -24.5 -5 q-26 -9 -26 -49 l0 -471 l332 567 l191 0 Z" /><glyph glyph-name="uni041B" unicode="&#x41b;" d="M198 599 q0 36 -22 46 q-10 4 -23.5 5.5 q-13.5 1.5 -32.5 2.5 l0 40 l564 0 l0 -40 q-11 -1 -27.5 -2 q-16.5 -1 -24.5 -5 q-26 -9 -26 -49 l0 -501 q0 -21 6.5 -32.5 q6.5 -11.5 20.5 -16.5 q7 -3 21.5 -4 q14.5 -1 29.5 -3 l0 -40 l-287 0 l0 40 q10 1 26.5 2 q16.5 1 24.5 5 q26 8 26 49 l0 546 l-222 0 q-3 -179 -14 -303.5 q-11 -124.5 -33 -202.5 q-22 -78 -55.5 -113 q-33.5 -35 -82.5 -35 q-30 0 -46.5 17 q-16.5 17 -16.5 43 q0 61 67 75 q33 7 56.5 34 q23.5 27 38.5 82.5 q15 55.5 22.5 143.5 q7.5 88 9.5 216 Z" /><glyph glyph-name="uni041F" unicode="&#x41f;" d="M48 693 l712 0 l0 -40 q-11 -1 -27.5 -2 q-16.5 -1 -24.5 -5 q-26 -8 -26 -49 l0 -501 q0 -21 6 -32.5 q6 -11.5 20 -16.5 q7 -3 21.5 -4 q14.5 -1 30.5 -3 l0 -40 l-288 0 l0 40 q11 1 27.5 2 q16.5 1 24.5 5 q26 8 26 49 l0 545 l-293 0 l0 -545 q0 -21 6.5 -32.5 q6.5 -11.5 20.5 -16.5 q7 -3 21.5 -4 q14.5 -1 29.5 -3 l0 -40 l-287 0 l0 40 q10 1 26.5 2 q16.5 1 24.5 5 q26 8 26 49 l0 501 q0 21 -6 32.5 q-6 11.5 -20 16.5 q-7 3 -21.5 4 q-14.5 1 -29.5 3 l0 40 Z" /><glyph glyph-name="uni0423" unicode="&#x423;" d="M262 106 q22 0 36.5 12.5 q14.5 12.5 28.5 33.5 l-236 444 q-17 30 -36.5 41 q-19.5 11 -49.5 15 l0 41 l304 0 l0 -41 q-15 -2 -29.5 -5 q-14.5 -3 -26.5 -8.5 q-12 -5.5 -19.5 -15 q-7.5 -9.5 -7.5 -22.5 q0 -11 4 -22 l160 -304 l131 288 q12 24 12 41 q0 13 -7 22 q-7 9 -18.5 14.5 q-11.5 5.5 -26.5 8 q-15 2.5 -31 3.5 l0 41 l236 0 l0 -37 q-29 -5 -49 -17 q-20 -12 -35 -40 l-186 -390 q-25 -52 -47 -93.5 q-22 -41.5 -45.5 -70.5 q-23.5 -29 -51.5 -44.5 q-28 -15.5 -65 -15.5 q-35 0 -54 18 q-19 18 -19 47 q0 29 18.5 47.5 q18.5 18.5 47.5 18.5 q13 0 21.5 -1.5 q8.5 -1.5 14.5 -3.5 q6 -2 12 -3.5 q6 -1.5 14 -1.5 Z" /><glyph glyph-name="uni0424" unicode="&#x424;" d="M517 600 q90 0 157 -18 q67 -18 111.5 -50 q44.5 -32 66 -77 q21.5 -45 21.5 -100 q0 -59 -20 -106.5 q-20 -47.5 -63 -82 q-43 -34.5 -110.5 -53.5 q-67.5 -19 -162.5 -19 l0 -8 q0 -21 6 -32.5 q6 -11.5 20 -16.5 q7 -3 22 -4 q15 -1 30 -3 l0 -40 l-286 0 l0 40 q11 1 27.5 2 q16.5 1 24.5 5 q26 9 26 49 l0 8 q-90 0 -157.5 17.5 q-67.5 17.5 -111.5 50 q-44 32.5 -66 77.5 q-22 45 -22 100 q0 58 20 106 q20 48 63 82.5 q43 34.5 111 53.5 q68 19 163 19 l0 7 q0 21 -6.5 32.5 q-6.5 11.5 -20.5 16.5 q-7 3 -21.5 4 q-14.5 1 -29.5 3 l0 40 l286 0 l0 -40 q-11 -1 -27.5 -2 q-16.5 -1 -24.5 -5 q-26 -8 -26 -49 l0 -7 ZM177 345 q0 -54 15.5 -92.5 q15.5 -38.5 43.5 -63.5 q28 -25 66.5 -37.5 q38.5 -12.5 84.5 -12.5 l0 416 q-100 -1 -155 -55 q-55 -54 -55 -155 ZM726 349 q0 54 -15.5 92.5 q-15.5 38.5 -43.5 63.5 q-28 25 -66.5 37 q-38.5 12 -83.5 13 l0 -416 q100 0 154.5 54 q54.5 54 54.5 156 Z" /><glyph glyph-name="uni0426" unicode="&#x426;" d="M257 52 l293 0 l0 545 q0 41 -26 49 q-8 4 -24.5 5 q-16.5 1 -27.5 2 l0 40 l288 0 l0 -40 q-16 -2 -30.5 -3 q-14.5 -1 -21.5 -4 q-14 -5 -20 -16.5 q-6 -11.5 -6 -32.5 l0 -545 l100 0 l0 -202 l-36 0 q-8 40 -19.5 68.5 q-11.5 28.5 -30 46.5 q-18.5 18 -46 26.5 q-27.5 8.5 -69.5 8.5 l-533 0 l0 40 q15 2 29.5 3 q14.5 1 21.5 4 q14 5 20 16.5 q6 11.5 6 32.5 l0 501 q0 41 -26 49 q-8 4 -24.5 5 q-16.5 1 -26.5 2 l0 40 l287 0 l0 -40 q-15 -2 -29.5 -3 q-14.5 -1 -21.5 -4 q-14 -5 -20.5 -16.5 q-6.5 -11.5 -6.5 -32.5 l0 -545 Z" /><glyph glyph-name="uni0427" unicode="&#x427;" d="M508 597 q0 21 -6.5 32.5 q-6.5 11.5 -19.5 16.5 q-7 3 -22 4 q-15 1 -30 3 l0 40 l287 0 l0 -40 q-10 -1 -26.5 -2 q-16.5 -1 -24.5 -5 q-26 -8 -26 -49 l0 -501 q0 -21 6 -32.5 q6 -11.5 20 -16.5 q7 -3 21.5 -4 q14.5 -1 29.5 -3 l0 -40 l-287 0 l0 40 q11 1 27.5 2 q16.5 1 24.5 5 q26 9 26 49 l0 218 q-46 -18 -93.5 -25.5 q-47.5 -7.5 -93.5 -7.5 q-116 0 -172.5 51.5 q-56.5 51.5 -56.5 166.5 l0 98 q0 21 -6 32.5 q-6 11.5 -20 16.5 q-7 3 -21.5 4 q-14.5 1 -29.5 3 l0 40 l287 0 l0 -40 q-11 -1 -27.5 -2 q-16.5 -1 -24.5 -5 q-26 -9 -26 -49 l0 -107 q0 -71 31 -111 q31 -40 111 -40 q51 0 88 7 q37 7 54 12 l0 239 l0 0 Z" /><glyph glyph-name="uni0428" unicode="&#x428;" d="M48 40 q15 2 29.5 3 q14.5 1 21.5 4 q14 5 20 16.5 q6 11.5 6 32.5 l0 501 q0 41 -26 49 q-8 4 -24.5 5 q-16.5 1 -26.5 2 l0 40 l287 0 l0 -40 q-15 -2 -29.5 -3 q-14.5 -1 -21.5 -4 q-14 -5 -20.5 -16.5 q-6.5 -11.5 -6.5 -32.5 l0 -545 l253 0 l0 545 q0 41 -26 49 q-8 4 -24.5 5 q-16.5 1 -27.5 2 l0 40 l288 0 l0 -40 q-16 -2 -30.5 -3 q-14.5 -1 -21.5 -4 q-14 -5 -20 -16.5 q-6 -11.5 -6 -32.5 l0 -545 l253 0 l0 545 q0 21 -6 32.5 q-6 11.5 -20 16.5 q-7 3 -22 4 q-15 1 -30 3 l0 40 l287 0 l0 -40 q-10 -1 -26.5 -2 q-16.5 -1 -24.5 -5 q-26 -8 -26 -49 l0 -501 q0 -21 6 -32.5 q6 -11.5 20 -16.5 q7 -3 21.5 -4 q14.5 -1 29.5 -3 l0 -40 l-1056 0 l0 40 Z" /><glyph glyph-name="uni0429" unicode="&#x429;" d="M48 40 q15 2 29.5 3 q14.5 1 21.5 4 q14 5 20 16.5 q6 11.5 6 32.5 l0 501 q0 41 -26 49 q-8 4 -24.5 5 q-16.5 1 -26.5 2 l0 40 l287 0 l0 -40 q-15 -2 -29.5 -3 q-14.5 -1 -21.5 -4 q-14 -5 -20.5 -16.5 q-6.5 -11.5 -6.5 -32.5 l0 -545 l253 0 l0 545 q0 41 -26 49 q-8 4 -24.5 5 q-16.5 1 -27.5 2 l0 40 l288 0 l0 -40 q-16 -2 -30.5 -3 q-14.5 -1 -21.5 -4 q-14 -5 -20 -16.5 q-6 -11.5 -6 -32.5 l0 -545 l253 0 l0 545 q0 21 -6 32.5 q-6 11.5 -20 16.5 q-7 3 -22 4 q-15 1 -30 3 l0 40 l287 0 l0 -40 q-10 -1 -26.5 -2 q-16.5 -1 -24.5 -5 q-26 -8 -26 -49 l0 -545 l99 0 l0 -202 l-36 0 q-8 40 -19.5 68.5 q-11.5 28.5 -30 46.5 q-18.5 18 -46 26.5 q-27.5 8.5 -69.5 8.5 l-877 0 l0 40 Z" /><glyph glyph-name="uni042A" unicode="&#x42a;" d="M381 411 l116 0 q49 0 91.5 -12.5 q42.5 -12.5 73.5 -37 q31 -24.5 49 -60.5 q18 -36 18 -83 q0 -49 -19 -89 q-19 -40 -52 -68.5 q-33 -28.5 -78 -44.5 q-45 -16 -96 -16 l-313 0 l0 40 q11 1 27.5 2.5 q16.5 1.5 24.5 4.5 q26 10 26 49 l0 548 l-31 0 q-34 0 -59 -7 q-25 -7 -43 -23 q-18 -16 -31 -41 q-13 -25 -22 -61 l-36 0 l0 181 l432 0 l0 -40 q-11 -1 -27.5 -2.5 q-16.5 -1.5 -24.5 -4.5 q-26 -10 -26 -49 l0 -186 ZM381 359 l0 -308 l67 0 q36 0 62 11.5 q26 11.5 43 32.5 q17 21 25.5 50 q8.5 29 8.5 63 q0 33 -8 60.5 q-8 27.5 -24 47.5 q-16 20 -38.5 31.5 q-22.5 11.5 -52.5 11.5 l-83 0 Z" /><glyph glyph-name="uni042C" unicode="&#x42c;" d="M257 411 l117 0 q49 0 91 -12.5 q42 -12.5 73 -37 q31 -24.5 49 -60.5 q18 -36 18 -83 q0 -49 -19 -89 q-19 -40 -52 -68.5 q-33 -28.5 -77.5 -44.5 q-44.5 -16 -95.5 -16 l-313 0 l0 40 q10 1 26.5 2.5 q16.5 1.5 24.5 4.5 q26 10 26 49 l0 501 q0 40 -26 49 q-7 3 -21.5 4 q-14.5 1 -29.5 3 l0 40 l287 0 l0 -40 q-11 -1 -27 -2.5 q-16 -1.5 -24 -4.5 q-27 -10 -27 -49 l0 -186 ZM257 359 l0 -308 l67 0 q36 0 62 11.5 q26 11.5 43.5 32.5 q17.5 21 25.5 50 q8 29 8 63 q0 33 -8 60.5 q-8 27.5 -23.5 47.5 q-15.5 20 -38.5 31.5 q-23 11.5 -53 11.5 l-83 0 Z" /><glyph glyph-name="uni042D" unicode="&#x42d;" d="M277 34 q59 0 98.5 23.5 q39.5 23.5 64 64 q24.5 40.5 35 95 q10.5 54.5 11.5 116.5 l-289 0 l0 50 l288 0 q-3 62 -15 113 q-12 51 -36 87.5 q-24 36.5 -61.5 56.5 q-37.5 20 -91.5 20 q-40 0 -71 -14.5 q-31 -14.5 -53.5 -39 q-22.5 -24.5 -38 -56.5 q-15.5 -32 -24.5 -68 l-36 0 l0 156 q42 34 100 52.5 q58 18.5 124 18.5 q78 0 142.5 -26 q64.5 -26 110.5 -73.5 q46 -47.5 71.5 -112.5 q25.5 -65 25.5 -143 q0 -82 -27 -150 q-27 -68 -75 -116.5 q-48 -48.5 -114 -75.5 q-66 -27 -144 -27 q-59 0 -113 14 q-54 14 -101 40 l0 177 l36 0 q10 -39 25 -72.5 q15 -33.5 37 -58 q22 -24.5 52 -38 q30 -13.5 69 -13.5 Z" /><glyph glyph-name="uni042E" unicode="&#x42e;" d="M1069 352 q0 -78 -26.5 -145 q-26.5 -67 -73 -116.5 q-46.5 -49.5 -110.5 -77.5 q-64 -28 -139 -28 q-71 0 -131.5 25 q-60.5 25 -105.5 71 q-45 46 -70.5 110.5 q-25.5 64.5 -26.5 144.5 l-129 0 l0 -240 q0 -21 6.5 -32.5 q6.5 -11.5 20.5 -16.5 q7 -3 21.5 -4 q14.5 -1 29.5 -3 l0 -40 l-287 0 l0 40 q10 1 26.5 2 q16.5 1 24.5 5 q26 8 26 49 l0 501 q0 21 -6 32.5 q-6 11.5 -20 16.5 q-7 3 -21.5 4 q-14.5 1 -29.5 3 l0 40 l287 0 l0 -40 q-11 -1 -27.5 -2 q-16.5 -1 -24.5 -5 q-26 -9 -26 -49 l0 -211 l131 0 q7 73 36.5 132.5 q29.5 59.5 75 102 q45.5 42.5 105 65.5 q59.5 23 126.5 23 q73 0 135 -27 q62 -27 107 -74.5 q45 -47.5 70.5 -113 q25.5 -65.5 25.5 -142.5 ZM923 347 q0 65 -10 122 q-10 57 -33 99.5 q-23 42.5 -61 67 q-38 24.5 -93 24.5 q-56 0 -93.5 -25 q-37.5 -25 -60 -68 q-22.5 -43 -31.5 -99.5 q-9 -56.5 -9 -119.5 q0 -71 10 -128.5 q10 -57.5 33 -98 q23 -40.5 59 -63 q36 -22.5 89 -22.5 q59 0 98 27 q39 27 61.5 70.5 q22.5 43.5 31.5 99.5 q9 56 9 114 Z" /><glyph glyph-name="uni042F" unicode="&#x42f;" d="M444 289 l-94 0 l-176 -289 l-176 0 l1 40 q37 5 59 23.5 q22 18.5 45 53.5 l125 197 q-62 17 -100.5 62 q-38.5 45 -38.5 112 q0 45 17.5 83 q17.5 38 49 65 q31.5 27 76 42 q44.5 15 98.5 15 l324 0 l0 -40 q-11 -1 -27 -2.5 q-16 -1.5 -24 -4.5 q-27 -10 -27 -49 l0 -501 q0 -40 26 -49 q7 -3 22 -4 q15 -1 30 -3 l0 -40 l-287 0 l0 40 q11 1 27 2.5 q16 1.5 24 4.5 q26 10 26 49 l0 193 ZM232 492 q0 -66 33.5 -108.5 q33.5 -42.5 107.5 -42.5 l71 0 l0 301 l-63 0 q-76 0 -112.5 -42.5 q-36.5 -42.5 -36.5 -107.5 Z" /><glyph glyph-name="uni0431" unicode="&#x431;" d="M206 640 q-11 -41 -19.5 -100.5 q-8.5 -59.5 -12.5 -122.5 q26 38 64 58 q38 20 92 20 q50 0 91.5 -16.5 q41.5 -16.5 71.5 -46.5 q30 -30 46.5 -72.5 q16.5 -42.5 16.5 -94.5 q0 -56 -18 -107 q-18 -51 -52 -89.5 q-34 -38.5 -83 -61 q-49 -22.5 -111 -22.5 q-109 0 -170.5 67 q-61.5 67 -61.5 217 q0 112 16 194.5 q16 82.5 50.5 138.5 q34.5 56 90 85.5 q55.5 29.5 135.5 35.5 l36 2 q36 3 59.5 4.5 q23.5 1.5 38.5 5 q15 3.5 24 9.5 q9 6 16 17 l20 -6 q-5 -40 -26 -66.5 q-21 -26.5 -51 -43 q-30 -16.5 -66.5 -23.5 q-36.5 -7 -73.5 -8 q-42 -2 -73 7.5 q-31 9.5 -50 18.5 ZM426 230 q0 46 -7 84.5 q-7 38.5 -22 65.5 q-15 27 -39.5 42 q-24.5 15 -58.5 15 q-32 0 -53 -13 q-21 -13 -34 -36.5 q-13 -23.5 -18 -56 q-5 -32.5 -5 -72.5 q0 -46 6.5 -85.5 q6.5 -39.5 21.5 -68.5 q15 -29 39 -45.5 q24 -16.5 59 -16.5 q58 0 84.5 48 q26.5 48 26.5 139 Z" /><glyph glyph-name="uni0432" unicode="&#x432;" d="M101 393 q0 40 -26 50 q-8 3 -19 4 q-11 1 -22 2 l0 37 l280 0 q88 0 134 -32 q46 -32 46 -89 q0 -48 -33.5 -78.5 q-33.5 -30.5 -89.5 -38.5 q61 -5 99.5 -31 q38.5 -26 38.5 -79 q0 -68 -49 -103 q-49 -35 -144 -35 l-282 0 l0 37 q11 1 22 2 q11 1 19 5 q26 8 26 49 l0 300 ZM220 224 l0 -178 l53 0 q53 0 80.5 21 q27.5 21 27.5 70 q0 40 -26 63.5 q-26 23.5 -80 23.5 l-55 0 ZM220 441 l0 -172 l43 0 q103 0 103 87 q0 47 -26 66 q-26 19 -80 19 l-40 0 Z" /><glyph glyph-name="uni0433" unicode="&#x433;" d="M220 439 l0 -346 q0 -21 6 -32.5 q6 -11.5 20 -16.5 q7 -3 16 -4 q9 -1 25 -3 l0 -37 l-253 0 l0 37 q11 1 22 2 q11 1 19 5 q26 8 26 49 l0 300 q0 40 -26 50 q-8 3 -19 4 q-11 1 -22 2 l0 37 l404 0 l0 -172 l-32 0 q-9 34 -19.5 58 q-10.5 24 -25.5 39 q-15 15 -37 21.5 q-22 6.5 -54 6.5 l-50 0 Z" /><glyph glyph-name="uni0434" unicode="&#x434;" d="M554 486 l0 -37 q-15 -1 -24.5 -2.5 q-9.5 -1.5 -16.5 -3.5 q-14 -5 -20 -16.5 q-6 -11.5 -6 -33.5 l0 -345 l86 0 l0 -194 l-36 0 q-8 36 -18 63.5 q-10 27.5 -26 45.5 q-16 18 -40.5 27.5 q-24.5 9.5 -61.5 9.5 l-195 0 q-39 0 -64.5 -9 q-25.5 -9 -42 -27 q-16.5 -18 -26.5 -45.5 q-10 -27.5 -17 -64.5 l-36 0 l0 194 l30 0 q28 6 49.5 33 q21.5 27 36.5 72 q15 45 23.5 105.5 q8.5 60.5 11.5 132.5 q2 35 -14.5 45 q-16.5 10 -51.5 12 l0 38 l459 0 ZM219 438 q-4 -83 -11 -147 q-7 -64 -17.5 -111 q-10.5 -47 -25 -79.5 q-14.5 -32.5 -33.5 -52.5 l236 0 l0 390 l-149 0 Z" /><glyph glyph-name="uni0436" unicode="&#x436;" d="M361 393 q0 20 -5 31.5 q-5 11.5 -18 16.5 q-8 4 -19.5 5.5 q-11.5 1.5 -22.5 2.5 l0 37 l239 0 l0 -37 q-32 -3 -44 -13.5 q-12 -10.5 -12 -42.5 l0 -300 q0 -31 13.5 -42 q13.5 -11 44.5 -14 l0 -37 l-234 0 l0 37 q34 2 46 13.5 q12 11.5 12 42.5 l0 300 ZM494 253 l113 100 q20 17 28 31.5 q8 14.5 8 28.5 q0 16 -11 27.5 q-11 11.5 -35 14.5 l0 31 l222 0 l0 -31 q-28 -5 -53 -22.5 q-25 -17.5 -54 -42.5 l-114 -102 l120 -158 q15 -20 27 -34 q12 -14 23.5 -25 q11.5 -11 25 -19 q13.5 -8 31.5 -16 l-2 -36 l-151 0 l-178 237 l0 16 ZM345 237 l-180 -237 l-150 0 l0 36 q18 8 32 16 q14 8 26.5 19 q12.5 11 24.5 25 q12 14 27 34 l118 156 l-115 104 q-29 25 -54 42.5 q-25 17.5 -54 22.5 l0 31 l223 0 l0 -31 q-25 -3 -36 -14.5 q-11 -11.5 -11 -27.5 q0 -14 8.5 -28.5 q8.5 -14.5 28.5 -32.5 l113 -99 l-1 -16 Z" /><glyph glyph-name="uni0437" unicode="&#x437;" d="M216 -15 q-96 0 -169 37 l-5 131 l35 4 q25 -57 55 -88 q30 -31 80 -31 q51 0 81.5 25 q30.5 25 30.5 74 q0 40 -26 63.5 q-26 23.5 -80 23.5 l-69 0 l0 47 l60 0 q46 0 70.5 21 q24.5 21 24.5 65 q0 47 -21.5 70 q-21.5 23 -71.5 23 q-25 0 -43.5 -7.5 q-18.5 -7.5 -32.5 -22.5 q-14 -15 -25.5 -37 q-11.5 -22 -21.5 -52 l-34 4 l6 128 q35 18 78.5 28 q43.5 10 88.5 10 q42 0 79 -7 q37 -7 65 -22.5 q28 -15.5 44 -41.5 q16 -26 16 -64 q0 -48 -34 -78.5 q-34 -30.5 -87 -38.5 q31 -2 57 -10 q26 -8 44.5 -21.5 q18.5 -13.5 29 -33 q10.5 -19.5 10.5 -46.5 q0 -36 -17.5 -64.5 q-17.5 -28.5 -48.5 -48 q-31 -19.5 -74.5 -30 q-43.5 -10.5 -94.5 -10.5 Z" /><glyph glyph-name="uni0438" unicode="&#x438;" d="M433 370 l-229 -370 l-170 0 l0 37 q11 1 22 2 q11 1 19 5 q26 8 26 49 l0 300 q0 40 -26 50 q-8 3 -19 4 q-11 1 -22 2 l0 37 l253 0 l0 -37 q-16 -1 -25 -2.5 q-9 -1.5 -16 -4.5 q-14 -5 -20 -16 q-6 -11 -6 -33 l0 -282 l229 375 l170 0 l0 -37 q-15 -1 -24.5 -2.5 q-9.5 -1.5 -16.5 -3.5 q-14 -5 -20 -16.5 q-6 -11.5 -6 -33.5 l0 -300 q0 -40 26 -49 q7 -3 16.5 -4 q9.5 -1 24.5 -3 l0 -37 l-253 0 l0 37 q11 1 22 2.5 q11 1.5 19 4.5 q14 5 20 16.5 q6 11.5 6 32.5 l0 277 Z" /><glyph glyph-name="uni043A" unicode="&#x43a;" d="M101 393 q0 40 -26 50 q-8 3 -19 4 q-11 1 -22 2 l0 37 l242 0 l0 -37 q-32 -3 -44 -13.5 q-12 -10.5 -12 -42.5 l0 -300 q0 -21 6 -32.5 q6 -11.5 20 -16.5 q7 -3 16 -4 q9 -1 25 -3 l0 -37 l-253 0 l0 37 q11 1 22 2 q11 1 19 5 q26 8 26 49 l0 300 ZM235 248 l121 112 q28 26 28 51 q0 37 -46 44 l0 31 l223 0 l0 -31 q-29 -5 -54.5 -22 q-25.5 -17 -53.5 -43 l-114 -104 l127 -157 q14 -18 25 -31 q11 -13 22.5 -23.5 q11.5 -10.5 25 -19 q13.5 -8.5 32.5 -17.5 l-3 -38 l-150 0 l-183 233 l0 15 Z" /><glyph glyph-name="uni043B" unicode="&#x43b;" d="M366 438 l-147 0 q-2 -118 -11 -202.5 q-9 -84.5 -27 -139 q-18 -54.5 -46.5 -80.5 q-28.5 -26 -70.5 -26 q-30 0 -44 16 q-14 16 -14 36 q0 29 14.5 44.5 q14.5 15.5 43.5 24.5 q28 8 47 25 q19 17 31 49.5 q12 32.5 18 82 q6 49.5 7 123.5 q0 35 -17 45 q-17 10 -52 12 l0 38 l454 0 l0 -37 q-15 -1 -24.5 -2.5 q-9.5 -1.5 -16.5 -3.5 q-14 -5 -20 -16.5 q-6 -11.5 -6 -33.5 l0 -300 q0 -40 26 -49 q7 -3 16.5 -4 q9.5 -1 24.5 -3 l0 -37 l-252 0 l0 37 q10 1 21 2.5 q11 1.5 19 4.5 q14 5 20 16.5 q6 11.5 6 32.5 l0 345 Z" /><glyph glyph-name="uni043C" unicode="&#x43c;" d="M386 184 l160 302 l182 0 l0 -37 q-15 -1 -24.5 -2.5 q-9.5 -1.5 -16.5 -3.5 q-13 -5 -19 -16.5 q-6 -11.5 -6 -33.5 l0 -300 q0 -40 25 -49 q7 -3 16.5 -4 q9.5 -1 24.5 -3 l0 -37 l-252 0 l0 37 q10 1 21 2.5 q11 1.5 19 4.5 q14 5 20.5 16.5 q6.5 11.5 6.5 32.5 l0 277 l-175 -332 l-35 0 l-175 327 l1 -268 q0 -41 26 -51 q8 -4 20.5 -5.5 q12.5 -1.5 23.5 -3.5 l0 -37 l-197 0 l0 37 q30 3 43 8 q14 5 21 17 q7 12 7 35 l0 288 q0 22 -6 34 q-6 12 -18 19 q-14 8 -46 11 l0 37 l192 0 l161 -302 Z" /><glyph glyph-name="uni043D" unicode="&#x43d;" d="M426 222 l-206 0 l0 -129 q0 -21 6 -32.5 q6 -11.5 20 -16.5 q7 -3 16 -4 q9 -1 25 -3 l0 -37 l-253 0 l0 37 q11 1 22 2 q11 1 19 5 q26 8 26 49 l0 300 q0 40 -26 50 q-8 3 -19 4 q-11 1 -22 2 l0 37 l253 0 l0 -37 q-16 -1 -25 -2.5 q-9 -1.5 -16 -4.5 q-14 -5 -20 -16 q-6 -11 -6 -33 l0 -123 l206 0 l0 123 q0 41 -26 49 q-8 4 -19 5 q-11 1 -22 2 l0 37 l253 0 l0 -37 q-15 -1 -24.5 -2.5 q-9.5 -1.5 -16.5 -3.5 q-14 -5 -20 -16.5 q-6 -11.5 -6 -33.5 l0 -300 q0 -40 26 -49 q7 -3 16.5 -4 q9.5 -1 24.5 -3 l0 -37 l-253 0 l0 37 q11 1 22 2.5 q11 1.5 19 4.5 q14 5 20 16.5 q6 11.5 6 32.5 l0 129 Z" /><glyph glyph-name="uni043F" unicode="&#x43f;" d="M416 438 l-196 0 l0 -345 q0 -21 6 -32.5 q6 -11.5 20 -16.5 q7 -3 16 -4 q9 -1 25 -3 l0 -37 l-253 0 l0 37 q11 1 22 2 q11 1 19 5 q26 8 26 49 l0 300 q0 40 -26 50 q-8 3 -19 4 q-11 1 -22 2 l0 37 l568 0 l0 -37 q-15 -1 -24.5 -2.5 q-9.5 -1.5 -16.5 -3.5 q-14 -5 -20 -16.5 q-6 -11.5 -6 -33.5 l0 -300 q0 -40 26 -49 q7 -3 16.5 -4 q9.5 -1 24.5 -3 l0 -37 l-253 0 l0 37 q11 1 22 2.5 q11 1.5 19 4.5 q14 5 20 16.5 q6 11.5 6 32.5 l0 345 Z" /><glyph glyph-name="uni0442" unicode="&#x442;" d="M212 439 l-12 0 q-32 0 -54 -6.5 q-22 -6.5 -37 -21.5 q-15 -15 -25.5 -39 q-10.5 -24 -19.5 -58 l-33 0 l0 172 l480 0 l0 -172 l-33 0 q-9 34 -19.5 58 q-10.5 24 -25.5 39 q-15 15 -37 21.5 q-22 6.5 -54 6.5 l-11 0 l0 -346 q0 -21 6 -32.5 q6 -11.5 20 -16.5 q7 -3 16 -4 q9 -1 24 -3 l0 -37 l-252 0 l0 37 q10 1 21.5 2 q11.5 1 19.5 5 q26 9 26 49 l0 346 Z" /><glyph glyph-name="uni0444" unicode="&#x444;" d="M341 -17 q-57 1 -110.5 12.5 q-53.5 11.5 -95.5 39.5 q-42 28 -67.5 75.5 q-25.5 47.5 -25.5 120.5 q0 74 25 125.5 q25 51.5 67 83.5 q42 32 96 47.5 q54 15.5 111 17.5 l0 148 q0 23 -6.5 32 q-6.5 9 -29.5 10 q-8 0 -20.5 -0.5 q-12.5 -0.5 -20.5 -1.5 l0 35 q12 4 30 9 q18 5 37.5 9.5 q19.5 4.5 38.5 7 q19 2.5 34 2.5 q33 0 44.5 -14.5 q11.5 -14.5 11.5 -46.5 l0 -190 q56 -1 110 -12.5 q54 -11.5 96 -40 q42 -28.5 68 -76 q26 -47.5 26 -119.5 q0 -74 -25.5 -125.5 q-25.5 -51.5 -67.5 -84 q-42 -32.5 -96 -47.5 q-54 -15 -111 -17 l0 -135 q0 -21 6 -32.5 q6 -11.5 20 -16.5 q7 -3 16.5 -4 q9.5 -1 24.5 -3 l0 -37 l-253 0 l0 37 q11 1 22 2 q11 1 19 4 q26 10 26 50 l0 135 ZM632 234 q0 57 -12.5 98.5 q-12.5 41.5 -35 68.5 q-22.5 27 -54 40 q-31.5 13 -70.5 14 l0 -425 q36 2 67 13 q31 11 54.5 34.5 q23.5 23.5 37 61.5 q13.5 38 13.5 95 ZM169 254 q0 -57 12.5 -98.5 q12.5 -41.5 35 -68 q22.5 -26.5 54.5 -40 q32 -13.5 70 -14.5 l0 425 q-36 -2 -67 -13 q-31 -11 -54.5 -34.5 q-23.5 -23.5 -37 -61.5 q-13.5 -38 -13.5 -95 Z" /><glyph glyph-name="uni0446" unicode="&#x446;" d="M101 393 q0 40 -26 50 q-8 3 -19 4 q-11 1 -22 2 l0 37 l253 0 l0 -37 q-16 -1 -25 -2.5 q-9 -1.5 -16 -4.5 q-14 -5 -20 -16 q-6 -11 -6 -33 l0 -345 l196 0 l0 345 q1 40 -26 49 q-8 4 -19 5 q-11 1 -22 2 l0 37 l253 0 l0 -37 q-15 -1 -24.5 -2.5 q-9.5 -1.5 -16.5 -3.5 q-14 -5 -20 -16.5 q-6 -11.5 -6 -33.5 l0 -345 l86 0 l0 -194 l-37 0 q-8 36 -17 63 q-9 27 -25 45 q-16 18 -40 27.5 q-24 9.5 -60 10.5 l-408 0 l0 37 q11 1 22 2 q11 1 19 5 q26 8 26 49 l0 300 Z" /><glyph glyph-name="uni0447" unicode="&#x447;" d="M403 245 q-14 -12 -31.5 -25 q-17.5 -13 -39 -24 q-21.5 -11 -48 -18 q-26.5 -7 -57.5 -7 q-30 0 -56 8.5 q-26 8.5 -45.5 27.5 q-19.5 19 -30.5 50 q-11 31 -11 75 l0 61 q0 40 -26 49 q-8 4 -19 5 q-11 1 -22 2 l0 37 l253 0 l0 -37 q-16 -1 -25 -2.5 q-9 -1.5 -16 -3.5 q-14 -5 -20 -16.5 q-6 -11.5 -6 -33.5 l0 -31 q0 -54 19.5 -84 q19.5 -30 75.5 -30 q38 0 67 6 q29 6 38 9 l0 130 q0 40 -26 49 q-8 4 -19 5 q-11 1 -22 2 l0 37 l253 0 l0 -37 q-16 -1 -25 -2.5 q-9 -1.5 -16 -3.5 q-14 -5 -20 -16.5 q-6 -11.5 -6 -33.5 l0 -300 q0 -40 26 -49 q7 -3 16 -4 q9 -1 25 -3 l0 -37 l-253 0 l0 37 q11 1 22 2.5 q11 1.5 19 4.5 q14 5 20 16.5 q6 11.5 6 32.5 l0 152 Z" /><glyph glyph-name="uni0448" unicode="&#x448;" d="M810 93 q0 -40 26 -49 q8 -4 19 -5 q11 -1 22 -2 l0 -37 l-843 0 l0 37 q11 1 22 2 q11 1 19 5 q26 8 26 49 l0 300 q0 40 -26 50 q-8 3 -19 4 q-11 1 -22 2 l0 37 l251 0 l0 -37 q-16 -1 -25.5 -3 q-9.5 -2 -16.5 -5 q-23 -10 -23 -48 l0 -345 l176 0 l0 345 q0 20 -5 31.5 q-5 11.5 -19 16.5 q-8 4 -19 5.5 q-11 1.5 -22 2.5 l0 37 l249 0 l0 -37 q-30 -1 -42 -9 q-12 -5 -17.5 -16 q-5.5 -11 -5.5 -31 l0 -345 l176 0 l0 345 q0 38 -23 48 q-7 3 -16.5 5 q-9.5 2 -25.5 3 l0 37 l251 0 l0 -37 q-11 -1 -23 -2.5 q-12 -1.5 -20 -5.5 q-24 -10 -24 -48 l0 -300 Z" /><glyph glyph-name="uni0449" unicode="&#x449;" d="M34 0 l0 37 q11 1 22 2 q11 1 19 5 q26 8 26 49 l0 300 q0 40 -26 50 q-8 3 -19 4 q-11 1 -22 2 l0 37 l251 0 l0 -37 q-16 -1 -25.5 -3 q-9.5 -2 -16.5 -5 q-23 -10 -23 -48 l0 -345 l176 0 l0 345 q0 20 -5 31.5 q-5 11.5 -19 16.5 q-8 4 -19 5.5 q-11 1.5 -22 2.5 l0 37 l249 0 l0 -37 q-30 -1 -42 -9 q-12 -5 -17.5 -16 q-5.5 -11 -5.5 -31 l0 -345 l176 0 l0 345 q0 38 -23 48 q-7 3 -16.5 5 q-9.5 2 -25.5 3 l0 37 l251 0 l0 -37 q-11 -1 -23 -2.5 q-12 -1.5 -20 -5.5 q-24 -10 -24 -48 l0 -345 l86 0 l0 -194 l-36 0 q-8 37 -17.5 64.5 q-9.5 27.5 -26 45.5 q-16.5 18 -42 27 q-25.5 9 -64.5 9 l-676 0 Z" /><glyph glyph-name="uni044A" unicode="&#x44a;" d="M218 439 l-18 0 q-32 0 -54 -6.5 q-22 -6.5 -37.5 -21.5 q-15.5 -15 -26 -39 q-10.5 -24 -19.5 -58 l-32 0 l0 172 l372 0 l0 -37 q-15 -1 -24 -2.5 q-9 -1.5 -16 -4.5 q-14 -5 -20 -16 q-6 -11 -6 -33 l0 -95 l98 0 q94 0 148.5 -34 q54.5 -34 54.5 -104 q0 -79 -56.5 -119.5 q-56.5 -40.5 -164.5 -40.5 l-266 0 l0 37 q11 1 22 2 q11 1 19 5 q26 9 26 49 l0 346 ZM337 250 l0 -202 l54 0 q57 0 85 24 q28 24 28 78 q0 54 -27 77 q-27 23 -84 23 l-56 0 Z" /><glyph glyph-name="uni044B" unicode="&#x44b;" d="M101 393 q0 40 -26 50 q-8 3 -19 4 q-11 1 -22 2 l0 37 l253 0 l0 -37 q-16 -1 -25 -2.5 q-9 -1.5 -16 -4.5 q-14 -5 -20 -16 q-6 -11 -6 -33 l0 -95 l92 0 q94 0 148.5 -34 q54.5 -34 54.5 -104 q0 -79 -56.5 -119.5 q-56.5 -40.5 -164.5 -40.5 l-260 0 l0 37 q11 1 22 2 q11 1 19 5 q26 8 26 49 l0 300 ZM585 393 q0 41 -26 49 q-8 4 -19 5 q-11 1 -22 2 l0 37 l253 0 l0 -37 q-15 -1 -24.5 -2.5 q-9.5 -1.5 -16.5 -3.5 q-14 -5 -20 -16.5 q-6 -11.5 -6 -33.5 l0 -300 q0 -40 26 -49 q7 -3 16.5 -4 q9.5 -1 24.5 -3 l0 -37 l-253 0 l0 37 q11 1 22 2.5 q11 1.5 19 4.5 q14 5 20 16.5 q6 11.5 6 32.5 l0 300 ZM220 250 l0 -202 l48 0 q57 0 85 24 q28 24 28 78 q0 54 -27 77 q-27 23 -84 23 l-50 0 Z" /><glyph glyph-name="uni044C" unicode="&#x44c;" d="M101 393 q0 40 -26 50 q-8 3 -19 4 q-11 1 -22 2 l0 37 l253 0 l0 -37 q-16 -1 -25 -2.5 q-9 -1.5 -16 -4.5 q-14 -5 -20 -16 q-6 -11 -6 -33 l0 -95 l99 0 q93 0 148 -34 q55 -34 55 -104 q0 -79 -56.5 -119.5 q-56.5 -40.5 -165.5 -40.5 l-266 0 l0 37 q11 1 22 2 q11 1 19 5 q26 8 26 49 l0 300 ZM220 250 l0 -202 l54 0 q57 0 85 24 q28 24 28 78 q0 54 -27 77 q-27 23 -84 23 l-56 0 Z" /><glyph glyph-name="uni044D" unicode="&#x44d;" d="M210 450 q-50 0 -79.5 -29.5 q-29.5 -29.5 -49.5 -89.5 l-35 4 l7 128 q36 20 81.5 29 q45.5 9 90.5 9 q57 0 102 -16.5 q45 -16.5 76.5 -48 q31.5 -31.5 48 -76 q16.5 -44.5 16.5 -100.5 q0 -62 -20 -113 q-20 -51 -55.5 -87 q-35.5 -36 -84 -55.5 q-48.5 -19.5 -104.5 -19.5 q-38 0 -77.5 9 q-39.5 9 -75.5 28 l-5 131 l34 4 q25 -57 57 -87.5 q32 -30.5 78 -30.5 q34 0 57.5 14 q23.5 14 38 38.5 q14.5 24.5 21.5 58 q7 33.5 7 73.5 l-197 0 l0 47 l195 0 q-3 39 -11 72 q-8 33 -23 57 q-15 24 -38 37.5 q-23 13.5 -55 13.5 Z" /><glyph glyph-name="uni044E" unicode="&#x44e;" d="M805 262 q0 -55 -18 -105 q-18 -50 -51.5 -88.5 q-33.5 -38.5 -81.5 -61 q-48 -22.5 -108 -22.5 q-50 0 -92 16 q-42 16 -72.5 46.5 q-30.5 30.5 -48 74.5 q-17.5 44 -18.5 100 l-95 0 l0 -129 q0 -21 6 -32.5 q6 -11.5 20 -16.5 q7 -3 16 -4 q9 -1 25 -3 l0 -37 l-253 0 l0 37 q11 1 22 2 q11 1 19 5 q26 8 26 49 l0 300 q0 40 -26 50 q-8 3 -19 4 q-11 1 -22 2 l0 37 l253 0 l0 -37 q-16 -1 -25 -2.5 q-9 -1.5 -16 -4.5 q-14 -5 -20 -16 q-6 -11 -6 -33 l0 -123 l98 0 q7 53 29.5 95.5 q22.5 42.5 56.5 72.5 q34 30 78 46.5 q44 16.5 94 16.5 q52 0 94 -17 q42 -17 72 -48.5 q30 -31.5 46.5 -75.5 q16.5 -44 16.5 -98 ZM676 233 q0 47 -6.5 85.5 q-6.5 38.5 -21.5 66.5 q-15 28 -38.5 43 q-23.5 15 -57.5 15 q-32 0 -52.5 -13 q-20.5 -13 -32.5 -37 q-12 -24 -17 -57.5 q-5 -33.5 -5 -73.5 q0 -47 6 -87 q6 -40 20.5 -69 q14.5 -29 37.5 -46 q23 -17 58 -17 q58 0 83.5 49 q25.5 49 25.5 141 Z" /><glyph glyph-name="uni044F" unicode="&#x44f;" d="M16 0 l0 32 q15 10 26.5 18 q11.5 8 22 18 q10.5 10 21 22 q10.5 12 24.5 29 q23 29 48.5 54.5 q25.5 25.5 42.5 42.5 q-29 4 -54.5 13.5 q-25.5 9.5 -44 25.5 q-18.5 16 -29 38.5 q-10.5 22.5 -10.5 53.5 q0 66 55.5 102.5 q55.5 36.5 159.5 36.5 l261 0 l0 -37 q-11 -1 -22 -2 q-11 -1 -19 -4 q-26 -10 -26 -50 l0 -300 q0 -40 26 -49 q8 -4 19 -5 q11 -1 22 -2 l0 -37 l-252 0 l0 37 q15 2 24 3 q9 1 16 4 q14 5 20 16.5 q6 11.5 6 32.5 l0 347 l-44 0 q-56 0 -85 -25 q-29 -25 -29 -68 q0 -53 28.5 -75 q28.5 -22 87.5 -22 l26 0 l0 -11 l-192 -239 l-129 0 Z" /><glyph glyph-name="acute" unicode="´" d="M344 737 l-165 -162 l-32 0 l-4 10 l85 163 l112 0 l4 -11 Z" /><glyph glyph-name="grave" unicode="`" d="M129 748 l112 0 l88 -163 l-4 -10 l-34 0 l-166 162 l4 11 Z" /><glyph glyph-name="circumflex" unicode="&#x2c6;" d="M403 579 l-4 -11 l-46 0 l-95 94 l-93 -94 l-35 0 l-4 11 l112 161 l52 0 l113 -161 Z" /><glyph glyph-name="dieresis" unicode="¨" d="M82 673 q0 32 19 46.5 q19 14.5 44 14.5 q25 0 44 -14.5 q19 -14.5 19 -46.5 q0 -32 -19 -46.5 q-19 -14.5 -44 -14.5 q-25 0 -44 14.5 q-19 14.5 -19 46.5 ZM266 673 q0 32 19.5 46.5 q19.5 14.5 44.5 14.5 q25 0 44 -14.5 q19 -14.5 19 -46.5 q0 -32 -19 -46.5 q-19 -14.5 -44 -14.5 q-25 0 -44.5 14.5 q-19.5 14.5 -19.5 46.5 Z" /><glyph glyph-name="tilde" unicode="&#x2dc;" d="M383 720 q-1 -50 -24.5 -84 q-23.5 -34 -71.5 -34 q-23 0 -42 6.5 q-19 6.5 -35 15 q-16 8.5 -29.5 15 q-13.5 6.5 -24.5 6.5 q-32 0 -41 -47 l-37 0 q0 23 6 44.5 q6 21.5 17 38 q11 16.5 28 26 q17 9.5 39 9.5 q19 0 36.5 -6.5 q17.5 -6.5 33.5 -15 q16 -8.5 30 -15 q14 -6.5 27 -6.5 q20 0 33 12 q13 12 16 35 l39 0 Z" /><glyph glyph-name="cedilla" unicode="¸" d="M351 -138 q0 -42 -35.5 -65 q-35.5 -23 -90.5 -23 q-20 0 -38.5 2.5 q-18.5 2.5 -36.5 7.5 l0 58 q17 -6 37.5 -10.5 q20.5 -4.5 37.5 -4.5 q20 0 32.5 7 q12.5 7 12.5 22 q0 10 -5.5 16 q-5.5 6 -13.5 9.5 q-8 3.5 -17.5 5 q-9.5 1.5 -18.5 1.5 q-7 0 -11.5 0 q-4.5 0 -9.5 -1 l0 121 l51 0 l0 -66 q20 0 39 -4.5 q19 -4.5 34 -14.5 q15 -10 24 -25 q9 -15 9 -36 Z" /><glyph glyph-name="trademark" unicode="&#x2122;" d="M963 759 l0 -34 q-6 -1 -16.5 -2 q-10.5 -1 -15.5 -3 q-15 -6 -16 -30 l0 -214 q0 -23 16 -30 q4 -2 13.5 -3 q9.5 -1 18.5 -2 l0 -34 l-177 0 l0 34 q6 1 17 1.5 q11 0.5 16 3.5 q15 6 15 30 l0 198 l-119 -206 l-23 0 l-119 208 l0 -179 q0 -31 19 -44 q15 -11 40 -14 l0 -32 l-164 0 l0 32 q23 3 37 11 q10 6 16 17.5 q6 11.5 6 29.5 l0 183 q0 28 -16 36 q-4 4 -15 6 q-11 2 -23 3 l0 34 l140 0 l109 -195 l113 195 l128 0 ZM294 720 l0 -244 q0 -25 16 -31 q6 -2 13 -2.5 q7 -0.5 18 -1.5 l0 -34 l-176 0 l0 34 q8 1 16.5 1.5 q8.5 0.5 13.5 2.5 q16 5 16 31 l0 244 l-18 0 q-42 0 -62.5 -16.5 q-20.5 -16.5 -32.5 -61.5 l-29 0 l0 117 l368 0 l0 -117 l-30 0 q-11 45 -32 61.5 q-21 16.5 -63 16.5 l-18 0 Z" /><glyph glyph-name="registered" unicode="®" d="M306 243 q-52 0 -98 17 q-46 17 -80.5 49.5 q-34.5 32.5 -55 80.5 q-20.5 48 -20.5 111 q0 63 20.5 111 q20.5 48 55 80.5 q34.5 32.5 80.5 49.5 q46 17 98 17 q52 0 98 -17 q46 -17 80.5 -49.5 q34.5 -32.5 55 -80.5 q20.5 -48 20.5 -111 q0 -63 -20.5 -111 q-20.5 -48 -55 -80.5 q-34.5 -32.5 -80.5 -49.5 q-46 -17 -98 -17 ZM306 287 q44 0 81.5 14 q37.5 14 64.5 41.5 q27 27.5 42.5 67.5 q15.5 40 15.5 91 q0 51 -15.5 91 q-15.5 40 -42.5 67.5 q-27 27.5 -64.5 41.5 q-37.5 14 -81.5 14 q-44 0 -81.5 -14 q-37.5 -14 -64.5 -41.5 q-27 -27.5 -42.5 -67.5 q-15.5 -40 -15.5 -91 q0 -51 15.5 -91 q15.5 -40 42.5 -67.5 q27 -27.5 64.5 -41.5 q37.5 -14 81.5 -14 ZM214 599 q0 14 -9 17 q-4 2 -8 2 q-4 0 -11 1 l0 21 l140 0 q34 0 58.5 -16.5 q24.5 -16.5 24.5 -51.5 q0 -26 -17.5 -44.5 q-17.5 -18.5 -42.5 -26.5 l52 -66 q11 -14 20.5 -20 q9.5 -6 23.5 -8 l0 -21 l-79 0 l-74 109 l-19 0 l0 -68 q0 -13 7 -16 q7 -2 24 -4 l0 -21 l-118 0 l0 21 l19 3 q9 4 9 17 l0 172 ZM273 612 l0 -90 l23 0 q27 0 38.5 10.5 q11.5 10.5 11.5 36.5 q0 23 -11.5 33 q-11.5 10 -32.5 10 l-29 0 Z" /><glyph glyph-name="copyright" unicode="©" d="M342 -9 q-58 0 -109.5 18.5 q-51.5 18.5 -90.5 55 q-39 36.5 -61.5 90 q-22.5 53.5 -22.5 123.5 q0 70 22.5 123.5 q22.5 53.5 61.5 90 q39 36.5 90.5 55 q51.5 18.5 109.5 18.5 q57 0 108.5 -18.5 q51.5 -18.5 90.5 -55 q39 -36.5 61.5 -90 q22.5 -53.5 22.5 -123.5 q0 -70 -22.5 -123.5 q-22.5 -53.5 -61.5 -90 q-39 -36.5 -90.5 -55 q-51.5 -18.5 -108.5 -18.5 ZM342 32 q52 0 95 15.5 q43 15.5 74 46 q31 30.5 48 76.5 q17 46 17 108 q0 57 -17 103 q-17 46 -48 77.5 q-31 31.5 -74 48.5 q-43 17 -95 17 q-50 0 -93 -15.5 q-43 -15.5 -74.5 -46 q-31.5 -30.5 -50 -77 q-18.5 -46.5 -18.5 -107.5 q0 -62 18.5 -108 q18.5 -46 50.5 -76.5 q32 -30.5 75 -46 q43 -15.5 92 -15.5 ZM456 154 q-25 -20 -57 -31 q-32 -11 -67 -11 q-70 0 -107 42 q-37 42 -37 114 q0 40 12.5 73 q12.5 33 35 56.5 q22.5 23.5 53 36.5 q30.5 13 67.5 13 q49 0 79.5 -17.5 q30.5 -17.5 30.5 -43.5 q0 -19 -11.5 -30 q-11.5 -11 -29.5 -11 q-15 0 -23.5 9 q-8.5 9 -16 19.5 q-7.5 10.5 -19 19.5 q-11.5 9 -32.5 9 q-36 0 -51 -29 q-15 -29 -15 -80 q0 -56 21 -89 q21 -33 76 -33 q37 0 90 17 l1 -34 Z" /><glyph glyph-name="Euro" unicode="&#x20ac;" d="M44 461 l80 0 q15 57 44.5 102.5 q29.5 45.5 71 78 q41.5 32.5 92.5 50 q51 17.5 110 17.5 q34 0 70.5 -6.5 q36.5 -6.5 65.5 -19.5 q29 -13 48 -32.5 q19 -19.5 19 -45.5 q0 -29 -17 -43 q-17 -14 -39 -14 q-26 0 -42 17.5 q-16 17.5 -31.5 38.5 q-15.5 21 -37 38.5 q-21.5 17.5 -58.5 17.5 q-36 0 -63 -15 q-27 -15 -46 -41.5 q-19 -26.5 -31.5 -63 q-12.5 -36.5 -18.5 -79.5 l197 0 l0 -50 l-202 0 q-2 -16 -2 -31.5 q0 -15.5 0 -31.5 q0 -12 0 -23.5 q0 -11.5 1 -22.5 l203 0 l0 -50 l-199 0 q12 -100 52.5 -159 q40.5 -59 116.5 -59 q37 0 57 16 q20 16 34.5 35.5 q14.5 19.5 29.5 36 q15 16.5 43 16.5 q20 0 36 -11.5 q16 -11.5 16 -39.5 q0 -26 -18 -45 q-18 -19 -47 -32 q-29 -13 -65 -19 q-36 -6 -72 -6 q-65 0 -119.5 19 q-54.5 19 -96.5 54.5 q-42 35.5 -70 84.5 q-28 49 -40 109 l-72 0 l0 50 l65 0 q-1 9 -1 18 q0 9 0 19 q0 19 1.5 37 q1.5 18 3.5 35 l-69 0 l0 50 Z" /><glyph glyph-name="dollar" unicode="$" d="M316 827 l0 -119 q40 -1 78 -8.5 q38 -7.5 67.5 -20.5 q29.5 -13 47 -31 q17.5 -18 17.5 -41 q0 -26 -13.5 -41.5 q-13.5 -15.5 -36.5 -15.5 q-27 0 -44.5 14.5 q-17.5 14.5 -33.5 33.5 q-16 19 -34.5 36.5 q-18.5 17.5 -47.5 22.5 l0 -234 l35 -13 q37 -13 71 -30.5 q34 -17.5 60 -42 q26 -24.5 41.5 -57.5 q15.5 -33 15.5 -78 q0 -44 -17 -81 q-17 -37 -46.5 -65 q-29.5 -28 -70.5 -45.5 q-41 -17.5 -89 -22.5 l0 -147 l-55 0 l0 144 q-39 1 -78.5 9 q-39.5 8 -71 21.5 q-31.5 13.5 -51.5 32.5 q-20 19 -20 43 q0 26 18 42.5 q18 16.5 44 16.5 q21 0 38 -15 q17 -15 34 -34 q17 -19 37.5 -37 q20.5 -18 49.5 -25 l0 243 l-36 14 q-32 12 -63 28 q-31 16 -55.5 39.5 q-24.5 23.5 -39.5 55.5 q-15 32 -15 76 q0 38 13.5 73.5 q13.5 35.5 39.5 64 q26 28.5 65.5 47.5 q39.5 19 90.5 25 l0 122 l55 0 ZM425 147 q0 23 -8.5 40.5 q-8.5 17.5 -23.5 31 q-15 13.5 -35 24 q-20 10.5 -42 19.5 l0 -224 q51 7 80 37 q29 30 29 72 ZM160 553 q0 -42 29 -67 q29 -25 72 -43 l0 213 q-46 -8 -73.5 -36 q-27.5 -28 -27.5 -67 Z" /><glyph glyph-name="cent" unicode="¢" d="M321 623 l0 -122 q35 -1 65 -9 q30 -8 52 -20.5 q22 -12.5 34.5 -29.5 q12.5 -17 12.5 -36 q0 -29 -17.5 -46.5 q-17.5 -17.5 -44.5 -17.5 q-18 0 -30 10 q-12 10 -22.5 24.5 q-10.5 14.5 -22 29.5 q-11.5 15 -27.5 25 l0 -355 q29 0 68.5 5.5 q39.5 5.5 79.5 19.5 l2 -52 q-31 -26 -69.5 -40.5 q-38.5 -14.5 -80.5 -20.5 l0 -139 l-55 0 l0 136 q-52 1 -93 18.5 q-41 17.5 -69 48.5 q-28 31 -43 75 q-15 44 -15 98 q0 55 16.5 101.5 q16.5 46.5 45.5 82 q29 35.5 69.5 58.5 q40.5 23 88.5 30 l0 126 l55 0 ZM159 264 q0 -72 25.5 -119 q25.5 -47 81.5 -62 l0 359 q-26 -3 -45.5 -17 q-19.5 -14 -33.5 -37.5 q-14 -23.5 -21 -55 q-7 -31.5 -7 -68.5 Z" /><glyph glyph-name="sterling" unicode="£" d="M54 361 l77 0 q0 10 -0.5 19.5 q-0.5 9.5 -0.5 20.5 q0 72 19.5 129.5 q19.5 57.5 54.5 97 q35 39.5 83.5 60.5 q48.5 21 106.5 21 q34 0 64.5 -7 q30.5 -7 53.5 -20 q23 -13 36 -31.5 q13 -18.5 13 -40.5 q0 -23 -15.5 -39 q-15.5 -16 -44.5 -15 q-30 1 -43.5 18 q-13.5 17 -24 37 q-10.5 20 -25 36.5 q-14.5 16.5 -47.5 16.5 q-27 0 -46.5 -14 q-19.5 -14 -32.5 -46 q-13 -32 -19 -85.5 q-6 -53.5 -6 -131.5 l0 -26 l192 0 l0 -50 l-197 0 q-5 -41 -23 -90.5 q-18 -49.5 -60 -110.5 l394 0 l3 -10 l-36 -100 l-476 0 l-7 35 q33 39 51.5 75 q18.5 36 27 70.5 q8.5 34.5 9.5 66.5 q1 32 -1 64 l-80 0 l0 50 Z" /><glyph glyph-name="yen" unicode="¥" d="M98 349 l167 0 l-140 247 q-17 26 -35.5 38.5 q-18.5 12.5 -50.5 17.5 l0 41 l304 0 l0 -41 q-17 -2 -33 -3.5 q-16 -1.5 -24 -3.5 q-8 -2 -15.5 -6 q-7.5 -4 -12.5 -10.5 q-5 -6.5 -6 -14.5 q-1 -8 5 -18 l134 -251 l130 237 q12 21 6.5 39.5 q-5.5 18.5 -25.5 23.5 q-7 2 -23.5 3.5 q-16.5 1.5 -33.5 3.5 l0 41 l242 0 l0 -35 q-29 -3 -52.5 -19.5 q-23.5 -16.5 -41.5 -42.5 l-142 -247 l167 0 l0 -50 l-194 0 l0 -89 l194 0 l0 -50 l-194 0 l0 -64 q0 -21 6 -32.5 q6 -11.5 20 -16.5 q7 -3 21.5 -4 q14.5 -1 29.5 -3 l0 -40 l-287 0 l0 40 q11 1 27.5 2 q16.5 1 24.5 5 q26 9 26 49 l0 64 l-194 0 l0 50 l194 0 l0 89 l-194 0 l0 50 Z" /><glyph glyph-name="currency" unicode="¤" d="M466 111 l-42 -42 l-92 90 q-32 -21 -71 -21 q-18 0 -37 5.5 q-19 5.5 -34 15.5 l-92 -91 l-41 44 l89 91 q-9 15 -14.5 33.5 q-5.5 18.5 -5.5 36.5 q0 38 20 70 l-89 93 l43 42 l90 -91 q13 9 34.5 15 q21.5 6 36.5 6 q19 0 38 -6 q19 -6 32 -14 l91 90 l44 -42 l-91 -93 q21 -32 21 -70 q0 -19 -6 -38 q-6 -19 -15 -32 l91 -92 ZM340 273 q0 16 -6.5 31 q-6.5 15 -17 26 q-10.5 11 -25 17.5 q-14.5 6.5 -30.5 6.5 q-33 0 -56 -23.5 q-23 -23.5 -23 -57.5 q0 -33 23 -57 q23 -24 56 -24 q16 0 30.5 6.5 q14.5 6.5 25 17.5 q10.5 11 17 25.5 q6.5 14.5 6.5 31.5 Z" /><glyph glyph-name="nonbreakingspace" unicode=" " d="" /><glyph glyph-name="B" unicode="b" d="M48 0 l0 40 q10 1 26.5 2 q16.5 1 24.5 5 q26 8 26 49 l0 501 q0 40 -26 49 q-7 3 -21.5 4 q-14.5 1 -29.5 3 l0 40 l305 0 q107 0 168.5 -41.5 q61.5 -41.5 61.5 -121.5 q0 -28 -11.5 -54 q-11.5 -26 -33.5 -48 q-22 -22 -54 -37.5 q-32 -15.5 -72 -22.5 l0 -4 q109 -4 161.5 -51.5 q52.5 -47.5 52.5 -117.5 q0 -51 -23 -88 q-23 -37 -60 -61 q-37 -24 -84 -35 q-47 -11 -94 -11 l-317 0 ZM486 193 q0 27 -9 52 q-9 25 -29.5 44.5 q-20.5 19.5 -53.5 31 q-33 11.5 -81 11.5 l-56 0 l0 -281 l68 0 q85 0 123 38 q38 38 38 104 ZM257 642 l0 -261 l40 0 q73 0 107 34.5 q34 34.5 34 96.5 q0 68 -33.5 99 q-33.5 31 -91.5 31 l-56 0 Z" /><glyph glyph-name="A" unicode="a" d="M423 240 l-226 0 l-54 -144 q-7 -18 1 -31 q8 -13 28 -18 q7 -2 23.5 -3.5 q16.5 -1.5 33.5 -3.5 l0 -40 l-231 0 l0 40 q11 1 23.5 4.5 q12.5 3.5 20.5 6.5 q15 5 24 15.5 q9 10.5 16 29.5 l238 610 l64 0 l219 -610 q7 -20 16 -30 q9 -10 24 -15 q8 -3 19.5 -6.5 q11.5 -3.5 22.5 -4.5 l0 -40 l-293 0 l0 40 q16 2 30.5 4 q14.5 2 22.5 4 q14 5 23.5 16.5 q9.5 11.5 2.5 31.5 l-48 144 ZM217 293 l188 0 l-87 263 l-101 -263 Z" /></font>
</defs>
</svg>
