<svg xmlns="http://www.w3.org/2000/svg">
<defs>
<font id="9e01d4adac1420d4 - subset of 1.000;TPTQ;Harir-Reg" horiz-adv-x="2125"><font-face font-family="9e01d4adac1420d4 - subset of Harir" font-weight="400" font-stretch="normal" units-per-em="2048" panose-1="2 0 0 0 0 0 0 0 0 0" ascent="1560" descent="-1400" x-height="0" bbox="-186 -1063 2183 1988" underline-thickness="59" underline-position="-451" unicode-range="U+0000-fefc" /><missing-glyph horiz-adv-x="954" d="M829 975 l0 39 l38 0 l0 -39 l-38 0 ZM722 975 l0 39 l38 0 l0 -39 l-38 0 ZM615 975 l0 39 l38 0 l0 -39 l-38 0 ZM508 975 l0 39 l38 0 l0 -39 l-38 0 ZM401 975 l0 39 l38 0 l0 -39 l-38 0 ZM294 975 l0 39 l38 0 l0 -39 l-38 0 ZM187 975 l0 39 l38 0 l0 -39 l-38 0 ZM80 975 l0 39 l38 0 l0 -39 l-38 0 ZM829 867 l0 39 l38 0 l0 -39 l-38 0 ZM80 867 l0 39 l38 0 l0 -39 l-38 0 ZM829 758 l0 39 l38 0 l0 -39 l-38 0 ZM615 758 l0 39 l38 0 l0 -39 l-38 0 ZM80 758 l0 39 l38 0 l0 -39 l-38 0 ZM294 758 l0 39 l38 0 l0 -39 l-38 0 ZM401 758 l0 39 l38 0 l0 -39 l-38 0 ZM508 758 l0 39 l38 0 l0 -39 l-38 0 ZM829 650 l0 39 l38 0 l0 -39 l-38 0 ZM615 650 l0 39 l38 0 l0 -39 l-38 0 ZM80 650 l0 39 l38 0 l0 -39 l-38 0 ZM829 541 l0 40 l38 0 l0 -40 l-38 0 ZM615 541 l0 40 l38 0 l0 -40 l-38 0 ZM508 541 l0 40 l38 0 l0 -40 l-38 0 ZM80 541 l0 40 l38 0 l0 -40 l-38 0 ZM401 541 l0 40 l38 0 l0 -40 l-38 0 ZM829 434 l0 39 l38 0 l0 -39 l-38 0 ZM401 434 l0 39 l38 0 l0 -39 l-38 0 ZM80 434 l0 39 l38 0 l0 -39 l-38 0 ZM829 325 l0 39 l38 0 l0 -39 l-38 0 ZM80 325 l0 39 l38 0 l0 -39 l-38 0 ZM829 217 l0 39 l38 0 l0 -39 l-38 0 ZM401 217 l0 39 l38 0 l0 -39 l-38 0 ZM80 217 l0 39 l38 0 l0 -39 l-38 0 ZM829 108 l0 39 l38 0 l0 -39 l-38 0 ZM80 108 l0 39 l38 0 l0 -39 l-38 0 ZM829 0 l0 39 l38 0 l0 -39 l-38 0 ZM615 0 l0 39 l38 0 l0 -39 l-38 0 ZM722 0 l0 39 l38 0 l0 -39 l-38 0 ZM508 0 l0 39 l38 0 l0 -39 l-38 0 ZM401 0 l0 39 l38 0 l0 -39 l-38 0 ZM294 0 l0 39 l38 0 l0 -39 l-38 0 ZM187 0 l0 39 l38 0 l0 -39 l-38 0 ZM80 0 l0 39 l38 0 l0 -39 l-38 0 Z" /><glyph glyph-name=".null" unicode="" d="" /><glyph glyph-name="nonmarkingreturn" unicode="" d="" /><glyph glyph-name="space" unicode=" " d="" /><glyph glyph-name="uni0621" unicode="&#x621;" d="M664 258 l10 -18 q-15 -28 -48.5 -99 q-33.5 -71 -33.5 -71 q-123 -12 -243 -38 q-120 -26 -234 -80 l4 36 q13 26 34 62 q21 36 40 52 q20 17 51 34.5 q31 17.5 53 26.5 q-84 28 -121 87 q-37 59 -37 118 q0 151 89 232.5 q89 81.5 188 81.5 q69 0 125 -51.5 q56 -51.5 56 -141.5 q0 -13 -2 -25 q-2 -12 -7 -31 l-37 -24 q-9 54 -48 75.5 q-39 21.5 -90 21.5 q-81 0 -146 -34 q-65 -34 -65 -70 q0 -31 64 -94.5 q64 -63.5 236 -63.5 q41 0 77.5 3.5 q36.5 3.5 84.5 10.5 Z" /><glyph glyph-name="uni0622" unicode="&#x622;" d="M603 1417 l-6 -66 q-66 -58 -124.5 -84 q-58.5 -26 -146.5 -26 q-105 0 -207.5 25 q-102.5 25 -159.5 25 q-36 0 -57.5 -32 q-21.5 -32 -46.5 -76 l-27 61 q34 69 75.5 120.5 q41.5 51.5 108.5 51.5 q49 0 165 -28.5 q116 -28.5 250 -28.5 q57 0 103.5 20.5 q46.5 20.5 72.5 37.5 ZM213 1158 l43 22 q-3 -10 -4.5 -44.5 q-1.5 -34.5 -1.5 -85.5 q0 -139 6.5 -299.5 q6.5 -160.5 6.5 -243.5 q0 -225 -27.5 -325 q-27.5 -100 -78.5 -215 l-50 -21 q10 27 14 92.5 q4 65.5 4 114.5 q0 143 -9 385 q-9 242 -9 367 q0 30 6.5 52 q6.5 22 14.5 38 q17 35 39 75 q22 40 46 88 Z" /><glyph glyph-name="uniFE82" unicode="&#xfe82;" d="M589 1417 l-6 -66 q-66 -58 -124.5 -84 q-58.5 -26 -146.5 -26 q-105 0 -207.5 25 q-102.5 25 -159.5 25 q-36 0 -57.5 -32 q-21.5 -32 -46.5 -76 l-27 61 q34 69 75.5 120.5 q41.5 51.5 108.5 51.5 q49 0 165 -28.5 q116 -28.5 250 -28.5 q57 0 103.5 20.5 q46.5 20.5 72.5 37.5 ZM499 214 q14 0 20 -12 q6 -12 6 -30 q0 -46 -30.5 -109 q-30.5 -63 -58.5 -63 q-151 0 -225.5 88.5 q-74.5 88.5 -84.5 322.5 q-8 183 -11 325 q-3 142 -3 179 q0 25 8.5 49.5 q8.5 24.5 18.5 45.5 q19 43 37 76.5 q18 33.5 38 75.5 l45 23 q-7 -21 -10.5 -121.5 q-3.5 -100.5 -3.5 -227.5 q0 -128 3 -215 q3 -87 7 -165 q7 -156 67.5 -199 q60.5 -43 176.5 -43 Z" /><glyph glyph-name="uni0627" unicode="&#x627;" d="M228 1329 l43 23 q-2 -8 -3.5 -35 q-1.5 -27 -1.5 -67 q0 -143 9 -381 q9 -238 9 -334 q0 -263 -26.5 -354 q-26.5 -91 -72.5 -216 l-50 -22 q10 29 12 101 q2 72 2 112 q0 228 -12 455.5 q-12 227.5 -12 441.5 q0 31 6 54 q6 23 14 42 q17 37 38.5 83 q21.5 46 44.5 97 Z" /><glyph glyph-name="uniFE8E" unicode="&#xfe8e;" d="M511 214 q13 0 19 -12 q6 -12 6 -30 q0 -46 -30 -109 q-30 -63 -59 -63 q-150 0 -225 88.5 q-75 88.5 -85 322.5 q-7 151 -9.5 384.5 q-2.5 233.5 -2.5 277.5 q0 25 8 49.5 q8 24.5 18 45.5 q20 43 37.5 81 q17.5 38 37.5 81 l46 23 q-7 -21 -10.5 -134 q-3.5 -113 -3.5 -256 q0 -143 2.5 -286 q2.5 -143 6.5 -221 q7 -156 67 -199 q60 -43 177 -43 Z" /><glyph glyph-name="uni0623" unicode="&#x623;" d="M400 1378 l7 -24 q-9 -18 -31.5 -47 q-22.5 -29 -22.5 -29 q-78 -7 -156 -22.5 q-78 -15.5 -150 -49.5 l0 31 q9 16 19.5 27.5 q10.5 11.5 20.5 18.5 q13 8 30 16.5 q17 8.5 36 15.5 q-55 21 -76.5 56 q-21.5 35 -21.5 75 q0 96 65 145.5 q65 49.5 125 49.5 q46 0 80.5 -30.5 q34.5 -30.5 34.5 -81.5 q0 -13 -2.5 -27.5 q-2.5 -14.5 -6.5 -29.5 l-30 -16 q-3 34 -24 58 q-21 24 -60 24 q-49 0 -91 -29 q-42 -29 -42 -50 q0 -25 48.5 -57.5 q48.5 -32.5 141.5 -32.5 q25 0 51 2 q26 2 55 7 ZM230 1158 l43 22 q-3 -10 -4.5 -44.5 q-1.5 -34.5 -1.5 -85.5 q0 -139 6.5 -299.5 q6.5 -160.5 6.5 -243.5 q0 -225 -27.5 -325 q-27.5 -100 -78.5 -215 l-50 -21 q10 27 14 92.5 q4 65.5 4 114.5 q0 143 -9 385 q-9 242 -9 367 q0 30 6.5 52 q6.5 22 14.5 38 q17 35 39 75 q22 40 46 88 Z" /><glyph glyph-name="uniFE84" unicode="&#xfe84;" d="M400 1368 l7 -24 q-9 -18 -31.5 -47 q-22.5 -29 -22.5 -29 q-78 -7 -156 -22.5 q-78 -15.5 -150 -49.5 l0 31 q9 16 19.5 27.5 q10.5 11.5 20.5 18.5 q13 8 30 16.5 q17 8.5 36 15.5 q-55 21 -76.5 56 q-21.5 35 -21.5 75 q0 96 65 145.5 q65 49.5 125 49.5 q46 0 80.5 -30.5 q34.5 -30.5 34.5 -81.5 q0 -13 -2.5 -27.5 q-2.5 -14.5 -6.5 -29.5 l-30 -16 q-3 34 -24 58 q-21 24 -60 24 q-49 0 -91 -29 q-42 -29 -42 -50 q0 -25 48.5 -57.5 q48.5 -32.5 141.5 -32.5 q25 0 51 2 q26 2 55 7 ZM516 214 q14 0 20 -12 q6 -12 6 -30 q0 -46 -30.5 -109 q-30.5 -63 -58.5 -63 q-151 0 -225.5 88.5 q-74.5 88.5 -84.5 322.5 q-8 183 -11 325 q-3 142 -3 179 q0 25 8.5 49.5 q8.5 24.5 18.5 45.5 q19 43 37 76.5 q18 33.5 38 75.5 l45 23 q-7 -21 -10.5 -121.5 q-3.5 -100.5 -3.5 -227.5 q0 -128 3 -215 q3 -87 7 -165 q7 -156 67.5 -199 q60.5 -43 176.5 -43 Z" /><glyph glyph-name="uni0625" unicode="&#x625;" d="M218 1330 l43 23 q-2 -8 -3.5 -35 q-1.5 -27 -1.5 -67 q0 -143 9 -381 q9 -238 9 -334 q0 -263 -26.5 -354 q-26.5 -91 -72.5 -216 l-50 -22 q10 29 12 101 q2 72 2 112 q0 228 -12 455.5 q-12 227.5 -12 441.5 q0 31 6 54 q6 23 14 42 q17 37 38.5 83 q21.5 46 44.5 97 ZM384 -426 l7 -24 q-9 -18 -31.5 -47 q-22.5 -29 -22.5 -29 q-78 -7 -156 -22.5 q-78 -15.5 -150 -49.5 l0 31 q9 16 19.5 27.5 q10.5 11.5 20.5 18.5 q13 8 30 16.5 q17 8.5 36 15.5 q-55 21 -76.5 56 q-21.5 35 -21.5 75 q0 96 65 145.5 q65 49.5 125 49.5 q46 0 80.5 -30.5 q34.5 -30.5 34.5 -81.5 q0 -13 -2.5 -27.5 q-2.5 -14.5 -6.5 -29.5 l-30 -16 q-3 34 -24 58 q-21 24 -60 24 q-49 0 -91 -29 q-42 -29 -42 -50 q0 -25 48.5 -57.5 q48.5 -32.5 141.5 -32.5 q25 0 51 2 q26 2 55 7 Z" /><glyph glyph-name="uniFE88" unicode="&#xfe88;" d="M507 214 q13 0 19 -12 q6 -12 6 -30 q0 -46 -30 -109 q-30 -63 -59 -63 q-150 0 -225 88.5 q-75 88.5 -85 322.5 q-7 151 -9.5 384.5 q-2.5 233.5 -2.5 277.5 q0 25 8.5 49.5 q8.5 24.5 18.5 45.5 q19 43 37 81 q18 38 38 81 l45 23 q-7 -21 -10.5 -134 q-3.5 -113 -3.5 -256 q0 -143 2.5 -286 q2.5 -143 6.5 -221 q7 -156 67 -199 q60 -43 177 -43 ZM457 -379 l7 -24 q-9 -18 -31.5 -47 q-22.5 -29 -22.5 -29 q-78 -7 -156 -22.5 q-78 -15.5 -150 -49.5 l0 31 q9 16 19.5 27.5 q10.5 11.5 20.5 18.5 q13 8 30.5 16.5 q17.5 8.5 35.5 15.5 q-55 21 -76.5 56 q-21.5 35 -21.5 75 q0 96 65 145.5 q65 49.5 125 49.5 q47 0 81 -30.5 q34 -30.5 34 -81.5 q0 -13 -2.5 -27.5 q-2.5 -14.5 -6.5 -29.5 l-30 -16 q-3 34 -24 58 q-21 24 -60 24 q-49 0 -91 -29 q-42 -29 -42 -50 q0 -25 48.5 -57.5 q48.5 -32.5 141.5 -32.5 q25 0 51 2 q26 2 55 7 Z" /><glyph glyph-name="uni0626" unicode="&#x626;" d="M478 596 l7 -24 q-9 -18 -31.5 -47 q-22.5 -29 -22.5 -29 q-78 -7 -156 -22.5 q-78 -15.5 -150 -49.5 l0 31 q9 16 19.5 27.5 q10.5 11.5 20.5 18.5 q13 8 30.5 16.5 q17.5 8.5 35.5 15.5 q-55 21 -76.5 56 q-21.5 35 -21.5 75 q0 96 65 145.5 q65 49.5 125 49.5 q47 0 81 -30.5 q34 -30.5 34 -81.5 q0 -13 -2.5 -27.5 q-2.5 -14.5 -6.5 -29.5 l-30 -16 q-3 34 -24 58 q-21 24 -60 24 q-49 0 -91 -29 q-42 -29 -42 -50 q0 -25 48.5 -57.5 q48.5 -32.5 141.5 -32.5 q25 0 51 2 q26 2 55 7 ZM189 289 l67 23 q-20 -84 -30 -145 q-10 -61 -10 -113 q0 -139 88 -235 q88 -96 334 -96 q286 0 394 127 q108 127 108 171 q0 5 -8 9.5 q-8 4.5 -27 6.5 q-48 5 -150.5 14 q-102.5 9 -201.5 19 q-99 10 -137.5 59.5 q-38.5 49.5 -38.5 133.5 q0 213 146.5 378.5 q146.5 165.5 318.5 165.5 q81 0 130.5 -43.5 q49.5 -43.5 49.5 -124.5 q0 -33 -5.5 -70 q-5.5 -37 -9.5 -49 l-50 -26 q-4 31 -41 73.5 q-37 42.5 -133 42.5 q-140 0 -231 -110 q-91 -110 -91 -176 q0 -10 8 -21 q8 -11 42 -15 q58 -7 151.5 -17.5 q93.5 -10.5 215.5 -25.5 q77 -10 111 -54.5 q34 -44.5 34 -107.5 q0 -117 -119 -346 q-119 -229 -504 -229 q-267 0 -365.5 145 q-98.5 145 -98.5 325 q0 81 14.5 160 q14.5 79 38.5 151 Z" /><glyph glyph-name="uniFE8A" unicode="&#xfe8a;" d="M669 557 l7 -24 q-9 -18 -31.5 -47 q-22.5 -29 -22.5 -29 q-78 -7 -156 -22.5 q-78 -15.5 -150 -49.5 l0 31 q9 16 19.5 27.5 q10.5 11.5 20.5 18.5 q13 8 30 16.5 q17 8.5 36 15.5 q-55 21 -76.5 56 q-21.5 35 -21.5 75 q0 96 65 145.5 q65 49.5 125 49.5 q46 0 80.5 -30.5 q34.5 -30.5 34.5 -81.5 q0 -13 -2.5 -27.5 q-2.5 -14.5 -6.5 -29.5 l-30 -16 q-3 34 -24 58 q-21 24 -60 24 q-49 0 -91 -29 q-42 -29 -42 -50 q0 -25 48.5 -57.5 q48.5 -32.5 141.5 -32.5 q25 0 51 2 q26 2 55 7 ZM178 269 l67 23 q-21 -84 -30.5 -145 q-9.5 -61 -9.5 -113 q0 -139 87.5 -235 q87.5 -96 334.5 -96 q307 0 405.5 122.5 q98.5 122.5 98.5 141.5 q0 5 -22 13.5 q-22 8.5 -71 15.5 q-77 11 -167.5 36.5 q-90.5 25.5 -129.5 66.5 q4 49 18.5 96.5 q14.5 47.5 35.5 82.5 q107 -44 264.5 -54 q157.5 -10 241.5 -10 l13 0 q14 0 20 -12 q6 -12 6 -30 q0 -46 -30.5 -109 q-30.5 -63 -59.5 -63 l-33 0 q-20 -137 -153 -324.5 q-133 -187.5 -475 -187.5 q-268 0 -366 145 q-98 145 -98 325 q0 85 14.5 161.5 q14.5 76.5 38.5 149.5 Z" /><glyph glyph-name="uniFE8B" unicode="&#xfe8b;" d="M416 968 l7 -24 q-9 -18 -31.5 -47 q-22.5 -29 -22.5 -29 q-78 -7 -156 -22.5 q-78 -15.5 -150 -49.5 l0 31 q9 16 19.5 27.5 q10.5 11.5 20.5 18.5 q13 8 30 16.5 q17 8.5 36 15.5 q-55 21 -76.5 56 q-21.5 35 -21.5 75 q0 96 65 145.5 q65 49.5 125 49.5 q46 0 80.5 -30.5 q34.5 -30.5 34.5 -81.5 q0 -13 -2.5 -27.5 q-2.5 -14.5 -6.5 -29.5 l-30 -16 q-3 34 -24 58 q-21 24 -60 24 q-49 0 -91 -29 q-42 -29 -42 -50 q0 -25 48.5 -57.5 q48.5 -32.5 141.5 -32.5 q25 0 51 2 q26 2 55 7 ZM302 163 q-40 -69 -125.5 -116 q-85.5 -47 -210.5 -47 q-13 1 -18.5 12.5 q-5.5 11.5 -5.5 28.5 q0 46 30.5 109.5 q30.5 63.5 59.5 63.5 q137 0 191.5 34.5 q54.5 34.5 54.5 44.5 q0 22 -32 95 q-32 73 -99 132 l91 182 q72 -67 97.5 -141.5 q25.5 -74.5 25.5 -157.5 q0 -44 -12 -111 q-12 -67 -47 -129 Z" /><glyph glyph-name="uniFE8C" unicode="&#xfe8c;" d="M508 727 l7 -24 q-9 -18 -31.5 -47 q-22.5 -29 -22.5 -29 q-78 -7 -156 -22.5 q-78 -15.5 -150 -49.5 l0 31 q9 16 19.5 27.5 q10.5 11.5 20.5 18.5 q13 8 30 16.5 q17 8.5 36 15.5 q-55 21 -76.5 56 q-21.5 35 -21.5 75 q0 96 65 145.5 q65 49.5 125 49.5 q46 0 80.5 -30.5 q34.5 -30.5 34.5 -81.5 q0 -13 -2.5 -27.5 q-2.5 -14.5 -6.5 -29.5 l-30 -16 q-3 34 -24 58 q-21 24 -60 24 q-49 0 -91 -29 q-42 -29 -42 -50 q0 -25 48.5 -57.5 q48.5 -32.5 141.5 -32.5 q25 0 51 2 q26 2 55 7 ZM638 214 q13 0 19 -12 q6 -12 6 -29 q0 -46 -30 -109.5 q-30 -63.5 -59 -63.5 q-127 0 -186.5 45 q-59.5 45 -79.5 98 q-28 -46 -103.5 -94.5 q-75.5 -48.5 -235.5 -48.5 q-14 0 -20.5 11 q-6.5 11 -6.5 29 q0 46 30.5 110 q30.5 64 59.5 64 q148 0 210 51 q62 51 87 140 l54 14 q-2 -8 -3.5 -20 q-1.5 -12 -1.5 -27 q0 -95 84.5 -126.5 q84.5 -31.5 175.5 -31.5 Z" /><glyph glyph-name="uni0628" unicode="&#x628;" d="M1412 323 q0 19 -34.5 89 q-34.5 70 -105.5 133 l90 182 q69 -61 100 -137.5 q31 -76.5 31 -163.5 q0 -67 -22.5 -146.5 q-22.5 -79.5 -57.5 -118.5 q-66 -80 -258.5 -142.5 q-192.5 -62.5 -477.5 -62.5 q-298 0 -425 87.5 q-127 87.5 -127 237.5 q0 51 12.5 117 q12.5 66 33.5 124 l60 18 q-10 -29 -18.5 -64 q-8.5 -35 -8.5 -67 q0 -88 105.5 -164 q105.5 -76 453.5 -76 q349 0 499 64.5 q150 64.5 150 89.5 ZM890 -342 l-108 -156 q-25 25 -79.5 51.5 q-54.5 26.5 -97.5 30.5 l104 157 q51 -10 96 -31 q45 -21 85 -52 Z" /><glyph glyph-name="uniFE90" unicode="&#xfe90;" d="M762 172 q189 0 330.5 26.5 q141.5 26.5 225.5 71.5 q49 25 85.5 68.5 q36.5 43.5 48.5 71.5 l53 -8 q-7 -11 -13 -30 q-6 -19 -6 -26 q0 -58 63.5 -95 q63.5 -37 193.5 -37 q14 0 20 -12 q6 -12 6 -30 q0 -46 -30.5 -109 q-30.5 -63 -59.5 -63 q-136 0 -201 45.5 q-65 45.5 -90 95.5 q-70 -67 -254.5 -125 q-184.5 -58 -457.5 -58 q-299 0 -425 84 q-126 84 -126 229 q0 49 12.5 114.5 q12.5 65.5 31.5 119.5 l61 18 q-9 -27 -17.5 -59 q-8.5 -32 -8.5 -63 q0 -81 103.5 -155 q103.5 -74 454.5 -74 ZM890 -342 l-108 -156 q-25 25 -79.5 51.5 q-54.5 26.5 -97.5 30.5 l104 157 q51 -10 96 -31 q45 -21 85 -52 Z" /><glyph glyph-name="uniFE91" unicode="&#xfe91;" d="M302 163 q-40 -69 -125.5 -116 q-85.5 -47 -210.5 -47 q-13 1 -18.5 12.5 q-5.5 11.5 -5.5 28.5 q0 46 30.5 109.5 q30.5 63.5 59.5 63.5 q137 0 191.5 34.5 q54.5 34.5 54.5 44.5 q0 22 -32 95 q-32 73 -99 132 l91 182 q72 -67 97.5 -141.5 q25.5 -74.5 25.5 -157.5 q0 -44 -12 -111 q-12 -67 -47 -129 ZM318 -292 l-108 -156 q-25 25 -79.5 51.5 q-54.5 26.5 -97.5 30.5 l104 157 q51 -10 96 -31 q45 -21 85 -52 Z" /><glyph glyph-name="uniFE92" unicode="&#xfe92;" d="M638 214 q13 0 19 -12 q6 -12 6 -29 q0 -46 -30 -109.5 q-30 -63.5 -59 -63.5 q-127 0 -186.5 45 q-59.5 45 -79.5 98 q-28 -46 -103.5 -94.5 q-75.5 -48.5 -235.5 -48.5 q-14 0 -20.5 11 q-6.5 11 -6.5 29 q0 46 30.5 110 q30.5 64 59.5 64 q148 0 210 51 q62 51 87 140 l54 14 q-2 -8 -3.5 -20 q-1.5 -12 -1.5 -27 q0 -95 84.5 -126.5 q84.5 -31.5 175.5 -31.5 ZM418 -267 l-108 -156 q-25 25 -79.5 51.5 q-54.5 26.5 -97.5 30.5 l104 157 q51 -10 96 -31 q45 -21 85 -52 Z" /><glyph glyph-name="uni0629" unicode="&#x629;" d="M646 1075 l-97 -140 q-23 23 -72 46.5 q-49 23.5 -87 27.5 l93 141 q46 -10 86.5 -28.5 q40.5 -18.5 76.5 -46.5 ZM394 1064 l-97 -140 q-23 23 -72 46.5 q-49 23.5 -87 27.5 l93 141 q46 -10 86.5 -28.5 q40.5 -18.5 76.5 -46.5 ZM354 733 q197 -40 270 -148 q73 -108 73 -217 q0 -151 -76 -267.5 q-76 -116.5 -247 -116.5 q-133 0 -191 82 q-58 82 -58 198 q0 130 75 269.5 q75 139.5 154 199.5 ZM348 551 q-63 -43 -104.5 -117 q-41.5 -74 -41.5 -105 q0 -68 53 -106 q53 -38 160 -38 q84 0 140 33 q56 33 56 56 q0 54 -65.5 147 q-65.5 93 -197.5 130 Z" /><glyph glyph-name="uniFE94" unicode="&#xfe94;" d="M803 1268 l-97 -140 q-23 23 -72 46.5 q-49 23.5 -87 27.5 l93 141 q46 -10 86.5 -28.5 q40.5 -18.5 76.5 -46.5 ZM551 1257 l-97 -140 q-23 23 -72 46.5 q-49 23.5 -87 27.5 l93 141 q46 -10 86.5 -28.5 q40.5 -18.5 76.5 -46.5 ZM680 958 l45 21 q-6 -25 -9 -73 q-3 -48 -3 -101 q0 -53 0.5 -180.5 q0.5 -127.5 1.5 -167.5 q4 -156 67.5 -199.5 q63.5 -43.5 179.5 -43.5 q13 0 19 -12 q6 -12 6 -29 q0 -46 -30 -109.5 q-30 -63.5 -59 -63.5 q-122 0 -198.5 54 q-76.5 54 -95.5 169 q-32 -83 -99 -133.5 q-67 -50.5 -174 -50.5 q-107 0 -156.5 60 q-49.5 60 -49.5 145 q0 167 129.5 289.5 q129.5 122.5 311.5 175.5 q-1 5 -1.5 12.5 q-0.5 7.5 -0.5 15.5 q1 22 5 34 q4 12 13 30 q22 43 44.5 77.5 q22.5 34.5 53.5 79.5 ZM588 548 q-149 -27 -263.5 -113.5 q-114.5 -86.5 -114.5 -123.5 q0 -24 45 -47 q45 -23 116 -23 q88 0 155.5 34 q67.5 34 67.5 97 q0 38 -2.5 104.5 q-2.5 66.5 -3.5 71.5 Z" /><glyph glyph-name="uni062A" unicode="&#x62a;" d="M1050 716 l-97 -140 q-23 23 -72 46.5 q-49 23.5 -87 27.5 l93 141 q46 -10 86.5 -28.5 q40.5 -18.5 76.5 -46.5 ZM798 705 l-97 -140 q-23 23 -72 46.5 q-49 23.5 -87 27.5 l93 141 q46 -10 86.5 -28.5 q40.5 -18.5 76.5 -46.5 ZM1412 323 q0 19 -34.5 89 q-34.5 70 -105.5 133 l90 182 q69 -61 100 -137.5 q31 -76.5 31 -163.5 q0 -67 -22.5 -146.5 q-22.5 -79.5 -57.5 -118.5 q-66 -80 -258.5 -142.5 q-192.5 -62.5 -477.5 -62.5 q-298 0 -425 87.5 q-127 87.5 -127 237.5 q0 51 12.5 117 q12.5 66 33.5 124 l60 18 q-10 -29 -18.5 -64 q-8.5 -35 -8.5 -67 q0 -88 105.5 -164 q105.5 -76 453.5 -76 q349 0 499 64.5 q150 64.5 150 89.5 Z" /><glyph glyph-name="uniFE96" unicode="&#xfe96;" d="M1093 677 l-97 -140 q-23 23 -72 46.5 q-49 23.5 -87 27.5 l93 141 q46 -10 86.5 -28.5 q40.5 -18.5 76.5 -46.5 ZM841 666 l-97 -140 q-23 23 -72 46.5 q-49 23.5 -87 27.5 l93 141 q46 -10 86.5 -28.5 q40.5 -18.5 76.5 -46.5 ZM762 172 q200 0 346.5 29 q146.5 29 228.5 78 q40 25 72 65.5 q32 40.5 43 65.5 l53 -8 q-4 -8 -7.5 -18 q-3.5 -10 -5.5 -20 q-2 -15 -2 -27.5 q0 -12.5 3 -21.5 q10 -44 73.5 -72.5 q63.5 -28.5 176.5 -28.5 q14 0 20 -12 q6 -12 6 -30 q0 -46 -30.5 -109 q-30.5 -63 -59.5 -63 q-136 0 -201 45.5 q-65 45.5 -90 95.5 q-70 -67 -254.5 -125 q-184.5 -58 -457.5 -58 q-299 0 -425 84 q-126 84 -126 229 q0 49 12.5 114.5 q12.5 65.5 31.5 119.5 l61 18 q-9 -27 -17.5 -59 q-8.5 -32 -8.5 -63 q0 -81 103.5 -155 q103.5 -74 454.5 -74 Z" /><glyph glyph-name="uniFE97" unicode="&#xfe97;" d="M491 975 l-97 -140 q-23 23 -72 46.5 q-49 23.5 -87 27.5 l93 141 q46 -10 86.5 -28.5 q40.5 -18.5 76.5 -46.5 ZM239 964 l-97 -140 q-23 23 -72 46.5 q-49 23.5 -87 27.5 l93 141 q46 -10 86.5 -28.5 q40.5 -18.5 76.5 -46.5 ZM302 163 q-40 -69 -125.5 -116 q-85.5 -47 -210.5 -47 q-13 1 -18.5 12.5 q-5.5 11.5 -5.5 28.5 q0 46 30.5 109.5 q30.5 63.5 59.5 63.5 q137 0 191.5 34.5 q54.5 34.5 54.5 44.5 q0 22 -32 95 q-32 73 -99 132 l91 182 q72 -67 97.5 -141.5 q25.5 -74.5 25.5 -157.5 q0 -44 -12 -111 q-12 -67 -47 -129 Z" /><glyph glyph-name="uniFE98" unicode="&#xfe98;" d="M558 693 l-97 -140 q-23 23 -72 46.5 q-49 23.5 -87 27.5 l93 141 q46 -10 86.5 -28.5 q40.5 -18.5 76.5 -46.5 ZM306 682 l-97 -140 q-23 23 -72 46.5 q-49 23.5 -87 27.5 l93 141 q46 -10 86.5 -28.5 q40.5 -18.5 76.5 -46.5 ZM638 214 q13 0 19 -12 q6 -12 6 -29 q0 -46 -30 -109.5 q-30 -63.5 -59 -63.5 q-127 0 -186.5 45 q-59.5 45 -79.5 98 q-28 -46 -103.5 -94.5 q-75.5 -48.5 -235.5 -48.5 q-14 0 -20.5 11 q-6.5 11 -6.5 29 q0 46 30.5 110 q30.5 64 59.5 64 q148 0 210 51 q62 51 87 140 l54 14 q-2 -8 -3.5 -20 q-1.5 -12 -1.5 -27 q0 -95 84.5 -126.5 q84.5 -31.5 175.5 -31.5 Z" /><glyph glyph-name="uni067E" unicode="&#x67e;" d="M1412 323 q0 19 -34.5 89 q-34.5 70 -105.5 133 l90 182 q69 -61 100 -137.5 q31 -76.5 31 -163.5 q0 -67 -22.5 -146.5 q-22.5 -79.5 -57.5 -118.5 q-66 -80 -258.5 -142.5 q-192.5 -62.5 -477.5 -62.5 q-298 0 -425 87.5 q-127 87.5 -127 237.5 q0 51 12.5 117 q12.5 66 33.5 124 l60 18 q-10 -29 -18.5 -64 q-8.5 -35 -8.5 -67 q0 -88 105.5 -164 q105.5 -76 453.5 -76 q349 0 499 64.5 q150 64.5 150 89.5 ZM1010 -306 l-93 -136 q-23 22 -70.5 45 q-47.5 23 -84.5 27 l90 136 q46 -9 85 -26.5 q39 -17.5 73 -45.5 ZM763 -316 l-93 -136 q-23 22 -70.5 44.5 q-47.5 22.5 -84.5 26.5 l90 137 q46 -10 85 -27.5 q39 -17.5 73 -44.5 ZM916 -527 l-96 -140 q-23 23 -72 46 q-49 23 -87 27 l93 140 q46 -10 86.5 -27.5 q40.5 -17.5 75.5 -45.5 Z" /><glyph glyph-name="uniFB57" unicode="&#xfb57;" d="M762 172 q200 0 346.5 29 q146.5 29 228.5 78 q40 25 72 65.5 q32 40.5 43 65.5 l53 -8 q-4 -8 -7.5 -18 q-3.5 -10 -5.5 -20 q-2 -15 -2 -27.5 q0 -12.5 3 -21.5 q10 -44 73.5 -72.5 q63.5 -28.5 176.5 -28.5 q14 0 20 -12 q6 -12 6 -30 q0 -46 -30.5 -109 q-30.5 -63 -59.5 -63 q-136 0 -201 45.5 q-65 45.5 -90 95.5 q-70 -67 -254.5 -125 q-184.5 -58 -457.5 -58 q-299 0 -425 84 q-126 84 -126 229 q0 49 12.5 114.5 q12.5 65.5 31.5 119.5 l61 18 q-9 -27 -17.5 -59 q-8.5 -32 -8.5 -63 q0 -81 103.5 -155 q103.5 -74 454.5 -74 ZM1040 -301 l-93 -136 q-23 22 -70.5 45 q-47.5 23 -84.5 27 l90 136 q46 -9 85 -26.5 q39 -17.5 73 -45.5 ZM793 -311 l-93 -136 q-23 22 -70.5 44.5 q-47.5 22.5 -84.5 26.5 l90 137 q46 -10 85 -27.5 q39 -17.5 73 -44.5 ZM946 -522 l-96 -140 q-23 23 -72 46 q-49 23 -87 27 l93 140 q46 -10 86.5 -27.5 q40.5 -17.5 75.5 -45.5 Z" /><glyph glyph-name="uniFB58" unicode="&#xfb58;" d="M302 163 q-40 -69 -125.5 -116 q-85.5 -47 -210.5 -47 q-13 1 -18.5 12.5 q-5.5 11.5 -5.5 28.5 q0 46 30.5 109.5 q30.5 63.5 59.5 63.5 q137 0 191.5 34.5 q54.5 34.5 54.5 44.5 q0 22 -32 95 q-32 73 -99 132 l91 182 q72 -67 97.5 -141.5 q25.5 -74.5 25.5 -157.5 q0 -44 -12 -111 q-12 -67 -47 -129 ZM475 -241 l-93 -136 q-23 22 -70.5 45 q-47.5 23 -84.5 27 l90 136 q46 -9 85 -26.5 q39 -17.5 73 -45.5 ZM228 -251 l-93 -136 q-23 22 -70.5 44.5 q-47.5 22.5 -84.5 26.5 l90 137 q46 -10 85 -27.5 q39 -17.5 73 -44.5 ZM381 -462 l-96 -140 q-23 23 -72 46 q-49 23 -87 27 l93 140 q46 -10 86.5 -27.5 q40.5 -17.5 75.5 -45.5 Z" /><glyph glyph-name="uniFB59" unicode="&#xfb59;" d="M638 214 q13 0 19 -12 q6 -12 6 -29 q0 -46 -30 -109.5 q-30 -63.5 -59 -63.5 q-127 0 -186.5 45 q-59.5 45 -79.5 98 q-28 -46 -103.5 -94.5 q-75.5 -48.5 -235.5 -48.5 q-14 0 -20.5 11 q-6.5 11 -6.5 29 q0 46 30.5 110 q30.5 64 59.5 64 q148 0 210 51 q62 51 87 140 l54 14 q-2 -8 -3.5 -20 q-1.5 -12 -1.5 -27 q0 -95 84.5 -126.5 q84.5 -31.5 175.5 -31.5 ZM535 -236 l-93 -136 q-23 22 -70.5 45 q-47.5 23 -84.5 27 l90 136 q46 -9 85 -26.5 q39 -17.5 73 -45.5 ZM288 -246 l-93 -136 q-23 22 -70.5 44.5 q-47.5 22.5 -84.5 26.5 l90 137 q46 -10 85 -27.5 q39 -17.5 73 -44.5 ZM441 -457 l-96 -140 q-23 23 -72 46 q-49 23 -87 27 l93 140 q46 -10 86.5 -27.5 q40.5 -17.5 75.5 -45.5 Z" /><glyph glyph-name="uni062B" unicode="&#x62b;" d="M916 929 l-96 -140 q-23 23 -72 46 q-49 23 -87 27 l93 140 q46 -10 86.5 -27.5 q40.5 -17.5 75.5 -45.5 ZM1051 708 l-93 -136 q-23 22 -70.5 44.5 q-47.5 22.5 -84.5 26.5 l90 137 q46 -10 85 -27.5 q39 -17.5 73 -44.5 ZM804 697 l-93 -136 q-23 22 -70.5 45 q-47.5 23 -84.5 27 l90 136 q46 -9 85 -26.5 q39 -17.5 73 -45.5 ZM1412 323 q0 19 -34.5 89 q-34.5 70 -105.5 133 l90 182 q69 -61 100 -137.5 q31 -76.5 31 -163.5 q0 -67 -22.5 -146.5 q-22.5 -79.5 -57.5 -118.5 q-66 -80 -258.5 -142.5 q-192.5 -62.5 -477.5 -62.5 q-298 0 -425 87.5 q-127 87.5 -127 237.5 q0 51 12.5 117 q12.5 66 33.5 124 l60 18 q-10 -29 -18.5 -64 q-8.5 -35 -8.5 -67 q0 -88 105.5 -164 q105.5 -76 453.5 -76 q349 0 499 64.5 q150 64.5 150 89.5 Z" /><glyph glyph-name="uniFE9A" unicode="&#xfe9a;" d="M946 879 l-96 -140 q-23 23 -72 46 q-49 23 -87 27 l93 140 q46 -10 86.5 -27.5 q40.5 -17.5 75.5 -45.5 ZM1081 658 l-93 -136 q-23 22 -70.5 44.5 q-47.5 22.5 -84.5 26.5 l90 137 q46 -10 85 -27.5 q39 -17.5 73 -44.5 ZM834 647 l-93 -136 q-23 22 -70.5 45 q-47.5 23 -84.5 27 l90 136 q46 -9 85 -26.5 q39 -17.5 73 -45.5 ZM762 172 q200 0 346.5 29 q146.5 29 228.5 78 q40 25 72 65.5 q32 40.5 43 65.5 l53 -8 q-4 -8 -7.5 -18 q-3.5 -10 -5.5 -20 q-2 -15 -2 -27.5 q0 -12.5 3 -21.5 q10 -44 73.5 -72.5 q63.5 -28.5 176.5 -28.5 q14 0 20 -12 q6 -12 6 -30 q0 -46 -30.5 -109 q-30.5 -63 -59.5 -63 q-136 0 -201 45.5 q-65 45.5 -90 95.5 q-70 -67 -254.5 -125 q-184.5 -58 -457.5 -58 q-299 0 -425 84 q-126 84 -126 229 q0 49 12.5 114.5 q12.5 65.5 31.5 119.5 l61 18 q-9 -27 -17.5 -59 q-8.5 -32 -8.5 -63 q0 -81 103.5 -155 q103.5 -74 454.5 -74 Z" /><glyph glyph-name="uniFE9B" unicode="&#xfe9b;" d="M350 1178 l-96 -140 q-23 23 -72 46 q-49 23 -87 27 l93 140 q46 -10 86.5 -27.5 q40.5 -17.5 75.5 -45.5 ZM485 957 l-93 -136 q-23 22 -70.5 44.5 q-47.5 22.5 -84.5 26.5 l90 137 q46 -10 85 -27.5 q39 -17.5 73 -44.5 ZM238 946 l-93 -136 q-23 22 -70.5 45 q-47.5 23 -84.5 27 l90 136 q46 -9 85 -26.5 q39 -17.5 73 -45.5 ZM302 163 q-40 -69 -125.5 -116 q-85.5 -47 -210.5 -47 q-13 1 -18.5 12.5 q-5.5 11.5 -5.5 28.5 q0 46 30.5 109.5 q30.5 63.5 59.5 63.5 q137 0 191.5 34.5 q54.5 34.5 54.5 44.5 q0 22 -32 95 q-32 73 -99 132 l91 182 q72 -67 97.5 -141.5 q25.5 -74.5 25.5 -157.5 q0 -44 -12 -111 q-12 -67 -47 -129 Z" /><glyph glyph-name="uniFE9C" unicode="&#xfe9c;" d="M415 889 l-96 -140 q-23 23 -72 46 q-49 23 -87 27 l93 140 q46 -10 86.5 -27.5 q40.5 -17.5 75.5 -45.5 ZM550 668 l-93 -136 q-23 22 -70.5 44.5 q-47.5 22.5 -84.5 26.5 l90 137 q46 -10 85 -27.5 q39 -17.5 73 -44.5 ZM303 657 l-93 -136 q-23 22 -70.5 45 q-47.5 23 -84.5 27 l90 136 q46 -9 85 -26.5 q39 -17.5 73 -45.5 ZM638 214 q13 0 19 -12 q6 -12 6 -29 q0 -46 -30 -109.5 q-30 -63.5 -59 -63.5 q-127 0 -186.5 45 q-59.5 45 -79.5 98 q-28 -46 -103.5 -94.5 q-75.5 -48.5 -235.5 -48.5 q-14 0 -20.5 11 q-6.5 11 -6.5 29 q0 46 30.5 110 q30.5 64 59.5 64 q148 0 210 51 q62 51 87 140 l54 14 q-2 -8 -3.5 -20 q-1.5 -12 -1.5 -27 q0 -95 84.5 -126.5 q84.5 -31.5 175.5 -31.5 Z" /><glyph glyph-name="uni062C" unicode="&#x62c;" d="M758 576 l6 9 q-128 30 -228.5 64 q-100.5 34 -187.5 34 q-77 0 -116 -41.5 q-39 -41.5 -49 -108.5 l-58 34 q10 101 56.5 193.5 q46.5 92.5 186.5 92.5 q150 0 377.5 -88.5 q227.5 -88.5 444.5 -108.5 l-99 -187 q-431 -15 -640 -181.5 q-209 -166.5 -209 -267.5 q0 -107 126.5 -211.5 q126.5 -104.5 388.5 -104.5 q190 0 298 34.5 q108 34.5 148 74.5 l-11 -75 q-60 -87 -179.5 -177.5 q-119.5 -90.5 -341.5 -90.5 q-243 0 -378.5 136.5 q-135.5 136.5 -135.5 372.5 q0 208 148.5 367.5 q148.5 159.5 452.5 229.5 ZM848 91 l-108 -156 q-25 25 -79.5 51.5 q-54.5 26.5 -97.5 30.5 l104 157 q51 -10 96 -31 q45 -21 85 -52 Z" /><glyph glyph-name="uniFE9E" unicode="&#xfe9e;" d="M758 576 l6 9 q-128 30 -228.5 64 q-100.5 34 -187.5 34 q-77 0 -116 -41.5 q-39 -41.5 -49 -108.5 l-58 34 q10 101 56.5 193.5 q46.5 92.5 186.5 92.5 q150 0 377.5 -88.5 q227.5 -88.5 444.5 -108.5 l-99 -187 q-36 -1 -70.5 -4 q-34.5 -3 -67.5 -7 q-2 -14 -3 -29 q-1 -15 -1 -26 q0 -93 73.5 -141 q73.5 -48 234.5 -48 l20 0 q12 -1 17.5 -13 q5.5 -12 5.5 -28 q0 -46 -30 -109.5 q-30 -63.5 -59 -63.5 l-11 0 q-178 0 -254.5 81.5 q-76.5 81.5 -76.5 215.5 q0 34 5 73 q5 39 14 79 q-327 -53 -486.5 -197 q-159.5 -144 -159.5 -232 q0 -107 126.5 -211.5 q126.5 -104.5 388.5 -104.5 q190 0 298 34.5 q108 34.5 148 74.5 l-11 -75 q-60 -87 -179.5 -177.5 q-119.5 -90.5 -341.5 -90.5 q-243 0 -378.5 136.5 q-135.5 136.5 -135.5 372.5 q0 208 148.5 367.5 q148.5 159.5 452.5 229.5 ZM778 76 l-108 -156 q-25 25 -79.5 51.5 q-54.5 26.5 -97.5 30.5 l104 157 q51 -10 96 -31 q45 -21 85 -52 Z" /><glyph glyph-name="uniFE9F" unicode="&#xfe9f;" d="M10 0 l-41 0 q-14 0 -20.5 11.5 q-6.5 11.5 -6.5 28.5 q0 46 30.5 110 q30.5 64 59.5 64 l17 0 q225 0 387.5 62.5 q162.5 62.5 325.5 164.5 q-118 28 -253 79.5 q-135 51.5 -201 51.5 q-57 0 -89.5 -31 q-32.5 -31 -53.5 -88 l-45 47 q44 131 91 183 q47 52 128 52 q125 0 326 -86.5 q201 -86.5 389 -86.5 l-96 -166 q-22 4 -34.5 5.5 q-12.5 1.5 -22.5 1.5 q-51 0 -130 -56.5 q-79 -56.5 -163 -119.5 q-113 -85 -269 -156 q-156 -71 -329 -71 ZM589 -236 l-108 -156 q-25 25 -79.5 51.5 q-54.5 26.5 -97.5 30.5 l104 157 q51 -10 96 -31 q45 -21 85 -52 Z" /><glyph glyph-name="uniFEA0" unicode="&#xfea0;" d="M10 0 l-41 0 q-14 0 -20.5 11.5 q-6.5 11.5 -6.5 28.5 q0 46 30.5 110 q30.5 64 59.5 64 l17 0 q225 0 387.5 62.5 q162.5 62.5 325.5 164.5 q-118 28 -253 79.5 q-135 51.5 -201 51.5 q-57 0 -89.5 -31 q-32.5 -31 -53.5 -88 l-45 47 q44 131 91 183 q47 52 128 52 q125 0 326 -86.5 q201 -86.5 389 -86.5 l-96 -166 q-22 4 -34.5 5.5 q-12.5 1.5 -22.5 1.5 q-35 0 -82.5 -27 q-47.5 -27 -97.5 -63 q49 -61 170.5 -80 q121.5 -19 197.5 -19 l17 0 q13 0 19.5 -12 q6.5 -12 6.5 -29 q0 -46 -30 -109.5 q-30 -63.5 -59 -63.5 l-20 0 q-152 0 -256 66.5 q-104 66.5 -139 175.5 q-125 -98 -289 -170 q-164 -72 -329 -72 ZM656 -236 l-108 -156 q-25 25 -79.5 51.5 q-54.5 26.5 -97.5 30.5 l104 157 q51 -10 96 -31 q45 -21 85 -52 Z" /><glyph glyph-name="uni0686" unicode="&#x686;" d="M758 576 l6 9 q-128 30 -228.5 64 q-100.5 34 -187.5 34 q-77 0 -116 -41.5 q-39 -41.5 -49 -108.5 l-58 34 q10 101 56.5 193.5 q46.5 92.5 186.5 92.5 q150 0 377.5 -88.5 q227.5 -88.5 444.5 -108.5 l-99 -187 q-431 -15 -640 -181.5 q-209 -166.5 -209 -267.5 q0 -107 126.5 -211.5 q126.5 -104.5 388.5 -104.5 q190 0 298 34.5 q108 34.5 148 74.5 l-11 -75 q-60 -87 -179.5 -177.5 q-119.5 -90.5 -341.5 -90.5 q-243 0 -378.5 136.5 q-135.5 136.5 -135.5 372.5 q0 208 148.5 367.5 q148.5 159.5 452.5 229.5 ZM962 166 l-92 -131 q-22 22 -68 43.5 q-46 21.5 -82 25.5 l88 132 q44 -8 82 -25.5 q38 -17.5 72 -44.5 ZM722 157 l-91 -132 q-22 22 -68.5 43.5 q-46.5 21.5 -81.5 25.5 l87 133 q44 -10 82 -27 q38 -17 72 -43 ZM870 -48 l-93 -135 q-23 22 -70.5 44.5 q-47.5 22.5 -84.5 26.5 l90 135 q46 -9 85 -26.5 q39 -17.5 73 -44.5 Z" /><glyph glyph-name="uniFB7B" unicode="&#xfb7b;" d="M758 576 l6 9 q-128 30 -228.5 64 q-100.5 34 -187.5 34 q-77 0 -116 -41.5 q-39 -41.5 -49 -108.5 l-58 34 q10 101 56.5 193.5 q46.5 92.5 186.5 92.5 q150 0 377.5 -88.5 q227.5 -88.5 444.5 -108.5 l-99 -187 q-36 -1 -70.5 -4 q-34.5 -3 -67.5 -7 q-2 -14 -3 -29 q-1 -15 -1 -26 q0 -93 73.5 -141 q73.5 -48 234.5 -48 l20 0 q12 -1 17.5 -13 q5.5 -12 5.5 -28 q0 -46 -30 -109.5 q-30 -63.5 -59 -63.5 l-11 0 q-178 0 -254.5 81.5 q-76.5 81.5 -76.5 215.5 q0 34 5 73 q5 39 14 79 q-327 -53 -486.5 -197 q-159.5 -144 -159.5 -232 q0 -107 126.5 -211.5 q126.5 -104.5 388.5 -104.5 q190 0 298 34.5 q108 34.5 148 74.5 l-11 -75 q-60 -87 -179.5 -177.5 q-119.5 -90.5 -341.5 -90.5 q-243 0 -378.5 136.5 q-135.5 136.5 -135.5 372.5 q0 208 148.5 367.5 q148.5 159.5 452.5 229.5 ZM846 137 l-85 -122 q-20 20 -63 40 q-43 20 -77 24 l82 123 q40 -8 76 -24 q36 -16 67 -41 ZM625 128 l-85 -122 q-20 20 -63 40 q-43 20 -76 24 l81 123 q41 -8 76.5 -24 q35.5 -16 66.5 -41 ZM762 -62 l-86 -126 q-22 21 -66 41.5 q-44 20.5 -78 24.5 l83 126 q43 -9 79 -25 q36 -16 68 -41 Z" /><glyph glyph-name="uniFB7C" unicode="&#xfb7c;" d="M10 0 l-41 0 q-14 0 -20.5 11.5 q-6.5 11.5 -6.5 28.5 q0 46 30.5 110 q30.5 64 59.5 64 l17 0 q225 0 387.5 62.5 q162.5 62.5 325.5 164.5 q-118 28 -253 79.5 q-135 51.5 -201 51.5 q-57 0 -89.5 -31 q-32.5 -31 -53.5 -88 l-45 47 q44 131 91 183 q47 52 128 52 q125 0 326 -86.5 q201 -86.5 389 -86.5 l-96 -166 q-22 4 -34.5 5.5 q-12.5 1.5 -22.5 1.5 q-51 0 -130 -56.5 q-79 -56.5 -163 -119.5 q-113 -85 -269 -156 q-156 -71 -329 -71 ZM719 -199 l-93 -136 q-23 22 -70.5 45 q-47.5 23 -84.5 27 l90 136 q46 -9 85 -26.5 q39 -17.5 73 -45.5 ZM472 -209 l-93 -136 q-23 22 -70.5 44.5 q-47.5 22.5 -84.5 26.5 l90 137 q46 -10 85 -27.5 q39 -17.5 73 -44.5 ZM625 -420 l-96 -140 q-23 23 -72 46 q-49 23 -87 27 l93 140 q46 -10 86.5 -27.5 q40.5 -17.5 75.5 -45.5 Z" /><glyph glyph-name="uniFB7D" unicode="&#xfb7d;" d="M10 0 l-41 0 q-14 0 -20.5 11.5 q-6.5 11.5 -6.5 28.5 q0 46 30.5 110 q30.5 64 59.5 64 l17 0 q225 0 387.5 62.5 q162.5 62.5 325.5 164.5 q-118 28 -253 79.5 q-135 51.5 -201 51.5 q-57 0 -89.5 -31 q-32.5 -31 -53.5 -88 l-45 47 q44 131 91 183 q47 52 128 52 q125 0 326 -86.5 q201 -86.5 389 -86.5 l-96 -166 q-22 4 -34.5 5.5 q-12.5 1.5 -22.5 1.5 q-35 0 -82.5 -27 q-47.5 -27 -97.5 -63 q49 -61 170.5 -80 q121.5 -19 197.5 -19 l17 0 q13 0 19.5 -12 q6.5 -12 6.5 -29 q0 -46 -30 -109.5 q-30 -63.5 -59 -63.5 l-20 0 q-152 0 -256 66.5 q-104 66.5 -139 175.5 q-125 -98 -289 -170 q-164 -72 -329 -72 ZM747 -199 l-93 -136 q-23 22 -70.5 45 q-47.5 23 -84.5 27 l90 136 q46 -9 85 -26.5 q39 -17.5 73 -45.5 ZM500 -209 l-93 -136 q-23 22 -70.5 44.5 q-47.5 22.5 -84.5 26.5 l90 137 q46 -10 85 -27.5 q39 -17.5 73 -44.5 ZM653 -420 l-96 -140 q-23 23 -72 46 q-49 23 -87 27 l93 140 q46 -10 86.5 -27.5 q40.5 -17.5 75.5 -45.5 Z" /><glyph glyph-name="uni062D" unicode="&#x62d;" d="M758 576 l6 9 q-128 30 -228.5 64 q-100.5 34 -187.5 34 q-77 0 -116 -41.5 q-39 -41.5 -49 -108.5 l-58 34 q10 101 56.5 193.5 q46.5 92.5 186.5 92.5 q150 0 377.5 -88.5 q227.5 -88.5 444.5 -108.5 l-99 -187 q-431 -15 -640 -181.5 q-209 -166.5 -209 -267.5 q0 -107 126.5 -211.5 q126.5 -104.5 388.5 -104.5 q190 0 298 34.5 q108 34.5 148 74.5 l-11 -75 q-60 -87 -179.5 -177.5 q-119.5 -90.5 -341.5 -90.5 q-243 0 -378.5 136.5 q-135.5 136.5 -135.5 372.5 q0 208 148.5 367.5 q148.5 159.5 452.5 229.5 Z" /><glyph glyph-name="uniFEA2" unicode="&#xfea2;" d="M758 576 l6 9 q-128 30 -228.5 64 q-100.5 34 -187.5 34 q-77 0 -116 -41.5 q-39 -41.5 -49 -108.5 l-58 34 q10 101 56.5 193.5 q46.5 92.5 186.5 92.5 q150 0 377.5 -88.5 q227.5 -88.5 444.5 -108.5 l-99 -187 q-36 -1 -70.5 -4 q-34.5 -3 -67.5 -7 q-2 -14 -3 -29 q-1 -15 -1 -26 q0 -93 73.5 -141 q73.5 -48 234.5 -48 l20 0 q12 -1 17.5 -13 q5.5 -12 5.5 -28 q0 -46 -30 -109.5 q-30 -63.5 -59 -63.5 l-11 0 q-178 0 -254.5 81.5 q-76.5 81.5 -76.5 215.5 q0 34 5 73 q5 39 14 79 q-327 -53 -486.5 -197 q-159.5 -144 -159.5 -232 q0 -107 126.5 -211.5 q126.5 -104.5 388.5 -104.5 q190 0 298 34.5 q108 34.5 148 74.5 l-11 -75 q-60 -87 -179.5 -177.5 q-119.5 -90.5 -341.5 -90.5 q-243 0 -378.5 136.5 q-135.5 136.5 -135.5 372.5 q0 208 148.5 367.5 q148.5 159.5 452.5 229.5 Z" /><glyph glyph-name="uniFEA3" unicode="&#xfea3;" d="M10 0 l-41 0 q-14 0 -20.5 11.5 q-6.5 11.5 -6.5 28.5 q0 46 30.5 110 q30.5 64 59.5 64 l17 0 q225 0 387.5 62.5 q162.5 62.5 325.5 164.5 q-118 28 -253 79.5 q-135 51.5 -201 51.5 q-57 0 -89.5 -31 q-32.5 -31 -53.5 -88 l-45 47 q44 131 91 183 q47 52 128 52 q125 0 326 -86.5 q201 -86.5 389 -86.5 l-96 -166 q-22 4 -34.5 5.5 q-12.5 1.5 -22.5 1.5 q-51 0 -130 -56.5 q-79 -56.5 -163 -119.5 q-113 -85 -269 -156 q-156 -71 -329 -71 Z" /><glyph glyph-name="uniFEA4" unicode="&#xfea4;" d="M10 0 l-41 0 q-14 0 -20.5 11.5 q-6.5 11.5 -6.5 28.5 q0 46 30.5 110 q30.5 64 59.5 64 l17 0 q225 0 387.5 62.5 q162.5 62.5 325.5 164.5 q-118 28 -253 79.5 q-135 51.5 -201 51.5 q-57 0 -89.5 -31 q-32.5 -31 -53.5 -88 l-45 47 q44 131 91 183 q47 52 128 52 q125 0 326 -86.5 q201 -86.5 389 -86.5 l-96 -166 q-22 4 -34.5 5.5 q-12.5 1.5 -22.5 1.5 q-35 0 -82.5 -27 q-47.5 -27 -97.5 -63 q49 -61 170.5 -80 q121.5 -19 197.5 -19 l17 0 q13 0 19.5 -12 q6.5 -12 6.5 -29 q0 -46 -30 -109.5 q-30 -63.5 -59 -63.5 l-20 0 q-152 0 -256 66.5 q-104 66.5 -139 175.5 q-125 -98 -289 -170 q-164 -72 -329 -72 Z" /><glyph glyph-name="uni062E" unicode="&#x62e;" d="M802 1167 l-108 -156 q-25 25 -79.5 51.5 q-54.5 26.5 -97.5 30.5 l104 157 q51 -10 96 -31 q45 -21 85 -52 ZM758 576 l6 9 q-128 30 -228.5 64 q-100.5 34 -187.5 34 q-77 0 -116 -41.5 q-39 -41.5 -49 -108.5 l-58 34 q10 101 56.5 193.5 q46.5 92.5 186.5 92.5 q150 0 377.5 -88.5 q227.5 -88.5 444.5 -108.5 l-99 -187 q-431 -15 -640 -181.5 q-209 -166.5 -209 -267.5 q0 -107 126.5 -211.5 q126.5 -104.5 388.5 -104.5 q190 0 298 34.5 q108 34.5 148 74.5 l-11 -75 q-60 -87 -179.5 -177.5 q-119.5 -90.5 -341.5 -90.5 q-243 0 -378.5 136.5 q-135.5 136.5 -135.5 372.5 q0 208 148.5 367.5 q148.5 159.5 452.5 229.5 Z" /><glyph glyph-name="uniFEA6" unicode="&#xfea6;" d="M807 1172 l-108 -156 q-25 25 -79.5 51.5 q-54.5 26.5 -97.5 30.5 l104 157 q51 -10 96 -31 q45 -21 85 -52 ZM758 576 l6 9 q-128 30 -228.5 64 q-100.5 34 -187.5 34 q-77 0 -116 -41.5 q-39 -41.5 -49 -108.5 l-58 34 q10 101 56.5 193.5 q46.5 92.5 186.5 92.5 q150 0 377.5 -88.5 q227.5 -88.5 444.5 -108.5 l-99 -187 q-36 -1 -70.5 -4 q-34.5 -3 -67.5 -7 q-2 -14 -3 -29 q-1 -15 -1 -26 q0 -93 73.5 -141 q73.5 -48 234.5 -48 l20 0 q12 -1 17.5 -13 q5.5 -12 5.5 -28 q0 -46 -30 -109.5 q-30 -63.5 -59 -63.5 l-11 0 q-178 0 -254.5 81.5 q-76.5 81.5 -76.5 215.5 q0 34 5 73 q5 39 14 79 q-327 -53 -486.5 -197 q-159.5 -144 -159.5 -232 q0 -107 126.5 -211.5 q126.5 -104.5 388.5 -104.5 q190 0 298 34.5 q108 34.5 148 74.5 l-11 -75 q-60 -87 -179.5 -177.5 q-119.5 -90.5 -341.5 -90.5 q-243 0 -378.5 136.5 q-135.5 136.5 -135.5 372.5 q0 208 148.5 367.5 q148.5 159.5 452.5 229.5 Z" /><glyph glyph-name="uniFEA7" unicode="&#xfea7;" d="M677 1057 l-108 -156 q-25 25 -79.5 51.5 q-54.5 26.5 -97.5 30.5 l104 157 q51 -10 96 -31 q45 -21 85 -52 ZM10 0 l-41 0 q-14 0 -20.5 11.5 q-6.5 11.5 -6.5 28.5 q0 46 30.5 110 q30.5 64 59.5 64 l17 0 q225 0 387.5 62.5 q162.5 62.5 325.5 164.5 q-118 28 -253 79.5 q-135 51.5 -201 51.5 q-57 0 -89.5 -31 q-32.5 -31 -53.5 -88 l-45 47 q44 131 91 183 q47 52 128 52 q125 0 326 -86.5 q201 -86.5 389 -86.5 l-96 -166 q-22 4 -34.5 5.5 q-12.5 1.5 -22.5 1.5 q-51 0 -130 -56.5 q-79 -56.5 -163 -119.5 q-113 -85 -269 -156 q-156 -71 -329 -71 Z" /><glyph glyph-name="uniFEA8" unicode="&#xfea8;" d="M665 1067 l-108 -156 q-25 25 -79.5 51.5 q-54.5 26.5 -97.5 30.5 l104 157 q51 -10 96 -31 q45 -21 85 -52 ZM10 0 l-41 0 q-14 0 -20.5 11.5 q-6.5 11.5 -6.5 28.5 q0 46 30.5 110 q30.5 64 59.5 64 l17 0 q225 0 387.5 62.5 q162.5 62.5 325.5 164.5 q-118 28 -253 79.5 q-135 51.5 -201 51.5 q-57 0 -89.5 -31 q-32.5 -31 -53.5 -88 l-45 47 q44 131 91 183 q47 52 128 52 q125 0 326 -86.5 q201 -86.5 389 -86.5 l-96 -166 q-22 4 -34.5 5.5 q-12.5 1.5 -22.5 1.5 q-35 0 -82.5 -27 q-47.5 -27 -97.5 -63 q49 -61 170.5 -80 q121.5 -19 197.5 -19 l17 0 q13 0 19.5 -12 q6.5 -12 6.5 -29 q0 -46 -30 -109.5 q-30 -63.5 -59 -63.5 l-20 0 q-152 0 -256 66.5 q-104 66.5 -139 175.5 q-125 -98 -289 -170 q-164 -72 -329 -72 Z" /><glyph glyph-name="uni062F" unicode="&#x62f;" d="M682 143 q-32 -69 -122 -114 q-90 -45 -217 -45 q-136 0 -177 58.5 q-41 58.5 -41 139.5 q0 40 3.5 71 q3.5 31 15.5 94 l54 18 q-1 -12 -3 -27.5 q-2 -15.5 -2 -28.5 q0 -54 31.5 -82.5 q31.5 -28.5 147.5 -28.5 q153 0 214 40.5 q61 40.5 61 52.5 q-2 28 -64.5 156.5 q-62.5 128.5 -282.5 245.5 l56 171 q198 -102 284.5 -228.5 q86.5 -126.5 86.5 -263.5 q0 -57 -12 -120.5 q-12 -63.5 -33 -108.5 Z" /><glyph glyph-name="uniFEAA" unicode="&#xfeaa;" d="M149 345 l51 13 q-1 -13 -2 -24 q-1 -11 -1 -21 q0 -58 28.5 -85.5 q28.5 -27.5 132.5 -27.5 q125 0 175 32.5 q50 32.5 50 45.5 q0 25 -45 179.5 q-45 154.5 -71 244.5 q2 34 31.5 93.5 q29.5 59.5 54.5 96.5 q21 -66 45 -147 q24 -81 61 -209 q58 -202 104 -262 q46 -60 161 -60 q14 0 20 -12 q6 -12 6 -30 q0 -46 -30 -109 q-30 -63 -59 -63 q-135 0 -185 77 q-50 77 -62 123 q-6 -38 -17.5 -74.5 q-11.5 -36.5 -27.5 -55.5 q-25 -28 -88 -57 q-63 -29 -151 -29 q-105 0 -155 43 q-50 43 -50 130 q0 57 8.5 105.5 q8.5 48.5 15.5 82.5 Z" /><glyph glyph-name="uni0630" unicode="&#x630;" d="M511 1201 l-108 -156 q-25 25 -79.5 51.5 q-54.5 26.5 -97.5 30.5 l104 157 q51 -10 96 -31 q45 -21 85 -52 ZM682 143 q-32 -69 -122 -114 q-90 -45 -217 -45 q-136 0 -177 58.5 q-41 58.5 -41 139.5 q0 40 3.5 71 q3.5 31 15.5 94 l54 18 q-1 -12 -3 -27.5 q-2 -15.5 -2 -28.5 q0 -54 31.5 -82.5 q31.5 -28.5 147.5 -28.5 q153 0 214 40.5 q61 40.5 61 52.5 q-2 28 -64.5 156.5 q-62.5 128.5 -282.5 245.5 l56 171 q198 -102 284.5 -228.5 q86.5 -126.5 86.5 -263.5 q0 -57 -12 -120.5 q-12 -63.5 -33 -108.5 Z" /><glyph glyph-name="uniFEAC" unicode="&#xfeac;" d="M662 1171 l-108 -156 q-25 25 -79.5 51.5 q-54.5 26.5 -97.5 30.5 l104 157 q51 -10 96 -31 q45 -21 85 -52 ZM149 345 l51 13 q-1 -13 -2 -24 q-1 -11 -1 -21 q0 -58 28.5 -85.5 q28.5 -27.5 132.5 -27.5 q125 0 175 32.5 q50 32.5 50 45.5 q0 25 -45 179.5 q-45 154.5 -71 244.5 q2 34 31.5 93.5 q29.5 59.5 54.5 96.5 q21 -66 45 -147 q24 -81 61 -209 q58 -202 104 -262 q46 -60 161 -60 q14 0 20 -12 q6 -12 6 -30 q0 -46 -30 -109 q-30 -63 -59 -63 q-135 0 -185 77 q-50 77 -62 123 q-6 -38 -17.5 -74.5 q-11.5 -36.5 -27.5 -55.5 q-25 -28 -88 -57 q-63 -29 -151 -29 q-105 0 -155 43 q-50 43 -50 130 q0 57 8.5 105.5 q8.5 48.5 15.5 82.5 Z" /><glyph glyph-name="uni0631" unicode="&#x631;" d="M619 68 q0 28 -48.5 138.5 q-48.5 110.5 -151.5 198.5 l77 187 q93 -69 144 -200 q51 -131 51 -259 q0 -347 -142 -482 q-142 -135 -264 -135 q-94 0 -147 48.5 q-53 48.5 -99 71.5 l-14 49 q22 -4 34.5 -6.5 q12.5 -2.5 34.5 -2.5 q272 0 398.5 173 q126.5 173 126.5 219 Z" /><glyph glyph-name="uniFEAE" unicode="&#xfeae;" d="M780 0 q-19 0 -55 7.5 q-36 7.5 -55 19.5 q-11 -281 -140 -396 q-129 -115 -241 -115 q-94 0 -148 47 q-54 47 -102 72 l-14 49 q22 -4 39.5 -6.5 q17.5 -2.5 39.5 -2.5 q257 0 375.5 150 q118.5 150 119.5 184 q0 23 -42.5 83 q-42.5 60 -119.5 150 l91 177 q39 -71 105.5 -138 q66.5 -67 209.5 -67 q14 0 20 -11.5 q6 -11.5 6 -29.5 q0 -46 -30.5 -109.5 q-30.5 -63.5 -58.5 -63.5 Z" /><glyph glyph-name="uni0632" unicode="&#x632;" d="M606 896 l-108 -156 q-25 25 -79.5 51.5 q-54.5 26.5 -97.5 30.5 l104 157 q51 -10 96 -31 q45 -21 85 -52 ZM619 68 q0 28 -48.5 138.5 q-48.5 110.5 -151.5 198.5 l77 187 q93 -69 144 -200 q51 -131 51 -259 q0 -347 -142 -482 q-142 -135 -264 -135 q-94 0 -147 48.5 q-53 48.5 -99 71.5 l-14 49 q22 -4 34.5 -6.5 q12.5 -2.5 34.5 -2.5 q272 0 398.5 173 q126.5 173 126.5 219 Z" /><glyph glyph-name="uniFEB0" unicode="&#xfeb0;" d="M631 697 l-108 -156 q-25 25 -79.5 51.5 q-54.5 26.5 -97.5 30.5 l104 157 q51 -10 96 -31 q45 -21 85 -52 ZM769 0 q-19 0 -55 7.5 q-36 7.5 -55 19.5 q-11 -281 -140 -396 q-129 -115 -241 -115 q-94 0 -148 47 q-54 47 -102 72 l-14 49 q22 -4 39.5 -6.5 q17.5 -2.5 39.5 -2.5 q257 0 375.5 150 q118.5 150 119.5 184 q0 23 -42.5 83 q-42.5 60 -119.5 150 l91 177 q39 -71 105.5 -138 q66.5 -67 209.5 -67 q14 0 20 -11.5 q6 -11.5 6 -29.5 q0 -46 -30.5 -109.5 q-30.5 -63.5 -58.5 -63.5 Z" /><glyph glyph-name="uni0698" unicode="&#x698;" d="M581 1055 l-96 -140 q-23 23 -72 46 q-49 23 -87 27 l93 140 q46 -10 86.5 -27.5 q40.5 -17.5 75.5 -45.5 ZM716 834 l-93 -136 q-23 22 -70.5 44.5 q-47.5 22.5 -84.5 26.5 l90 137 q46 -10 85 -27.5 q39 -17.5 73 -44.5 ZM469 823 l-93 -136 q-23 22 -70.5 45 q-47.5 23 -84.5 27 l90 136 q46 -9 85 -26.5 q39 -17.5 73 -45.5 ZM614 68 q0 28 -48.5 138.5 q-48.5 110.5 -151.5 198.5 l77 187 q93 -69 144 -200 q51 -131 51 -259 q0 -347 -142 -482 q-142 -135 -264 -135 q-94 0 -147 48.5 q-53 48.5 -99 71.5 l-14 49 q22 -4 34.5 -6.5 q12.5 -2.5 34.5 -2.5 q272 0 398.5 173 q126.5 173 126.5 219 Z" /><glyph glyph-name="uniFB8B" unicode="&#xfb8b;" d="M597 883 l-96 -140 q-23 23 -72 46 q-49 23 -87 27 l93 140 q46 -10 86.5 -27.5 q40.5 -17.5 75.5 -45.5 ZM732 662 l-93 -136 q-23 22 -70.5 44.5 q-47.5 22.5 -84.5 26.5 l90 137 q46 -10 85 -27.5 q39 -17.5 73 -44.5 ZM485 651 l-93 -136 q-23 22 -70.5 45 q-47.5 23 -84.5 27 l90 136 q46 -9 85 -26.5 q39 -17.5 73 -45.5 ZM767 0 q-19 0 -55.5 7.5 q-36.5 7.5 -55.5 19.5 q-11 -281 -140 -396 q-129 -115 -241 -115 q-93 0 -147.5 47 q-54.5 47 -102.5 72 l-13 49 q22 -4 39.5 -6.5 q17.5 -2.5 39.5 -2.5 q257 0 375.5 150 q118.5 150 119.5 184 q0 23 -42.5 83 q-42.5 60 -119.5 150 l91 177 q39 -71 105.5 -138 q66.5 -67 209.5 -67 q14 0 20 -11.5 q6 -11.5 6 -29.5 q0 -46 -30.5 -109.5 q-30.5 -63.5 -58.5 -63.5 Z" /><glyph glyph-name="uni0633" unicode="&#x633;" d="M1222 216 q99 0 155.5 57.5 q56.5 57.5 84.5 157.5 l57 14 q-2 -10 -3.5 -34.5 q-1.5 -24.5 -1.5 -34.5 q0 -54 40.5 -101.5 q40.5 -47.5 123.5 -47.5 q69 0 99.5 31.5 q30.5 31.5 30.5 47.5 q0 22 -31.5 93.5 q-31.5 71.5 -95.5 128.5 l87 171 q65 -55 94.5 -140 q29.5 -85 29.5 -155 q0 -169 -74.5 -280 q-74.5 -111 -197.5 -111 q-89 0 -139.5 34 q-50.5 34 -71.5 70 q-31 -43 -88.5 -80 q-57.5 -37 -154.5 -37 q-33 0 -69.5 8 q-36.5 8 -63.5 19 q-4 -35 -9 -69 q-5 -34 -9 -52 q-39 -178 -170 -288 q-131 -110 -332 -110 q-205 0 -296.5 116.5 q-91.5 116.5 -91.5 281.5 q0 77 18 159 q18 82 49 161 l69 24 q-18 -56 -35 -128.5 q-17 -72.5 -17 -130.5 q0 -101 69.5 -184 q69.5 -83 276.5 -83 q235 0 312 108 q77 108 77 130 q0 16 -23.5 89 q-23.5 73 -101.5 180 l93 192 q53 -97 131.5 -152 q78.5 -55 178.5 -55 Z" /><glyph glyph-name="uniFEB2" unicode="&#xfeb2;" d="M912 423 q53 -97 129.5 -152 q76.5 -55 166.5 -55 q113 0 169 58 q56 58 84 161 l58 13 q-3 -12 -4.5 -38.5 q-1.5 -26.5 -1.5 -38.5 q0 -54 33 -102.5 q33 -48.5 113 -48.5 q93 0 128 76.5 q35 76.5 44 153.5 l58 15 q-1 -11 -2 -36 q-1 -25 -1 -35 q0 -93 67 -136.5 q67 -43.5 185 -43.5 l19 0 q13 0 19.5 -12 q6.5 -12 6.5 -29 q0 -46 -30.5 -109.5 q-30.5 -63.5 -59.5 -63.5 l-6 0 q-115 0 -180 44.5 q-65 44.5 -91 94.5 q-25 -51 -75.5 -95 q-50.5 -44 -131.5 -44 q-95 0 -137 40 q-42 40 -64 77 q-32 -40 -82 -78.5 q-50 -38.5 -165 -38.5 q-33 0 -67 8 q-34 8 -61 19 q-4 -36 -9 -69 q-5 -33 -9 -52 q-40 -178 -170.5 -288 q-130.5 -110 -331.5 -110 q-204 0 -296 116.5 q-92 116.5 -92 280.5 q0 77 18.5 159.5 q18.5 82.5 48.5 161.5 l70 24 q-19 -56 -36 -129 q-17 -73 -17 -131 q0 -101 70 -183.5 q70 -82.5 277 -82.5 q234 0 311 108 q77 108 77 130 q0 16 -23.5 89 q-23.5 73 -101.5 180 l93 192 Z" /><glyph glyph-name="uniFEB3" unicode="&#xfeb3;" d="M582 215 q118 0 171 61.5 q53 61.5 79 154.5 l57 13 q-2 -10 -3.5 -34.5 q-1.5 -24.5 -1.5 -34.5 q0 -54 40.5 -101 q40.5 -47 123.5 -47 q69 0 99.5 31.5 q30.5 31.5 30.5 46.5 q0 23 -31.5 94.5 q-31.5 71.5 -95.5 128.5 l87 171 q65 -55 94.5 -140 q29.5 -85 29.5 -155 q0 -169 -79.5 -280.5 q-79.5 -111.5 -202.5 -111.5 q-89 0 -134.5 34 q-45.5 34 -66.5 71 q-31 -43 -96 -80 q-65 -37 -172 -37 q-86 0 -140.5 33.5 q-54.5 33.5 -75.5 79.5 q-37 -45 -103 -79 q-66 -34 -174 -34 l-50 0 q-13 0 -19.5 11.5 q-6.5 11.5 -6.5 28.5 q0 46 30.5 110 q30.5 64 59.5 64 l19 0 q137 0 200 50.5 q63 50.5 94 134.5 l54 15 q-1 -7 -2 -24.5 q-1 -17.5 -1 -24.5 q0 -57 43.5 -103.5 q43.5 -46.5 142.5 -46.5 Z" /><glyph glyph-name="uniFEB4" unicode="&#xfeb4;" d="M1201 450 l56 15 q-1 -11 -2 -36 q-1 -25 -1 -35 q0 -93 67 -136.5 q67 -43.5 185 -43.5 l19 0 q13 0 19.5 -12 q6.5 -12 6.5 -29 q0 -46 -30.5 -109.5 q-30.5 -63.5 -59.5 -63.5 l-6 0 q-114 0 -179 44 q-65 44 -91 93 q-25 -50 -75.5 -93.5 q-50.5 -43.5 -130.5 -43.5 q-95 0 -137.5 40 q-42.5 40 -63.5 77 q-32 -40 -92.5 -78.5 q-60.5 -38.5 -174.5 -38.5 q-86 0 -140.5 33.5 q-54.5 33.5 -75.5 79.5 q-37 -45 -103 -79 q-66 -34 -174 -34 l-50 0 q-13 0 -19.5 11.5 q-6.5 11.5 -6.5 28.5 q0 46 30.5 110 q30.5 64 59.5 64 l19 0 q137 0 200 50.5 q63 50.5 94 134.5 l54 15 q-1 -7 -2 -24.5 q-1 -17.5 -1 -24.5 q0 -57 41.5 -103.5 q41.5 -46.5 144.5 -46.5 q113 0 167 56 q54 56 82 159 l58 13 q-3 -12 -4.5 -38.5 q-1.5 -26.5 -1.5 -38.5 q0 -53 33 -99.5 q33 -46.5 113 -46.5 q93 0 127.5 76.5 q34.5 76.5 44.5 153.5 Z" /><glyph glyph-name="uni0634" unicode="&#x634;" d="M1454 985 l-96 -140 q-23 23 -72 46 q-49 23 -87 27 l93 140 q46 -10 86.5 -27.5 q40.5 -17.5 75.5 -45.5 ZM1589 764 l-93 -136 q-23 22 -70.5 44.5 q-47.5 22.5 -84.5 26.5 l90 137 q46 -10 85 -27.5 q39 -17.5 73 -44.5 ZM1342 753 l-93 -136 q-23 22 -70.5 45 q-47.5 23 -84.5 27 l90 136 q46 -9 85 -26.5 q39 -17.5 73 -45.5 ZM1222 216 q99 0 155.5 57.5 q56.5 57.5 84.5 157.5 l57 14 q-2 -10 -3.5 -34.5 q-1.5 -24.5 -1.5 -34.5 q0 -54 40.5 -101.5 q40.5 -47.5 123.5 -47.5 q69 0 99.5 31.5 q30.5 31.5 30.5 47.5 q0 22 -31.5 93.5 q-31.5 71.5 -95.5 128.5 l87 171 q65 -55 94.5 -140 q29.5 -85 29.5 -155 q0 -169 -74.5 -280 q-74.5 -111 -197.5 -111 q-89 0 -139.5 34 q-50.5 34 -71.5 70 q-31 -43 -88.5 -80 q-57.5 -37 -154.5 -37 q-33 0 -69.5 8 q-36.5 8 -63.5 19 q-4 -35 -9 -69 q-5 -34 -9 -52 q-39 -178 -170 -288 q-131 -110 -332 -110 q-205 0 -296.5 116.5 q-91.5 116.5 -91.5 281.5 q0 77 18 159 q18 82 49 161 l69 24 q-18 -56 -35 -128.5 q-17 -72.5 -17 -130.5 q0 -101 69.5 -184 q69.5 -83 276.5 -83 q235 0 312 108 q77 108 77 130 q0 16 -23.5 89 q-23.5 73 -101.5 180 l93 192 q53 -97 131.5 -152 q78.5 -55 178.5 -55 Z" /><glyph glyph-name="uniFEB6" unicode="&#xfeb6;" d="M1580 957 l-96 -140 q-23 23 -72 46 q-49 23 -87 27 l93 140 q46 -10 86.5 -27.5 q40.5 -17.5 75.5 -45.5 ZM1715 736 l-93 -136 q-23 22 -70.5 44.5 q-47.5 22.5 -84.5 26.5 l90 137 q46 -10 85 -27.5 q39 -17.5 73 -44.5 ZM1468 725 l-93 -136 q-23 22 -70.5 45 q-47.5 23 -84.5 27 l90 136 q46 -9 85 -26.5 q39 -17.5 73 -45.5 ZM912 423 q53 -97 129.5 -152 q76.5 -55 166.5 -55 q113 0 169 58 q56 58 84 161 l58 13 q-3 -12 -4.5 -38.5 q-1.5 -26.5 -1.5 -38.5 q0 -54 33 -102.5 q33 -48.5 113 -48.5 q93 0 128 76.5 q35 76.5 44 153.5 l58 15 q-1 -11 -2 -36 q-1 -25 -1 -35 q0 -93 67 -136.5 q67 -43.5 185 -43.5 l19 0 q13 0 19.5 -12 q6.5 -12 6.5 -29 q0 -46 -30.5 -109.5 q-30.5 -63.5 -59.5 -63.5 l-6 0 q-115 0 -180 44.5 q-65 44.5 -91 94.5 q-25 -51 -75.5 -95 q-50.5 -44 -131.5 -44 q-95 0 -137 40 q-42 40 -64 77 q-32 -40 -82 -78.5 q-50 -38.5 -165 -38.5 q-33 0 -67 8 q-34 8 -61 19 q-4 -36 -9 -69 q-5 -33 -9 -52 q-40 -178 -170.5 -288 q-130.5 -110 -331.5 -110 q-204 0 -296 116.5 q-92 116.5 -92 280.5 q0 77 18.5 159.5 q18.5 82.5 48.5 161.5 l70 24 q-19 -56 -36 -129 q-17 -73 -17 -131 q0 -101 70 -183.5 q70 -82.5 277 -82.5 q234 0 311 108 q77 108 77 130 q0 16 -23.5 89 q-23.5 73 -101.5 180 l93 192 Z" /><glyph glyph-name="uniFEB7" unicode="&#xfeb7;" d="M834 986 l-96 -140 q-23 23 -72 46 q-49 23 -87 27 l93 140 q46 -10 86.5 -27.5 q40.5 -17.5 75.5 -45.5 ZM969 765 l-93 -136 q-23 22 -70.5 44.5 q-47.5 22.5 -84.5 26.5 l90 137 q46 -10 85 -27.5 q39 -17.5 73 -44.5 ZM722 754 l-93 -136 q-23 22 -70.5 45 q-47.5 23 -84.5 27 l90 136 q46 -9 85 -26.5 q39 -17.5 73 -45.5 ZM582 215 q118 0 171 61.5 q53 61.5 79 154.5 l57 13 q-2 -10 -3.5 -34.5 q-1.5 -24.5 -1.5 -34.5 q0 -54 40.5 -101 q40.5 -47 123.5 -47 q69 0 99.5 31.5 q30.5 31.5 30.5 46.5 q0 23 -31.5 94.5 q-31.5 71.5 -95.5 128.5 l87 171 q65 -55 94.5 -140 q29.5 -85 29.5 -155 q0 -169 -79.5 -280.5 q-79.5 -111.5 -202.5 -111.5 q-89 0 -134.5 34 q-45.5 34 -66.5 71 q-31 -43 -96 -80 q-65 -37 -172 -37 q-86 0 -140.5 33.5 q-54.5 33.5 -75.5 79.5 q-37 -45 -103 -79 q-66 -34 -174 -34 l-50 0 q-13 0 -19.5 11.5 q-6.5 11.5 -6.5 28.5 q0 46 30.5 110 q30.5 64 59.5 64 l19 0 q137 0 200 50.5 q63 50.5 94 134.5 l54 15 q-1 -7 -2 -24.5 q-1 -17.5 -1 -24.5 q0 -57 43.5 -103.5 q43.5 -46.5 142.5 -46.5 Z" /><glyph glyph-name="uniFEB8" unicode="&#xfeb8;" d="M945 957 l-96 -140 q-23 23 -72 46 q-49 23 -87 27 l93 140 q46 -10 86.5 -27.5 q40.5 -17.5 75.5 -45.5 ZM1080 736 l-93 -136 q-23 22 -70.5 44.5 q-47.5 22.5 -84.5 26.5 l90 137 q46 -10 85 -27.5 q39 -17.5 73 -44.5 ZM833 725 l-93 -136 q-23 22 -70.5 45 q-47.5 23 -84.5 27 l90 136 q46 -9 85 -26.5 q39 -17.5 73 -45.5 ZM1201 450 l56 15 q-1 -11 -2 -36 q-1 -25 -1 -35 q0 -93 67 -136.5 q67 -43.5 185 -43.5 l19 0 q13 0 19.5 -12 q6.5 -12 6.5 -29 q0 -46 -30.5 -109.5 q-30.5 -63.5 -59.5 -63.5 l-6 0 q-114 0 -179 44 q-65 44 -91 93 q-25 -50 -75.5 -93.5 q-50.5 -43.5 -130.5 -43.5 q-95 0 -137.5 40 q-42.5 40 -63.5 77 q-32 -40 -92.5 -78.5 q-60.5 -38.5 -174.5 -38.5 q-86 0 -140.5 33.5 q-54.5 33.5 -75.5 79.5 q-37 -45 -103 -79 q-66 -34 -174 -34 l-50 0 q-13 0 -19.5 11.5 q-6.5 11.5 -6.5 28.5 q0 46 30.5 110 q30.5 64 59.5 64 l19 0 q137 0 200 50.5 q63 50.5 94 134.5 l54 15 q-1 -7 -2 -24.5 q-1 -17.5 -1 -24.5 q0 -57 41.5 -103.5 q41.5 -46.5 144.5 -46.5 q113 0 167 56 q54 56 82 159 l58 13 q-3 -12 -4.5 -38.5 q-1.5 -26.5 -1.5 -38.5 q0 -53 33 -99.5 q33 -46.5 113 -46.5 q93 0 127.5 76.5 q34.5 76.5 44.5 153.5 Z" /><glyph glyph-name="uni0635" unicode="&#x635;" d="M1143 256 q54 -20 135.5 -33.5 q81.5 -13.5 185.5 -13.5 q207 0 283 55 q76 55 76 70 q0 22 -33 102.5 q-33 80.5 -158 80.5 q-96 0 -234 -69.5 q-138 -69.5 -255 -191.5 ZM823 235 l89 187 q29 -40 67.5 -74.5 q38.5 -34.5 88.5 -59.5 q120 156 291.5 290 q171.5 134 340.5 134 q100 0 168.5 -67.5 q68.5 -67.5 68.5 -174.5 q0 -65 -30.5 -143 q-30.5 -78 -65.5 -135 q-62 -101 -179 -146.5 q-117 -45.5 -274 -45.5 q-122 0 -207.5 21.5 q-85.5 21.5 -147.5 53.5 q-1 -46 -6.5 -95 q-5.5 -49 -11.5 -74 q-40 -178 -170.5 -288.5 q-130.5 -110.5 -331.5 -110.5 q-204 0 -296 116.5 q-92 116.5 -92 281.5 q0 77 18.5 159 q18.5 82 48.5 162 l70 24 q-19 -56 -36 -128.5 q-17 -72.5 -17 -130.5 q0 -103 70 -185.5 q70 -82.5 277 -82.5 q234 0 313 110.5 q79 110.5 79 132.5 q0 16 -23.5 89.5 q-23.5 73.5 -101.5 179.5 Z" /><glyph glyph-name="uniFEBA" unicode="&#xfeba;" d="M1143 256 q54 -20 135.5 -33.5 q81.5 -13.5 185.5 -13.5 q207 0 283 55 q76 55 76 70 q0 8 -29 95.5 q-29 87.5 -163 87.5 q-96 0 -234 -69 q-138 -69 -254 -192 ZM912 422 q29 -40 67 -74.5 q38 -34.5 89 -59.5 q120 156 291.5 290 q171.5 134 340.5 134 q100 0 168.5 -67 q68.5 -67 68.5 -175 q0 -46 -17 -101.5 q-17 -55.5 -42 -106.5 q38 -31 130 -39.5 q92 -8.5 128 -8.5 q13 0 19 -12 q6 -12 6 -29 q0 -46 -30 -109.5 q-30 -63.5 -59 -63.5 q-107 0 -186.5 28.5 q-79.5 28.5 -122.5 75.5 q-68 -54 -163.5 -79 q-95.5 -25 -211.5 -25 q-122 0 -207.5 21.5 q-85.5 21.5 -147.5 53.5 q-1 -48 -7 -96 q-6 -48 -11 -73 q-40 -178 -170.5 -288 q-130.5 -110 -331.5 -110 q-205 0 -296.5 116.5 q-91.5 116.5 -91.5 280.5 q0 77 18 159.5 q18 82.5 49 161.5 l70 24 q-19 -56 -36 -128.5 q-17 -72.5 -17 -130.5 q0 -102 69.5 -185 q69.5 -83 276.5 -83 q235 0 314 110.5 q79 110.5 79 132.5 q0 16 -23.5 89.5 q-23.5 73.5 -101.5 180.5 l89 186 Z" /><glyph glyph-name="uniFEBB" unicode="&#xfebb;" d="M614 233 q37 -10 105 -17.5 q68 -7.5 167 -7.5 q216 0 324 53.5 q108 53.5 108 81.5 q0 24 -38 98.5 q-38 74.5 -163 74.5 q-121 0 -262.5 -88 q-141.5 -88 -240.5 -195 ZM315 177 q-31 -55 -107.5 -116 q-76.5 -61 -239.5 -61 q-13 0 -19.5 11 q-6.5 11 -6.5 29 q0 46 30.5 110 q30.5 64 59.5 64 q127 0 199 61 q72 61 94 174 l53 14 q-1 -4 -1.5 -14 q-0.5 -10 -0.5 -21 q0 -53 42 -96 q42 -43 119 -71 q96 121 278.5 286.5 q182.5 165.5 376.5 165.5 q126 0 180 -75 q54 -75 54 -161 q0 -49 -19.5 -118 q-19.5 -69 -65.5 -149 q-55 -95 -186.5 -152.5 q-131.5 -57.5 -359.5 -57.5 q-210 0 -323 57.5 q-113 57.5 -157 119.5 Z" /><glyph glyph-name="uniFEBC" unicode="&#xfebc;" d="M614 233 q37 -10 105 -17.5 q68 -7.5 167 -7.5 q216 0 324 53.5 q108 53.5 108 81.5 q0 24 -38 98.5 q-38 74.5 -163 74.5 q-121 0 -262.5 -88 q-141.5 -88 -240.5 -195 ZM315 177 q-31 -55 -107.5 -116 q-76.5 -61 -239.5 -61 q-13 0 -19.5 11 q-6.5 11 -6.5 29 q0 46 30.5 110 q30.5 64 59.5 64 q127 0 199 61 q72 61 94 174 l53 14 q-1 -4 -1.5 -13.5 q-0.5 -9.5 -0.5 -19.5 q0 -56 41.5 -97.5 q41.5 -41.5 118.5 -72.5 q96 120 279 286.5 q183 166.5 377 166.5 q113 0 167 -60 q54 -60 63 -140 q2 -19 2 -37 q0 -18 -2 -37 q-4 -34 -17 -80.5 q-13 -46.5 -38 -97.5 q40 -30 135 -38.5 q95 -8.5 130 -8.5 q13 0 19 -12 q6 -12 6 -29 q0 -46 -30 -109.5 q-30 -63.5 -59 -63.5 q-111 0 -193.5 31 q-82.5 31 -123.5 80 q-69 -51 -182 -81 q-113 -30 -274 -30 q-210 0 -323 57.5 q-113 57.5 -157 119.5 Z" /><glyph glyph-name="uni0636" unicode="&#x636;" d="M1362 978 l-108 -156 q-25 25 -79.5 51.5 q-54.5 26.5 -97.5 30.5 l104 157 q51 -10 96 -31 q45 -21 85 -52 ZM1143 256 q54 -20 135.5 -33.5 q81.5 -13.5 185.5 -13.5 q207 0 283 55 q76 55 76 70 q0 22 -33 102.5 q-33 80.5 -158 80.5 q-96 0 -234 -69.5 q-138 -69.5 -255 -191.5 ZM912 422 q29 -40 67.5 -74.5 q38.5 -34.5 88.5 -59.5 q120 156 291.5 290 q171.5 134 340.5 134 q100 0 168.5 -67.5 q68.5 -67.5 68.5 -174.5 q0 -65 -30.5 -143 q-30.5 -78 -65.5 -135 q-62 -101 -179 -146.5 q-117 -45.5 -274 -45.5 q-122 0 -207.5 21.5 q-85.5 21.5 -147.5 53.5 q-1 -46 -6.5 -95 q-5.5 -49 -11.5 -74 q-40 -178 -170.5 -288.5 q-130.5 -110.5 -331.5 -110.5 q-204 0 -296 116.5 q-92 116.5 -92 281.5 q0 77 18.5 159 q18.5 82 48.5 162 l70 24 q-19 -56 -36 -128.5 q-17 -72.5 -17 -130.5 q0 -103 70 -185.5 q70 -82.5 277 -82.5 q234 0 313 110.5 q79 110.5 79 132.5 q0 16 -23.5 89.5 q-23.5 73.5 -101.5 179.5 l89 187 Z" /><glyph glyph-name="uniFEBE" unicode="&#xfebe;" d="M1372 983 l-108 -156 q-25 25 -79.5 51.5 q-54.5 26.5 -97.5 30.5 l104 157 q51 -10 96 -31 q45 -21 85 -52 ZM1143 256 q54 -20 135.5 -33.5 q81.5 -13.5 185.5 -13.5 q207 0 283 55 q76 55 76 70 q0 8 -29 95.5 q-29 87.5 -163 87.5 q-96 0 -234 -69 q-138 -69 -254 -192 ZM912 422 q29 -40 67 -74.5 q38 -34.5 89 -59.5 q120 156 291.5 290 q171.5 134 340.5 134 q100 0 168.5 -67 q68.5 -67 68.5 -175 q0 -46 -17 -101.5 q-17 -55.5 -42 -106.5 q38 -31 130 -39.5 q92 -8.5 128 -8.5 q13 0 19 -12 q6 -12 6 -29 q0 -46 -30 -109.5 q-30 -63.5 -59 -63.5 q-107 0 -186.5 28.5 q-79.5 28.5 -122.5 75.5 q-68 -54 -163.5 -79 q-95.5 -25 -211.5 -25 q-122 0 -207.5 21.5 q-85.5 21.5 -147.5 53.5 q-1 -48 -7 -96 q-6 -48 -11 -73 q-40 -178 -170.5 -288 q-130.5 -110 -331.5 -110 q-205 0 -296.5 116.5 q-91.5 116.5 -91.5 280.5 q0 77 18 159.5 q18 82.5 49 161.5 l70 24 q-19 -56 -36 -128.5 q-17 -72.5 -17 -130.5 q0 -102 69.5 -185 q69.5 -83 276.5 -83 q235 0 314 110.5 q79 110.5 79 132.5 q0 16 -23.5 89.5 q-23.5 73.5 -101.5 180.5 l89 186 Z" /><glyph glyph-name="uniFEBF" unicode="&#xfebf;" d="M897 983 l-108 -156 q-25 25 -79.5 51.5 q-54.5 26.5 -97.5 30.5 l104 157 q51 -10 96 -31 q45 -21 85 -52 ZM614 233 q37 -10 105 -17.5 q68 -7.5 167 -7.5 q216 0 324 53.5 q108 53.5 108 81.5 q0 24 -38 98.5 q-38 74.5 -163 74.5 q-121 0 -262.5 -88 q-141.5 -88 -240.5 -195 ZM315 177 q-31 -55 -107.5 -116 q-76.5 -61 -239.5 -61 q-13 0 -19.5 11 q-6.5 11 -6.5 29 q0 46 30.5 110 q30.5 64 59.5 64 q127 0 199 61 q72 61 94 174 l53 14 q-1 -4 -1.5 -14 q-0.5 -10 -0.5 -21 q0 -53 42 -96 q42 -43 119 -71 q96 121 278.5 286.5 q182.5 165.5 376.5 165.5 q126 0 180 -75 q54 -75 54 -161 q0 -49 -19.5 -118 q-19.5 -69 -65.5 -149 q-55 -95 -186.5 -152.5 q-131.5 -57.5 -359.5 -57.5 q-210 0 -323 57.5 q-113 57.5 -157 119.5 Z" /><glyph glyph-name="uniFEC0" unicode="&#xfec0;" d="M902 988 l-108 -156 q-25 25 -79.5 51.5 q-54.5 26.5 -97.5 30.5 l104 157 q51 -10 96 -31 q45 -21 85 -52 ZM614 233 q37 -10 105 -17.5 q68 -7.5 167 -7.5 q216 0 324 53.5 q108 53.5 108 81.5 q0 24 -38 98.5 q-38 74.5 -163 74.5 q-121 0 -262.5 -88 q-141.5 -88 -240.5 -195 ZM315 177 q-31 -55 -107.5 -116 q-76.5 -61 -239.5 -61 q-13 0 -19.5 11 q-6.5 11 -6.5 29 q0 46 30.5 110 q30.5 64 59.5 64 q127 0 199 61 q72 61 94 174 l53 14 q-1 -4 -1.5 -13.5 q-0.5 -9.5 -0.5 -19.5 q0 -56 41.5 -97.5 q41.5 -41.5 118.5 -72.5 q96 120 279 286.5 q183 166.5 377 166.5 q113 0 167 -60 q54 -60 63 -140 q2 -19 2 -37 q0 -18 -2 -37 q-4 -34 -17 -80.5 q-13 -46.5 -38 -97.5 q40 -30 135 -38.5 q95 -8.5 130 -8.5 q13 0 19 -12 q6 -12 6 -29 q0 -46 -30 -109.5 q-30 -63.5 -59 -63.5 q-111 0 -193.5 31 q-82.5 31 -123.5 80 q-69 -51 -182 -81 q-113 -30 -274 -30 q-210 0 -323 57.5 q-113 57.5 -157 119.5 Z" /><glyph glyph-name="uni0637" unicode="&#x637;" d="M389 203 q50 -6 107.5 -7.5 q57.5 -1.5 115.5 -1.5 q257 0 372.5 58 q115.5 58 115.5 92 q0 28 -32.5 101 q-32.5 73 -148.5 73 q-121 0 -256 -87.5 q-135 -87.5 -274 -227.5 ZM1220 478 q0 -55 -26 -127.5 q-26 -72.5 -67 -136.5 q-52 -83 -185 -159 q-133 -76 -367 -76 q-151 0 -241 26.5 q-90 26.5 -131 91.5 q-33 52 -51 86.5 q-18 34.5 -27 57.5 l13 50 q18 -28 59 -46.5 q41 -18.5 97 -28.5 q35 31 56.5 83.5 q21.5 52.5 21.5 151.5 q0 63 -5.5 329.5 q-5.5 266.5 -5.5 291.5 q0 27 6 48.5 q6 21.5 17 47.5 q20 43 36.5 72.5 q16.5 29.5 46.5 89.5 l42 23 q-3 -29 -4.5 -64 q-1.5 -35 -1.5 -75 q0 -105 5.5 -232 q5.5 -127 5.5 -246 q0 -106 -8 -195 q-8 -89 -32 -138 q110 133 255 219.5 q145 86.5 259 86.5 q122 0 177 -71.5 q55 -71.5 55 -159.5 Z" /><glyph glyph-name="uniFEC2" unicode="&#xfec2;" d="M389 203 q51 -6 108 -7.5 q57 -1.5 116 -1.5 q256 0 371.5 58 q115.5 58 115.5 92 q0 28 -32.5 101 q-32.5 73 -148.5 73 q-121 0 -255.5 -87.5 q-134.5 -87.5 -274.5 -227.5 ZM1220 478 q0 -45 -18 -101 q-18 -56 -49 -114 q37 -31 132 -40.5 q95 -9.5 132 -9.5 q13 0 19 -11.5 q6 -11.5 6 -29.5 q0 -46 -30 -109 q-30 -63 -59 -63 q-113 0 -195.5 30.5 q-82.5 30.5 -122.5 80.5 q-69 -54 -182 -93 q-113 -39 -278 -39 q-151 0 -240.5 26.5 q-89.5 26.5 -131.5 91.5 q-33 52 -51 86.5 q-18 34.5 -27 57.5 l13 50 q18 -28 59 -46.5 q41 -18.5 97 -28.5 q35 31 57 83.5 q22 52.5 22 151.5 q0 63 -5.5 329.5 q-5.5 266.5 -5.5 291.5 q0 27 5.5 48.5 q5.5 21.5 16.5 47.5 q20 43 36.5 72.5 q16.5 29.5 46.5 89.5 l42 23 q-3 -29 -4 -63.5 q-1 -34.5 -1 -73.5 q0 -106 5.5 -234.5 q5.5 -128.5 5.5 -247.5 q0 -105 -8.5 -193.5 q-8.5 -88.5 -31.5 -137.5 q110 133 254.5 219.5 q144.5 86.5 258.5 86.5 q122 0 177 -71.5 q55 -71.5 55 -159.5 Z" /><glyph glyph-name="uniFEC3" unicode="&#xfec3;" d="M1053 463 q0 -53 -24 -126 q-24 -73 -79 -148 q-73 -104 -210.5 -146.5 q-137.5 -42.5 -314.5 -42.5 l-456 0 q-14 0 -20.5 11.5 q-6.5 11.5 -6.5 28.5 q0 46 30.5 110 q30.5 64 59.5 64 l19 0 q44 0 71 17.5 q27 17.5 42 39.5 q23 29 30.5 133 q7.5 104 7.5 226 q0 87 -3.5 250.5 q-3.5 163.5 -3.5 180.5 q0 27 6 48.5 q6 21.5 17 47.5 q19 43 34.5 77 q15.5 34 46.5 94 l46 25 q-4 -23 -5.5 -104 q-1.5 -81 -1.5 -141 q0 -84 2.5 -180.5 q2.5 -96.5 1.5 -186.5 q-1 -101 -7.5 -187 q-6.5 -86 -24.5 -134 q113 140 242.5 215.5 q129.5 75.5 239.5 75.5 q129 0 195 -79 q66 -79 66 -169 ZM938 337 q0 20 -40 96 q-40 76 -165 76 q-131 0 -256.5 -80.5 q-125.5 -80.5 -249.5 -207.5 q54 -7 128.5 -8 q74.5 -1 141.5 -1 q243 0 342 48.5 q99 48.5 99 76.5 Z" /><glyph glyph-name="uniFEC4" unicode="&#xfec4;" d="M938 337 q0 20 -40 96 q-40 76 -165 76 q-131 0 -256.5 -80.5 q-125.5 -80.5 -249.5 -207.5 q54 -7 128.5 -8 q74.5 -1 141.5 -1 q243 0 342 48.5 q99 48.5 99 76.5 ZM1272 214 q13 0 19.5 -12 q6.5 -12 6.5 -29 q0 -46 -30.5 -109.5 q-30.5 -63.5 -59.5 -63.5 q-115 0 -199 32.5 q-84 32.5 -124 86.5 q-80 -66 -193.5 -92.5 q-113.5 -26.5 -256.5 -26.5 l-467 0 q-13 0 -19.5 11.5 q-6.5 11.5 -6.5 28.5 q0 46 30.5 110 q30.5 64 59.5 64 l19 0 q44 0 71 17.5 q27 17.5 42 39.5 q23 29 30.5 133 q7.5 104 7.5 226 q0 87 -3.5 250.5 q-3.5 163.5 -3.5 180.5 q0 27 6 48.5 q6 21.5 17 47.5 q19 43 34.5 77 q15.5 34 45.5 94 l47 25 q-4 -22 -6 -113.5 q-2 -91.5 -2 -151.5 q0 -95 3 -194.5 q3 -99.5 2 -189.5 q-1 -93 -8 -167 q-7 -74 -24 -117 q121 150 251 220.5 q130 70.5 231 70.5 q128 0 194.5 -79 q66.5 -79 66.5 -169 q0 -39 -13 -90 q-13 -51 -42 -106 q33 -34 135 -43.5 q102 -9.5 139 -9.5 Z" /><glyph glyph-name="uni0638" unicode="&#x638;" d="M1017 1106 l-108 -156 q-25 25 -79.5 51.5 q-54.5 26.5 -97.5 30.5 l104 157 q51 -10 96 -31 q45 -21 85 -52 ZM389 203 q50 -6 107.5 -7.5 q57.5 -1.5 115.5 -1.5 q257 0 372.5 58 q115.5 58 115.5 92 q0 28 -32.5 101 q-32.5 73 -148.5 73 q-121 0 -256 -87.5 q-135 -87.5 -274 -227.5 ZM1220 478 q0 -55 -26 -127.5 q-26 -72.5 -67 -136.5 q-52 -83 -185 -159 q-133 -76 -367 -76 q-151 0 -241 26.5 q-90 26.5 -131 91.5 q-33 52 -51 86.5 q-18 34.5 -27 57.5 l13 50 q18 -28 59 -46.5 q41 -18.5 97 -28.5 q35 31 56.5 83.5 q21.5 52.5 21.5 151.5 q0 63 -5.5 329.5 q-5.5 266.5 -5.5 291.5 q0 27 6 48.5 q6 21.5 17 47.5 q20 43 36.5 72.5 q16.5 29.5 46.5 89.5 l42 23 q-3 -29 -4.5 -64 q-1.5 -35 -1.5 -75 q0 -105 5.5 -232 q5.5 -127 5.5 -246 q0 -106 -8 -195 q-8 -89 -32 -138 q110 133 255 219.5 q145 86.5 259 86.5 q122 0 177 -71.5 q55 -71.5 55 -159.5 Z" /><glyph glyph-name="uniFEC6" unicode="&#xfec6;" d="M1022 1121 l-108 -156 q-25 25 -79.5 51.5 q-54.5 26.5 -97.5 30.5 l104 157 q51 -10 96 -31 q45 -21 85 -52 ZM389 203 q51 -6 108 -7.5 q57 -1.5 116 -1.5 q256 0 371.5 58 q115.5 58 115.5 92 q0 28 -32.5 101 q-32.5 73 -148.5 73 q-121 0 -255.5 -87.5 q-134.5 -87.5 -274.5 -227.5 ZM1220 478 q0 -45 -18 -101 q-18 -56 -49 -114 q37 -31 132 -40.5 q95 -9.5 132 -9.5 q13 0 19 -11.5 q6 -11.5 6 -29.5 q0 -46 -30 -109 q-30 -63 -59 -63 q-113 0 -195.5 30.5 q-82.5 30.5 -122.5 80.5 q-69 -54 -182 -93 q-113 -39 -278 -39 q-151 0 -240.5 26.5 q-89.5 26.5 -131.5 91.5 q-33 52 -51 86.5 q-18 34.5 -27 57.5 l13 50 q18 -28 59 -46.5 q41 -18.5 97 -28.5 q35 31 57 83.5 q22 52.5 22 151.5 q0 63 -5.5 329.5 q-5.5 266.5 -5.5 291.5 q0 27 5.5 48.5 q5.5 21.5 16.5 47.5 q20 43 36.5 72.5 q16.5 29.5 46.5 89.5 l42 23 q-3 -29 -4 -63.5 q-1 -34.5 -1 -73.5 q0 -106 5.5 -234.5 q5.5 -128.5 5.5 -247.5 q0 -105 -8.5 -193.5 q-8.5 -88.5 -31.5 -137.5 q110 133 254.5 219.5 q144.5 86.5 258.5 86.5 q122 0 177 -71.5 q55 -71.5 55 -159.5 Z" /><glyph glyph-name="uniFEC7" unicode="&#xfec7;" d="M1053 463 q0 -53 -24 -126 q-24 -73 -79 -148 q-73 -104 -210.5 -146.5 q-137.5 -42.5 -314.5 -42.5 l-456 0 q-14 0 -20.5 11.5 q-6.5 11.5 -6.5 28.5 q0 46 30.5 110 q30.5 64 59.5 64 l19 0 q44 0 71 17.5 q27 17.5 42 39.5 q23 29 30.5 133 q7.5 104 7.5 226 q0 87 -3.5 250.5 q-3.5 163.5 -3.5 180.5 q0 27 6 48.5 q6 21.5 17 47.5 q19 43 34.5 77 q15.5 34 46.5 94 l46 25 q-4 -23 -5.5 -104 q-1.5 -81 -1.5 -141 q0 -84 2.5 -180.5 q2.5 -96.5 1.5 -186.5 q-1 -101 -7.5 -187 q-6.5 -86 -24.5 -134 q113 140 242.5 215.5 q129.5 75.5 239.5 75.5 q129 0 195 -79 q66 -79 66 -169 ZM836 1111 l-108 -156 q-25 25 -79.5 51.5 q-54.5 26.5 -97.5 30.5 l104 157 q51 -10 96 -31 q45 -21 85 -52 ZM938 337 q0 20 -40 96 q-40 76 -165 76 q-131 0 -256.5 -80.5 q-125.5 -80.5 -249.5 -207.5 q54 -7 128.5 -8 q74.5 -1 141.5 -1 q243 0 342 48.5 q99 48.5 99 76.5 Z" /><glyph glyph-name="uniFEC8" unicode="&#xfec8;" d="M846 1111 l-108 -156 q-25 25 -79.5 51.5 q-54.5 26.5 -97.5 30.5 l104 157 q51 -10 96 -31 q45 -21 85 -52 ZM938 337 q0 20 -40 96 q-40 76 -165 76 q-131 0 -256.5 -80.5 q-125.5 -80.5 -249.5 -207.5 q54 -7 128.5 -8 q74.5 -1 141.5 -1 q243 0 342 48.5 q99 48.5 99 76.5 ZM1272 214 q13 0 19.5 -12 q6.5 -12 6.5 -29 q0 -46 -30.5 -109.5 q-30.5 -63.5 -59.5 -63.5 q-115 0 -199 32.5 q-84 32.5 -124 86.5 q-80 -66 -193.5 -92.5 q-113.5 -26.5 -256.5 -26.5 l-467 0 q-13 0 -19.5 11.5 q-6.5 11.5 -6.5 28.5 q0 46 30.5 110 q30.5 64 59.5 64 l19 0 q44 0 71 17.5 q27 17.5 42 39.5 q23 29 30.5 133 q7.5 104 7.5 226 q0 87 -3.5 250.5 q-3.5 163.5 -3.5 180.5 q0 27 6 48.5 q6 21.5 17 47.5 q19 43 34.5 77 q15.5 34 45.5 94 l47 25 q-4 -22 -6 -113.5 q-2 -91.5 -2 -151.5 q0 -95 3 -194.5 q3 -99.5 2 -189.5 q-1 -93 -8 -167 q-7 -74 -24 -117 q121 150 251 220.5 q130 70.5 231 70.5 q128 0 194.5 -79 q66.5 -79 66.5 -169 q0 -39 -13 -90 q-13 -51 -42 -106 q33 -34 135 -43.5 q102 -9.5 139 -9.5 Z" /><glyph glyph-name="uni0639" unicode="&#x639;" d="M205 -31 q0 -53 90 -162.5 q90 -109.5 385 -109.5 q133 0 253 25 q120 25 176 71 l-9 -59 q-52 -96 -163 -183.5 q-111 -87.5 -312 -87.5 q-217 0 -358.5 121 q-141.5 121 -141.5 353 q0 160 68.5 272.5 q68.5 112.5 178.5 181.5 q-75 54 -110.5 142.5 q-35.5 88.5 -35.5 167.5 q0 119 72 220.5 q72 101.5 208 101.5 q113 0 193.5 -62.5 q80.5 -62.5 109.5 -122.5 l6 -68 q-47 27 -112.5 47 q-65.5 20 -169.5 20 q-118 0 -174 -39 q-56 -39 -56 -58 q0 -37 63.5 -140 q63.5 -103 235.5 -103 q69 0 169 14.5 q100 14.5 149 27.5 q-12 -37 -32.5 -86.5 q-20.5 -49.5 -51.5 -102.5 q-374 -43 -502.5 -181 q-128.5 -138 -128.5 -200 Z" /><glyph glyph-name="uniFECA" unicode="&#xfeca;" d="M612 436 q104 40 173 116.5 q69 76.5 69 98.5 q0 24 -73.5 42 q-73.5 18 -163.5 18 q-96 0 -179.5 -13 q-83.5 -13 -107.5 -20 q77 -22 157.5 -116.5 q80.5 -94.5 124.5 -125.5 ZM1114 214 l19 0 q13 0 19.5 -12 q6.5 -12 6.5 -29 q0 -46 -30.5 -109.5 q-30.5 -63.5 -59.5 -63.5 l-12 0 q-178 0 -296.5 69.5 q-118.5 69.5 -206.5 184.5 q-186 -78 -263 -166 q-77 -88 -77 -135 q0 -73 101.5 -164.5 q101.5 -91.5 358.5 -91.5 q128 0 239 22.5 q111 22.5 180 71.5 l-9 -56 q-58 -101 -162 -186.5 q-104 -85.5 -303 -85.5 q-214 0 -352 114.5 q-138 114.5 -138 333.5 q0 112 66 242.5 q66 130.5 265 237.5 q-38 63 -125.5 164.5 q-87.5 101.5 -145.5 101.5 q-16 0 -32.5 -2 q-16.5 -2 -16.5 -2 l-10 42 l80 135 q68 28 183 45 q115 17 207 17 q147 0 245 -38 q98 -38 98 -128 q0 -46 -38.5 -159.5 q-38.5 -113.5 -181.5 -220.5 q81 -81 178 -106.5 q97 -25.5 213 -25.5 Z" /><glyph glyph-name="uniFECB" unicode="&#xfecb;" d="M-32 0 q-13 0 -19.5 11 q-6.5 11 -6.5 29 q0 46 30.5 110 q30.5 64 58.5 64 q31 0 74.5 2.5 q43.5 2.5 91.5 7.5 q-66 52 -94.5 128.5 q-28.5 76.5 -28.5 146.5 q0 130 76 221 q76 91 204 91 q118 0 196 -64.5 q78 -64.5 106 -121.5 l7 -67 q-47 26 -113 46.5 q-66 20.5 -170 20.5 q-122 0 -176 -40 q-54 -40 -54 -58 q0 -52 67.5 -144.5 q67.5 -92.5 211.5 -92.5 q82 0 178.5 24 q96.5 24 147.5 43 l13 -10 q-16 -54 -38 -97.5 q-22 -43.5 -53 -96.5 q-156 -73 -338.5 -113 q-182.5 -40 -370.5 -40 Z" /><glyph glyph-name="uniFECC" unicode="&#xfecc;" d="M540 319 q108 56 172.5 124.5 q64.5 68.5 64.5 92.5 q0 23 -72 43 q-72 20 -164 20 q-99 0 -173 -9 q-74 -9 -114 -22 q75 -22 157.5 -118.5 q82.5 -96.5 128.5 -130.5 ZM956 214 l25 0 q13 0 19.5 -11.5 q6.5 -11.5 6.5 -29.5 q0 -46 -30 -109.5 q-30 -63.5 -59 -63.5 l-40 0 q-133 0 -215 24 q-82 24 -162 93 q-88 -57 -202 -87 q-114 -30 -277 -30 l-54 0 q-13 0 -19.5 11.5 q-6.5 11.5 -6.5 28.5 q0 46 30.5 110 q30.5 64 59.5 64 l30 0 q94 0 175.5 9.5 q81.5 9.5 146.5 33.5 q-54 78 -132 179 q-78 101 -135 101 q-17 0 -34 -2 q-17 -2 -17 -2 l-10 42 l87 144 q56 25 171.5 43 q115.5 18 209.5 18 q140 0 241.5 -38 q101.5 -38 101.5 -131 q0 -93 -56.5 -192.5 q-56.5 -99.5 -134.5 -168.5 q49 -22 120.5 -29 q71.5 -7 159.5 -7 Z" /><glyph glyph-name="uni063A" unicode="&#x63a;" d="M624 1354 l-108 -156 q-25 25 -79.5 51.5 q-54.5 26.5 -97.5 30.5 l104 157 q51 -10 96 -31 q45 -21 85 -52 ZM205 -31 q0 -53 90 -162.5 q90 -109.5 385 -109.5 q133 0 253 25 q120 25 176 71 l-9 -59 q-52 -96 -163 -183.5 q-111 -87.5 -312 -87.5 q-217 0 -358.5 121 q-141.5 121 -141.5 353 q0 160 68.5 272.5 q68.5 112.5 178.5 181.5 q-75 54 -110.5 142.5 q-35.5 88.5 -35.5 167.5 q0 119 72 220.5 q72 101.5 208 101.5 q113 0 193.5 -62.5 q80.5 -62.5 109.5 -122.5 l6 -68 q-47 27 -112.5 47 q-65.5 20 -169.5 20 q-118 0 -174 -39 q-56 -39 -56 -58 q0 -37 63.5 -140 q63.5 -103 235.5 -103 q69 0 169 14.5 q100 14.5 149 27.5 q-12 -37 -32.5 -86.5 q-20.5 -49.5 -51.5 -102.5 q-374 -43 -502.5 -181 q-128.5 -138 -128.5 -200 Z" /><glyph glyph-name="uniFECE" unicode="&#xfece;" d="M691 1227 l-108 -156 q-25 25 -79.5 51.5 q-54.5 26.5 -97.5 30.5 l104 157 q51 -10 96 -31 q45 -21 85 -52 ZM612 436 q104 40 173 116.5 q69 76.5 69 98.5 q0 24 -73.5 42 q-73.5 18 -163.5 18 q-96 0 -179.5 -13 q-83.5 -13 -107.5 -20 q77 -22 157.5 -116.5 q80.5 -94.5 124.5 -125.5 ZM1114 214 l19 0 q13 0 19.5 -12 q6.5 -12 6.5 -29 q0 -46 -30.5 -109.5 q-30.5 -63.5 -59.5 -63.5 l-12 0 q-178 0 -296.5 69.5 q-118.5 69.5 -206.5 184.5 q-186 -78 -263 -166 q-77 -88 -77 -135 q0 -73 101.5 -164.5 q101.5 -91.5 358.5 -91.5 q128 0 239 22.5 q111 22.5 180 71.5 l-9 -56 q-58 -101 -162 -186.5 q-104 -85.5 -303 -85.5 q-214 0 -352 114.5 q-138 114.5 -138 333.5 q0 112 66 242.5 q66 130.5 265 237.5 q-38 63 -125.5 164.5 q-87.5 101.5 -145.5 101.5 q-16 0 -32.5 -2 q-16.5 -2 -16.5 -2 l-10 42 l80 135 q68 28 183 45 q115 17 207 17 q147 0 245 -38 q98 -38 98 -128 q0 -46 -38.5 -159.5 q-38.5 -113.5 -181.5 -220.5 q81 -81 178 -106.5 q97 -25.5 213 -25.5 Z" /><glyph glyph-name="uniFECF" unicode="&#xfecf;" d="M464 1147 l-108 -156 q-25 25 -79.5 51.5 q-54.5 26.5 -97.5 30.5 l104 157 q51 -10 96 -31 q45 -21 85 -52 ZM-32 0 q-13 0 -19.5 11 q-6.5 11 -6.5 29 q0 46 30.5 110 q30.5 64 58.5 64 q31 0 74.5 2.5 q43.5 2.5 91.5 7.5 q-66 52 -94.5 128.5 q-28.5 76.5 -28.5 146.5 q0 130 76 221 q76 91 204 91 q118 0 196 -64.5 q78 -64.5 106 -121.5 l7 -67 q-47 26 -113 46.5 q-66 20.5 -170 20.5 q-122 0 -176 -40 q-54 -40 -54 -58 q0 -52 67.5 -144.5 q67.5 -92.5 211.5 -92.5 q82 0 178.5 24 q96.5 24 147.5 43 l13 -10 q-16 -54 -38 -97.5 q-22 -43.5 -53 -96.5 q-156 -73 -338.5 -113 q-182.5 -40 -370.5 -40 Z" /><glyph glyph-name="uniFED0" unicode="&#xfed0;" d="M623 1134 l-108 -156 q-25 25 -79.5 51.5 q-54.5 26.5 -97.5 30.5 l104 157 q51 -10 96 -31 q45 -21 85 -52 ZM540 319 q108 56 172.5 124.5 q64.5 68.5 64.5 92.5 q0 23 -72 43 q-72 20 -164 20 q-99 0 -173 -9 q-74 -9 -114 -22 q75 -22 157.5 -118.5 q82.5 -96.5 128.5 -130.5 ZM956 214 l25 0 q13 0 19.5 -11.5 q6.5 -11.5 6.5 -29.5 q0 -46 -30 -109.5 q-30 -63.5 -59 -63.5 l-40 0 q-133 0 -215 24 q-82 24 -162 93 q-88 -57 -202 -87 q-114 -30 -277 -30 l-54 0 q-13 0 -19.5 11.5 q-6.5 11.5 -6.5 28.5 q0 46 30.5 110 q30.5 64 59.5 64 l30 0 q94 0 175.5 9.5 q81.5 9.5 146.5 33.5 q-54 78 -132 179 q-78 101 -135 101 q-17 0 -34 -2 q-17 -2 -17 -2 l-10 42 l87 144 q56 25 171.5 43 q115.5 18 209.5 18 q140 0 241.5 -38 q101.5 -38 101.5 -131 q0 -93 -56.5 -192.5 q-56.5 -99.5 -134.5 -168.5 q49 -22 120.5 -29 q71.5 -7 159.5 -7 Z" /><glyph glyph-name="uni0641" unicode="&#x641;" d="M1326 1296 l-108 -156 q-25 25 -79.5 51.5 q-54.5 26.5 -97.5 30.5 l104 157 q51 -10 96 -31 q45 -21 85 -52 ZM1006 637 q0 -37 45 -74.5 q45 -37.5 166 -37.5 q30 0 79.5 2 q49.5 2 104.5 14 q-19 82 -69.5 164.5 q-50.5 82.5 -149.5 82.5 q-81 0 -128.5 -58 q-47.5 -58 -47.5 -93 ZM763 172 q362 0 507.5 71 q145.5 71 145.5 90 q0 14 -0.5 27.5 q-0.5 13.5 -0.5 26.5 q-41 -23 -100.5 -32 q-59.5 -9 -125.5 -9 q-136 0 -198.5 65.5 q-62.5 65.5 -62.5 180.5 q0 137 82 253 q82 116 208 116 q129 0 205.5 -140 q76.5 -140 76.5 -328 q0 -81 -16.5 -171 q-16.5 -90 -56.5 -144 q-58 -91 -266 -155.5 q-208 -64.5 -484 -64.5 q-297 0 -424.5 87 q-127.5 87 -127.5 237 q0 51 13 117.5 q13 66.5 33 123.5 l60 18 q-10 -29 -18.5 -63.5 q-8.5 -34.5 -8.5 -66.5 q0 -88 105.5 -163.5 q105.5 -75.5 453.5 -75.5 Z" /><glyph glyph-name="uniFED2" unicode="&#xfed2;" d="M1420 1149 l-108 -156 q-25 25 -79.5 51.5 q-54.5 26.5 -97.5 30.5 l104 157 q51 -10 96 -31 q45 -21 85 -52 ZM1069 491 q0 -46 44.5 -107.5 q44.5 -61.5 138.5 -100.5 q81 16 145 70.5 q64 54.5 64 91.5 q0 33 -44.5 108.5 q-44.5 75.5 -153.5 75.5 q-82 0 -138 -55.5 q-56 -55.5 -56 -82.5 ZM752 205 q93 0 170.5 8 q77.5 8 146.5 21 q-44 54 -59 107 q-15 53 -15 99 q0 178 86.5 274.5 q86.5 96.5 220.5 96.5 q115 0 179 -83 q64 -83 64 -192 q0 -112 -34 -183.5 q-34 -71.5 -68 -107.5 q79 -23 162 -27 q83 -4 118 -4 l12 0 q13 0 19.5 -12 q6.5 -12 6.5 -30 q0 -46 -30.5 -109 q-30.5 -63 -59.5 -63 l-22 0 q-131 0 -242.5 23 q-111.5 23 -186.5 72 q-101 -47 -240.5 -75.5 q-139.5 -28.5 -303.5 -28.5 q-299 0 -425 83.5 q-126 83.5 -126 229.5 q0 50 12.5 113.5 q12.5 63.5 32.5 119.5 l60 18 q-9 -27 -17.5 -59.5 q-8.5 -32.5 -8.5 -62.5 q0 -85 105.5 -156.5 q105.5 -71.5 442.5 -71.5 Z" /><glyph glyph-name="uniFED3" unicode="&#xfed3;" d="M485 1311 l-108 -156 q-25 25 -79.5 51.5 q-54.5 26.5 -97.5 30.5 l104 157 q51 -10 96 -31 q45 -21 85 -52 ZM653 516 q0 -90 -16.5 -169 q-16.5 -79 -42.5 -125 q-57 -100 -181 -161 q-124 -61 -366 -61 l-79 0 q-13 0 -19.5 11 q-6.5 11 -6.5 29 q0 46 30.5 110 q30.5 64 59.5 64 q331 0 431.5 55.5 q100.5 55.5 100.5 81.5 l0 56 q-41 -22 -99.5 -30 q-58.5 -8 -121.5 -8 q-135 0 -198 65.5 q-63 65.5 -63 180.5 q0 137 82 253 q82 116 208 116 q129 0 205 -140 q76 -140 76 -328 ZM160 660 q0 -37 45 -74 q45 -37 166 -37 q30 0 81.5 2.5 q51.5 2.5 102.5 12.5 q-19 82 -69.5 164.5 q-50.5 82.5 -149.5 82.5 q-81 0 -128.5 -58 q-47.5 -58 -47.5 -93 Z" /><glyph glyph-name="uniFED4" unicode="&#xfed4;" d="M604 1149 l-108 -156 q-25 25 -79.5 51.5 q-54.5 26.5 -97.5 30.5 l104 157 q51 -10 96 -31 q45 -21 85 -52 ZM262 491 q0 -46 44.5 -107.5 q44.5 -61.5 138.5 -100.5 q81 16 144.5 70.5 q63.5 54.5 63.5 91.5 q0 32 -44.5 108 q-44.5 76 -153.5 76 q-81 0 -137 -56 q-56 -56 -56 -82 ZM912 214 l16 0 q13 0 19.5 -12 q6.5 -12 6.5 -30 q0 -46 -30.5 -109 q-30.5 -63 -59.5 -63 l-22 0 q-133 0 -243 22.5 q-110 22.5 -179 66.5 q-69 -39 -182.5 -64 q-113.5 -25 -249.5 -25 l-20 0 q-13 0 -19.5 11 q-6.5 11 -6.5 29 q0 46 30.5 110 q30.5 64 59.5 64 l14 0 q58 0 109.5 5.5 q51.5 5.5 94.5 15.5 q-31 44 -47 95 q-16 51 -16 105 q0 188 92.5 282 q92.5 94 215.5 94 q115 0 181 -79.5 q66 -79.5 66 -190.5 q0 -113 -37.5 -188 q-37.5 -75 -71.5 -111 q69 -20 146.5 -24 q77.5 -4 132.5 -4 Z" /><glyph glyph-name="uni0642" unicode="&#x642;" d="M1153 971 l-97 -140 q-23 23 -72 46.5 q-49 23.5 -87 27.5 l93 141 q46 -10 86.5 -28.5 q40.5 -18.5 76.5 -46.5 ZM901 960 l-97 -140 q-23 23 -72 46.5 q-49 23.5 -87 27.5 l93 141 q46 -10 86.5 -28.5 q40.5 -18.5 76.5 -46.5 ZM686 339 q0 -37 45 -74.5 q45 -37.5 166 -37.5 q33 0 82.5 2.5 q49.5 2.5 101.5 13.5 q-19 82 -70 164.5 q-51 82.5 -150 82.5 q-81 0 -128 -58 q-47 -58 -47 -93 ZM871 12 q-146 0 -203 75 q-57 75 -57 207 q0 137 81 252.5 q81 115.5 203 115.5 q140 0 214 -150.5 q74 -150.5 74 -343.5 q0 -49 -3.5 -138.5 q-3.5 -89.5 -24.5 -152.5 q-51 -159 -210 -270.5 q-159 -111.5 -392 -111.5 q-231 0 -329.5 127.5 q-98.5 127.5 -98.5 299.5 q0 80 18 165 q18 85 48 163 l65 26 q-18 -59 -32 -133.5 q-14 -74.5 -14 -133.5 q0 -106 73.5 -203 q73.5 -97 308.5 -97 q272 0 389 108 q117 108 117 133 q0 23 -1.5 58 q-1.5 35 -2.5 58 q-37 -28 -94 -41 q-57 -13 -129 -13 Z" /><glyph glyph-name="uniFED6" unicode="&#xfed6;" d="M1138 951 l-97 -140 q-23 23 -72 46.5 q-49 23.5 -87 27.5 l93 141 q46 -10 86.5 -28.5 q40.5 -18.5 76.5 -46.5 ZM886 940 l-97 -140 q-23 23 -72 46.5 q-49 23.5 -87 27.5 l93 141 q46 -10 86.5 -28.5 q40.5 -18.5 76.5 -46.5 ZM686 324 q0 -47 49 -79 q49 -32 162 -32 l185 0 q-13 81 -69 172.5 q-56 91.5 -152 91.5 q-82 0 -128.5 -55 q-46.5 -55 -46.5 -98 ZM1230 0 l-51 0 q-3 -38 -8.5 -75 q-5.5 -37 -15.5 -68 q-51 -159 -210 -270.5 q-159 -111.5 -392 -111.5 q-231 0 -329.5 127.5 q-98.5 127.5 -98.5 299.5 q0 80 18 165 q18 85 48 163 l65 25 q-18 -60 -31.5 -135.5 q-13.5 -75.5 -13.5 -133.5 q0 -107 73 -202 q73 -95 308 -95 q272 0 389 108 q117 108 117 133 q0 13 -0.5 32 q-0.5 19 -1.5 38 l-206 0 q-166 0 -222.5 77 q-56.5 77 -56.5 205 q0 130 79 249 q79 119 205 119 q131 0 200 -129 q69 -129 81 -307 l117 0 q13 0 19.5 -12 q6.5 -12 6.5 -30 q0 -46 -30 -109 q-30 -63 -59 -63 Z" /><glyph glyph-name="uniFED7" unicode="&#xfed7;" d="M619 1282 l-97 -140 q-23 23 -72 46.5 q-49 23.5 -87 27.5 l93 141 q46 -10 86.5 -28.5 q40.5 -18.5 76.5 -46.5 ZM367 1271 l-97 -140 q-23 23 -72 46.5 q-49 23.5 -87 27.5 l93 141 q46 -10 86.5 -28.5 q40.5 -18.5 76.5 -46.5 ZM653 516 q0 -90 -16.5 -169 q-16.5 -79 -42.5 -125 q-57 -100 -181 -161 q-124 -61 -366 -61 l-79 0 q-13 0 -19.5 11 q-6.5 11 -6.5 29 q0 46 30.5 110 q30.5 64 59.5 64 q331 0 431.5 55.5 q100.5 55.5 100.5 81.5 l0 56 q-41 -22 -99.5 -30 q-58.5 -8 -121.5 -8 q-135 0 -198 65.5 q-63 65.5 -63 180.5 q0 137 82 253 q82 116 208 116 q129 0 205 -140 q76 -140 76 -328 ZM160 660 q0 -37 45 -74 q45 -37 166 -37 q30 0 81.5 2.5 q51.5 2.5 102.5 12.5 q-19 82 -69.5 164.5 q-50.5 82.5 -149.5 82.5 q-81 0 -128.5 -58 q-47.5 -58 -47.5 -93 Z" /><glyph glyph-name="uniFED8" unicode="&#xfed8;" d="M722 1106 l-97 -140 q-23 23 -72 46.5 q-49 23.5 -87 27.5 l93 141 q46 -10 86.5 -28.5 q40.5 -18.5 76.5 -46.5 ZM470 1095 l-97 -140 q-23 23 -72 46.5 q-49 23.5 -87 27.5 l93 141 q46 -10 86.5 -28.5 q40.5 -18.5 76.5 -46.5 ZM262 491 q0 -46 44.5 -107.5 q44.5 -61.5 138.5 -100.5 q81 16 144.5 70.5 q63.5 54.5 63.5 91.5 q0 32 -44.5 108 q-44.5 76 -153.5 76 q-81 0 -137 -56 q-56 -56 -56 -82 ZM912 214 l16 0 q13 0 19.5 -12 q6.5 -12 6.5 -30 q0 -46 -30.5 -109 q-30.5 -63 -59.5 -63 l-22 0 q-133 0 -243 22.5 q-110 22.5 -179 66.5 q-69 -39 -182.5 -64 q-113.5 -25 -249.5 -25 l-20 0 q-13 0 -19.5 11 q-6.5 11 -6.5 29 q0 46 30.5 110 q30.5 64 59.5 64 l14 0 q58 0 109.5 5.5 q51.5 5.5 94.5 15.5 q-31 44 -47 95 q-16 51 -16 105 q0 188 92.5 282 q92.5 94 215.5 94 q115 0 181 -79.5 q66 -79.5 66 -190.5 q0 -113 -37.5 -188 q-37.5 -75 -71.5 -111 q69 -20 146.5 -24 q77.5 -4 132.5 -4 Z" /><glyph glyph-name="uni06A9" unicode="&#x6a9;" d="M764 171 q345 0 490.5 68 q145.5 68 145.5 91 q0 33 -125 168 q-125 135 -395 284 q57 128 84 160.5 q27 32.5 125 83.5 q146 78 329 154 q183 76 316 130 l-82 -189 q-163 -63 -322.5 -134.5 q-159.5 -71.5 -252.5 -125.5 l-4 -12 q41 -25 94 -55.5 q53 -30.5 104 -72.5 q104 -85 160 -160 q56 -75 56 -146 q0 -54 -19.5 -122 q-19.5 -68 -65.5 -124 q-78 -97 -264.5 -154.5 q-186.5 -57.5 -459.5 -57.5 q-298 0 -425.5 87.5 q-127.5 87.5 -127.5 237.5 q0 51 12.5 117 q12.5 66 33.5 124 l60 18 q-10 -29 -18.5 -64 q-8.5 -35 -8.5 -67 q0 -88 106 -163.5 q106 -75.5 454 -75.5 Z" /><glyph glyph-name="uniFB8F" unicode="&#xfb8f;" d="M734 171 q313 0 427 66 q114 66 114 86 q0 28 -104.5 191 q-104.5 163 -290.5 280 q54 120 84.5 152 q30.5 32 103.5 72 q146 79 335 157.5 q189 78.5 325 134.5 l-83 -189 q-125 -46 -289 -118.5 q-164 -72.5 -286 -145.5 l-2 -8 q78 -64 145 -146 q67 -82 127 -163 q122 -166 196 -246 q74 -80 255 -80 q14 0 20 -11.5 q6 -11.5 6 -29.5 q0 -46 -30.5 -109.5 q-30.5 -63.5 -59.5 -63.5 q-146 0 -238 79 q-92 79 -158 192 q-13 -46 -34.5 -87.5 q-21.5 -41.5 -48.5 -70.5 q-49 -51 -201.5 -103.5 q-152.5 -52.5 -378.5 -52.5 q-298 0 -420.5 87.5 q-122.5 87.5 -122.5 237.5 q0 51 12.5 117 q12.5 66 33.5 124 l60 18 q-10 -31 -19 -66.5 q-9 -35.5 -9 -69.5 q0 -87 94 -160.5 q94 -73.5 437 -73.5 Z" /><glyph glyph-name="uniFB90" unicode="&#xfb90;" d="M211 885 l-4 -12 q46 -27 96 -59.5 q50 -32.5 101 -74.5 q106 -88 159.5 -157 q53.5 -69 53.5 -145 q0 -46 -9 -96 q-9 -50 -28 -96 q-46 -116 -176.5 -180.5 q-130.5 -64.5 -396.5 -64.5 l-39 0 q-13 0 -19.5 11.5 q-6.5 11.5 -6.5 29.5 q0 46 30.5 109.5 q30.5 63.5 59.5 63.5 l31 0 q304 0 387.5 60.5 q83.5 60.5 83.5 73.5 q0 30 -120 164 q-120 134 -400 287 q58 129 91.5 165 q33.5 36 120.5 82 q146 77 328 152.5 q182 75.5 314 129.5 l-83 -189 q-163 -64 -322 -132 q-159 -68 -252 -122 Z" /><glyph glyph-name="uniFB91" unicode="&#xfb91;" d="M468 293 q-6 -38 -20 -74.5 q-14 -36.5 -36 -70.5 q-39 -59 -137 -103.5 q-98 -44.5 -268 -44.5 l-39 0 q-13 0 -19.5 11 q-6.5 11 -6.5 29 q0 46 30.5 110 q30.5 64 59.5 64 l27 0 q219 0 283 55 q64 55 64 72 q0 25 -97 181 q-97 156 -284 267 q57 128 93.5 162.5 q36.5 34.5 100.5 69.5 q146 78 333.5 155.5 q187.5 77.5 323.5 133.5 l-83 -189 q-125 -47 -292 -119 q-167 -72 -288 -146 l-2 -9 q86 -72 155 -151.5 q69 -79.5 124 -155.5 q118 -162 190.5 -244 q72.5 -82 252.5 -82 q14 0 20 -12 q6 -12 6 -30 q0 -46 -30 -109 q-30 -63 -59 -63 q-160 0 -242 79.5 q-82 79.5 -160 213.5 Z" /><glyph glyph-name="uni0643" unicode="&#x643;" d="M462 485 l-13 39 q154 0 249 31.5 q95 31.5 95 49.5 q0 3 -2.5 5 q-2.5 2 -9.5 3 q-22 2 -61 5.5 q-39 3.5 -89 10.5 q-43 6 -58.5 28 q-15.5 22 -15.5 59 q0 87 66 159.5 q66 72.5 129 72.5 q33 0 51 -17 q18 -17 18 -49 q0 -16 -4 -32 q-4 -16 -8 -26 l-29 -9 q-8 13 -18.5 20.5 q-10.5 7.5 -32.5 7.5 q-40 0 -78.5 -36.5 q-38.5 -36.5 -38.5 -58.5 q0 -6 6.5 -10.5 q6.5 -4.5 22.5 -6.5 q28 -4 70 -8.5 q42 -4.5 84 -8.5 q37 -4 47.5 -26 q10.5 -22 10.5 -51 q0 -56 -56 -125.5 q-56 -69.5 -160 -69.5 q-42 0 -89 10.5 q-47 10.5 -86 32.5 ZM613 171 q285 0 396.5 66.5 q111.5 66.5 111.5 82.5 q-1 63 -17.5 396.5 q-16.5 333.5 -16.5 355.5 q0 18 6 39.5 q6 21.5 13 36.5 q16 34 39 85.5 q23 51.5 42 96.5 l45 23 q-1 -8 -2.5 -26.5 q-1.5 -18.5 -1.5 -46.5 q0 -104 10 -285.5 q10 -181.5 10 -284.5 q0 -132 -19.5 -273.5 q-19.5 -141.5 -91.5 -251.5 q-66 -100 -217.5 -164 q-151.5 -64 -373.5 -64 q-245 0 -333 78 q-88 78 -88 203 q0 48 11.5 106.5 q11.5 58.5 27.5 112.5 l60 18 q-8 -36 -16.5 -61.5 q-8.5 -25.5 -8.5 -64.5 q0 -63 75.5 -120.5 q75.5 -57.5 338.5 -57.5 Z" /><glyph glyph-name="uniFEDA" unicode="&#xfeda;" d="M458 485 l-14 39 q154 0 249 31.5 q95 31.5 95 49.5 q0 3 -2.5 5 q-2.5 2 -8.5 3 q-23 2 -61.5 5.5 q-38.5 3.5 -88.5 10.5 q-43 6 -59 28 q-16 22 -16 59 q0 87 66 159.5 q66 72.5 129 72.5 q33 0 51.5 -17 q18.5 -17 18.5 -49 q0 -16 -4 -32 q-4 -16 -8 -26 l-30 -9 q-7 13 -18 20.5 q-11 7.5 -33 7.5 q-40 0 -78 -36.5 q-38 -36.5 -38 -58.5 q0 -6 6.5 -10.5 q6.5 -4.5 22.5 -6.5 q28 -4 69.5 -8.5 q41.5 -4.5 83.5 -8.5 q37 -4 47.5 -26 q10.5 -22 10.5 -51 q0 -56 -56 -125.5 q-56 -69.5 -160 -69.5 q-42 0 -88.5 10.5 q-46.5 10.5 -85.5 32.5 ZM1471 214 q14 0 20 -12 q6 -12 6 -29 q0 -46 -30.5 -109.5 q-30.5 -63.5 -58.5 -63.5 q-115 0 -185 49.5 q-70 49.5 -94 137.5 q-84 -125 -250 -177.5 q-166 -52.5 -333 -52.5 q-235 0 -328 75.5 q-93 75.5 -93 200.5 q0 48 11.5 109.5 q11.5 61.5 27.5 115.5 l59 17 q-7 -28 -15 -58 q-8 -30 -8 -63 q0 -65 73 -124 q73 -59 326 -59 q247 0 358 48 q111 48 130 67 q4 4 6 21 q2 17 2 43 q0 26 -5 368 q-5 342 -5 358 q0 22 6 42 q6 20 15 38 q21 42 36 77.5 q15 35.5 44 95.5 l46 24 q-7 -20 -10.5 -137 q-3.5 -117 -3.5 -263 q0 -140 2.5 -279.5 q2.5 -139.5 6.5 -216.5 q7 -157 67.5 -200 q60.5 -43 176.5 -43 Z" /><glyph glyph-name="uniFEDB" unicode="&#xfedb;" d="M211 885 l-4 -12 q46 -27 96 -59.5 q50 -32.5 101 -74.5 q106 -88 159.5 -157 q53.5 -69 53.5 -145 q0 -46 -9 -96 q-9 -50 -28 -96 q-46 -116 -176.5 -180.5 q-130.5 -64.5 -396.5 -64.5 l-39 0 q-13 0 -19.5 11.5 q-6.5 11.5 -6.5 29.5 q0 46 30.5 109.5 q30.5 63.5 59.5 63.5 l31 0 q304 0 387.5 60.5 q83.5 60.5 83.5 73.5 q0 30 -120 164 q-120 134 -400 287 q58 129 91.5 165 q33.5 36 120.5 82 q146 77 328 152.5 q182 75.5 314 129.5 l-83 -189 q-163 -64 -322 -132 q-159 -68 -252 -122 Z" /><glyph glyph-name="uniFEDC" unicode="&#xfedc;" d="M468 293 q-6 -38 -20 -74.5 q-14 -36.5 -36 -70.5 q-39 -59 -137 -103.5 q-98 -44.5 -268 -44.5 l-39 0 q-13 0 -19.5 11 q-6.5 11 -6.5 29 q0 46 30.5 110 q30.5 64 59.5 64 l27 0 q219 0 283 55 q64 55 64 72 q0 25 -97 181 q-97 156 -284 267 q57 128 93.5 162.5 q36.5 34.5 100.5 69.5 q146 78 333.5 155.5 q187.5 77.5 323.5 133.5 l-83 -189 q-125 -47 -292 -119 q-167 -72 -288 -146 l-2 -9 q86 -72 155 -151.5 q69 -79.5 124 -155.5 q118 -162 190.5 -244 q72.5 -82 252.5 -82 q14 0 20 -12 q6 -12 6 -30 q0 -46 -30 -109 q-30 -63 -59 -63 q-160 0 -242 79.5 q-82 79.5 -160 213.5 Z" /><glyph glyph-name="uni06AF" unicode="&#x6af;" d="M1047 1041 l51 101 q106 55 272 127 q166 72 330 131 l-46 -93 q-128 -49 -301 -123 q-173 -74 -306 -143 ZM764 171 q345 0 490.5 68 q145.5 68 145.5 90 q-1 31 -126 158.5 q-125 127.5 -394 265.5 q57 119 84 150 q27 31 126 80 q146 72 322 142.5 q176 70.5 322 123.5 l-82 -177 q-163 -60 -322.5 -127 q-159.5 -67 -252.5 -118 l-4 -11 q41 -24 93.5 -52 q52.5 -28 103.5 -68 q106 -82 161.5 -150 q55.5 -68 55.5 -136 q0 -59 -20.5 -123 q-20.5 -64 -64.5 -118 q-78 -98 -264.5 -155 q-186.5 -57 -459.5 -57 q-298 0 -425.5 87.5 q-127.5 87.5 -127.5 237.5 q0 51 12.5 117 q12.5 66 33.5 124 l60 18 q-10 -29 -18.5 -64 q-8.5 -35 -8.5 -67 q0 -88 106 -163.5 q106 -75.5 454 -75.5 Z" /><glyph glyph-name="uniFB93" unicode="&#xfb93;" d="M1047 1058 l46 96 q107 55 272.5 126.5 q165.5 71.5 330.5 131.5 l-42 -88 q-128 -49 -301 -123 q-173 -74 -306 -143 ZM734 170 q313 0 427 65 q114 65 114 85 q0 28 -104 183 q-104 155 -291 266 q54 114 86 146.5 q32 32.5 107 70.5 q146 75 333 149 q187 74 322 127 l-83 -180 q-125 -45 -289 -114 q-164 -69 -286 -139 l-2 -9 q78 -61 145 -138 q67 -77 127 -155 q122 -159 196 -236 q74 -77 255 -77 q14 0 20 -12 q6 -12 6 -30 q0 -46 -30.5 -109 q-30.5 -63 -59.5 -63 q-146 0 -235.5 79 q-89.5 79 -155.5 192 q-13 -46 -34.5 -87.5 q-21.5 -41.5 -48.5 -71.5 q-49 -51 -204 -103.5 q-155 -52.5 -381 -52.5 q-298 0 -420.5 87.5 q-122.5 87.5 -122.5 237.5 q0 52 12.5 117.5 q12.5 65.5 34.5 123.5 l59 18 q-10 -30 -19 -65.5 q-9 -35.5 -9 -69.5 q0 -87 94 -161 q94 -74 437 -74 Z" /><glyph glyph-name="uniFB94" unicode="&#xfb94;" d="M174 1083 l51 101 q106 55 272 127 q166 72 330 131 l-46 -93 q-128 -49 -301 -123 q-173 -74 -306 -143 ZM211 868 l-4 -11 q45 -25 95.5 -57.5 q50.5 -32.5 101.5 -72.5 q106 -86 159.5 -152.5 q53.5 -66.5 53.5 -140.5 q0 -45 -9.5 -94 q-9.5 -49 -28.5 -95 q-46 -114 -176 -179.5 q-130 -65.5 -396 -65.5 l-39 0 q-13 0 -19.5 11.5 q-6.5 11.5 -6.5 29.5 q0 46 30.5 109.5 q30.5 63.5 59.5 63.5 l31 0 q304 0 387.5 60.5 q83.5 60.5 83.5 73.5 q0 30 -120 159.5 q-120 129.5 -400 277.5 q57 123 89 158 q32 35 122 81 q146 75 328.5 148 q182.5 73 314.5 126 l-83 -184 q-163 -62 -322 -128 q-159 -66 -252 -118 Z" /><glyph glyph-name="uniFB95" unicode="&#xfb95;" d="M182 1074 l48 99 q107 55 273 127 q166 72 330 132 l-44 -92 q-128 -49 -301 -123 q-173 -74 -306 -143 ZM467 286 q-13 -46 -26.5 -81.5 q-13.5 -35.5 -42.5 -71.5 q-46 -57 -138 -95 q-92 -38 -252 -38 l-40 0 q-13 0 -19.5 11 q-6.5 11 -6.5 29 q0 46 30.5 110 q30.5 64 59.5 64 l28 0 q211 0 279 52 q68 52 68 69 q0 27 -103.5 188.5 q-103.5 161.5 -277.5 256.5 q54 122 87.5 155.5 q33.5 33.5 110.5 73.5 q146 77 332 153 q186 76 320 130 l-83 -186 q-125 -46 -294.5 -117 q-169.5 -71 -290.5 -144 l-2 -9 q81 -65 153.5 -148 q72.5 -83 130.5 -164 q116 -161 192 -235.5 q76 -74.5 257 -74.5 q13 0 19.5 -12 q6.5 -12 6.5 -29 q0 -46 -30.5 -109.5 q-30.5 -63.5 -59.5 -63.5 q-153 0 -244.5 79.5 q-91.5 79.5 -163.5 206.5 Z" /><glyph glyph-name="uni0644" unicode="&#x644;" d="M198 224 l64 22 q-19 -57 -36.5 -128 q-17.5 -71 -17.5 -131 q0 -96 55.5 -166.5 q55.5 -70.5 227.5 -70.5 q219 0 324 103.5 q105 103.5 105 141.5 q0 103 -19.5 559 q-19.5 456 -19.5 500 q0 28 6.5 57.5 q6.5 29.5 16.5 49.5 q20 41 35 75.5 q15 34.5 46 92.5 l45 24 q-3 -23 -4.5 -60.5 q-1.5 -37.5 -1.5 -88.5 q0 -116 12 -378.5 q12 -262.5 12 -461.5 q0 -172 -34 -334 q-34 -162 -116 -288 q-40 -59 -144.5 -133.5 q-104.5 -74.5 -279.5 -74.5 q-183 0 -266 101 q-83 101 -83 250 q0 87 19 170 q19 83 54 169 Z" /><glyph glyph-name="uniFEDE" unicode="&#xfede;" d="M198 224 l64 22 q-19 -57 -36.5 -128 q-17.5 -71 -17.5 -131 q0 -96 55.5 -166.5 q55.5 -70.5 227.5 -70.5 q219 0 324 103.5 q105 103.5 105 141.5 q0 103 -19.5 558.5 q-19.5 455.5 -19.5 499.5 q0 28 6.5 57.5 q6.5 29.5 16.5 49.5 q20 41 35 76 q15 35 45 93 l46 24 q-3 -22 -4.5 -62 q-1.5 -40 -1.5 -93 q0 -113 8.5 -328 q8.5 -215 16.5 -421 q6 -151 76.5 -193 q70.5 -42 163.5 -42 q13 0 19.5 -12 q6.5 -12 6.5 -30 q0 -46 -30.5 -109 q-30.5 -63 -59.5 -63 q-72 0 -120 24.5 q-48 24.5 -76 63.5 q-16 -97 -49 -182.5 q-33 -85.5 -82 -163.5 q-38 -60 -143.5 -134 q-105.5 -74 -280.5 -74 q-184 0 -266.5 101 q-82.5 101 -82.5 250 q0 87 19 170 q19 83 54 169 Z" /><glyph glyph-name="uniFEDF" unicode="&#xfedf;" d="M-32 0 q-13 0 -19.5 11.5 q-6.5 11.5 -6.5 29.5 q0 46 30.5 109.5 q30.5 63.5 59.5 63.5 q131 0 174 36.5 q43 36.5 43 47.5 q0 142 -13.5 399.5 q-13.5 257.5 -13.5 356.5 q0 31 5 51.5 q5 20.5 15 43.5 q19 41 36.5 81 q17.5 40 42.5 100 l43 23 q-2 -12 -3.5 -37 q-1.5 -25 -1.5 -63 q0 -130 8.5 -348.5 q8.5 -218.5 8.5 -309.5 q0 -78 -8 -156.5 q-8 -78.5 -22 -132.5 q-31 -114 -111 -210 q-80 -96 -267 -96 Z" /><glyph glyph-name="uniFEE0" unicode="&#xfee0;" d="M-32 0 q-13 0 -19.5 11 q-6.5 11 -6.5 29 q0 46 30.5 110 q30.5 64 59.5 64 q131 0 171 43 q40 43 40 58 q0 188 -9.5 436.5 q-9.5 248.5 -9.5 308.5 q0 32 5.5 52.5 q5.5 20.5 16.5 44.5 q22 46 37.5 79.5 q15.5 33.5 42.5 93.5 l46 23 q-5 -22 -7.5 -90 q-2.5 -68 -2.5 -160 q0 -97 4.5 -336 q4.5 -239 6.5 -320 q3 -154 80 -193.5 q77 -39.5 164 -39.5 q13 0 19 -12 q6 -12 6 -30 q0 -46 -30 -109 q-30 -63 -59 -63 q-105 0 -170.5 44.5 q-65.5 44.5 -99.5 109.5 q-43 -69 -117.5 -111.5 q-74.5 -42.5 -197.5 -42.5 Z" /><glyph glyph-name="uni0645" unicode="&#x645;" d="M548 387 q140 0 229 -11 q89 -11 171 -28 q-23 128 -93 199.5 q-70 71.5 -148 71.5 q-47 0 -95 -66.5 q-48 -66.5 -64 -165.5 ZM421 384 l37 3 q16 120 101 269.5 q85 149.5 222 149.5 q131 0 201.5 -111.5 q70.5 -111.5 70.5 -235.5 q0 -100 -57.5 -204 q-57.5 -104 -118.5 -104 q-17 0 -131 11 q-114 11 -216 11 q-64 0 -137 -6.5 q-73 -6.5 -128 -22.5 q-2 -1 -3 -9.5 q-1 -8.5 -1 -22.5 q0 -54 9.5 -164 q9.5 -110 9.5 -189 q0 -79 -9.5 -149 q-9.5 -70 -31.5 -121 q-16 -39 -32.5 -73.5 q-16.5 -34.5 -29.5 -61.5 l-40 -11 q6 32 8 74 q2 42 2 88 q0 131 -11 277 q-11 146 -11 168 q0 150 93.5 288.5 q93.5 138.5 202.5 145.5 Z" /><glyph glyph-name="uniFEE2" unicode="&#xfee2;" d="M946 85 q0 20 -83 117.5 q-83 97.5 -180 273.5 q-27 -44 -55.5 -118.5 q-28.5 -74.5 -28.5 -132.5 q0 -43 29 -120 q29 -77 185 -77 q66 0 99.5 23.5 q33.5 23.5 33.5 33.5 ZM1019 50 q-16 -60 -77.5 -132 q-61.5 -72 -183.5 -72 q-146 0 -204.5 86 q-58.5 86 -58.5 196 q0 46 10 98.5 q10 52.5 29 100.5 q-110 -4 -184.5 -27.5 q-74.5 -23.5 -97.5 -42.5 q0 -75 18 -237 q18 -162 18 -280 q0 -46 -11 -129.5 q-11 -83.5 -36 -146.5 q-16 -38 -23.5 -57.5 q-7.5 -19.5 -20.5 -46.5 l-43 -17 q4 25 6 58 q2 33 2 71 q0 156 -18.5 352.5 q-18.5 196.5 -18.5 215.5 q0 118 50.5 229 q50.5 111 129.5 181 q42 37 119.5 58.5 q77.5 21.5 199.5 23.5 q4 15 36.5 72 q32.5 57 81.5 108 q158 -285 265 -391.5 q107 -106.5 264 -106.5 q14 0 20 -12 q6 -12 6 -30 q0 -46 -30.5 -109 q-30.5 -63 -59.5 -63 q-51 0 -107 14 q-56 14 -81 36 Z" /><glyph glyph-name="uniFEE3" unicode="&#xfee3;" d="M-32 0 q-13 0 -19.5 11 q-6.5 11 -6.5 29 q0 46 30.5 110 q30.5 64 59.5 64 q133 0 183.5 45 q50.5 45 90.5 135 q53 121 119.5 211 q66.5 90 153.5 90 q83 0 172.5 -108.5 q89.5 -108.5 89.5 -258.5 q0 -111 -57 -229.5 q-57 -118.5 -150 -118.5 q-79 0 -188.5 40 q-109.5 40 -168.5 106 q-45 -65 -120.5 -95.5 q-75.5 -30.5 -188.5 -30.5 ZM356 303 q55 -54 170 -91.5 q115 -37.5 192 -37.5 q13 0 18.5 9 q5.5 9 5.5 19 q0 109 -80.5 209.5 q-80.5 100.5 -143.5 100.5 q-58 0 -100.5 -79 q-42.5 -79 -61.5 -130 Z" /><glyph glyph-name="uniFEE4" unicode="&#xfee4;" d="M356 303 q51 -50 153 -86 q102 -36 179 -41 q10 -1 19.5 -1.5 q9.5 -0.5 17.5 0.5 q10 1 14 10 q4 9 4 17 q0 98 -81 204 q-81 106 -144 106 q-57 0 -100 -79 q-43 -79 -62 -130 ZM-32 0 q-13 0 -19.5 11 q-6.5 11 -6.5 29 q0 46 30.5 110 q30.5 64 59.5 64 q133 0 183.5 45 q50.5 45 90.5 135 q53 121 120 199 q67 78 155 78 q67 0 123.5 -53.5 q56.5 -53.5 119.5 -176.5 q71 -137 130.5 -182.5 q59.5 -45.5 166.5 -45.5 q14 0 20 -11.5 q6 -11.5 6 -29.5 q0 -46 -30 -109 q-30 -63 -59 -63 q-78 0 -139.5 36.5 q-61.5 36.5 -107.5 108.5 l-5 0 q-26 -68 -70.5 -116.5 q-44.5 -48.5 -101.5 -48.5 q-79 0 -188 40 q-109 40 -169 106 q-45 -65 -120.5 -95.5 q-75.5 -30.5 -188.5 -30.5 Z" /><glyph glyph-name="uni0646" unicode="&#x646;" d="M409 498 l73 173 q51 -14 97.5 -41 q46.5 -27 81.5 -58 q-7 -40 -29.5 -83.5 q-22.5 -43.5 -47.5 -79.5 q-33 25 -80.5 52 q-47.5 27 -94.5 37 ZM200 236 l69 23 q-19 -48 -36.5 -115 q-17.5 -67 -17.5 -123 q0 -101 69.5 -192.5 q69.5 -91.5 291.5 -91.5 q249 0 337 113 q88 113 88 140 q0 22 -30.5 148.5 q-30.5 126.5 -146.5 266.5 l84 188 q101 -107 142.5 -229 q41.5 -122 41.5 -235 q0 -39 -12 -142.5 q-12 -103.5 -59 -199.5 q-50 -103 -170.5 -189.5 q-120.5 -86.5 -320.5 -86.5 q-210 0 -307.5 114.5 q-97.5 114.5 -97.5 278.5 q0 96 25 182.5 q25 86.5 50 149.5 Z" /><glyph glyph-name="uniFEE6" unicode="&#xfee6;" d="M421 409 l73 173 q51 -14 97.5 -41 q46.5 -27 81.5 -58 q-7 -40 -29.5 -83.5 q-22.5 -43.5 -47.5 -79.5 q-33 25 -80.5 52 q-47.5 27 -94.5 37 ZM1251 214 q13 0 19 -11.5 q6 -11.5 6 -29.5 q0 -46 -30 -109.5 q-30 -63.5 -59 -63.5 q-28 0 -58 6 q-30 6 -49 20 q-6 -57 -21 -121 q-15 -64 -47 -130 q-50 -102 -167 -188.5 q-117 -86.5 -314 -86.5 q-210 0 -308 115 q-98 115 -98 279 q0 93 22 173.5 q22 80.5 54 156.5 l68 23 q-20 -47 -36.5 -113.5 q-16.5 -66.5 -16.5 -123.5 q0 -101 69 -193 q69 -92 292 -92 q253 0 336.5 110 q83.5 110 83.5 134 q0 13 -29.5 88.5 q-29.5 75.5 -115.5 183.5 l84 181 l14 0 q31 -64 96 -136 q65 -72 205 -72 Z" /><glyph glyph-name="uniFEE7" unicode="&#xfee7;" d="M355 987 l-108 -156 q-25 25 -79.5 51.5 q-54.5 26.5 -97.5 30.5 l104 157 q51 -10 96 -31 q45 -21 85 -52 ZM302 163 q-40 -69 -125.5 -116 q-85.5 -47 -210.5 -47 q-13 1 -18.5 12.5 q-5.5 11.5 -5.5 28.5 q0 46 30.5 109.5 q30.5 63.5 59.5 63.5 q137 0 191.5 34.5 q54.5 34.5 54.5 44.5 q0 22 -32 95 q-32 73 -99 132 l91 182 q72 -67 97.5 -141.5 q25.5 -74.5 25.5 -157.5 q0 -44 -12 -111 q-12 -67 -47 -129 Z" /><glyph glyph-name="uniFEE8" unicode="&#xfee8;" d="M453 709 l-108 -156 q-25 25 -79.5 51.5 q-54.5 26.5 -97.5 30.5 l104 157 q51 -10 96 -31 q45 -21 85 -52 ZM638 214 q13 0 19 -12 q6 -12 6 -29 q0 -46 -30 -109.5 q-30 -63.5 -59 -63.5 q-127 0 -186.5 45 q-59.5 45 -79.5 98 q-28 -46 -103.5 -94.5 q-75.5 -48.5 -235.5 -48.5 q-14 0 -20.5 11 q-6.5 11 -6.5 29 q0 46 30.5 110 q30.5 64 59.5 64 q148 0 210 51 q62 51 87 140 l54 14 q-2 -8 -3.5 -20 q-1.5 -12 -1.5 -27 q0 -95 84.5 -126.5 q84.5 -31.5 175.5 -31.5 Z" /><glyph glyph-name="uni0648" unicode="&#x648;" d="M243 330 q0 -37 45 -74.5 q45 -37.5 166 -37.5 q30 0 79.5 2 q49.5 2 104.5 14 q-19 82 -69.5 164.5 q-50.5 82.5 -149.5 82.5 q-81 0 -128.5 -58 q-47.5 -58 -47.5 -93 ZM428 0 q-146 0 -204.5 76.5 q-58.5 76.5 -58.5 208.5 q0 137 83.5 252.5 q83.5 115.5 200.5 115.5 q139 0 214 -157 q75 -157 75 -355 q0 -332 -145 -479 q-145 -147 -275 -147 q-84 0 -158.5 48.5 q-74.5 48.5 -117.5 71.5 l-13 49 q17 -6 33.5 -7.5 q16.5 -1.5 37.5 -1.5 q242 0 397.5 133 q155.5 133 155.5 195 q0 7 -0.5 22 q-0.5 15 -1.5 31 q-37 -26 -93.5 -41 q-56.5 -15 -129.5 -15 Z" /><glyph glyph-name="uniFEEE" unicode="&#xfeee;" d="M250 324 q0 -32 43.5 -71.5 q43.5 -39.5 186.5 -39.5 l169 0 q-10 81 -69.5 173 q-59.5 92 -154.5 92 q-90 0 -132.5 -61.5 q-42.5 -61.5 -42.5 -92.5 ZM758 0 l-25 0 q-32 -257 -167 -371 q-135 -114 -251 -114 q-84 0 -159 48.5 q-75 48.5 -118 70.5 l-13 49 q19 -5 34 -7 q15 -2 33 -2 q249 0 403 135.5 q154 135.5 157 190.5 l-200 0 q-166 0 -223 77 q-57 77 -57 205 q0 130 79.5 249 q79.5 119 205.5 119 q131 0 201 -129 q70 -129 80 -307 l84 0 q13 0 19.5 -12 q6.5 -12 6.5 -29 q0 -46 -30.5 -109.5 q-30.5 -63.5 -59.5 -63.5 Z" /><glyph glyph-name="uni0624" unicode="&#x624;" d="M622 957 l7 -24 q-9 -18 -31.5 -47 q-22.5 -29 -22.5 -29 q-78 -7 -156 -22.5 q-78 -15.5 -150 -49.5 l0 31 q9 16 19.5 27.5 q10.5 11.5 20.5 18.5 q13 8 30.5 16.5 q17.5 8.5 35.5 15.5 q-55 21 -76.5 56 q-21.5 35 -21.5 75 q0 96 65 145.5 q65 49.5 125 49.5 q47 0 81 -30.5 q34 -30.5 34 -81.5 q0 -13 -2.5 -27.5 q-2.5 -14.5 -6.5 -29.5 l-30 -16 q-3 34 -24 58 q-21 24 -60 24 q-49 0 -91 -29 q-42 -29 -42 -50 q0 -25 48.5 -57.5 q48.5 -32.5 141.5 -32.5 q25 0 51 2 q26 2 55 7 ZM243 330 q0 -37 45 -74.5 q45 -37.5 166 -37.5 q30 0 79.5 2 q49.5 2 104.5 14 q-19 82 -69.5 164.5 q-50.5 82.5 -149.5 82.5 q-81 0 -128.5 -58 q-47.5 -58 -47.5 -93 ZM428 0 q-146 0 -204.5 76.5 q-58.5 76.5 -58.5 208.5 q0 137 83.5 252.5 q83.5 115.5 200.5 115.5 q139 0 214 -157 q75 -157 75 -355 q0 -332 -145 -479 q-145 -147 -275 -147 q-84 0 -158.5 48.5 q-74.5 48.5 -117.5 71.5 l-13 49 q17 -6 33.5 -7.5 q16.5 -1.5 37.5 -1.5 q242 0 397.5 133 q155.5 133 155.5 195 q0 7 -0.5 22 q-0.5 15 -1.5 31 q-37 -26 -93.5 -41 q-56.5 -15 -129.5 -15 Z" /><glyph glyph-name="uniFE86" unicode="&#xfe86;" d="M635 945 l7 -24 q-9 -18 -31.5 -47 q-22.5 -29 -22.5 -29 q-78 -7 -156 -22.5 q-78 -15.5 -150 -49.5 l0 31 q20 35 45.5 50 q25.5 15 60.5 28 q-55 21 -76.5 56 q-21.5 35 -21.5 75 q0 90 57.5 139 q57.5 49 116.5 54 q8 1 16.5 0.5 q8.5 -0.5 15.5 -1.5 q42 -4 70.5 -33.5 q28.5 -29.5 28.5 -75.5 q0 -13 -2.5 -27.5 q-2.5 -14.5 -6.5 -29.5 l-30 -16 q-3 34 -24 58 q-21 24 -60 24 q-49 0 -91 -29 q-42 -29 -42 -50 q0 -25 48.5 -57.5 q48.5 -32.5 141.5 -32.5 q25 0 51 2 q26 2 55 7 ZM254 324 q0 -32 43.5 -71.5 q43.5 -39.5 186.5 -39.5 l169 0 q-10 81 -69.5 173 q-59.5 92 -154.5 92 q-90 0 -132.5 -61.5 q-42.5 -61.5 -42.5 -92.5 ZM762 0 l-25 0 q-32 -257 -167 -371 q-135 -114 -251 -114 q-84 0 -159 48.5 q-75 48.5 -118 70.5 l-13 49 q19 -5 34 -7 q15 -2 33 -2 q249 0 403 135.5 q154 135.5 157 190.5 l-200 0 q-166 0 -223 77 q-57 77 -57 205 q0 130 79.5 249 q79.5 119 205.5 119 q131 0 201 -129 q70 -129 80 -307 l84 0 q13 0 19.5 -12 q6.5 -12 6.5 -29 q0 -46 -30.5 -109.5 q-30.5 -63.5 -59.5 -63.5 Z" /><glyph glyph-name="uniFEE9" unicode="&#xfee9;" d="M455 448 q0 -37 35 -90.5 q35 -53.5 113 -90.5 q78 26 120.5 80.5 q42.5 54.5 42.5 83.5 q0 34 -38.5 96 q-38.5 62 -122.5 62 q-69 0 -109.5 -58 q-40.5 -58 -40.5 -83 ZM758 228 q65 -25 171 -37.5 q106 -12.5 147 -12.5 q41 0 56.5 7 q15.5 7 15.5 20 q0 62 -83 151 q-83 89 -208 150 q-4 -81 -33 -156.5 q-29 -75.5 -66 -121.5 ZM41 35 q65 7 184.5 42 q119.5 35 211.5 85 q-34 33 -50 72.5 q-16 39.5 -16 84.5 q0 72 30 194 q30 122 141 280 q309 -73 505 -194 q196 -121 196 -269 q0 -63 -46 -202 q-46 -139 -167 -139 q-108 0 -230.5 29 q-122.5 29 -197.5 55 q-45 -33 -133 -79 q-88 -46 -175 -46 q-55 0 -132.5 18.5 q-77.5 18.5 -98.5 30.5 l-22 38 Z" /><glyph glyph-name="uni0647" unicode="&#x647;" d="M354 733 q197 -40 270 -148 q73 -108 73 -217 q0 -151 -76 -267.5 q-76 -116.5 -247 -116.5 q-133 0 -191 82 q-58 82 -58 198 q0 130 75 269.5 q75 139.5 154 199.5 ZM348 551 q-63 -43 -104.5 -117 q-41.5 -74 -41.5 -105 q0 -68 53 -106 q53 -38 160 -38 q84 0 140 33 q56 33 56 56 q0 54 -65.5 147 q-65.5 93 -197.5 130 Z" /><glyph glyph-name="uniFEEA" unicode="&#xfeea;" d="M680 958 l45 21 q-6 -25 -9 -73 q-3 -48 -3 -101 q0 -53 0.5 -180.5 q0.5 -127.5 1.5 -167.5 q4 -156 67.5 -199.5 q63.5 -43.5 179.5 -43.5 q13 0 19 -12 q6 -12 6 -29 q0 -46 -30 -109.5 q-30 -63.5 -59 -63.5 q-122 0 -198.5 54 q-76.5 54 -95.5 169 q-32 -83 -99 -133.5 q-67 -50.5 -174 -50.5 q-107 0 -156.5 60 q-49.5 60 -49.5 145 q0 167 129.5 289.5 q129.5 122.5 311.5 175.5 q-1 5 -1.5 12.5 q-0.5 7.5 -0.5 15.5 q1 22 5 34 q4 12 13 30 q22 43 44.5 77.5 q22.5 34.5 53.5 79.5 ZM588 548 q-149 -27 -263.5 -113.5 q-114.5 -86.5 -114.5 -123.5 q0 -24 45 -47 q45 -23 116 -23 q88 0 155.5 34 q67.5 34 67.5 97 q0 38 -2.5 104.5 q-2.5 66.5 -3.5 71.5 Z" /><glyph glyph-name="uniFEEB" unicode="&#xfeeb;" d="M143 291 q0 78 24.5 197 q24.5 119 145.5 292 q309 -73 505.5 -194 q196.5 -121 196.5 -269 q0 -63 -46 -202 q-46 -139 -167 -139 q-126 0 -250.5 30 q-124.5 30 -198.5 58 q-63 -27 -157 -45.5 q-94 -18.5 -228 -18.5 q-13 0 -19.5 11.5 q-6.5 11.5 -6.5 29.5 q0 46 30.5 109.5 q30.5 63.5 59.5 63.5 q34 0 64 2.5 q30 2.5 52 6.5 q-1 16 -3 32.5 q-2 16.5 -2 35.5 ZM224 425 q0 -38 25.5 -87 q25.5 -49 103.5 -83 q79 13 131 68.5 q52 55.5 52 90.5 q0 36 -38 99.5 q-38 63.5 -122 63.5 q-70 0 -111 -62.5 q-41 -62.5 -41 -89.5 ZM525 220 q65 -25 173.5 -40 q108.5 -15 149.5 -15 q40 0 55.5 7 q15.5 7 15.5 20 q0 62 -82.5 151 q-82.5 89 -207.5 150 q-4 -81 -35.5 -154 q-31.5 -73 -68.5 -119 Z" /><glyph glyph-name="uniFEEC" unicode="&#xfeec;" d="M32 214 l156 0 q13 154 96.5 307.5 q83.5 153.5 196.5 257.5 q86 -72 147.5 -176 q61.5 -104 61.5 -205 q0 -50 -14.5 -100 q-14.5 -50 -39.5 -84 l289 0 q13 0 19.5 -11.5 q6.5 -11.5 6.5 -29.5 q0 -46 -30.5 -109.5 q-30.5 -63.5 -59.5 -63.5 l-131 0 q15 -26 22 -62.5 q7 -36.5 7 -67.5 q0 -114 -62 -208 q-62 -94 -177 -94 q-127 0 -218.5 122.5 q-91.5 122.5 -118.5 309.5 l-215 0 q-13 0 -19.5 11 q-6.5 11 -6.5 29 q0 46 30.5 110 q30.5 64 59.5 64 ZM304 228 l1 -29 q120 0 202 30 q82 30 82 66 q0 37 -38 121 q-38 84 -128 169 q-49 -62 -84 -163 q-35 -101 -35 -194 ZM326 21 q25 -125 105.5 -209 q80.5 -84 175.5 -84 q28 0 45.5 20.5 q17.5 20.5 17.5 60.5 q0 96 -47.5 161 q-47.5 65 -146.5 65 q-38 0 -82.5 -5 q-44.5 -5 -67.5 -9 Z" /><glyph glyph-name="uni0649" unicode="&#x649;" d="M177 289 l67 23 q-20 -84 -30 -145 q-10 -61 -10 -113 q0 -139 88 -235 q88 -96 335 -96 q286 0 394 127 q108 127 108 171 q0 5 -8 9.5 q-8 4.5 -27 6.5 q-49 5 -151 14 q-102 9 -201 19 q-99 10 -138 59.5 q-39 49.5 -39 133.5 q0 213 147 378.5 q147 165.5 319 165.5 q81 0 130.5 -43.5 q49.5 -43.5 49.5 -124.5 q0 -33 -6 -70 q-6 -37 -10 -49 l-49 -26 q-4 31 -41 73.5 q-37 42.5 -133 42.5 q-140 0 -231 -110 q-91 -110 -91 -176 q0 -10 7.5 -21 q7.5 -11 41.5 -15 q58 -7 152 -17.5 q94 -10.5 216 -25.5 q77 -10 110.5 -54.5 q33.5 -44.5 33.5 -107.5 q0 -117 -118.5 -346 q-118.5 -229 -503.5 -229 q-268 0 -366 145 q-98 145 -98 325 q0 81 14 160 q14 79 38 151 Z" /><glyph glyph-name="uniFBE8" unicode="&#xfbe8;" d="M302 163 q-40 -69 -125.5 -116 q-85.5 -47 -210.5 -47 q-13 1 -18.5 12.5 q-5.5 11.5 -5.5 28.5 q0 46 30.5 109.5 q30.5 63.5 59.5 63.5 q137 0 191.5 34.5 q54.5 34.5 54.5 44.5 q0 22 -32 95 q-32 73 -99 132 l91 182 q72 -67 97.5 -141.5 q25.5 -74.5 25.5 -157.5 q0 -44 -12 -111 q-12 -67 -47 -129 Z" /><glyph glyph-name="uniFBE9" unicode="&#xfbe9;" d="M638 214 q13 0 19 -12 q6 -12 6 -29 q0 -46 -30 -109.5 q-30 -63.5 -59 -63.5 q-127 0 -186.5 45 q-59.5 45 -79.5 98 q-28 -46 -103.5 -94.5 q-75.5 -48.5 -235.5 -48.5 q-14 0 -20.5 11 q-6.5 11 -6.5 29 q0 46 30.5 110 q30.5 64 59.5 64 q148 0 210 51 q62 51 87 140 l54 14 q-2 -8 -3.5 -20 q-1.5 -12 -1.5 -27 q0 -95 84.5 -126.5 q84.5 -31.5 175.5 -31.5 Z" /><glyph glyph-name="uniFEF0" unicode="&#xfef0;" d="M178 269 l67 23 q-21 -84 -30.5 -145 q-9.5 -61 -9.5 -113 q0 -139 87.5 -235 q87.5 -96 334.5 -96 q307 0 405.5 122.5 q98.5 122.5 98.5 141.5 q0 5 -22 13.5 q-22 8.5 -71 15.5 q-77 11 -167.5 36.5 q-90.5 25.5 -129.5 66.5 q4 49 18.5 96.5 q14.5 47.5 35.5 82.5 q107 -44 264.5 -54 q157.5 -10 241.5 -10 l13 0 q14 0 20 -12 q6 -12 6 -30 q0 -46 -30.5 -109 q-30.5 -63 -59.5 -63 l-33 0 q-20 -137 -153 -324.5 q-133 -187.5 -475 -187.5 q-268 0 -366 145 q-98 145 -98 325 q0 85 14.5 161.5 q14.5 76.5 38.5 149.5 Z" /><glyph glyph-name="uni064A" unicode="&#x64a;" d="M177 289 l67 23 q-20 -84 -30 -145 q-10 -61 -10 -113 q0 -139 88 -235 q88 -96 335 -96 q286 0 394 127 q108 127 108 171 q0 5 -8 9.5 q-8 4.5 -27 6.5 q-49 5 -151 14 q-102 9 -201 19 q-99 10 -138 59.5 q-39 49.5 -39 133.5 q0 213 147 378.5 q147 165.5 319 165.5 q81 0 130.5 -43.5 q49.5 -43.5 49.5 -124.5 q0 -33 -6 -70 q-6 -37 -10 -49 l-49 -26 q-4 31 -41 73.5 q-37 42.5 -133 42.5 q-140 0 -231 -110 q-91 -110 -91 -176 q0 -10 7.5 -21 q7.5 -11 41.5 -15 q58 -7 152 -17.5 q94 -10.5 216 -25.5 q77 -10 110.5 -54.5 q33.5 -44.5 33.5 -107.5 q0 -117 -118.5 -346 q-118.5 -229 -503.5 -229 q-268 0 -366 145 q-98 145 -98 325 q0 81 14 160 q14 79 38 151 ZM886 -710 l-97 -140 q-23 23 -72 46.5 q-49 23.5 -87 27.5 l93 141 q46 -10 86.5 -28.5 q40.5 -18.5 76.5 -46.5 ZM634 -721 l-97 -140 q-23 23 -72 46.5 q-49 23.5 -87 27.5 l93 141 q46 -10 86.5 -28.5 q40.5 -18.5 76.5 -46.5 Z" /><glyph glyph-name="uniFEF2" unicode="&#xfef2;" d="M178 269 l67 23 q-21 -84 -30.5 -145 q-9.5 -61 -9.5 -113 q0 -139 87.5 -235 q87.5 -96 334.5 -96 q307 0 405.5 122.5 q98.5 122.5 98.5 141.5 q0 5 -22 13.5 q-22 8.5 -71 15.5 q-77 11 -167.5 36.5 q-90.5 25.5 -129.5 66.5 q4 49 18.5 96.5 q14.5 47.5 35.5 82.5 q107 -44 264.5 -54 q157.5 -10 241.5 -10 l13 0 q14 0 20 -12 q6 -12 6 -30 q0 -46 -30.5 -109 q-30.5 -63 -59.5 -63 l-33 0 q-20 -137 -153 -324.5 q-133 -187.5 -475 -187.5 q-268 0 -366 145 q-98 145 -98 325 q0 85 14.5 161.5 q14.5 76.5 38.5 149.5 ZM886 -730 l-97 -140 q-23 23 -72 46.5 q-49 23.5 -87 27.5 l93 141 q46 -10 86.5 -28.5 q40.5 -18.5 76.5 -46.5 ZM634 -741 l-97 -140 q-23 23 -72 46.5 q-49 23.5 -87 27.5 l93 141 q46 -10 86.5 -28.5 q40.5 -18.5 76.5 -46.5 Z" /><glyph glyph-name="uniFEF3" unicode="&#xfef3;" d="M352 163 q-40 -69 -125.5 -116 q-85.5 -47 -210.5 -47 l-50 0 q-13 0 -18.5 12 q-5.5 12 -5.5 29 q0 46 30.5 109.5 q30.5 63.5 59.5 63.5 l50 0 q137 0 191.5 34.5 q54.5 34.5 54.5 44.5 q0 22 -32 95 q-32 73 -99 132 l91 182 q72 -67 97.5 -141.5 q25.5 -74.5 25.5 -157.5 q0 -44 -12 -111 q-12 -67 -47 -129 ZM502 -240 l-97 -140 q-23 23 -72 46.5 q-49 23.5 -87 27.5 l93 141 q46 -10 86.5 -28.5 q40.5 -18.5 76.5 -46.5 ZM250 -251 l-97 -140 q-23 23 -72 46.5 q-49 23.5 -87 27.5 l93 141 q46 -10 86.5 -28.5 q40.5 -18.5 76.5 -46.5 Z" /><glyph glyph-name="uniFEF4" unicode="&#xfef4;" d="M638 214 q13 0 19 -12 q6 -12 6 -29 q0 -46 -30 -109.5 q-30 -63.5 -59 -63.5 q-127 0 -186.5 45 q-59.5 45 -79.5 98 q-28 -46 -103.5 -94.5 q-75.5 -48.5 -235.5 -48.5 q-14 0 -20.5 11 q-6.5 11 -6.5 29 q0 46 30.5 110 q30.5 64 59.5 64 q148 0 210 51 q62 51 87 140 l54 14 q-2 -8 -3.5 -20 q-1.5 -12 -1.5 -27 q0 -95 84.5 -126.5 q84.5 -31.5 175.5 -31.5 ZM552 -245 l-97 -140 q-23 23 -72 46.5 q-49 23.5 -87 27.5 l93 141 q46 -10 86.5 -28.5 q40.5 -18.5 76.5 -46.5 ZM300 -256 l-97 -140 q-23 23 -72 46.5 q-49 23.5 -87 27.5 l93 141 q46 -10 86.5 -28.5 q40.5 -18.5 76.5 -46.5 Z" /><glyph glyph-name="uni0679" unicode="&#x679;" d="M978 757 q0 15 -14.5 47.5 q-14.5 32.5 -68.5 32.5 q-19 0 -40 -4.5 q-21 -4.5 -42 -13.5 q-39 -17 -79.5 -49.5 q-40.5 -32.5 -81.5 -77.5 q24 -3 56.5 -4 q32.5 -1 61.5 -1 q102 0 155 27 q53 27 53 43 ZM587 695 q16 0 21.5 39 q5.5 39 5.5 88 q0 54 -2 110.5 q-2 56.5 -2 55.5 q0 13 2 23 q2 10 6 18 q7 13 17 26 q10 13 20 29 l35 17 q-1 -10 -1.5 -21.5 q-0.5 -11.5 -0.5 -24.5 q0 -33 2 -80 q2 -47 2 -82 q0 -37 -6.5 -66 q-6.5 -29 -19.5 -54 l10 0 q46 66 121.5 122.5 q75.5 56.5 130.5 56.5 q60 0 89.5 -33.5 q29.5 -33.5 29.5 -80.5 q0 -33 -20 -87 q-20 -54 -58 -92 q-43 -45 -106 -68.5 q-63 -23.5 -146 -23.5 q-69 0 -112.5 32 q-43.5 32 -66.5 72 l0 36 q9 -6 21 -9 q12 -3 28 -3 ZM1412 323 q0 19 -34.5 89 q-34.5 70 -105.5 133 l90 182 q69 -61 100 -137.5 q31 -76.5 31 -163.5 q0 -67 -22.5 -146.5 q-22.5 -79.5 -57.5 -118.5 q-66 -80 -258.5 -142.5 q-192.5 -62.5 -477.5 -62.5 q-298 0 -425 87.5 q-127 87.5 -127 237.5 q0 51 12.5 117 q12.5 66 33.5 124 l60 18 q-10 -29 -18.5 -64 q-8.5 -35 -8.5 -67 q0 -88 105.5 -164 q105.5 -76 453.5 -76 q349 0 499 64.5 q150 64.5 150 89.5 Z" /><glyph glyph-name="uniFB67" unicode="&#xfb67;" d="M717 670 q24 -3 56.5 -4 q32.5 -1 61.5 -1 q102 0 155 27 q53 27 53 43 q0 15 -14.5 47.5 q-14.5 32.5 -68.5 32.5 q-72 0 -129 -43.5 q-57 -43.5 -114 -101.5 ZM652 673 q16 0 21.5 39 q5.5 39 5.5 88 q0 54 -2 110.5 q-2 56.5 -2 55.5 q0 13 2 23 q2 10 6 18 q7 13 17 26 q10 13 20 29 l35 17 q-1 -10 -1.5 -21.5 q-0.5 -11.5 -0.5 -24.5 q0 -33 2 -80 q2 -47 2 -82 q0 -37 -6.5 -66 q-6.5 -29 -19.5 -54 l10 0 q46 66 121.5 122.5 q75.5 56.5 130.5 56.5 q60 0 89.5 -33.5 q29.5 -33.5 29.5 -80.5 q0 -33 -20 -87 q-20 -54 -58 -92 q-43 -45 -106 -68.5 q-63 -23.5 -146 -23.5 q-69 0 -112.5 32 q-43.5 32 -66.5 72 l0 36 q9 -6 21 -9 q12 -3 28 -3 ZM762 172 q190 0 331.5 26 q141.5 26 225.5 72 q49 25 85 68.5 q36 43.5 48 71.5 l53 -8 q-7 -11 -13 -30 q-6 -19 -6 -26 q0 -58 63.5 -95 q63.5 -37 193.5 -37 q14 0 20 -12 q6 -12 6 -30 q0 -46 -30.5 -109 q-30.5 -63 -59.5 -63 q-136 0 -201 45.5 q-65 45.5 -90 95.5 q-70 -67 -254.5 -125 q-184.5 -58 -457.5 -58 q-299 0 -425 84 q-126 84 -126 229 q0 49 12.5 114.5 q12.5 65.5 31.5 119.5 l61 18 q-9 -27 -17.5 -59 q-8.5 -32 -8.5 -63 q0 -81 103.5 -155 q103.5 -74 454.5 -74 Z" /><glyph glyph-name="uniFB68" unicode="&#xfb68;" d="M419 1023 q0 15 -14.5 47.5 q-14.5 32.5 -68.5 32.5 q-19 0 -40 -4.5 q-21 -4.5 -42 -13.5 q-39 -17 -79.5 -49.5 q-40.5 -32.5 -81.5 -77.5 q24 -3 56.5 -4 q32.5 -1 61.5 -1 q102 0 155 27 q53 27 53 43 ZM28 961 q16 0 21.5 39 q5.5 39 5.5 88 q0 54 -2 110.5 q-2 56.5 -2 55.5 q0 13 2 23 q2 10 6 18 q7 13 17 26 q10 13 20 29 l35 17 q-1 -10 -1.5 -21.5 q-0.5 -11.5 -0.5 -24.5 q0 -33 2 -80 q2 -47 2 -82 q0 -37 -6.5 -66 q-6.5 -29 -19.5 -54 l10 0 q46 66 121.5 122.5 q75.5 56.5 130.5 56.5 q60 0 89.5 -33.5 q29.5 -33.5 29.5 -80.5 q0 -33 -20 -87 q-20 -54 -58 -92 q-43 -45 -106 -68.5 q-63 -23.5 -146 -23.5 q-69 0 -112.5 32 q-43.5 32 -66.5 72 l0 36 q9 -6 21 -9 q12 -3 28 -3 ZM302 163 q-40 -69 -125.5 -116 q-85.5 -47 -210.5 -47 q-13 1 -18.5 12.5 q-5.5 11.5 -5.5 28.5 q0 46 30.5 109.5 q30.5 63.5 59.5 63.5 q137 0 191.5 34.5 q54.5 34.5 54.5 44.5 q0 22 -32 95 q-32 73 -99 132 l91 182 q72 -67 97.5 -141.5 q25.5 -74.5 25.5 -157.5 q0 -44 -12 -111 q-12 -67 -47 -129 Z" /><glyph glyph-name="uniFB69" unicode="&#xfb69;" d="M499 754 q0 15 -14.5 47.5 q-14.5 32.5 -68.5 32.5 q-19 0 -40 -4.5 q-21 -4.5 -42 -13.5 q-39 -17 -79.5 -49.5 q-40.5 -32.5 -81.5 -77.5 q24 -3 56.5 -4 q32.5 -1 61.5 -1 q102 0 155 27 q53 27 53 43 ZM108 692 q16 0 21.5 39 q5.5 39 5.5 88 q0 54 -2 110.5 q-2 56.5 -2 55.5 q0 13 2 23 q2 10 6 18 q7 13 17 26 q10 13 20 29 l35 17 q-1 -10 -1.5 -21.5 q-0.5 -11.5 -0.5 -24.5 q0 -33 2 -80 q2 -47 2 -82 q0 -37 -6.5 -66 q-6.5 -29 -19.5 -54 l10 0 q46 66 121.5 122.5 q75.5 56.5 130.5 56.5 q60 0 89.5 -33.5 q29.5 -33.5 29.5 -80.5 q0 -33 -20 -87 q-20 -54 -58 -92 q-43 -45 -106 -68.5 q-63 -23.5 -146 -23.5 q-69 0 -112.5 32 q-43.5 32 -66.5 72 l0 36 q9 -6 21 -9 q12 -3 28 -3 ZM638 214 q13 0 19 -12 q6 -12 6 -29 q0 -46 -30 -109.5 q-30 -63.5 -59 -63.5 q-127 0 -186.5 45 q-59.5 45 -79.5 98 q-28 -46 -103.5 -94.5 q-75.5 -48.5 -235.5 -48.5 q-14 0 -20.5 11 q-6.5 11 -6.5 29 q0 46 30.5 110 q30.5 64 59.5 64 q148 0 210 51 q62 51 87 140 l54 14 q-2 -8 -3.5 -20 q-1.5 -12 -1.5 -27 q0 -95 84.5 -126.5 q84.5 -31.5 175.5 -31.5 Z" /><glyph glyph-name="uni0688" unicode="&#x688;" d="M593 1233 q0 15 -14.5 47.5 q-14.5 32.5 -68.5 32.5 q-19 0 -40 -4.5 q-21 -4.5 -42 -13.5 q-39 -17 -79.5 -49.5 q-40.5 -32.5 -81.5 -77.5 q24 -3 56.5 -4 q32.5 -1 61.5 -1 q102 0 155 27 q53 27 53 43 ZM202 1171 q16 0 21.5 39 q5.5 39 5.5 88 q0 54 -2 110.5 q-2 56.5 -2 55.5 q0 13 2 23 q2 10 6 18 q7 13 17 26 q10 13 20 29 l35 17 q-1 -10 -1.5 -21.5 q-0.5 -11.5 -0.5 -24.5 q0 -33 2 -80 q2 -47 2 -82 q0 -37 -6.5 -66 q-6.5 -29 -19.5 -54 l10 0 q46 66 121.5 122.5 q75.5 56.5 130.5 56.5 q60 0 89.5 -33.5 q29.5 -33.5 29.5 -80.5 q0 -33 -20 -87 q-20 -54 -58 -92 q-43 -45 -106 -68.5 q-63 -23.5 -146 -23.5 q-69 0 -112.5 32 q-43.5 32 -66.5 72 l0 36 q9 -6 21 -9 q12 -3 28 -3 ZM682 143 q-32 -69 -122 -114 q-90 -45 -217 -45 q-136 0 -177 58.5 q-41 58.5 -41 139.5 q0 40 3.5 71 q3.5 31 15.5 94 l54 18 q-1 -12 -3 -27.5 q-2 -15.5 -2 -28.5 q0 -54 31.5 -82.5 q31.5 -28.5 147.5 -28.5 q153 0 214 40.5 q61 40.5 61 52.5 q-2 28 -64.5 156.5 q-62.5 128.5 -282.5 245.5 l56 171 q198 -102 284.5 -228.5 q86.5 -126.5 86.5 -263.5 q0 -57 -12 -120.5 q-12 -63.5 -33 -108.5 Z" /><glyph glyph-name="uniFB89" unicode="&#xfb89;" d="M729 1208 q0 15 -14.5 47.5 q-14.5 32.5 -68.5 32.5 q-19 0 -40 -4.5 q-21 -4.5 -42 -13.5 q-39 -17 -79.5 -49.5 q-40.5 -32.5 -81.5 -77.5 q24 -3 56.5 -4 q32.5 -1 61.5 -1 q102 0 155 27 q53 27 53 43 ZM338 1146 q16 0 21.5 39 q5.5 39 5.5 88 q0 54 -2 110.5 q-2 56.5 -2 55.5 q0 13 2 23 q2 10 6 18 q7 13 17 26 q10 13 20 29 l35 17 q-1 -10 -1.5 -21.5 q-0.5 -11.5 -0.5 -24.5 q0 -33 2 -80 q2 -47 2 -82 q0 -37 -6.5 -66 q-6.5 -29 -19.5 -54 l10 0 q46 66 121.5 122.5 q75.5 56.5 130.5 56.5 q60 0 89.5 -33.5 q29.5 -33.5 29.5 -80.5 q0 -33 -20 -87 q-20 -54 -58 -92 q-43 -45 -106 -68.5 q-63 -23.5 -146 -23.5 q-69 0 -112.5 32 q-43.5 32 -66.5 72 l0 36 q9 -6 21 -9 q12 -3 28 -3 ZM149 345 l51 13 q-1 -13 -2 -24 q-1 -11 -1 -21 q0 -58 28.5 -85.5 q28.5 -27.5 132.5 -27.5 q125 0 175 32.5 q50 32.5 50 45.5 q0 25 -45 179.5 q-45 154.5 -71 244.5 q2 34 31.5 93.5 q29.5 59.5 54.5 96.5 q21 -66 45 -147 q24 -81 61 -209 q58 -202 104 -262 q46 -60 161 -60 q14 0 20 -12 q6 -12 6 -30 q0 -46 -30 -109 q-30 -63 -59 -63 q-135 0 -185 77 q-50 77 -62 123 q-6 -38 -17.5 -74.5 q-11.5 -36.5 -27.5 -55.5 q-25 -28 -88 -57 q-63 -29 -151 -29 q-105 0 -155 43 q-50 43 -50 130 q0 57 8.5 105.5 q8.5 48.5 15.5 82.5 Z" /><glyph glyph-name="uni0691" unicode="&#x691;" d="M631 899 q0 15 -15 47.5 q-15 32.5 -69 32.5 q-19 0 -39.5 -4.5 q-20.5 -4.5 -41.5 -13.5 q-40 -17 -80.5 -49.5 q-40.5 -32.5 -80.5 -77.5 q24 -3 56 -4 q32 -1 61 -1 q103 0 156 27 q53 27 53 43 ZM240 837 q16 0 21.5 39 q5.5 39 5.5 88 q0 54 -2.5 110.5 q-2.5 56.5 -2.5 55.5 q0 13 2 23 q2 10 6 18 q7 13 17 26 q10 13 20 29 l35 17 q-1 -10 -1.5 -21.5 q-0.5 -11.5 -0.5 -24.5 q0 -33 2 -80 q2 -47 2 -82 q0 -37 -6.5 -66 q-6.5 -29 -19.5 -54 l10 0 q46 66 121.5 122.5 q75.5 56.5 130.5 56.5 q61 0 90 -33.5 q29 -33.5 29 -80.5 q0 -33 -20 -87 q-20 -54 -57 -92 q-43 -45 -106 -68.5 q-63 -23.5 -147 -23.5 q-69 0 -112.5 32 q-43.5 32 -66.5 72 l1 36 q9 -6 21 -9 q12 -3 28 -3 ZM619 68 q0 28 -48 138.5 q-48 110.5 -152 198.5 l77 187 q93 -69 144 -200 q51 -131 51 -259 q0 -347 -142 -482 q-142 -135 -264 -135 q-94 0 -147 48.5 q-53 48.5 -99 71.5 l-14 49 q22 -4 34.5 -6.5 q12.5 -2.5 34.5 -2.5 q273 0 399 173 q126 173 126 219 Z" /><glyph glyph-name="uniFB8D" unicode="&#xfb8d;" d="M656 746 q0 15 -14.5 47.5 q-14.5 32.5 -68.5 32.5 q-19 0 -40 -4.5 q-21 -4.5 -42 -13.5 q-39 -17 -79.5 -49.5 q-40.5 -32.5 -81.5 -77.5 q24 -3 56.5 -4 q32.5 -1 61.5 -1 q102 0 155 27 q53 27 53 43 ZM647 648 q-43 -45 -106 -68.5 q-63 -23.5 -146 -23.5 q-69 0 -112.5 32 q-43.5 32 -66.5 72 l0 36 q9 -6 21 -9 q12 -3 28 -3 q16 0 21.5 39 q5.5 39 5.5 88 q0 54 -2 110.5 q-2 56.5 -2 55.5 q0 13 2 23 q2 10 6 18 q7 13 17 26 q10 13 20 29 l35 17 q-1 -10 -1.5 -21.5 q-0.5 -11.5 -0.5 -24.5 q0 -33 2 -80 q2 -47 2 -82 q0 -37 -6.5 -66 q-6.5 -29 -19.5 -54 l10 0 q46 66 121.5 122.5 q75.5 56.5 130.5 56.5 q60 0 89.5 -33.5 q29.5 -33.5 29.5 -80.5 q0 -33 -20 -87 q-20 -54 -58 -92 ZM841 214 q14 0 20 -11.5 q6 -11.5 6 -29.5 q0 -46 -30.5 -109.5 q-30.5 -63.5 -58.5 -63.5 q-19 0 -55.5 7.5 q-36.5 7.5 -55.5 19.5 q-11 -281 -140 -396 q-129 -115 -241 -115 q-93 0 -147.5 47 q-54.5 47 -102.5 72 l-13 49 q22 -4 39.5 -6.5 q17.5 -2.5 39.5 -2.5 q257 0 375.5 150 q118.5 150 119.5 184 q0 23 -42.5 83 q-42.5 60 -119.5 150 l91 177 q39 -71 105.5 -138 q66.5 -67 209.5 -67 Z" /><glyph glyph-name="uni06C1" unicode="&#x6c1;" d="M354 733 q197 -40 270 -148 q73 -108 73 -217 q0 -151 -76 -267.5 q-76 -116.5 -247 -116.5 q-133 0 -191 82 q-58 82 -58 198 q0 130 75 269.5 q75 139.5 154 199.5 ZM348 551 q-63 -43 -104.5 -117 q-41.5 -74 -41.5 -105 q0 -68 53 -106 q53 -38 160 -38 q84 0 140 33 q56 33 56 56 q0 54 -65.5 147 q-65.5 93 -197.5 130 Z" /><glyph glyph-name="uniFBA7" unicode="&#xfba7;" d="M811 214 q14 0 20 -12 q6 -12 6 -29 q0 -46 -30 -109.5 q-30 -63.5 -59 -63.5 q-135 0 -209 29.5 q-74 29.5 -117 54.5 q-49 -28 -138.5 -96.5 q-89.5 -68.5 -150.5 -113.5 l-8 64 q92 106 154.5 178 q62.5 72 140.5 159 q8 10 16.5 14 q8.5 4 16.5 4 q5 0 10 -2.5 q5 -2.5 12 -5.5 q43 -20 142 -45.5 q99 -25.5 194 -25.5 Z" /><glyph glyph-name="uniFBA8" unicode="&#xfba8;" d="M302 163 q-40 -69 -125.5 -116 q-85.5 -47 -210.5 -47 q-13 1 -18.5 12.5 q-5.5 11.5 -5.5 28.5 q0 46 30.5 109.5 q30.5 63.5 59.5 63.5 q137 0 191.5 34.5 q54.5 34.5 54.5 44.5 q0 22 -32 95 q-32 73 -99 132 l91 182 q72 -67 97.5 -141.5 q25.5 -74.5 25.5 -157.5 q0 -44 -12 -111 q-12 -67 -47 -129 ZM54 -471 q0 78 57.5 186 q57.5 108 104.5 157 l60 8 q-45 -55 -69 -114 q-24 -59 -24 -93 q1 -48 29 -71.5 q28 -23.5 64 -23.5 q13 0 30.5 1.5 q17.5 1.5 26.5 4.5 l-78 -172 q-17 -5 -36.5 -7 q-19.5 -2 -41.5 -2 q-48 0 -85 30.5 q-37 30.5 -38 95.5 Z" /><glyph glyph-name="uniFBA9" unicode="&#xfba9;" d="M956 214 q14 0 20 -12 q6 -12 6 -29 q0 -46 -30 -109.5 q-30 -63.5 -59 -63.5 l-10 0 q-169 0 -234 -99 q-65 -99 -90 -407 l-24 -15 q-163 57 -239 178.5 q-76 121.5 -76 270.5 q0 39 5.5 80 q5.5 41 15.5 81 q-54 -46 -117 -67.5 q-63 -21.5 -155 -21.5 q-14 0 -20.5 11 q-6.5 11 -6.5 29 q0 46 30.5 110 q30.5 64 59.5 64 l28 0 q87 0 138 22 q51 22 98 53 l62 11 q-19 -57 -34 -121.5 q-15 -64.5 -15 -136.5 q0 -123 48.5 -203.5 q48.5 -80.5 153.5 -146.5 q28 317 156 419.5 q128 102.5 265 102.5 l24 0 ZM-77 -602 q0 78 57.5 186.5 q57.5 108.5 104.5 157.5 l61 7 q-45 -55 -69 -114 q-24 -59 -24 -93 q1 -48 29 -71.5 q28 -23.5 64 -23.5 q13 0 30 1.5 q17 1.5 27 4.5 l-78 -172 q-18 -5 -37.5 -6.5 q-19.5 -1.5 -41.5 -1.5 q-48 0 -85 30 q-37 30 -38 95 Z" /><glyph glyph-name="uni06BE" unicode="&#x6be;" d="M574 267 q78 26 120.5 80.5 q42.5 54.5 42.5 83.5 q0 34 -38.5 96 q-38.5 62 -122.5 62 q-69 0 -109.5 -58 q-40.5 -58 -40.5 -83 q0 -37 35 -90.5 q35 -53.5 113 -90.5 ZM729 228 q65 -25 171 -37.5 q106 -12.5 147 -12.5 q41 0 56.5 7 q15.5 7 15.5 20 q0 62 -83 151 q-83 89 -208 150 q-4 -81 -33 -156.5 q-29 -75.5 -66 -121.5 ZM1001 -11 q-108 0 -230.5 29 q-122.5 29 -197.5 55 q-45 -33 -133 -79 q-88 -46 -175 -46 q-55 0 -132.5 18.5 q-77.5 18.5 -98.5 30.5 l-22 38 q65 7 184.5 42 q119.5 35 211.5 85 q-34 33 -50 72.5 q-16 39.5 -16 84.5 q0 72 30 194 q30 122 141 280 q309 -73 505 -194 q196 -121 196 -269 q0 -63 -46 -202 q-46 -139 -167 -139 Z" /><glyph glyph-name="uniFBAB" unicode="&#xfbab;" d="M519 0 q-184 0 -253 -33.5 q-69 -33.5 -118 -118.5 l-23 57 q76 190 164.5 245.5 q88.5 55.5 234.5 63.5 q13 154 96.5 307.5 q83.5 153.5 196.5 257.5 q86 -72 147.5 -176 q61.5 -104 61.5 -205 q0 -50 -14.5 -100 q-14.5 -50 -39.5 -84 l289 0 q13 0 19.5 -11.5 q6.5 -11.5 6.5 -29.5 q0 -46 -30.5 -109.5 q-30.5 -63.5 -59.5 -63.5 l-131 0 q15 -26 22 -62.5 q7 -36.5 7 -67.5 q0 -114 -62 -208 q-62 -94 -177 -94 q-127 0 -218.5 122.5 q-91.5 122.5 -118.5 309.5 ZM641 206 q122 0 203 26.5 q81 26.5 81 62.5 q0 37 -38 121 q-38 84 -128 169 q-51 -67 -84 -159.5 q-33 -92.5 -35 -187.5 q0 -8 0 -16 q0 -8 1 -16 ZM662 21 q25 -125 105.5 -209 q80.5 -84 175.5 -84 q28 0 45.5 20.5 q17.5 20.5 17.5 60.5 q0 96 -47.5 161 q-47.5 65 -146.5 65 q-38 0 -82.5 -5 q-44.5 -5 -67.5 -9 Z" /><glyph glyph-name="uniFBAC" unicode="&#xfbac;" d="M143 291 q0 78 24.5 197 q24.5 119 145.5 292 q309 -73 505.5 -194 q196.5 -121 196.5 -269 q0 -63 -46 -202 q-46 -139 -167 -139 q-126 0 -250.5 30 q-124.5 30 -198.5 58 q-63 -27 -157 -45.5 q-94 -18.5 -228 -18.5 q-13 0 -19.5 11.5 q-6.5 11.5 -6.5 29.5 q0 46 30.5 109.5 q30.5 63.5 59.5 63.5 q34 0 64 2.5 q30 2.5 52 6.5 q-1 16 -3 32.5 q-2 16.5 -2 35.5 ZM224 425 q0 -38 25.5 -87 q25.5 -49 103.5 -83 q79 13 131 68.5 q52 55.5 52 90.5 q0 36 -38 99.5 q-38 63.5 -122 63.5 q-70 0 -111 -62.5 q-41 -62.5 -41 -89.5 ZM525 220 q65 -25 173.5 -40 q108.5 -15 149.5 -15 q40 0 55.5 7 q15.5 7 15.5 20 q0 62 -82.5 151 q-82.5 89 -207.5 150 q-4 -81 -35.5 -154 q-31.5 -73 -68.5 -119 Z" /><glyph glyph-name="uniFBAD" unicode="&#xfbad;" d="M32 214 l156 0 q13 154 96.5 307.5 q83.5 153.5 196.5 257.5 q86 -72 147.5 -176 q61.5 -104 61.5 -205 q0 -50 -14.5 -100 q-14.5 -50 -39.5 -84 l289 0 q13 0 19.5 -11.5 q6.5 -11.5 6.5 -29.5 q0 -46 -30.5 -109.5 q-30.5 -63.5 -59.5 -63.5 l-131 0 q15 -26 22 -62.5 q7 -36.5 7 -67.5 q0 -114 -62 -208 q-62 -94 -177 -94 q-127 0 -218.5 122.5 q-91.5 122.5 -118.5 309.5 l-215 0 q-13 0 -19.5 11 q-6.5 11 -6.5 29 q0 46 30.5 110 q30.5 64 59.5 64 ZM304 228 q0 -7 0 -14.5 q0 -7.5 1 -14.5 q120 0 202 30 q82 30 82 66 q0 37 -38 121 q-38 84 -128 169 q-49 -62 -84 -163 q-35 -101 -35 -194 ZM326 21 q25 -125 105.5 -209 q80.5 -84 175.5 -84 q28 0 45.5 20.5 q17.5 20.5 17.5 60.5 q0 96 -47.5 161 q-47.5 65 -146.5 65 q-38 0 -82.5 -5 q-44.5 -5 -67.5 -9 Z" /><glyph glyph-name="uni06C2" unicode="&#x6c2;" d="M566 1060 l7 -24 q-9 -18 -31.5 -47 q-22.5 -29 -22.5 -29 q-78 -7 -156 -22.5 q-78 -15.5 -150 -49.5 l0 31 q9 16 19.5 27.5 q10.5 11.5 20.5 18.5 q13 8 30 16.5 q17 8.5 36 15.5 q-55 21 -76.5 56 q-21.5 35 -21.5 75 q0 96 65 145.5 q65 49.5 125 49.5 q46 0 80.5 -30.5 q34.5 -30.5 34.5 -81.5 q0 -13 -2.5 -27.5 q-2.5 -14.5 -6.5 -29.5 l-30 -16 q-3 34 -24 58 q-21 24 -60 24 q-49 0 -91 -29 q-42 -29 -42 -50 q0 -25 48.5 -57.5 q48.5 -32.5 141.5 -32.5 q25 0 51 2 q26 2 55 7 ZM354 733 q197 -40 270 -148 q73 -108 73 -217 q0 -151 -76 -267.5 q-76 -116.5 -247 -116.5 q-133 0 -191 82 q-58 82 -58 198 q0 130 75 269.5 q75 139.5 154 199.5 ZM348 551 q-63 -43 -104.5 -117 q-41.5 -74 -41.5 -105 q0 -68 53 -106 q53 -38 160 -38 q84 0 140 33 q56 33 56 56 q0 54 -65.5 147 q-65.5 93 -197.5 130 Z" /><glyph glyph-name="uni06D2" unicode="&#x6d2;" d="M953 118 q378 0 564.5 32 q186.5 32 232.5 66 l16 -42 q-84 -183 -311 -226.5 q-227 -43.5 -596 -43.5 q-340 0 -537 37 q-197 37 -197 172 q0 210 158.5 399.5 q158.5 189.5 347.5 189.5 q87 0 133.5 -47.5 q46.5 -47.5 46.5 -128.5 q0 -27 -5.5 -52.5 q-5.5 -25.5 -14.5 -53.5 l-51 -22 q-4 31 -38 73.5 q-34 42.5 -130 42.5 q-151 0 -253 -119 q-102 -119 -102 -155 q0 -38 159.5 -80 q159.5 -42 576.5 -42 Z" /><glyph glyph-name="uniFBAF" unicode="&#xfbaf;" d="M655 214 l775 0 q13 0 19 -12 q6 -12 6 -29 q0 -46 -30 -109.5 q-30 -63.5 -59 -63.5 l-774 0 q-201 0 -291 -79.5 q-90 -79.5 -90 -100.5 q0 -25 67.5 -62 q67.5 -37 294.5 -37 q101 0 231 3 q130 3 243 3 q199 0 253.5 -30 q54.5 -30 54.5 -119 q0 -21 -5.5 -51.5 q-5.5 -30.5 -11.5 -52.5 l-46 -20 q0 27 -52 44.5 q-52 17.5 -253 17.5 q-123 0 -233.5 -6 q-110.5 -6 -244.5 -6 q-193 0 -288.5 51 q-95.5 51 -95.5 152 q0 214 163 360.5 q163 146.5 367 146.5 Z" /><glyph glyph-name="uni06D3" unicode="&#x6d3;" d="M781 999 l7 -24 q-9 -18 -31.5 -47 q-22.5 -29 -22.5 -29 q-78 -7 -156 -22.5 q-78 -15.5 -150 -49.5 l0 31 q9 16 19.5 27.5 q10.5 11.5 20.5 18.5 q13 8 30 16.5 q17 8.5 36 15.5 q-55 21 -76.5 56 q-21.5 35 -21.5 75 q0 96 65 145.5 q65 49.5 125 49.5 q46 0 80.5 -30.5 q34.5 -30.5 34.5 -81.5 q0 -13 -2.5 -27.5 q-2.5 -14.5 -6.5 -29.5 l-30 -16 q-3 34 -24 58 q-21 24 -60 24 q-49 0 -91 -29 q-42 -29 -42 -50 q0 -25 48.5 -57.5 q48.5 -32.5 141.5 -32.5 q25 0 51 2 q26 2 55 7 ZM953 118 q378 0 564.5 32 q186.5 32 232.5 66 l16 -42 q-84 -183 -311 -226.5 q-227 -43.5 -596 -43.5 q-340 0 -537 37 q-197 37 -197 172 q0 210 158.5 399.5 q158.5 189.5 347.5 189.5 q87 0 133.5 -47.5 q46.5 -47.5 46.5 -128.5 q0 -27 -5.5 -52.5 q-5.5 -25.5 -14.5 -53.5 l-51 -22 q-4 31 -38 73.5 q-34 42.5 -130 42.5 q-151 0 -253 -119 q-102 -119 -102 -155 q0 -38 159.5 -80 q159.5 -42 576.5 -42 Z" /><glyph glyph-name="uniFBB1" unicode="&#xfbb1;" d="M676 520 l7 -24 q-9 -18 -31.5 -47 q-22.5 -29 -22.5 -29 q-78 -7 -156 -22.5 q-78 -15.5 -150 -49.5 l0 31 q9 16 19.5 27.5 q10.5 11.5 20.5 18.5 q13 8 30 16.5 q17 8.5 36 15.5 q-55 21 -76.5 56 q-21.5 35 -21.5 75 q0 96 65 145.5 q65 49.5 125 49.5 q46 0 80.5 -30.5 q34.5 -30.5 34.5 -81.5 q0 -13 -2.5 -27.5 q-2.5 -14.5 -6.5 -29.5 l-30 -16 q-3 34 -24 58 q-21 24 -60 24 q-49 0 -91 -29 q-42 -29 -42 -50 q0 -25 48.5 -57.5 q48.5 -32.5 141.5 -32.5 q25 0 51 2 q26 2 55 7 ZM655 214 l775 0 q13 0 19 -12 q6 -12 6 -29 q0 -46 -30 -109.5 q-30 -63.5 -59 -63.5 l-774 0 q-201 0 -291 -79.5 q-90 -79.5 -90 -100.5 q0 -25 67.5 -62 q67.5 -37 294.5 -37 q101 0 231 3 q130 3 243 3 q199 0 253.5 -30 q54.5 -30 54.5 -119 q0 -21 -5.5 -51.5 q-5.5 -30.5 -11.5 -52.5 l-46 -20 q0 27 -52 44.5 q-52 17.5 -253 17.5 q-123 0 -233.5 -6 q-110.5 -6 -244.5 -6 q-193 0 -288.5 51 q-95.5 51 -95.5 152 q0 214 163 360.5 q163 146.5 367 146.5 Z" /><glyph glyph-name="uni06CC" unicode="&#x6cc;" d="M177 289 l67 23 q-20 -84 -30 -145 q-10 -61 -10 -113 q0 -139 88 -235 q88 -96 335 -96 q286 0 394 127 q108 127 108 171 q0 5 -8 9.5 q-8 4.5 -27 6.5 q-49 5 -151 14 q-102 9 -201 19 q-99 10 -138 59.5 q-39 49.5 -39 133.5 q0 213 147 378.5 q147 165.5 319 165.5 q81 0 130.5 -43.5 q49.5 -43.5 49.5 -124.5 q0 -33 -6 -70 q-6 -37 -10 -49 l-49 -26 q-4 31 -41 73.5 q-37 42.5 -133 42.5 q-140 0 -231 -110 q-91 -110 -91 -176 q0 -10 7.5 -21 q7.5 -11 41.5 -15 q58 -7 152 -17.5 q94 -10.5 216 -25.5 q77 -10 110.5 -54.5 q33.5 -44.5 33.5 -107.5 q0 -117 -118.5 -346 q-118.5 -229 -503.5 -229 q-268 0 -366 145 q-98 145 -98 325 q0 81 14 160 q14 79 38 151 Z" /><glyph glyph-name="uniFBFD" unicode="&#xfbfd;" d="M178 269 l67 23 q-21 -84 -30.5 -145 q-9.5 -61 -9.5 -113 q0 -139 87.5 -235 q87.5 -96 334.5 -96 q307 0 405.5 122.5 q98.5 122.5 98.5 141.5 q0 5 -22 13.5 q-22 8.5 -71 15.5 q-77 11 -167.5 36.5 q-90.5 25.5 -129.5 66.5 q4 49 18.5 96.5 q14.5 47.5 35.5 82.5 q107 -44 264.5 -54 q157.5 -10 241.5 -10 l13 0 q14 0 20 -12 q6 -12 6 -30 q0 -46 -30.5 -109 q-30.5 -63 -59.5 -63 l-33 0 q-20 -137 -153 -324.5 q-133 -187.5 -475 -187.5 q-268 0 -366 145 q-98 145 -98 325 q0 85 14.5 161.5 q14.5 76.5 38.5 149.5 Z" /><glyph glyph-name="uniFBFE" unicode="&#xfbfe;" d="M352 163 q-40 -69 -125.5 -116 q-85.5 -47 -210.5 -47 l-50 0 q-13 0 -18.5 12 q-5.5 12 -5.5 29 q0 46 30.5 109.5 q30.5 63.5 59.5 63.5 l50 0 q137 0 191.5 34.5 q54.5 34.5 54.5 44.5 q0 22 -32 95 q-32 73 -99 132 l91 182 q72 -67 97.5 -141.5 q25.5 -74.5 25.5 -157.5 q0 -44 -12 -111 q-12 -67 -47 -129 ZM502 -266 l-97 -140 q-23 23 -72 46.5 q-49 23.5 -87 27.5 l93 141 q46 -10 86.5 -28.5 q40.5 -18.5 76.5 -46.5 ZM250 -277 l-97 -140 q-23 23 -72 46.5 q-49 23.5 -87 27.5 l93 141 q46 -10 86.5 -28.5 q40.5 -18.5 76.5 -46.5 Z" /><glyph glyph-name="uniFBFF" unicode="&#xfbff;" d="M638 214 q13 0 19 -12 q6 -12 6 -29 q0 -46 -30 -109.5 q-30 -63.5 -59 -63.5 q-127 0 -186.5 45 q-59.5 45 -79.5 98 q-28 -46 -103.5 -94.5 q-75.5 -48.5 -235.5 -48.5 q-14 0 -20.5 11 q-6.5 11 -6.5 29 q0 46 30.5 110 q30.5 64 59.5 64 q148 0 210 51 q62 51 87 140 l54 14 q-2 -8 -3.5 -20 q-1.5 -12 -1.5 -27 q0 -95 84.5 -126.5 q84.5 -31.5 175.5 -31.5 ZM532 -266 l-97 -140 q-23 23 -72 46.5 q-49 23.5 -87 27.5 l93 141 q46 -10 86.5 -28.5 q40.5 -18.5 76.5 -46.5 ZM280 -277 l-97 -140 q-23 23 -72 46.5 q-49 23.5 -87 27.5 l93 141 q46 -10 86.5 -28.5 q40.5 -18.5 76.5 -46.5 Z" /><glyph glyph-name="uniFEDFFE8E" unicode="&#xfefb;" d="M364 -25 q-110 0 -165.5 47 q-55.5 47 -108.5 159 l10 47 q28 -13 51 -18.5 q23 -5.5 54 -9.5 q2 16 3 65.5 q1 49.5 1 105.5 q0 152 -30.5 349.5 q-30.5 197.5 -30.5 228.5 q0 28 6 52 q6 24 17 50 q13 29 28.5 69.5 q15.5 40.5 33.5 83.5 l42 28 q0 -153 33 -380 q33 -227 33 -379 q0 -71 -17.5 -149 q-17.5 -78 -48.5 -131 q28 -1 54 -3 q26 -2 60 -2 q140 0 200.5 40.5 q60.5 40.5 60.5 65.5 q0 139 -14.5 397.5 q-14.5 258.5 -14.5 348.5 q0 38 4.5 64.5 q4.5 26.5 17.5 51.5 q14 29 37 77.5 q23 48.5 44 97.5 l43 22 q-2 -10 -3.5 -36 q-1.5 -26 -1.5 -64 q0 -130 8.5 -338.5 q8.5 -208.5 8.5 -299.5 q0 -76 -6.5 -156 q-6.5 -80 -21.5 -136 q-31 -114 -115.5 -231 q-84.5 -117 -271.5 -117 Z" /><glyph glyph-name="uniFEE0FE8E" unicode="&#xfefc;" d="M76 204 l10 44 q13 -10 45.5 -18.5 q32.5 -8.5 60.5 -9.5 q1 25 2 66 q1 41 1 85 q0 152 -30.5 349.5 q-30.5 197.5 -30.5 228.5 q0 46 24 106 q24 60 61 149 l42 28 q0 -153 33 -380 q33 -227 33 -379 q0 -66 -19.5 -135.5 q-19.5 -69.5 -46.5 -122.5 q25 -1 52.5 -1 q27.5 0 57.5 0 q143 0 199.5 40 q56.5 40 56.5 74 q0 225 -5.5 453 q-5.5 228 -5.5 276 q0 59 28.5 119.5 q28.5 60.5 73.5 153.5 l45 22 q-6 -27 -8 -125 q-2 -98 -2 -244 q0 -140 2.5 -291.5 q2.5 -151.5 5.5 -235.5 q5 -156 67 -199 q62 -43 178 -43 q13 0 19.5 -12 q6.5 -12 6.5 -30 q0 -46 -30.5 -109 q-30.5 -63 -59.5 -63 q-118 0 -186 55.5 q-68 55.5 -97 130.5 q-45 -75 -120.5 -130.5 q-75.5 -55.5 -192.5 -55.5 q-123 0 -175 52 q-52 52 -95 152 Z" /><glyph glyph-name="uniFEDFFE82" unicode="&#xfef5;" d="M606 1491 l-4 -60 q-56 -53 -105.5 -77 q-49.5 -24 -123.5 -24 q-89 0 -175 23 q-86 23 -135 23 q-30 0 -48 -29.5 q-18 -29.5 -39 -69.5 l-23 57 q30 63 64.5 109.5 q34.5 46.5 90.5 46.5 q42 0 139.5 -26 q97.5 -26 210.5 -26 q48 0 87 18.5 q39 18.5 61 34.5 ZM356 -25 q-110 0 -165.5 47 q-55.5 47 -108.5 159 l10 47 q28 -13 51 -18.5 q23 -5.5 54 -9.5 q2 16 3 65.5 q1 49.5 1 105.5 q0 152 -30.5 349.5 q-30.5 197.5 -30.5 228.5 q0 28 6 52 q6 24 17 50 q13 29 28.5 69.5 q15.5 40.5 33.5 83.5 l42 28 q0 -153 33 -380 q33 -227 33 -379 q0 -71 -17.5 -149 q-17.5 -78 -48.5 -131 q28 -1 54 -3 q26 -2 60 -2 q140 0 200.5 40.5 q60.5 40.5 60.5 65.5 q0 139 -14.5 397.5 q-14.5 258.5 -14.5 348.5 q0 38 4.5 64.5 q4.5 26.5 17.5 51.5 q14 29 37 77.5 q23 48.5 44 97.5 l43 22 q-2 -10 -3.5 -36 q-1.5 -26 -1.5 -64 q0 -130 8.5 -338.5 q8.5 -208.5 8.5 -299.5 q0 -76 -6.5 -156 q-6.5 -80 -21.5 -136 q-31 -114 -115.5 -231 q-84.5 -117 -271.5 -117 Z" /><glyph glyph-name="uniFEE0FE82" unicode="&#xfef6;" d="M612 1491 l-4 -60 q-56 -53 -105.5 -77 q-49.5 -24 -123.5 -24 q-89 0 -175 23 q-86 23 -135 23 q-27 0 -44 -24.5 q-17 -24.5 -36 -59.5 l-7 -15 l-23 57 q30 63 64.5 109.5 q34.5 46.5 90.5 46.5 q42 0 139.5 -26 q97.5 -26 210.5 -26 q48 0 87 18.5 q39 18.5 61 34.5 ZM86 204 l10 44 q13 -10 45.5 -18.5 q32.5 -8.5 60.5 -9.5 q1 25 1.5 66 q0.5 41 0.5 85 q0 152 -30 349.5 q-30 197.5 -30 228.5 q0 46 24 106 q24 60 60 149 l43 28 q0 -153 33 -380 q33 -227 33 -379 q0 -66 -19.5 -135.5 q-19.5 -69.5 -46.5 -122.5 q25 -1 52.5 -1 q27.5 0 57.5 0 q143 0 199.5 40 q56.5 40 56.5 74 q0 215 -6 448 q-6 233 -6 281 q0 59 28.5 119.5 q28.5 60.5 73.5 153.5 l46 22 q-6 -27 -8 -125 q-2 -98 -2 -244 q0 -140 2.5 -291.5 q2.5 -151.5 5.5 -235.5 q5 -156 67 -199 q62 -43 178 -43 q13 0 19.5 -12 q6.5 -12 6.5 -30 q0 -46 -30.5 -109 q-30.5 -63 -59.5 -63 q-118 0 -186 55.5 q-68 55.5 -97 130.5 q-45 -75 -120.5 -130.5 q-75.5 -55.5 -192.5 -55.5 q-124 0 -175.5 52 q-51.5 52 -94.5 152 Z" /><glyph glyph-name="uniFEDFFE88" unicode="&#xfef9;" d="M361 -25 q-110 0 -165.5 47 q-55.5 47 -108.5 159 l10 47 q28 -13 51 -18.5 q23 -5.5 54 -9.5 q2 16 3 65.5 q1 49.5 1 105.5 q0 152 -30.5 349.5 q-30.5 197.5 -30.5 228.5 q0 28 6 52 q6 24 17 50 q13 29 28.5 69.5 q15.5 40.5 33.5 83.5 l42 28 q0 -153 33 -380 q33 -227 33 -379 q0 -71 -17.5 -149 q-17.5 -78 -48.5 -131 q28 -1 54 -3 q26 -2 60 -2 q140 0 200.5 40.5 q60.5 40.5 60.5 65.5 q0 139 -14.5 397.5 q-14.5 258.5 -14.5 348.5 q0 38 4.5 64.5 q4.5 26.5 17.5 51.5 q14 29 37 77.5 q23 48.5 44 97.5 l43 22 q-2 -10 -3.5 -36 q-1.5 -26 -1.5 -64 q0 -130 8.5 -338.5 q8.5 -208.5 8.5 -299.5 q0 -76 -6.5 -156 q-6.5 -80 -21.5 -136 q-31 -114 -115.5 -231 q-84.5 -117 -271.5 -117 ZM404 -393 l7 -24 q-9 -18 -31.5 -47 q-22.5 -29 -22.5 -29 q-78 -7 -156 -22.5 q-78 -15.5 -150 -49.5 l0 31 q9 16 19.5 27.5 q10.5 11.5 20.5 18.5 q13 8 30 16.5 q17 8.5 36 15.5 q-55 21 -76.5 56 q-21.5 35 -21.5 75 q0 96 65 145.5 q65 49.5 125 49.5 q46 0 80.5 -30.5 q34.5 -30.5 34.5 -81.5 q0 -13 -2.5 -27.5 q-2.5 -14.5 -6.5 -29.5 l-30 -16 q-3 34 -24 58 q-21 24 -60 24 q-49 0 -91 -29 q-42 -29 -42 -50 q0 -25 48.5 -57.5 q48.5 -32.5 141.5 -32.5 q25 0 51 2 q26 2 55 7 Z" /><glyph glyph-name="uniFEE0FE84" unicode="&#xfef8;" d="M373 1432 l7 -24 q-9 -18 -31.5 -47 q-22.5 -29 -22.5 -29 q-78 -7 -156 -22.5 q-78 -15.5 -150 -49.5 l0 31 q19 35 44.5 50 q25.5 15 61.5 28 q-55 21 -76.5 56 q-21.5 35 -21.5 75 q0 90 57.5 139 q57.5 49 116.5 54 q8 1 16.5 0.5 q8.5 -0.5 15.5 -1.5 q41 -4 70 -33.5 q29 -29.5 29 -75.5 q0 -13 -2.5 -27.5 q-2.5 -14.5 -6.5 -29.5 l-30 -16 q-3 34 -24 58 q-21 24 -60 24 q-49 0 -91 -29 q-42 -29 -42 -50 q0 -25 48.5 -57.5 q48.5 -32.5 141.5 -32.5 q25 0 51 2 q26 2 55 7 ZM95 204 l10 44 q13 -10 45.5 -18.5 q32.5 -8.5 60.5 -9.5 q1 25 1.5 66 q0.5 41 0.5 85 q0 152 -30 349.5 q-30 197.5 -30 228.5 q0 46 24 106 q24 60 60 149 l43 28 q0 -153 33 -380 q33 -227 33 -379 q0 -66 -19.5 -135.5 q-19.5 -69.5 -46.5 -122.5 q25 -1 52.5 -1 q27.5 0 57.5 0 q143 0 199.5 40 q56.5 40 56.5 74 q0 222 -6 451.5 q-6 229.5 -6 277.5 q0 59 28.5 119.5 q28.5 60.5 73.5 153.5 l46 22 q-6 -27 -8 -125 q-2 -98 -2 -244 q0 -140 2.5 -291.5 q2.5 -151.5 5.5 -235.5 q5 -156 67 -199 q62 -43 178 -43 q13 0 19.5 -12 q6.5 -12 6.5 -30 q0 -46 -30.5 -109 q-30.5 -63 -59.5 -63 q-118 0 -186 55.5 q-68 55.5 -97 130.5 q-45 -75 -120.5 -130.5 q-75.5 -55.5 -192.5 -55.5 q-124 0 -175.5 52 q-51.5 52 -94.5 152 Z" /><glyph glyph-name="uniFEDFFE84" unicode="&#xfef7;" d="M382 1427 l7 -24 q-9 -18 -31.5 -47 q-22.5 -29 -22.5 -29 q-78 -7 -156 -22.5 q-78 -15.5 -150 -49.5 l0 31 q9 16 19.5 27.5 q10.5 11.5 20.5 18.5 q13 8 30 16.5 q17 8.5 36 15.5 q-55 21 -76.5 56 q-21.5 35 -21.5 75 q0 96 65 145.5 q65 49.5 125 49.5 q46 0 80.5 -30.5 q34.5 -30.5 34.5 -81.5 q0 -13 -2.5 -27.5 q-2.5 -14.5 -6.5 -29.5 l-30 -16 q-3 34 -24 58 q-21 24 -60 24 q-49 0 -91 -29 q-42 -29 -42 -50 q0 -25 48.5 -57.5 q48.5 -32.5 141.5 -32.5 q25 0 51 2 q26 2 55 7 ZM366 -25 q-110 0 -165.5 47 q-55.5 47 -108.5 159 l10 47 q28 -13 51 -18.5 q23 -5.5 54 -9.5 q2 16 3 65.5 q1 49.5 1 105.5 q0 152 -30.5 349.5 q-30.5 197.5 -30.5 228.5 q0 28 6 52 q6 24 17 50 q13 29 28.5 69.5 q15.5 40.5 33.5 83.5 l42 28 q0 -153 33 -380 q33 -227 33 -379 q0 -71 -17.5 -149 q-17.5 -78 -48.5 -131 q28 -1 54 -3 q26 -2 60 -2 q140 0 200.5 40.5 q60.5 40.5 60.5 65.5 q0 139 -14.5 397.5 q-14.5 258.5 -14.5 348.5 q0 38 4.5 64.5 q4.5 26.5 17.5 51.5 q14 29 37 77.5 q23 48.5 44 97.5 l43 22 q-2 -10 -3.5 -36 q-1.5 -26 -1.5 -64 q0 -130 8.5 -338.5 q8.5 -208.5 8.5 -299.5 q0 -76 -6.5 -156 q-6.5 -80 -21.5 -136 q-31 -114 -115.5 -231 q-84.5 -117 -271.5 -117 Z" /><glyph glyph-name="uniFEE0FE88" unicode="&#xfefa;" d="M84 204 l10 44 q13 -10 45.5 -18.5 q32.5 -8.5 60.5 -9.5 q1 25 2 66 q1 41 1 85 q0 152 -30.5 349.5 q-30.5 197.5 -30.5 228.5 q0 46 24 106 q24 60 61 149 l42 28 q0 -153 33 -380 q33 -227 33 -379 q0 -66 -19.5 -135.5 q-19.5 -69.5 -46.5 -122.5 q25 -1 52.5 -1 q27.5 0 57.5 0 q143 0 199.5 40 q56.5 40 56.5 74 q0 219 -5.5 450 q-5.5 231 -5.5 279 q0 59 28.5 119.5 q28.5 60.5 73.5 153.5 l45 22 q-6 -27 -8 -125 q-2 -98 -2 -244 q0 -140 2.5 -291.5 q2.5 -151.5 5.5 -235.5 q5 -156 67 -199 q62 -43 178 -43 q13 0 19.5 -12 q6.5 -12 6.5 -30 q0 -46 -30.5 -109 q-30.5 -63 -59.5 -63 q-118 0 -186 55.5 q-68 55.5 -97 130.5 q-45 -75 -120.5 -130.5 q-75.5 -55.5 -192.5 -55.5 q-123 0 -175 52 q-52 52 -95 152 ZM400 -388 l7 -24 q-9 -18 -31.5 -47 q-22.5 -29 -22.5 -29 q-78 -7 -156 -22.5 q-78 -15.5 -150 -49.5 l0 31 q20 35 45.5 50 q25.5 15 60.5 28 q-55 21 -76.5 56 q-21.5 35 -21.5 75 q0 90 57.5 139 q57.5 49 116.5 54 q8 1 16.5 0.5 q8.5 -0.5 15.5 -1.5 q42 -4 70.5 -33.5 q28.5 -29.5 28.5 -75.5 q0 -13 -2.5 -27.5 q-2.5 -14.5 -6.5 -29.5 l-30 -16 q-3 34 -24 58 q-21 24 -60 24 q-49 0 -91 -29 q-42 -29 -42 -50 q0 -25 48.5 -57.5 q48.5 -32.5 141.5 -32.5 q25 0 51 2 q26 2 55 7 Z" /><glyph glyph-name="uni060C" unicode="&#x60c;" d="M125 139 q0 97 72 232.5 q72 135.5 130 196.5 l76 10 q-56 -69 -86 -143 q-30 -74 -30 -116 q1 -60 36 -89.5 q35 -29.5 80 -29.5 q16 0 37.5 2 q21.5 2 33.5 6 l-97 -216 q-22 -6 -46.5 -8 q-24.5 -2 -52.5 -2 q-60 0 -106 38 q-46 38 -47 119 Z" /><glyph glyph-name="uni060D" unicode="&#x60d;" d="M136 -476 l-25 198 q53 162 182 369 q129 207 336 364 l16 -14 q-1 0 -28 -99 q-27 -99 -28 -97 q-153 -122 -268 -336 q-115 -214 -150 -351 l-35 -34 Z" /><glyph glyph-name="uni066B" unicode="&#x66b;" d="M449 168 q0 -97 -72 -232.5 q-72 -135.5 -130 -196.5 l-76 -10 q56 69 86 143 q30 74 30 116 q0 60 -35.5 90 q-35.5 30 -80.5 30 q-16 0 -37.5 -2 q-21.5 -2 -33.5 -6 l98 215 q22 6 46.5 8 q24.5 2 52.5 2 q60 0 106 -38 q46 -38 46 -119 Z" /><glyph glyph-name="uni061B" unicode="&#x61b;" d="M106 630 q0 97 72 232.5 q72 135.5 131 196.5 l76 10 q-57 -69 -87 -143 q-30 -74 -30 -116 q1 -60 36 -89.5 q35 -29.5 81 -29.5 q16 0 37.5 2 q21.5 2 32.5 6 l-98 -216 q-22 -6 -46 -8 q-24 -2 -52 -2 q-60 0 -106 38 q-46 38 -47 119 ZM457 176 l-136 -197 q-32 32 -100.5 65 q-68.5 33 -122.5 38 l131 198 q65 -13 122 -38.5 q57 -25.5 106 -65.5 Z" /><glyph glyph-name="uni066C" unicode="&#x66c;" d="M125 145 q0 97 72 232.5 q72 135.5 131 196.5 l76 10 q-57 -69 -87 -143 q-30 -74 -30 -116 q1 -60 36 -89.5 q35 -29.5 81 -29.5 q16 0 37.5 2 q21.5 2 32.5 6 l-98 -216 q-22 -6 -46 -8 q-24 -2 -52 -2 q-60 0 -106 38 q-46 38 -47 119 Z" /><glyph glyph-name="uni061E" unicode="&#x61e;" d="M668 576 l-121 -174 q-28 28 -88.5 57.5 q-60.5 29.5 -108.5 34.5 l116 175 q57 -12 107.5 -35 q50.5 -23 94.5 -58 ZM932 128 l-121 -174 q-28 28 -88.5 57.5 q-60.5 29.5 -108.5 34.5 l116 175 q57 -12 107.5 -35 q50.5 -23 94.5 -58 ZM429 128 l-121 -174 q-28 28 -88.5 57.5 q-60.5 29.5 -108.5 34.5 l116 175 q57 -12 107.5 -35 q50.5 -23 94.5 -58 Z" /><glyph glyph-name="uni061F" unicode="&#x61f;" d="M437 261 l-31 61 q8 15 11.5 27.5 q3.5 12.5 3.5 22.5 q0 50 -58 86.5 q-58 36.5 -151 118.5 q-42 37 -71.5 98 q-29.5 61 -29.5 144 q0 188 90 294 q90 106 206 106 q132 0 192.5 -69 q60.5 -69 60.5 -180 q0 -31 -4 -62 q-4 -31 -11 -66 l-63 -33 q1 9 1.5 16.5 q0.5 7.5 0.5 17.5 q0 93 -57 141 q-57 48 -150 48 q-75 0 -134 -48 q-59 -48 -59 -111 q0 -113 165 -178.5 q165 -65.5 165 -223.5 q0 -36 -18.5 -97 q-18.5 -61 -58.5 -113 ZM567 101 l-108 -156 q-25 25 -79.5 51.5 q-54.5 26.5 -97.5 30.5 l104 157 q51 -10 96 -31 q45 -21 85 -52 Z" /><glyph glyph-name="uni064B" unicode="&#x64b;" d="M2 1529 l42 87 q89 39 219 79.5 q130 40.5 226 75.5 l6 -13 l-37 -79 q-81 -31 -214.5 -73.5 q-133.5 -42.5 -234.5 -87.5 l-7 11 ZM2 1333 l42 87 q89 39 219 79.5 q130 40.5 226 75.5 l6 -13 l-37 -79 q-81 -31 -214.5 -73.5 q-133.5 -42.5 -234.5 -87.5 l-7 11 Z" /><glyph glyph-name="uni064D" unicode="&#x64d;" d="M2 -841 l42 87 q89 39 219 79.5 q130 40.5 226 75.5 l6 -13 l-37 -79 q-81 -31 -214.5 -73.5 q-133.5 -42.5 -234.5 -87.5 l-7 11 ZM2 -1038 l42 87 q89 39 219 79.5 q130 40.5 226 75.5 l6 -13 l-37 -79 q-81 -31 -214.5 -73.5 q-133.5 -42.5 -234.5 -87.5 l-7 11 Z" /><glyph glyph-name="uni0650" unicode="&#x650;" d="M2 -833 l42 87 q89 39 219 79.5 q130 40.5 226 75.5 l6 -13 l-37 -79 q-81 -31 -214.5 -73.5 q-133.5 -42.5 -234.5 -87.5 l-7 11 Z" /><glyph glyph-name="uni0655" unicode="&#x655;" d="M423 -891 l7 -24 q-9 -18 -31.5 -47 q-22.5 -29 -22.5 -29 q-78 -7 -156 -22.5 q-78 -15.5 -150 -49.5 l0 31 q9 16 19.5 27.5 q10.5 11.5 20.5 18.5 q13 8 30 16.5 q17 8.5 36 15.5 q-55 21 -76.5 56 q-21.5 35 -21.5 75 q0 96 65 145.5 q65 49.5 125 49.5 q46 0 80.5 -30.5 q34.5 -30.5 34.5 -81.5 q0 -13 -2.5 -27.5 q-2.5 -14.5 -6.5 -29.5 l-30 -16 q-3 34 -24 58 q-21 24 -60 24 q-49 0 -91 -29 q-42 -29 -42 -50 q0 -25 48.5 -57.5 q48.5 -32.5 141.5 -32.5 q25 0 51 2 q26 2 55 7 Z" /><glyph glyph-name="uni0657" unicode="&#x657;" d="M429 1839 l24 -29 q-81 -1 -183 -54.5 q-102 -53.5 -133 -99.5 q104 -8 146.5 -50.5 q42.5 -42.5 42.5 -94.5 q0 -65 -50 -113.5 q-50 -48.5 -107 -48.5 q-63 0 -93.5 46.5 q-30.5 46.5 -30.5 106.5 q0 34 6.5 73.5 q6.5 39.5 22.5 75.5 q34 75 105 134.5 q71 59.5 139 68.5 q9 1 18.5 2 q9.5 1 19.5 0 q15 -1 35.5 -6.5 q20.5 -5.5 37.5 -10.5 ZM204 1432 q33 0 50 20 q17 20 17 34 q0 16 -32.5 45.5 q-32.5 29.5 -135.5 42.5 q-4 -61 25.5 -101.5 q29.5 -40.5 75.5 -40.5 Z" /><glyph glyph-name="uni0658" unicode="&#x658;" d="M414 1645 l39 -49 q0 -90 -52 -168 q-52 -78 -169 -78 q-84 0 -134.5 60.5 q-50.5 60.5 -50.5 125.5 q0 25 9 44.5 q9 19.5 21 51.5 l27 15 q7 -57 34.5 -120 q27.5 -63 109.5 -63 q68 0 107.5 54.5 q39.5 54.5 40.5 126.5 l18 0 Z" /><glyph glyph-name="uni0659" unicode="&#x659;" d="M524 1445 l-66 -84 q-46 0 -129 -2 q-83 -2 -180 -6 q-71 -3 -105.5 -12 q-34.5 -9 -68.5 -21 l5 33 q45 54 91 72.5 q46 18.5 120 22.5 q81 4 179.5 5.5 q98.5 1.5 149.5 1.5 l4 -10 Z" /><glyph glyph-name="uni065B" unicode="&#x65b;" d="M229 1680 l37 20 q0 -74 58 -157.5 q58 -83.5 118 -83.5 q3 0 9.5 0 q6.5 0 8.5 1 l12 -14 l-42 -88 q-69 4 -116 67 q-47 63 -65 133 l-9 0 q-12 -54 -57 -132 q-45 -78 -112 -78 q-10 0 -21 3 q-11 3 -23 9 q1 0 16 51 q15 51 15 50 q8 -4 16.5 -5.5 q8.5 -1.5 15.5 -1.5 q65 0 95.5 87 q30.5 87 43.5 139 Z" /><glyph glyph-name="uni064C" unicode="&#x64c;" d="M358 1756 q-32 0 -49.5 -20 q-17.5 -20 -17.5 -34 q0 -14 18 -34.5 q18 -20.5 74 -36.5 q18 -5 35.5 -9.5 q17.5 -4.5 40.5 -7.5 q0 66 -27.5 104 q-27.5 38 -73.5 38 ZM-12 1465 l-6 28 q7 19 17 35.5 q10 16.5 28 29.5 q27 20 54 27 q27 7 50 7 q51 0 74.5 -33 q23.5 -33 23.5 -70 q0 -17 -3 -36 q-3 -19 -12 -40 q92 17 137.5 49.5 q45.5 32.5 74.5 69.5 q-104 8 -146.5 50.5 q-42.5 42.5 -42.5 94.5 q0 65 48.5 113.5 q48.5 48.5 102.5 48.5 q63 0 96.5 -47 q33.5 -47 33.5 -107 q0 -34 -6 -71 q-6 -37 -22 -73 q-35 -81 -125.5 -145 q-90.5 -64 -233.5 -69 l4 32 q15 23 23 47.5 q8 24.5 8 43.5 q0 33 -20.5 48.5 q-20.5 15.5 -51.5 15.5 q-23 0 -48.5 -10 q-25.5 -10 -57.5 -39 Z" /><glyph glyph-name="uni064E" unicode="&#x64e;" d="M2 1323 l42 87 q89 39 219 79.5 q130 40.5 226 75.5 l6 -13 l-37 -79 q-81 -31 -214.5 -73.5 q-133.5 -42.5 -234.5 -87.5 l-7 11 Z" /><glyph glyph-name="uni064F" unicode="&#x64f;" d="M69 1357 l-24 30 q81 1 183 54.5 q102 53.5 133 99.5 q-104 8 -146.5 50.5 q-42.5 42.5 -42.5 94.5 q0 65 49.5 113.5 q49.5 48.5 106.5 48.5 q63 0 94 -47 q31 -47 31 -107 q0 -34 -7 -73.5 q-7 -39.5 -23 -75.5 q-32 -73 -104 -133.5 q-72 -60.5 -139 -68.5 q-10 -1 -19 -2 q-9 -1 -19 -1 q-16 1 -36.5 6 q-20.5 5 -36.5 11 ZM293 1765 q-32 0 -49.5 -20 q-17.5 -20 -17.5 -34 q0 -16 32.5 -45.5 q32.5 -29.5 135.5 -42.5 q4 60 -25.5 101 q-29.5 41 -75.5 41 Z" /><glyph glyph-name="uni0651" unicode="&#x651;" d="M337 1484 q32 0 50 19.5 q18 19.5 18 28.5 q0 4 -7 33 q-7 29 -35 52 l38 84 q26 -22 39.5 -58 q13.5 -36 13.5 -75 q0 -81 -39 -133.5 q-39 -52.5 -99 -52.5 q-31 0 -50 12.5 q-19 12.5 -26 27.5 q-10 -25 -39 -50 q-29 -25 -72 -25 q-40 0 -62 27 q-22 27 -22 67 q0 21 6 49 q6 28 16 48 l39 12 q-3 -10 -5.5 -24 q-2.5 -14 -2.5 -23 q0 -22 12.5 -38.5 q12.5 -16.5 40.5 -16.5 q31 0 55.5 33.5 q24.5 33.5 35.5 99.5 l44 15 q-2 -8 -4 -20 q-2 -12 -2 -26 q0 -32 14.5 -49 q14.5 -17 42.5 -17 Z" /><glyph glyph-name="uni0652" unicode="&#x652;" d="M392 1529 q0 -81 -44.5 -135 q-44.5 -54 -114.5 -54 q-70 0 -97 43.5 q-27 43.5 -27 104.5 q0 80 46 135.5 q46 55.5 109 55.5 q66 0 97 -48 q31 -48 31 -102 ZM251 1435 q36 0 62 15 q26 15 26 29 q0 22 -27 63 q-27 41 -72 41 q-37 0 -61 -31 q-24 -31 -24 -48 q0 -23 23.5 -46 q23.5 -23 72.5 -23 Z" /><glyph glyph-name="uni0653" unicode="&#x653;" d="M638 1513 l-6 -66 q-66 -58 -124.5 -84 q-58.5 -26 -146.5 -26 q-105 0 -207.5 25 q-102.5 25 -159.5 25 q-36 0 -57.5 -32 q-21.5 -32 -46.5 -76 l-27 61 q34 69 75.5 120.5 q41.5 51.5 108.5 51.5 q49 0 165 -28.5 q116 -28.5 250 -28.5 q57 0 103.5 20.5 q46.5 20.5 72.5 37.5 Z" /><glyph glyph-name="uni0654" unicode="&#x654;" d="M423 1492 l7 -24 q-9 -18 -31.5 -47 q-22.5 -29 -22.5 -29 q-78 -7 -156 -22.5 q-78 -15.5 -150 -49.5 l0 31 q9 16 19.5 27.5 q10.5 11.5 20.5 18.5 q13 8 30 16.5 q17 8.5 36 15.5 q-55 21 -76.5 56 q-21.5 35 -21.5 75 q0 96 65 145.5 q65 49.5 125 49.5 q46 0 80.5 -30.5 q34.5 -30.5 34.5 -81.5 q0 -13 -2.5 -27.5 q-2.5 -14.5 -6.5 -29.5 l-30 -16 q-3 34 -24 58 q-21 24 -60 24 q-49 0 -91 -29 q-42 -29 -42 -50 q0 -25 48.5 -57.5 q48.5 -32.5 141.5 -32.5 q25 0 51 2 q26 2 55 7 Z" /><glyph glyph-name="uni0656" unicode="&#x656;" d="M180 -680 l60 64 q36 -49 57 -124.5 q21 -75.5 21 -132.5 q0 -33 -10.5 -73 q-10.5 -40 -35.5 -62 l-33 -13 q6 16 8 34.5 q2 18.5 2 39.5 q0 66 -13 133.5 q-13 67.5 -56 133.5 Z" /><glyph glyph-name="uni065A" unicode="&#x65a;" d="M270 1325 l-37 -20 q0 74 -58 157.5 q-58 83.5 -118 83.5 q-3 0 -9.5 0 q-6.5 0 -8.5 -1 l-12 14 l42 88 q69 -4 116 -67 q47 -63 65 -133 l9 0 q13 54 57.5 132 q44.5 78 111.5 78 q10 0 21 -3 q11 -3 23 -9 q-1 0 -16 -51 q-15 -51 -15 -50 q-8 4 -16.5 5.5 q-8.5 1.5 -15.5 1.5 q-65 0 -95.5 -87 q-30.5 -87 -43.5 -139 Z" /><glyph glyph-name="uni066A" unicode="&#x66a;" d="M454 991 l-130 -187 q-31 31 -96.5 62 q-65.5 31 -116.5 36 l125 189 q62 -13 116 -37.5 q54 -24.5 102 -62.5 ZM234 -22 l-33 171 q85 163 251 412.5 q166 249.5 378 513.5 l32 6 q-1 0 -6.5 -86.5 q-5.5 -86.5 -5.5 -86.5 q-130 -169 -331.5 -477 q-201.5 -308 -255.5 -435 l-29 -18 ZM937 161 l-130 -187 q-31 31 -96.5 62 q-65.5 31 -116.5 36 l125 189 q62 -13 116 -37.5 q54 -24.5 102 -62.5 Z" /><glyph glyph-name="uni0660" unicode="&#x660;" d="M704 644 l-156 -241 q-36 40 -114.5 80 q-78.5 40 -138.5 46 l147 243 q76 -18 141.5 -49.5 q65.5 -31.5 120.5 -78.5 Z" /><glyph glyph-name="uni0661" unicode="&#x661;" d="M334 992 l99 198 q104 -172 168 -399.5 q64 -227.5 64 -426.5 q0 -63 -8.5 -124.5 q-8.5 -61.5 -23.5 -117.5 q-10 -40 -25 -81 q-15 -41 -29 -67 l-46 -30 q11 41 17 107.5 q6 66.5 6 106.5 q0 179 -50 398.5 q-50 219.5 -172 435.5 Z" /><glyph glyph-name="uni0662" unicode="&#x662;" d="M172 989 l94 201 q49 -108 115.5 -196 q66.5 -88 209.5 -88 q82 0 124 31 q42 31 42 106 q0 19 -2.5 48.5 q-2.5 29.5 -7.5 54.5 l63 -16 q7 -28 11 -58.5 q4 -30.5 4 -62.5 q0 -104 -57.5 -197 q-57.5 -93 -204.5 -93 q-40 0 -67.5 6 q-27.5 6 -27.5 6 q40 -104 62.5 -218.5 q22.5 -114.5 22.5 -214.5 q0 -86 -18 -168.5 q-18 -82.5 -53 -151.5 l-46 -34 q7 25 13 72.5 q6 47.5 6 98.5 q0 205 -97.5 460 q-97.5 255 -185.5 414 Z" /><glyph glyph-name="uni0663" unicode="&#x663;" d="M57 988 l94 202 q46 -100 112.5 -168.5 q66.5 -68.5 177.5 -68.5 q78 0 114.5 51 q36.5 51 36.5 143 q0 8 0 15.5 q0 7.5 -1 16.5 l63 -20 q1 -39 9 -80 q8 -41 18 -60 q11 -21 34.5 -43.5 q23.5 -22.5 64.5 -22.5 q51 0 73 40 q22 40 22 88 q0 21 -2 45.5 q-2 24.5 -5 44.5 l61 -22 q7 -25 10 -60 q3 -35 3 -62 q0 -43 -34 -157.5 q-34 -114.5 -169 -114.5 q-57 0 -99 21 q-42 21 -62 46 q-17 -32 -59 -49.5 q-42 -17.5 -81 -17.5 q-14 0 -47.5 5 q-33.5 5 -60.5 17 q9 -22 14 -35 q5 -13 5 -13 q40 -104 64.5 -217.5 q24.5 -113.5 24.5 -213.5 q0 -78 -17 -162.5 q-17 -84.5 -54 -157.5 l-47 -34 q7 25 13.5 72.5 q6.5 47.5 6.5 98.5 q0 205 -97.5 460 q-97.5 255 -185.5 413 Z" /><glyph glyph-name="uni0664" unicode="&#x664;" d="M648 1208 l-68 -182 q-93 -31 -200 -99.5 q-107 -68.5 -107 -100.5 q0 -32 93 -90.5 q93 -58.5 309 -80.5 l-77 -162 q-168 -68 -229 -138.5 q-61 -70.5 -61 -89.5 q1 -43 81 -81 q80 -38 272 -38 q40 0 82.5 4.5 q42.5 4.5 85.5 13.5 l5 -37 l-110 -152 q-28 -5 -64 -8 q-36 -3 -68 -3 q-139 0 -266 44.5 q-127 44.5 -127 176.5 q0 46 45 139 q45 93 167 198 q-79 15 -163 64 q-84 49 -84 112 q0 61 21 117.5 q21 56.5 85 164.5 q60 101 203 176 q143 75 143 75 l32 -23 Z" /><glyph glyph-name="uni0665" unicode="&#x665;" d="M889 594 q0 -237 -108.5 -375 q-108.5 -138 -314.5 -138 q-204 0 -278.5 135.5 q-74.5 135.5 -74.5 271.5 q0 190 123.5 418 q123.5 228 274.5 228 q159 0 268.5 -191.5 q109.5 -191.5 109.5 -348.5 ZM797 482 q0 71 -107 271.5 q-107 200.5 -231 200.5 q-86 0 -173.5 -159.5 q-87.5 -159.5 -87.5 -238.5 q0 -96 76.5 -185 q76.5 -89 227.5 -89 q157 0 226 82 q69 82 69 118 Z" /><glyph glyph-name="uni0666" unicode="&#x666;" d="M863 91 l-104 -195 q-85 140 -120 300 q-35 160 -35 313 q0 116 10 209 q10 93 25 180 q-61 -30 -124.5 -40.5 q-63.5 -10.5 -144.5 -10.5 q-103 0 -169 31.5 q-66 31.5 -66 83.5 l28 163 l53 29 q0 -54 61.5 -79 q61.5 -25 154.5 -25 q77 0 168 6.5 q91 6.5 138 24.5 q-23 -137 -33.5 -239 q-10.5 -102 -10.5 -198 q0 -166 37.5 -291 q37.5 -125 131.5 -262 Z" /><glyph glyph-name="uni0667" unicode="&#x667;" d="M520 -2 l-56 -40 q0 262 -138.5 578.5 q-138.5 316.5 -272.5 457.5 l69 193 q143 -140 252 -377 q109 -237 134 -437 q28 218 159.5 464 q131.5 246 253.5 350 l23 -21 l-50 -211 q-148 -183 -242.5 -450 q-94.5 -267 -131.5 -507 Z" /><glyph glyph-name="uni0668" unicode="&#x668;" d="M477 1147 l56 40 q0 -262 138 -578.5 q138 -316.5 272 -457.5 l-68 -193 q-143 140 -252 377 q-109 237 -134 437 q-28 -218 -159.5 -464.5 q-131.5 -246.5 -253.5 -349.5 l-23 21 q7 25 21.5 88 q14.5 63 28.5 122 q147 183 242 450 q95 267 132 508 Z" /><glyph glyph-name="uni0669" unicode="&#x669;" d="M859 138 l-107 -194 q-76 104 -109 228.5 q-33 124.5 -33 237.5 q0 52 1.5 78 q1.5 26 5.5 64 q-42 -13 -87.5 -19 q-45.5 -6 -102.5 -6 q-128 0 -208 48 q-80 48 -80 168 q0 163 84 318.5 q84 155.5 249 155.5 q98 0 176.5 -94 q78.5 -94 78.5 -310 q0 -69 -4.5 -120 q-4.5 -51 -4.5 -117 q0 -162 31.5 -258 q31.5 -96 109.5 -180 ZM623 719 q0 107 -47.5 211.5 q-47.5 104.5 -143.5 104.5 q-103 0 -155 -76.5 q-52 -76.5 -52 -111.5 q0 -80 70.5 -110.5 q70.5 -30.5 171.5 -30.5 q34 0 76.5 2.5 q42.5 2.5 79.5 10.5 Z" /><glyph glyph-name="uni06F0" unicode="&#x6f0;" d="M704 644 l-156 -241 q-36 40 -114.5 80 q-78.5 40 -138.5 46 l147 243 q76 -18 141.5 -49.5 q65.5 -31.5 120.5 -78.5 Z" /><glyph glyph-name="uni06F1" unicode="&#x6f1;" d="M334 992 l99 198 q104 -172 168 -399.5 q64 -227.5 64 -426.5 q0 -63 -8.5 -124.5 q-8.5 -61.5 -23.5 -117.5 q-10 -40 -25 -81 q-15 -41 -29 -67 l-46 -30 q11 41 17 107.5 q6 66.5 6 106.5 q0 179 -50 398.5 q-50 219.5 -172 435.5 Z" /><glyph glyph-name="uni06F2" unicode="&#x6f2;" d="M172 989 l94 201 q49 -108 115.5 -196 q66.5 -88 209.5 -88 q82 0 124 31 q42 31 42 106 q0 19 -2.5 48.5 q-2.5 29.5 -7.5 54.5 l63 -16 q7 -28 11 -58.5 q4 -30.5 4 -62.5 q0 -104 -57.5 -197 q-57.5 -93 -204.5 -93 q-40 0 -67.5 6 q-27.5 6 -27.5 6 q40 -104 62.5 -218.5 q22.5 -114.5 22.5 -214.5 q0 -86 -18 -168.5 q-18 -82.5 -53 -151.5 l-46 -34 q7 25 13 72.5 q6 47.5 6 98.5 q0 205 -97.5 460 q-97.5 255 -185.5 414 Z" /><glyph glyph-name="uni06F3" unicode="&#x6f3;" d="M57 988 l94 202 q46 -100 112.5 -168.5 q66.5 -68.5 177.5 -68.5 q78 0 114.5 51 q36.5 51 36.5 143 q0 8 0 15.5 q0 7.5 -1 16.5 l63 -20 q1 -39 9 -80 q8 -41 18 -60 q11 -21 34.5 -43.5 q23.5 -22.5 64.5 -22.5 q51 0 73 40 q22 40 22 88 q0 21 -2 45.5 q-2 24.5 -5 44.5 l61 -22 q7 -25 10 -60 q3 -35 3 -62 q0 -43 -34 -157.5 q-34 -114.5 -169 -114.5 q-57 0 -99 21 q-42 21 -62 46 q-17 -32 -59 -49.5 q-42 -17.5 -81 -17.5 q-14 0 -47.5 5 q-33.5 5 -60.5 17 q9 -22 14 -35 q5 -13 5 -13 q40 -104 64.5 -217.5 q24.5 -113.5 24.5 -213.5 q0 -78 -17 -162.5 q-17 -84.5 -54 -157.5 l-47 -34 q7 25 13.5 72.5 q6.5 47.5 6.5 98.5 q0 205 -97.5 460 q-97.5 255 -185.5 413 Z" /><glyph glyph-name="uni06F4" unicode="&#x6f4;" d="M68 932 l84 199 q45 -87 102 -180 q57 -93 109 -120 q-2 20 -5 44 q-3 24 -3 52 q0 131 73 202 q73 71 173 71 q103 0 171 -64 q68 -64 92 -127 l2 -67 q-40 27 -106.5 50 q-66.5 23 -147.5 23 q-99 0 -140.5 -50.5 q-41.5 -50.5 -41.5 -66.5 q0 -40 65.5 -109 q65.5 -69 225.5 -69 q85 0 126.5 7.5 q41.5 7.5 77.5 19.5 l5 -35 q-17 -33 -38 -65 q-21 -32 -46 -64 q-37 -17 -86 -22 q-49 -5 -92 -5 q-87 0 -164.5 21.5 q-77.5 21.5 -126.5 57.5 q20 -48 46 -135 q26 -87 26 -195 q0 -83 -15.5 -165.5 q-15.5 -82.5 -57.5 -163.5 l-49 -32 q10 32 15 78 q5 46 5 83 q0 208 -98 448 q-98 240 -181 379 Z" /><glyph glyph-name="uni06F5" unicode="&#x6f5;" d="M320 -26 q-112 0 -167 101 q-55 101 -55 243 q0 240 104.5 455.5 q104.5 215.5 257.5 380.5 q226 -150 332 -365 q106 -215 106 -408 q0 -124 -58 -265.5 q-58 -141.5 -201 -141.5 q-54 0 -98 20.5 q-44 20.5 -64 63.5 q-14 -26 -58 -55 q-44 -29 -99 -29 ZM459 382 l66 -23 q3 -66 31 -116.5 q28 -50.5 109 -50.5 q92 0 118 52.5 q26 52.5 26 77.5 q0 56 -88.5 246.5 q-88.5 190.5 -278.5 342.5 q-125 -133 -192 -294 q-67 -161 -67 -245 q0 -46 26 -113 q26 -67 113 -67 q71 0 105 44 q34 44 34 117 q0 7 -0.5 14.5 q-0.5 7.5 -1.5 14.5 Z" /><glyph glyph-name="uni06F6" unicode="&#x6f6;" d="M149 -56 l-18 80 q1 22 10.5 59.5 q9.5 37.5 31.5 85.5 q37 78 122 164.5 q85 86.5 157 129.5 q-149 27 -217.5 140 q-68.5 113 -68.5 225 q0 163 86.5 258 q86.5 95 199.5 95 q119 0 185.5 -72 q66.5 -72 96.5 -137 l3 -69 q-44 31 -116.5 53 q-72.5 22 -142.5 22 q-92 0 -157.5 -49.5 q-65.5 -49.5 -72.5 -92.5 q0 -37 64 -138.5 q64 -101.5 280 -101.5 q96 0 166.5 22 q70.5 22 100.5 35 l9 -44 q0 0 -41 -76.5 q-41 -76.5 -42 -76.5 q-254 -103 -425 -257 q-171 -154 -211 -255 Z" /><glyph glyph-name="uni06F7" unicode="&#x6f7;" d="M520 -2 l-56 -40 q0 262 -138.5 578.5 q-138.5 316.5 -272.5 457.5 l69 193 q143 -140 252 -377 q109 -237 134 -437 q28 218 159.5 464 q131.5 246 253.5 350 l23 -21 l-50 -211 q-148 -183 -242.5 -450 q-94.5 -267 -131.5 -507 Z" /><glyph glyph-name="uni06F8" unicode="&#x6f8;" d="M477 1147 l56 40 q0 -262 138 -578.5 q138 -316.5 272 -457.5 l-68 -193 q-143 140 -252 377 q-109 237 -134 437 q-28 -218 -159.5 -464.5 q-131.5 -246.5 -253.5 -349.5 l-23 21 q7 25 21.5 88 q14.5 63 28.5 122 q147 183 242 450 q95 267 132 508 Z" /><glyph glyph-name="uni06F9" unicode="&#x6f9;" d="M859 138 l-107 -194 q-76 104 -109 228.5 q-33 124.5 -33 237.5 q0 52 1.5 78 q1.5 26 5.5 64 q-42 -13 -87.5 -19 q-45.5 -6 -102.5 -6 q-128 0 -208 48 q-80 48 -80 168 q0 163 84 318.5 q84 155.5 249 155.5 q98 0 176.5 -94 q78.5 -94 78.5 -310 q0 -69 -4.5 -120 q-4.5 -51 -4.5 -117 q0 -162 31.5 -258 q31.5 -96 109.5 -180 ZM623 719 q0 107 -47.5 211.5 q-47.5 104.5 -143.5 104.5 q-103 0 -155 -76.5 q-52 -76.5 -52 -111.5 q0 -80 70.5 -110.5 q70.5 -30.5 171.5 -30.5 q34 0 76.5 2.5 q42.5 2.5 79.5 10.5 Z" /><glyph glyph-name="uniFE87" unicode="&#xfe87;" d="M230 1330 l43 23 q-2 -8 -3.5 -35 q-1.5 -27 -1.5 -67 q0 -143 9 -381 q9 -238 9 -334 q0 -263 -26.5 -354 q-26.5 -91 -72.5 -216 l-50 -22 q10 29 12 101 q2 72 2 112 q0 228 -12 455.5 q-12 227.5 -12 441.5 q0 31 6 54 q6 23 14 42 q17 37 38.5 83 q21.5 46 44.5 97 ZM384 -391 l7 -24 q-9 -18 -31.5 -47 q-22.5 -29 -22.5 -29 q-78 -7 -156 -22.5 q-78 -15.5 -150 -49.5 l0 31 q9 16 19.5 27.5 q10.5 11.5 20.5 18.5 q13 8 30 16.5 q17 8.5 36 15.5 q-55 21 -76.5 56 q-21.5 35 -21.5 75 q0 96 65 145.5 q65 49.5 125 49.5 q46 0 80.5 -30.5 q34.5 -30.5 34.5 -81.5 q0 -13 -2.5 -27.5 q-2.5 -14.5 -6.5 -29.5 l-30 -16 q-3 34 -24 58 q-21 24 -60 24 q-49 0 -91 -29 q-42 -29 -42 -50 q0 -25 48.5 -57.5 q48.5 -32.5 141.5 -32.5 q25 0 51 2 q26 2 55 7 Z" /><glyph glyph-name="uniFE93" unicode="&#xfe93;" d="M662 1065 l-97 -140 q-23 23 -72 46.5 q-49 23.5 -87 27.5 l93 141 q46 -10 86.5 -28.5 q40.5 -18.5 76.5 -46.5 ZM410 1054 l-97 -140 q-23 23 -72 46.5 q-49 23.5 -87 27.5 l93 141 q46 -10 86.5 -28.5 q40.5 -18.5 76.5 -46.5 ZM354 733 q197 -40 270 -148 q73 -108 73 -217 q0 -151 -76 -267.5 q-76 -116.5 -247 -116.5 q-133 0 -191 82 q-58 82 -58 198 q0 130 75 269.5 q75 139.5 154 199.5 ZM348 551 q-63 -43 -104.5 -117 q-41.5 -74 -41.5 -105 q0 -68 53 -106 q53 -38 160 -38 q84 0 140 33 q56 33 56 56 q0 54 -65.5 147 q-65.5 93 -197.5 130 Z" /><glyph glyph-name="uniFEEF" unicode="&#xfeef;" d="M177 289 l67 23 q-20 -84 -30 -145 q-10 -61 -10 -113 q0 -139 88 -235 q88 -96 335 -96 q286 0 394 127 q108 127 108 171 q0 5 -8 9.5 q-8 4.5 -27 6.5 q-49 5 -151 14 q-102 9 -201 19 q-99 10 -138 59.5 q-39 49.5 -39 133.5 q0 213 147 378.5 q147 165.5 319 165.5 q81 0 130.5 -43.5 q49.5 -43.5 49.5 -124.5 q0 -33 -6 -70 q-6 -37 -10 -49 l-49 -26 q-4 31 -41 73.5 q-37 42.5 -133 42.5 q-140 0 -231 -110 q-91 -110 -91 -176 q0 -10 7.5 -21 q7.5 -11 41.5 -15 q58 -7 152 -17.5 q94 -10.5 216 -25.5 q77 -10 110.5 -54.5 q33.5 -44.5 33.5 -107.5 q0 -117 -118.5 -346 q-118.5 -229 -503.5 -229 q-268 0 -366 145 q-98 145 -98 325 q0 81 14 160 q14 79 38 151 Z" /><glyph glyph-name="exclam" unicode="!" d="M123 1050 l106 126 q49 -95 79 -269.5 q30 -174.5 30 -302.5 q0 -81 -19 -145 q-19 -64 -59 -122 l-57 -21 q10 30 14.5 67.5 q4.5 37.5 4.5 77.5 q0 121 -24.5 295 q-24.5 174 -74.5 294 ZM396 119 l-108 -156 q-25 25 -79.5 51.5 q-54.5 26.5 -97.5 30.5 l104 157 q51 -10 96 -31 q45 -21 85 -52 Z" /><glyph glyph-name="quotedbl" unicode="&quot;" d="M399 1105 l116 0 l-59 -421 l-104 0 l47 421 ZM147 1105 l115 0 l-58 -421 l-105 0 l48 421 Z" /><glyph glyph-name="numbersign" unicode="#" d="M417 625 l-61 -237 l210 0 l61 237 l-210 0 ZM138 625 l22 89 l192 0 l82 315 l87 0 l-81 -315 l210 0 l82 315 l87 0 l-81 -315 l193 0 l-23 -89 l-193 0 l-61 -237 l192 0 l-22 -89 l-193 0 l-76 -299 l-89 0 l77 299 l-210 0 l-76 -299 l-90 0 l77 299 l-190 0 l21 89 l192 0 l62 237 l-191 0 Z" /><glyph glyph-name="dollar" unicode="$" d="M204 815 q0 -69 51.5 -107 q51.5 -38 117.5 -66 l0 334 q-76 -11 -122.5 -55.5 q-46.5 -44.5 -46.5 -105.5 ZM639 233 q0 78 -57 116.5 q-57 38.5 -127 66.5 l0 -360 q87 9 135.5 59.5 q48.5 50.5 48.5 117.5 ZM373 1228 l82 0 l0 -178 q119 -4 207.5 -42 q88.5 -38 88.5 -95 q0 -33 -19 -56.5 q-19 -23.5 -51 -23.5 q-76 0 -110 64 q-34 64 -116 80 l0 -368 l44 -17 q92 -36 182.5 -99 q90.5 -63 90.5 -204 q0 -122 -90 -206.5 q-90 -84.5 -227 -100.5 l0 -218 l-82 0 l0 215 q-110 4 -209.5 43 q-99.5 39 -99.5 101 q0 36 24.5 59 q24.5 23 60.5 23 q51 0 98.5 -61.5 q47.5 -61.5 125.5 -83.5 l0 388 l-51 20 q-90 35 -166.5 95.5 q-76.5 60.5 -76.5 184.5 q0 104 74.5 193 q74.5 89 219.5 106 l0 181 Z" /><glyph glyph-name="ampersand" unicode="&amp;" d="M340 809 q0 -49 20.5 -87 q20.5 -38 70.5 -94 l30 -31 q78 51 113 105 q35 54 35 113 q0 62 -33.5 109.5 q-33.5 47.5 -100.5 47.5 q-64 0 -99.5 -46.5 q-35.5 -46.5 -35.5 -116.5 ZM506 82 q66 0 114 18 q48 18 83 49 l-329 314 l-27 26 q-37 -43 -53 -94.5 q-16 -51.5 -16 -97.5 q0 -84 54.5 -149.5 q54.5 -65.5 173.5 -65.5 ZM1106 77 l-1 -59 q-25 -18 -60.5 -28 q-35.5 -10 -78.5 -10 q-78 0 -116 32.5 q-38 32.5 -95 86.5 l-2 2 q-51 -52 -125 -87.5 q-74 -35.5 -178 -35.5 q-125 0 -230 68 q-105 68 -105 206 q0 82 45.5 157 q45.5 75 145.5 122 q-67 72 -91.5 126 q-24.5 54 -24.5 115 q0 112 77.5 196.5 q77.5 84.5 208.5 84.5 q93 0 182 -53 q89 -53 89 -176 q0 -92 -61 -152.5 q-61 -60.5 -185 -113.5 l291 -290 l5 10 q34 65 96.5 147 q62.5 82 144.5 82 q30 0 50.5 -15.5 q20.5 -15.5 20.5 -49.5 q0 -33 -21 -49.5 q-21 -16.5 -53 -16.5 q-29 0 -75.5 -23 q-46.5 -23 -95.5 -104 l-20 -32 l30 -30 q48 -46 88.5 -80.5 q40.5 -34.5 94.5 -34.5 q10 0 23 1.5 q13 1.5 26 3.5 Z" /><glyph glyph-name="quotesingle" unicode="&#39;" d="M147 1105 l115 0 l-58 -421 l-105 0 l48 421 Z" /><glyph glyph-name="parenleft" unicode="(" d="M71 411 q0 246 90 435 q90 189 333 282 l29 -56 q-164 -82 -231 -243 q-67 -161 -67 -414 q0 -252 67 -413 q67 -161 231 -243 l-29 -56 q-247 75 -335 272.5 q-88 197.5 -88 435.5 Z" /><glyph glyph-name="parenright" unicode=")" d="M481 411 q0 -238 -88 -435.5 q-88 -197.5 -335 -272.5 l-28 56 q163 82 230 243 q67 161 67 413 q0 253 -67 414 q-67 161 -230 243 l28 56 q243 -93 333 -282 q90 -189 90 -435 Z" /><glyph glyph-name="asterisk" unicode="*" d="M606 708 l-15 -28 l-194 75 l-30 -208 l-36 0 l-29 208 l-195 -75 l-15 28 l163 131 l-163 130 l15 26 l196 -76 l31 208 l30 0 l31 -208 l196 76 l15 -26 l-165 -132 l165 -129 Z" /><glyph glyph-name="plus" unicode="+" d="M360 729 l102 0 l0 -288 l286 0 l0 -97 l-286 0 l0 -289 l-102 0 l0 289 l-286 0 l0 97 l286 0 l0 288 Z" /><glyph glyph-name="hyphen" unicode="-" d="M537 447 l0 -114 l-432 0 l0 114 l432 0 Z" /><glyph glyph-name="period" unicode="." d="M327 83 q0 -57 -37.5 -77.5 q-37.5 -20.5 -77.5 -20.5 q-41 0 -77.5 20.5 q-36.5 20.5 -36.5 77.5 q0 57 36.5 78.5 q36.5 21.5 77.5 21.5 q40 0 77.5 -21.5 q37.5 -21.5 37.5 -78.5 Z" /><glyph glyph-name="slash" unicode="/" d="M487 1105 l104 0 l-442 -1427 l-101 0 l439 1427 Z" /><glyph glyph-name="colon" unicode=":" d="M334 634 q0 -57 -37.5 -77.5 q-37.5 -20.5 -77.5 -20.5 q-41 0 -77.5 20.5 q-36.5 20.5 -36.5 77.5 q0 57 36.5 78.5 q36.5 21.5 77.5 21.5 q40 0 77.5 -21.5 q37.5 -21.5 37.5 -78.5 ZM334 83 q0 -57 -37.5 -77.5 q-37.5 -20.5 -77.5 -20.5 q-41 0 -77.5 20.5 q-36.5 20.5 -36.5 77.5 q0 57 36.5 78.5 q36.5 21.5 77.5 21.5 q40 0 77.5 -21.5 q37.5 -21.5 37.5 -78.5 Z" /><glyph glyph-name="less" unicode="&lt;" d="M618 125 l0 -118 l-564 345 l0 89 l564 343 l0 -111 l-452 -275 l452 -273 Z" /><glyph glyph-name="equal" unicode="=" d="M787 575 l0 -97 l-674 0 l0 97 l674 0 ZM787 307 l0 -96 l-674 0 l0 96 l674 0 Z" /><glyph glyph-name="greater" unicode="&gt;" d="M89 7 l0 118 l451 273 l-451 275 l0 111 l564 -343 l0 -89 l-564 -345 Z" /><glyph glyph-name="bracketleft" unicode="[" d="M486 -207 l0 -81 l-342 0 l0 1415 l342 0 l0 -82 l-207 0 l0 -1252 l207 0 Z" /><glyph glyph-name="backslash" unicode="\" d="M48 1105 l104 0 l439 -1427 l-101 0 l-442 1427 Z" /><glyph glyph-name="bracketright" unicode="]" d="M46 -288 l0 81 l206 0 l0 1252 l-206 0 l0 82 l342 0 l0 -1415 l-342 0 Z" /><glyph glyph-name="underscore" unicode="_" d="M882 -231 l0 -91 l-777 0 l0 91 l777 0 Z" /><glyph glyph-name="braceleft" unicode="{" d="M514 -207 l0 -81 q-150 0 -237 48.5 q-87 48.5 -87 205.5 l0 221 q0 109 -43.5 144.5 q-43.5 35.5 -110.5 41.5 l0 93 q74 9 114 45.5 q40 36.5 40 140.5 l0 222 q0 159 94.5 206 q94.5 47 229.5 47 l0 -82 q-97 0 -142.5 -29.5 q-45.5 -29.5 -45.5 -120.5 l0 -184 q0 -128 -31.5 -197 q-31.5 -69 -127.5 -91 l0 -8 q114 -29 136.5 -97 q22.5 -68 22.5 -190 l0 -185 q0 -94 52 -122 q52 -28 136 -28 Z" /><glyph glyph-name="bar" unicode="|" d="M144 1105 l108 0 l0 -1427 l-108 0 l0 1427 Z" /><glyph glyph-name="braceright" unicode="}" d="M46 -288 l0 81 q83 0 136 28 q53 28 53 122 l0 185 q0 122 21.5 190 q21.5 68 135.5 97 l0 8 q-95 22 -126 91 q-31 69 -31 197 l0 184 q0 91 -46.5 120.5 q-46.5 29.5 -142.5 29.5 l0 82 q135 0 229.5 -47 q94.5 -47 94.5 -206 l0 -222 q0 -104 40 -140.5 q40 -36.5 114 -45.5 l0 -93 q-67 -6 -110.5 -41.5 q-43.5 -35.5 -43.5 -144.5 l0 -221 q0 -157 -87.5 -205.5 q-87.5 -48.5 -236.5 -48.5 Z" /><glyph glyph-name="guillemotleft" unicode="" d="M975 829 l11 -6 l9 -98 q-53 -80 -122.5 -148.5 q-69.5 -68.5 -141.5 -137.5 l0 -8 q157 -125 199 -185 q42 -60 77 -137 l1 -56 q-125 104 -227 194.5 q-102 90.5 -242 179.5 l3 16 q128 90 245 195 q117 105 188 191 ZM547 829 l11 -6 l9 -98 q-53 -80 -122.5 -148.5 q-69.5 -68.5 -141.5 -137.5 l0 -8 q157 -125 198.5 -185 q41.5 -60 76.5 -137 l2 -56 q-125 104 -227 194.5 q-102 90.5 -242 179.5 l2 16 q128 90 245.5 195 q117.5 105 188.5 191 Z" /><glyph glyph-name="guillemotright" unicode="" d="M133 823 l11 6 q71 -86 188 -191 q117 -105 245 -195 l3 -16 q-140 -89 -242 -179.5 q-102 -90.5 -227 -194.5 l1 56 q35 77 77 137 q42 60 199 185 l0 8 q-72 69 -141.5 137.5 q-69.5 68.5 -122.5 148.5 l9 98 ZM561 823 l11 6 q71 -86 188.5 -191 q117.5 -105 245.5 -195 l2 -16 q-140 -89 -242 -179.5 q-102 -90.5 -227 -194.5 l2 56 q35 77 76.5 137 q41.5 60 198.5 185 l0 8 q-72 69 -141.5 137.5 q-69.5 68.5 -122.5 148.5 l9 98 Z" /><glyph glyph-name="perthousand" unicode="&#x2030;" d="M527 811 q0 -122 -73 -185 q-73 -63 -168 -63 q-89 0 -155.5 57 q-66.5 57 -66.5 179 q0 128 72 186.5 q72 58.5 161 58.5 q94 0 162 -60 q68 -60 68 -173 ZM866 1029 l103 0 l-696 -1029 l-100 0 l693 1029 ZM407 806 q0 92 -28.5 135.5 q-28.5 43.5 -87.5 43.5 q-57 0 -82 -42.5 q-25 -42.5 -25 -137.5 q0 -102 26 -142 q26 -40 78 -40 q64 0 91.5 47 q27.5 47 27.5 136 ZM1628 230 q0 -122 -73.5 -185 q-73.5 -63 -167.5 -63 q-89 0 -156 57 q-67 57 -67 179 q0 129 72 187 q72 58 161 58 q94 0 162.5 -60 q68.5 -60 68.5 -173 ZM1116 230 q0 -122 -73 -185 q-73 -63 -167 -63 q-89 0 -156 57 q-67 57 -67 179 q0 129 72.5 187 q72.5 58 161.5 58 q94 0 161.5 -60 q67.5 -60 67.5 -173 ZM1507 225 q0 93 -28.5 136 q-28.5 43 -87.5 43 q-56 0 -81 -42 q-25 -42 -25 -138 q0 -101 26 -141 q26 -40 77 -40 q65 0 92 47 q27 47 27 135 ZM996 225 q0 93 -28.5 136 q-28.5 43 -87.5 43 q-56 0 -81 -42 q-25 -42 -25 -138 q0 -101 26 -141 q26 -40 77 -40 q65 0 92 47 q27 47 27 135 Z" /><glyph glyph-name="percent" unicode="%" d="M523 811 q0 -122 -73.5 -185 q-73.5 -63 -167.5 -63 q-89 0 -156 57 q-67 57 -67 179 q0 128 72.5 186.5 q72.5 58.5 160.5 58.5 q95 0 163 -60 q68 -60 68 -173 ZM861 1029 l104 0 l-696 -1029 l-102 0 l694 1029 ZM402 806 q0 92 -28.5 135.5 q-28.5 43.5 -87.5 43.5 q-56 0 -81 -42.5 q-25 -42.5 -25 -137.5 q0 -102 26 -142 q26 -40 77 -40 q65 0 92 47 q27 47 27 136 ZM1112 230 q0 -122 -73 -185 q-73 -63 -168 -63 q-88 0 -155 57 q-67 57 -67 179 q0 129 72 187 q72 58 161 58 q94 0 162 -60 q68 -60 68 -173 ZM992 225 q0 93 -28.5 136 q-28.5 43 -87.5 43 q-57 0 -82 -42 q-25 -42 -25 -138 q0 -101 26 -141 q26 -40 78 -40 q64 0 91.5 47 q27.5 47 27.5 135 Z" /><glyph glyph-name="zero" unicode="0" d="M855 435 q0 -194 -113 -325.5 q-113 -131.5 -282 -131.5 q-158 0 -260 101 q-102 101 -102 307 q0 207 111 330 q111 123 271 123 q168 0 271.5 -105.5 q103.5 -105.5 103.5 -298.5 ZM695 413 q0 163 -57.5 252.5 q-57.5 89.5 -168.5 89.5 q-107 0 -159 -87.5 q-52 -87.5 -52 -256.5 q0 -182 53.5 -264.5 q53.5 -82.5 153.5 -82.5 q119 0 174.5 98 q55.5 98 55.5 251 Z" /><glyph glyph-name="one" unicode="1" d="M426 834 l0 -678 q-1 -33 9 -50 q10 -17 31 -24 q10 -4 66 -8 q56 -4 81 -6 l0 -68 l-509 0 l0 68 q16 1 75.5 5 q59.5 4 71.5 9 q22 7 31 24.5 q9 17.5 9 49.5 l0 524 l-202 0 l0 54 q81 10 160.5 41 q79.5 31 134.5 59 l42 0 Z" /><glyph glyph-name="two" unicode="2" d="M748 109 l-44 -109 l-612 0 l-10 52 q227 206 320.5 308 q93.5 102 93.5 203 q0 71 -40.5 110.5 q-40.5 39.5 -118.5 39.5 q-69 0 -120.5 -30.5 q-51.5 -30.5 -96.5 -84.5 l-29 34 q67 120 148 163.5 q81 43.5 163 43.5 q121 0 183 -66.5 q62 -66.5 62 -159.5 q0 -122 -99.5 -237 q-99.5 -115 -271.5 -253 l468 0 l4 -14 Z" /><glyph glyph-name="three" unicode="3" d="M300 257 l-14 46 q110 72 177 129.5 q67 57.5 67 135.5 q0 78 -59 111.5 q-59 33.5 -125 33.5 q-66 0 -127.5 -27.5 q-61.5 -27.5 -102.5 -75.5 l-33 39 q69 101 147 145.5 q78 44.5 167 44.5 q108 0 187 -57 q79 -57 79 -167 q0 -67 -41.5 -128.5 q-41.5 -61.5 -140.5 -139.5 q113 -16 183.5 -82 q70.5 -66 70.5 -180 q0 -155 -119.5 -238 q-119.5 -83 -265.5 -83 q-87 0 -179 33 q-92 33 -92 105 q0 31 20.5 50.5 q20.5 19.5 54.5 19.5 q79 0 90.5 -70.5 q11.5 -70.5 136.5 -70.5 q94 0 150.5 55.5 q56.5 55.5 56.5 143.5 q0 69 -55 138 q-55 69 -233 89 Z" /><glyph glyph-name="four" unicode="4" d="M503 -210 l0 293 l-463 0 l0 92 l539 651 l60 0 l0 -629 l194 0 l4 -14 l-29 -100 l-169 0 l0 -293 l-136 0 ZM165 197 l338 0 l0 411 l-338 -411 Z" /><glyph glyph-name="five" unicode="5" d="M704 676 l-442 0 l-43 -263 q228 1 365 -75.5 q137 -76.5 137 -225.5 q0 -155 -122.5 -251.5 q-122.5 -96.5 -271.5 -96.5 q-84 0 -175 33.5 q-91 33.5 -91 104.5 q0 31 20.5 50.5 q20.5 19.5 54.5 19.5 q77 0 91.5 -70.5 q14.5 -70.5 132.5 -70.5 q97 0 153.5 65.5 q56.5 65.5 56.5 164.5 q0 111 -85.5 177.5 q-85.5 66.5 -295.5 66.5 q-14 0 -29 0 q-15 0 -31 -1 l73 511 l542 0 l4 -15 l-44 -124 Z" /><glyph glyph-name="six" unicode="6" d="M776 989 q-216 -16 -340 -134 q-124 -118 -167 -284 q45 25 101.5 43 q56.5 18 122.5 18 q143 0 227.5 -83 q84.5 -83 84.5 -210 q0 -150 -107.5 -256.5 q-107.5 -106.5 -268.5 -106.5 q-166 0 -256 117 q-90 117 -90 295 q0 269 176.5 453 q176.5 184 433.5 209 q18 1 35 2 q17 1 35 1 l13 -64 ZM246 376 q0 -166 56 -248 q56 -82 145 -82 q87 0 140 72.5 q53 72.5 53 193.5 q0 119 -54 176 q-54 57 -147 57 q-50 0 -97.5 -14.5 q-47.5 -14.5 -87.5 -35.5 q-4 -29 -6 -59 q-2 -30 -2 -60 Z" /><glyph glyph-name="seven" unicode="7" d="M306 -214 l-122 0 l0 15 l422 886 l-548 0 l-4 16 l44 112 l616 0 l10 -52 l-418 -977 Z" /><glyph glyph-name="eight" unicode="8" d="M755 815 q0 -75 -48 -138 q-48 -63 -155 -117 q136 -65 179.5 -129.5 q43.5 -64.5 43.5 -142.5 q0 -143 -114.5 -226.5 q-114.5 -83.5 -246.5 -83.5 q-128 0 -226.5 63.5 q-98.5 63.5 -98.5 203.5 q0 103 59.5 167.5 q59.5 64.5 147.5 104.5 q-106 56 -143.5 116 q-37.5 60 -37.5 132 q0 138 107.5 212 q107.5 74 229.5 74 q115 0 209 -60.5 q94 -60.5 94 -175.5 ZM257 811 q0 -96 68.5 -139.5 q68.5 -43.5 152.5 -78.5 q63 45 98.5 95 q35.5 50 35.5 115 q0 78 -48 124.5 q-48 46.5 -130 46.5 q-80 0 -128.5 -45.5 q-48.5 -45.5 -48.5 -117.5 ZM639 235 q0 104 -93.5 157.5 q-93.5 53.5 -178.5 90.5 q-58 -36 -96 -86.5 q-38 -50.5 -38 -138.5 q0 -96 51 -148.5 q51 -52.5 147 -52.5 q104 0 156 54 q52 54 52 124 Z" /><glyph glyph-name="nine" unicode="9" d="M104 -174 q216 16 340 134 q124 118 166 284 q-45 -25 -101.5 -43 q-56.5 -18 -120.5 -18 q-143 0 -228 83 q-85 83 -85 210 q0 150 108 256.5 q108 106.5 269 106.5 q166 0 255.5 -116.5 q89.5 -116.5 89.5 -294.5 q0 -271 -177.5 -455.5 q-177.5 -184.5 -435.5 -207.5 q-16 -1 -33 -2 q-17 -1 -34 -1 l-13 64 ZM634 439 q0 165 -56 247.5 q-56 82.5 -144 82.5 q-87 0 -140 -72 q-53 -72 -53 -194 q0 -119 54 -176 q54 -57 146 -57 q50 0 97.5 15 q47.5 15 87.5 35 q4 29 6 59 q2 30 2 60 Z" /><glyph glyph-name="question" unicode="?" d="M364 352 l-70 0 q-16 32 -26 60 q-10 28 -10 51 q0 116 111.5 172 q111.5 56 111.5 149 q0 57 -52.5 97.5 q-52.5 40.5 -129.5 40.5 q-55 0 -115.5 -23.5 q-60.5 -23.5 -97.5 -69.5 l-34 34 q69 102 147.5 146 q78.5 44 162.5 44 q113 0 195 -63.5 q82 -63.5 82 -165.5 q0 -150 -145 -220.5 q-145 -70.5 -145 -195.5 q0 -16 7 -32.5 q7 -16.5 8 -23.5 ZM439 83 q0 -57 -37 -77.5 q-37 -20.5 -76 -20.5 q-42 0 -78.5 20.5 q-36.5 20.5 -36.5 77.5 q0 57 36.5 78.5 q36.5 21.5 78.5 21.5 q39 0 76 -21.5 q37 -21.5 37 -78.5 Z" /><glyph glyph-name="at" unicode="@" d="M925 105 q-62 0 -96.5 21.5 q-34.5 21.5 -46.5 53.5 q-41 -38 -82 -54.5 q-41 -16.5 -82 -16.5 q-99 0 -168.5 75 q-69.5 75 -69.5 208 q0 147 86.5 234.5 q86.5 87.5 223.5 87.5 q36 0 70.5 -6.5 q34.5 -6.5 62.5 -19.5 l57 15 l18 0 l0 -455 q0 -39 16.5 -52 q16.5 -13 43.5 -13 q102 0 146.5 115 q44.5 115 44.5 232 q0 217 -123 329.5 q-123 112.5 -309 112.5 q-253 0 -399.5 -179.5 q-146.5 -179.5 -146.5 -428.5 q0 -228 129.5 -375.5 q129.5 -147.5 383.5 -147.5 q67 0 183 16.5 q116 16.5 207 69.5 l0 -71 q-71 -45 -192 -67 q-121 -22 -216 -22 q-281 0 -435 171 q-154 171 -154 426 q0 292 187 489 q187 197 464 197 q222 0 363 -134.5 q141 -134.5 141 -375.5 q0 -157 -72 -296 q-72 -139 -235 -139 ZM670 204 q29 0 51 6 q22 6 54 23 l0 368 q-23 15 -53 27 q-30 12 -70 12 q-70 0 -106.5 -56 q-36.5 -56 -36.5 -170 q0 -98 30.5 -154 q30.5 -56 130.5 -56 Z" /><glyph glyph-name="cent" unicode="" d="M204 381 q0 -116 47 -189 q47 -73 140 -91 l0 548 q-89 -4 -138 -77.5 q-49 -73.5 -49 -190.5 ZM391 913 l81 0 l0 -179 q93 -5 162 -41 q69 -36 69 -87 q0 -38 -24.5 -60 q-24.5 -22 -59.5 -22 q-34 0 -65 42 q-31 42 -82 67 l0 -538 q43 1 97 9.5 q54 8.5 108 27.5 l3 -75 q-43 -34 -98.5 -51.5 q-55.5 -17.5 -109.5 -23.5 l0 -218 l-81 0 l0 215 q-148 3 -232 99 q-84 96 -84 253 q0 165 94 272.5 q94 107.5 222 127.5 l0 182 Z" /><glyph glyph-name="sterling" unicode="" d="M89 462 l0 74 l115 0 q-1 18 -1.5 36 q-0.5 18 -0.5 37 q0 206 93 325 q93 119 260 119 q96 0 170.5 -38.5 q74.5 -38.5 74.5 -104.5 q0 -30 -18.5 -51 q-18.5 -21 -57.5 -19 q-77 4 -87 75 q-10 71 -114 71 q-90 0 -128 -91.5 q-38 -91.5 -38 -349.5 l0 -9 l285 0 l0 -74 l-288 0 q-5 -57 -29.5 -137.5 q-24.5 -80.5 -90.5 -181.5 l571 0 l4 -15 l-44 -128 l-676 0 l-10 52 q82 98 106 186.5 q24 88.5 24 172.5 q0 13 0 25.5 q0 12.5 -1 25.5 l-119 0 Z" /><glyph glyph-name="yen" unicode="" d="M126 444 l0 74 l276 0 l-211 367 q-24 39 -51.5 57.5 q-27.5 18.5 -75.5 25.5 l0 61 l409 0 l0 -61 q-25 -2 -49 -5 q-24 -3 -35 -5 q-22 -4 -41.5 -24 q-19.5 -20 -1.5 -49 l200 -372 l196 351 q6 11 9 22 q3 11 3 21 q0 19 -10.5 33 q-10.5 14 -29.5 18 q-10 2 -35 5 q-25 3 -50 5 l0 61 l358 0 l0 -52 q-43 -4 -77.5 -28.5 q-34.5 -24.5 -61.5 -63.5 l-214 -367 l264 0 l0 -74 l-306 0 l0 -132 l306 0 l0 -74 l-306 0 l0 -94 q0 -34 10 -50.5 q10 -16.5 30 -23.5 q10 -4 36.5 -5.5 q26.5 -1.5 51.5 -3.5 l0 -61 l-410 0 l0 61 q16 1 45.5 3 q29.5 2 42.5 6 q22 7 31 24.5 q9 17.5 9 49.5 l0 94 l-312 0 l0 74 l312 0 l0 132 l-312 0 Z" /><glyph glyph-name="Euro" unicode="&#x20ac;" d="M70 610 l0 74 l125 0 q44 166 163 267.5 q119 101.5 282 101.5 q96 0 187.5 -37.5 q91.5 -37.5 91.5 -108.5 q0 -37 -25.5 -57.5 q-25.5 -20.5 -56.5 -20.5 q-69 0 -102 75 q-33 75 -140 75 q-96 0 -154 -83.5 q-58 -83.5 -80 -211.5 l291 0 l0 -74 l-301 0 q-2 -25 -3 -50.5 q-1 -25.5 -1 -50.5 q0 -16 0 -31 q0 -15 1 -30 l304 0 l0 -74 l-297 0 q19 -145 81.5 -233.5 q62.5 -88.5 168.5 -88.5 q108 0 133.5 67 q25.5 67 101.5 67 q28 0 51.5 -16 q23.5 -16 23.5 -51 q0 -70 -89 -105.5 q-89 -35.5 -190 -35.5 q-185 0 -302 112 q-117 112 -149 284 l-115 0 l0 74 l105 0 q-1 13 -1.5 27.5 q-0.5 14.5 -0.5 29.5 q0 27 1.5 53.5 q1.5 26.5 5.5 51.5 l-110 0 Z" /><glyph glyph-name="section" unicode="" d="M309 616 q-7 3 -14 6.5 q-7 3.5 -14 7.5 q-35 -22 -55.5 -58.5 q-20.5 -36.5 -20.5 -82.5 q0 -49 27.5 -87 q27.5 -38 98.5 -69 l155 -68 q2 -1 4.5 -2 q2.5 -1 4.5 -2 q42 22 61.5 58.5 q19.5 36.5 19.5 74.5 q0 51 -33 89.5 q-33 38.5 -102 70.5 l-132 62 ZM350 -249 q-81 0 -166 31.5 q-85 31.5 -85 95.5 q0 25 18.5 51.5 q18.5 26.5 57.5 26.5 q69 0 88.5 -63.5 q19.5 -63.5 114.5 -63.5 q61 0 115.5 38 q54.5 38 54.5 103 q0 50 -37.5 85.5 q-37.5 35.5 -100.5 63.5 l-134 59 q-107 47 -154 110.5 q-47 63.5 -47 139.5 q0 74 37.5 137.5 q37.5 63.5 108.5 103.5 q-40 33 -66.5 78.5 q-26.5 45.5 -26.5 106.5 q0 109 88 191 q88 82 222 82 q92 0 169 -40 q77 -40 77 -94 q0 -24 -18 -45 q-18 -21 -50 -21 q-61 0 -92.5 61.5 q-31.5 61.5 -121.5 61.5 q-61 0 -106 -39.5 q-45 -39.5 -45 -104.5 q0 -49 28 -84 q28 -35 85 -60 l151 -69 q83 -37 138 -96.5 q55 -59.5 55 -146.5 q0 -68 -37 -128 q-37 -60 -107 -99 q43 -28 78 -75.5 q35 -47.5 35 -120.5 q0 -118 -95 -197 q-95 -79 -232 -79 Z" /><glyph glyph-name="guilsinglleft" unicode="&#x2039;" d="M520 829 l13 -10 l7 -94 q-53 -80 -122.5 -148.5 q-69.5 -68.5 -141.5 -137.5 l0 -8 q156 -123 201 -191 q45 -68 82 -146 l-6 -42 q-125 104 -227 196.5 q-102 92.5 -242 181.5 l0 10 q128 90 246.5 196.5 q118.5 106.5 189.5 192.5 Z" /><glyph glyph-name="guilsinglright" unicode="&#x203a;" d="M123 829 q71 -86 189.5 -192.5 q118.5 -106.5 246.5 -196.5 l0 -10 q-140 -89 -242 -181.5 q-102 -92.5 -227 -196.5 l-6 42 q37 78 82 146 q45 68 201 191 l0 8 q-72 69 -141.5 137.5 q-69.5 68.5 -122.5 148.5 l6 94 l14 10 Z" /><glyph glyph-name="endash" unicode="&#x2013;" d="M897 444 l0 -91 l-777 0 l0 91 l777 0 Z" /><glyph glyph-name="emdash" unicode="&#x2014;" d="M1214 444 l0 -91 l-1094 0 l0 91 l1094 0 Z" /><glyph glyph-name="bullet" unicode="&#x2022;" d="M514 398 q-4 -82 -60 -138 q-56 -56 -135 -56 q-80 0 -137 56.5 q-57 56.5 -57 137.5 q0 80 57 136.5 q57 56.5 137 56.5 q84 0 141 -57.5 q57 -57.5 54 -135.5 Z" /><glyph glyph-name="comma" unicode="," d="M330 62 q0 -115 -75.5 -197.5 q-75.5 -82.5 -149.5 -121.5 l-40 47 q57 40 99 89.5 q42 49.5 46 121.5 q-49 0 -82 27 q-33 27 -33 70 q0 41 31.5 68.5 q31.5 27.5 72.5 27.5 q62 0 96.5 -34.5 q34.5 -34.5 34.5 -97.5 Z" /><glyph glyph-name="semicolon" unicode=";" d="M348 634 q0 -57 -37.5 -77.5 q-37.5 -20.5 -77.5 -20.5 q-41 0 -77.5 20.5 q-36.5 20.5 -36.5 77.5 q0 57 36.5 78.5 q36.5 21.5 77.5 21.5 q40 0 77.5 -21.5 q37.5 -21.5 37.5 -78.5 ZM360 62 q0 -115 -75.5 -197.5 q-75.5 -82.5 -149.5 -121.5 l-40 47 q57 40 99 89.5 q42 49.5 46 121.5 q-49 0 -82 27 q-33 27 -33 70 q0 41 31.5 68.5 q31.5 27.5 72.5 27.5 q62 0 96.5 -34.5 q34.5 -34.5 34.5 -97.5 Z" /><glyph glyph-name="quotedblright" unicode="&#x201d;" d="M647 1002 q0 -110 -72 -188 q-72 -78 -142 -114 l-38 44 q54 37 94 84.5 q40 47.5 44 116.5 q-47 0 -78.5 25.5 q-31.5 25.5 -31.5 66.5 q0 38 30 64 q30 26 70 26 q58 0 91 -32.5 q33 -32.5 33 -92.5 ZM334 1002 q0 -110 -72 -188 q-72 -78 -142 -114 l-38 44 q54 37 94 84.5 q40 47.5 44 116.5 q-47 0 -78.5 25.5 q-31.5 25.5 -31.5 66.5 q0 38 30 64 q30 26 70 26 q58 0 91 -32.5 q33 -32.5 33 -92.5 Z" /><glyph glyph-name="quoteright" unicode="&#x2019;" d="M334 1002 q0 -110 -72 -188 q-72 -78 -142 -114 l-38 44 q54 37 94 84.5 q40 47.5 44 116.5 q-47 0 -78.5 25.5 q-31.5 25.5 -31.5 66.5 q0 38 30 64 q30 26 70 26 q58 0 91 -32.5 q33 -32.5 33 -92.5 Z" /><glyph glyph-name="quotedblleft" unicode="&#x201c;" d="M401 824 q0 110 72 188 q72 78 142 115 l38 -45 q-54 -37 -94 -84 q-40 -47 -44 -116 q47 0 78.5 -25.5 q31.5 -25.5 31.5 -66.5 q0 -39 -30 -64.5 q-30 -25.5 -70 -25.5 q-59 0 -91.5 32 q-32.5 32 -32.5 92 ZM88 824 q0 110 72 188 q72 78 142 115 l38 -45 q-54 -37 -94 -84 q-40 -47 -44 -116 q47 0 78.5 -25.5 q31.5 -25.5 31.5 -66.5 q0 -39 -30 -64.5 q-30 -25.5 -70 -25.5 q-59 0 -91.5 32 q-32.5 32 -32.5 92 Z" /><glyph glyph-name="quoteleft" unicode="&#x2018;" d="M88 824 q0 110 72 188 q72 78 142 115 l38 -45 q-54 -37 -94 -84 q-40 -47 -44 -116 q47 0 78.5 -25.5 q31.5 -25.5 31.5 -66.5 q0 -39 -30 -64.5 q-30 -25.5 -70 -25.5 q-59 0 -91.5 32 q-32.5 32 -32.5 92 Z" /><glyph glyph-name="quotesinglbase" unicode="&#x201a;" d="M322 46 q0 -110 -72 -188 q-72 -78 -142 -114 l-38 44 q54 37 94 84.5 q40 47.5 44 116.5 q-47 0 -78.5 25.5 q-31.5 25.5 -31.5 66.5 q0 38 30 64 q30 26 70 26 q58 0 91 -32.5 q33 -32.5 33 -92.5 Z" /><glyph glyph-name="quotedblbase" unicode="&#x201e;" d="M641 46 q0 -110 -72 -188 q-72 -78 -142 -114 l-38 44 q54 37 94 84.5 q40 47.5 44 116.5 q-47 0 -78.5 25.5 q-31.5 25.5 -31.5 66.5 q0 38 30 64 q30 26 70 26 q58 0 91 -32.5 q33 -32.5 33 -92.5 ZM322 46 q0 -110 -72 -188 q-72 -78 -142 -114 l-38 44 q54 37 94 84.5 q40 47.5 44 116.5 q-47 0 -78.5 25.5 q-31.5 25.5 -31.5 66.5 q0 38 30 64 q30 26 70 26 q58 0 91 -32.5 q33 -32.5 33 -92.5 Z" /><glyph glyph-name="trademark" unicode="&#x2122;" d="M460 1064 l-32 0 l0 -350 q0 -21 5.5 -32.5 q5.5 -11.5 19.5 -15.5 q10 -4 22.5 -5 q12.5 -1 33.5 -2 l0 -53 l-264 0 l0 53 q13 1 29 2 q16 1 26 5 q14 4 20 15.5 q6 11.5 6 32.5 l0 350 l-34 0 q-61 0 -90.5 -21.5 q-29.5 -21.5 -48.5 -90.5 l-49 0 l0 175 l545 0 l0 -175 l-49 0 q-18 69 -47.5 90.5 q-29.5 21.5 -92.5 21.5 ZM1267 1127 l182 0 l0 -53 q-10 -1 -29.5 -2 q-19.5 -1 -26.5 -4 q-13 -5 -20 -16.5 q-7 -11.5 -7 -32.5 l0 -305 q0 -22 7 -33 q7 -11 20 -15 q6 -4 23 -5 q17 -1 33 -2 l0 -53 l-266 0 l0 53 q10 1 30 2 q20 1 28 5 q13 4 19.5 15.5 q6.5 11.5 6.5 32.5 l0 291 l-185 -305 l-31 0 l-182 308 l0 -261 q0 -28 8 -45.5 q8 -17.5 21 -25.5 q13 -7 29 -12.5 q16 -5.5 34 -7.5 l0 -50 l-257 0 l0 50 q15 2 28.5 5 q13.5 3 26.5 10 q15 9 26 27.5 q11 18.5 11 48.5 l0 272 q0 22 -6.5 33 q-6.5 11 -20.5 16 q-5 2 -22.5 3.5 q-17.5 1.5 -33.5 2.5 l0 53 l197 0 l172 -300 l185 300 Z" /><glyph glyph-name="registered" unicode="" d="M463 361 q-153 0 -265 99 q-112 99 -112 284 q0 185 112 284 q112 99 265 99 q153 0 265 -99 q112 -99 112 -284 q0 -185 -112 -284 q-112 -99 -265 -99 ZM463 422 q131 0 219.5 85 q88.5 85 88.5 237 q0 152 -88.5 237 q-88.5 85 -219.5 85 q-131 0 -219 -85 q-88 -85 -88 -237 q0 -152 88 -237 q88 -85 219 -85 ZM457 907 l-49 0 l0 -129 l40 0 q39 0 58.5 13.5 q19.5 13.5 19.5 53.5 q0 34 -18.5 48 q-18.5 14 -50.5 14 ZM339 888 q0 11 -4.5 17.5 q-4.5 6.5 -12.5 9.5 q-5 1 -12.5 1.5 q-7.5 0.5 -18.5 1.5 l0 31 l199 0 q50 0 83 -26 q33 -26 33 -75 q0 -42 -25 -71 q-25 -29 -65 -38 l72 -94 q16 -22 32 -30.5 q16 -8.5 38 -12.5 l0 -29 l-106 0 l-113 162 l-31 0 l0 -101 q0 -11 3.5 -18 q3.5 -7 10.5 -8 q7 -1 17 -1.5 q10 -0.5 23 -1.5 l0 -32 l-171 0 l0 32 q7 0 16.5 1 q9.5 1 14.5 2 q8 1 12.5 8 q4.5 7 4.5 18 l0 254 Z" /><glyph glyph-name="copyright" unicode="" d="M453 -12 q-150 0 -260 96.5 q-110 96.5 -110 277.5 q0 181 110 278 q110 97 260 97 q149 0 258.5 -97 q109.5 -97 109.5 -278 q0 -181 -109.5 -277.5 q-109.5 -96.5 -258.5 -96.5 ZM453 37 q135 0 222 83 q87 83 87 242 q0 149 -87 237 q-87 88 -222 88 q-128 0 -220 -82.5 q-92 -82.5 -92 -242.5 q0 -159 92.5 -242 q92.5 -83 219.5 -83 ZM588 238 l1 -44 q-31 -25 -72 -35 q-41 -10 -79 -10 q-86 0 -131.5 55 q-45.5 55 -45.5 146 q0 104 60 167.5 q60 63.5 144 63.5 q57 0 97 -21 q40 -21 40 -53 q0 -20 -14 -32.5 q-14 -12.5 -33 -12.5 q-25 0 -44.5 28 q-19.5 28 -72.5 28 q-52 0 -73.5 -35.5 q-21.5 -35.5 -21.5 -104.5 q0 -76 28.5 -118.5 q28.5 -42.5 99.5 -42.5 q24 0 53.5 5 q29.5 5 63.5 16 Z" /><glyph glyph-name="A" unicode="a" d="M488 840 l-154 -405 l287 0 l-133 405 ZM268 71 q10 -2 34.5 -5 q24.5 -3 49.5 -5 l0 -61 l-346 0 l0 61 q16 1 36 6.5 q20 5.5 32 9.5 q22 7 35.5 23 q13.5 16 23.5 44 l348 904 l70 0 l319 -904 q10 -30 23.5 -45 q13.5 -15 35.5 -22 q13 -4 33 -9.5 q20 -5.5 36 -6.5 l0 -61 l-410 0 l0 61 q25 2 49.5 5 q24.5 3 35.5 5 q22 4 37.5 22.5 q15.5 18.5 5.5 50.5 l-70 213 l-341 0 l-81 -213 q-10 -26 1.5 -46 q11.5 -20 42.5 -27 Z" /><glyph glyph-name="B" unicode="b" d="M527 0 l-453 0 l0 61 q16 1 46 3 q30 2 42 6 q22 7 31 24.5 q9 17.5 9 49.5 l0 741 q0 33 -9.5 50 q-9.5 17 -30.5 24 q-10 4 -36 5.5 q-26 1.5 -52 3.5 l0 61 l435 0 q134 0 223 -58 q89 -58 89 -183 q0 -83 -66.5 -151.5 q-66.5 -68.5 -186.5 -89.5 l0 -5 q162 -3 240.5 -77.5 q78.5 -74.5 78.5 -178.5 q0 -156 -122 -221 q-122 -65 -238 -65 ZM462 955 l-105 0 l0 -387 l81 0 q103 0 156 51 q53 51 53 144 q0 98 -50 145 q-50 47 -135 47 ZM720 285 q0 81 -60 145 q-60 64 -194 64 l-109 0 l0 -420 l127 0 q125 0 180.5 57.5 q55.5 57.5 55.5 153.5 Z" /><glyph glyph-name="C" unicode="c" d="M587 979 q-187 0 -259.5 -138.5 q-72.5 -138.5 -72.5 -327.5 q0 -203 76 -332 q76 -129 253 -129 q120 0 184.5 79.5 q64.5 79.5 91.5 178.5 l51 0 l0 -227 q-60 -49 -148.5 -77 q-88.5 -28 -180.5 -28 q-228 0 -365 153 q-137 153 -137 375 q0 237 147 392 q147 155 368 155 q84 0 166.5 -21 q82.5 -21 149.5 -60 l0 -265 l-51 0 q-33 115 -93 193.5 q-60 78.5 -180 78.5 Z" /><glyph glyph-name="D" unicode="d" d="M74 0 l0 61 q21 1 46.5 3 q25.5 2 41.5 6 q21 5 30.5 24 q9.5 19 9.5 50 l0 741 q0 31 -9.5 50 q-9.5 19 -30.5 24 q-16 4 -36 5 q-20 1 -52 4 l0 61 l455 0 q225 0 356.5 -137.5 q131.5 -137.5 131.5 -367.5 q0 -237 -137 -380.5 q-137 -143.5 -367 -143.5 l-439 0 ZM507 955 l-150 0 l0 -881 l145 0 q195 0 267.5 135 q72.5 135 72.5 306 q0 187 -79 313.5 q-79 126.5 -256 126.5 Z" /><glyph glyph-name="E" unicode="e" d="M74 0 l0 61 q16 1 46 3 q30 2 42 6 q22 7 31 24.5 q9 17.5 9 49.5 l0 741 q0 33 -9.5 50 q-9.5 17 -30.5 24 q-10 4 -36 5.5 q-26 1.5 -52 3.5 l0 61 l732 0 l0 -248 l-53 0 q-28 107 -74 140.5 q-46 33.5 -143 33.5 l-179 0 l0 -387 l148 0 q34 0 50.5 10 q16.5 10 23.5 31 q4 10 5.5 36 q1.5 26 3.5 52 l61 0 l0 -330 l-61 0 q-1 16 -3 45.5 q-2 29.5 -6 42.5 q-7 22 -24.5 30.5 q-17.5 8.5 -49.5 8.5 l-148 0 l0 -420 l198 0 q109 0 159 54.5 q50 54.5 92 180.5 l48 -6 l-20 -303 l-760 0 Z" /><glyph glyph-name="F" unicode="f" d="M536 955 l-179 0 l0 -416 l148 0 q34 0 50.5 9.5 q16.5 9.5 23.5 30.5 q4 10 5.5 36 q1.5 26 3.5 52 l61 0 l0 -330 l-61 0 q-1 16 -3 45.5 q-2 29.5 -6 42.5 q-7 22 -24.5 31 q-17.5 9 -49.5 9 l-148 0 l0 -321 q0 -34 9 -50.5 q9 -16.5 31 -23.5 q10 -4 36 -5.5 q26 -1.5 51 -3.5 l0 -61 l-410 0 l0 61 q16 1 46 3 q30 2 42 6 q22 7 31 24.5 q9 17.5 9 49.5 l0 741 q0 33 -9.5 50 q-9.5 17 -30.5 24 q-10 4 -36 5.5 q-26 1.5 -52 3.5 l0 61 l732 0 l0 -248 l-53 0 q-28 107 -74 140.5 q-46 33.5 -143 33.5 Z" /><glyph glyph-name="G" unicode="g" d="M591 979 q-178 0 -257 -138.5 q-79 -138.5 -79 -326.5 q0 -204 82 -333 q82 -129 260 -129 q49 0 97.5 11 q48.5 11 92.5 33 l0 244 q0 32 -10 50.5 q-10 18.5 -30 23.5 q-13 4 -44 5.5 q-31 1.5 -58 3.5 l0 61 l388 0 l0 -61 q-13 -1 -26 -3 q-13 -2 -25 -6 q-22 -7 -31.5 -24 q-9.5 -17 -9.5 -50 l0 -278 q-54 -34 -153 -60 q-99 -26 -206 -24 q-228 4 -365 144.5 q-137 140.5 -137 376.5 q0 245 152 399.5 q152 154.5 378 154.5 q81 0 173 -21 q92 -21 158 -60 l0 -265 l-51 0 q-34 115 -101 193.5 q-67 78.5 -198 78.5 Z" /><glyph glyph-name="H" unicode="h" d="M839 885 q0 33 -9.5 50 q-9.5 17 -30.5 24 q-10 4 -36.5 5.5 q-26.5 1.5 -51.5 3.5 l0 61 l410 0 l0 -61 q-15 -1 -45 -3 q-30 -2 -43 -6 q-22 -7 -31 -24.5 q-9 -17.5 -9 -49.5 l0 -741 q0 -34 9.5 -50.5 q9.5 -16.5 30.5 -23.5 q10 -4 36.5 -5.5 q26.5 -1.5 51.5 -3.5 l0 -61 l-410 0 l0 61 q16 1 45.5 3 q29.5 2 42.5 6 q22 7 31 24.5 q9 17.5 9 49.5 l0 352 l-482 0 l0 -352 q0 -34 9 -50.5 q9 -16.5 31 -23.5 q10 -4 36 -5.5 q26 -1.5 51 -3.5 l0 -61 l-410 0 l0 61 q16 1 46 3 q30 2 42 6 q22 7 31 24.5 q9 17.5 9 49.5 l0 741 q0 33 -9.5 50 q-9.5 17 -30.5 24 q-10 4 -36 5.5 q-26 1.5 -52 3.5 l0 61 l410 0 l0 -61 q-16 -1 -45.5 -3 q-29.5 -2 -41.5 -6 q-22 -7 -31 -24.5 q-9 -17.5 -9 -49.5 l0 -310 l482 0 l0 310 Z" /><glyph glyph-name="I" unicode="i" d="M357 885 l0 -741 q0 -34 9 -50.5 q9 -16.5 31 -23.5 q10 -4 36 -5.5 q26 -1.5 51 -3.5 l0 -61 l-410 0 l0 61 q16 1 46 3 q30 2 42 6 q22 7 31 24.5 q9 17.5 9 49.5 l0 741 q0 33 -9.5 50 q-9.5 17 -30.5 24 q-10 4 -36 5.5 q-26 1.5 -52 3.5 l0 61 l410 0 l0 -61 q-16 -1 -45.5 -3 q-29.5 -2 -41.5 -6 q-22 -7 -31 -24.5 q-9 -17.5 -9 -49.5 Z" /><glyph glyph-name="J" unicode="j" d="M344 28 q0 -134 -74 -249 q-74 -115 -236 -115 q-58 0 -97 26 q-39 26 -39 63 q0 32 17.5 52.5 q17.5 20.5 48.5 20.5 q54 0 63.5 -43.5 q9.5 -43.5 58.5 -43.5 q66 0 85 99.5 q19 99.5 19 278.5 l0 768 q0 33 -9.5 50 q-9.5 17 -30.5 24 q-10 4 -36.5 5.5 q-26.5 1.5 -51.5 3.5 l0 61 l410 0 l0 -61 q-15 -1 -45 -3 q-30 -2 -43 -6 q-22 -7 -31 -24.5 q-9 -17.5 -9 -49.5 l0 -857 Z" /><glyph glyph-name="K" unicode="k" d="M408 502 l0 11 l269 324 q20 24 30 43.5 q10 19.5 10 35.5 q0 22 -21 35 q-21 13 -67 17 l0 61 l371 0 l0 -61 q-54 -4 -102.5 -31.5 q-48.5 -27.5 -92.5 -79.5 l-256 -307 l272 -376 q36 -49 78.5 -77.5 q42.5 -28.5 102.5 -37.5 l-4 -59 l-237 0 l-353 502 ZM357 885 l0 -741 q0 -34 9 -50.5 q9 -16.5 31 -23.5 q10 -4 36 -5.5 q26 -1.5 51 -3.5 l0 -61 l-410 0 l0 61 q16 1 46 3 q30 2 42 6 q22 7 31 24.5 q9 17.5 9 49.5 l0 741 q0 33 -9.5 50 q-9.5 17 -30.5 24 q-10 4 -36 5.5 q-26 1.5 -52 3.5 l0 61 l410 0 l0 -61 q-16 -1 -45.5 -3 q-29.5 -2 -41.5 -6 q-22 -7 -31 -24.5 q-9 -17.5 -9 -49.5 Z" /><glyph glyph-name="L" unicode="l" d="M74 0 l0 61 q16 1 46 3 q30 2 42 6 q22 7 31 24.5 q9 17.5 9 49.5 l0 741 q0 33 -9.5 50 q-9.5 17 -30.5 24 q-10 4 -36 5.5 q-26 1.5 -52 3.5 l0 61 l410 0 l0 -61 q-16 -1 -45.5 -3 q-29.5 -2 -41.5 -6 q-22 -7 -31 -24.5 q-9 -17.5 -9 -49.5 l0 -811 l154 0 q108 0 158 54.5 q50 54.5 93 180.5 l47 -6 l-19 -303 l-716 0 Z" /><glyph glyph-name="M" unicode="m" d="M367 1029 l323 -616 l333 616 l282 0 l0 -61 q-15 -1 -45 -3 q-30 -2 -43 -6 q-22 -7 -31 -24.5 q-9 -17.5 -9 -49.5 l0 -741 q0 -34 9.5 -50.5 q9.5 -16.5 30.5 -23.5 q10 -4 36.5 -5.5 q26.5 -1.5 51.5 -3.5 l0 -61 l-410 0 l0 61 q16 1 45.5 3 q29.5 2 42.5 6 q22 7 31 24.5 q9 17.5 9 49.5 l0 712 l-336 -638 l-50 0 l-334 637 l0 -659 q0 -43 12.5 -69.5 q12.5 -26.5 34.5 -40.5 q19 -12 43 -20 q24 -8 52 -11 l0 -55 l-380 0 l0 55 q23 3 44.5 9 q21.5 6 40.5 16 q25 13 41.5 41 q16.5 28 16.5 75 l0 689 q0 33 -9.5 50 q-9.5 17 -31.5 24 q-10 4 -35.5 5.5 q-25.5 1.5 -51.5 3.5 l0 61 l287 0 Z" /><glyph glyph-name="N" unicode="n" d="M75 1029 l253 0 l576 -755 l0 559 q0 43 -12.5 69.5 q-12.5 26.5 -34.5 39.5 q-19 13 -43 20.5 q-24 7.5 -52 11.5 l0 55 l380 0 l0 -55 q-23 -4 -44.5 -9.5 q-21.5 -5.5 -40.5 -15.5 q-25 -13 -41.5 -41.5 q-16.5 -28.5 -16.5 -74.5 l0 -839 l-72 0 l-621 834 l0 -632 q0 -43 12.5 -69.5 q12.5 -26.5 34.5 -40.5 q19 -12 43 -20 q24 -8 52 -11 l0 -55 l-380 0 l0 55 q23 3 44.5 9 q21.5 6 40.5 16 q25 13 41.5 41 q16.5 28 16.5 75 l0 606 q0 76 -32 120 q-32 44 -104 54 l0 53 Z" /><glyph glyph-name="O" unicode="o" d="M1099 523 q0 -224 -144.5 -384.5 q-144.5 -160.5 -375.5 -160.5 q-219 0 -359 148.5 q-140 148.5 -140 379.5 q0 237 147 392 q147 155 368 155 q225 0 364.5 -155 q139.5 -155 139.5 -375 ZM924 520 q0 187 -76.5 323 q-76.5 136 -260.5 136 q-187 0 -259.5 -138.5 q-72.5 -138.5 -72.5 -327.5 q0 -203 76 -330.5 q76 -127.5 253 -127.5 q195 0 267.5 145 q72.5 145 72.5 320 Z" /><glyph glyph-name="P" unicode="p" d="M518 435 l-161 0 l0 -291 q0 -31 9 -50 q9 -19 31 -24 q17 -4 44 -5.5 q27 -1.5 58 -3.5 l0 -61 l-425 0 l0 61 q21 1 46.5 3 q25.5 2 41.5 6 q21 5 30.5 24 q9.5 19 9.5 50 l0 741 q0 31 -9.5 50 q-9.5 19 -30.5 24 q-16 4 -36 5 q-20 1 -52 4 l0 61 l465 0 q134 0 225 -72.5 q91 -72.5 91 -205.5 q0 -137 -96.5 -226.5 q-96.5 -89.5 -240.5 -89.5 ZM492 955 l-135 0 l0 -446 l111 0 q103 0 156 63.5 q53 63.5 53 164.5 q0 96 -50 157 q-50 61 -135 61 Z" /><glyph glyph-name="Q" unicode="q" d="M1099 523 q0 -196 -112.5 -346 q-112.5 -150 -296.5 -188 q54 -149 125.5 -192.5 q71.5 -43.5 142.5 -43.5 q20 0 40 2 q20 2 39 4 l0 -62 q-63 -15 -115 -23 q-52 -8 -95 -8 q-122 0 -186 75 q-64 75 -124 241 q-194 21 -315.5 165 q-121.5 144 -121.5 359 q0 237 147 392 q147 155 368 155 q225 0 364.5 -155 q139.5 -155 139.5 -375 ZM924 520 q0 187 -76.5 323 q-76.5 136 -260.5 136 q-187 0 -259.5 -138.5 q-72.5 -138.5 -72.5 -327.5 q0 -203 76 -330.5 q76 -127.5 253 -127.5 q195 0 267.5 145 q72.5 145 72.5 320 Z" /><glyph glyph-name="R" unicode="r" d="M492 955 l-135 0 l0 -398 l111 0 q103 0 156 50.5 q53 50.5 53 158.5 q0 89 -50 139 q-50 50 -135 50 ZM539 1029 q134 0 225 -60.5 q91 -60.5 91 -193.5 q0 -112 -66 -185 q-66 -73 -171 -97 l233 -319 q43 -59 86 -83.5 q43 -24.5 104 -31.5 l-4 -59 l-247 0 l-343 483 l-90 0 l0 -339 q0 -31 9 -50 q9 -19 31 -24 q17 -4 44 -5.5 q27 -1.5 58 -3.5 l0 -61 l-425 0 l0 61 q21 1 46.5 3 q25.5 2 41.5 6 q21 5 30.5 24 q9.5 19 9.5 50 l0 741 q0 31 -9.5 50 q-9.5 19 -30.5 24 q-16 4 -36 5 q-20 1 -52 4 l0 61 l465 0 Z" /><glyph glyph-name="S" unicode="s" d="M410 -22 q-72 0 -155 19.5 q-83 19.5 -157 61.5 l0 263 l38 0 q47 -145 124 -204 q77 -59 176 -59 q106 0 156.5 50 q50.5 50 50.5 122 q0 84 -56 130.5 q-56 46.5 -124 73.5 l-124 49 q-102 40 -169.5 102.5 q-67.5 62.5 -67.5 166.5 q0 112 88 205 q88 93 269 93 q74 0 148 -19.5 q74 -19.5 148 -62.5 l0 -265 l-51 0 q-37 140 -97.5 206.5 q-60.5 66.5 -165.5 66.5 q-96 0 -148 -48.5 q-52 -48.5 -52 -126.5 q0 -82 49.5 -119.5 q49.5 -37.5 110.5 -61.5 l117 -46 q134 -52 202 -113.5 q68 -61.5 68 -165.5 q0 -137 -107.5 -227.5 q-107.5 -90.5 -270.5 -90.5 Z" /><glyph glyph-name="T" unicode="t" d="M619 955 l-74 0 l0 -811 q0 -31 9.5 -50 q9.5 -19 30.5 -24 q16 -4 35.5 -5 q19.5 -1 52.5 -4 l0 -61 l-411 0 l0 61 q22 1 47.5 3 q25.5 2 40.5 6 q21 5 31 24 q10 19 10 50 l0 811 l-75 0 q-96 0 -142.5 -33.5 q-46.5 -33.5 -74.5 -140.5 l-53 0 l0 248 l844 0 l0 -248 l-54 0 q-28 107 -74.5 140.5 q-46.5 33.5 -142.5 33.5 Z" /><glyph glyph-name="U" unicode="u" d="M334 897 l0 -547 q0 -143 61 -218 q61 -75 194 -75 q149 0 207 84.5 q58 84.5 58 215.5 l0 488 q-2 37 -15 60.5 q-13 23.5 -33 36.5 q-19 13 -43 20.5 q-24 7.5 -52 11.5 l0 55 l380 0 l0 -55 q-22 -4 -43.5 -9.5 q-21.5 -5.5 -40.5 -15.5 q-25 -13 -41 -39 q-16 -26 -17 -68 l0 -487 q0 -169 -96 -272.5 q-96 -103.5 -298 -103.5 q-170 0 -272.5 86.5 q-102.5 86.5 -102.5 273.5 l0 546 q0 31 -10 50 q-10 19 -30 24 q-16 4 -41.5 6 q-25.5 2 -46.5 3 l0 61 l410 0 l0 -61 q-32 -3 -52 -4 q-20 -1 -36 -5 q-19 -5 -29 -21 q-10 -16 -11 -41 Z" /><glyph glyph-name="V" unicode="v" d="M525 214 l254 646 q4 10 6.5 20.5 q2.5 10.5 2.5 19.5 q0 40 -43 52.5 q-43 12.5 -85 15.5 l0 61 l347 0 l0 -53 q-49 -9 -81.5 -32.5 q-32.5 -23.5 -55.5 -83.5 l-347 -880 l-51 0 l-329 905 q-18 49 -52 64 q-34 15 -77 19 l0 61 l411 0 l0 -61 q-36 -3 -81 -15.5 q-45 -12.5 -45 -57.5 q0 -5 1 -12 q1 -7 3 -14 l222 -655 Z" /><glyph glyph-name="W" unicode="w" d="M751 1029 l104 0 l234 -797 l206 605 q5 16 7.5 29.5 q2.5 13.5 2.5 24.5 q0 41 -33 58 q-33 17 -90 19 l0 61 l346 0 l0 -55 q-49 -7 -82.5 -33.5 q-33.5 -26.5 -58.5 -95.5 l-299 -865 l-50 0 l-268 844 l-289 -844 l-50 0 l-277 877 q-22 69 -58 88.5 q-36 19.5 -78 22.5 l0 61 l410 0 l0 -61 q-60 -3 -93 -19 q-33 -16 -33 -55 q0 -7 1.5 -15.5 q1.5 -8.5 3.5 -18.5 l176 -625 l268 794 Z" /><glyph glyph-name="X" unicode="x" d="M30 968 l0 61 l409 0 l0 -61 q-41 -4 -68 -16.5 q-27 -12.5 -27 -38.5 q0 -9 4 -19 q4 -10 12 -23 l157 -246 l170 241 q10 13 14 23.5 q4 10.5 4 20.5 q0 28 -30 42.5 q-30 14.5 -70 15.5 l0 61 l353 0 l0 -61 q-43 -5 -90.5 -30.5 q-47.5 -25.5 -82.5 -71.5 l-222 -314 l261 -408 q27 -41 54.5 -58.5 q27.5 -17.5 73.5 -24.5 l0 -61 l-410 0 l0 61 q55 4 88 22 q33 18 33 49 q0 11 -4 23.5 q-4 12.5 -13 25.5 l-164 256 l-180 -256 q-10 -13 -15 -25.5 q-5 -12.5 -5 -25.5 q0 -26 23 -45 q23 -19 68 -24 l0 -61 l-353 0 l0 61 q59 13 104 44 q45 31 73 68 l238 338 l-239 374 q-27 42 -78 61 q-51 19 -88 22 Z" /><glyph glyph-name="Y" unicode="y" d="M309 895 q0 -11 3.5 -24 q3.5 -13 10.5 -26 l180 -332 l184 330 q8 15 12 28 q4 13 4 24 q0 35 -32.5 53.5 q-32.5 18.5 -83.5 19.5 l0 61 l358 0 l0 -52 q-43 -4 -80.5 -29.5 q-37.5 -25.5 -71.5 -83.5 l-243 -418 l0 -302 q0 -34 9 -50.5 q9 -16.5 30 -23.5 q10 -4 36.5 -5.5 q26.5 -1.5 51.5 -3.5 l0 -61 l-409 0 l0 61 q15 1 45 3 q30 2 42 6 q22 7 31 24.5 q9 17.5 9 49.5 l0 310 l-246 431 q-25 39 -52.5 57.5 q-27.5 18.5 -75.5 25.5 l0 61 l410 0 l0 -61 q-63 -4 -92.5 -23.5 q-29.5 -19.5 -29.5 -49.5 Z" /><glyph glyph-name="Z" unicode="z" d="M785 320 l49 -5 l-21 -315 l-745 0 l-7 25 l564 930 l-236 0 q-101 0 -158.5 -38.5 q-57.5 -38.5 -95.5 -155.5 l-49 2 l18 266 l715 0 l11 -26 l-564 -929 l190 0 q157 0 211.5 50 q54.5 50 117.5 196 Z" /><glyph glyph-name="a" unicode="a" d="M598 487 l0 -346 q0 -55 27.5 -74 q27.5 -19 75.5 -19 q5 0 11 0 q6 0 12 1 l0 -42 q-26 -10 -51.5 -17 q-25.5 -7 -60.5 -7 q-82 0 -115 31.5 q-33 31.5 -34 82.5 q-36 -51 -95 -81.5 q-59 -30.5 -119 -30.5 q-75 0 -129.5 47 q-54.5 47 -54.5 130 q0 75 51.5 126.5 q51.5 51.5 164.5 79.5 l182 44 l0 35 q0 96 -32.5 133.5 q-32.5 37.5 -121.5 37.5 q-49 0 -111.5 -8.5 q-62.5 -8.5 -112.5 -20.5 l0 69 q64 34 145.5 53.5 q81.5 19.5 152.5 19.5 q99 0 157 -55 q58 -55 58 -189 ZM204 200 q0 -49 28 -77.5 q28 -28.5 91 -28.5 q37 0 75.5 11 q38.5 11 64.5 24 l0 214 l-99 -25 q-82 -22 -121 -47 q-39 -25 -39 -71 Z" /><glyph glyph-name="b" unicode="b" d="M249 622 q55 57 109.5 82 q54.5 25 116.5 25 q112 0 192.5 -83.5 q80.5 -83.5 80.5 -247.5 q0 -184 -107 -301.5 q-107 -117.5 -279 -117.5 q-60 0 -120 9.5 q-60 9.5 -127 47.5 l0 949 q0 34 -10.5 47 q-10.5 13 -43.5 13 q-13 0 -34 -1.5 q-21 -1.5 -31 -2.5 l0 52 q31 11 86.5 22.5 q55.5 11.5 91.5 11.5 q43 0 59 -22.5 q16 -22.5 16 -66.5 l0 -416 ZM413 619 q-34 0 -74 -9.5 q-40 -9.5 -90 -36.5 l0 -466 q32 -16 74 -29 q42 -13 88 -13 q109 0 159.5 81.5 q50.5 81.5 50.5 203.5 q0 135 -55 202 q-55 67 -153 67 Z" /><glyph glyph-name="c" unicode="c" d="M639 132 l3 -75 q-58 -45 -128.5 -62 q-70.5 -17 -136.5 -17 q-151 0 -230.5 96.5 q-79.5 96.5 -79.5 256.5 q0 182 104.5 293 q104.5 111 250.5 111 q101 0 171 -37.5 q70 -37.5 70 -91.5 q0 -38 -24 -60 q-24 -22 -58 -22 q-43 0 -77.5 62.5 q-34.5 62.5 -126.5 62.5 q-93 0 -138 -74 q-45 -74 -45 -194 q0 -135 56.5 -210.5 q56.5 -75.5 180.5 -75.5 q44 0 96 8.5 q52 8.5 112 28.5 Z" /><glyph glyph-name="d" unicode="d" d="M423 95 q36 0 68 8 q32 8 74 29 l0 471 q-34 18 -78.5 32 q-44.5 14 -94.5 14 q-110 0 -154 -73.5 q-44 -73.5 -44 -191.5 q0 -137 52.5 -213 q52.5 -76 176.5 -76 ZM565 985 q0 34 -9.5 47 q-9.5 13 -42.5 13 q-14 0 -35 -1.5 q-21 -1.5 -31 -2.5 l0 52 q32 11 87.5 22.5 q55.5 11.5 90.5 11.5 q43 0 59.5 -22.5 q16.5 -22.5 16.5 -66.5 l0 -897 q0 -62 33.5 -79 q33.5 -17 91.5 -13 l1 -42 q-26 -10 -51.5 -17 q-25.5 -7 -61.5 -7 q-74 0 -107.5 26 q-33.5 26 -39.5 69 q-54 -51 -111.5 -75.5 q-57.5 -24.5 -111.5 -24.5 q-114 0 -195.5 97.5 q-81.5 97.5 -81.5 263.5 q0 179 106.5 287.5 q106.5 108.5 273.5 108.5 q29 0 59.5 -3.5 q30.5 -3.5 58.5 -10.5 l0 264 Z" /><glyph glyph-name="e" unicode="e" d="M640 129 l3 -72 q-57 -45 -129.5 -62 q-72.5 -17 -129.5 -17 q-156 0 -236 96 q-80 96 -80 252 q0 186 102 297.5 q102 111.5 259 111.5 q110 0 178 -72.5 q68 -72.5 68 -205.5 q0 -7 0 -15 q0 -8 -1 -16 l-32 -65 l-449 0 q2 -128 60.5 -198.5 q58.5 -70.5 181.5 -70.5 q41 0 93.5 8.5 q52.5 8.5 111.5 28.5 ZM539 469 q0 81 -40 130.5 q-40 49.5 -118 49.5 q-83 0 -128 -57.5 q-45 -57.5 -56 -150.5 l341 0 q0 7 0.5 14 q0.5 7 0.5 14 Z" /><glyph glyph-name="f" unicode="f" d="M52 640 l0 74 l111 0 l0 7 q0 173 80.5 289.5 q80.5 116.5 243.5 116.5 q57 0 89.5 -16.5 q32.5 -16.5 32.5 -50.5 q0 -25 -15.5 -41 q-15.5 -16 -45.5 -16 q-29 0 -54.5 13 q-25.5 13 -71.5 13 q-82 0 -102.5 -59 q-20.5 -59 -20.5 -174 l0 -82 l172 0 l0 -74 l-172 0 l0 -502 q0 -33 9 -50.5 q9 -17.5 31 -23.5 q10 -4 25 -5.5 q15 -1.5 40 -3.5 l0 -55 l-346 0 l0 55 q16 1 34.5 3 q18.5 2 30.5 6 q22 6 31 24 q9 18 9 50 l0 502 l-111 0 Z" /><glyph glyph-name="g" unicode="g" d="M500 496 q0 84 -44.5 125.5 q-44.5 41.5 -98.5 41.5 q-59 0 -96.5 -44.5 q-37.5 -44.5 -37.5 -113.5 q0 -73 40.5 -116 q40.5 -43 104.5 -43 q61 0 96.5 40.5 q35.5 40.5 35.5 109.5 ZM370 275 q-28 0 -54.5 3 q-26.5 3 -51.5 9 q-13 -18 -21 -35 q-8 -17 -8 -32 q0 -25 20 -41 q20 -16 63 -16 l114 0 q137 0 221.5 -42.5 q84.5 -42.5 84.5 -138.5 q0 -108 -111.5 -213 q-111.5 -105 -299.5 -105 q-143 0 -216 64 q-73 64 -73 144 q0 69 47.5 111.5 q47.5 42.5 113.5 73.5 q-46 17 -63 47.5 q-17 30.5 -17 60.5 q0 40 30.5 75 q30.5 35 68.5 61 q-61 25 -99.5 72 q-38.5 47 -38.5 117 q0 103 82 174 q82 71 206 71 q62 0 119 -20 q57 -20 97 -57 q50 23 68.5 67 q18.5 44 65.5 44 q28 0 47 -15 q19 -15 19 -43 q0 -48 -60.5 -67 q-60.5 -19 -109.5 -22 q16 -24 26 -53 q10 -29 10 -62 q0 -109 -87.5 -170.5 q-87.5 -61.5 -192.5 -61.5 ZM304 41 q-16 0 -30.5 1 q-14.5 1 -27.5 3 q-43 -34 -59 -70 q-16 -36 -16 -73 q0 -69 49.5 -112.5 q49.5 -43.5 149.5 -43.5 q96 0 163.5 44 q67.5 44 67.5 128 q0 56 -39.5 89.5 q-39.5 33.5 -138.5 33.5 l-119 0 Z" /><glyph glyph-name="h" unicode="h" d="M143 138 l0 847 q0 34 -10.5 47 q-10.5 13 -43.5 13 q-13 0 -34 -1.5 q-21 -1.5 -31 -2.5 l0 52 q32 11 87 22.5 q55 11.5 91 11.5 q43 0 59.5 -22.5 q16.5 -22.5 16.5 -66.5 l0 -411 q55 49 117 78.5 q62 29.5 134 29.5 q90 0 141 -55 q51 -55 51 -187 l0 -355 q0 -33 10 -50.5 q10 -17.5 31 -23.5 q10 -4 25 -5.5 q15 -1.5 40 -3.5 l0 -55 l-346 0 l0 55 q16 1 34.5 3 q18.5 2 31.5 6 q22 6 31 24 q9 18 9 50 l0 319 q0 82 -30 123 q-30 41 -119 41 q-42 0 -77.5 -9 q-35.5 -9 -82.5 -24 l0 -450 q0 -33 9 -50.5 q9 -17.5 31 -23.5 q10 -4 25 -5.5 q15 -1.5 40 -3.5 l0 -55 l-346 0 l0 55 q16 1 34.5 3 q18.5 2 30.5 6 q22 6 31.5 24 q9.5 18 9.5 50 Z" /><glyph glyph-name="i" unicode="i" d="M133 1033 q0 48 29.5 71.5 q29.5 23.5 65.5 23.5 q37 0 66 -23.5 q29 -23.5 29 -71.5 q0 -48 -29 -71.5 q-29 -23.5 -66 -23.5 q-36 0 -65.5 23.5 q-29.5 23.5 -29.5 71.5 ZM300 646 l0 -508 q0 -33 9.5 -50.5 q9.5 -17.5 30.5 -23.5 q10 -4 25 -5.5 q15 -1.5 40 -3.5 l0 -55 l-346 0 l0 55 q16 1 35 3 q19 2 31 6 q22 6 31 24 q9 18 9 50 l0 454 q0 35 -10 48 q-10 13 -43 13 q-13 0 -34.5 -1.5 q-21.5 -1.5 -31.5 -2.5 l0 52 q32 11 87.5 22.5 q55.5 11.5 90.5 11.5 q43 0 59.5 -22.5 q16.5 -22.5 16.5 -66.5 Z" /><glyph glyph-name="j" unicode="j" d="M119 1032 q0 47 29 71 q29 24 66 24 q36 0 65.5 -24 q29.5 -24 29.5 -71 q0 -48 -29.5 -71.5 q-29.5 -23.5 -65.5 -23.5 q-37 0 -66 23.5 q-29 23.5 -29 71.5 ZM150 58 l0 534 q0 35 -10 48 q-10 13 -44 13 q-13 0 -34 -1.5 q-21 -1.5 -31 -2.5 l0 52 q32 11 87.5 22.5 q55.5 11.5 91.5 11.5 q43 0 59 -22.5 q16 -22.5 16 -66.5 l0 -550 q0 -134 -89 -283 q-89 -149 -251 -149 q-30 0 -44 19.5 q-14 19.5 -14 38.5 q0 20 14 40 q14 20 40 20 q29 0 54 1.5 q25 1.5 45 5.5 q69 15 89.5 73.5 q20.5 58.5 20.5 195.5 Z" /><glyph glyph-name="k" unicode="k" d="M143 138 l0 847 q0 34 -10.5 47 q-10.5 13 -43.5 13 q-13 0 -34 -1.5 q-21 -1.5 -31 -2.5 l0 52 q32 11 87 22.5 q55 11.5 91 11.5 q43 0 59.5 -22.5 q16.5 -22.5 16.5 -66.5 l0 -900 q0 -33 9 -50.5 q9 -17.5 31 -23.5 q10 -4 25 -5.5 q15 -1.5 40 -3.5 l0 -55 l-346 0 l0 55 q16 1 34.5 3 q18.5 2 30.5 6 q22 6 31.5 24 q9.5 18 9.5 50 ZM312 349 l0 27 l197 175 q13 13 20.5 27 q7.5 14 7.5 27 q2 26 -25 45.5 q-27 19.5 -78 20.5 l0 43 l347 0 l0 -43 q-40 -3 -77.5 -32 q-37.5 -29 -77.5 -68 l-182 -172 l151 -206 q47 -64 92 -91.5 q45 -27.5 108 -43.5 l0 -58 l-228 0 l-255 349 Z" /><glyph glyph-name="l" unicode="l" d="M146 138 l0 847 q0 34 -10.5 47 q-10.5 13 -43.5 13 q-13 0 -34 -1.5 q-21 -1.5 -31 -2.5 l0 52 q32 11 87 22.5 q55 11.5 91 11.5 q43 0 59.5 -22.5 q16.5 -22.5 16.5 -66.5 l0 -900 q0 -33 9 -50.5 q9 -17.5 30 -23.5 q10 -4 25.5 -5.5 q15.5 -1.5 40.5 -3.5 l0 -55 l-346 0 l0 55 q16 1 34.5 3 q18.5 2 30.5 6 q22 6 31.5 24 q9.5 18 9.5 50 Z" /><glyph glyph-name="m" unicode="m" d="M299 138 q0 -33 9 -50.5 q9 -17.5 31 -23.5 q10 -4 25 -5.5 q15 -1.5 40 -3.5 l0 -55 l-346 0 l0 55 q16 1 34.5 3 q18.5 2 30.5 6 q22 6 31 24 q9 18 9 50 l0 454 q0 35 -10 48 q-10 13 -43 13 q-13 0 -34.5 -1.5 q-21.5 -1.5 -31.5 -2.5 l0 52 q33 11 88 22.5 q55 11.5 91 11.5 q43 0 59.5 -22.5 q16.5 -22.5 16.5 -66.5 l0 -19 q54 49 116.5 78.5 q62.5 29.5 134.5 29.5 q63 0 107 -26 q44 -26 66 -85 q55 49 118.5 80 q63.5 31 135.5 31 q90 0 141.5 -55 q51.5 -55 51.5 -187 l0 -355 q0 -33 9.5 -50.5 q9.5 -17.5 30.5 -23.5 q10 -4 25 -5.5 q15 -1.5 40 -3.5 l0 -55 l-346 0 l0 55 q16 1 35 3 q19 2 31 6 q22 6 31 24 q9 18 9 50 l0 319 q0 82 -30 123 q-30 41 -118 41 q-40 0 -75 -8.5 q-35 -8.5 -80 -22.5 q4 -21 7 -45 q3 -24 3 -52 l0 -355 q0 -33 9.5 -50.5 q9.5 -17.5 30.5 -23.5 q10 -4 25 -5.5 q15 -1.5 41 -3.5 l0 -55 l-346 0 l0 55 q16 1 34.5 3 q18.5 2 30.5 6 q22 6 31.5 24 q9.5 18 9.5 50 l0 319 q0 82 -30 123 q-30 41 -119 41 q-42 0 -78 -9 q-36 -9 -82 -24 l0 -450 Z" /><glyph glyph-name="n" unicode="n" d="M299 138 q0 -33 9 -50.5 q9 -17.5 31 -23.5 q10 -4 25 -5.5 q15 -1.5 40 -3.5 l0 -55 l-346 0 l0 55 q16 1 34.5 3 q18.5 2 30.5 6 q22 6 31 24 q9 18 9 50 l0 454 q0 35 -10 48 q-10 13 -43 13 q-13 0 -34.5 -1.5 q-21.5 -1.5 -31.5 -2.5 l0 52 q33 11 88 22.5 q55 11.5 91 11.5 q43 0 59.5 -22.5 q16.5 -22.5 16.5 -66.5 l0 -19 q54 49 116.5 78.5 q62.5 29.5 134.5 29.5 q90 0 141 -55 q51 -55 51 -187 l0 -355 q0 -33 9.5 -50.5 q9.5 -17.5 30.5 -23.5 q10 -4 25 -5.5 q15 -1.5 41 -3.5 l0 -55 l-346 0 l0 55 q16 1 34.5 3 q18.5 2 30.5 6 q22 6 31.5 24 q9.5 18 9.5 50 l0 319 q0 82 -30 123 q-30 41 -119 41 q-42 0 -78 -9 q-36 -9 -82 -24 l0 -450 Z" /><glyph glyph-name="o" unicode="o" d="M762 389 q0 -160 -102 -285.5 q-102 -125.5 -271 -125.5 q-143 0 -232.5 96.5 q-89.5 96.5 -89.5 256.5 q0 182 110 293 q110 111 261 111 q144 0 234 -97.5 q90 -97.5 90 -248.5 ZM610 341 q0 136 -49 222 q-49 86 -162 86 q-104 0 -142.5 -74.5 q-38.5 -74.5 -38.5 -190.5 q0 -134 47.5 -227 q47.5 -93 160.5 -93 q94 0 139 73 q45 73 45 204 Z" /><glyph glyph-name="p" unicode="p" d="M448 619 q-34 0 -73 -10 q-39 -10 -90 -36 l0 -472 q32 -14 74.5 -25 q42.5 -11 87.5 -11 q108 0 158.5 81.5 q50.5 81.5 50.5 203.5 q0 135 -55 202 q-55 67 -153 67 ZM150 592 q0 35 -10 48 q-10 13 -44 13 q-13 0 -34 -1.5 q-21 -1.5 -31 -2.5 l0 52 q32 11 87.5 22.5 q55.5 11.5 91.5 11.5 q43 0 59 -22.5 q16 -22.5 16 -66.5 l0 -23 q54 56 109 81 q55 25 117 25 q111 0 192 -83.5 q81 -83.5 81 -247.5 q0 -184 -107 -301.5 q-107 -117.5 -279 -117.5 q-29 0 -57 3.5 q-28 3.5 -56 10.5 l0 -177 q0 -33 9.5 -50 q9.5 -17 31.5 -24 q10 -3 39.5 -5.5 q29.5 -2.5 54.5 -4.5 l0 -54 l-376 0 l0 54 q16 1 35 3 q19 2 31 7 q22 7 31 24.5 q9 17.5 9 49.5 l0 776 Z" /><glyph glyph-name="q" unicode="q" d="M429 -322 l0 54 q16 1 50 3 q34 2 47 7 q22 7 30.5 24.5 q8.5 17.5 8.5 49.5 l0 273 q-53 -57 -104.5 -84 q-51.5 -27 -108.5 -27 q-114 0 -199.5 97.5 q-85.5 97.5 -85.5 263.5 q0 179 106.5 287.5 q106.5 108.5 273.5 108.5 q46 0 90 -9 q44 -9 81 -25 l61 17 l22 0 l0 -902 q0 -33 9.5 -50 q9.5 -17 30.5 -24 q10 -3 25 -5.5 q15 -2.5 40 -4.5 l0 -54 l-377 0 ZM431 95 q38 0 64.5 10 q26.5 10 69.5 35 l0 457 q-32 19 -75.5 35.5 q-43.5 16.5 -97.5 16.5 q-110 0 -154 -73.5 q-44 -73.5 -44 -191.5 q0 -137 56.5 -213 q56.5 -76 180.5 -76 Z" /><glyph glyph-name="r" unicode="r" d="M299 138 q0 -33 9 -50.5 q9 -17.5 31 -23.5 q10 -4 39.5 -5.5 q29.5 -1.5 55.5 -3.5 l0 -55 l-376 0 l0 55 q16 1 34.5 3 q18.5 2 30.5 6 q22 6 31 24 q9 18 9 50 l0 454 q0 35 -10 48 q-10 13 -43 13 q-13 0 -34.5 -1.5 q-21.5 -1.5 -31.5 -2.5 l0 52 q33 11 88 22.5 q55 11.5 91 11.5 q43 0 59.5 -22.5 q16.5 -22.5 16.5 -66.5 l0 -16 q45 45 94 73 q49 28 103 28 q42 0 75.5 -20.5 q33.5 -20.5 33.5 -71.5 q0 -28 -21 -55 q-21 -27 -66 -27 q-51 0 -61 33 q-10 33 -55 33 q-22 0 -45 -9 q-23 -9 -58 -28 l0 -448 Z" /><glyph glyph-name="s" unicode="s" d="M303 -18 q-49 0 -109 12.5 q-60 12.5 -119 35.5 l-4 195 l38 3 q25 -84 81 -126.5 q56 -42.5 120 -42.5 q69 0 108 28.5 q39 28.5 39 78.5 q0 48 -34 73 q-34 25 -86 42 l-82 26 q-60 19 -110.5 68.5 q-50.5 49.5 -50.5 131.5 q0 97 71.5 162.5 q71.5 65.5 181.5 65.5 q46 0 99 -13.5 q53 -13.5 105 -42.5 l9 -165 l-47 -5 q-43 82 -78.5 116.5 q-35.5 34.5 -101.5 34.5 q-63 0 -94 -28.5 q-31 -28.5 -31 -73.5 q0 -43 26.5 -70 q26.5 -27 71.5 -43 l98 -34 q51 -17 111 -59 q60 -42 60 -140 q0 -103 -77.5 -166.5 q-77.5 -63.5 -194.5 -63.5 Z" /><glyph glyph-name="t" unicode="t" d="M20 640 l0 74 l129 0 l0 143 l112 77 l22 0 l0 -220 l206 0 l0 -74 l-206 0 l0 -402 q0 -92 30 -125.5 q30 -33.5 110 -33.5 q16 0 37.5 3 q21.5 3 42.5 7 l2 -64 q-29 -19 -74 -30.5 q-45 -11.5 -81 -11.5 q-84 0 -142.5 37 q-58.5 37 -58.5 136 l0 484 l-129 0 Z" /><glyph glyph-name="u" unicode="u" d="M587 126 l0 466 q0 35 -10 48 q-10 13 -44 13 q-13 0 -34 -1.5 q-21 -1.5 -31 -2.5 l0 52 q32 11 87 22.5 q55 11.5 91 11.5 q43 0 59 -22.5 q16 -22.5 16 -66.5 l0 -505 q0 -62 34 -79 q34 -17 91 -13 l2 -42 q-27 -10 -52.5 -17 q-25.5 -7 -60.5 -7 q-78 0 -111 29 q-33 29 -37 76 q-55 -49 -117.5 -79 q-62.5 -30 -133.5 -30 q-90 0 -141.5 55 q-51.5 55 -51.5 187 l0 371 q0 35 -10.5 48 q-10.5 13 -43.5 13 q-13 0 -34 -1.5 q-21 -1.5 -31 -2.5 l0 52 q32 11 87 22.5 q55 11.5 91 11.5 q43 0 59.5 -22.5 q16.5 -22.5 16.5 -66.5 l0 -389 q0 -82 29.5 -122.5 q29.5 -40.5 118.5 -40.5 q41 0 77 8.5 q36 8.5 84 23.5 Z" /><glyph glyph-name="v" unicode="v" d="M776 714 l0 -43 q-39 -9 -67.5 -38.5 q-28.5 -29.5 -45.5 -68.5 l-243 -576 l-55 0 l-246 603 q-17 40 -43.5 58 q-26.5 18 -55.5 22 l0 43 l324 0 l0 -43 q-43 0 -64.5 -20 q-21.5 -20 -10.5 -51 l151 -408 l144 342 q7 16 10.5 30.5 q3.5 14.5 3.5 26.5 q0 35 -24.5 55 q-24.5 20 -64.5 25 l0 43 l287 0 Z" /><glyph glyph-name="w" unicode="w" d="M595 714 l47 0 l216 -524 l119 344 q6 16 8.5 31 q2.5 15 2.5 27 q0 37 -23 55.5 q-23 18.5 -64 23.5 l0 43 l288 0 l0 -43 q-38 -9 -67.5 -37.5 q-29.5 -28.5 -44.5 -69.5 l-214 -576 l-55 0 l-212 493 l-201 -493 l-55 0 l-221 603 q-15 38 -42.5 57 q-27.5 19 -56.5 23 l0 43 l324 0 l0 -43 q-43 0 -64.5 -19.5 q-21.5 -19.5 -10.5 -51.5 l129 -387 l197 501 Z" /><glyph glyph-name="x" unicode="x" d="M447 381 l187 -258 q25 -36 54.5 -56 q29.5 -20 59.5 -24 l0 -43 l-310 0 l0 43 q29 0 43.5 11.5 q14.5 11.5 14.5 27.5 q0 7 -3 15.5 q-3 8.5 -9 17.5 l-120 165 l-81 -100 q-18 -22 -27 -42.5 q-9 -20.5 -9 -36.5 q0 -24 18 -39 q18 -15 50 -19 l0 -43 l-288 0 l0 43 q39 9 80 36.5 q41 27.5 77 70.5 l145 179 l-189 262 q-26 36 -48 56 q-22 20 -52 24 l0 43 l310 0 l0 -43 q-32 0 -51.5 -12.5 q-19.5 -12.5 -19.5 -31.5 q0 -6 2.5 -13 q2.5 -7 7.5 -14 l122 -170 l85 104 q15 18 21.5 35 q6.5 17 6.5 33 q0 27 -19.5 46 q-19.5 19 -54.5 23 l0 43 l288 0 l0 -43 q-39 -9 -75.5 -39 q-36.5 -30 -67.5 -68 l-148 -183 Z" /><glyph glyph-name="y" unicode="y" d="M778 714 l0 -43 q-39 -9 -67.5 -38.5 q-28.5 -29.5 -44.5 -68.5 l-221 -521 l-19 -46 q-31 -74 -109 -203.5 q-78 -129.5 -240 -129.5 q-30 0 -47 19 q-17 19 -17 44 q0 31 17 50 q17 19 42 19 q123 0 175 40 q52 40 108 180 l-235 575 q-16 40 -42.5 58 q-26.5 18 -56.5 22 l0 43 l325 0 l0 -43 q-43 0 -65 -20 q-22 -20 -11 -51 l151 -409 l144 343 q7 16 10.5 30.5 q3.5 14.5 3.5 27.5 q0 35 -24.5 54.5 q-24.5 19.5 -64.5 24.5 l0 43 l288 0 Z" /><glyph glyph-name="z" unicode="z" d="M62 502 l34 212 l516 0 l25 -41 l-392 -599 l181 0 q62 0 115 46 q53 46 67 118 l44 -7 l-33 -231 l-537 0 l-23 38 l393 602 l-179 0 q-76 0 -107 -42.5 q-31 -42.5 -54 -103.5 l-50 8 Z" /><glyph glyph-name="Acircumflex" unicode="" d="M316 1097 l167 149 l63 0 l168 -149 l-6 -15 l-48 0 l-145 85 l-145 -85 l-48 0 l-6 15 ZM488 840 l-154 -405 l287 0 l-133 405 ZM268 71 q10 -2 34.5 -5 q24.5 -3 49.5 -5 l0 -61 l-346 0 l0 61 q16 1 36 6.5 q20 5.5 32 9.5 q22 7 35.5 23 q13.5 16 23.5 44 l348 904 l70 0 l319 -904 q10 -30 23.5 -45 q13.5 -15 35.5 -22 q13 -4 33 -9.5 q20 -5.5 36 -6.5 l0 -61 l-410 0 l0 61 q25 2 49.5 5 q24.5 3 35.5 5 q22 4 37.5 22.5 q15.5 18.5 5.5 50.5 l-70 213 l-341 0 l-81 -213 q-10 -26 1.5 -46 q11.5 -20 42.5 -27 Z" /><glyph glyph-name="Aacute" unicode="" d="M780 1251 l6 -16 l-261 -147 l-48 0 l-6 15 l157 148 l152 0 ZM488 840 l-154 -405 l287 0 l-133 405 ZM268 71 q10 -2 34.5 -5 q24.5 -3 49.5 -5 l0 -61 l-346 0 l0 61 q16 1 36 6.5 q20 5.5 32 9.5 q22 7 35.5 23 q13.5 16 23.5 44 l348 904 l70 0 l319 -904 q10 -30 23.5 -45 q13.5 -15 35.5 -22 q13 -4 33 -9.5 q20 -5.5 36 -6.5 l0 -61 l-410 0 l0 61 q25 2 49.5 5 q24.5 3 35.5 5 q22 4 37.5 22.5 q15.5 18.5 5.5 50.5 l-70 213 l-341 0 l-81 -213 q-10 -26 1.5 -46 q11.5 -20 42.5 -27 Z" /><glyph glyph-name="Agrave" unicode="" d="M257 1235 l6 16 l151 0 l158 -148 l-6 -15 l-48 0 l-261 147 ZM488 840 l-154 -405 l287 0 l-133 405 ZM268 71 q10 -2 34.5 -5 q24.5 -3 49.5 -5 l0 -61 l-346 0 l0 61 q16 1 36 6.5 q20 5.5 32 9.5 q22 7 35.5 23 q13.5 16 23.5 44 l348 904 l70 0 l319 -904 q10 -30 23.5 -45 q13.5 -15 35.5 -22 q13 -4 33 -9.5 q20 -5.5 36 -6.5 l0 -61 l-410 0 l0 61 q25 2 49.5 5 q24.5 3 35.5 5 q22 4 37.5 22.5 q15.5 18.5 5.5 50.5 l-70 213 l-341 0 l-81 -213 q-10 -26 1.5 -46 q11.5 -20 42.5 -27 Z" /><glyph glyph-name="Atilde" unicode="" d="M688 1258 l47 0 q-1 -63 -31 -110 q-30 -47 -105 -47 q-70 0 -117 35.5 q-47 35.5 -81 35.5 q-27 0 -40 -22 q-13 -22 -21 -56 l-46 0 q2 66 33.5 111.5 q31.5 45.5 97.5 45.5 q62 0 104.5 -35.5 q42.5 -35.5 79.5 -35.5 q31 0 52 20 q21 20 27 58 ZM488 840 l-154 -405 l287 0 l-133 405 ZM268 71 q10 -2 34.5 -5 q24.5 -3 49.5 -5 l0 -61 l-346 0 l0 61 q16 1 36 6.5 q20 5.5 32 9.5 q22 7 35.5 23 q13.5 16 23.5 44 l348 904 l70 0 l319 -904 q10 -30 23.5 -45 q13.5 -15 35.5 -22 q13 -4 33 -9.5 q20 -5.5 36 -6.5 l0 -61 l-410 0 l0 61 q25 2 49.5 5 q24.5 3 35.5 5 q22 4 37.5 22.5 q15.5 18.5 5.5 50.5 l-70 213 l-341 0 l-81 -213 q-10 -26 1.5 -46 q11.5 -20 42.5 -27 Z" /></font>
</defs>
</svg>
