<?xml version="1.0" standalone="no"?>
<!DOCTYPE svg PUBLIC "-//W3C//DTD SVG 1.1//EN" "http://www.w3.org/Graphics/SVG/1.1/DTD/svg11.dtd" >
<svg xmlns="http://www.w3.org/2000/svg">
<metadata>
This is a custom SVG webfont generated by Typotheque.
</metadata>
<defs>
<font id="typotheque_webfonts_service" horiz-adv-x="585" >
<font-face units-per-em="1000" ascent="744" descent="-256" />
<missing-glyph horiz-adv-x="262" />
<glyph unicode=" "  horiz-adv-x="262" />
<glyph unicode="&#x09;" horiz-adv-x="262" />
<glyph unicode="&#xa0;" horiz-adv-x="262" />
<glyph unicode="C" horiz-adv-x="677" d="M489 660q-52 0 -95.5 -22t-77.5 -58.5t-59.5 -84t-42 -98.5t-25 -102t-8.5 -94q0 -80 33.5 -123.5t110.5 -43.5q43 0 78 14t63.5 38t52 56t42.5 67h36l-38 -153q-51 -34 -114 -52.5t-129 -18.5q-65 0 -114 18t-82.5 51.5t-50.5 80.5t-17 105q0 60 16 118t45.5 110t71 96 t92.5 76.5t110 50.5t123 18q56 0 107 -14t91 -40l-44 -179h-36q-1 41 -8 75t-23 58t-42.5 37.5t-65.5 13.5z" />
<glyph unicode="D" horiz-adv-x="745" d="M722 457q0 -87 -33.5 -169t-93.5 -146t-142 -103t-178 -39h-296l10 40q16 1 29.5 2t23.5 5q28 9 38 49l124 501q10 39 -14 49q-8 3 -20 4t-29 3l10 40h308q130 0 196.5 -60.5t66.5 -175.5zM276 51q52 0 95.5 18.5t78 50t60.5 73.5t43.5 88.5t26 94.5t8.5 93 q0 81 -36.5 127t-124.5 46h-89l-147 -591h85z" />
<glyph unicode="E" horiz-adv-x="625" d="M-11 40l28.5 2.5t26.5 5.5q16 5 24 17.5t14 34.5l122 493q6 23 3.5 35t-15.5 17q-6 3 -20 4.5t-31 3.5l10 40h489l-28 -170h-39q0 36 -6.5 59t-20.5 36.5t-36.5 18.5t-55.5 5h-116l-65 -260h92q23 0 36.5 6t22.5 20q6 8 12.5 25.5t11.5 35.5h43l-56 -225h-43l5 31t1 28 q-3 28 -46 28h-92l-69 -280h132q37 0 63.5 7.5t48.5 25t42.5 46t45.5 71.5l34 -4l-66 -197h-512z" />
<glyph unicode="F" horiz-adv-x="586" d="M204 593q5 23 2.5 35t-15.5 17q-5 3 -19 4.5t-31 3.5l10 40h503l-42 -170h-39q-1 36 -7.5 59t-20.5 36.5t-36 18.5t-55 5h-116l-69 -277h95q23 0 36.5 6t22.5 20q6 8 12.5 25.5t11.5 35.5h43l-56 -225h-43q2 12 5.5 31t1.5 29q-4 27 -47 27h-95l-53 -216 q-5 -22 -1.5 -33.5t15.5 -16.5q7 -3 22.5 -4.5t32.5 -3.5l-11 -40h-283l11 40q11 1 27.5 2t25.5 5q16 5 24.5 17t14.5 32z" />
<glyph unicode="G" horiz-adv-x="722" d="M571 48q-23 -13 -51.5 -24.5t-61.5 -20.5t-68.5 -13.5t-71.5 -4.5q-131 2 -198.5 70t-67.5 186q0 91 36.5 175.5t99.5 149.5t148 104t182 39q58 0 111.5 -14t92.5 -40l-44 -179h-37q-1 42 -8 76t-23.5 58t-44 37t-67.5 13q-52 0 -95.5 -21t-78.5 -56.5t-61.5 -82t-44 -97 t-26 -101.5t-8.5 -96q0 -82 36 -127t120 -45q27 0 55 5.5t56 17.5l43 173q11 41 -14 49q-8 3 -25.5 4t-31.5 3l11 40h262l-10 -40q-21 -2 -36 -10q-14 -6 -21.5 -16.5t-12.5 -29.5z" />
<glyph unicode="H" horiz-adv-x="798" d="M624 96q-6 -21 -2.5 -32.5t15.5 -16.5q6 -3 20.5 -4t29.5 -3l-10 -40h-278l11 40q11 1 27.5 2t25.5 5q16 5 24.5 17t14.5 32l59 239h-299l-59 -239q-6 -21 -2.5 -32.5t15.5 -16.5q6 -3 20.5 -4t29.5 -3l-10 -40h-277l10 40q11 1 28 2t25 5q16 5 24.5 17t14.5 32l124 501 q5 21 2 32.5t-16 16.5q-6 3 -20.5 4t-29.5 3l10 40h278l-10 -40q-11 -1 -28 -2t-26 -5q-15 -5 -24 -17t-14 -32l-52 -210h299l52 210q5 21 1.5 32.5t-15.5 16.5q-6 3 -20.5 4t-29.5 3l10 40h278l-10 -40q-11 -1 -28 -2t-26 -5q-15 -5 -24 -17t-14 -32z" />
<glyph unicode="I" horiz-adv-x="377" d="M203 96q-6 -21 -2.5 -32.5t15.5 -16.5q6 -3 20.5 -4t29.5 -3l-10 -40h-277l10 40q11 1 28 2t25 5q16 5 24.5 17t14.5 32l124 501q5 21 2 32.5t-16 16.5q-6 3 -20.5 4t-29.5 3l10 40h278l-10 -40q-11 -1 -28 -2t-26 -5q-15 -5 -24 -17t-14 -32z" />
<glyph unicode="J" horiz-adv-x="362" d="M199 597q5 21 1.5 32.5t-15.5 16.5q-7 3 -21 4t-29 3l10 40h277l-10 -40q-10 -1 -27 -2t-26 -5q-29 -9 -38 -49l-138 -554q-12 -48 -37 -96t-62.5 -86t-86 -62t-106.5 -24q-51 0 -71.5 17.5t-20.5 43.5q0 27 19.5 45.5t45.5 18.5q23 0 31.5 -12t12.5 -26.5t8.5 -26.5 t21.5 -12q22 0 39.5 17t33 50t29.5 80t29 107z" />
<glyph unicode="K" horiz-adv-x="699" d="M203 96q-6 -21 -2 -32.5t15 -16.5q7 -3 21 -4t29 -3l-10 -40h-277l10 40q11 1 28 2t25 5q16 5 24.5 17t14.5 32l124 501q10 40 -14 49q-6 3 -20.5 4t-29.5 3l10 40h278l-10 -40q-11 -1 -28 -2t-26 -5q-15 -5 -24 -17t-14 -32zM292 340q36 28 70.5 58.5l65.5 60l56 54.5 l41 41q14 14 29 31t19 32q5 17 -4.5 24.5t-51.5 11.5l10 40h264l-10 -40q-78 -8 -154 -76l-33.5 -30.5l-54 -49.5l-65 -59.5l-65.5 -59.5l115 -258q15 -35 37.5 -55t60.5 -25l-13 -40h-175l-143 333z" />
<glyph unicode="L" horiz-adv-x="579" d="M44 48q15 6 23 18t14 34l123 497q5 21 2 32.5t-16 16.5q-6 3 -20.5 4t-28.5 3l10 40h277l-10 -40q-11 -1 -28 -2t-26 -5q-15 -5 -24 -17t-14 -32l-136 -546h91q39 0 68.5 9.5t54.5 29.5t47.5 51t47.5 74l34 -4l-67 -211h-487l10 40l29.5 2.5t25.5 5.5z" />
<glyph unicode="M" horiz-adv-x="925" d="M977 693l-10 -40q-11 -1 -28 -2t-26 -5q-15 -5 -24 -17t-14 -32l-124 -501q-5 -21 -1.5 -32.5t15.5 -16.5q6 -3 20.5 -4t29.5 -3l-11 -40h-277l11 40q10 1 27 2t26 5q15 5 24 17t14 32l116 467l-325 -424h-37l-115 423l-107 -430q-7 -29 -3 -46.5t17 -27.5q21 -16 59 -21 l-10 -37h-257l10 37q16 2 31.5 6t29.5 11q20 9 35 27.5t23 50.5l112 448q5 24 2.5 37.5t-13.5 21.5q-7 6 -23.5 9t-34.5 5l10 40h207l109 -406l315 406h197z" />
<glyph unicode="N" horiz-adv-x="801" d="M588 199l90 362q8 29 4 46.5t-17 27.5q-21 16 -59 21l9 37h257l-9 -37q-17 -2 -32 -6t-29 -11q-20 -9 -35.5 -27.5t-23.5 -50.5l-140 -565h-67l-271 547l-102 -411q-8 -29 -4 -46.5t17 -27.5q21 -16 59 -21l-9 -37h-257l9 37q17 2 32 6t29 11q20 9 35.5 27.5t23.5 50.5 l101 408q13 52 -1 81t-61 36l9 36h186z" />
<glyph unicode="O" horiz-adv-x="786" d="M764 450q0 -88 -35.5 -171.5t-97 -149t-144 -105t-176.5 -39.5q-125 0 -192 67.5t-67 187.5q0 88 35 172.5t95.5 150.5t143 106t177.5 40q64 0 113 -18.5t82 -52.5t49.5 -82t16.5 -106zM322 36q53 0 97 21.5t79 57t60.5 82t43 97t26 101t8.5 94.5q0 78 -33.5 124.5 t-112.5 46.5q-52 0 -95.5 -22t-78 -58.5t-60 -84t-42.5 -98.5t-25.5 -102t-8.5 -94q0 -80 33 -122.5t109 -42.5z" />
<glyph unicode="P" horiz-adv-x="615" d="M205 597q10 40 -14 49q-9 3 -20.5 4t-29.5 3l10 40h323q78 0 124.5 -35.5t46.5 -105.5q0 -54 -23.5 -102.5t-63.5 -84.5t-91.5 -57t-107.5 -21h-109l-47 -191q-10 -40 13 -49q10 -3 25 -4t33 -3l-11 -40h-284l10 40l28.5 2t24.5 5q29 9 39 49zM338 642l-75 -303h67 q40 0 73.5 17.5t57.5 47t37 67t13 77.5q0 43 -22.5 68.5t-67.5 25.5h-83z" />
<glyph unicode="Q" horiz-adv-x="786" d="M764 450q0 -88 -35.5 -171.5t-97 -149t-144.5 -105.5q-41 -19 -84 -29q0 -37 5 -64q8 -35 24 -55t39 -28t50 -8q18 0 37 2.5l42 5.5l-2 -42q-38 -13 -86.5 -22t-89.5 -9q-47 0 -76 16t-44.5 46.5t-21.5 75.5q-5 33 -7 74q-98 9 -154 65q-67 68 -67 188q0 88 35 172.5 t95.5 150.5t143 106t177.5 40q64 0 113 -18.5t82 -52.5t49.5 -82t16.5 -106zM322 36q53 0 97 21.5t79 57t60.5 82t43 97t26 101t8.5 94.5q0 78 -33.5 124.5t-112.5 46.5q-52 0 -95.5 -22t-78 -58.5t-60 -84t-42.5 -98.5t-25.5 -102t-8.5 -94q0 -80 33 -122.5t109 -42.5z" />
<glyph unicode="R" horiz-adv-x="684" d="M205 597q5 21 2 32.5t-16 16.5q-8 3 -20 4t-30 3l10 40h323q79 0 127 -31.5t48 -101.5q0 -42 -17.5 -79.5t-47 -67.5t-68.5 -52t-82 -33l103 -211q20 -40 42 -56t58 -21l-13 -40h-173l-138 317h-55l-55 -221q-10 -40 13 -49q10 -3 25 -4t33 -3l-11 -40h-284l10 40 q12 1 27.5 2t25.5 5q29 9 39 49zM338 642l-67 -273h66q40 0 72.5 14.5t55.5 39.5t36 58t13 71q0 90 -93 90h-83z" />
<glyph unicode="S" horiz-adv-x="601" d="M204 -15q-51 0 -106 13t-98 42l44 180h32q7 -97 47 -139t106 -42q33 0 64 9.5t54 27.5t37 43t14 56q0 38 -20 63t-69 45l-70 29q-54 22 -85.5 56.5t-31.5 96.5q0 57 25.5 102t68 76.5t97 48t111.5 16.5q51 0 100 -13t91 -42l-44 -179h-39q-1 97 -31.5 140.5t-95.5 43.5 q-32 0 -61 -9.5t-52 -27t-36.5 -41.5t-13.5 -53q0 -38 17.5 -63t61.5 -43l72 -29q30 -12 54.5 -26t42.5 -33t27.5 -44t9.5 -58q0 -59 -28.5 -105t-74.5 -77.5t-104 -47.5t-116 -16z" />
<glyph unicode="T" horiz-adv-x="653" d="M476 644l-136 -548q-10 -40 14 -49q8 -3 19.5 -4t30.5 -3l-11 -40h-277l10 40l28.5 2t24.5 5q29 9 39 49l136 548h-46q-33 0 -60 -7t-49 -23t-41 -41t-37 -61h-36l45 181h596l-45 -181h-36q-1 36 -7.5 61t-20.5 41t-37 23t-56 7h-48z" />
<glyph unicode="U" horiz-adv-x="762" d="M307 -14q-58 0 -103 14.5t-73.5 44.5t-37 76t7.5 109l92 367q9 41 -15 49q-8 3 -23 4.5t-26 2.5l10 40h277l-10 -40q-19 -2 -31 -2.5t-22 -4.5q-27 -9 -37 -43l-91 -364q-23 -95 4 -145t117 -50q46 0 82.5 14.5t63.5 40.5t45.5 62t29.5 79l82 329q5 26 0.5 41.5 t-15.5 24.5q-21 16 -59 21l9 37h258l-10 -37q-15 -2 -31 -6t-30 -11q-19 -9 -34 -26t-23 -46l-81 -325q-14 -57 -42 -104t-69 -81t-95 -52.5t-120 -18.5z" />
<glyph unicode="V" horiz-adv-x="692" d="M291 597q0 -3 0.5 -7.5t0.5 -7.5l43 -424l268 415q18 27 18 44q0 18 -19 26t-55 10l10 40h231l-9 -37q-32 -4 -60 -23t-46 -48l-390 -597h-45l-73 609q-2 20 -8.5 30t-19.5 15q-8 3 -19 6.5t-21 4.5l10 40h287l-10 -40q-51 -4 -72 -15.5t-21 -40.5z" />
<glyph unicode="W" horiz-adv-x="1034" d="M689 693l27 -518l228 396q16 29 16 46q0 18 -18.5 26t-55.5 10l10 40h232l-10 -37q-67 -8 -103 -69l-352 -598h-47l-41 539l-320 -539h-51l-36 608q-2 20 -8.5 30t-19.5 15q-8 3 -19 6.5t-21 4.5l10 40h290l-10 -40q-27 -2 -44.5 -5t-28 -9.5t-15.5 -18t-5 -30.5v-15 l12 -399l303 517h77z" />
<glyph unicode="X" horiz-adv-x="673" d="M118 693h296l-10 -41q-38 -3 -57 -10t-19 -28q0 -15 10 -39l58 -147l150 153q24 25 24 41q0 24 -61 30l10 41h238l-10 -41q-29 -4 -63 -21t-66 -48l-203 -204l112 -282q11 -26 26 -38.5t44 -17.5l-11 -41h-301l11 41q53 4 76.5 15t23.5 32q0 5 -2 10.5l-4 11.5l-70 180 l-167 -174q-25 -26 -25 -43q0 -14 16.5 -21.5t42.5 -10.5l-11 -41h-237l11 41q16 3 34.5 10t36 17.5t33.5 23t29 24.5l218 223l-100 257q-12 28 -40.5 41t-52.5 15z" />
<glyph unicode="Y" horiz-adv-x="659" d="M302 601q0 -13 4 -28l65 -228l187 234q19 25 19 40q0 19 -23.5 25t-51.5 8l10 41h242l-10 -36q-30 -3 -57 -19t-51 -42l-250 -302l-48 -198q-5 -21 -1.5 -32.5t15.5 -16.5q6 -3 20.5 -4t29.5 -3l-11 -40h-277l11 40q10 1 27 2t26 5q15 5 24 17t14 32l49 201l-95 299 q-10 26 -25.5 38.5t-46.5 17.5l10 41h301l-10 -41q-47 -3 -72 -12.5t-25 -38.5z" />
<glyph unicode="Z" horiz-adv-x="626" d="M556 215l-67 -215h-516l-1 17l529 626h-147q-34 0 -62 -6t-52.5 -21t-47 -41t-44.5 -66l-33 2l56 182h495l3 -17l-531 -626h120q53 0 88.5 8t63.5 27t53.5 51.5t59.5 82.5z" />
<glyph unicode="a" horiz-adv-x="562" d="M410 97q-4 -14 -1 -20t9 -6q14 0 34.5 16.5t40.5 34.5l18 -29q-48 -57 -92 -82.5t-73 -25.5q-18 0 -28.5 8t-16 20.5t-5 28.5t5.5 33l36 122h-3q-27 -45 -54 -83.5t-54.5 -66t-55.5 -43t-56 -15.5q-43 0 -72 31.5t-29 106.5q0 64 25.5 130.5t70 120.5t104 88.5 t128.5 34.5q25 0 46.5 -5.5t41.5 -15.5l65 21h18zM164 80q18 0 40.5 17.5t47 46t50 65.5t49.5 77l30 123q-16 16 -35 26.5t-41 10.5q-28 0 -52 -14.5t-43.5 -39t-34 -56t-24.5 -65t-15 -66t-5 -59.5q0 -66 33 -66z" />
<glyph unicode="b" horiz-adv-x="541" d="M169 654q5 19 1 27t-15 8q-12 0 -30.5 -8t-39.5 -19l-2 36q49 32 87 46.5t65 14.5q35 0 46 -18.5t3 -49.5l-91 -362h2q30 49 55.5 82t49.5 53t46.5 28.5t46.5 8.5q57 0 82.5 -42t25.5 -106q0 -69 -23.5 -134.5t-67 -117.5t-104.5 -83.5t-136 -31.5q-15 0 -35 2t-41.5 6.5 t-42.5 12t-39 17.5zM338 411q-27 0 -67 -42t-101 -142l-41 -159q17 -8 38 -13t44 -5q47 0 80.5 25.5t55 65t31.5 86.5t10 89q0 53 -12 74t-38 21z" />
<glyph unicode="c" horiz-adv-x="450" d="M387 361q-14 0 -23.5 5t-15.5 12t-9 15.5t-6 15.5q-5 14 -14.5 28.5t-36.5 14.5q-37 0 -64.5 -27.5t-46 -69.5t-27.5 -91.5t-9 -93.5q0 -25 3 -45.5t11.5 -35.5t23.5 -23.5t40 -8.5q36 0 70 18.5t78 57.5l14 -31q-20 -23 -42 -44.5t-48.5 -38t-56.5 -26t-65 -9.5 q-41 0 -68.5 12.5t-44 34.5t-24 52t-7.5 64q0 60 21.5 123t61 114t95 83.5t122.5 32.5q59 0 92 -22.5t33 -56.5q0 -23 -13.5 -41.5t-43.5 -18.5z" />
<glyph unicode="d" horiz-adv-x="553" d="M402 97q-4 -16 0 -21.5t12 -3.5q14 2 33.5 17.5t37.5 32.5l14 -30q-48 -56 -88.5 -81.5t-70.5 -25.5q-17 0 -28 8t-16 20.5t-5 28.5t5 33l34 117h-4q-26 -44 -52.5 -81.5t-53.5 -64.5t-55 -42t-57 -15q-19 0 -36 7t-29.5 23t-20 41.5t-7.5 62.5q0 65 24.5 132.5t67.5 122 t102 89t128 34.5q30 0 59 -8l40 160q5 20 1 28t-15 8q-12 0 -31.5 -8.5l-39.5 -17.5l-1 35q42 28 82 44.5t72 16.5q34 0 44.5 -18.5t2.5 -49.5zM159 80q18 0 40 17.5t47 46t50 66t49 77.5l32 127q-16 14 -35 23t-42 9q-43 0 -75.5 -31.5t-54.5 -77.5t-33.5 -98t-11.5 -92 q0 -67 34 -67z" />
<glyph unicode="e" horiz-adv-x="478" d="M391 101q-19 -23 -43.5 -44t-53 -37t-61 -25.5t-67.5 -9.5q-41 0 -69 12.5t-45 34.5t-25 51.5t-8 63.5q0 58 21.5 121t62 114.5t98 85t128.5 33.5q28 0 52 -5.5t42 -17t28 -29.5t10 -43q0 -30 -16.5 -59.5t-54.5 -54.5t-100 -42.5t-152 -22.5q-3 -29 -3 -54t3.5 -46.5 t13.5 -37t27 -24.5t43 -9q36 0 73 17.5t82 58.5zM288 453q-29 0 -52.5 -16t-41.5 -42.5t-30.5 -60t-19.5 -69.5q58 8 96 22.5t60.5 32.5t32 37.5t9.5 37.5q0 30 -14 44t-40 14z" />
<glyph unicode="f" horiz-adv-x="347" d="M62 486h92q15 60 39.5 110t58.5 86t78 56.5t99 20.5q52 0 80 -18t28 -41q0 -22 -13.5 -36t-36.5 -14q-18 0 -29.5 9t-22 19.5t-21.5 19.5t-28 9q-25 0 -42 -12t-29.5 -34t-22 -53.5t-19.5 -71.5l-13 -50h118l-12 -50h-118l-97 -388q-15 -61 -42.5 -111.5t-62 -86.5 t-74.5 -55.5t-80 -19.5q-38 0 -65 17t-27 42q0 20 13 34.5t36 14.5q14 0 24 -8t19.5 -17t20.5 -17t27 -8q29 0 50.5 43.5t41.5 121.5l109 438h-91z" />
<glyph unicode="g" horiz-adv-x="500" d="M210 186q-17 0 -32.5 1.5t-29.5 6.5q-27 -27 -27 -46q-1 -16 14 -24.5t42 -12.5l83 -13q71 -11 111 -36t40 -75q0 -43 -29 -81.5t-75 -68t-103.5 -46.5t-115.5 -17q-77 0 -121.5 31.5t-44.5 81.5q0 28 13.5 51t35 41t48.5 31.5t54 24.5q-25 11 -35.5 26t-10.5 34 q0 18 8.5 33.5t22 29t30.5 25.5t34 21q-29 14 -46.5 39.5t-17.5 62.5q0 41 19.5 76.5t53 62t77.5 41.5t92 15q35 0 66 -10.5t52 -31.5q10 12 14.5 25t7.5 26q5 22 17.5 36.5t34.5 14.5q40 0 40 -36q0 -16 -9 -29t-23.5 -23t-32 -18t-34.5 -14q19 -27 19 -64q0 -40 -19 -74.5 t-52 -60.5t-77 -41t-94 -15zM124 22q-6 1 -12 1.5t-11 2.5q-30 -19 -52 -46.5t-22 -65.5q0 -39 26.5 -62t78.5 -23q34 0 64 8.5t52.5 23.5t36 36.5t13.5 47.5t-20.5 41t-69.5 22zM228 229q25 0 45 13.5t34 34.5t22 47t8 52q0 38 -15.5 60t-43.5 22q-24 0 -44 -14t-35 -36 t-23.5 -49t-8.5 -53q0 -35 14 -56t47 -21z" />
<glyph unicode="h" horiz-adv-x="566" d="M421 110q-5 -20 -4 -29.5t10 -9.5q19 0 74 51l14 -29q-48 -57 -89.5 -83t-71.5 -25q-36 1 -46 29t-1 63l57 221q12 47 13 71.5t-26 24.5q-28 0 -78 -54t-111 -166l-46 -174h-107l160 652q5 20 1.5 28t-13.5 8q-11 0 -30.5 -8t-41.5 -19l-1 35q48 30 87 46t68 16 q35 0 44 -20.5t1 -51.5l-99 -401h3q65 117 119 166.5t107 49.5q49 0 67.5 -38.5t-3.5 -130.5z" />
<glyph unicode="i" horiz-adv-x="310" d="M160 91q-3 -20 9 -20q11 0 28.5 12t46.5 39l14 -29q-48 -57 -89.5 -83t-71.5 -25q-33 1 -45 27t-1 68l78 315q8 35 -12 35q-11 0 -31 -8t-41 -19l-2 35q47 30 87 46.5t69 16.5q35 0 43.5 -21t0.5 -51zM181 688q0 27 19.5 47t46.5 20t47 -20t20 -47t-20 -46.5t-47 -19.5 t-46.5 19.5t-19.5 46.5z" />
<glyph unicode="j" horiz-adv-x="282" d="M145 48q-15 -61 -42.5 -111.5t-62 -86.5t-74 -55.5t-79.5 -19.5q-19 0 -36 5t-29.5 14t-20 20.5t-7.5 24.5q0 20 14 34.5t37 14.5q13 0 23 -8.5t19.5 -19t20.5 -19t27 -8.5q28 0 49.5 43.5t41.5 121.5l99 397q10 35 -12 35q-11 0 -31 -8t-41 -19l-1 35q46 30 86 46.5 t69 16.5q36 0 44.5 -21t0.5 -51zM179 688q0 27 19.5 47t46.5 20t47 -20t20 -47t-20 -46.5t-47 -19.5t-46.5 19.5t-19.5 46.5z" />
<glyph unicode="k" horiz-adv-x="538" d="M8 0l162 653q5 20 1 28t-15 8q-12 0 -31 -8t-39 -18l-2 35q43 29 82.5 45t71.5 16q34 0 44.5 -19t2.5 -49l-101 -404h3q33 58 62 99t56 66.5t52.5 37t52.5 11.5q17 0 33 -4.5t28.5 -14.5t20 -26.5t7.5 -40.5q0 -50 -36.5 -95t-117.5 -98l111 -207l-10 -30h-96l-101 203 v10q70 59 102.5 106t32.5 76t-29 29q-28 0 -78 -58t-115 -170l-48 -181h-106z" />
<glyph unicode="l" horiz-adv-x="286" d="M139 96q-7 -27 10 -24q13 2 32.5 16t40.5 34l13 -29q-49 -57 -89.5 -82.5t-71.5 -25.5q-33 0 -44.5 26.5t-0.5 68.5l141 573q5 20 1 28t-15 8q-12 0 -31 -8.5l-39 -17.5l-2 35q42 28 82 44.5t72 16.5q34 0 44.5 -18.5t2.5 -49.5l-146 -595v0z" />
<glyph unicode="m" horiz-adv-x="863" d="M130 395q8 35 -12 35q-11 0 -30.5 -7.5t-41.5 -19.5l-2 35q98 63 153 63q35 0 44 -21t1 -51l-40 -152h3q66 121 121 172.5t110 51.5q49 0 65.5 -38t-5.5 -127l-15 -57h1q66 120 121 171t109 51q49 0 67.5 -38.5t-4.5 -130.5l-56 -222q-5 -20 -4 -29.5t10 -9.5q19 0 74 51 l13 -29q-48 -57 -89 -83t-71 -25q-18 0 -29.5 8t-17 21t-5.5 29.5t5 33.5l57 221q12 47 13 71.5t-26 24.5q-28 0 -77.5 -52.5t-110.5 -164.5l-44 -177h-105l74 298q14 53 13 74.5t-27 21.5q-28 0 -78.5 -54.5t-112.5 -168.5l-42 -171h-107l98 395v0z" />
<glyph unicode="n" horiz-adv-x="589" d="M130 395q8 35 -12 35q-11 0 -30.5 -7.5t-41.5 -19.5l-2 35q98 63 154 63q35 0 43.5 -20.5t0.5 -51.5l-44 -162h4q34 63 65 107.5t59.5 72.5t56 41t55.5 13q49 0 67 -38.5t-4 -130.5l-56 -222q-9 -39 5 -39q20 0 75 51l13 -29q-48 -57 -89 -83t-72 -25q-36 1 -45.5 29 t-0.5 63l57 221q12 47 13 71.5t-26 24.5q-29 0 -81.5 -57.5t-116.5 -177.5l-38 -159h-107l98 395v0z" />
<glyph unicode="o" horiz-adv-x="530" d="M489 329q0 -60 -23.5 -121.5t-65 -111t-97.5 -81t-121 -31.5q-81 0 -121 48t-40 129q0 63 23.5 124t64.5 109t96.5 77.5t119.5 29.5q78 0 121 -45.5t43 -126.5zM205 37q33 0 63 30t52.5 75.5t36 100.5t13.5 105q0 47 -14.5 75t-52.5 28t-68 -30.5t-50.5 -76.5t-31.5 -99 t-11 -99q0 -23 3 -42.5t10 -34.5t19.5 -23.5t30.5 -8.5z" />
<glyph unicode="p" horiz-adv-x="567" d="M-74 -167h64l140 562q10 36 -13 36q-12 0 -30.5 -8t-40.5 -19l-2 35q50 32 85 47t66 15q33 0 44 -19t3 -49l-30 -117h2q31 52 58 87.5t51.5 57.5t47.5 31t47 9q58 0 83.5 -42t25.5 -108q0 -68 -23.5 -133t-67 -117t-104.5 -83.5t-136 -31.5q-27 0 -60 6l-39 -159h137 l-12 -50h-308zM364 411q-27 0 -68 -43.5t-103 -145.5l-38 -154q17 -8 38 -13t43 -5q47 0 81 25.5t55.5 65t31.5 86.5t10 89q0 53 -12 74t-38 21z" />
<glyph unicode="q" horiz-adv-x="529" d="M100 -167h132l84 337h-4q-24 -40 -49 -73t-50.5 -57t-51.5 -37.5t-52 -13.5q-40 0 -67 30.5t-27 105.5q0 64 24.5 130.5t67.5 121t101.5 89.5t127.5 35q24 0 45.5 -5.5t40.5 -13.5l63 19h18l-165 -668h70l-12 -50h-308zM159 80q17 0 38.5 16.5t45.5 44t48.5 63t48.5 74.5 l34 133q-16 15 -34.5 25t-39.5 10q-29 0 -53 -14.5t-43 -39t-34 -56t-25 -65t-15 -66t-5 -59.5q0 -66 34 -66z" />
<glyph unicode="r" horiz-adv-x="431" d="M130 395q9 36 -12 36q-11 0 -30.5 -8t-41.5 -19l-2 35q48 30 86.5 46t67.5 16q35 0 43.5 -20t0.5 -52l-33 -129h4q34 62 60 101t47.5 61.5t40.5 30.5t40 8q26 0 40 -11t14 -37q0 -25 -17 -42.5t-50 -19.5q-31 -2 -53 -10t-43 -27.5t-44 -54.5l-57 -90l-52 -209h-107 l98 395v0z" />
<glyph unicode="s" horiz-adv-x="394" d="M110 -13q-27 0 -50.5 4t-41 12.5t-27.5 21.5t-10 31q0 23 14 36t37 13q18 0 31 -10t26.5 -21.5t30 -21.5t40.5 -10q17 0 30.5 9t13.5 33q0 21 -11 39t-25 38l-71 100q-14 21 -20 42t-6 38q0 30 16 58.5t43 51t63.5 36.5t78.5 14q51 0 84 -19t33 -51q0 -20 -13.5 -33.5 t-35.5 -13.5q-17 0 -30.5 9.5t-27 21.5t-29.5 21.5t-37 9.5q-26 0 -38.5 -15t-12.5 -36q0 -12 6 -26t20 -34l74 -102q10 -12 24.5 -37t14.5 -55q0 -25 -12.5 -52.5t-37 -50t-61 -37t-83.5 -14.5z" />
<glyph unicode="t" horiz-adv-x="391" d="M61 486h98l23 91l104 52h15l-36 -143h135l-13 -50h-134l-67 -269q-4 -16 -6.5 -31t-2.5 -28q0 -39 31 -39q21 0 47 10t64 31l18 -29q-46 -42 -91.5 -67.5t-93.5 -25.5q-43 0 -66.5 19.5t-25.5 58.5q-1 12 0.5 26.5t6.5 30.5l79 313h-98z" />
<glyph unicode="u" d="M436 102q-6 -20 -1.5 -25.5t9.5 -5.5q12 0 31.5 15.5t41.5 35.5l14 -29q-45 -54 -86.5 -81t-71.5 -27q-18 0 -29 7.5t-16 20t-5 27.5t4 30l35 142h-3q-34 -62 -64 -105t-58.5 -70t-55 -39.5t-52.5 -12.5q-24 0 -41 9t-25.5 29.5t-8 52.5t11.5 78l62 242q5 19 0 27t-14 8 t-26 -6t-45 -21l-1 35q38 28 80.5 45t73.5 17q36 -1 44.5 -22.5t-0.5 -56.5l-60 -234q-12 -47 -13.5 -72.5t25.5 -25.5q28 0 79 56.5t114 176.5l40 163h107l-96 -384v0z" />
<glyph unicode="v" horiz-adv-x="510" d="M443 501q32 0 44 -19t12 -50q0 -43 -22 -96t-62 -111t-95 -118t-121 -115h-26l-66 420q-3 21 -18 21q-11 0 -31 -8.5t-38 -17.5l-3 34q24 17 49 30q21 11 46.5 20.5t50.5 9.5q29 0 39 -17.5t15 -59.5l43 -313q43 40 67 81.5t36.5 82.5t15.5 80.5t4 77.5q0 32 17 50t43 18 z" />
<glyph unicode="w" horiz-adv-x="775" d="M706 501q32 0 44.5 -19t12.5 -50q0 -43 -21 -96t-60 -111t-93 -118t-120 -115h-26l-40 254q-34 -62 -84.5 -126.5t-119.5 -127.5h-26l-66 420q-3 21 -18 21q-11 0 -31 -8.5t-38 -17.5l-3 34q24 17 49 30q21 11 46.5 20.5t50.5 9.5q29 0 39 -17.5t15 -59.5l42 -305 q61 66 88 132t35 129l-17 106h113l52 -376q43 40 66 81.5t34 82.5t13.5 81t2.5 78q0 32 17 50t43 18z" />
<glyph unicode="x" horiz-adv-x="536" d="M293 325l86 106q30 37 51 51.5t41 14.5q19 0 32 -17.5t18 -46.5q5 -20 6 -38l-28 -14q-10 9 -20.5 13t-20.5 4q-40 0 -80 -48l-69 -80l47 -159q11 -38 35 -38q16 0 33 13.5t35 31.5l20 -20q-15 -22 -31.5 -42.5t-34.5 -36t-37.5 -25t-40.5 -9.5q-33 0 -50.5 20.5 t-25.5 46.5l-39 124l-97 -119q-26 -31 -50 -51.5t-50 -20.5q-23 0 -35.5 13t-17.5 36q-2 8 -2.5 16t-1.5 16l22 25q9 -6 21 -8.5t23 -1.5q23 1 47 13t43 35l82 98l-55 179q-4 9 -9.5 15t-13.5 6q-11 0 -31 -8.5t-38 -17.5l-6 33l27 20.5t33 21.5t37.5 17t39.5 7 q32 0 48.5 -20t29.5 -63z" />
<glyph unicode="y" horiz-adv-x="551" d="M316 26q35 57 55 126t31 149q-51 -70 -114.5 -146t-133.5 -146h-37l5 400q-3 21 -18 21q-11 0 -32.5 -7.5t-39.5 -16.5l-1 33q25 17 51 31q22 11 47.5 21t48.5 10q32 0 45.5 -18t11.5 -59l-12 -277l50 56l50.5 60.5l47 59.5t39.5 53q4 52 6 110h113l6 -10l-17.5 -79.5 t-31.5 -115t-49 -134t-70 -136.5q-24 -39 -56.5 -80.5t-72 -75.5t-84.5 -55.5t-95 -21.5q-34 0 -52.5 14t-18.5 40t17.5 42.5t49.5 16.5q27 0 58.5 -1.5t64.5 9t68 39t70 88.5z" />
<glyph unicode="z" horiz-adv-x="490" d="M452 486l10 -28l-318 -340l45.5 -7t51 -7.5t47.5 -6t36 -2.5q22 0 36.5 2.5t24 10t17.5 20.5t19 35l27 -6q-14 -41 -28.5 -72.5t-31 -53.5t-36.5 -33.5t-46 -11.5q-27 0 -62.5 6t-70 13.5t-63.5 15.5t-44 13l-32 -34h-38l-9 26l317 341q-32 0 -57.5 4t-47.5 8.5t-41 8 t-37 3.5q-15 0 -27.5 -9t-26.5 -44l-25 8q14 39 25.5 68t24 48t27 28.5t34.5 9.5q27 0 49.5 -7l48 -15.5t56.5 -17t74 -11.5l34 37h37z" />
<glyph unicode="0" horiz-adv-x="653" d="M605 373q0 -67 -28.5 -136t-78.5 -125t-118 -91.5t-148 -35.5q-40 0 -74.5 10.5t-60 33t-40 58t-14.5 85.5q0 67 26.5 137t74.5 127t114.5 93t147.5 36q43 0 80 -11.5t63 -35.5t41 -60t15 -85zM261 40q37 0 67 18t54 47t41 66.5t28.5 76t17 75.5t5.5 66q0 60 -23 91.5 t-70 31.5q-36 0 -65.5 -18.5t-53 -48.5t-40.5 -68t-28 -78t-16.5 -78t-5.5 -67q0 -59 22 -86.5t67 -27.5z" />
<glyph unicode="1" horiz-adv-x="450" d="M259 105q-7 -23 -3 -34t17 -16q3 -1 15.5 -2.5t27.5 -2.5l30 -2t24 -2l-12 -46h-363l12 46q5 0 20 1t31.5 2.5t30.5 2.5t19 3q29 8 39 50l88 353h-136l9 36q28 4 61.5 13t66 20.5t62 23.5l50.5 21h28z" />
<glyph unicode="2" horiz-adv-x="559" d="M417 0h-428l2 35l166.5 126t117 95t69 78.5t22.5 75.5q0 70 -86 70q-48 0 -90.5 -20.5t-81.5 -56.5l-14 23q67 82 135.5 115t130.5 33q72 0 107 -36.5t35 -92.5q0 -53 -29 -97t-78.5 -84.5t-114 -80.5l-135.5 -83h330l1 -10z" />
<glyph unicode="3" horiz-adv-x="561" d="M169 204l63.5 35.5t69.5 46.5t56 56t23 65q0 21 -9 35.5t-23.5 22.5t-32.5 11.5t-37 3.5q-47 0 -92.5 -18.5t-81.5 -50.5l-15 26q65 70 130 103.5t131 33.5q72 0 113.5 -35.5t41.5 -92.5q0 -36 -17 -66.5t-44.5 -56t-62.5 -46t-72 -38.5q71 -11 109.5 -50t38.5 -100 q0 -58 -31.5 -104t-80.5 -78t-108.5 -49t-114.5 -17q-27 0 -56 4.5t-52.5 14t-38.5 25t-15 37.5q0 26 20 45.5t49 19.5q18 0 27 -7.5t14 -18.5t9 -24.5t11.5 -24.5t21.5 -18.5t40 -7.5q33 0 64.5 12.5t56 35t39.5 53.5t15 67q0 21 -7 40t-24.5 34.5t-48 27t-78.5 17.5z" />
<glyph unicode="4" horiz-adv-x="614" d="M278 50h-311l16 68l484 449h53l-108 -433h141v-10l-45 -74h-117l-47 -191h-113zM299 134l70 280l-300 -280h230z" />
<glyph unicode="5" horiz-adv-x="574" d="M107 -159q-28 0 -57.5 5.5t-53 16.5t-37 27.5t-9.5 39.5q4 22 22 39.5t46 17.5q18 0 27 -7.5t14.5 -18.5t9.5 -24.5t12 -24.5t22.5 -18.5t40.5 -7.5q36 0 68 16t56 43t38 61.5t14 71.5q0 46 -27.5 71.5t-67 36.5t-84.5 12t-80 -1l144 361h379l1 -10l-60 -96h-311 l-69 -170q60 1 115 -7t97 -27.5t67.5 -51.5t25.5 -80q0 -62 -32.5 -112.5t-83 -86.5t-111 -56t-116.5 -20z" />
<glyph unicode="6" horiz-adv-x="604" d="M635 665q-75 -5 -139.5 -28t-118 -60.5t-95 -87.5t-69.5 -107q38 23 82.5 39t90.5 16q77 0 116.5 -43t39.5 -114q0 -61 -27.5 -114.5t-72.5 -94t-103.5 -64t-119.5 -23.5q-94 0 -137 49.5t-43 139.5q0 105 44.5 197.5t119 164t172.5 116.5t205 55q13 2 28 2h29zM313 366 q-30 0 -61 -8t-58 -20q-35 -93 -35 -189q0 -60 21.5 -89t62.5 -29q37 0 68.5 21.5t53.5 55.5t34.5 75.5t12.5 80.5q0 53 -25.5 77.5t-73.5 24.5z" />
<glyph unicode="7" horiz-adv-x="525" d="M4 -144l-1 11l460 593h-381l-1 10l59 88h426l-1 -30l-471 -672h-90z" />
<glyph unicode="8" horiz-adv-x="598" d="M599 579q0 -38 -16.5 -68t-43.5 -55t-62.5 -44t-73.5 -34q63 -34 90 -70.5t27 -81.5q0 -51 -26 -95.5t-69 -76.5t-98.5 -50.5t-115.5 -18.5q-40 0 -75 7.5t-61 24t-41 42t-15 60.5q0 39 14.5 73t40.5 62t62 50.5t79 37.5q-47 28 -68 61.5t-21 75.5q0 52 26 94.5t68 72.5 t94 46t104 16q37 0 70 -8.5t58 -25t39 -40.5t14 -55zM398 179q0 27 -13.5 48t-34.5 37.5t-46.5 30l-49.5 25.5q-24 -15 -46.5 -34.5t-39 -44t-26.5 -53t-10 -61.5q0 -42 24.5 -66.5t75.5 -24.5q29 0 58.5 10.5t53.5 29t39 45t15 58.5zM244 525q0 -24 10 -42.5t26.5 -33.5 t38.5 -27l45 -24q24 16 45 35.5t37 41.5t25.5 47t9.5 53q0 37 -23 59t-68 22q-27 0 -53 -9.5t-47 -27t-33.5 -41.5t-12.5 -53z" />
<glyph unicode="9" horiz-adv-x="604" d="M-34 -107q74 4 138.5 27.5t118 61t94.5 87.5t69 107q-38 -23 -82 -39t-89 -16q-77 0 -116.5 43.5t-39.5 113.5q0 60 26 113.5t70.5 94t102.5 64.5t121 24q94 0 138.5 -49.5t44.5 -138.5q0 -106 -45 -199.5t-120.5 -165t-174.5 -116.5t-207 -54q-12 0 -24.5 -0.5 t-26.5 0.5zM288 192q29 0 60 8.5t58 19.5q35 91 35 189q0 118 -83 118q-38 0 -69 -21.5t-53 -55.5t-34.5 -75.5t-12.5 -80.5q0 -53 25.5 -77.5t73.5 -24.5z" />
<glyph unicode="&#xc1;" horiz-adv-x="690" d="M0 0zM419 240h-225l-90 -144q-11 -18 -7 -31t23 -18q7 -2 23 -3.5t33 -3.5l-11 -40h-230l11 40q11 1 23.5 4.5t21.5 6.5q17 5 28.5 15.5t23.5 29.5l390 610h58l63 -610q2 -20 8 -30t19 -15q8 -3 19 -6.5t22 -4.5l-11 -40h-283l10 40q17 2 32 4t23 4q16 5 28 16.5t11 31.5 zM228 293h187l-23 262zM684 835l-199 -102h-37l-1 10l123 103h113z" />
<glyph unicode="&#xc2;" horiz-adv-x="690" d="M0 0zM419 240h-225l-90 -144q-11 -18 -7 -31t23 -18q7 -2 23 -3.5t33 -3.5l-11 -40h-230l11 40q11 1 23.5 4.5t21.5 6.5q17 5 28.5 15.5t23.5 29.5l390 610h58l63 -610q2 -20 8 -30t19 -15q8 -3 19 -6.5t22 -4.5l-11 -40h-283l10 40q17 2 32 4t23 4q16 5 28 16.5t11 31.5 zM228 293h187l-23 262zM470 854h48l89 -115l-6 -10h-42l-85 66l-108 -66h-35l-2 10z" />
<glyph unicode="&#xc0;" horiz-adv-x="690" d="M0 0zM419 240h-225l-90 -144q-11 -18 -7 -31t23 -18q7 -2 23 -3.5t33 -3.5l-11 -40h-230l11 40q11 1 23.5 4.5t21.5 6.5q17 5 28.5 15.5t23.5 29.5l390 610h58l63 -610q2 -20 8 -30t19 -15q8 -3 19 -6.5t22 -4.5l-11 -40h-283l10 40q17 2 32 4t23 4q16 5 28 16.5t11 31.5 zM228 293h187l-23 262zM254 846h112l123 -103l-1 -10h-37l-199 102z" />
<glyph unicode="&#xc3;" horiz-adv-x="690" d="M0 0zM419 240h-225l-90 -144q-11 -18 -7 -31t23 -18q7 -2 23 -3.5t33 -3.5l-11 -40h-230l11 40q11 1 23.5 4.5t21.5 6.5q17 5 28.5 15.5t23.5 29.5l390 610h58l63 -610q2 -20 8 -30t19 -15q8 -3 19 -6.5t22 -4.5l-11 -40h-283l10 40q17 2 32 4t23 4q16 5 28 16.5t11 31.5 zM228 293h187l-23 262zM639 850q-13 -45 -41.5 -77t-78.5 -32q-23 0 -40 6.5t-31 15t-26 15t-23 6.5q-30 0 -52 -47h-36q14 45 43 76.5t75 31.5q19 0 34.5 -6.5t28.5 -14.5t25 -14.5t25 -6.5q20 0 35.5 12t24.5 35h37z" />
<glyph unicode="&#xc7;" horiz-adv-x="677" d="M52 0zM489 660q-52 0 -95.5 -22t-77.5 -58.5t-59.5 -84t-42 -98.5t-25 -102t-8.5 -94q0 -80 33.5 -123.5t110.5 -43.5q43 0 78 14t63.5 38t52 56t42.5 67h36l-38 -153q-51 -34 -114 -52.5t-129 -18.5q-65 0 -114 18t-82.5 51.5t-50.5 80.5t-17 105q0 60 16 118t45.5 110 t71 96t92.5 76.5t110 50.5t123 18q56 0 107 -14t91 -40l-44 -179h-36q-1 41 -8 75t-23 58t-42.5 37.5t-65.5 13.5zM419 -128q0 -26 -12.5 -44.5t-32.5 -30.5t-45.5 -17.5t-51.5 -5.5q-17 0 -38.5 4t-37.5 10l13 54q16 -6 35 -10.5t36 -4.5q22 0 37 8t15 24q0 9 -6 14.5 t-15.5 8.5t-21 4t-22.5 1l30 121h47l-16 -66q33 -3 59.5 -20.5t26.5 -49.5z" />
<glyph unicode="&#xc9;" horiz-adv-x="625" d="M0 0zM624 835l-199 -102h-37l-1 10l123 103h113zM-11 40l28.5 2.5t26.5 5.5q16 5 24 17.5t14 34.5l122 493q6 23 3.5 35t-15.5 17q-6 3 -20 4.5t-31 3.5l10 40h489l-28 -170h-39q0 36 -6.5 59t-20.5 36.5t-36.5 18.5t-55.5 5h-116l-65 -260h92q23 0 36.5 6t22.5 20 q6 8 12.5 25.5t11.5 35.5h43l-56 -225h-43l5 31t1 28q-3 28 -46 28h-92l-69 -280h132q37 0 63.5 7.5t48.5 25t42.5 46t45.5 71.5l34 -4l-66 -197h-512z" />
<glyph unicode="&#xca;" horiz-adv-x="625" d="M0 0zM-11 40l28.5 2.5t26.5 5.5q16 5 24 17.5t14 34.5l122 493q6 23 3.5 35t-15.5 17q-6 3 -20 4.5t-31 3.5l10 40h489l-28 -170h-39q0 36 -6.5 59t-20.5 36.5t-36.5 18.5t-55.5 5h-116l-65 -260h92q23 0 36.5 6t22.5 20q6 8 12.5 25.5t11.5 35.5h43l-56 -225h-43l5 31 t1 28q-3 28 -46 28h-92l-69 -280h132q37 0 63.5 7.5t48.5 25t42.5 46t45.5 71.5l34 -4l-66 -197h-512zM449 854h48l89 -115l-6 -10h-42l-85 66l-108 -66h-35l-2 10z" />
<glyph unicode="&#xcb;" horiz-adv-x="625" d="M0 0zM484 791q0 28 21 48.5t50 20.5q21 0 36 -13t15 -37q0 -32 -22.5 -50.5t-48.5 -18.5q-21 0 -36 13.5t-15 36.5zM307 790q0 28 20.5 49t50.5 21q20 0 35.5 -13t15.5 -37q0 -15 -6.5 -28t-16.5 -22t-23 -14t-26 -5q-20 0 -35 13t-15 36zM-11 40l28.5 2.5t26.5 5.5 q16 5 24 17.5t14 34.5l122 493q6 23 3.5 35t-15.5 17q-6 3 -20 4.5t-31 3.5l10 40h489l-28 -170h-39q0 36 -6.5 59t-20.5 36.5t-36.5 18.5t-55.5 5h-116l-65 -260h92q23 0 36.5 6t22.5 20q6 8 12.5 25.5t11.5 35.5h43l-56 -225h-43l5 31t1 28q-3 28 -46 28h-92l-69 -280h132 q37 0 63.5 7.5t48.5 25t42.5 46t45.5 71.5l34 -4l-66 -197h-512z" />
<glyph unicode="&#xc8;" horiz-adv-x="625" d="M0 0zM258 846h112l123 -103l-1 -10h-37l-199 102zM-11 40l28.5 2.5t26.5 5.5q16 5 24 17.5t14 34.5l122 493q6 23 3.5 35t-15.5 17q-6 3 -20 4.5t-31 3.5l10 40h489l-28 -170h-39q0 36 -6.5 59t-20.5 36.5t-36.5 18.5t-55.5 5h-116l-65 -260h92q23 0 36.5 6t22.5 20 q6 8 12.5 25.5t11.5 35.5h43l-56 -225h-43l5 31t1 28q-3 28 -46 28h-92l-69 -280h132q37 0 63.5 7.5t48.5 25t42.5 46t45.5 71.5l34 -4l-66 -197h-512z" />
<glyph unicode="&#xcd;" horiz-adv-x="377" d="M0 0zM203 96q-6 -21 -2.5 -32.5t15.5 -16.5q6 -3 20.5 -4t29.5 -3l-10 -40h-277l10 40q11 1 28 2t25 5q16 5 24.5 17t14.5 32l124 501q5 21 2 32.5t-16 16.5q-6 3 -20.5 4t-29.5 3l10 40h278l-10 -40q-11 -1 -28 -2t-26 -5q-15 -5 -24 -17t-14 -32zM483 835l-199 -102 h-37l-1 10l123 103h113z" />
<glyph unicode="&#xce;" horiz-adv-x="377" d="M0 0zM203 96q-6 -21 -2.5 -32.5t15.5 -16.5q6 -3 20.5 -4t29.5 -3l-10 -40h-277l10 40q11 1 28 2t25 5q16 5 24.5 17t14.5 32l124 501q5 21 2 32.5t-16 16.5q-6 3 -20.5 4t-29.5 3l10 40h278l-10 -40q-11 -1 -28 -2t-26 -5q-15 -5 -24 -17t-14 -32zM308 854h48l89 -115 l-6 -10h-42l-85 66l-108 -66h-35l-2 10z" />
<glyph unicode="&#xcf;" horiz-adv-x="377" d="M0 0zM203 96q-6 -21 -2.5 -32.5t15.5 -16.5q6 -3 20.5 -4t29.5 -3l-10 -40h-277l10 40q11 1 28 2t25 5q16 5 24.5 17t14.5 32l124 501q5 21 2 32.5t-16 16.5q-6 3 -20.5 4t-29.5 3l10 40h278l-10 -40q-11 -1 -28 -2t-26 -5q-15 -5 -24 -17t-14 -32zM341 791q0 28 21 48.5 t50 20.5q21 0 36 -13t15 -37q0 -32 -22.5 -50.5t-48.5 -18.5q-21 0 -36 13.5t-15 36.5zM164 790q0 28 20.5 49t50.5 21q20 0 35.5 -13t15.5 -37q0 -15 -6.5 -28t-16.5 -22t-23 -14t-26 -5q-20 0 -35 13t-15 36z" />
<glyph unicode="&#xd1;" horiz-adv-x="801" d="M0 0zM685 850q-13 -45 -41.5 -77t-78.5 -32q-23 0 -40 6.5t-31 15t-26 15t-23 6.5q-30 0 -52 -47h-36q14 45 43 76.5t75 31.5q19 0 34.5 -6.5t28.5 -14.5t25 -14.5t25 -6.5q20 0 35.5 12t24.5 35h37zM588 199l90 362q8 29 4 46.5t-17 27.5q-21 16 -59 21l9 37h257l-9 -37 q-17 -2 -32 -6t-29 -11q-20 -9 -35.5 -27.5t-23.5 -50.5l-140 -565h-67l-271 547l-102 -411q-8 -29 -4 -46.5t17 -27.5q21 -16 59 -21l-9 -37h-257l9 37q17 2 32 6t29 11q20 9 35.5 27.5t23.5 50.5l101 408q13 52 -1 81t-61 36l9 36h186z" />
<glyph unicode="&#xd5;" horiz-adv-x="786" d="M52 0zM684 850q-13 -45 -41.5 -77t-78.5 -32q-23 0 -40 6.5t-31 15t-26 15t-23 6.5q-30 0 -52 -47h-36q14 45 43 76.5t75 31.5q19 0 34.5 -6.5t28.5 -14.5t25 -14.5t25 -6.5q20 0 35.5 12t24.5 35h37zM764 450q0 -88 -35.5 -171.5t-97 -149t-144 -105t-176.5 -39.5 q-125 0 -192 67.5t-67 187.5q0 88 35 172.5t95.5 150.5t143 106t177.5 40q64 0 113 -18.5t82 -52.5t49.5 -82t16.5 -106zM322 36q53 0 97 21.5t79 57t60.5 82t43 97t26 101t8.5 94.5q0 78 -33.5 124.5t-112.5 46.5q-52 0 -95.5 -22t-78 -58.5t-60 -84t-42.5 -98.5 t-25.5 -102t-8.5 -94q0 -80 33 -122.5t109 -42.5z" />
<glyph unicode="&#xd3;" horiz-adv-x="786" d="M52 0zM700 835l-199 -102h-37l-1 10l123 103h113zM764 450q0 -88 -35.5 -171.5t-97 -149t-144 -105t-176.5 -39.5q-125 0 -192 67.5t-67 187.5q0 88 35 172.5t95.5 150.5t143 106t177.5 40q64 0 113 -18.5t82 -52.5t49.5 -82t16.5 -106zM322 36q53 0 97 21.5t79 57 t60.5 82t43 97t26 101t8.5 94.5q0 78 -33.5 124.5t-112.5 46.5q-52 0 -95.5 -22t-78 -58.5t-60 -84t-42.5 -98.5t-25.5 -102t-8.5 -94q0 -80 33 -122.5t109 -42.5z" />
<glyph unicode="&#xd4;" horiz-adv-x="786" d="M52 0zM764 450q0 -88 -35.5 -171.5t-97 -149t-144 -105t-176.5 -39.5q-125 0 -192 67.5t-67 187.5q0 88 35 172.5t95.5 150.5t143 106t177.5 40q64 0 113 -18.5t82 -52.5t49.5 -82t16.5 -106zM322 36q53 0 97 21.5t79 57t60.5 82t43 97t26 101t8.5 94.5q0 78 -33.5 124.5 t-112.5 46.5q-52 0 -95.5 -22t-78 -58.5t-60 -84t-42.5 -98.5t-25.5 -102t-8.5 -94q0 -80 33 -122.5t109 -42.5zM523 854h48l89 -115l-6 -10h-42l-85 66l-108 -66h-35l-2 10z" />
<glyph unicode="&#xda;" horiz-adv-x="762" d="M85 0zM706 835l-199 -102h-37l-1 10l123 103h113zM307 -14q-58 0 -103 14.5t-73.5 44.5t-37 76t7.5 109l92 367q9 41 -15 49q-8 3 -23 4.5t-26 2.5l10 40h277l-10 -40q-19 -2 -31 -2.5t-22 -4.5q-27 -9 -37 -43l-91 -364q-23 -95 4 -145t117 -50q46 0 82.5 14.5 t63.5 40.5t45.5 62t29.5 79l82 329q5 26 0.5 41.5t-15.5 24.5q-21 16 -59 21l9 37h258l-10 -37q-15 -2 -31 -6t-30 -11q-19 -9 -34 -26t-23 -46l-81 -325q-14 -57 -42 -104t-69 -81t-95 -52.5t-120 -18.5z" />
<glyph unicode="&#xdb;" horiz-adv-x="762" d="M85 0zM307 -14q-58 0 -103 14.5t-73.5 44.5t-37 76t7.5 109l92 367q9 41 -15 49q-8 3 -23 4.5t-26 2.5l10 40h277l-10 -40q-19 -2 -31 -2.5t-22 -4.5q-27 -9 -37 -43l-91 -364q-23 -95 4 -145t117 -50q46 0 82.5 14.5t63.5 40.5t45.5 62t29.5 79l82 329q5 26 0.5 41.5 t-15.5 24.5q-21 16 -59 21l9 37h258l-10 -37q-15 -2 -31 -6t-30 -11q-19 -9 -34 -26t-23 -46l-81 -325q-14 -57 -42 -104t-69 -81t-95 -52.5t-120 -18.5zM514 854h48l89 -115l-6 -10h-42l-85 66l-108 -66h-35l-2 10z" />
<glyph unicode="&#xd9;" horiz-adv-x="762" d="M85 0zM319 846h112l123 -103l-1 -10h-37l-199 102zM307 -14q-58 0 -103 14.5t-73.5 44.5t-37 76t7.5 109l92 367q9 41 -15 49q-8 3 -23 4.5t-26 2.5l10 40h277l-10 -40q-19 -2 -31 -2.5t-22 -4.5q-27 -9 -37 -43l-91 -364q-23 -95 4 -145t117 -50q46 0 82.5 14.5 t63.5 40.5t45.5 62t29.5 79l82 329q5 26 0.5 41.5t-15.5 24.5q-21 16 -59 21l9 37h258l-10 -37q-15 -2 -31 -6t-30 -11q-19 -9 -34 -26t-23 -46l-81 -325q-14 -57 -42 -104t-69 -81t-95 -52.5t-120 -18.5z" />
<glyph unicode="&#xdc;" horiz-adv-x="762" d="M85 0zM550 791q0 28 21 48.5t50 20.5q21 0 36 -13t15 -37q0 -32 -22.5 -50.5t-48.5 -18.5q-21 0 -36 13.5t-15 36.5zM373 790q0 28 20.5 49t50.5 21q20 0 35.5 -13t15.5 -37q0 -15 -6.5 -28t-16.5 -22t-23 -14t-26 -5q-20 0 -35 13t-15 36zM307 -14q-58 0 -103 14.5 t-73.5 44.5t-37 76t7.5 109l92 367q9 41 -15 49q-8 3 -23 4.5t-26 2.5l10 40h277l-10 -40q-19 -2 -31 -2.5t-22 -4.5q-27 -9 -37 -43l-91 -364q-23 -95 4 -145t117 -50q46 0 82.5 14.5t63.5 40.5t45.5 62t29.5 79l82 329q5 26 0.5 41.5t-15.5 24.5q-21 16 -59 21l9 37h258 l-10 -37q-15 -2 -31 -6t-30 -11q-19 -9 -34 -26t-23 -46l-81 -325q-14 -57 -42 -104t-69 -81t-95 -52.5t-120 -18.5z" />
<glyph unicode="&#x178;" horiz-adv-x="659" d="M98 0zM302 601q0 -13 4 -28l65 -228l187 234q19 25 19 40q0 19 -23.5 25t-51.5 8l10 41h242l-10 -36q-30 -3 -57 -19t-51 -42l-250 -302l-48 -198q-5 -21 -1.5 -32.5t15.5 -16.5q6 -3 20.5 -4t29.5 -3l-11 -40h-277l11 40q10 1 27 2t26 5q15 5 24 17t14 32l49 201 l-95 299q-10 26 -25.5 38.5t-46.5 17.5l10 41h301l-10 -41q-47 -3 -72 -12.5t-25 -38.5zM509 791q0 28 21 48.5t50 20.5q21 0 36 -13t15 -37q0 -32 -22.5 -50.5t-48.5 -18.5q-21 0 -36 13.5t-15 36.5zM332 790q0 28 20.5 49t50.5 21q20 0 35.5 -13t15.5 -37q0 -15 -6.5 -28 t-16.5 -22t-23 -14t-26 -5q-20 0 -35 13t-15 36z" />
<glyph unicode="&#xc6;" horiz-adv-x="955" d="M670 642l-65 -260h91q22 0 35.5 6t23.5 20q5 8 11.5 25.5t11.5 35.5h43l-56 -225h-42l5 31t1 28q-4 28 -46 28h-91l-70 -280h131q36 0 63.5 8.5t51 27t45 48.5t46.5 73l28 -4l-65 -204h-511l10 40l28.5 2.5t25.5 5.5q16 5 24 17.5t14 34.5l42 171h-218l-134 -173 q-14 -17 -9.5 -31.5t23.5 -19.5q7 -2 23 -3.5t33 -3.5l-11 -40h-231l11 40q10 1 22.5 4.5t21.5 6.5q17 5 27 16t25 29l426 550l-37.5 2t-37.5 3l10 42h569l-28 -170h-38q0 36 -6.5 59t-20 36.5t-36 18.5t-54.5 5h-115zM548 642h-8.5t-13.5 1l-249 -321h191z" />
<glyph unicode="&#x152;" horiz-adv-x="992" d="M1007 693l-29 -170h-39q0 36 -6.5 59t-21 36.5t-37 18.5t-54.5 5h-115l-65 -260h95q38 0 53 19q8 11 14.5 27t14.5 41h42l-56 -225h-42q2 10 5 27t3 25q-1 18 -11.5 26.5t-34.5 8.5h-96l-70 -280h131q36 0 63 7.5t50 25t44 46.5t46 72l33 -4l-62 -198h-436 q-26 -7 -53.5 -11t-56.5 -4q-60 0 -109 17t-83.5 50t-53 82t-18.5 112q0 93 38.5 177t103 147.5t147.5 101t173 37.5q58 0 102 -16h391zM495 660q-53 0 -96.5 -20.5t-78.5 -55.5t-61.5 -80.5t-44 -94.5t-26 -99t-8.5 -93q0 -44 8 -77.5t26.5 -56.5t48 -35t72.5 -12 q59 0 102 22l144 578q-35 24 -86 24z" />
<glyph unicode="&#xe1;" horiz-adv-x="562" d="M14 0zM410 97q-4 -14 -1 -20t9 -6q14 0 34.5 16.5t40.5 34.5l18 -29q-48 -57 -92 -82.5t-73 -25.5q-18 0 -28.5 8t-16 20.5t-5 28.5t5.5 33l36 122h-3q-27 -45 -54 -83.5t-54.5 -66t-55.5 -43t-56 -15.5q-43 0 -72 31.5t-29 106.5q0 64 25.5 130.5t70 120.5t104 88.5 t128.5 34.5q25 0 46.5 -5.5t41.5 -15.5l65 21h18zM164 80q18 0 40.5 17.5t47 46t50 65.5t49.5 77l30 123q-16 16 -35 26.5t-41 10.5q-28 0 -52 -14.5t-43.5 -39t-34 -56t-24.5 -65t-15 -66t-5 -59.5q0 -66 33 -66zM551 738l-186 -162h-37l-2 10l116 163h108z" />
<glyph unicode="&#xe0;" horiz-adv-x="562" d="M14 0zM410 97q-4 -14 -1 -20t9 -6q14 0 34.5 16.5t40.5 34.5l18 -29q-48 -57 -92 -82.5t-73 -25.5q-18 0 -28.5 8t-16 20.5t-5 28.5t5.5 33l36 122h-3q-27 -45 -54 -83.5t-54.5 -66t-55.5 -43t-56 -15.5q-43 0 -72 31.5t-29 106.5q0 64 25.5 130.5t70 120.5t104 88.5 t128.5 34.5q25 0 46.5 -5.5t41.5 -15.5l65 21h18zM164 80q18 0 40.5 17.5t47 46t50 65.5t49.5 77l30 123q-16 16 -35 26.5t-41 10.5q-28 0 -52 -14.5t-43.5 -39t-34 -56t-24.5 -65t-15 -66t-5 -59.5q0 -66 33 -66zM228 749h108l87 -163l-1 -10h-38l-157 162z" />
<glyph unicode="&#xe2;" horiz-adv-x="562" d="M14 0zM410 97q-4 -14 -1 -20t9 -6q14 0 34.5 16.5t40.5 34.5l18 -29q-48 -57 -92 -82.5t-73 -25.5q-18 0 -28.5 8t-16 20.5t-5 28.5t5.5 33l36 122h-3q-27 -45 -54 -83.5t-54.5 -66t-55.5 -43t-56 -15.5q-43 0 -72 31.5t-29 106.5q0 64 25.5 130.5t70 120.5t104 88.5 t128.5 34.5q25 0 46.5 -5.5t41.5 -15.5l65 21h18zM164 80q18 0 40.5 17.5t47 46t50 65.5t49.5 77l30 123q-16 16 -35 26.5t-41 10.5q-28 0 -52 -14.5t-43.5 -39t-34 -56t-24.5 -65t-15 -66t-5 -59.5q0 -66 33 -66zM374 749h49l74 -160l-6 -10h-42l-74 94l-108 -94h-36l-2 10 z" />
<glyph unicode="&#xe3;" horiz-adv-x="562" d="M14 0zM410 97q-4 -14 -1 -20t9 -6q14 0 34.5 16.5t40.5 34.5l18 -29q-48 -57 -92 -82.5t-73 -25.5q-18 0 -28.5 8t-16 20.5t-5 28.5t5.5 33l36 122h-3q-27 -45 -54 -83.5t-54.5 -66t-55.5 -43t-56 -15.5q-43 0 -72 31.5t-29 106.5q0 64 25.5 130.5t70 120.5t104 88.5 t128.5 34.5q25 0 46.5 -5.5t41.5 -15.5l65 21h18zM164 80q18 0 40.5 17.5t47 46t50 65.5t49.5 77l30 123q-16 16 -35 26.5t-41 10.5q-28 0 -52 -14.5t-43.5 -39t-34 -56t-24.5 -65t-15 -66t-5 -59.5q0 -66 33 -66zM542 725q-13 -49 -41.5 -80t-79.5 -31q-23 0 -40 6.5 t-31 14.5l-26 14.5t-23 6.5q-30 0 -52 -46h-36q13 46 42 78.5t75 32.5q19 0 35 -6.5t29.5 -14.5l25.5 -14.5t25 -6.5q20 0 35.5 11.5t24.5 34.5h37z" />
<glyph unicode="&#xe7;" horiz-adv-x="450" d="M19 0zM387 361q-14 0 -23.5 5t-15.5 12t-9 15.5t-6 15.5q-5 14 -14.5 28.5t-36.5 14.5q-37 0 -64.5 -27.5t-46 -69.5t-27.5 -91.5t-9 -93.5q0 -25 3 -45.5t11.5 -35.5t23.5 -23.5t40 -8.5q36 0 70 18.5t78 57.5l14 -31q-20 -23 -42 -44.5t-48.5 -38t-56.5 -26t-65 -9.5 q-41 0 -68.5 12.5t-44 34.5t-24 52t-7.5 64q0 60 21.5 123t61 114t95 83.5t122.5 32.5q59 0 92 -22.5t33 -56.5q0 -23 -13.5 -41.5t-43.5 -18.5zM271 -128q0 -26 -12.5 -44.5t-32.5 -30.5t-45.5 -17.5t-51.5 -5.5q-17 0 -38.5 4t-37.5 10l13 54q16 -6 35 -10.5t36 -4.5 q22 0 37 8t15 24q0 9 -6 14.5t-15.5 8.5t-21 4t-22.5 1l30 121h47l-16 -66q33 -3 59.5 -20.5t26.5 -49.5z" />
<glyph unicode="&#xe9;" horiz-adv-x="478" d="M19 0zM512 738l-186 -162h-37l-2 10l116 163h108zM391 101q-19 -23 -43.5 -44t-53 -37t-61 -25.5t-67.5 -9.5q-41 0 -69 12.5t-45 34.5t-25 51.5t-8 63.5q0 58 21.5 121t62 114.5t98 85t128.5 33.5q28 0 52 -5.5t42 -17t28 -29.5t10 -43q0 -30 -16.5 -59.5t-54.5 -54.5 t-100 -42.5t-152 -22.5q-3 -29 -3 -54t3.5 -46.5t13.5 -37t27 -24.5t43 -9q36 0 73 17.5t82 58.5zM288 453q-29 0 -52.5 -16t-41.5 -42.5t-30.5 -60t-19.5 -69.5q58 8 96 22.5t60.5 32.5t32 37.5t9.5 37.5q0 30 -14 44t-40 14z" />
<glyph unicode="&#xe8;" horiz-adv-x="478" d="M19 0zM391 101q-19 -23 -43.5 -44t-53 -37t-61 -25.5t-67.5 -9.5q-41 0 -69 12.5t-45 34.5t-25 51.5t-8 63.5q0 58 21.5 121t62 114.5t98 85t128.5 33.5q28 0 52 -5.5t42 -17t28 -29.5t10 -43q0 -30 -16.5 -59.5t-54.5 -54.5t-100 -42.5t-152 -22.5q-3 -29 -3 -54 t3.5 -46.5t13.5 -37t27 -24.5t43 -9q36 0 73 17.5t82 58.5zM288 453q-29 0 -52.5 -16t-41.5 -42.5t-30.5 -60t-19.5 -69.5q58 8 96 22.5t60.5 32.5t32 37.5t9.5 37.5q0 30 -14 44t-40 14zM184 749h108l87 -163l-1 -10h-38l-157 162z" />
<glyph unicode="&#xea;" horiz-adv-x="478" d="M19 0zM355 749h49l74 -160l-6 -10h-42l-74 94l-108 -94h-36l-2 10zM391 101q-19 -23 -43.5 -44t-53 -37t-61 -25.5t-67.5 -9.5q-41 0 -69 12.5t-45 34.5t-25 51.5t-8 63.5q0 58 21.5 121t62 114.5t98 85t128.5 33.5q28 0 52 -5.5t42 -17t28 -29.5t10 -43 q0 -30 -16.5 -59.5t-54.5 -54.5t-100 -42.5t-152 -22.5q-3 -29 -3 -54t3.5 -46.5t13.5 -37t27 -24.5t43 -9q36 0 73 17.5t82 58.5zM288 453q-29 0 -52.5 -16t-41.5 -42.5t-30.5 -60t-19.5 -69.5q58 8 96 22.5t60.5 32.5t32 37.5t9.5 37.5q0 30 -14 44t-40 14z" />
<glyph unicode="&#xeb;" horiz-adv-x="478" d="M19 0zM397 670q0 28 21 50t52 22q22 0 37.5 -13.5t15.5 -39.5q0 -32 -23 -51t-50 -19q-22 0 -37.5 13.5t-15.5 37.5zM214 669q0 29 21 51t52 22q22 0 37 -13.5t15 -39.5q0 -32 -23 -51t-50 -19q-23 0 -37.5 13.5t-14.5 36.5zM391 101q-19 -23 -43.5 -44t-53 -37 t-61 -25.5t-67.5 -9.5q-41 0 -69 12.5t-45 34.5t-25 51.5t-8 63.5q0 58 21.5 121t62 114.5t98 85t128.5 33.5q28 0 52 -5.5t42 -17t28 -29.5t10 -43q0 -30 -16.5 -59.5t-54.5 -54.5t-100 -42.5t-152 -22.5q-3 -29 -3 -54t3.5 -46.5t13.5 -37t27 -24.5t43 -9q36 0 73 17.5 t82 58.5zM288 453q-29 0 -52.5 -16t-41.5 -42.5t-30.5 -60t-19.5 -69.5q58 8 96 22.5t60.5 32.5t32 37.5t9.5 37.5q0 30 -14 44t-40 14z" />
<glyph unicode="&#xed;" horiz-adv-x="310" d="M40 0zM372 738l-186 -162h-37l-2 10l116 163h108zM160 91q-3 -20 9 -20q11 0 28.5 12t46.5 39l14 -29q-48 -57 -89.5 -83t-71.5 -25q-33 1 -45 27t-1 68l78 315q8 35 -12 35q-11 0 -31 -8t-41 -19l-2 35q47 30 87 46.5t69 16.5q35 0 43.5 -21t0.5 -51l-83 -338v0z" />
<glyph unicode="&#xee;" horiz-adv-x="310" d="M40 0zM200 749h49l74 -160l-6 -10h-42l-74 94l-108 -94h-36l-2 10zM160 91q-3 -20 9 -20q11 0 28.5 12t46.5 39l14 -29q-48 -57 -89.5 -83t-71.5 -25q-33 1 -45 27t-1 68l78 315q8 35 -12 35q-11 0 -31 -8t-41 -19l-2 35q47 30 87 46.5t69 16.5q35 0 43.5 -21t0.5 -51 l-83 -338v0z" />
<glyph unicode="&#xef;" horiz-adv-x="310" d="M40 0zM260 670q0 28 21 50t52 22q22 0 37.5 -13.5t15.5 -39.5q0 -32 -23 -51t-50 -19q-22 0 -37.5 13.5t-15.5 37.5zM77 669q0 29 21 51t52 22q22 0 37 -13.5t15 -39.5q0 -32 -23 -51t-50 -19q-23 0 -37.5 13.5t-14.5 36.5zM160 91q-3 -20 9 -20q11 0 28.5 12t46.5 39 l14 -29q-48 -57 -89.5 -83t-71.5 -25q-33 1 -45 27t-1 68l78 315q8 35 -12 35q-11 0 -31 -8t-41 -19l-2 35q47 30 87 46.5t69 16.5q35 0 43.5 -21t0.5 -51l-83 -338v0z" />
<glyph unicode="&#x131;" horiz-adv-x="310" d="M160 91q-3 -20 9 -20q11 0 28.5 12t46.5 39l14 -29q-48 -57 -89.5 -83t-71.5 -25q-33 1 -45 27t-1 68l78 315q8 35 -12 35q-11 0 -31 -8t-41 -19l-2 35q47 30 87 46.5t69 16.5q35 0 43.5 -21t0.5 -51l-83 -338v0z" />
<glyph unicode="&#xf1;" horiz-adv-x="589" d="M32 0zM130 395q8 35 -12 35q-11 0 -30.5 -7.5t-41.5 -19.5l-2 35q98 63 154 63q35 0 43.5 -20.5t0.5 -51.5l-44 -162h4q34 63 65 107.5t59.5 72.5t56 41t55.5 13q49 0 67 -38.5t-4 -130.5l-56 -222q-9 -39 5 -39q20 0 75 51l13 -29q-48 -57 -89 -83t-72 -25 q-36 1 -45.5 29t-0.5 63l57 221q12 47 13 71.5t-26 24.5q-29 0 -81.5 -57.5t-116.5 -177.5l-38 -159h-107l98 395v0zM529 725q-13 -49 -41.5 -80t-79.5 -31q-23 0 -40 6.5t-31 14.5l-26 14.5t-23 6.5q-30 0 -52 -46h-36q13 46 42 78.5t75 32.5q19 0 35 -6.5t29.5 -14.5 l25.5 -14.5t25 -6.5q20 0 35.5 11.5t24.5 34.5h37z" />
<glyph unicode="&#xf3;" horiz-adv-x="530" d="M21 0zM516 738l-186 -162h-37l-2 10l116 163h108zM489 329q0 -60 -23.5 -121.5t-65 -111t-97.5 -81t-121 -31.5q-81 0 -121 48t-40 129q0 63 23.5 124t64.5 109t96.5 77.5t119.5 29.5q78 0 121 -45.5t43 -126.5zM205 37q33 0 63 30t52.5 75.5t36 100.5t13.5 105 q0 47 -14.5 75t-52.5 28t-68 -30.5t-50.5 -76.5t-31.5 -99t-11 -99q0 -23 3 -42.5t10 -34.5t19.5 -23.5t30.5 -8.5z" />
<glyph unicode="&#xf4;" horiz-adv-x="530" d="M21 0zM347 749h49l74 -160l-6 -10h-42l-74 94l-108 -94h-36l-2 10zM489 329q0 -60 -23.5 -121.5t-65 -111t-97.5 -81t-121 -31.5q-81 0 -121 48t-40 129q0 63 23.5 124t64.5 109t96.5 77.5t119.5 29.5q78 0 121 -45.5t43 -126.5zM205 37q33 0 63 30t52.5 75.5t36 100.5 t13.5 105q0 47 -14.5 75t-52.5 28t-68 -30.5t-50.5 -76.5t-31.5 -99t-11 -99q0 -23 3 -42.5t10 -34.5t19.5 -23.5t30.5 -8.5z" />
<glyph unicode="&#xf5;" horiz-adv-x="530" d="M21 0zM489 329q0 -60 -23.5 -121.5t-65 -111t-97.5 -81t-121 -31.5q-81 0 -121 48t-40 129q0 63 23.5 124t64.5 109t96.5 77.5t119.5 29.5q78 0 121 -45.5t43 -126.5zM205 37q33 0 63 30t52.5 75.5t36 100.5t13.5 105q0 47 -14.5 75t-52.5 28t-68 -30.5t-50.5 -76.5 t-31.5 -99t-11 -99q0 -23 3 -42.5t10 -34.5t19.5 -23.5t30.5 -8.5zM502 725q-13 -49 -41.5 -80t-79.5 -31q-23 0 -40 6.5t-31 14.5l-26 14.5t-23 6.5q-30 0 -52 -46h-36q13 46 42 78.5t75 32.5q19 0 35 -6.5t29.5 -14.5l25.5 -14.5t25 -6.5q20 0 35.5 11.5t24.5 34.5h37z " />
<glyph unicode="&#xfa;" d="M42 0zM536 738l-186 -162h-37l-2 10l116 163h108zM436 102q-6 -20 -1.5 -25.5t9.5 -5.5q12 0 31.5 15.5t41.5 35.5l14 -29q-45 -54 -86.5 -81t-71.5 -27q-18 0 -29 7.5t-16 20t-5 27.5t4 30l35 142h-3q-34 -62 -64 -105t-58.5 -70t-55 -39.5t-52.5 -12.5q-24 0 -41 9 t-25.5 29.5t-8 52.5t11.5 78l62 242q5 19 0 27t-14 8t-26 -6t-45 -21l-1 35q38 28 80.5 45t73.5 17q36 -1 44.5 -22.5t-0.5 -56.5l-60 -234q-12 -47 -13.5 -72.5t25.5 -25.5q28 0 79 56.5t114 176.5l40 163h107l-96 -384v0z" />
<glyph unicode="&#xf9;" d="M42 0zM436 102q-6 -20 -1.5 -25.5t9.5 -5.5q12 0 31.5 15.5t41.5 35.5l14 -29q-45 -54 -86.5 -81t-71.5 -27q-18 0 -29 7.5t-16 20t-5 27.5t4 30l35 142h-3q-34 -62 -64 -105t-58.5 -70t-55 -39.5t-52.5 -12.5q-24 0 -41 9t-25.5 29.5t-8 52.5t11.5 78l62 242q5 19 0 27 t-14 8t-26 -6t-45 -21l-1 35q38 28 80.5 45t73.5 17q36 -1 44.5 -22.5t-0.5 -56.5l-60 -234q-12 -47 -13.5 -72.5t25.5 -25.5q28 0 79 56.5t114 176.5l40 163h107l-96 -384v0zM192 749h108l87 -163l-1 -10h-38l-157 162z" />
<glyph unicode="&#xfb;" d="M42 0zM355 749h49l74 -160l-6 -10h-42l-74 94l-108 -94h-36l-2 10zM436 102q-6 -20 -1.5 -25.5t9.5 -5.5q12 0 31.5 15.5t41.5 35.5l14 -29q-45 -54 -86.5 -81t-71.5 -27q-18 0 -29 7.5t-16 20t-5 27.5t4 30l35 142h-3q-34 -62 -64 -105t-58.5 -70t-55 -39.5t-52.5 -12.5 q-24 0 -41 9t-25.5 29.5t-8 52.5t11.5 78l62 242q5 19 0 27t-14 8t-26 -6t-45 -21l-1 35q38 28 80.5 45t73.5 17q36 -1 44.5 -22.5t-0.5 -56.5l-60 -234q-12 -47 -13.5 -72.5t25.5 -25.5q28 0 79 56.5t114 176.5l40 163h107l-96 -384v0z" />
<glyph unicode="&#xfc;" d="M42 0zM404 670q0 28 21 50t52 22q22 0 37.5 -13.5t15.5 -39.5q0 -32 -23 -51t-50 -19q-22 0 -37.5 13.5t-15.5 37.5zM221 669q0 29 21 51t52 22q22 0 37 -13.5t15 -39.5q0 -32 -23 -51t-50 -19q-23 0 -37.5 13.5t-14.5 36.5zM436 102q-6 -20 -1.5 -25.5t9.5 -5.5 q12 0 31.5 15.5t41.5 35.5l14 -29q-45 -54 -86.5 -81t-71.5 -27q-18 0 -29 7.5t-16 20t-5 27.5t4 30l35 142h-3q-34 -62 -64 -105t-58.5 -70t-55 -39.5t-52.5 -12.5q-24 0 -41 9t-25.5 29.5t-8 52.5t11.5 78l62 242q5 19 0 27t-14 8t-26 -6t-45 -21l-1 35q38 28 80.5 45 t73.5 17q36 -1 44.5 -22.5t-0.5 -56.5l-60 -234q-12 -47 -13.5 -72.5t25.5 -25.5q28 0 79 56.5t114 176.5l40 163h107l-96 -384v0z" />
<glyph unicode="&#xff;" horiz-adv-x="551" d="M0 0zM316 26q35 57 55 126t31 149q-51 -70 -114.5 -146t-133.5 -146h-37l5 400q-3 21 -18 21q-11 0 -32.5 -7.5t-39.5 -16.5l-1 33q25 17 51 31q22 11 47.5 21t48.5 10q32 0 45.5 -18t11.5 -59l-12 -277l50 56l50.5 60.5l47 59.5t39.5 53q4 52 6 110h113l6 -10 l-17.5 -79.5t-31.5 -115t-49 -134t-70 -136.5q-24 -39 -56.5 -80.5t-72 -75.5t-84.5 -55.5t-95 -21.5q-34 0 -52.5 14t-18.5 40t17.5 42.5t49.5 16.5q27 0 58.5 -1.5t64.5 9t68 39t70 88.5zM388 670q0 28 21 50t52 22q22 0 37.5 -13.5t15.5 -39.5q0 -32 -23 -51t-50 -19 q-22 0 -37.5 13.5t-15.5 37.5zM205 669q0 29 21 51t52 22q22 0 37 -13.5t15 -39.5q0 -32 -23 -51t-50 -19q-23 0 -37.5 13.5t-14.5 36.5z" />
<glyph horiz-adv-x="310" d="M40 0zM160 91q-3 -20 9 -20q11 0 28.5 12t46.5 39l14 -29q-48 -57 -89.5 -83t-71.5 -25q-33 1 -45 27t-1 68l78 315q8 35 -12 35q-11 0 -31 -8t-41 -19l-2 35q47 30 87 46.5t69 16.5q35 0 43.5 -21t0.5 -51zM181 688q0 27 19.5 47t46.5 20t47 -20t20 -47t-20 -46.5 t-47 -19.5t-46.5 19.5t-19.5 46.5z" />
<glyph unicode="&#xe6;" horiz-adv-x="740" d="M653 101q-19 -23 -43.5 -44t-53 -37t-61 -25.5t-67.5 -9.5q-70 0 -103.5 35.5t-41.5 89.5q-38 -54 -86.5 -87.5t-102.5 -33.5q-43 0 -71.5 26.5t-28.5 69.5q0 40 18.5 69.5t54 49.5t86 32t114.5 19q4 0 13 1.5t19 3.5l8 30q3 11 6 26.5t3 25.5q2 31 -12 50.5t-61 19.5 q-31 0 -76.5 -7t-85.5 -16l9 52q56 26 116 41.5t112 15.5q49 0 69.5 -17.5t24.5 -49.5q36 32 81 51t98 19q28 0 52 -5.5t42 -17t28 -29.5t10 -43q0 -30 -16.5 -59t-54.5 -53.5t-99.5 -41.5t-151.5 -21q-2 -15 -3 -29.5t-1 -28.5q0 -25 3.5 -46.5t13.5 -37t27 -24.5t43 -9 q36 0 73 17.5t82 58.5zM551 453q-29 0 -52 -15.5t-41 -41t-30.5 -58.5t-19.5 -67q57 7 94.5 20.5t60 30.5t32 36t9.5 37q0 58 -53 58zM159 77q29 0 61 19t61 54q0 36 9 72h-6q-172 -20 -172 -96q0 -23 13.5 -36t33.5 -13z" />
<glyph unicode="&#x153;" horiz-adv-x="802" d="M715 101q-19 -23 -43.5 -44t-53 -37t-61 -25.5t-67.5 -9.5q-54 0 -86 22t-47 57q-35 -36 -78.5 -58t-96.5 -22q-81 0 -121 48t-40 129q0 63 23.5 124t64.5 109t96.5 77.5t119.5 29.5q54 0 84.5 -22.5t44.5 -64.5q39 39 89 63t110 24q28 0 52 -5.5t42 -17t28 -29.5t10 -43 q0 -30 -16.5 -59.5t-54.5 -54.5t-100 -42.5t-152 -22.5q-3 -29 -3 -54t3.5 -46.5t13.5 -37t27 -24.5t43 -9q36 0 73 17.5t82 58.5zM205 37q33 0 63 30t52.5 75.5t36 100.5t13.5 105q0 47 -14.5 75t-52.5 28t-68 -30.5t-50.5 -76.5t-31.5 -99t-11 -99q0 -23 3 -42.5t10 -34.5 t19.5 -23.5t30.5 -8.5zM612 453q-29 0 -52.5 -16t-41.5 -42.5t-30.5 -60t-19.5 -69.5q58 8 96 22.5t60.5 32.5t32 37.5t9.5 37.5q0 30 -14 44t-40 14z" />
<glyph unicode="," horiz-adv-x="284" d="M-37 -173l-18 32q44 26 78 58.5t49 81.5q-27 0 -45.5 13.5t-18.5 40.5q0 18 7 34.5t19.5 29t28.5 20t34 7.5q33 0 53.5 -19.5t20.5 -51.5q0 -40 -20.5 -77.5t-51.5 -69.5t-67.5 -57.5t-68.5 -41.5z" />
<glyph unicode="." horiz-adv-x="285" d="M76 -9q-11 0 -23 2.5t-22 9t-16.5 17.5t-6.5 28q0 22 8 38.5t21.5 28t31 17.5t35.5 6q11 0 23.5 -2.5t22.5 -9t16.5 -17.5t6.5 -27q0 -36 -26 -63.5t-71 -27.5z" />
<glyph unicode=":" horiz-adv-x="307" d="M16 0zM84 -9q-11 0 -23 2.5t-22 9t-16.5 17.5t-6.5 28q0 22 8 38.5t21.5 28t31 17.5t35.5 6q11 0 23.5 -2.5t22.5 -9t16.5 -17.5t6.5 -27q0 -36 -26 -63.5t-71 -27.5zM174 352q-11 0 -23 2.5t-22 9t-16.5 17.5t-6.5 28q0 22 8 38.5t21.5 28t31 17.5t35.5 6 q11 0 23.5 -2.5t22.5 -9t16.5 -17.5t6.5 -27q0 -36 -26 -63.5t-71 -27.5z" />
<glyph unicode=";" horiz-adv-x="321" d="M0 0zM-19 -173l-18 32q44 26 78 58.5t49 81.5q-27 0 -45.5 13.5t-18.5 40.5q0 18 7 34.5t19.5 29t28.5 20t34 7.5q33 0 53.5 -19.5t20.5 -51.5q0 -40 -20.5 -77.5t-51.5 -69.5t-67.5 -57.5t-68.5 -41.5zM178 352q-11 0 -23 2.5t-22 9t-16.5 17.5t-6.5 28q0 22 8 38.5 t21.5 28t31 17.5t35.5 6q11 0 23.5 -2.5t22.5 -9t16.5 -17.5t6.5 -27q0 -36 -26 -63.5t-71 -27.5z" />
<glyph unicode="?" horiz-adv-x="464" d="M187 237q-4 17 -5.5 28t-1.5 24q0 30 14 53.5t35.5 43t46 36.5t46 35t35.5 38t14 46q0 29 -21.5 53t-68.5 24q-18 0 -39.5 -4.5t-42.5 -13t-40 -20.5t-34 -26l-17 21q61 70 118.5 99t119.5 29q33 0 59.5 -10t45 -26.5t28 -39t9.5 -47.5q0 -38 -17 -67t-42.5 -53 t-56.5 -44.5t-59 -42t-50 -45t-29 -52.5q-3 -13 -2 -24t1 -15h-46zM261 70q0 -20 -7.5 -35t-19.5 -25t-28 -14.5t-33 -4.5q-14 0 -28 3t-25 11t-18 21t-7 33q0 21 8 36t20.5 24.5t28.5 14t32 4.5q13 0 27 -3.5t25 -11t18 -21t7 -32.5z" />
<glyph unicode="&#xbf;" horiz-adv-x="451" d="M0 0zM250.012 253.015q3.99902 -16.999 5.49902 -27.998q1.5 -11 1.5 -23.999q0 -29.998 -13.999 -53.4971q-13.999 -23.498 -35.498 -42.9971q-21.498 -19.499 -45.9971 -36.498q-24.498 -16.999 -45.9971 -34.9971q-21.499 -17.999 -35.498 -37.998t-13.999 -45.9971 q0 -28.998 21.499 -52.9971q21.498 -23.998 68.4961 -23.998q17.998 0 39.4971 4.49902q21.499 4.5 42.4971 13q20.999 8.49902 39.998 20.498q18.999 12 33.998 25.999l16.999 -20.999q-60.9961 -69.9961 -118.493 -98.9941q-57.4961 -28.998 -119.492 -28.998 q-32.998 0 -59.4971 9.99902q-26.498 10 -44.9971 26.499t-27.998 38.9971q-9.5 22.499 -9.5 47.4971q0 37.998 16.999 66.9961t42.498 52.9971q25.498 23.998 56.4961 44.4971t58.9971 41.9971q27.998 21.499 49.9961 44.998q21.999 23.498 28.999 52.4961 q2.99902 12.999 1.99902 23.999q-0.999023 10.999 -0.999023 14.999h45.9971zM176.016 420.004q0 19.999 7.5 34.998q7.49902 14.999 19.499 24.999q11.999 9.99902 27.998 14.499q15.999 4.49902 32.998 4.49902q13.999 0 27.998 -2.99902q13.999 -3 24.999 -11 q10.999 -7.99902 17.998 -20.998q7 -13 7 -32.998q0 -20.999 -8 -35.998q-7.99902 -14.999 -20.498 -24.499q-12.5 -9.49902 -28.498 -13.999q-16 -4.49902 -31.998 -4.49902q-13 0 -26.999 3.49902q-13.999 3.5 -24.998 11q-11 7.49902 -17.999 20.998q-7 13.5 -7 32.498z " />
<glyph unicode="!" horiz-adv-x="320" d="M322 693l-26 -104l-120 -353h-61l55 353l26 104h126zM194 70q0 -20 -7.5 -35t-19.5 -25t-28 -14.5t-33 -4.5q-14 0 -28 3t-25 11t-18 21t-7 33q0 21 8 36t20.5 24.5t28.5 14t32 4.5q13 0 27 -3.5t25 -11t18 -21t7 -32.5z" />
<glyph unicode="&#xa1;" horiz-adv-x="299" d="M0 0zM-31.9805 -202.958l25.998 103.994l119.993 352.979h60.9961l-54.9961 -352.979l-25.999 -103.994h-125.992zM96.0117 420.004q0 19.999 7.5 34.998q7.49902 14.999 19.498 24.999q12 9.99902 27.999 14.499q15.999 4.49902 32.998 4.49902 q13.999 0 27.998 -2.99902q13.999 -3 24.998 -11q11 -7.99902 17.999 -20.998q7 -13 7 -32.998q0 -20.999 -8 -35.998q-7.99902 -14.999 -20.498 -24.499q-12.5 -9.49902 -28.499 -13.999q-15.999 -4.49902 -31.998 -4.49902q-12.999 0 -26.998 3.49902 q-13.999 3.5 -24.998 11q-11 7.49902 -17.999 20.998q-7 13.5 -7 32.498z" />
<glyph unicode="-" horiz-adv-x="418" d="M331 221h-277l21 82h277z" />
<glyph unicode="&#x2013;" horiz-adv-x="656" d="M564 238h-498l15 61h498z" />
<glyph unicode="&#x2014;" horiz-adv-x="860" d="M768 238h-702l15 61h702z" />
<glyph unicode="_" horiz-adv-x="638" d="M442 -217h-498l16 61h498z" />
<glyph unicode="@" horiz-adv-x="873" d="M567 71q-42 0 -61.5 14.5t-22.5 35.5q-35 -26 -65 -37t-58 -11q-54 0 -84.5 33.5t-30.5 94.5q0 52 20 102.5t55 90t84 63.5t107 24q47 0 82 -19l44 11h12l-76 -306q-7 -26 2 -35t27 -9q47 0 84.5 30t63 76.5t39 103t13.5 109.5q0 50 -16.5 89.5t-46.5 67t-72 42t-94 14.5 q-65 0 -126.5 -20t-115.5 -55t-99 -83t-77 -105t-50 -120t-18 -128q0 -55 17 -101t51 -79.5t85.5 -52t120.5 -18.5q22 0 55 2.5t70.5 8.5t76.5 17.5t74 29.5l-12 -48q-28 -15 -64.5 -26.5t-76 -19t-78.5 -11t-71 -3.5q-78 0 -136 22t-96.5 61.5t-57.5 93t-19 116.5 q0 70 20.5 139.5t58 133t89.5 118t115 94.5t134.5 63t148.5 23q62 0 112 -17.5t85 -50t53.5 -79t18.5 -103.5q0 -70 -20 -139t-57.5 -124t-92 -89t-124.5 -34zM411 137q20 0 35.5 4.5t40.5 15.5l63 251q-14 9 -32 16t-45 7q-24 0 -49.5 -11.5t-46.5 -38t-35 -69t-14 -105.5 q0 -34 18 -52t65 -18z" />
<glyph unicode="&#x26;" horiz-adv-x="773" d="M686 15q-20 -12 -55 -20t-68 -8q-25 0 -42 5t-30.5 14.5t-25 23.5t-24.5 32q-43 -32 -99 -54.5t-126 -22.5q-82 0 -132 39t-50 112q0 74 51 127.5t134 86.5q-25 36 -36 65t-11 59q0 46 21 88.5t57 75t83.5 52t100.5 19.5q28 0 56 -6.5t50 -20.5t35.5 -37.5t13.5 -56.5 q0 -40 -20 -72.5t-51.5 -58t-72 -45t-80.5 -32.5l147 -196q0 1 2 3q14 20 36 48.5t48 54t55.5 43.5t59.5 18q23 0 37 -11.5t9 -35.5q-5 -27 -25 -40.5t-47 -15.5q-22 -1 -40.5 -8.5t-35 -19t-30.5 -25.5l-27 -27q-4 -5 -8 -9.5t-9 -9.5l17 -21q24 -33 48 -55t56 -22 q14 0 34 3zM292 58q37 0 68 9.5t57 25.5l-172 222l-6 7q-32 -31 -52 -71.5t-20 -83.5q0 -47 28.5 -78t96.5 -31zM295 526q0 -24 9 -47.5t29 -54.5l14 -19q25 15 49 34t43 41t30 48t11 56q0 32 -15 51t-48 19q-24 0 -46 -10t-39 -27.5t-27 -40.5t-10 -50z" />
<glyph unicode="/" horiz-adv-x="437" d="M514 744l-535 -961h-64l531 961h68z" />
<glyph unicode="\" horiz-adv-x="412" d="M213 744l42 -961h-67l-44 961h69z" />
<glyph unicode="|" horiz-adv-x="263" d="M282 744l-240 -961h-72l240 961h72z" />
<glyph unicode="(" horiz-adv-x="356" d="M19 80q0 102 26 205.5t78 195t131 165t184 114.5l9 -38q-51 -17 -95 -55.5t-81 -92t-66 -117.5t-49 -131.5t-30.5 -134.5t-10.5 -126q0 -79 25.5 -135t85.5 -92l-27 -38q-49 17 -83 44t-55.5 62.5t-31.5 79.5t-10 94z" />
<glyph unicode=")" horiz-adv-x="357" d="M332 467q0 -66 -11.5 -135.5t-34.5 -136t-57.5 -128.5t-80.5 -114t-104.5 -91.5t-128.5 -61.5l-9 38q50 16 94.5 55t81 92.5t65.5 118t49 132t30.5 134.5t10.5 126q0 79 -25.5 134.5t-84.5 91.5l27 38q50 -23 84 -53t55 -67.5t30 -81t9 -91.5z" />
<glyph unicode="[" horiz-adv-x="344" d="M194 -194h-218l238 953h218l-14 -55h-130l-210 -843h130z" />
<glyph unicode="]" horiz-adv-x="345" d="M-76 -139h131l210 843h-131l14 55h219l-238 -953h-219z" />
<glyph unicode="{" horiz-adv-x="363" d="M213 -194q-48 0 -84.5 7t-58.5 25.5t-28 52t7 86.5l37 149q9 37 7.5 60.5t-11 37t-26.5 19.5t-38 8l16 63q25 3 45 9.5t36 20.5t28 37t21 58l37 150q13 54 37.5 87t57.5 51.5t72 25t83 6.5l-14 -55q-31 0 -54.5 -4.5t-41 -15.5t-29.5 -30.5t-19 -50.5l-31 -124 q-11 -43 -23.5 -76t-30 -56.5t-41 -39t-55.5 -22.5l-2 -5q34 -10 50.5 -26t20.5 -39.5t-1.5 -55.5t-15.5 -73l-31 -124q-8 -32 -4 -51.5t16.5 -30.5t33.5 -15t48 -4z" />
<glyph unicode="}" horiz-adv-x="363" d="M-76 -139q27 0 49.5 4t41 15t32 30.5t21.5 51.5l31 124q10 41 20.5 73t26.5 55.5t40.5 39.5t63.5 26l2 5q-58 15 -67.5 61t12.5 133l31 124q7 31 5 50.5t-13.5 30.5t-33 15.5t-52.5 4.5l14 55q43 0 79.5 -6.5t59.5 -25t30.5 -51.5t-5.5 -87l-37 -150q-9 -35 -8 -58 t10.5 -37t26.5 -20.5t40 -9.5l-16 -63q-22 -2 -42 -8t-36.5 -19.5t-30 -37t-22.5 -60.5l-37 -149q-13 -53 -36 -86.5t-54.5 -52t-71 -25.5t-87.5 -7z" />
<glyph unicode="&#xa7;" horiz-adv-x="549" d="M46 235q0 63 40.5 117.5t106.5 86.5q-20 17 -33 40.5t-13 55.5q0 46 23 87t61.5 71.5t87.5 48t101 17.5q31 0 60 -6.5t51 -17.5t35 -27t11 -35q-2 -23 -19 -39.5t-42 -16.5q-23 0 -34.5 14.5t-22 31.5t-26 31.5t-46.5 14.5q-22 0 -44 -8t-39.5 -22.5t-29 -34.5t-12.5 -44 q-2 -27 11.5 -45t44.5 -32l84 -39q50 -21 78 -53t28 -80q0 -61 -40.5 -111.5t-106.5 -81.5q25 -17 41 -41.5t16 -60.5q0 -48 -24.5 -89t-65 -71t-91.5 -47t-103 -17q-30 0 -60 5.5t-53.5 16t-37.5 26t-12 35.5q2 28 20 45.5t49 17.5q25 0 35 -15t18.5 -33t22.5 -33t47 -15 q22 0 45 7.5t42.5 20.5t32.5 31.5t14 41.5q2 29 -16.5 49.5t-53.5 36.5l-72 33q-53 24 -81 54.5t-28 78.5zM311 184l1 -1q35 17 54.5 45t21.5 55q3 55 -69 89l-71 34l-12 5q-30 -17 -50 -44.5t-22 -60.5q-2 -29 12.5 -48.5t49.5 -34.5z" />
<glyph unicode="&#x2022;" horiz-adv-x="421" d="M340 302q0 -30 -13 -59.5t-35.5 -53t-52 -38t-62.5 -14.5q-46 0 -76 27.5t-30 72.5q0 32 14 61t37 51.5t52.5 35.5t60.5 13q46 0 75.5 -27t29.5 -69z" />
<glyph unicode="#" horiz-adv-x="663" d="M159 481h128l107 212h58l-107 -212h141l107 212h58l-107 -212h128l-29 -60h-129l-81 -160h128l-30 -60h-128l-101 -201h-59l101 201h-139l-101 -201h-60l101 201h-127l30 60h128l80 160h-127zM235 261h140l80 160h-140z" />
<glyph unicode="%" horiz-adv-x="792" d="M765 693l-658 -693h-67l656 693h69zM433 588q0 -39 -17 -77t-46 -67t-68.5 -47t-85.5 -18q-49 0 -83.5 27t-34.5 89q0 46 18 84.5t48 66t68 42.5t78 15q54 0 88.5 -28.5t34.5 -86.5zM229 420q31 0 52.5 19.5t35.5 48t20.5 60t6.5 54.5q0 32 -12 46.5t-35 14.5 q-32 0 -53 -20t-34.5 -48.5t-19 -59t-5.5 -52.5q0 -11 1.5 -22t6.5 -20t13.5 -15t22.5 -6zM726 196q0 -39 -16.5 -76.5t-45.5 -67t-68.5 -47.5t-85.5 -18q-49 0 -83.5 27.5t-34.5 89.5q0 46 18 84t48 65.5t68 42.5t78 15q54 0 88 -28.5t34 -86.5zM523 28q31 0 52.5 19.5 t35.5 48t20.5 60t6.5 54.5q0 32 -12 46.5t-35 14.5q-32 0 -53 -19.5t-34.5 -47.5t-19 -59t-5.5 -53q0 -12 2 -23.5t6.5 -20.5t13 -14.5t22.5 -5.5z" />
<glyph unicode="&#x2030;" horiz-adv-x="1148" d="M766 693l-658 -693h-67l656 693h69zM434 588q0 -39 -16.5 -77t-46 -67t-69 -47t-84.5 -18q-50 0 -84 27t-34 89q0 46 18 84.5t47.5 66t67.5 42.5t78 15q54 0 88.5 -28.5t34.5 -86.5zM230 420q31 0 53 19.5t36 48t20.5 60t6.5 54.5q0 32 -12.5 46.5t-35.5 14.5 q-32 0 -53 -20t-34 -48.5t-18.5 -59t-5.5 -52.5q0 -11 1.5 -22t6 -20t13 -15t22.5 -6zM728 196q0 -39 -16.5 -76.5t-46 -67t-69 -47.5t-84.5 -18q-50 0 -84 27.5t-34 89.5q0 46 18 84t47.5 65.5t67.5 42.5t78 15q54 0 88.5 -28.5t34.5 -86.5zM524 28q31 0 53 19.5t36 48 t20.5 60t6.5 54.5q0 32 -12 46.5t-36 14.5q-31 0 -52.5 -19.5t-34.5 -47.5t-19 -59t-6 -53q0 -12 2 -23.5t6.5 -20.5t13 -14.5t22.5 -5.5zM1083 196q0 -39 -16.5 -76.5t-45.5 -67t-68.5 -47.5t-85.5 -18q-49 0 -83.5 27.5t-34.5 89.5q0 46 18 84t48 65.5t68 42.5t78 15 q54 0 88 -28.5t34 -86.5zM880 28q31 0 52.5 19.5t35.5 48t20.5 60t6.5 54.5q0 32 -12 46.5t-35 14.5q-32 0 -53 -19.5t-34.5 -47.5t-19 -59t-5.5 -53q0 -12 1.5 -23.5t6.5 -20.5t13.5 -14.5t22.5 -5.5z" />
<glyph unicode="&#x2020;" horiz-adv-x="431" d="M420 410h-137l-156 -627h-73l156 627h-137l18 71h137l66 263h72l-66 -263h138z" />
<glyph unicode="'" horiz-adv-x="232" d="M292 744l-116 -283h-69l97 283h88z" />
<glyph unicode="&#x22;" horiz-adv-x="400" d="M292 744l-116 -283h-69l97 283h88zM460 744l-116 -283h-69l97 283h88z" />
<glyph unicode="&#x201c;" horiz-adv-x="470" d="M112 464zM112 531q0 37 18.5 72.5t47.5 66t64.5 55.5t68.5 43l17 -31q-41 -25 -74 -56.5t-47 -78.5q26 0 43 -16t17 -41q0 -17 -7.5 -32t-19.5 -26t-28 -17t-32 -6q-30 0 -49 18.5t-19 48.5zM312 531q0 37 18.5 72.5t47.5 66t64.5 55.5t68.5 43l17 -31q-41 -25 -74 -56.5 t-47 -78.5q26 0 43 -16t17 -41q0 -17 -7.5 -32t-19.5 -26t-28 -17t-32 -6q-30 0 -49 18.5t-19 48.5z" />
<glyph unicode="&#x201d;" horiz-adv-x="468" d="M104 461zM320 697q0 -37 -18.5 -72t-47.5 -65.5t-64 -55.5t-68 -43l-18 31q42 26 74.5 56.5t47.5 78.5q-26 0 -43 16t-17 42q0 17 7 31.5t19 25.5t27 17t32 6q30 0 49.5 -18.5t19.5 -49.5zM520 697q0 -37 -18.5 -72t-47.5 -65.5t-64 -55.5t-68 -43l-18 31 q42 26 74.5 56.5t47.5 78.5q-26 0 -43 16t-17 42q0 17 7 31.5t19 25.5t27 17t32 6q30 0 49.5 -18.5t19.5 -49.5z" />
<glyph unicode="&#x2018;" horiz-adv-x="269" d="M112 531q0 37 18.5 72.5t47.5 66t64.5 55.5t68.5 43l17 -31q-41 -25 -74 -56.5t-47 -78.5q26 0 43 -16t17 -41q0 -17 -7.5 -32t-19.5 -26t-28 -17t-32 -6q-30 0 -49 18.5t-19 48.5z" />
<glyph unicode="&#x2019;" horiz-adv-x="267" d="M320 697q0 -37 -18.5 -72t-47.5 -65.5t-64 -55.5t-68 -43l-18 31q42 26 74.5 56.5t47.5 78.5q-26 0 -43 16t-17 42q0 17 7 31.5t19 25.5t27 17t32 6q30 0 49.5 -18.5t19.5 -49.5z" />
<glyph unicode="&#x201a;" horiz-adv-x="278" d="M0 0zM162 54q0 -37 -18.5 -72t-47.5 -65.5t-64 -55.5t-68 -43l-18 31q42 26 74.5 56.5t47.5 78.5q-26 0 -43 16t-17 42q0 17 7 31.5t19 25.5t27 17t32 6q30 0 49.5 -18.5t19.5 -49.5z" />
<glyph unicode="&#x201e;" horiz-adv-x="481" d="M0 0zM162 54q0 -37 -18.5 -72t-47.5 -65.5t-64 -55.5t-68 -43l-18 31q42 26 74.5 56.5t47.5 78.5q-26 0 -43 16t-17 42q0 17 7 31.5t19 25.5t27 17t32 6q30 0 49.5 -18.5t19.5 -49.5zM363 54q0 -37 -18.5 -72t-47.5 -65.5t-64 -55.5t-68 -43l-18 31q42 26 74.5 56.5 t47.5 78.5q-26 0 -43 16t-17 42q0 17 7 31.5t19 25.5t27 17t32 6q30 0 49.5 -18.5t19.5 -49.5z" />
<glyph unicode="&#x2039;" horiz-adv-x="314" d="M164 67l-123 189l5 20l217 185l31 -28l-136 -163l52 -176z" />
<glyph unicode="&#x203a;" horiz-adv-x="314" d="M9 94l140 176l-56 163l45 28l125 -185l-5 -20l-217 -189z" />
<glyph unicode="&#xab;" horiz-adv-x="505" d="M164 67l-123 189l5 20l217 185l31 -28l-136 -163l52 -176zM355 67l-124 189l5 20l218 185l31 -28l-136 -163l52 -176z" />
<glyph unicode="&#xbb;" horiz-adv-x="505" d="M199 94l140 176l-56 163l45 28l126 -185l-5 -20l-218 -189zM9 94l140 176l-56 163l45 28l125 -185l-5 -20l-217 -189z" />
<glyph unicode="*" horiz-adv-x="438" d="M416 458l-110 43l-57 -133h-23l10 133l-131 -43l-5 19l118 88l-74 88l14 17l111 -43l57 132h19l-8 -132l132 43l4 -17l-119 -89l75 -87z" />
<glyph unicode="+" horiz-adv-x="541" d="M355 491l-49 -194h192l-17 -65h-191l-48 -195h-68l48 195h-190l17 65h189l49 194h68z" />
<glyph unicode="&#x3c;" horiz-adv-x="469" d="M341 5l-318 232l15 60l433 231l-19 -75l-347 -188l255 -181z" />
<glyph unicode="=" horiz-adv-x="598" d="M487 142h-449l16 65h449zM532 322h-449l16 65h449z" />
<glyph unicode="&#x3e;" horiz-adv-x="468" d="M7 84l347 188l-255 181l19 75l318 -231l-15 -60l-433 -232z" />
<glyph unicode="&#x401;" horiz-adv-x="625" d="M0 0zM484 791q0 28 21 48.5t50 20.5q21 0 36 -13t15 -37q0 -32 -22.5 -50.5t-48.5 -18.5q-21 0 -36 13.5t-15 36.5zM307 790q0 28 20.5 49t50.5 21q20 0 35.5 -13t15.5 -37q0 -15 -6.5 -28t-16.5 -22t-23 -14t-26 -5q-20 0 -35 13t-15 36zM-11 40l28.5 2.5t26.5 5.5 q16 5 24 17.5t14 34.5l122 493q6 23 3.5 35t-15.5 17q-6 3 -20 4.5t-31 3.5l10 40h489l-28 -170h-39q0 36 -6.5 59t-20.5 36.5t-36.5 18.5t-55.5 5h-116l-65 -260h92q23 0 36.5 6t22.5 20q6 8 12.5 25.5t11.5 35.5h43l-56 -225h-43l5 31t1 28q-3 28 -46 28h-92l-69 -280h132 q37 0 63.5 7.5t48.5 25t42.5 46t45.5 71.5l34 -4l-66 -197h-512z" />
<glyph unicode="&#x410;" horiz-adv-x="690" d="M0 0zM419 240h-225l-90 -144q-11 -18 -7 -31t23 -18q7 -2 23 -3.5t33 -3.5l-11 -40h-230l11 40q11 1 23.5 4.5t21.5 6.5q17 5 28.5 15.5t23.5 29.5l390 610h58l63 -610q2 -20 8 -30t19 -15q8 -3 19 -6.5t22 -4.5l-11 -40h-283l10 40q17 2 32 4t23 4q16 5 28 16.5t11 31.5 zM228 293h187l-23 262z" />
<glyph unicode="&#x411;" horiz-adv-x="647" d="M599 523h-38q-1 36 -7.5 59t-20.5 36.5t-36.5 18.5t-55.5 5h-102l-62 -246h134q85 0 133 -38.5t48 -109.5q0 -52 -22.5 -97t-63 -78.5t-95.5 -53t-119 -19.5h-313l10 40q11 1 28 2t25 5q16 5 24.5 17t14.5 32l124 501q5 21 2 32.5t-16 16.5q-6 3 -20.5 4t-29.5 3l10 40 h490zM264 344l-73 -293h87q43 0 77 16t56.5 43t34.5 61.5t12 70.5q0 52 -24 77t-76 25h-94z" />
<glyph unicode="&#x412;" horiz-adv-x="656" d="M0 0zM-11 40q11 1 28 2t25 5q16 5 24.5 17t14.5 32l124 501q11 40 -14 49q-8 3 -23.5 4.5l-26.5 2.5l10 40h296q91 0 138 -30t47 -92q0 -40 -17 -73.5t-46 -59.5t-66.5 -44t-77.5 -26l-1 -3q89 -3 128 -37t39 -89t-27 -99.5t-70.5 -75.5t-98 -47.5t-109.5 -16.5h-307z M460 226q0 47 -32 76.5t-111 29.5h-57l-70 -281h69q39 0 75.5 12t64.5 34.5t44.5 55t16.5 73.5zM338 642l-65 -261h40q37 0 70 13t57.5 36t38.5 54.5t14 69.5q0 47 -25.5 67.5t-73.5 20.5h-56z" />
<glyph unicode="&#x413;" horiz-adv-x="568" d="M204 593q5 23 2.5 35t-15.5 17q-5 3 -19 4.5t-31 3.5l10 40h490l-42 -170h-39q0 36 -6.5 59t-20.5 36.5t-36.5 18.5t-55.5 5h-103l-135 -544q-5 -22 -1.5 -33.5t15.5 -16.5q7 -3 22.5 -4.5t32.5 -3.5l-11 -40h-283l11 40q11 1 27.5 2t25.5 5q16 5 24.5 17t14.5 32z" />
<glyph unicode="&#x414;" horiz-adv-x="718" d="M523 52h105l-48 -194h-39q3 40 0.5 67t-14.5 43.5t-35.5 24t-61.5 7.5h-302q-44 0 -71.5 -6.5t-47 -23t-34.5 -43.5t-33 -69h-38l47 194h36q45 14 78.5 51.5t64 103.5t61 163l69.5 229q9 35 -10 44q-9 5 -22.5 7t-33.5 3l10 40h555l-10 -40q-11 -1 -28 -2t-26 -5 q-15 -5 -24 -17t-14 -32zM324 641l-60.5 -215.5t-55 -168.5t-57.5 -124t-68 -81h318l145 589h-222z" />
<glyph unicode="&#x415;" horiz-adv-x="625" d="M0 0zM-11 40l28.5 2.5t26.5 5.5q16 5 24 17.5t14 34.5l122 493q6 23 3.5 35t-15.5 17q-6 3 -20 4.5t-31 3.5l10 40h489l-28 -170h-39q0 36 -6.5 59t-20.5 36.5t-36.5 18.5t-55.5 5h-116l-65 -260h92q23 0 36.5 6t22.5 20q6 8 12.5 25.5t11.5 35.5h43l-56 -225h-43l5 31 t1 28q-3 28 -46 28h-92l-69 -280h132q37 0 63.5 7.5t48.5 25t42.5 46t45.5 71.5l34 -4l-66 -197h-512z" />
<glyph unicode="&#x416;" horiz-adv-x="989" d="M506 96q-10 -40 13 -49q7 -3 21 -4t30 -3l-11 -40h-274l11 40l28.5 2.5t25.5 6.5q26 10 36 47l124 501q10 40 -14 49q-6 3 -20.5 4t-29.5 3l10 40h275l-10 -40q-11 -1 -29 -2.5t-27 -5.5q-25 -10 -35 -48zM417 333l-298 -333h-178l8 40q40 5 66 25t57 55l250 281 l-100 176q-38 68 -113 76l10 40h254l-11 -40q-52 -4 -66 -34q-5 -12 -2 -28t13 -37q1 -3 9 -18l19 -37l24 -47.5l25 -48.5l21.5 -40.5t13.5 -22.5zM595 340q6 5 22.5 20l38.5 35.5l47 44.5l48.5 47l44 43l33.5 33q14 14 23.5 28t9.5 27q1 14 -11.5 24t-42.5 11l8 40h264 l-8 -40q-42 -4 -78.5 -24t-77.5 -57l-34.5 -32.5l-50.5 -48l-59.5 -56l-61.5 -57.5l106 -258q14 -35 37 -55t60 -25l-9 -40h-174l-136 333z" />
<glyph unicode="&#x417;" horiz-adv-x="607" d="M356 659q-36 0 -66 -12.5t-55 -34.5t-45.5 -52t-38.5 -65h-35l39 153q47 28 102.5 44.5t124.5 16.5q45 0 83 -9t65.5 -27t42.5 -45t15 -62q0 -42 -15.5 -77t-44.5 -61t-70 -42t-92 -21l-1 -4q80 -2 126.5 -36t46.5 -102q0 -57 -26.5 -101t-72 -74.5t-106 -46.5 t-127.5 -16q-131 0 -211 54l45 179h35q1 -39 8 -72.5t23 -58t42 -38.5t65 -14q40 0 75 13t61 37t40.5 58t14.5 75q0 34 -10.5 56.5t-30 36t-47 19t-61.5 5.5h-66l12 50h65q38 0 72 11.5t59.5 33t40.5 53.5t15 74q0 48 -23 75t-74 27z" />
<glyph unicode="&#x418;" horiz-adv-x="808" d="M211 130l463 563h186l-10 -40q-11 -1 -28 -2t-26 -5q-15 -5 -24 -17t-14 -32l-124 -501q-6 -21 -2.5 -32.5t15.5 -16.5q6 -3 20.5 -4t29.5 -3l-10 -40h-278l11 40q11 1 27.5 2t25.5 5q16 5 25 17t14 32l115 466l-461 -562h-187l10 40q11 1 28 2t25 5q16 5 24.5 17 t14.5 32l124 501q5 21 2 32.5t-16 16.5q-6 3 -20.5 4t-29.5 3l10 40h278l-10 -40q-11 -1 -28 -2t-26 -5q-15 -5 -24 -17t-14 -32z" />
<glyph unicode="&#x419;" horiz-adv-x="808" d="M0 0zM211 130l463 563h186l-10 -40q-11 -1 -28 -2t-26 -5q-15 -5 -24 -17t-14 -32l-124 -501q-6 -21 -2.5 -32.5t15.5 -16.5q6 -3 20.5 -4t29.5 -3l-10 -40h-278l11 40q11 1 27.5 2t25.5 5q16 5 25 17t14 32l115 466l-461 -562h-187l10 40q11 1 28 2t25 5q16 5 24.5 17 t14.5 32l124 501q5 21 2 32.5t-16 16.5q-6 3 -20.5 4t-29.5 3l10 40h278l-10 -40q-11 -1 -28 -2t-26 -5q-15 -5 -24 -17t-14 -32zM696 838q-18 -48 -57 -74t-108 -26q-57 0 -89 23t-31 77h92q-2 -29 10 -43t33 -14q61 0 86 57h64z" />
<glyph unicode="&#x41a;" horiz-adv-x="699" d="M0 0zM203 96q-6 -21 -2 -32.5t15 -16.5q7 -3 21 -4t29 -3l-10 -40h-277l10 40q11 1 28 2t25 5q16 5 24.5 17t14.5 32l124 501q10 40 -14 49q-6 3 -20.5 4t-29.5 3l10 40h278l-10 -40q-11 -1 -28 -2t-26 -5q-15 -5 -24 -17t-14 -32zM292 340q36 28 70.5 58.5l65.5 60 l56 54.5l41 41q14 14 29 31t19 32q5 17 -4.5 24.5t-51.5 11.5l10 40h264l-10 -40q-78 -8 -154 -76l-33.5 -30.5l-54 -49.5l-65 -59.5l-65.5 -59.5l115 -258q15 -35 37.5 -55t60.5 -25l-13 -40h-175l-143 333z" />
<glyph unicode="&#x41b;" horiz-adv-x="714" d="M540 96q-6 -21 -2.5 -32.5t15.5 -16.5q6 -3 20.5 -4t29.5 -3l-10 -40h-278l11 40q11 1 27.5 2t25.5 5q16 5 24.5 17t14.5 32l134 545h-221l-78.5 -273.5t-73.5 -206t-77 -129.5t-91 -45q-32 0 -47 17t-15 42q0 27 18.5 46t50.5 23q41 5 70.5 32t56 83.5t55 146.5 t66.5 222q11 35 -9 44q-9 5 -23 7t-33 3l10 40h555l-10 -40q-11 -1 -28 -2t-26 -5q-15 -5 -24 -17t-14 -32z" />
<glyph unicode="&#x41c;" horiz-adv-x="925" d="M0 0zM977 693l-10 -40q-11 -1 -28 -2t-26 -5q-15 -5 -24 -17t-14 -32l-124 -501q-5 -21 -1.5 -32.5t15.5 -16.5q6 -3 20.5 -4t29.5 -3l-11 -40h-277l11 40q10 1 27 2t26 5q15 5 24 17t14 32l116 467l-325 -424h-37l-115 423l-107 -430q-7 -29 -3 -46.5t17 -27.5 q21 -16 59 -21l-10 -37h-257l10 37q16 2 31.5 6t29.5 11q20 9 35 27.5t23 50.5l112 448q5 24 2.5 37.5t-13.5 21.5q-7 6 -23.5 9t-34.5 5l10 40h207l109 -406l315 406h197z" />
<glyph unicode="&#x41d;" horiz-adv-x="798" d="M0 0zM624 96q-6 -21 -2.5 -32.5t15.5 -16.5q6 -3 20.5 -4t29.5 -3l-10 -40h-278l11 40q11 1 27.5 2t25.5 5q16 5 24.5 17t14.5 32l59 239h-299l-59 -239q-6 -21 -2.5 -32.5t15.5 -16.5q6 -3 20.5 -4t29.5 -3l-10 -40h-277l10 40q11 1 28 2t25 5q16 5 24.5 17t14.5 32 l124 501q5 21 2 32.5t-16 16.5q-6 3 -20.5 4t-29.5 3l10 40h278l-10 -40q-11 -1 -28 -2t-26 -5q-15 -5 -24 -17t-14 -32l-52 -210h299l52 210q5 21 1.5 32.5t-15.5 16.5q-6 3 -20.5 4t-29.5 3l10 40h278l-10 -40q-11 -1 -28 -2t-26 -5q-15 -5 -24 -17t-14 -32z" />
<glyph unicode="&#x41e;" horiz-adv-x="786" d="M52 0zM764 450q0 -88 -35.5 -171.5t-97 -149t-144 -105t-176.5 -39.5q-125 0 -192 67.5t-67 187.5q0 88 35 172.5t95.5 150.5t143 106t177.5 40q64 0 113 -18.5t82 -52.5t49.5 -82t16.5 -106zM322 36q53 0 97 21.5t79 57t60.5 82t43 97t26 101t8.5 94.5q0 78 -33.5 124.5 t-112.5 46.5q-52 0 -95.5 -22t-78 -58.5t-60 -84t-42.5 -98.5t-25.5 -102t-8.5 -94q0 -80 33 -122.5t109 -42.5z" />
<glyph unicode="&#x41f;" horiz-adv-x="787" d="M612 96q-5 -21 -1.5 -32.5t15.5 -16.5q6 -3 20.5 -4t29.5 -3l-11 -40h-277l11 40q10 1 27 2t26 5q15 5 24 17t14 32l135 545h-287l-135 -545q-6 -21 -2.5 -32.5t15.5 -16.5q6 -3 20.5 -4t29.5 -3l-10 -40h-277l10 40q11 1 28 2t25 5q16 5 24.5 17t14.5 32l124 501 q5 21 2 32.5t-16 16.5q-6 3 -20.5 4t-29.5 3l10 40h687l-10 -40q-11 -1 -28 -2t-26 -5q-28 -9 -37 -49z" />
<glyph unicode="&#x420;" horiz-adv-x="615" d="M0 0zM205 597q10 40 -14 49q-9 3 -20.5 4t-29.5 3l10 40h323q78 0 124.5 -35.5t46.5 -105.5q0 -54 -23.5 -102.5t-63.5 -84.5t-91.5 -57t-107.5 -21h-109l-47 -191q-10 -40 13 -49q10 -3 25 -4t33 -3l-11 -40h-284l10 40l28.5 2t24.5 5q29 9 39 49zM338 642l-75 -303h67 q40 0 73.5 17.5t57.5 47t37 67t13 77.5q0 43 -22.5 68.5t-67.5 25.5h-83z" />
<glyph unicode="&#x421;" horiz-adv-x="677" d="M52 0zM489 660q-52 0 -95.5 -22t-77.5 -58.5t-59.5 -84t-42 -98.5t-25 -102t-8.5 -94q0 -80 33.5 -123.5t110.5 -43.5q43 0 78 14t63.5 38t52 56t42.5 67h36l-38 -153q-51 -34 -114 -52.5t-129 -18.5q-65 0 -114 18t-82.5 51.5t-50.5 80.5t-17 105q0 60 16 118t45.5 110 t71 96t92.5 76.5t110 50.5t123 18q56 0 107 -14t91 -40l-44 -179h-36q-1 41 -8 75t-23 58t-42.5 37.5t-65.5 13.5z" />
<glyph unicode="&#x422;" horiz-adv-x="653" d="M85 0zM476 644l-136 -548q-10 -40 14 -49q8 -3 19.5 -4t30.5 -3l-11 -40h-277l10 40l28.5 2t24.5 5q29 9 39 49l136 548h-46q-33 0 -60 -7t-49 -23t-41 -41t-37 -61h-36l45 181h596l-45 -181h-36q-1 36 -7.5 61t-20.5 41t-37 23t-56 7h-48z" />
<glyph unicode="&#x423;" horiz-adv-x="674" d="M217 106q23 0 41 11t35 32l-135 447q-9 31 -24.5 42.5t-44.5 14.5l10 40h280l-10 -40q-34 -3 -53.5 -9t-27.5 -17t-7 -29t9 -43l86 -296l208 306q32 45 19.5 65.5t-70.5 22.5l10 40h231l-9 -37q-30 -4 -51.5 -15.5t-41.5 -40.5l-294 -416l-62 -86.5t-53.5 -62.5 t-54.5 -37.5t-65 -12.5q-38 0 -54.5 19t-16.5 43q0 35 23 53t54 18q13 0 22 -2t16 -4l13.5 -4t16.5 -2z" />
<glyph unicode="&#x424;" horiz-adv-x="886" d="M580 593l2 4q139 0 215.5 -51.5t76.5 -151.5q0 -67 -28 -122t-81 -94t-130.5 -60t-177.5 -21l-2 -11q-6 -21 -2.5 -32.5t15.5 -16.5q6 -3 20.5 -4t29.5 -3l-10 -40h-277l11 40q10 1 27 2t26 5q15 5 23.5 17t14.5 32l2 11q-138 0 -214.5 51.5t-76.5 151.5q0 67 27.5 121.5 t80.5 93.5t130.5 60.5t176.5 21.5l3 10q5 21 2 32.5t-16 16.5q-6 3 -20.5 4t-28.5 3l10 40h277l-10 -40q-11 -1 -28 -2t-26 -5q-15 -5 -24 -17t-14 -32zM739 393q0 42 -13 72t-35.5 49.5t-53 29t-66.5 10.5l-105 -421l3 9q61 0 111 19t85.5 52.5t54.5 79.5t19 100zM179 301 q0 -42 12.5 -72t35 -49.5t53 -29t66.5 -10.5l102 412q-61 0 -110.5 -19t-85 -52.5t-54.5 -79.5t-19 -100z" />
<glyph unicode="&#x425;" horiz-adv-x="673" d="M0 0zM118 693h296l-10 -41q-38 -3 -57 -10t-19 -28q0 -15 10 -39l58 -147l150 153q24 25 24 41q0 24 -61 30l10 41h238l-10 -41q-29 -4 -63 -21t-66 -48l-203 -204l112 -282q11 -26 26 -38.5t44 -17.5l-11 -41h-301l11 41q53 4 76.5 15t23.5 32q0 5 -2 10.5l-4 11.5 l-70 180l-167 -174q-25 -26 -25 -43q0 -14 16.5 -21.5t42.5 -10.5l-11 -41h-237l11 41q16 3 34.5 10t36 17.5t33.5 23t29 24.5l218 223l-100 257q-12 28 -40.5 41t-52.5 15z" />
<glyph unicode="&#x426;" horiz-adv-x="794" d="M205 597q5 21 1.5 32.5t-15.5 16.5q-6 3 -20.5 4t-29.5 3l11 40h277l-11 -40q-10 -1 -27 -2t-26 -5q-15 -5 -24 -17t-14 -32l-135 -545h287l135 545q6 21 2.5 32.5t-15.5 16.5q-6 3 -20.5 4t-29.5 3l10 40h277l-11 -40q-10 -1 -27 -2t-26 -5q-15 -5 -23.5 -17t-14.5 -32 l-136 -545h99l-49 -194h-38q4 41 2 68t-13 43.5t-33.5 23.5t-58.5 7h-530l10 40q10 1 27.5 2t25.5 5q29 9 38 49z" />
<glyph unicode="&#x427;" horiz-adv-x="745" d="M571 96q-6 -21 -2.5 -32.5t15.5 -16.5q6 -3 20.5 -4t30.5 -3l-11 -40h-277l10 40q11 1 28 2t25 5q16 5 24.5 17t14.5 32l57 233q-45 -18 -91 -27.5t-100 -9.5q-50 0 -88.5 14.5t-62 41.5t-30.5 67t6 91l23 91q5 21 1.5 32.5t-15.5 16.5q-6 3 -20.5 4t-29.5 3l10 40h278 l-10 -40q-11 -1 -28 -2t-26 -5q-15 -5 -24 -17t-14 -32l-23 -92q-18 -73 6.5 -113t104.5 -40q63 0 101.5 9.5l42.5 10.5l56 225q5 21 2 32.5t-16 16.5q-6 3 -20.5 4t-28.5 3l10 40h277l-10 -40q-11 -1 -28 -2t-26 -5q-15 -5 -24 -17t-14 -32z" />
<glyph unicode="&#x428;" horiz-adv-x="1120" d="M205 597q5 21 1.5 32.5t-15.5 16.5q-6 3 -20.5 4t-29.5 3l11 40h277l-11 -40q-10 -1 -27 -2t-26 -5q-15 -5 -24 -17t-14 -32l-135 -545h249l135 545q6 21 2.5 32.5t-15.5 16.5q-6 3 -20.5 4t-29.5 3l10 40h277l-10 -40q-11 -1 -28 -2t-25 -5q-16 -5 -24.5 -17t-14.5 -32 l-135 -545h249l136 545q5 21 1.5 32.5t-15.5 16.5q-6 3 -20.5 4t-29.5 3l11 40h277l-11 -40q-11 -1 -27.5 -2t-25.5 -5q-15 -5 -24 -17t-14 -32l-125 -501q-5 -21 -1.5 -32.5t16.5 -16.5q6 -3 20.5 -4t28.5 -3l-10 -40h-1020l10 40q10 1 27.5 2t25.5 5q29 9 38 49z" />
<glyph unicode="&#x429;" horiz-adv-x="1127" d="M-21 0l10 40q10 1 27.5 2t25.5 5q29 9 38 49l125 501q5 21 1.5 32.5t-15.5 16.5q-6 3 -20.5 4t-29.5 3l11 40h277l-11 -40q-10 -1 -27 -2t-26 -5q-15 -5 -24 -17t-14 -32l-135 -545h249l135 545q6 21 2.5 32.5t-15.5 16.5q-6 3 -20.5 4t-29.5 3l10 40h277l-10 -40 q-11 -1 -28 -2t-25 -5q-16 -5 -24.5 -17t-14.5 -32l-135 -545h249l136 545q5 21 1.5 32.5t-15.5 16.5q-6 3 -20.5 4t-29.5 3l11 40h277l-11 -40q-11 -1 -27.5 -2t-25.5 -5q-15 -5 -24 -17t-14 -32l-136 -545h98l-48 -194h-39q4 41 2.5 68t-13 43.5t-34 23.5t-58.5 7h-863z " />
<glyph unicode="&#x42a;" horiz-adv-x="747" d="M401 400h126q85 0 132.5 -38.5t47.5 -109.5q0 -52 -22.5 -97.5t-62.5 -80t-95 -54.5t-119 -20h-306l10 40q11 1 28 2t25 5q16 5 24.5 17t14.5 32l137 548h-34q-34 0 -60.5 -7t-48.5 -23t-41 -41t-37 -61h-36l44 181h424l-10 -40q-11 -1 -28 -2t-26 -5q-15 -5 -24 -17 t-14 -32zM388 349l-74 -298h79q44 0 77.5 17t56.5 44.5t34.5 62.5t11.5 72q0 51 -23.5 76.5t-75.5 25.5h-86z" />
<glyph unicode="&#x42b;" horiz-adv-x="944" d="M769 96q-5 -21 -1.5 -32.5t15.5 -16.5q6 -3 20.5 -4t29.5 -3l-11 -40h-277l11 40q10 1 27 2t26 5q29 9 38 49l125 501q5 21 1.5 32.5t-16.5 16.5q-6 3 -20.5 4t-28.5 3l10 40h277l-10 -40q-11 -1 -28 -2t-26 -5q-28 -9 -37 -49zM278 400h126q85 0 132.5 -38.5 t47.5 -109.5q0 -52 -22.5 -97.5t-62.5 -80t-95 -54.5t-119 -20h-306l10 40q11 1 28 2t25 5q16 5 24.5 17t14.5 32l124 501q5 21 2 32.5t-16 16.5q-6 3 -20.5 4t-29.5 3l10 40h278l-10 -40q-11 -1 -28 -2t-26 -5q-15 -5 -24 -17t-14 -32zM265 349l-74 -298h79q44 0 77.5 17 t56.5 44.5t35 62.5t12 72q0 51 -24 76.5t-76 25.5h-86z" />
<glyph unicode="&#x42c;" horiz-adv-x="624" d="M278 400h126q85 0 132.5 -38.5t47.5 -109.5q0 -52 -22.5 -97.5t-62.5 -80t-95 -54.5t-119 -20h-306l10 40q11 1 28 2t25 5q16 5 24.5 17t14.5 32l124 501q5 21 2 32.5t-16 16.5q-6 3 -20.5 4t-29.5 3l10 40h278l-10 -40q-11 -1 -28 -2t-26 -5q-15 -5 -24 -17t-14 -32z M265 349l-74 -298h79q44 0 77.5 17t56.5 44.5t35 62.5t12 72q0 51 -24 76.5t-76 25.5h-86z" />
<glyph unicode="&#x42d;" horiz-adv-x="676" d="M217 34q56 0 101.5 25t80.5 66t60.5 93t40.5 107h-285l2 52h296q12 61 12 116q0 80 -33.5 123.5t-110.5 43.5q-43 0 -78 -14t-63.5 -38t-51.5 -56t-42 -67h-37l38 153q51 34 114 52.5t129 18.5q65 0 114.5 -18t82.5 -51.5t50 -80.5t17 -105q0 -60 -16 -118t-45.5 -110 t-71 -96t-92.5 -76.5t-110 -50.5t-123 -18q-56 0 -107 14t-91 40l44 179h37q0 -41 7 -75t23 -58t42.5 -37.5t65.5 -13.5z" />
<glyph unicode="&#x42e;" horiz-adv-x="1094" d="M1072 450q0 -88 -35 -171.5t-95 -149t-141 -105t-173 -39.5q-117 0 -182.5 67.5t-65.5 187.5q0 49 10 95h-128l-59 -239q-6 -21 -2.5 -32.5t15.5 -16.5q6 -3 20.5 -4t29.5 -3l-10 -40h-277l10 40q11 1 28 2t25 5q16 5 24.5 17t14.5 32l124 501q5 21 2 32.5t-16 16.5 q-6 3 -20.5 4t-29.5 3l10 40h278l-10 -40q-11 -1 -28 -2t-26 -5q-15 -5 -24 -17t-14 -32l-52 -210h130q22 66 63 124.5t95 102.5t119.5 69.5t137.5 25.5q61 0 108 -18.5t79 -52.5t48.5 -82t16.5 -106zM640 36q51 0 93.5 21.5t76.5 57t59 82t41.5 97t25 101t8.5 94.5 q0 78 -32.5 124.5t-104.5 46.5q-51 0 -92.5 -22t-75 -58.5t-58 -84t-41 -98.5t-24.5 -102t-8 -94q0 -80 31.5 -122.5t100.5 -42.5z" />
<glyph unicode="&#x42f;" horiz-adv-x="683" d="M436 298h-70l-254 -298h-163l9 40q19 4 33.5 10.5t28 16.5t27 23t28.5 30l173 198q-54 11 -88 44.5t-34 94.5q0 40 18.5 82t55.5 76t93 56t132 22h309l-11 -40q-10 -1 -27 -2.5t-26 -4.5q-28 -10 -38 -49l-124 -501q-5 -21 -2 -32.5t16 -16.5q6 -3 20.5 -4t28.5 -3 l-10 -40h-277l10 40q11 1 28 2t26 4q28 10 38 50zM257 456q0 -53 27 -80.5t83 -27.5h81l73 293h-81q-44 0 -78 -15.5t-57 -41.5t-35.5 -59t-12.5 -69z" />
<glyph unicode="&#x430;" horiz-adv-x="551" d="M402 97q-4 -14 -1 -20t9 -6q13 0 34 16.5t41 34.5l14 -30q-48 -57 -89 -82t-70 -25q-18 0 -29 8t-16 20.5t-4.5 28.5t5.5 33l35 122h-3q-26 -45 -53 -83.5t-54.5 -66t-55.5 -43t-57 -15.5q-39 0 -66 30.5t-27 105.5q0 64 24.5 130.5t67 121t101.5 89.5t128 35 q24 0 46 -5.5t41 -14.5l63 20h18zM158 80q18 0 40.5 17.5t47.5 46.5t50 66.5t49 77.5l30 121q-16 16 -35.5 26.5t-40.5 10.5q-28 0 -52.5 -14.5t-43.5 -39t-34 -56t-25 -65t-15 -66t-5 -59.5q0 -66 34 -66z" />
<glyph unicode="&#x431;" horiz-adv-x="546" d="M609 755q-18 -52 -49 -84.5t-94 -42.5l-21 -3q-45 -5 -77.5 -4.5t-56.5 -1t-42 -8t-33 -25.5q-21 -27 -37.5 -68t-30.5 -104q12 14 28.5 29.5t38 28t47.5 21t58 8.5q84 0 125 -47.5t41 -122.5q0 -63 -25 -125.5t-67 -111.5t-97.5 -79.5t-116.5 -30.5q-83 0 -122 50 t-39 132q0 35 6 76t20 94q21 87 55.5 157.5t83 121.5t112 80.5t142.5 34.5l11 1l47.5 3.5t33.5 4.5t23 8t16 14zM219 37q33 0 63.5 30t53.5 75.5t36.5 100.5t13.5 105q0 47 -15 75t-53 28q-39 0 -69.5 -30.5t-51.5 -76.5t-32 -99t-11 -99q0 -45 14.5 -77t50.5 -32z" />
<glyph unicode="&#x432;" horiz-adv-x="498" d="M328 501q72 0 104 -29t32 -71q0 -28 -12.5 -51.5t-34.5 -42t-52 -31.5t-66 -20q52 -2 87.5 -26.5t34.5 -74.5q-1 -38 -20.5 -69t-51.5 -53.5t-74.5 -35t-88.5 -12.5t-78 12.5t-52 34.5t-29 51.5t-9 63.5q0 58 22 121t62.5 114.5t97.5 85t128 33.5zM186 226q-5 0 -21.5 -2 t-27.5 -4q-3 -29 -3 -56q0 -25 3 -48t12 -41t24.5 -29t39.5 -11q42 0 66 28.5t26 81.5q1 40 -27.5 63t-91.5 18zM288 453q-29 0 -52.5 -16t-41.5 -42.5t-30.5 -60.5t-19.5 -71q7 1 16 2t17.5 2.5t15 2.5t7.5 1q62 8 102 41.5t40 89.5q0 22 -13 36.5t-41 14.5z" />
<glyph unicode="&#x433;" horiz-adv-x="447" d="M6 101q0 46 21 74.5t52.5 47.5t68.5 33.5t68.5 32t52.5 42t21 64.5q0 28 -18 42.5t-47 14.5q-39 0 -68.5 -27.5t-59.5 -84.5l-32 3l31 121q37 19 74 28t83 9q32 0 59 -6.5t47 -20t31.5 -35t11.5 -51.5q0 -49 -21 -79.5t-52 -50.5t-68 -34.5t-68 -31t-52 -39.5t-21 -60 q0 -27 19.5 -43t54.5 -16q51 0 84 29t61 85l35 -3l-34 -123q-36 -19 -78 -28t-85 -9q-35 0 -66.5 6.5t-54.5 20t-36.5 35.5t-13.5 54z" />
<glyph unicode="&#x434;" horiz-adv-x="538" d="M301 500q53 0 88 -26q-1 40 -9 77.5t-26.5 70t-51 58.5t-81.5 43l18 33q131 -28 197 -113.5t66 -218.5q0 -88 -24 -167.5t-66.5 -140t-102 -96.5t-130.5 -36q-42 0 -72 14t-48.5 39t-27.5 58t-9 71q0 56 21 115.5t58 108t88 79.5t112 31zM209 43q27 0 50 16.5t42.5 44.5 t34.5 65t25.5 78.5t17.5 84.5t9 84q-17 16 -34.5 23t-41.5 7q-45 0 -76.5 -30t-52 -73.5t-30 -93t-9.5 -89.5q0 -63 16.5 -90t48.5 -27z" />
<glyph unicode="&#x435;" horiz-adv-x="478" d="M391 101q-19 -23 -43.5 -44t-53 -37t-61 -25.5t-67.5 -9.5q-41 0 -69 12.5t-45 34.5t-25 51.5t-8 63.5q0 58 21.5 121t62 114.5t98 85t128.5 33.5q28 0 52 -5.5t42 -17t28 -29.5t10 -43q0 -30 -16.5 -59.5t-54.5 -54.5t-100 -42.5t-152 -22.5q-3 -29 -3 -54t3.5 -46.5 t13.5 -37t27 -24.5t43 -9q36 0 73 17.5t82 58.5zM288 453q-29 0 -52.5 -16t-41.5 -42.5t-30.5 -60t-19.5 -69.5q58 8 96 22.5t60.5 32.5t32 37.5t9.5 37.5q0 30 -14 44t-40 14z" />
<glyph unicode="&#x436;" horiz-adv-x="933" d="M64 385q15 24 32 44.5t37.5 36.5t44 25t51.5 9q29 0 49.5 -12t33.5 -34t19 -51.5t6 -64.5q0 -18 -2 -36.5t-5 -36.5h80l55 221h102l-56 -221h79q13 46 35 88.5t52 75t68.5 52t83.5 19.5t72.5 -17t27.5 -56q0 -20 -11.5 -39.5t-43.5 -19.5q-26 0 -39 13.5t-17 39.5 q-2 14 -5 22.5t-17 8.5q-26 0 -47 -28t-35.5 -70t-22.5 -92t-8 -94q0 -23 2 -43.5t8 -35.5t16.5 -23.5t27.5 -8.5q28 0 51.5 21t46.5 53l11 -32q-15 -24 -32 -44.5t-37 -36.5t-43.5 -25t-51.5 -9q-30 0 -50.5 12t-33 34t-18.5 51.5t-6 64.5t6 73h-80l-55 -219h-100l54 219 h-79q-13 -47 -35 -89.5t-52.5 -74.5t-68.5 -51.5t-83 -19.5q-44 0 -71.5 17t-27.5 55q0 20 11.5 39.5t42.5 19.5q26 0 39 -13.5t18 -39.5q2 -14 5 -22t16 -8q26 0 47 28t36 70t23 92t8 94q0 23 -2.5 43.5t-8.5 35.5t-16.5 23.5t-27.5 8.5q-28 0 -51 -21t-46 -53z" />
<glyph unicode="&#x437;" horiz-adv-x="451" d="M153 -15q-56 0 -92.5 9t-68.5 29l20 126l31 2q5 -29 12.5 -51t20 -37.5t30.5 -23.5t45 -8q51 0 80.5 29t29.5 81q0 38 -18.5 61t-70.5 23h-55l9 45h54q51 0 79 28t28 76q0 38 -16.5 59t-50.5 21q-41 0 -69 -26t-54 -80l-33 3l29 113q36 19 70.5 28t80.5 9q33 0 61.5 -7 t49.5 -21.5t33.5 -37t12.5 -53.5q0 -57 -39.5 -90t-97.5 -42q45 -7 77 -34.5t32 -73.5q0 -38 -17 -67.5t-46.5 -49.5t-69.5 -30t-87 -10z" />
<glyph unicode="&#x438;" d="M436 102q-6 -20 -1.5 -25.5t9.5 -5.5q12 0 31.5 15.5t41.5 35.5l14 -29q-45 -54 -86.5 -81t-71.5 -27q-18 0 -29 7.5t-16 20t-5 27.5t4 30l35 142h-3q-34 -62 -64 -105t-58.5 -70t-55 -39.5t-52.5 -12.5q-24 0 -41 9t-25.5 29.5t-8 52.5t11.5 78l62 242q5 19 0 27t-14 8 t-26 -6t-45 -21l-1 35q38 28 80.5 45t73.5 17q36 -1 44.5 -22.5t-0.5 -56.5l-60 -234q-12 -47 -13.5 -72.5t25.5 -25.5q28 0 79 56.5t114 176.5l40 163h107l-96 -384v0z" />
<glyph unicode="&#x439;" d="M42 0zM436 102q-6 -20 -1.5 -25.5t9.5 -5.5q12 0 31.5 15.5t41.5 35.5l14 -29q-45 -54 -86.5 -81t-71.5 -27q-18 0 -29 7.5t-16 20t-5 27.5t4 30l35 142h-3q-34 -62 -64 -105t-58.5 -70t-55 -39.5t-52.5 -12.5q-24 0 -41 9t-25.5 29.5t-8 52.5t11.5 78l62 242q5 19 0 27 t-14 8t-26 -6t-45 -21l-1 35q38 28 80.5 45t73.5 17q36 -1 44.5 -22.5t-0.5 -56.5l-60 -234q-12 -47 -13.5 -72.5t25.5 -25.5q28 0 79 56.5t114 176.5l40 163h107l-96 -384v0zM510 695q-18 -48 -56.5 -79t-108.5 -31q-57 0 -89 28t-31 82h92q-2 -29 9 -48t34 -19q32 0 52 19 t33 48h65z" />
<glyph unicode="&#x43a;" horiz-adv-x="527" d="M130 395q8 35 -12 35q-11 0 -31 -8t-41 -19l-2 35q47 30 87 46.5t69 16.5q35 0 44 -21t1 -51l-106 -429h-107zM226 241l62 58l45.5 43.5t26.5 26.5q26 27 28.5 53.5t-18.5 36.5v27h133q6 -31 -10.5 -59.5t-40.5 -48.5q-6 -4 -21.5 -16.5l-35.5 -28l-41.5 -33l-39.5 -31.5 l135 -253l-10 -31h-98l-119 238z" />
<glyph unicode="&#x43b;" horiz-adv-x="535" d="M390 112q-5 -21 -4.5 -31t9.5 -10q18 0 73 51l13 -29q-45 -54 -86.5 -81.5t-71.5 -26.5q-34 1 -46.5 26t-1.5 66l90 366h-122q-29 -121 -54 -207t-51.5 -140.5t-57.5 -80t-70 -25.5q-27 0 -40.5 13.5t-13.5 34.5q0 20 15.5 37.5t48.5 20.5t55.5 22t40.5 56t33.5 91 l35.5 128q8 36 -6 44.5t-51 10.5l9 38h346z" />
<glyph unicode="&#x43c;" horiz-adv-x="725" d="M296 486l41 -333l218 333h118l-93 -374q-5 -21 -4.5 -31t9.5 -10q18 0 73 51l14 -29q-45 -54 -86.5 -81.5t-72.5 -26.5q-34 1 -46.5 26t-1.5 66l73 295l-242 -366h-37l-48 364q-24 -100 -46 -171.5t-45 -118t-49.5 -68.5t-60.5 -22q-26 0 -39 13.5t-13 34.5q0 20 14.5 36 t42.5 21q30 5 51.5 26.5t39.5 59.5t33.5 91t32.5 121q4 18 3 28.5t-8.5 16t-20.5 7.5t-31 3l9 38h172z" />
<glyph unicode="&#x43d;" horiz-adv-x="582" d="M436 112q-10 -41 5 -41q18 0 73 51l14 -29q-45 -54 -86.5 -81.5t-72.5 -26.5q-34 1 -46.5 26t-1.5 66l35 141h-163l-54 -218h-107l98 395q8 35 -12 35q-11 0 -31 -8t-41 -19l-2 35q47 30 87 46.5t69 16.5q35 0 44 -21t1 -51l-40 -163h163l54 220h107z" />
<glyph unicode="&#x43e;" horiz-adv-x="530" d="M21 0zM489 329q0 -60 -23.5 -121.5t-65 -111t-97.5 -81t-121 -31.5q-81 0 -121 48t-40 129q0 63 23.5 124t64.5 109t96.5 77.5t119.5 29.5q78 0 121 -45.5t43 -126.5zM205 37q33 0 63 30t52.5 75.5t36 100.5t13.5 105q0 47 -14.5 75t-52.5 28t-68 -30.5t-50.5 -76.5 t-31.5 -99t-11 -99q0 -23 3 -42.5t10 -34.5t19.5 -23.5t30.5 -8.5z" />
<glyph unicode="&#x43f;" horiz-adv-x="589" d="M32 0zM130 395q8 35 -12 35q-11 0 -30.5 -7.5t-41.5 -19.5l-2 35q98 63 154 63q35 0 43.5 -20.5t0.5 -51.5l-44 -162h4q34 63 65 107.5t59.5 72.5t56 41t55.5 13q49 0 67 -38.5t-4 -130.5l-56 -222q-9 -39 5 -39q20 0 75 51l13 -29q-48 -57 -89 -83t-72 -25 q-36 1 -45.5 29t-0.5 63l57 221q12 47 13 71.5t-26 24.5q-29 0 -81.5 -57.5t-116.5 -177.5l-38 -159h-107l98 395v0z" />
<glyph unicode="&#x440;" horiz-adv-x="566" d="M0 0zM-74 -167h64l140 562q10 36 -13 36q-12 0 -30.5 -8t-40.5 -19l-2 35q50 32 85 47t66 15q33 0 44 -19t3 -49l-30 -117h2q31 52 58 87.5t51.5 57.5t47.5 31t47 9q58 0 83.5 -42t25.5 -108q0 -68 -23.5 -133t-67 -117t-104.5 -83.5t-136 -31.5q-27 0 -60 6l-39 -159 h137l-12 -50h-308zM364 411q-27 0 -68 -43.5t-103 -145.5l-38 -154q17 -8 38 -13t43 -5q47 0 81 25.5t55.5 65t31.5 86.5t10 89q0 53 -12 74t-38 21z" />
<glyph unicode="&#x441;" horiz-adv-x="450" d="M19 0zM387 361q-14 0 -23.5 5t-15.5 12t-9 15.5t-6 15.5q-5 14 -14.5 28.5t-36.5 14.5q-37 0 -64.5 -27.5t-46 -69.5t-27.5 -91.5t-9 -93.5q0 -25 3 -45.5t11.5 -35.5t23.5 -23.5t40 -8.5q36 0 70 18.5t78 57.5l14 -31q-20 -23 -42 -44.5t-48.5 -38t-56.5 -26t-65 -9.5 q-41 0 -68.5 12.5t-44 34.5t-24 52t-7.5 64q0 60 21.5 123t61 114t95 83.5t122.5 32.5q59 0 92 -22.5t33 -56.5q0 -23 -13.5 -41.5t-43.5 -18.5z" />
<glyph unicode="&#x442;" horiz-adv-x="863" d="M32 0zM130 395q8 35 -12 35q-11 0 -30.5 -7.5t-41.5 -19.5l-2 35q98 63 153 63q35 0 44 -21t1 -51l-40 -152h3q66 121 121 172.5t110 51.5q49 0 65.5 -38t-5.5 -127l-15 -57h1q66 120 121 171t109 51q49 0 67.5 -38.5t-4.5 -130.5l-56 -222q-5 -20 -4 -29.5t10 -9.5 q19 0 74 51l13 -29q-48 -57 -89 -83t-71 -25q-18 0 -29.5 8t-17 21t-5.5 29.5t5 33.5l57 221q12 47 13 71.5t-26 24.5q-28 0 -77.5 -52.5t-110.5 -164.5l-44 -177h-105l74 298q14 53 13 74.5t-27 21.5q-28 0 -78.5 -54.5t-112.5 -168.5l-42 -171h-107l98 395v0z" />
<glyph unicode="&#x443;" horiz-adv-x="551" d="M0 0zM316 26q35 57 55 126t31 149q-51 -70 -114.5 -146t-133.5 -146h-37l5 400q-3 21 -18 21q-11 0 -32.5 -7.5t-39.5 -16.5l-1 33q25 17 51 31q22 11 47.5 21t48.5 10q32 0 45.5 -18t11.5 -59l-12 -277l50 56l50.5 60.5l47 59.5t39.5 53q4 52 6 110h113l6 -10 l-17.5 -79.5t-31.5 -115t-49 -134t-70 -136.5q-24 -39 -56.5 -80.5t-72 -75.5t-84.5 -55.5t-95 -21.5q-34 0 -52.5 14t-18.5 40t17.5 42.5t49.5 16.5q27 0 58.5 -1.5t64.5 9t68 39t70 88.5z" />
<glyph unicode="&#x444;" horiz-adv-x="745" d="M411 653q5 20 1 28t-15 8q-12 0 -31.5 -8.5l-39.5 -17.5l-1 35q42 28 82 44.5t72 16.5q33 0 44 -18.5t3 -49.5l-85 -342q36 75 76 113.5t89 38.5q51 0 75 -41t24 -107q0 -68 -23 -133.5t-63.5 -117.5t-96.5 -83.5t-123 -32.5q-21 0 -32 4t-14 4l-40 -161h78l-12 -50h-261 l12 50h77l76 304q-37 -75 -77 -113.5t-88 -38.5q-51 0 -75 41t-24 107q0 67 22.5 132t62.5 116.5t95.5 83.5t121.5 34q23 0 34.5 -4t15.5 -4zM173 73q28 0 59.5 37.5t75.5 128.5l44 178q-5 5 -20 14t-38 9q-38 0 -68 -25t-51 -64.5t-32.5 -88.5t-11.5 -96q0 -49 9.5 -71 t32.5 -22zM550 412q-27 0 -59 -37t-75 -126l-45 -182q6 -5 21.5 -13t36.5 -8q38 0 68.5 25t51.5 64.5t32 88t11 95.5q0 50 -9.5 71.5t-32.5 21.5z" />
<glyph unicode="&#x445;" horiz-adv-x="536" d="M0 0zM293 325l86 106q30 37 51 51.5t41 14.5q19 0 32 -17.5t18 -46.5q5 -20 6 -38l-28 -14q-10 9 -20.5 13t-20.5 4q-40 0 -80 -48l-69 -80l47 -159q11 -38 35 -38q16 0 33 13.5t35 31.5l20 -20q-15 -22 -31.5 -42.5t-34.5 -36t-37.5 -25t-40.5 -9.5q-33 0 -50.5 20.5 t-25.5 46.5l-39 124l-97 -119q-26 -31 -50 -51.5t-50 -20.5q-23 0 -35.5 13t-17.5 36q-2 8 -2.5 16t-1.5 16l22 25q9 -6 21 -8.5t23 -1.5q23 1 47 13t43 35l82 98l-55 179q-4 9 -9.5 15t-13.5 6q-11 0 -31 -8.5t-38 -17.5l-6 33l27 20.5t33 21.5t37.5 17t39.5 7 q32 0 48.5 -20t29.5 -63z" />
<glyph unicode="&#x446;" horiz-adv-x="581" d="M341 -178q21 6 29 17.5t11 27.5t4.5 36t9.5 43q5 17 16 32t27 30q-15 -8 -32 -13.5t-33 -5.5q-36 0 -45 25t-1 59l35 139h-3q-34 -62 -64 -105t-58.5 -70t-55 -39.5t-52.5 -12.5q-24 0 -41 9t-25.5 29.5t-8 52.5t11.5 78l62 242q5 19 0 27t-14 8t-26 -6t-45 -21l-1 35 q38 28 80.5 45t73.5 17q36 -1 44.5 -22.5t-0.5 -56.5l-60 -234q-12 -47 -13.5 -72.5t25.5 -25.5q28 0 79 56.5t114 176.5l40 163h107l-110 -442h70v-21q-15 -17 -18 -34t-3 -35t-0.5 -37.5t-8.5 -40.5q-11 -28 -39 -48t-77 -24z" />
<glyph unicode="&#x447;" horiz-adv-x="582" d="M433 102q-5 -20 -1 -25.5t9 -5.5q12 0 31.5 15.5l42.5 35.5l13 -29q-45 -54 -86.5 -81t-71.5 -27q-38 0 -48.5 27t0.5 65l48 197q-38 -45 -85.5 -75t-92.5 -30q-52 0 -72 40t-1 115l18 72q5 19 0.5 27t-14.5 8q-8 0 -25 -6t-45 -21l-2 35q39 28 81.5 45t72.5 17 q35 -1 44 -22.5t-1 -56.5l-20 -82q-10 -34 -5 -56t37 -22t63.5 19t60.5 48l39 157h106l-96 -384v0z" />
<glyph unicode="&#x448;" horiz-adv-x="840" d="M343 196q-31 -57 -59 -97.5t-54 -65.5t-51 -36.5t-50 -11.5q-48 0 -67 39t4 130l62 242q5 19 0 27t-14 8t-26 -6t-45 -21l-1 35q38 28 80.5 45t73.5 17q36 -1 44.5 -22.5t-0.5 -56.5l-60 -234q-12 -47 -13.5 -72.5t25.5 -25.5q28 0 74.5 56t107.5 174l42 166h106 l-76 -298q-11 -47 -12.5 -72.5t25.5 -25.5q28 0 74 55.5t106 173.5l42 167h107l-97 -384q-5 -20 -0.5 -25.5t9.5 -5.5q11 0 31 15.5t42 35.5l14 -29q-45 -54 -87 -81t-71 -27q-18 0 -29 7.5t-16 20t-5 27.5t4 30l35 142h-2q-33 -62 -61.5 -105t-55.5 -70t-52.5 -39.5 t-51.5 -12.5q-49 0 -67.5 38.5t4.5 130.5z" />
<glyph unicode="&#x449;" horiz-adv-x="836" d="M343 196q-31 -57 -59 -97.5t-54 -65.5t-51 -36.5t-50 -11.5q-48 0 -67 39t4 130l62 242q5 19 0 27t-14 8t-26 -6t-45 -21l-1 35q38 28 80.5 45t73.5 17q36 -1 44.5 -22.5t-0.5 -56.5l-60 -234q-12 -47 -13.5 -72.5t25.5 -25.5q28 0 74.5 56t107.5 174l42 166h106 l-76 -298q-11 -47 -12.5 -72.5t25.5 -25.5q28 0 74 55.5t106 173.5l42 167h107l-111 -442h70v-21q-14 -17 -17.5 -34t-3.5 -35t-0.5 -37.5t-8.5 -40.5q-11 -28 -38.5 -48t-76.5 -24l-5 18q21 6 29 17.5t10.5 27.5t4 36t9.5 43q10 31 44 62q-16 -8 -33 -13.5t-32 -5.5 q-37 0 -45.5 25t-0.5 59l34 139h-1q-33 -62 -61.5 -105t-55.5 -70t-52.5 -39.5t-51.5 -12.5q-49 0 -67.5 38.5t4.5 130.5z" />
<glyph unicode="&#x44a;" horiz-adv-x="533" d="M402 453q-58 -39 -102 -88.5t-70 -106.5q23 20 57 36.5t76 16.5q54 0 83.5 -28t29.5 -81q0 -51 -22 -91t-57 -68t-77.5 -43t-83.5 -15q-72 0 -106 36t-34 94q0 43 14 83.5t38 78t56 71.5t67 63q-29 -9 -51 -11t-41 -1.5t-36 3t-35 2.5q-15 0 -27 -10t-26 -43l-25 8 q13 39 24.5 66t24 43.5t26.5 24t34 7.5q28 0 50 -7t44.5 -15t47.5 -13t59 -1q8 6 17 11.5l17 10.5h25zM252 32q21 0 41 12.5t36 33.5t25.5 49t9.5 60q0 35 -15 51t-38 16q-18 0 -35 -8t-31.5 -20t-25.5 -25.5t-17 -23.5q-4 -17 -5.5 -34t-1.5 -34q0 -41 15.5 -59t41.5 -18z " />
<glyph unicode="&#x44b;" horiz-adv-x="728" d="M201 267q20 19 50.5 35t77.5 16q54 0 83.5 -28t29.5 -81q0 -52 -22.5 -93.5t-57.5 -70.5t-78 -44.5t-84 -15.5q-44 0 -73.5 13.5t-45 38.5t-18 59.5t8.5 75.5l57 224q5 19 0 27t-14 8q-8 0 -25 -6t-45 -21l-2 35q39 28 81.5 45t72.5 17q36 -1 44.5 -22.5t-0.5 -56.5z M583 112q-10 -41 4 -41q19 0 74 51l13 -29q-45 -54 -86.5 -81.5t-72.5 -26.5q-34 1 -46 26t-1 66l101 409h106zM216 32q21 0 41.5 12.5t36 34.5t25.5 51.5t10 63.5q0 35 -14.5 51t-37.5 16q-28 0 -52 -19t-41 -39l-13 -52q-14 -57 -2 -88t47 -31z" />
<glyph unicode="&#x44c;" horiz-adv-x="493" d="M201 267q20 19 50.5 35t77.5 16q54 0 83.5 -28t29.5 -81q0 -52 -22.5 -93.5t-57.5 -70.5t-78 -44.5t-84 -15.5q-44 0 -73.5 13.5t-45 38.5t-18 59.5t8.5 75.5l57 224q5 19 0 27t-14 8q-8 0 -25 -6t-45 -21l-2 35q39 28 81.5 45t72.5 17q36 -1 44.5 -22.5t-0.5 -56.5z M216 32q21 0 41.5 12.5t36 34.5t25.5 51.5t10 63.5q0 35 -14.5 51t-37.5 16q-28 0 -52 -19t-41 -39l-13 -52q-14 -57 -2 -88t47 -31z" />
<glyph unicode="&#x44d;" horiz-adv-x="463" d="M130 -16q-43 0 -78.5 10.5t-60.5 27.5l20 126l32 2q12 -118 86 -118q30 0 55 15.5t44.5 41.5t33.5 60t23 72h-171l8 47h172q2 17 3.5 35t1.5 35q0 49 -15 81t-59 32t-73.5 -25t-55.5 -79l-32 3l28 113q36 19 73.5 28t82.5 9q84 0 127 -48.5t43 -129.5q0 -63 -21 -123.5 t-59 -108.5t-91 -77t-117 -29z" />
<glyph unicode="&#x44e;" horiz-adv-x="771" d="M730 329q0 -60 -23 -121.5t-63.5 -111t-96.5 -81t-121 -31.5q-80 0 -118.5 48t-39.5 129q0 14 1 28.5t3 28.5h-80l-54 -218h-107l98 395q8 35 -12 35q-11 0 -31 -8t-41 -19l-2 35q47 30 87 46.5t69 16.5q35 0 44 -21t1 -51l-40 -163h80q15 48 41.5 90.5t63 74.5t81.5 51 t96 19q78 0 120.5 -45.5t43.5 -126.5zM449 37q33 0 62.5 29.5t51.5 74.5t34.5 99.5t12.5 104.5q0 49 -14 77.5t-52 28.5t-67.5 -30t-49.5 -75t-30 -98.5t-10 -99.5q0 -23 3 -43t10 -35t19 -24t30 -9z" />
<glyph unicode="&#x44f;" horiz-adv-x="540" d="M395 112q-10 -41 5 -41q18 0 73 51l14 -29q-45 -54 -86.5 -81.5t-72.5 -26.5q-34 1 -46 26t-2 66l34 139h-60q-44 -66 -76 -109.5t-57.5 -69.5t-48.5 -37t-49 -12q-15 -1 -26.5 1t-19.5 4q-10 3 -16 7v27q14 0 24.5 10t33.5 36l71 80q16 19 29.5 32t26 22.5t26 15.5 t28.5 11v3q-26 1 -49.5 7t-41 18t-27.5 31.5t-10 46.5q0 35 16 64.5t45.5 51t70 33.5t89.5 12q34 0 60 -6t46 -14l73 20h20zM190 330q0 -42 27.5 -59t65.5 -17h40l43 173q-11 12 -27.5 20t-39.5 8q-26 0 -46.5 -11t-34.5 -28.5t-21 -40t-7 -45.5z" />
<glyph unicode="&#x451;" horiz-adv-x="478" d="M19 0zM402 670q0 28 21 50t52 22q22 0 37.5 -13.5t15.5 -39.5q0 -32 -23 -51t-50 -19q-22 0 -37.5 13.5t-15.5 37.5zM219 669q0 29 21 51t52 22q22 0 37 -13.5t15 -39.5q0 -32 -23 -51t-50 -19q-23 0 -37.5 13.5t-14.5 36.5zM391 101q-19 -23 -43.5 -44t-53 -37 t-61 -25.5t-67.5 -9.5q-41 0 -69 12.5t-45 34.5t-25 51.5t-8 63.5q0 58 21.5 121t62 114.5t98 85t128.5 33.5q28 0 52 -5.5t42 -17t28 -29.5t10 -43q0 -30 -16.5 -59.5t-54.5 -54.5t-100 -42.5t-152 -22.5q-3 -29 -3 -54t3.5 -46.5t13.5 -37t27 -24.5t43 -9q36 0 73 17.5 t82 58.5zM288 453q-29 0 -52.5 -16t-41.5 -42.5t-30.5 -60t-19.5 -69.5q58 8 96 22.5t60.5 32.5t32 37.5t9.5 37.5q0 30 -14 44t-40 14z" />
<glyph horiz-adv-x="524" d="M538 635q0 -35 -15 -67.5t-39 -61t-54.5 -51t-61.5 -37.5q49 -14 76.5 -49t27.5 -89q0 -60 -22.5 -113.5t-60 -93.5t-85 -63.5t-97.5 -23.5q-76 0 -117.5 55t-41.5 152q0 49 10 110.5t30 124.5t50 122.5t70 106t89.5 75t108.5 28.5q62 0 97 -31t35 -94zM258 374 q-24 0 -41.5 -3t-30.5 -8q-11 -49 -17.5 -96.5t-6.5 -87.5q0 -73 18.5 -105.5t51.5 -32.5q28 0 51 22t39.5 54.5t25.5 70t9 69.5q0 60 -26 88.5t-73 28.5zM312 427q25 15 46.5 38t36.5 50.5t23.5 58t8.5 62.5q0 72 -45 72q-27 0 -57.5 -29t-63.5 -95q-17 -32 -32.5 -76 t-29.5 -95q18 5 43.5 9.5t60.5 4.5h9z" />
<glyph horiz-adv-x="447" d="M6 0zM6 101q0 46 21 74.5t52.5 47.5t68.5 33.5t68.5 32t52.5 42t21 64.5q0 28 -18 42.5t-47 14.5q-39 0 -68.5 -27.5t-59.5 -84.5l-32 3l31 121q37 19 74 28t83 9q32 0 59 -6.5t47 -20t31.5 -35t11.5 -51.5q0 -49 -21 -79.5t-52 -50.5t-68 -34.5t-68 -31t-52 -39.5 t-21 -60q0 -27 19.5 -43t54.5 -16q51 0 84 29t61 85l35 -3l-34 -123q-36 -19 -78 -28t-85 -9q-35 0 -66.5 6.5t-54.5 20t-36.5 35.5t-13.5 54z" />
<glyph horiz-adv-x="528" d="M315 170h-3q-49 -79 -100 -128.5t-104 -49.5q-39 0 -66 31t-27 102q0 65 24.5 132t68 121t102 88.5t126.5 34.5q24 0 45 -5.5t40 -13.5l63 19h18l-125 -508q-12 -48 -35.5 -88.5t-57.5 -69t-78.5 -44.5t-98.5 -16q-37 0 -69 9t-62 29l25 126l34 3q8 -57 31.5 -85 t71.5 -28q56 0 84.5 38.5t46.5 113.5zM158 83q17 0 38.5 16t45 42.5t48 61t47.5 72.5l1 2l35 134q-16 15 -35 25t-39 10q-43 0 -75.5 -32t-54.5 -78t-33.5 -97t-11.5 -90q0 -66 34 -66z" />
<glyph horiz-adv-x="744" d="M407 652q5 20 2 28t-13 8q-12 0 -31 -8t-41 -19l-2 35q48 30 87.5 46t68.5 16q35 0 44.5 -21t1.5 -54l-170 -683h-107zM278 223l-210 -237h-111v31l243 255l-26.5 31l-27.5 32l-23 27t-13 16q-15 20 -20 48.5t15 59.5h133l-8 -27q-13 -5 -22 -14.5t-14 -22t-4.5 -26.5 t7.5 -27q2 -6 15 -26.5t29 -43.5l41 -58zM441 241l64 58l47 43t27 27q27 26 28.5 53t-19.5 37v27h134q5 -31 -11 -59.5t-40 -48.5l-142 -110l139 -251l-10 -31h-99l-122 237z" />
<glyph horiz-adv-x="419" d="M50 -225q-46 0 -76.5 9t-59.5 29l24 126l30 3q8 -55 29.5 -86t66.5 -31q33 0 59 15t43.5 41t26.5 59.5t10 71.5q1 78 -27.5 107.5t-81.5 22.5l-24 -3l6 42l41 6q37 4 63.5 19.5t44 39t25.5 52t9 60.5q1 43 -12.5 68.5t-45.5 25.5q-42 0 -72 -28.5t-60 -85.5l-31 3l36 123 q74 37 151 37q72 0 109.5 -37.5t35.5 -102.5q-2 -72 -50 -123t-136 -68q25 -2 49 -11.5t42.5 -27t29.5 -44.5t11 -65q0 -55 -20 -100.5t-56 -78t-84.5 -50.5t-105.5 -18z" />
<glyph d="M42 0zM436 102q-6 -20 -1.5 -25.5t9.5 -5.5q12 0 31.5 15.5t41.5 35.5l14 -29q-45 -54 -86.5 -81t-71.5 -27q-18 0 -29 7.5t-16 20t-5 27.5t4 30l35 142h-3q-34 -62 -64 -105t-58.5 -70t-55 -39.5t-52.5 -12.5q-24 0 -41 9t-25.5 29.5t-8 52.5t11.5 78l62 242q5 19 0 27 t-14 8t-26 -6t-45 -21l-1 35q38 28 80.5 45t73.5 17q36 -1 44.5 -22.5t-0.5 -56.5l-60 -234q-12 -47 -13.5 -72.5t25.5 -25.5q28 0 79 56.5t114 176.5l40 163h107l-96 -384v0z" />
<glyph d="M42 0zM436 102q-6 -20 -1.5 -25.5t9.5 -5.5q12 0 31.5 15.5t41.5 35.5l14 -29q-45 -54 -86.5 -81t-71.5 -27q-18 0 -29 7.5t-16 20t-5 27.5t4 30l35 142h-3q-34 -62 -64 -105t-58.5 -70t-55 -39.5t-52.5 -12.5q-24 0 -41 9t-25.5 29.5t-8 52.5t11.5 78l62 242q5 19 0 27 t-14 8t-26 -6t-45 -21l-1 35q38 28 80.5 45t73.5 17q36 -1 44.5 -22.5t-0.5 -56.5l-60 -234q-12 -47 -13.5 -72.5t25.5 -25.5q28 0 79 56.5t114 176.5l40 163h107l-96 -384v0zM503 695q-18 -48 -56.5 -79t-108.5 -31q-57 0 -89 28t-31 82h92q-2 -29 9 -48t34 -19q32 0 52 19 t33 48h65z" />
<glyph horiz-adv-x="506" d="M169 652q5 20 1.5 28t-13.5 8q-11 0 -30.5 -8t-41.5 -19l-1 35q48 30 87 46t68 16q35 0 44.5 -21t1.5 -54l-169 -683h-107zM202 241l64 58l47 43t27 27q27 26 29 53t-19 37v27h133q6 -31 -10.5 -59.5t-40.5 -48.5l-141 -109l138 -253l-10 -31h-98l-123 238z" />
<glyph horiz-adv-x="524" d="M-2 -17q-23 0 -36.5 15.5t-13.5 35.5q0 54 63 68q33 7 57.5 26t49.5 61q3 6 17 29l33 55.5l40.5 69l40.5 68.5l33 56t17 30h28l73 -414q5 -27 20 -39t35 -15l-7 -29h-224l7 29q29 0 47 13.5t15 35.5l-42 257l-101 -189l-38 -71.5t-34 -50.5t-36 -30.5t-44 -10.5z" />
<glyph horiz-adv-x="589" d="M32 0zM130 395q8 35 -12 35q-11 0 -30.5 -7.5t-41.5 -19.5l-2 35q98 63 154 63q35 0 43.5 -20.5t0.5 -51.5l-44 -162h4q34 63 65 107.5t59.5 72.5t56 41t55.5 13q49 0 67 -38.5t-4 -130.5l-56 -222q-9 -39 5 -39q20 0 75 51l13 -29q-48 -57 -89 -83t-72 -25 q-36 1 -45.5 29t-0.5 63l57 221q12 47 13 71.5t-26 24.5q-29 0 -81.5 -57.5t-116.5 -177.5l-38 -159h-107l98 395v0z" />
<glyph horiz-adv-x="863" d="M32 0zM130 395q8 35 -12 35q-11 0 -30.5 -7.5t-41.5 -19.5l-2 35q98 63 153 63q35 0 44 -21t1 -51l-40 -152h3q66 121 121 172.5t110 51.5q49 0 65.5 -38t-5.5 -127l-15 -57h1q66 120 121 171t109 51q49 0 67.5 -38.5t-4.5 -130.5l-56 -222q-5 -20 -4 -29.5t10 -9.5 q19 0 74 51l13 -29q-48 -57 -89 -83t-71 -25q-18 0 -29.5 8t-17 21t-5.5 29.5t5 33.5l57 221q12 47 13 71.5t-26 24.5q-28 0 -77.5 -52.5t-110.5 -164.5l-44 -177h-105l74 298q14 53 13 74.5t-27 21.5q-28 0 -78.5 -54.5t-112.5 -168.5l-42 -171h-107l98 395v0z" />
<glyph horiz-adv-x="581" d="M341 -178q21 6 29 17.5t11 27.5t4.5 36t9.5 43q5 17 16 32t27 30q-15 -8 -32 -13.5t-33 -5.5q-36 0 -45 25t-1 59l35 139h-3q-34 -62 -64 -105t-58.5 -70t-55 -39.5t-52.5 -12.5q-24 0 -41 9t-25.5 29.5t-8 52.5t11.5 78l62 242q5 19 0 27t-14 8t-26 -6t-45 -21l-1 35 q38 28 80.5 45t73.5 17q36 -1 44.5 -22.5t-0.5 -56.5l-60 -234q-12 -47 -13.5 -72.5t25.5 -25.5q28 0 79 56.5t114 176.5l40 163h107l-110 -442h70v-21q-15 -17 -18 -34t-3 -35t-0.5 -37.5t-8.5 -40.5q-11 -28 -39 -48t-77 -24z" />
<glyph horiz-adv-x="840" d="M343 196q-31 -57 -59 -97.5t-54 -65.5t-51 -36.5t-50 -11.5q-48 0 -67 39t4 130l62 242q5 19 0 27t-14 8t-26 -6t-45 -21l-1 35q38 28 80.5 45t73.5 17q36 -1 44.5 -22.5t-0.5 -56.5l-60 -234q-12 -47 -13.5 -72.5t25.5 -25.5q28 0 74.5 56t107.5 174l42 166h106 l-76 -298q-11 -47 -12.5 -72.5t25.5 -25.5q28 0 74 55.5t106 173.5l42 167h107l-97 -384q-5 -20 -0.5 -25.5t9.5 -5.5q11 0 31 15.5t42 35.5l14 -29q-45 -54 -87 -81t-71 -27q-18 0 -29 7.5t-16 20t-5 27.5t4 30l35 142h-2q-33 -62 -61.5 -105t-55.5 -70t-52.5 -39.5 t-51.5 -12.5q-49 0 -67.5 38.5t4.5 130.5z" />
<glyph horiz-adv-x="836" d="M343 196q-31 -57 -59 -97.5t-54 -65.5t-51 -36.5t-50 -11.5q-48 0 -67 39t4 130l62 242q5 19 0 27t-14 8t-26 -6t-45 -21l-1 35q38 28 80.5 45t73.5 17q36 -1 44.5 -22.5t-0.5 -56.5l-60 -234q-12 -47 -13.5 -72.5t25.5 -25.5q28 0 74.5 56t107.5 174l42 166h106 l-76 -298q-11 -47 -12.5 -72.5t25.5 -25.5q28 0 74 55.5t106 173.5l42 167h107l-111 -442h70v-21q-14 -17 -17.5 -34t-3.5 -35t-0.5 -37.5t-8.5 -40.5q-11 -28 -38.5 -48t-76.5 -24l-5 18q21 6 29 17.5t10.5 27.5t4 36t9.5 43q10 31 44 62q-16 -8 -33 -13.5t-32 -5.5 q-37 0 -45.5 25t-0.5 59l34 139h-1q-33 -62 -61.5 -105t-55.5 -70t-52.5 -39.5t-51.5 -12.5q-49 0 -67.5 38.5t4.5 130.5z" />
<glyph horiz-adv-x="540" d="M409 453q-58 -39 -102 -88.5t-70 -106.5q23 20 57 36.5t76 16.5q54 0 83.5 -28t29.5 -81q0 -51 -22 -91t-57 -68t-77.5 -43t-83.5 -15q-72 0 -106 36t-34 94q0 41 13 80t35.5 75t52 69.5t62.5 62.5q-26 -6 -47.5 -7t-40 0.5t-35.5 4t-35 2.5q-15 0 -27.5 -9t-26.5 -44 l-25 8q13 39 24.5 66.5t24 44.5t27 24.5t34.5 7.5q28 0 49.5 -6t43.5 -13.5t48.5 -13t65.5 -3.5q8 6 17 11.5l17 10.5h26zM259 32q21 0 41 12.5t36 33.5t25.5 49t9.5 60q0 35 -15 51t-38 16q-18 0 -34.5 -8t-30.5 -19t-25 -24.5t-18 -23.5q-8 -37 -8 -70q0 -41 15.5 -59 t41.5 -18z" />
<glyph horiz-adv-x="493" d="M201 267q20 19 50.5 35t77.5 16q54 0 83.5 -28t29.5 -81q0 -52 -22.5 -93.5t-57.5 -70.5t-78 -44.5t-84 -15.5q-44 0 -73.5 13.5t-45 38.5t-18 59.5t8.5 75.5l57 224q5 19 0 27t-14 8q-8 0 -25 -6t-45 -21l-2 35q39 28 81.5 45t72.5 17q36 -1 44.5 -22.5t-0.5 -56.5z M216 32q21 0 41.5 12.5t36 34.5t25.5 51.5t10 63.5q0 35 -14.5 51t-37.5 16q-28 0 -52 -19t-41 -39l-13 -52q-14 -57 -2 -88t47 -31z" />
<glyph horiz-adv-x="749" d="M707 329q0 -60 -23 -121.5t-63.5 -111t-96 -81t-120.5 -31.5q-80 0 -119 48t-40 129q0 14 1.5 28.5t3.5 28.5h-80l-54 -218h-107l160 652q5 20 1.5 28t-13.5 8q-11 0 -30.5 -8t-41.5 -19l-1 35q48 30 87 46t68 16q35 0 44.5 -21t1.5 -54l-103 -417h79q15 48 41.5 90.5 t63 74.5t81.5 51t96 19q78 0 120.5 -45.5t43.5 -126.5zM426 37q33 0 62.5 29.5t51.5 74.5t34.5 99.5t12.5 104.5q0 49 -13.5 77.5t-51.5 28.5t-67.5 -30t-49.5 -75t-30 -98.5t-10 -99.5q0 -23 2.5 -43t9.5 -35t19 -24t30 -9z" />
<glyph horiz-adv-x="311" d="M40 0zM160 91q-3 -20 9 -20q11 0 28.5 12t46.5 39l14 -29q-48 -57 -89.5 -83t-71.5 -25q-33 1 -45 27t-1 68l78 315q8 35 -12 35q-11 0 -31 -8t-41 -19l-2 35q47 30 87 46.5t69 16.5q35 0 43.5 -21t0.5 -51l-83 -338v0zM117 700h234l-16 -63h-234z" />
<glyph horiz-adv-x="531" d="M488 323q0 -60 -23.5 -120.5t-64.5 -109t-97 -79t-121 -30.5q-80 0 -120 48t-40 129q0 63 22 121.5t61 104.5t92.5 73.5t115.5 27.5q29 0 48 -10.5t24 -14.5q-26 24 -53 39.5t-51.5 26.5l-46 20t-37.5 21t-25 29t-9 43q0 42 34.5 72t101.5 30h140q24 0 38 3t23 8t15 12 t12 16h31l-38 -127h-218q-53 0 -53 -35q0 -16 17.5 -28.5t44.5 -27t57.5 -33.5t57.5 -46.5t44.5 -67t17.5 -95.5zM205 37q33 0 63 28t52.5 71.5t35.5 96t13 102.5q0 48 -14.5 75.5t-52.5 27.5t-68 -28.5t-50 -72t-30.5 -94.5t-10.5 -97q0 -45 13 -77t49 -32z" />
<glyph horiz-adv-x="528" d="M0 0zM315 170h-3q-49 -79 -100 -128.5t-104 -49.5q-39 0 -66 31t-27 102q0 65 24.5 132t68 121t102 88.5t126.5 34.5q24 0 45 -5.5t40 -13.5l63 19h18l-125 -508q-12 -48 -35.5 -88.5t-57.5 -69t-78.5 -44.5t-98.5 -16q-37 0 -69 9t-62 29l25 126l34 3q8 -57 31.5 -85 t71.5 -28q56 0 84.5 38.5t46.5 113.5zM158 83q17 0 38.5 16t45 42.5t48 61t47.5 72.5l1 2l35 134q-16 15 -35 25t-39 10q-43 0 -75.5 -32t-54.5 -78t-33.5 -97t-11.5 -90q0 -66 34 -66z" />
<glyph d="M42 0zM436 102q-6 -20 -1.5 -25.5t9.5 -5.5q12 0 31.5 15.5t41.5 35.5l14 -29q-45 -54 -86.5 -81t-71.5 -27q-18 0 -29 7.5t-16 20t-5 27.5t4 30l35 142h-3q-34 -62 -64 -105t-58.5 -70t-55 -39.5t-52.5 -12.5q-24 0 -41 9t-25.5 29.5t-8 52.5t11.5 78l62 242q5 19 0 27 t-14 8t-26 -6t-45 -21l-1 35q38 28 80.5 45t73.5 17q36 -1 44.5 -22.5t-0.5 -56.5l-60 -234q-12 -47 -13.5 -72.5t25.5 -25.5q28 0 79 56.5t114 176.5l40 163h107l-96 -384v0zM262 700h234l-16 -63h-234z" />
<glyph horiz-adv-x="840" d="M284 680h409l-16 -63h-408zM343 196q-31 -57 -59 -97.5t-54 -65.5t-51 -36.5t-50 -11.5q-48 0 -67 39t4 130l62 242q5 19 0 27t-14 8t-26 -6t-45 -21l-1 35q38 28 80.5 45t73.5 17q36 -1 44.5 -22.5t-0.5 -56.5l-60 -234q-12 -47 -13.5 -72.5t25.5 -25.5q28 0 74.5 56 t107.5 174l42 166h106l-76 -298q-11 -47 -12.5 -72.5t25.5 -25.5q28 0 74 55.5t106 173.5l42 167h107l-97 -384q-5 -20 -0.5 -25.5t9.5 -5.5q11 0 31 15.5t42 35.5l14 -29q-45 -54 -87 -81t-71 -27q-18 0 -29 7.5t-16 20t-5 27.5t4 30l35 142h-2q-33 -62 -61.5 -105 t-55.5 -70t-52.5 -39.5t-51.5 -12.5q-49 0 -67.5 38.5t4.5 130.5z" />
<glyph unicode="&#xb4;" horiz-adv-x="422" d="M450 738l-186 -162h-37l-2 10l116 163h108z" />
<glyph unicode="`" horiz-adv-x="422" d="M245 749h108l87 -163l-1 -10h-38l-157 162z" />
<glyph unicode="&#x2c6;" horiz-adv-x="496" d="M355 749h49l74 -160l-6 -10h-42l-74 94l-108 -94h-36l-2 10z" />
<glyph unicode="&#xa8;" horiz-adv-x="472" d="M378 670q0 28 21 50t52 22q22 0 37.5 -13.5t15.5 -39.5q0 -32 -23 -51t-50 -19q-22 0 -37.5 13.5t-15.5 37.5zM195 669q0 29 21 51t52 22q22 0 37 -13.5t15 -39.5q0 -32 -23 -51t-50 -19q-23 0 -37.5 13.5t-14.5 36.5z" />
<glyph unicode="&#x2dc;" horiz-adv-x="462" d="M489 725q-13 -49 -41.5 -80t-79.5 -31q-23 0 -40 6.5t-31 14.5l-26 14.5t-23 6.5q-30 0 -52 -46h-36q13 46 42 78.5t75 32.5q19 0 35 -6.5t29.5 -14.5l25.5 -14.5t25 -6.5q20 0 35.5 11.5t24.5 34.5h37z" />
<glyph unicode="&#xaf;" horiz-adv-x="312" d="M152 700h234l-16 -63h-234z" />
<glyph unicode="&#xb8;" horiz-adv-x="498" d="M323 -128q0 -26 -12.5 -44.5t-32.5 -30.5t-45.5 -17.5t-51.5 -5.5q-17 0 -38.5 4t-37.5 10l13 54q16 -6 35 -10.5t36 -4.5q22 0 37 8t15 24q0 9 -6 14.5t-15.5 8.5t-21 4t-22.5 1l30 121h47l-16 -66q33 -3 59.5 -20.5t26.5 -49.5z" />
<glyph horiz-adv-x="368" d="M431 835l-199 -102h-37l-1 10l123 103h113z" />
<glyph horiz-adv-x="423" d="M330 854h48l89 -115l-6 -10h-42l-85 66l-108 -66h-35l-2 10z" />
<glyph horiz-adv-x="428" d="M372 791q0 28 21 48.5t50 20.5q21 0 36 -13t15 -37q0 -32 -22.5 -50.5t-48.5 -18.5q-21 0 -36 13.5t-15 36.5zM195 790q0 28 20.5 49t50.5 21q20 0 35.5 -13t15.5 -37q0 -15 -6.5 -28t-16.5 -22t-23 -14t-26 -5q-20 0 -35 13t-15 36z" />
<glyph horiz-adv-x="368" d="M193 846h112l123 -103l-1 -10h-37l-199 102z" />
<glyph horiz-adv-x="465" d="M496 850q-13 -45 -41.5 -77t-78.5 -32q-23 0 -40 6.5t-31 15t-26 15t-23 6.5q-30 0 -52 -47h-36q14 45 43 76.5t75 31.5q19 0 34.5 -6.5t28.5 -14.5t25 -14.5t25 -6.5q20 0 35.5 12t24.5 35h37z" />
<glyph horiz-adv-x="651" d="M569 838q-18 -48 -57 -74t-108 -26q-57 0 -89 23t-31 77h92q-2 -29 10 -43t33 -14q61 0 86 57h64z" />
<glyph horiz-adv-x="400" d="M495 695q-18 -48 -56.5 -79t-108.5 -31q-57 0 -89 28t-31 82h92q-2 -29 9 -48t34 -19q32 0 52 19t33 48h65z" />
<glyph unicode="&#x2122;" horiz-adv-x="1089" d="M1066 759v-33q-7 -1 -17.5 -2t-15.5 -4q-15 -6 -15 -29v-215q0 -23 15 -29q5 -3 14.5 -4l18.5 -2v-34h-178v34q7 1 17.5 2t16.5 3q14 7 14 30v198l-119 -205h-23l-119 208v-180q0 -17 5.5 -27.5t13.5 -16.5q8 -5 18.5 -8t22.5 -5v-33h-164v33q11 2 19.5 4t16.5 7 q10 6 16.5 17t6.5 29v184q0 26 -16 35q-5 4 -16 6l-23 4v33h140l109 -195l114 195h128zM397 720v-244q0 -24 15 -31q6 -2 13 -2.5t19 -1.5v-34h-177v34q8 1 16.5 1.5t14.5 2.5q15 5 15 31v244h-17q-42 0 -62.5 -17t-33.5 -61h-29v117h368v-117h-29q-12 45 -32.5 61.5 t-62.5 16.5h-18z" />
<glyph unicode="&#xae;" horiz-adv-x="628" d="M366 242q-52 0 -98 17t-80.5 49.5t-55 80.5t-20.5 111t20.5 111t55 80.5t80.5 49.5t98 17t98 -17t80.5 -49.5t55 -80.5t20.5 -111t-20.5 -111t-55 -80.5t-80.5 -49.5t-98 -17zM366 286q44 0 81.5 14t64.5 41.5t42.5 67.5t15.5 91t-15.5 91t-42.5 67.5t-64.5 41.5 t-81.5 14t-81.5 -14t-64.5 -41.5t-42.5 -67.5t-15.5 -91t15.5 -91t42.5 -67.5t64.5 -41.5t81.5 -14zM274 598q0 14 -9 17q-4 2 -8 2t-11 1v21h139q35 0 59.5 -16.5t24.5 -51.5q0 -26 -17.5 -44.5t-42.5 -26.5l52 -66q11 -14 20.5 -20t23.5 -8v-21h-79l-74 109h-20v-68 q0 -13 8 -16q7 -2 24 -4v-21h-118v21l19 3q9 5 9 17v172zM332 611v-90h24q27 0 38.5 10.5t11.5 36.5q0 23 -11.5 33t-32.5 10h-30z" />
<glyph unicode="&#xa9;" horiz-adv-x="663" d="M245 -9q-44 0 -82 13t-66 38.5t-43.5 64.5t-15.5 91q0 70 28 136.5t76.5 117.5t113.5 82t138 31q44 0 82 -12.5t65.5 -38t43.5 -65.5t16 -94q0 -77 -30.5 -143.5t-80 -115.5t-114 -77t-131.5 -28zM256 32q66 0 120.5 27.5t93.5 72.5t61 102t22 116q0 88 -45.5 131 t-124.5 43q-65 0 -120 -27.5t-94.5 -72.5t-62 -102t-22.5 -117q0 -45 13 -78t36 -54t54.5 -31t68.5 -10zM398 154q-29 -20 -63 -31t-66 -11q-106 0 -106 107q0 46 18.5 87.5t48.5 72.5t69 49.5t81 18.5q35 0 60.5 -14t25.5 -37q0 -21 -15.5 -36t-34.5 -15q-14 0 -20 9 t-10.5 19.5t-12 19.5t-25.5 9q-23 0 -41.5 -13.5t-32.5 -35.5t-21.5 -50.5t-7.5 -58.5q0 -32 13.5 -52.5t56.5 -20.5q34 0 91 17z" />
<glyph unicode="&#x20ac;" horiz-adv-x="671" d="M89 461h74q29 54 69.5 99.5t89 78.5t102.5 51.5t110 18.5q29 0 57.5 -5.5t51.5 -16.5t37.5 -28.5t14.5 -41.5q0 -29 -19 -46t-45 -17q-17 0 -26.5 8t-16 19.5t-12.5 25.5t-15.5 25.5t-25 19.5t-41.5 8q-36 0 -67 -16t-57.5 -43t-48 -63.5t-37.5 -76.5h200l-12 -50h-206 q-17 -58 -26 -109h205l-13 -50h-199q-1 -14 -1.5 -26.5t-0.5 -24.5q0 -81 29 -124t86 -43q25 0 43.5 7.5t33 19.5t26.5 25t24.5 25t26.5 19.5t32 7.5q16 0 27.5 -8t11.5 -30q0 -29 -21 -50.5t-54 -36t-73 -21.5t-77 -7q-114 0 -177.5 65.5t-63.5 186.5v15h-68l13 50h60 q7 55 29 109h-62z" />
<glyph unicode="$" horiz-adv-x="564" d="M439 827l-30 -119q33 -1 64.5 -7t56.5 -17.5t40 -28t15 -37.5q0 -12 -4.5 -24t-13.5 -21.5t-21.5 -16t-27.5 -6.5q-24 0 -36 14t-21.5 32.5t-23 36t-41.5 23.5l-62 -248l36 -14q29 -12 53.5 -27.5t42.5 -36t28 -46t10 -57.5q0 -54 -22.5 -96.5t-61 -72.5t-88 -48 t-103.5 -23l-36 -146h-53l36 144q-33 1 -65.5 8t-58 19.5t-41.5 30t-16 39.5q0 14 6.5 26.5t16.5 21.5t23 14.5t26 5.5q22 0 33.5 -14t22 -32.5t25 -37t42.5 -26.5l63 253l-36 15q-55 23 -85 60.5t-30 97.5q0 49 19.5 90t54 72t80.5 51t99 26l31 122h53zM375 172 q0 35 -18 59t-56 42l-59 -236q27 3 51 13.5t42.5 28.5t29 41.5t10.5 51.5zM222 524q0 -31 14.5 -54.5t49.5 -41.5l57 228q-24 -4 -45.5 -14.5t-38.5 -27.5t-27 -39.5t-10 -50.5z" />
<glyph unicode="&#xa2;" horiz-adv-x="471" d="M394 359q-25 0 -38 15t-18 35q-4 10 -8.5 19.5t-13.5 15.5l-96 -387q35 0 69.5 18.5t78.5 57.5l14 -31q-35 -42 -79 -74.5t-101 -40.5l-34 -138h-53l34 136q-35 3 -58.5 17t-37.5 35.5t-20.5 49.5t-6.5 60q0 54 18 111t50.5 105.5t78.5 84t103 47.5l32 128h53l-31 -123 q57 -2 89.5 -24t32.5 -57q0 -23 -14 -41.5t-44 -18.5zM142 170q0 -33 5.5 -59t22.5 -40l94 378q-31 -9 -54 -38.5t-38 -69.5t-22.5 -85.5t-7.5 -85.5z" />
<glyph unicode="&#xa3;" horiz-adv-x="612" d="M74 361h83l10 40q18 72 50 129.5t75 97t95 60.5t109 21q66 0 104 -23.5t38 -62.5q0 -31 -22.5 -49.5t-52.5 -17.5q-29 1 -38 18t-14 37t-15.5 36.5t-43.5 16.5q-27 0 -49.5 -13.5t-43 -45.5t-39.5 -85t-40 -133l-7 -26h190l-12 -50h-195q-15 -40 -45 -89.5t-87 -111.5 h389l1 -10l-60 -100h-470l2 35q42 39 70 75t46 70.5t28 66.5t17 64h-85z" />
<glyph unicode="&#xa5;" horiz-adv-x="717" d="M119 349h207l-13 -50h-207zM84 210h495l-13 -50h-495zM404 349h210l-13 -50h-210zM329 601q0 -13 4 -28l65 -228l187 234q19 25 19 40q0 19 -23.5 25t-51.5 8l10 41h242l-10 -36q-30 -3 -57 -19t-51 -42l-250 -302l-48 -198q-5 -21 -1.5 -32.5t15.5 -16.5q6 -3 20.5 -4 t29.5 -3l-11 -40h-277l11 40q10 1 27 2t26 5q15 5 24 17t14 32l49 201l-95 299q-10 26 -25.5 38.5t-46.5 17.5l10 41h301l-10 -41q-47 -3 -72 -12.5t-25 -38.5z" />
<glyph unicode="&#xa4;" horiz-adv-x="507" d="M405 111l-50 -42l-65 90q-17 -10 -36 -15.5t-37 -5.5q-37 0 -63 21l-111 -91l-28 44l108 91q-5 18 -5 37q0 29 11 55t29 48l-62 93l52 42l63 -91q14 9 36 15t39 6q16 0 33 -6t27 -14l109 90l31 -42l-109 -93q3 -9 4.5 -19.5t1.5 -19.5q0 -29 -12.5 -56t-28.5 -45z M328 289q0 34 -19.5 49.5t-42.5 15.5q-18 0 -35 -8.5t-30 -22.5t-21 -32.5t-8 -38.5q0 -26 17 -43t43 -17q19 0 36 8.5t30.5 22.5t21.5 31t8 35z" />
<glyph unicode="B" horiz-adv-x="656" d="M-11 40q11 1 28 2t25 5q16 5 24.5 17t14.5 32l124 501q11 40 -14 49q-8 3 -23.5 4.5l-26.5 2.5l10 40h296q91 0 138 -30t47 -92q0 -40 -17 -73.5t-46 -59.5t-66.5 -44t-77.5 -26l-1 -3q89 -3 128 -37t39 -89t-27 -99.5t-70.5 -75.5t-98 -47.5t-109.5 -16.5h-307zM460 226 q0 47 -32 76.5t-111 29.5h-57l-70 -281h69q39 0 75.5 12t64.5 34.5t44.5 55t16.5 73.5zM338 642l-65 -261h40q37 0 70 13t57.5 36t38.5 54.5t14 69.5q0 47 -25.5 67.5t-73.5 20.5h-56z" />
<glyph unicode="A" horiz-adv-x="690" d="M419 240h-225l-90 -144q-11 -18 -7 -31t23 -18q7 -2 23 -3.5t33 -3.5l-11 -40h-230l11 40q11 1 23.5 4.5t21.5 6.5q17 5 28.5 15.5t23.5 29.5l390 610h58l63 -610q2 -20 8 -30t19 -15q8 -3 19 -6.5t22 -4.5l-11 -40h-283l10 40q17 2 32 4t23 4q16 5 28 16.5t11 31.5z M228 293h187l-23 262z" />
<glyph horiz-adv-x="690" d="M0 0z" />
</font>
</defs>
</svg>
